<svg id="Layer_1" data-name="Layer 1" xmlns="http://www.w3.org/2000/svg" viewBox="0 0 1378.72 1378.72"><defs><style>.cls-1{fill:#fff;}.cls-2{fill:#2ba2db;}.cls-2,.cls-3,.cls-4,.cls-5,.cls-7{fill-rule:evenodd;}.cls-3{fill:#0788c2;}.cls-4{fill:#5cb783;}.cls-5,.cls-6{fill:#005e89;}.cls-7,.cls-8{fill:#020202;}</style></defs><title>udhiavi logo</title><circle class="cls-1" cx="689.36" cy="689.36" r="689.36"/><path class="cls-2" d="M524,723.8l12.52,12.09c17.42,16.89,43.25,34.09,65.43,43.39,138.45,58.1,289.46-19.07,336.29-160.4,13-39.21,15.51-75.87,14.45-120-.95-40.48-6.2-88.6,2.27-127.37,4.47-20.39,10.47-32.92,21.12-46.14,8-10,7.64-8.89,15.95-17.26,4.4-4.47,12.71-14,17.21-16.68l1.16-4.13-.11-58c-.72-2-.3-1.4-3.11-1.53-11.86-.57-33.37,5.22-43.53,9.61a129.9,129.9,0,0,0-44.61,33c-12.55,14.37-21.71,32-27.52,50.3-4.25,13.46-5.82,28.64-6,42.67,0,3.87-.72,5-.69,9.3v58.77c0,6.63-.64,11.54-.64,18.69V469.5c0,6.6-1.52,49.22-2.47,56.26-.85,6.23-1.19,25.62-2.63,36.06L877,579.7a216.36,216.36,0,0,1-18.76,68.49c-6.94,15.12-22.35,34.85-34.44,46.64-16.06,15.67-34.68,28.19-54.57,38.33-2.29,1.17-4.35,1.92-6.84,3.12-27.22,13.2-63.52,20.13-96.27,20.26-11.45.06-31.08-2.67-42.68-5-2.93-.6-5-1.19-8-1.9-18.7-4.39-38.61-13-55.46-22.08a220.5,220.5,0,0,1-29.1-19.33L518,697.17c-7.77-6.62-19.56-20.94-25-28.76l-11.38-17.88c-1.93-3.2-4.76-11-7.15-12.81,4,17.38,14.46,37.6,23.41,52.46l10.76,15.15c2.54,3.14,4.58,6.5,7.3,9.33Z" transform="translate(-84.73 -86.33)"/><path class="cls-3" d="M524,723.8c1.33,5.12,24.62,31.89,30.69,37.78,14.74,14.27,19,16.32,35.14,27.26,3.16,2.13,5.79,3.82,8.87,5.69,18.63,11.25,30.46,15.57,50.61,22.32A74.83,74.83,0,0,0,660.8,820c6.87.37,16.44,2.78,23.82,3.77a310.81,310.81,0,0,0,78.23.34c32.93-4,59.43-12.4,86.75-24.4a288.58,288.58,0,0,0,36.07-19.65c33.78-21.51,63.15-46.82,85.92-81.43,35.12-53.42,39.34-110,39.39-184.43,0-37.18-.88-74.26-1-111.47l-.72-82.83c-.16-8.53-.78-20.32-.08-28.51-4.5,2.7-12.81,12.21-17.21,16.68-8.31,8.37-7.9,7.25-15.95,17.26-10.65,13.22-16.65,25.75-21.12,46.14-8.47,38.77-3.22,86.89-2.27,127.37,1.06,44.15-1.46,80.81-14.45,120-46.83,141.33-197.84,218.5-336.29,160.4-22.18-9.3-48-26.5-65.43-43.39Z" transform="translate(-84.73 -86.33)"/><path class="cls-4" d="M1010.39,287.28l-1.16,4.13c-.7,8.19-.08,20,.08,28.51l.72,82.83c.07,37.21,1,74.29,1,111.47-.05,74.39-4.27,131-39.39,184.43-22.77,34.61-52.14,59.92-85.92,81.43a288.58,288.58,0,0,1-36.07,19.65c-27.32,12-53.82,20.37-86.75,24.4a310.81,310.81,0,0,1-78.23-.34c-7.38-1-17-3.4-23.82-3.77a30.11,30.11,0,0,0,5.17,2l17.8,6.05c27.35,7.67,51.22,12.53,82.09,12.53,25.42,0,34.45-1,58-4.86L849,829.82c43-12.29,78.75-31.6,112.68-60.41l31.59-30.85c13.09-15.69,23.46-28.22,34.09-46.33l8.56-15.38c11.68-23.28,17.08-35.13,24.78-61.76a343.53,343.53,0,0,0,8.79-39.16c2.42-14.76,6-42,6.31-57,.13-5.12.69-5.9.67-14.71,0-5.2.67-9.33.67-15.33V441.47c0-6-.7-10.14-.67-15.33,0-5.36,0-10.71,0-16.06s-.69-9.25-.67-15.33l-1.15-61.89c1.26-9.23-.49-21.75.59-31.47.41-3.85,1-10.81,1.21-14.79.31-5.53.67-10.1.67-15.35-8.16-1.92-27.22.78-37,3.32a103.5,103.5,0,0,0-23.13,8.68c-2.47,1.3-4.12,2.7-6.61,4Z" transform="translate(-84.73 -86.33)"/><path class="cls-4" d="M670.7,710.24c-9.7-.34-16.15-1.79-24.93-3.56-35.52-4.16-62-33.57-76-54.46a192.58,192.58,0,0,1-21.86-43.32c-3.17-9-12.51-44.56-12.15-54h-6.45c0-7.25.46-69.82-.31-71.12-1.47-2.42-12.87-1-16.24-1l-35.7-.05c-5.07-.08-6.07-2.19-5.28,12.73l.67,16.68c-.18,36.14,7.59,90.29,23.28,119.34,11.45,21.23,18.53,28.22,35,44.72,1.88,1.87,3.09,2.42,5,4.31,14.74,14.81,49.7,34.61,70.87,35.89,20.15,1.19,41.47.57,60.84-4.63,3.09-.83,2.53-.91,3.27-1.61Z" transform="translate(-84.73 -86.33)"/><path class="cls-2" d="M591.85,554.94c2.14,35.67-1.26,55.73,9.39,93.54,4.48,15.87,16.31,37.47,28.94,47.52,5.17,4.11,14.64,9.64,15.59,10.68,8.78,1.77,15.23,3.22,24.93,3.56.72-1-2.11-6.5-3.29-9.79a170.33,170.33,0,0,1-9.93-51.4l-2-44c.2-41,.67-80.27.67-121.5H592.06Z" transform="translate(-84.73 -86.33)"/><path class="cls-2" d="M529.26,290.61l.44,1.5c8.92,3,40.9,37.13,42.57,46.57h19.79v74.07h64.78c1.33-16.23-3.35-50.43-7.7-63.65-6.3-19.21-10.36-26.35-20.6-42.59-.72-1.15-1-1.74-1.75-2.91-4.84-7.33-15.88-21.31-22.36-26.82l-5.09-4.21c-12.07-8.7-22.38-13.48-37.15-17.2-8.36-2.1-21.71-4.8-31.59-4.8L530,280.63c0,4.42-.66,5.74-.69,10Z" transform="translate(-84.73 -86.33)"/><path class="cls-4" d="M529.9,338.68l-.2-46.57-.44-1.5c-3.22-.76-8.41-4-12.35-5.54a142,142,0,0,0-28.19-7.56c-9.57-1.56-12.48-.26-16.93-.26l-.7,16c-.18,5.71.21,11.66.06,17.41l0,101.44H520c12.1,0,9.27,6.75,9.27-40.72Z" transform="translate(-84.73 -86.33)"/><path class="cls-3" d="M645.77,706.68c-.95-1-10.42-6.57-15.59-10.68-12.63-10-24.46-31.65-28.94-47.52-10.65-37.81-7.25-57.87-9.39-93.54H535.74c-.36,9.4,9,45,12.15,54a192.58,192.58,0,0,0,21.86,43.32c14,20.89,40.5,50.3,76,54.46Z" transform="translate(-84.73 -86.33)"/><path class="cls-3" d="M529.9,338.68h42.37c-1.67-9.44-33.65-43.55-42.57-46.57Z" transform="translate(-84.73 -86.33)"/><path class="cls-5" d="M550.2,1077.88H526V972.26c19.5,0,35.86-3,47,12s8.6,33.75,8.6,54.69c0,19.28-12.3,39-31.39,39Zm-54.9,24.45h50.35c14.69,0,26.37-2.67,37.69-9.45,3.29-2,10.9-7.9,13.09-10.55,9.26-11.28,15.87-23.13,15.87-39.42v-36.33c0-16.18-7-27.28-15.3-38-10-13-30.44-20.74-48.09-20.74H495.3Z" transform="translate(-84.73 -86.33)"/><path class="cls-5" d="M647,949.81v150.52c0,1.54.46,2,1.95,2h29.43v-64h61.44v64h30.71V947.83H739.78v66H678.34v-66H648.91c-1.49,0-1.95.45-1.95,2Z" transform="translate(-84.73 -86.33)"/><path class="cls-5" d="M335.8,949.81v95.72c0,20.06,3.81,30.53,16.18,43.11,10,10.21,26.71,15.67,45.92,15.67,19.58,0,33.45-6.19,44.25-15.38,12.38-10.5,16.54-26.61,16.54-43.4V949.81c0-1.53-.46-2-1.95-2H427.31v101c0,18.14-10.34,31.05-27.45,31.05h-5.22c-15.75,0-27.45-12.42-27.45-28.4V947.83H337.76c-1.5,0-2,.45-2,2Z" transform="translate(-84.73 -86.33)"/><path class="cls-5" d="M865.29,990.73l17,53.5H849c3.21-14,13.12-39.6,16.33-53.5Zm-66.68,111.6h32a55.28,55.28,0,0,0,2.62-7.92c.83-3.07,1.78-5.54,2.6-8.6,1.55-5.64,3.91-11.46,5.25-17.15h49c.2,2.54,1.52,5.79,2.31,8.24,2,6.31,6.36,21.61,8.16,25.43h32l-22.15-67.42c-1.19-3.3-2.16-6.6-3.35-9.83l-25.49-77.25h-32c-.26,3.23-41.93,126-44.87,134.94-1.21,3.64-5.89,16.89-6.12,19.56Z" transform="translate(-84.73 -86.33)"/><path class="cls-5" d="M1070.53,1102.33h28.77c2.11,0,2.16-1.61,2.67-3.27.59-2,1-2.78,1.67-4.91,1.21-3.59,2.06-6.29,3.27-9.9L1146,967.89c1.44-3.87,6.17-16.29,6.25-20.06h-30.72c-2.47,0-4.32,9.38-5.5,13.57l-26.6,90c-1.21,4-3.84,12-3.84,15.92-2.23-1.66-.77.21-1.51-3.09l-33.78-116.41h-32.7c2.16,9.33,9.57,27.65,12.71,38.67,1,3.69,2.06,5.69,3.24,9.27s2.06,6.29,3.27,9.9c2.26,6.92,4.32,12.92,6.61,19.73l13.07,38.95c2.21,6.72,4.22,12.47,6.45,19.25,1.19,3.61,2.09,6.26,3.27,9.9,1.57,4.75,1.93,8.83,4.32,8.83Z" transform="translate(-84.73 -86.33)"/><rect class="cls-6" x="874.69" y="861.5" width="30.72" height="154.5"/><rect class="cls-6" x="1094.98" y="861.5" width="30.72" height="154.5"/><path class="cls-7" d="M795.34,1135.33v46.88h8.49v-33.68c.11.13.26.16.31.37s.23.28.31.36L819.78,1174c6.13,9.38,1.83,8.19,13.48,8.19v-46.88c0-2.8-2.52-2-8.51-2V1167c-1.85-1.4-4.14-5.79-5.58-8.21l-10.47-17.17c-5.84-9.85-3.63-8.29-11.4-8.29-1.49,0-2,.44-2,2Z" transform="translate(-84.73 -86.33)"/><path class="cls-7" d="M697.3,1155.13H686.83v-14.52c5.74,0,17-1.59,17,7.27,0,4.08-2.47,7.25-6.54,7.25Zm-19-19.8v46.88h8.49v-19.8c12.38,0,17.14-2.13,17,11.9-.1,9.35,1.85,7.9,10.47,7.9-.23-3-1.49-2.63-1.9-6-.44-3.66,1.64-14.88-6.59-17.09v-1.33c7.46-2,9.47-15.09.77-21.25-5.79-4.11-18.11-3.17-26.26-3.17-1.52,0-2,.44-2,2Z" transform="translate(-84.73 -86.33)"/><path class="cls-7" d="M545.65,1182.21h8.49v-20.48h20.27v20.48c6.38,0,9.13.91,9.13-2v-44.9c0-2.7-2-2-7.18-2-1.51,0-2,.44-2,2v19.15H554.14v-19.15c0-2.8-2.52-2-8.49-2Z" transform="translate(-84.73 -86.33)"/><path class="cls-7" d="M857.45,1175.61h-5.9v-35c17.24,0,19.61,2.54,19.61,20.47,0,8.94-4.84,14.53-13.71,14.53Zm-14.38,6.6c13.27,0,23.17,2.15,31.23-6.08,6.15-6.29,5.37-13.31,5.37-21.65,0-14.7-10.42-21.12-24.18-21.12H843.07Z" transform="translate(-84.73 -86.33)"/><path class="cls-7" d="M347.56,1135.33v46.88h8.51v-20.48H377v20.48c6,0,8.49.83,8.49-2v-44.9c0-2.8-2.5-2-8.49-2v21.12H356.07v-19.15c0-2.62-1.85-2-6.53-2-1.52,0-2,.44-2,2Z" transform="translate(-84.73 -86.33)"/><path class="cls-7" d="M1171.87,1165.71c0-19.88,14.38-12.68,14.38-8.58,0,14.37,1.9,18.48-7.85,18.48-4.86,0-6.53-4.89-6.53-9.9Zm14.38-16.5c-1.62-1.12-3.6-4-8.52-4-15.35,0-17.72,22.58-10.83,32.74,3,4.5,7.23,4.91,12.15,4.91,3.26,0,5.84-2.6,7.84-4,.85,1.76.59.7.67,3.3h7.18V1132c0-2.8-2.5-2-8.49-2Z" transform="translate(-84.73 -86.33)"/><path class="cls-7" d="M652.85,1146.56c1.39,6,3.86,11.25,5.22,17.17H647l4.58-15.2a6,6,0,0,1,1.31-2Zm-20.92,35.65h8.49c1.57-3.3,2.34-7.9,3.91-11.23h16.36c.47,2,1,3.35,1.68,5.56.72,2.44,1.41,3.54,1.59,5.67h9.13l-14.94-43.66c-1.83-5.87-1-5.19-7.93-5.19-2.54,0-4.27,7.3-5.48,11l-8.61,25a113.48,113.48,0,0,0-4.2,12.92Z" transform="translate(-84.73 -86.33)"/><path class="cls-7" d="M924.77,1145.91l5.89,17.82H919.55c.05-3.06,1.44-6,2.37-8.83a91.08,91.08,0,0,0,2.85-9Zm-20.27,36.3H913l3.91-11.23h16.34l3.27,11.23H945c-.07-3.46-10.24-31.31-12.17-37.21-4.42-13.41-2.57-11.64-10-11.64-2.81,0-4.58,8.18-5.48,11-1.5,4.58-3,8.29-4.43,12.71-1.31,4-2.78,7.92-4.24,12.21-1,2.78-4,10.84-4.17,13Z" transform="translate(-84.73 -86.33)"/><path class="cls-7" d="M985.56,1157.13H976.4v-16.52c5,0,12.87-.76,15.9,1.76,4.66,3.88,4.79,14.76-6.74,14.76Zm-17.65-21.8v46.88h8.49v-17.83c10.06,0,27.48.57,27.48-15.17,0-18.53-21-15.85-34-15.85-1.49,0-2,.44-2,2Z" transform="translate(-84.73 -86.33)"/><path class="cls-7" d="M449.54,1146.56c1.44,6.18,3.91,11.38,5.24,17.17H443c2.55-4.86,3.81-15.15,6.54-17.17Zm-20.92,35.65h8.52c1.56-3.33,2.13-7.85,3.91-11.23h16.33l3.27,11.23h8.51C468.86,1178.67,459,1151,457,1145c-.85-2.54-1.5-4-2.22-6.34-2-6.34-1-5.27-7.84-5.27-2.94,0-3.78,6-5.48,11Z" transform="translate(-84.73 -86.33)"/><path class="cls-7" d="M721.48,1135.33v46.88h28.77c2.59,0,2-1.87,2-6.6H730v-15.18h17c2.91,0,2.91-6.6,0-6.6H730v-13.22h21.59v-7.25H723.44c-1.52,0-2,.44-2,2Z" transform="translate(-84.73 -86.33)"/><path class="cls-7" d="M395.28,1182.21h30.07v-6.6H403.79v-15.18h18.3v-6.6h-18.3v-13.22h21.56c0-9.9,4.45-7.25-30.07-7.25Z" transform="translate(-84.73 -86.33)"/><path class="cls-7" d="M591.39,1153.83v8.58c0,27.93,36.61,24.6,36.61,6.6v-3.3h-5.89c-4.1,0-.24,10.44-11.76,10.42-12.12-.06-10.45-16.3-10.45-23,0-15.23,14-15.28,18.09-10.34a11.68,11.68,0,0,1,2.16,7c8.36,0,9.49,1.11,7.46-6.21-2.13-7.75-10.32-11.07-18.24-10.55-11.7.75-18,8.91-18,20.73Z" transform="translate(-84.73 -86.33)"/><path class="cls-7" d="M501.84,1135.33v5.28h14.38v41.6h8.49v-41.6h15c0-5.2.69-7.25-2-7.25h-34c-1.49,0-2,.44-2,2Z" transform="translate(-84.73 -86.33)"/><path class="cls-7" d="M475,1135.33v46.88h30.74v-6.6H485.5c-1.52,0-1.95-.47-1.95-2v-40.27c-6,0-8.52-.83-8.52,2Z" transform="translate(-84.73 -86.33)"/><path class="cls-7" d="M1105.19,1182.21h30.71v-6.6h-22.22v-40.28c0-1.53-.44-2-2-2h-6.53Z" transform="translate(-84.73 -86.33)"/><path class="cls-7" d="M1020.21,1182.21h7.18c1.91-3.61,12.35-33.26,12.43-36.3h-8.49c-.18,2.08-6,23-7.85,24.42-.26-2.93-2.55-9.09-3.5-12.31-1.23-4.19-2.78-8.16-3.7-12.11h-8.49c.23,2.8,4.91,14.68,6.15,18.21Z" transform="translate(-84.73 -86.33)"/><path class="cls-7" d="M1047,1145.91h-5.25v6.6H1047c0,16.57-2.73,30.37,10.45,30.37,5.89,0,4.91-2.15,4.83-3.4-.64-8.65-6.79,1-6.79-9.15v-17.82H1062v-6.6h-6.53v-8.6H1047Z" transform="translate(-84.73 -86.33)"/><path class="cls-7" d="M1143.75,1145.91h-5.22v6.6h5.22V1173c0,12.88,12.09,9.51,15,9.25a21,21,0,0,0-.67-6.6c-7.79,0-5.89-.31-5.89-23.1h6.56v-6.6h-6.56v-8.6h-8.49Z" transform="translate(-84.73 -86.33)"/><path class="cls-7" d="M569.16,1229.76c6.87,0,5.25,7,5.25,14.52,0,4.08-11.35,7.74-11.68-4.68-.1-4.57,1.65-9.84,6.43-9.84Zm-11.11,6.6v6.6c0,5.5,6,12.81,16.36,7.25,0,10.16-6.9,7.4-13.1,6-.56,2.46-2.72,5.95,7.85,5.95,6.77,0,10.47-4.27,10.47-11.23v-25.1c-4.5,0-4.35-.31-4.58,2.65-4.81-3.27-3-2.65-9.8-2.65-2.88,0-7.2,5.15-7.2,10.58Z" transform="translate(-84.73 -86.33)"/><polygon class="cls-7" points="517.77 1165.2 522.99 1165.2 522.99 1150.67 538.68 1150.67 538.68 1165.2 543.93 1165.2 543.93 1130.87 538.68 1130.87 538.68 1146.05 522.99 1146.05 522.99 1130.87 517.77 1130.87 517.77 1165.2"/><path class="cls-7" d="M1071.2,1251.53h4.58c.39-4.86,4.14-11.48,4.56-16.5h1.31c.23,2.6,1.8,6.42,2.54,8.65,2.32,7,1,7.85,5.3,7.85,2,0,1.42-.49,2-1.92l6.51-23.83h-5.25c0,2.47-.31,2.34-.87,4.42l-3,14.08c-.1-.15-.18-.57-.2-.47s-.13-.36-.18-.49l-5.51-17.54h-3.91l-5.89,17.83c-.08-3.56-3.71-15.18-3.94-17.83H1064c.31,3.77,2.42,9.28,3.5,13,.69,2.34,1.16,4.08,1.72,6.18a54.72,54.72,0,0,0,2,6.6Z" transform="translate(-84.73 -86.33)"/><path class="cls-7" d="M776.38,1135.33v46.88h8.49v-48.85h-6.53c-1.49,0-2,.44-2,2Z" transform="translate(-84.73 -86.33)"/><path class="cls-7" d="M888.81,1182.21h8.51v-46.88c0-1.53-.46-2-2-2h-6.56Z" transform="translate(-84.73 -86.33)"/><path class="cls-7" d="M409,1251.53h4.58V1237h16.33v14.52h5.22v-32.35c0-2.49-1.51-2-5.22-2v15.17H413.6v-15.17H409Z" transform="translate(-84.73 -86.33)"/><path class="cls-7" d="M496,1248.23c-6.87,0-5.23-7-5.23-14.52,0-4.58,11.79-7.77,11.79,6,0,4.34-2.32,8.57-6.56,8.57Zm-10.45,13.2h5.22v-11.22c20.69,11.06,20.71-24.43,8.49-24.43-7.79,0-5-.13-9.13,2.65-.8-3.38-.72-2.65-4.58-2.65Z" transform="translate(-84.73 -86.33)"/><path class="cls-7" d="M699.9,1240.31c0-15.44,11.78-11.31,11.78-5.28,0,4.7,1.49,13.2-5.89,13.2a7.06,7.06,0,0,1-4.32-2.23,10.71,10.71,0,0,1-1.57-5.69Zm11.78-12.55c-4.19-1.12.13-2-8.51-2-10,0-13.46,26.43,2,26.43,4.89,0,4.2-1.85,7.21-2.65v2h3.91v-37h-4.56Z" transform="translate(-84.73 -86.33)"/><path class="cls-7" d="M896.65,1225.78c1.08,4.63,3.66,9.87,3.94,13.2-10.52,0-9.44.55-8.08-3.4.88-2.52,2.44-8.53,4.14-9.8Zm-15,25.75h5.22c1.47-2.81,2-5.82,3.27-8.57h12.42a38,38,0,0,0,2.63,8.57h5.22c-.54-2.36-2-5.53-2.86-8.34l-8.9-26h-4.58l-6.14,16.91c-2,5.67-3.94,12.47-6.28,17.41Z" transform="translate(-84.73 -86.33)"/><path class="cls-7" d="M1046.45,1225.16c.39.65,0-.24.6,1.24l1.85,5.41c.74,2.26,1.83,4.68,2,7.17h-9.16Zm-13.81,26.37h5.22a37.78,37.78,0,0,1,2.6-8.57h12.43c.3,3.5,1.93,5.61,2.62,8.57h5.22c-1.26-5.48-10.44-28.66-11.75-34.32h-4.58Z" transform="translate(-84.73 -86.33)"/><path class="cls-7" d="M930,1231.73c0,8.94.29,20.48,13.74,20.48,7.54,0,12.25-4.5,12.43-11.9h-5.25c0,11-15.67,11.45-15.67-3.3,0-8.68-.54-15.85,9.8-15.85,4.12,0,5.87,2.93,5.87,7.27h5.25c-.39-16.68-26.17-16.24-26.17,3.3Z" transform="translate(-84.73 -86.33)"/><path class="cls-7" d="M1113.68,1247.58l-4.58-.67c-.59-7.25,1.93-6.6,10.47-6.6,0,3.53-.9,7.27-5.89,7.27Zm-8.49-13.87h4.58c.41-5.07,9.8-6.84,9.8,2.65-7.69,0-15.7-.73-15.7,9.22,0,4.7,3.45,6.63,7.85,6.63s5.38-1.64,7.85-3.33v2.65h5.22c0-20.45,2.16-25.75-12.4-25.75-3.6,0-7.2,2.5-7.2,7.93Z" transform="translate(-84.73 -86.33)"/><path class="cls-7" d="M647,1247.58c-7.93,0-4.74-7.27,0-7.27h5.89c0,3.56-.47,7.27-5.89,7.27Zm-8.49-15.85v2h4.58c1.36-6,9.8-5.15,9.8.65v2c-7.46,0-15.7-.68-15.7,9.22,0,5.09,4.48,6.63,9.16,6.63,3.06,0,4.69-2.06,6.54-3.33l.72,2.62,5.14,0c-2.85-6,1.8-17.56-2.42-22.66-5.19-6.31-17.82-2.54-17.82,2.86Z" transform="translate(-84.73 -86.33)"/><path class="cls-7" d="M972.49,1247.58h-2.62c-3.86,0-3.37-7.27,2.62-7.27h5.22v3.3c0,2.15-2.83,4-5.22,4Zm-3.93-13.87c.49-5.93,9.15-4.68,9.15-.65v3.3c-5,0-13.66-.52-15.22,6.39-1.37,6,4,14.19,15.89,6.13v2.65h5.23c0-3.61-.6-3.87-.67-7.25-.41-13.38,3-18.5-11.76-18.5-4.48,0-9,5.56-7.25,7.33,1,1,2.77.6,4.63.6Z" transform="translate(-84.73 -86.33)"/><path class="cls-7" d="M454.11,1229.76c3.94,0,4.51,2.75,5.23,5.92H448.25c1.39-3,1.36-5.92,5.86-5.92ZM443,1237c0,9.74,1.7,15.2,13.07,15.2,4.42,0,5.38-1.64,7.85-3.33a30.57,30.57,0,0,1-2-3.3c-6.69,4.55-13.53,3.66-13.71-5.27h15.67c0-4.58.59-7.8-2.19-11.64-3.86-5.31-18.73-4.21-18.73,8.34Z" transform="translate(-84.73 -86.33)"/><path class="cls-7" d="M794.7,1227.76c0,5.32-.62,16.08,1.47,20.32,1.44,2.93,4.32,4.13,7.66,4.13,4.66,0,4.61-1.56,7.21-3.33v2.65h5.22v-23.77c0-2.34-1.26-2-3.91-2-3,0-2,5.28-2,8.58,0,3.74,0,7.48,0,11.22-13.1,8.86-10.45-6.68-10.45-19.8-3.7,0-5.22-.52-5.22,2Z" transform="translate(-84.73 -86.33)"/><path class="cls-7" d="M1134.59,1257.48H1132v4.63c10.37,0,9.62-4.73,14-16.24l5.22-14.53c.85-2.15,1.49-3,1.7-5.56h-5.22c-1.7,3.56-4,12.73-5.3,15.77a4.89,4.89,0,0,1-1.24,2.06l-5.89-17.83H1130c.26,3.35,8.59,22.37,8.9,24.69.26,2-2,7-4.35,7Z" transform="translate(-84.73 -86.33)"/><path class="cls-7" d="M529.29,1251.53h5.24c0-10.55-2.13-21.77,4.56-21.77,8,0,5.89,6.15,5.89,21.77h5.22c0-18.47,2.39-25.75-10.44-25.75-3.3,0-3.81,1.9-5.89,3.3v-3.3h-4.58Z" transform="translate(-84.73 -86.33)"/><path class="cls-7" d="M666.56,1251.53h5.25c0-15.1-2.24-21.77,5.22-21.77s5.22,10.13,5.22,21.77h5.22c0-9.51,2.19-25.75-7.17-25.75-8,0-5.07.55-9.16,3.3v-3.3h-4.58Z" transform="translate(-84.73 -86.33)"/><path class="cls-7" d="M824.11,1233.71c0,7.74,15.61,6,15,11.22-.39,3.46-9.85,5.87-10.45-1.32h-5.22c1,12.21,20.25,10.42,20.25,2,0-4.39-.13-6.08-6.25-8.18-3-1-8.13-1-8.13-4.34,0-4,8.67-5.28,9.16.65h5.22c-.23-11.07-19.6-10.68-19.6,0Z" transform="translate(-84.73 -86.33)"/><path class="cls-7" d="M725.39,1232.38c0,3.51-.2,5.77,6.59,7.87,3,.94,7.8.84,7.8,4.68,0,3.51-8.78,5.93-10.45-1.32h-5.25c3.06,13.2,20.92,9.82,20.92.67,0-4-3.32-5.61-6.43-6.7-4.84-1.74-6.25-.08-8.6-4.52,4.4-8.42,9.55.65,11.12.65h3.26c-.25-11.36-19-9.88-19-1.33Z" transform="translate(-84.73 -86.33)"/><path class="cls-7" d="M781,1241c0,9.07-10.31,10.34-11.11.65h-4.58c0,7.46,2.32,10.58,11.11,10.58,6.41,0,9.81-5.3,9.81-11.9v-23.1H781Z" transform="translate(-84.73 -86.33)"/><path class="cls-7" d="M853.51,1225.78H849.6v4c5.17,0,2.06-.29,3.91.65,0,14.81-2.83,24.11,9.83,21.12v-3.3c-5-2.31-4.58,6.19-4.58-18.47h4.58v-4h-4.58c0-6.68.72-6-5.25-6Z" transform="translate(-84.73 -86.33)"/><path class="cls-7" d="M471.76,1251.53H477v-35c0-1.51-.46-2-2-2h-3.27Z" transform="translate(-84.73 -86.33)"/><path class="cls-7" d="M992.1,1251.53h5.22v-35c0-1.51-.44-2-2-2H992.1Z" transform="translate(-84.73 -86.33)"/><path class="cls-7" d="M1006.48,1251.53h5.22v-35c0-1.51-.44-2-2-2h-3.26Z" transform="translate(-84.73 -86.33)"/><rect class="cls-8" x="430.84" y="1139.45" width="4.58" height="25.75"/><rect class="cls-8" x="1119.17" y="1087.95" width="8.49" height="7.93"/><path class="cls-7" d="M1069.22,1182.21h6.56c1.49,0,2-.47,2-2v-6h-8.52Z" transform="translate(-84.73 -86.33)"/><rect class="cls-8" x="430.84" y="1128.22" width="4.58" height="5.27"/></svg>