<svg xmlns="http://www.w3.org/2000/svg" xmlns:xlink="http://www.w3.org/1999/xlink" width="489.999" height="258.573" viewBox="0 0 489.999 258.573">
  <defs>
    <clipPath id="clip-path">
      <rect id="SVGID" width="130.478" height="86.151" rx="14.222" fill="none"/>
    </clipPath>
    <radialGradient id="radial-gradient" cx="0.109" cy="0.359" r="0.627" gradientTransform="translate(0.159) scale(0.683 1)" gradientUnits="objectBoundingBox">
      <stop offset="0" stop-color="#fff"/>
      <stop offset="1" stop-color="#fff" stop-opacity="0"/>
    </radialGradient>
    <linearGradient id="linear-gradient" x1="0.5" x2="0.5" y2="1" gradientUnits="objectBoundingBox">
      <stop offset="0" stop-color="#ffd71d"/>
      <stop offset="1" stop-color="#feb200"/>
    </linearGradient>
    <linearGradient id="linear-gradient-2" x1="-0.692" y1="0.5" x2="0.308" y2="0.5" gradientUnits="objectBoundingBox">
      <stop offset="0" stop-color="#343a44"/>
      <stop offset="0.301" stop-color="#232c3d"/>
      <stop offset="0.639" stop-color="#172339"/>
      <stop offset="1" stop-color="#142138"/>
    </linearGradient>
    <linearGradient id="linear-gradient-3" x1="0.15" y1="0.5" x2="1.15" y2="0.5" xlink:href="#linear-gradient-2"/>
  </defs>
  <g id="Group_8337" data-name="Group 8337" transform="translate(-70.247 -58.644)">
    <path id="Path_1940" data-name="Path 1940" d="M131.654,218.539c-24.735,15.555-37.692,50.608-17.668,97.323H507.955c6.685-16.924,10.688-39.159,11.945-52.392,2.741-28.873-7.075-58.864-24.376-74.7-43.782-40.069-80.183,15.588-103.2-7.941-13.285-13.582-12.026-51.7-22.422-69.4A105.886,105.886,0,0,0,261.16,60.028c-28.345,4.6-53.911,19.6-69.506,44.98-21.361,34.759-5.812,59.662-15.241,83.686C165.9,215.477,148.179,208.147,131.654,218.539Z" transform="translate(-6.651)" fill="#afb3bd"/>
    <g id="Group_8309" data-name="Group 8309" transform="translate(155.929 139.554)">
      <g id="Group_8303" data-name="Group 8303">
        <path id="Path_1941" data-name="Path 1941" d="M181.894,176.993a34.084,34.084,0,0,0,3.6-2.045l1.544-2.394s1.511-.975,2.592-1.5,3.072-3.762,3.072-3.762l-.787-.988a13.518,13.518,0,0,1-1.508,1.61,1.933,1.933,0,0,1-1.134.037,20.327,20.327,0,0,1,.871-2.442,22.75,22.75,0,0,1,2.45-3.758l-.693-.726a19.885,19.885,0,0,0-1.508,1.579c-.4.528-1.167,1.638-1.167,1.638a21.864,21.864,0,0,1,1.29-2.682c.494-.729,1.029-1.716,1.029-1.716l-.8-.556a18.081,18.081,0,0,0-1.42,2.023c-.483.866-1.376,2.3-1.376,2.3a28.5,28.5,0,0,1,1.015-2.84,10.134,10.134,0,0,0,.461-.961l-.95-.325a7.631,7.631,0,0,0-1.123,2.007,10.638,10.638,0,0,1-.724,1.659,11.412,11.412,0,0,1,.595-2.407,2.09,2.09,0,0,0,.325-.77l-.77-.146s-1.48,2.724-2.256,4.414-1.384,3.971-1.823,5.207a47.752,47.752,0,0,0-1.008,5.443Z" transform="translate(-177.78 -159.287)" fill="#f5c5b3"/>
        <path id="Path_1942" data-name="Path 1942" d="M203.732,196.392,185,193.167a62.427,62.427,0,0,1-.2-9.6c.33-5.606,1.017-7.166,1.017-7.166l-5.025-.7s-.992,4.414-1.7,7.586c-1.578,7.034-3.02,13.623-1.816,15.092,1.749,2.131,17.333,6.469,22.666,10.469C203.148,211.261,202.961,203.555,203.732,196.392Z" transform="translate(-176.826 -162.507)" fill="#42b2fc"/>
      </g>
      <path id="Path_1943" data-name="Path 1943" d="M243.093,266.28l-.947,6.477L244.1,277.2l1.43-1.933.33-3.619,2.113.318,1.038-1.3-.09-2.712-.348-7.381Z" transform="translate(-189.634 -179.145)" fill="#fec4ad"/>
      <path id="Path_1944" data-name="Path 1944" d="M240.179,206.186c-1.443-.533-6.152-.185-6.152-.185s-.445,5.028,1.468,8.911,6.654,18.029,7.255,19.357-1.257,21.29-1.257,21.29l6.879-1.41s3.315-15.4,3.29-19.309-3.687-18.561-6.289-23.23S243.681,207.479,240.179,206.186Z" transform="translate(-188.033 -168.424)" fill="#42b2fc"/>
      <path id="Path_1945" data-name="Path 1945" d="M224.827,188.346s-1.514,6.638-.33,8.182c.694.905,3.635,4.129,3.635,4.129s-9.745,5.145-12.61,5.145-1.861-5.746-1.861-5.746,3.124-2.47,3.59-3.717a28.039,28.039,0,0,0,.725-4.86Z" transform="translate(-184.015 -164.985)" fill="#fec4ad"/>
      <g id="Group_8307" data-name="Group 8307" transform="translate(28.062 9.609)">
        <g id="Group_8304" data-name="Group 8304" transform="translate(13.698 11.643)">
          <path id="Path_1946" data-name="Path 1946" d="M228.963,188.078s-.111-2.417,1.914-2.355c1.293.039,1.393,1.224.386,2.753-.424.643-.467,2.1-.994,2.567-.64.569-1.175-.309-1.37-.709A4.816,4.816,0,0,1,228.963,188.078Z" transform="translate(-228.771 -185.722)" fill="#f5c5b3"/>
        </g>
        <g id="Group_8305" data-name="Group 8305" transform="translate(0 11.643)">
          <path id="Path_1947" data-name="Path 1947" d="M214.711,188.078s.112-2.417-1.914-2.355c-1.293.039-1.393,1.224-.386,2.753.424.643.467,2.1.994,2.567.64.569,1.175-.309,1.37-.709A4.816,4.816,0,0,0,214.711,188.078Z" transform="translate(-211.732 -185.722)" fill="#f5c5b3"/>
        </g>
        <path id="Path_1948" data-name="Path 1948" d="M227.916,179.826a22.973,22.973,0,0,1-.409,2.459c-.048.281-.1.6-.154.974-.419,2.9-.949,6.847-1.179,7.436-.379.976-2.451,2.557-3.435,3.135a5.909,5.909,0,0,1-4.444-.118c-.985-.579-3.211-2.041-3.59-3.017-.232-.6-.782-4.659-1.2-7.609-.048-.336-.095-.626-.14-.883a22.222,22.222,0,0,1-.4-2.376c-.15-2.451,2.609-6.017,7.477-6.017C226.2,173.809,228.068,177.374,227.916,179.826Z" transform="translate(-211.972 -171.743)" fill="#f5c5b3"/>
        <path id="Path_1949" data-name="Path 1949" d="M216,176.95a11.644,11.644,0,0,1,8.917.326l1.718-1.094a14.091,14.091,0,0,0-6.1-1.284C216.931,174.924,216,176.95,216,176.95Z" transform="translate(-212.569 -171.956)" fill="#e8d4e5" style="mix-blend-mode: multiply;isolation: isolate"/>
        <g id="Group_8306" data-name="Group 8306" transform="translate(1.39 9.866)">
          <path id="Path_1950" data-name="Path 1950" d="M227.605,184.187c-.047.281-.1.6-.154.974-.419,2.9-.949,6.847-1.179,7.436-.378.976-2.451,2.557-3.435,3.135a5.91,5.91,0,0,1-4.444-.118c-.985-.579-3.212-2.041-3.59-3.017-.232-.6-.782-4.659-1.2-7.609-.048-.336-.094-.626-.139-.883l.4-.593s.717,4.207,1.815,5.513,1.306,1.366,1.306,1.366l2.246-.555.179-.045a5.276,5.276,0,0,1,2.62.021c.047.011.094.024.142.039l.163.048,1.7.492s.4-.061,1.494-1.366,1.627-5.513,1.627-5.513Z" transform="translate(-213.461 -183.511)" fill="#7b2b1a"/>
        </g>
        <path id="Path_1951" data-name="Path 1951" d="M231.459,178.607c-.016.08-.412,2.946-.573,3.4-.249.695-.44,1.2-.44,1.2l-.3-.641a9.537,9.537,0,0,1-.871-3.786l-.052-2.458.818-.723C231.657,175.836,231.83,176.77,231.459,178.607Z" transform="translate(-215.163 -172.093)" fill="#7b2b1a"/>
        <path id="Path_1952" data-name="Path 1952" d="M215.365,176.485l0,.011-.392,2.528a9.552,9.552,0,0,1-1.175,3.327l-.034.058-.446.769s-.131-.447-.314-1.082c-.135-.468-.468-2.864-.548-3.2-.026-.106-.048-.208-.068-.308-.343-1.8-.008-2.552,1.587-2.791Z" transform="translate(-211.836 -172.132)" fill="#7b2b1a"/>
        <path id="Path_1953" data-name="Path 1953" d="M226.923,174.742l-.818.723-1.557.56a12.36,12.36,0,0,0-5.486-.986c-3.121.24-3.547,1.138-3.592,1.194l0,0-.322-.07-1.533-.335-.313-.069a9.714,9.714,0,0,1,.611-1.734c1.228-1.851,4.568-3.048,7.6-2.74.1.01.2.021.3.035a7.313,7.313,0,0,1,4.135,1.709Z" transform="translate(-212.04 -171.239)" fill="#7b2b1a"/>
      </g>
      <path id="Path_1954" data-name="Path 1954" d="M236.845,371.488v6.079H225.163s.439-2.2,5.979-3.216l.815-2.863Z" transform="translate(-186.304 -200.894)" fill="#133a50"/>
      <path id="Path_1955" data-name="Path 1955" d="M214.744,371.488v6.079H203.062s.439-2.2,5.979-3.216l.814-2.863Z" transform="translate(-181.97 -200.894)" fill="#133a50"/>
      <path id="Path_1956" data-name="Path 1956" d="M232.005,258.934s1.635,19.58,1.692,35.546,1.008,56.331,1.008,56.331h-6.448s-6.648-38.768-9.065-49.032-8.7-42.652-8.7-42.652Z" transform="translate(-183.427 -178.825)" fill="#133a50"/>
      <path id="Path_1957" data-name="Path 1957" d="M216.061,279.979s-1.208,24.328-1.45,29.117,0,41.71,0,41.71-6.042.162-6.042,0-5.7-39.317-6.435-51.119-.306-25.795-1.286-27.428,2.645-13.228,2.645-13.228l8.552,2.281Z" transform="translate(-181.504 -178.844)" fill="#133a50"/>
      <path id="Path_1958" data-name="Path 1958" d="M213.993,200.075s-2.68,6.076,1.352,6.747c6.409,1.067,8.361-7.133,8.361-7.133l7.067,3.639s-.129,43.99,2.648,57.419c1.612,7.8-25.223,4.081-29.16-2.84-3.407-5.99,6.435-55.767,6.435-55.767Z" transform="translate(-182.065 -167.209)" fill="#fff"/>
      <path id="Path_1959" data-name="Path 1959" d="M228.954,200.635c-.195.269-9.671,28.012-6.447,54.12.752,6.089,11.853,1.052,14.5,1.052,0,0,1.259-19.486,1.568-26.733s-3.146-9.629-2.837-13.175,4.163-9.867,4.163-9.867Z" transform="translate(-185.652 -167.394)" fill="#42b2fc"/>
      <g id="Group_8308" data-name="Group 8308" transform="translate(18.788 33.505)">
        <path id="Path_1960" data-name="Path 1960" d="M208.866,257.585c1.084-18.151,1.527-56.145,1.527-56.145l-6.4-.476s-3.2,31.866-3.25,35.489c-.019,1.44.431,18.94-.542,22.215C202.357,258.992,208.736,259.771,208.866,257.585Z" transform="translate(-200.197 -200.964)" fill="#42b2fc"/>
      </g>
    </g>
    <path id="Path_1961" data-name="Path 1961" d="M292.966,188.343c-5.028,1.724-10.2,3.528-14.189,7.038s-6.565,9.186-4.883,14.228,8.69,7.977,12.741,4.537c1.456-1.236,2.355-3.358,1.573-5.1-1.546-3.445-6.93-1.83-9.454.979-2.994,3.331-4.9,7.886-4.156,12.3s4.6,8.386,9.077,8.382,10.86-6.76,7.026-9.076c-4.868-2.94-11.125,4.061-13.519,9.22s-.9,12.143,3.995,15.042,16.374-.767,13.367-5.594c-3.179-5.1-12.571,2.254-13.819,8.134s3.355,12.323,9.322,13.048,16.3-6.07,12.174-10.437c-5.969-6.31-15.919,9.757-13.047,17.955s14.742,11.459,21.4,5.882c1.247-1.045,2.372-2.538,2.141-4.149-.385-2.683-4.057-3.438-6.628-2.579-6.707,2.241-9.736,11.626-5.6,17.365s13.995,5.844,18.247.194a4.851,4.851,0,0,0,1.171-3.828c-.42-1.877-2.645-2.938-4.536-2.582a7.392,7.392,0,0,0-4.5,3.375A13.781,13.781,0,0,0,332.3,299.863c1.225-1.294,2.239-3.025,1.914-4.778a4.527,4.527,0,0,0-4.6-3.335,8.024,8.024,0,0,0-5.378,2.714c-6,6.235-3.438,18.3,4.584,21.556s23.934-5.7,18.3-12.278c-3.762-4.39-11.183,5.1-10.234,10.808s7.509,9.589,13.1,8.12,12.954-9.489,8.635-13.33c-3.057-2.719-8,3.029-8.946,7.009a9.4,9.4,0,0,0,4.845,10.281c3.952,1.944,8.791.773,12.592-1.451s6.954-5.4,10.614-7.85a33.207,33.207,0,0,1,25.363-4.753" transform="translate(-39.827 -25.43)" fill="none" stroke="#fff" stroke-miterlimit="10" stroke-width="2"/>
    <g id="Group_8314" data-name="Group 8314" transform="translate(384.363 188.796)">
      <path id="Path_1962" data-name="Path 1962" d="M594.249,220.849c-8.143-5.2-80.73,56-78.07,104.34,0,0,14.131-19.083,26.448-28.383s13.519-19.036,13.495-28.678,18.4-5.66,20.471-16.354C580.263,232.85,601.577,225.527,594.249,220.849Z" transform="translate(-471.784 -220.539)" fill="#4fae86"/>
      <g id="Group_8311" data-name="Group 8311" transform="translate(42.267 12.089)">
        <g id="Group_8310" data-name="Group 8310" transform="translate(1.424)">
          <path id="Path_1963" data-name="Path 1963" d="M598.863,268.839c-11.727,7.1-8.275,16.571-15.189,22.1-5.028,4.023-13.419,1.917-17.6,7.395-4.714,6.173.646,14.668,1.043,22.108.547,10.276-8.617,17.981-17.932,21.1-10.814,3.624-24.812,2.491-30.732-8.263-6.988-12.692-1.757-31.828,10.5-37.79,2.978-1.448,6.76-1.841,9.192-4.772,4.106-4.948,1.47-12.065,3.372-18.358,1.853-6.133,7.918-10.448,13.505-12.36s11.277-2.3,16.737-4.516c7.435-3.02,13.946-9.655,20.136-14.131,5.522-3.992,24.909-11.484,28.062,1.608C622.832,254.891,608.714,262.874,598.863,268.839Z" transform="translate(-515.32 -235.577)" fill="#319188"/>
        </g>
        <path id="Path_1964" data-name="Path 1964" d="M599.725,253.219s-47.933,24.088-86.176,101.813" transform="translate(-513.549 -239.036)" fill="none" stroke="#194459" stroke-miterlimit="10" stroke-width="1"/>
      </g>
      <path id="Path_1965" data-name="Path 1965" d="M629.227,298.379s-61.632-.69-112.845,58.056" transform="translate(-471.838 -235.801)" fill="none" stroke="#fff" stroke-miterlimit="10" stroke-width="1"/>
      <g id="Group_8313" data-name="Group 8313" transform="translate(46.907 74.385)">
        <g id="Group_8312" data-name="Group 8312" transform="translate(9.508)">
          <path id="Path_1966" data-name="Path 1966" d="M601.559,328.741c-5.873,2.35-7.467,12.253-13.792,13.51-4.6.914-9.511-3.16-14.006-1.046-5.067,2.382-4.175,9.526-6.247,14.379-2.86,6.7-11.363,8.608-18.526,7.551-8.317-1.226-17.253-6.512-17.809-15.272-.655-10.339,8.822-20.785,18.832-20.572,2.43.051,5.065,1.036,7.6-.032,4.279-1.8,4.763-7.182,8-10.558,3.155-3.29,8.535-4.053,12.844-3.443s8.208,2.218,12.528,2.591c5.883.508,12.288-1.582,17.8-2.4,4.919-.734,25.012-.347,18.125,10.175C622.142,330.905,609.387,325.608,601.559,328.741Z" transform="translate(-531.148 -313.066)" fill="#4fae86"/>
        </g>
        <path id="Path_1967" data-name="Path 1967" d="M611.913,320.494s-42.812,3.644-92.592,40.527" transform="translate(-519.321 -314.523)" fill="none" stroke="#194459" stroke-miterlimit="10" stroke-width="1"/>
      </g>
      <path id="Path_1968" data-name="Path 1968" d="M460.974,369.709s9.742-17.056,11.331-18.814c10.021-11.093,23.315-11.215,36.848-8.414,3.916.811,14.283,6.257,18.044,5.5,2.93-.587,6.447-11.722,15.825-11.136s9.942,11.722,9.942,11.722,5.882-12.939,15.259-11.745,9.378,9.928,2.344,16.4c0,0,14.946-4.484,29.451,2.462s7.577,16.054,7.577,16.054Z" transform="translate(-460.974 -243.325)" fill="#319188"/>
    </g>
    <g id="Group_8319" data-name="Group 8319" transform="translate(88.74 188.796)">
      <path id="Path_1969" data-name="Path 1969" d="M136.322,220.849c8.143-5.2,80.73,56,78.07,104.34,0,0-14.131-19.083-26.448-28.383s-13.519-19.036-13.495-28.678-18.4-5.66-20.471-16.354C150.308,232.85,128.993,225.527,136.322,220.849Z" transform="translate(-101.397 -220.539)" fill="#4fae86"/>
      <g id="Group_8316" data-name="Group 8316" transform="translate(8.682 12.089)">
        <g id="Group_8315" data-name="Group 8315">
          <path id="Path_1970" data-name="Path 1970" d="M125.524,268.839c11.727,7.1,8.275,16.571,15.189,22.1,5.028,4.023,13.419,1.917,17.6,7.395,4.714,6.173-.646,14.668-1.043,22.108-.547,10.276,8.617,17.981,17.932,21.1,10.814,3.624,24.812,2.491,30.732-8.263,6.988-12.692,1.757-31.828-10.5-37.79-2.978-1.448-6.759-1.841-9.192-4.772-4.106-4.948-1.47-12.065-3.372-18.358-1.853-6.133-7.918-10.448-13.505-12.36s-11.277-2.3-16.737-4.516c-7.435-3.02-13.946-9.655-20.136-14.131-5.522-3.992-24.909-11.484-28.062,1.608C101.555,254.891,115.673,262.874,125.524,268.839Z" transform="translate(-104.05 -235.577)" fill="#319188"/>
        </g>
        <path id="Path_1971" data-name="Path 1971" d="M129.257,253.219s47.933,24.088,86.176,101.813" transform="translate(-108.993 -239.036)" fill="none" stroke="#194459" stroke-miterlimit="10" stroke-width="1"/>
      </g>
      <path id="Path_1972" data-name="Path 1972" d="M93.251,298.379s61.632-.69,112.845,58.056" transform="translate(-93.251 -235.801)" fill="none" stroke="#fff" stroke-miterlimit="10" stroke-width="1"/>
      <g id="Group_8318" data-name="Group 8318" transform="translate(3.789 74.385)">
        <g id="Group_8317" data-name="Group 8317">
          <path id="Path_1973" data-name="Path 1973" d="M124.738,328.741c5.873,2.35,7.467,12.253,13.792,13.51,4.6.914,9.511-3.16,14.006-1.046,5.067,2.382,4.175,9.526,6.246,14.379,2.861,6.7,11.363,8.608,18.527,7.551,8.317-1.226,17.253-6.512,17.809-15.272.655-10.339-8.822-20.785-18.832-20.572-2.43.051-5.065,1.036-7.6-.032-4.28-1.8-4.763-7.182-8-10.558-3.155-3.29-8.535-4.053-12.844-3.443s-8.208,2.218-12.528,2.591c-5.883.508-12.288-1.582-17.8-2.4-4.919-.734-25.012-.347-18.125,10.175C104.155,330.905,116.91,325.608,124.738,328.741Z" transform="translate(-97.964 -313.066)" fill="#4fae86"/>
        </g>
        <path id="Path_1974" data-name="Path 1974" d="M115.5,320.494s42.812,3.644,92.592,40.527" transform="translate(-101.403 -314.523)" fill="none" stroke="#194459" stroke-miterlimit="10" stroke-width="1"/>
      </g>
      <path id="Path_1975" data-name="Path 1975" d="M252.863,369.709s-9.743-17.056-11.331-18.814c-10.02-11.093-23.314-11.215-36.847-8.414-3.916.811-14.283,6.257-18.044,5.5-2.93-.587-6.447-11.722-15.824-11.136s-9.942,11.722-9.942,11.722-5.882-12.939-15.259-11.745-9.378,9.928-2.344,16.4c0,0-14.946-4.484-29.451,2.462s-7.577,16.054-7.577,16.054Z" transform="translate(-95.474 -243.325)" fill="#319188"/>
    </g>
    <g id="Group_8326" data-name="Group 8326" transform="translate(321.432 210.656)">
      <g id="Group_8320" data-name="Group 8320" transform="translate(10.328 91.09)">
        <path id="Path_1976" data-name="Path 1976" d="M414.9,375.957H399.74a3.217,3.217,0,0,1-3.205-2.95l-.993-11.97H419.1l-.993,11.97A3.217,3.217,0,0,1,414.9,375.957Z" transform="translate(-395.542 -361.037)" fill="#21295b"/>
        <path id="Path_1977" data-name="Path 1977" d="M526.253,375.957h-15.16a3.216,3.216,0,0,1-3.205-2.95l-.994-11.97h23.557l-.993,11.97A3.216,3.216,0,0,1,526.253,375.957Z" transform="translate(-417.375 -361.037)" fill="#21295b"/>
      </g>
      <path id="Path_1978" data-name="Path 1978" d="M507.432,325.8H397.5l7.773-56.675a8.93,8.93,0,0,1,8.847-7.716h76.695a8.929,8.929,0,0,1,8.846,7.716Z" transform="translate(-385.597 -250.412)" fill="#ff3a46"/>
      <path id="Path_1979" data-name="Path 1979" d="M496.214,312.122H415.951l5.7-56.937a8.28,8.28,0,0,1,8.239-7.455h52.382a8.28,8.28,0,0,1,8.238,7.455Z" transform="translate(-389.215 -247.731)" fill="#ff3a46"/>
      <path id="Path_1980" data-name="Path 1980" d="M399.261,325.5,397.5,338.364H507.431L505.667,325.5Z" transform="translate(-385.597 -262.979)" fill="#cfcfcf" style="mix-blend-mode: multiply;isolation: isolate"/>
      <path id="Path_1981" data-name="Path 1981" d="M516.428,361.765H382.695l2.476-29.055H513.953Z" transform="translate(-382.695 -264.393)" fill="#ff3a46"/>
      <g id="Group_8325" data-name="Group 8325" transform="translate(33.012 1.576)">
        <circle id="Ellipse_80" data-name="Ellipse 80" cx="24.467" cy="24.467" r="24.467" transform="translate(0 26.699) rotate(-33.065)" fill="#cfcfcf" style="mix-blend-mode: multiply;isolation: isolate"/>
        <circle id="Ellipse_81" data-name="Ellipse 81" cx="21.156" cy="21.156" r="21.156" transform="translate(12.209 13.199) rotate(-1.34)" fill="#fff"/>
        <g id="Group_8324" data-name="Group 8324" transform="translate(15.453 15.457)">
          <g id="Group_8321" data-name="Group 8321" transform="translate(21.56 30.306)">
            <path id="Path_1982" data-name="Path 1982" d="M472.553,312.106a2.764,2.764,0,0,1-1.946-.8,2.232,2.232,0,0,1-.338-.424,2.71,2.71,0,0,1-.259-.471,3.849,3.849,0,0,1-.157-.51,3.173,3.173,0,0,1-.055-.542,2.755,2.755,0,0,1,3.287-2.692,2.952,2.952,0,0,1,.511.158,3.076,3.076,0,0,1,.479.251,2.863,2.863,0,0,1,.415.346,2.761,2.761,0,0,1,.809,1.937,3.174,3.174,0,0,1-.055.542,3.732,3.732,0,0,1-.156.51,3.43,3.43,0,0,1-.252.471,2.6,2.6,0,0,1-.346.424,2.866,2.866,0,0,1-.415.338,2.161,2.161,0,0,1-.479.251,2.432,2.432,0,0,1-.511.158A2.552,2.552,0,0,1,472.553,312.106Z" transform="translate(-469.799 -306.616)" fill="#b3b3b3"/>
          </g>
          <g id="Group_8322" data-name="Group 8322">
            <path id="Path_1983" data-name="Path 1983" d="M458.781,305.679h0a2.746,2.746,0,0,1-2.331-3.107h0a2.747,2.747,0,0,1,3.107-2.331h0a2.756,2.756,0,0,1,2.331,3.108h0a2.751,2.751,0,0,1-2.724,2.361h0A2.127,2.127,0,0,1,458.781,305.679Zm-8.828-3.75h0a2.755,2.755,0,0,1-.471-3.861h0a2.746,2.746,0,0,1,3.853-.47h0a2.745,2.745,0,0,1,.471,3.852h0a2.73,2.73,0,0,1-2.167,1.06h0A2.732,2.732,0,0,1,449.953,301.929Zm-5.767-7.675a2.737,2.737,0,0,1,1.515-3.57h0a2.749,2.749,0,0,1,3.578,1.515h0a2.759,2.759,0,0,1-1.523,3.578h0a2.779,2.779,0,0,1-1.028.2h0A2.726,2.726,0,0,1,444.185,294.254Zm1.162-6.419a2.751,2.751,0,0,1-2.339-3.107h0a2.749,2.749,0,0,1,3.107-2.331h0a2.748,2.748,0,0,1,2.339,3.1h0a2.751,2.751,0,0,1-2.723,2.362h0A3.087,3.087,0,0,1,445.347,287.835Zm1.891-8.083a2.746,2.746,0,0,1-.479-3.852h0a2.741,2.741,0,0,1,3.853-.479h0a2.74,2.74,0,0,1,.478,3.853h0a2.729,2.729,0,0,1-2.166,1.06h0A2.733,2.733,0,0,1,447.238,279.753Zm22.175-2.731a2.74,2.74,0,0,1-.479-3.852h0a2.747,2.747,0,0,1,3.853-.486h0a2.756,2.756,0,0,1,.479,3.86h0a2.756,2.756,0,0,1-2.167,1.06h0A2.763,2.763,0,0,1,469.413,277.022Zm-16.5-3.327a2.737,2.737,0,0,1,1.514-3.57h0A2.748,2.748,0,0,1,458,271.639h0a2.752,2.752,0,0,1-1.523,3.578h0a2.75,2.75,0,0,1-1.027.2h0A2.737,2.737,0,0,1,452.911,273.695Zm10.272.691a2.746,2.746,0,0,1-2.331-3.107h0a2.739,2.739,0,0,1,3.1-2.331h0a2.739,2.739,0,0,1,2.338,3.1h0a2.749,2.749,0,0,1-2.715,2.362h0A3.211,3.211,0,0,1,463.183,274.386Z" transform="translate(-442.981 -268.918)" fill="#b3b3b3"/>
          </g>
          <g id="Group_8323" data-name="Group 8323" transform="translate(30.309 9.746)">
            <path id="Path_1984" data-name="Path 1984" d="M483.428,286.532a2.994,2.994,0,0,1-.533-.055,2.832,2.832,0,0,1-.519-.157,3.294,3.294,0,0,1-.47-.252,2.991,2.991,0,0,1-.424-.345,2.757,2.757,0,0,1-.8-1.938,2.579,2.579,0,0,1,.055-.542,2.39,2.39,0,0,1,.158-.51,2.711,2.711,0,0,1,.251-.478,2.829,2.829,0,0,1,.338-.416,3.184,3.184,0,0,1,.894-.6,2.816,2.816,0,0,1,.519-.149,2.762,2.762,0,0,1,2.471.745,2.433,2.433,0,0,1,.345.416,2.769,2.769,0,0,1,.252.478,2.44,2.44,0,0,1,.158.51,2.582,2.582,0,0,1,.054.542,2.759,2.759,0,0,1-2.746,2.746Z" transform="translate(-480.682 -281.041)" fill="#b3b3b3"/>
          </g>
        </g>
      </g>
    </g>
    <g id="Group_8327" data-name="Group 8327" transform="translate(242.932 117.174)">
      <path id="Path_1985" data-name="Path 1985" d="M426.433,177.955a11.735,11.735,0,0,1,2.356-12.273s19.9,12.891,42.133,9.254c0,0,2.438,6.706-4.4,12.918C466.525,187.854,442.721,192.367,426.433,177.955Z" transform="translate(-312.613 -138.161)" fill="#d6313b"/>
      <path id="Path_1986" data-name="Path 1986" d="M432.926,142.706c-14.316-12.073-41.437-13.77-75.765-8.243-29.518,4.752-59.581,15.9-69.616,31.65-4.57,7.173-1.466,27.093-1.466,27.093,27.192,1.7,37.152-21.679,37.152-21.679s-1.818-6.633,4.274-9.564C348.82,151.7,381.871,148.2,394.165,151.23a9.108,9.108,0,0,1,7.059,7.74s16.795,19.07,42.079,8.922C443.3,167.892,439.427,148.188,432.926,142.706Z" transform="translate(-285.048 -131.449)" fill="#ff3a46"/>
      <path id="Path_1987" data-name="Path 1987" d="M328.919,191.932a11.735,11.735,0,0,0-6.09-10.913s-14.845,18.484-37.1,22.011c0,0-.211,7.132,8.23,10.884C293.961,213.913,317.977,210.728,328.919,191.932Z" transform="translate(-285.182 -141.168)" fill="#d6313b"/>
    </g>
    <g id="Group_8329" data-name="Group 8329" transform="translate(162.181 230.382)">
      <g id="Group_8328" data-name="Group 8328" clip-path="url(#clip-path)">
        <rect id="Rectangle_17473" data-name="Rectangle 17473" width="130.478" height="86.151" rx="14.222" fill="#ffd71d"/>
        <path id="Path_1988" data-name="Path 1988" d="M315.082,283.7a11.434,11.434,0,0,0-11.434-11.433H196.037A11.434,11.434,0,0,0,184.6,283.7l59.166,47.965a9.534,9.534,0,0,0,12,.006Z" transform="translate(-184.604 -272.267)" fill="#ffd71d" style="mix-blend-mode: multiply;isolation: isolate"/>
        <path id="Path_1989" data-name="Path 1989" d="M192.22,349.527V286.243a11.433,11.433,0,0,1,11.433-11.433h107.1a11.325,11.325,0,0,0-7.108-2.543H196.037A11.433,11.433,0,0,0,184.6,283.7v63.284a11.433,11.433,0,0,0,11.433,11.433h.508A11.364,11.364,0,0,1,192.22,349.527Z" transform="translate(-184.604 -272.267)" opacity="0.7" fill="url(#radial-gradient)" style="mix-blend-mode: overlay;isolation: isolate"/>
        <path id="Path_1990" data-name="Path 1990" d="M242.632,323.327,184.6,272.267H315.082l-58.028,51.06A10.917,10.917,0,0,1,242.632,323.327Z" transform="translate(-184.604 -272.267)" fill="url(#linear-gradient)"/>
        <path id="Path_1991" data-name="Path 1991" d="M242.632,323.327,184.6,272.267H315.082l-58.028,51.06A10.917,10.917,0,0,1,242.632,323.327Z" transform="translate(-184.604 -272.267)" fill="#fd0" opacity="0.7" style="mix-blend-mode: overlay;isolation: isolate"/>
      </g>
    </g>
    <g id="Group_8332" data-name="Group 8332" transform="translate(293.032 131.605)">
      <g id="Group_8330" data-name="Group 8330" transform="translate(27.448 0)">
        <path id="Path_1992" data-name="Path 1992" d="M393.892,196.06s3.713-10.716,3.974-11.9c1.539-6.964,1.957-22.061,1.86-25.271s-.4-6.029-.458-6.461a14.367,14.367,0,0,0-2.063-2.546,4.352,4.352,0,0,1-.619.066l-.023.4-.861-.741-.717-.04-.076.336-1.023-.491-.986-.018s.637,2.038,1,3.277-.016,1.342-.016,1.342a2.7,2.7,0,0,1-1.105.205,7.7,7.7,0,0,0-1.4-.06s3,3.9,3.136,4.262a7.06,7.06,0,0,1,1.207,5.643,143.977,143.977,0,0,1-4.271,15.6c.093-.219-4.035,11.566-4.035,11.566Z" transform="translate(-382.667 -149.4)" fill="#fec4ad"/>
        <path id="Path_1993" data-name="Path 1993" d="M390.74,219.363c1.15-9.019,5.765-19.552,5.765-19.552s-7.053-1.4-8.875-3.9c0,0-2.43,5.936-3.829,8.888-1.547,3.268-3.717,6.825-.99,8.766C385.443,215.434,390.34,222.5,390.74,219.363Z" transform="translate(-381.51 -158.519)" fill="#42b2fc"/>
      </g>
      <path id="Path_1994" data-name="Path 1994" d="M359.364,372.337v5.8h11.143s-.419-2.1-5.7-3.067l-.777-2.731Z" transform="translate(-349.72 -193.112)" fill="#133a50"/>
      <path id="Path_1995" data-name="Path 1995" d="M380.446,372.337v5.8H391.59s-.419-2.1-5.7-3.067l-.777-2.731Z" transform="translate(-353.853 -193.112)" fill="#133a50"/>
      <path id="Path_1996" data-name="Path 1996" d="M361.065,264.971s-1.56,16.2-1.614,31.433-.961,56.209-.961,56.209h6.151s6.341-39.455,8.647-49.246,8.3-38.212,8.3-38.212Z" transform="translate(-349.548 -172.06)" fill="#133a50"/>
      <path id="Path_1997" data-name="Path 1997" d="M372.146,198.129s-.4,3.1-.724,4.678a12.63,12.63,0,0,1-.839,2.89,35.349,35.349,0,0,1-3.805,4.321s10.2,5.384,13.2,5.384,1.947-6.013,1.947-6.013-3.27-2.584-3.756-3.889a29.338,29.338,0,0,1-.759-5.086Z" transform="translate(-351.173 -158.954)" fill="#fec4ad"/>
      <path id="Path_1998" data-name="Path 1998" d="M378.33,282.5s1.152,25.68,1.383,30.249,0,39.787,0,39.787,5.763.156,5.763,0,5.434-39.978,6.138-51.237.292-24.607,1.227-26.163-2.524-10.145-2.524-10.145l-8.157-.3Z" transform="translate(-353.438 -172.006)" fill="#133a50"/>
      <path id="Path_1999" data-name="Path 1999" d="M366.792,208.724s-8.609-3.455-10.034-.619c-1.076,2.143-.15,15.919.328,19.769.416,3.348,2.734,31.52,2.734,31.52s3.219,4.986,18.7,3c5.972-.766,8.908-3.676,8.908-3.676s-1.675-33.615-2.135-36.987a72.762,72.762,0,0,0-2.055-8.636l-4.611-3.036s1.47,3.245-2.69,4.17C367.559,216.093,366.792,208.724,366.792,208.724Z" transform="translate(-349.111 -160.691)" fill="#42b2fc"/>
      <path id="Path_2000" data-name="Path 2000" d="M380.841,183.55c.976.392,2.683,1.272,2.873,2.086a32.357,32.357,0,0,1,.973,4.608c.09,1.431.3,4.137.293,5.824a14.872,14.872,0,0,1-1.405,5.46,8.388,8.388,0,0,1-4.175.674c-.958-.273-6.578-3.18-6.93-6.739,0,0-1,.524-2.828-2.446-.478-.774,1.171-6.528,1.392-7.553.538-2.492,6.684-.529,8.063-.922A2.992,2.992,0,0,0,380.841,183.55Z" transform="translate(-351.718 -156.096)" fill="#fec4ad"/>
      <path id="Path_2001" data-name="Path 2001" d="M383,184.947s-4.306,2.7-5.985,2.835-4.147,2.447-4.1,3.163a1.556,1.556,0,0,1-.708,1.208s-1.046-1.666-1.9-1.492c-1.7.343-.7,2.436.221,2.9a14.227,14.227,0,0,0,1.816.744,8.784,8.784,0,0,1,.08,1.794,8.234,8.234,0,0,1-.718,2.1s-1.987-4.184-3.77-5.746c-4.236-3.713-1.17-10.611,3-11.907,1.685-.523,6.312-.871,8.566.139A6.137,6.137,0,0,1,383,184.947Z" transform="translate(-351.001 -155.407)" fill="#133a50"/>
      <path id="Path_2002" data-name="Path 2002" d="M375.21,192.823c.063.169.5.2.585.236.176.077.1.1.875,1.29.572.875,1.531,1.158,3.322.559,1.368-.457,1.177-1.633,1.273-2.193s.215-.654.433-.692.337.014.618.507.412,1.767,1.841,1.552c.985-.148,1.245-.42,1.378-1.2a8.112,8.112,0,0,0,.113-1.887c-.039-.516-.05-.83-.312-.858a4.793,4.793,0,0,0-1.173.129,4.735,4.735,0,0,0-1.928.5c-.462.334-.412.539-.654.585s-.291-.166-.839-.323a16.616,16.616,0,0,0-3.672.391c-.852.15-2.023.47-2,.792A2.414,2.414,0,0,0,375.21,192.823Zm7.365-1.269c.043-.418.076-.372,1.13-.613s1.164-.195,1.376-.027a2.245,2.245,0,0,1,.261,1.7,1.165,1.165,0,0,1-1.017,1.22c-.928.163-1.144-.3-1.407-.94A4,4,0,0,1,382.575,191.553Zm-6.14.686a7.989,7.989,0,0,1,2.642-.556c1.073-.133,1.43-.177,1.614.2a3.974,3.974,0,0,1,.134,1.379c-.027.694-.163,1.3-1.835,1.6a1.8,1.8,0,0,1-2.238-1A1.956,1.956,0,0,1,376.436,192.239Zm-3.579,1.065,2.354-.482.8-1.162s-.9.129-2.4.461a4.581,4.581,0,0,0-1.417.668A2.312,2.312,0,0,1,372.856,193.3Z" transform="translate(-352.235 -157.386)" fill="#21295b"/>
      <g id="Group_8331" data-name="Group 8331" transform="translate(0 8.395)">
        <path id="Path_2003" data-name="Path 2003" d="M349.427,199.092s-2.037-12.9-2.056-14.111c-.117-7.131,3.5-16.711,4.234-19.838s1.226-2.632,1.374-3.043,5.327-1.2,5.327-1.2a13.809,13.809,0,0,1,1.717-.613c.326-.032,1.692-.441,1.692-.441l-.8,1.429s-3.229,2.456-3.436,2.782a7.059,7.059,0,0,0-2.309,5.289c-.133,6.38-.113,13.292-.113,13.292-.047-.233,3.055,13.213,3.055,13.213Z" transform="translate(-347.368 -159.843)" fill="#fec4ad"/>
        <path id="Path_2004" data-name="Path 2004" d="M355.531,226.365c-2.191-6.219-7.2-22.921-7.2-22.921s7.453-1.876,9.555-4.155c0,0,2.515,7.468,3.56,10.564,1.156,3.426,2.9,7.212-.038,8.822C358.571,220.229,356.583,229.352,355.531,226.365Z" transform="translate(-347.556 -167.577)" fill="#42b2fc"/>
      </g>
    </g>
    <g id="Group_8336" data-name="Group 8336" transform="translate(393.007 137.37)">
      <g id="Group_8333" data-name="Group 8333" transform="translate(4.947 55.487)">
        <path id="Path_2005" data-name="Path 2005" d="M531.082,245.218c1.935,1.8,3.3,1.2,6.209,11.144,1.856,6.355,8.627,38.4,8.627,38.4l-4.044,1.755c-5.469-15.32-5.462-15.3-11.852-27.739a55.3,55.3,0,0,1-4.394-11.971l-11.813-.709c-7.386-3.035-4.854-13.815-4.854-13.815S529.146,243.417,531.082,245.218Z" transform="translate(-483.891 -228.864)" fill="url(#linear-gradient-2)"/>
        <path id="Path_2006" data-name="Path 2006" d="M480.321,232.416l10.658-6.826,10.311,8.01,12.843,4.148-.069.039c5.165,1.792,11.064,4.406,12.875,6.091,1.935,1.8,5.749,4.357,2.673,14.252-1.965,6.322-10.531,38.348-10.531,38.348l-4.341-.773s1.542-18.557,3.087-32.439c.749-6.73,1-8.607,1-8.607s-28.675,3.126-37.914-1.753C474.45,249.491,480.321,237.59,480.321,232.416Z" transform="translate(-477.879 -225.59)" fill="url(#linear-gradient-3)"/>
        <path id="Path_2007" data-name="Path 2007" d="M528.154,310.881s-.126,1.166-1.994,1.691a3.178,3.178,0,0,1-3.139-1.017l-.414,3.808,5.964,4.2h4.955l-2.68-2.975Z" transform="translate(-486.649 -242.313)" fill="#133a50"/>
        <path id="Path_2008" data-name="Path 2008" d="M553.253,304.318a2.047,2.047,0,0,1-.74,2.7,3.177,3.177,0,0,1-3.3-.013l.765,3.753,14.085-4.405Z" transform="translate(-491.866 -241.026)" fill="#133a50"/>
      </g>
      <g id="Group_8335" data-name="Group 8335" transform="translate(0 0)">
        <path id="Path_2009" data-name="Path 2009" d="M532.617,182.07a30.068,30.068,0,0,1-2.347-2.793l-.541-2.452s-.949-1.269-1.682-2.035-1.384-4.05-1.384-4.05l.953-.575a11.917,11.917,0,0,0,.752,1.793,1.7,1.7,0,0,0,.925.378,17.866,17.866,0,0,0,.029-2.285,20,20,0,0,0-.871-3.856l.8-.387a17.5,17.5,0,0,1,.762,1.767c.168.56.461,1.712.461,1.712a19.289,19.289,0,0,0-.244-2.612c-.185-.754-.324-1.734-.324-1.734l.833-.214a15.95,15.95,0,0,1,.553,2.107c.133.863.43,2.324.43,2.324a25.263,25.263,0,0,0,.032-2.658,8.645,8.645,0,0,1-.087-.935l.884.022a6.736,6.736,0,0,1,.313,2,9.326,9.326,0,0,0,.089,1.592,10.056,10.056,0,0,0,.247-2.171,1.848,1.848,0,0,1-.033-.736l.682.116s.387,2.705.511,4.339-.075,3.706-.09,4.861-.044,2.058-.044,2.058Z" transform="translate(-482.498 -158.169)" fill="#fec4ad"/>
        <path id="Path_2010" data-name="Path 2010" d="M509.928,188.388a107.3,107.3,0,0,0,10.993,7.853s2.045-5.129,3.02-8.763c1.164-4.339,1.506-6.338,1.506-6.338l4.147-.339s-1.314,11.1-2.946,18.624c-1.586,7.317-3.58,6.009-5.333,5.651s-18.257-9.227-18.257-9.227l1.767-9.424S506,185.161,509.928,188.388Z" transform="translate(-477.869 -161.321)" fill="#fec4ad"/>
        <path id="Path_2011" data-name="Path 2011" d="M489.911,156.989c.881-.5,5.144-.854,7.813.79,5.1,3.143,2.655,11.756,2.335,13.739s1.511,5.558,1.482,7.927-.595,3.227-2.364,5.521a4.392,4.392,0,0,0-.659,1.831,16.9,16.9,0,0,1-2.376-7c-.418-4.075-1.284-3.125-3.322-7.6s-2.128-11.215-2.128-11.215Z" transform="translate(-475.291 -156.57)" fill="#471a16"/>
        <path id="Path_2012" data-name="Path 2012" d="M491.553,160l-4.246-2.92a6.208,6.208,0,0,0-5.733,2.741c-2.105,3.226-2.839,7.9-3.313,11.408s-1.71,10.108-1.626,12.725,3.265,2.975,3.265,2.975l10.666-4.615a31.657,31.657,0,0,1-.1-11.585A57.493,57.493,0,0,0,491.553,160Z" transform="translate(-472.688 -156.666)" fill="#471a16"/>
        <path id="Path_2013" data-name="Path 2013" d="M496.909,161.407a63.477,63.477,0,0,1,1.353,7.727c.1,2.5-.2,6.621-1.851,7.759s-4.767.229-7.044-.713a5.365,5.365,0,0,1-3.271-4.007c-.445-1.468-.288-5.366.232-8.16a4.974,4.974,0,0,1,4.348-4.3C492.732,159.325,496.909,161.407,496.909,161.407Z" transform="translate(-474.492 -157.176)" fill="#fec4ad"/>
        <path id="Path_2014" data-name="Path 2014" d="M486.751,173.409s.582,6.216-.725,9.141c-.9,2.019-4.557,2.875-4.557,2.875A20.608,20.608,0,0,0,485,196.414c3.667,5.4,15.136,7.395,15.136,7.395a50.043,50.043,0,0,0,3.424-9.555,11.149,11.149,0,0,0-2.02-8.952s-3.1-1.015-4.589-1.575c-3.614-1.361-3.191-7.105-3.191-7.105Z" transform="translate(-473.636 -159.872)" fill="#fec4ad"/>
        <path id="Path_2015" data-name="Path 2015" d="M492.255,190.431s-7.415-1.884-9.642-3.33l-7.353,4.37s-4.319,4.123,3.052,14.955c0,0,2.8,9.867-1.744,27.252,0,0,1.228,4.478,8.115,2.093,5.928-2.052,6.062-3.655,11.255-4.973,7.668-1.945,9.685-3.141,9.685-3.141-4.028-6.052-3.311-15.5-3.311-15.5s4.566-4.371,2.609-8.838c-2.825-6.448-3.772-15.573-3.772-15.573l-3.935-1a29.662,29.662,0,0,1-3.144,3.348A1.684,1.684,0,0,1,492.255,190.431Z" transform="translate(-472.172 -162.487)" fill="#42b2fc"/>
        <path id="Path_2016" data-name="Path 2016" d="M499.938,186.243s-.9,3.36-3.231,4.09c0,0,.911,4.6,3.09,3.8,3.06-1.122,1.867-7.488,1.867-7.488Z" transform="translate(-476.624 -162.388)" fill="#fff"/>
        <path id="Path_2017" data-name="Path 2017" d="M483.61,186.231s1.453,7.03,5.336,7.6,5.193-3.7,5.193-3.7-8.233-2.415-9.038-4.934Z" transform="translate(-474.056 -162.182)" fill="#fff"/>
        <path id="Path_2018" data-name="Path 2018" d="M489.33,159.612c-.716.047-1.244,3.434-1.317,5.324s-2.9,3.381-1.654,7.54,1.08,8.174,2.754,12.73-.411,6.226-1.315,7.8a60.623,60.623,0,0,1-4.8-5.893,4.73,4.73,0,0,0-5.123-2.3s5.471-10.625,5.286-13.491-.691-7.24,1.59-9.855S489.33,159.612,489.33,159.612Z" transform="translate(-472.932 -157.146)" fill="#471a16"/>
        <path id="Path_2019" data-name="Path 2019" d="M487.726,169.841s-1.521-1.666-2.525-1.412-1.068,1.76-.3,2.994,3.6,1.929,3.6,1.929Z" transform="translate(-474.207 -158.89)" fill="#fec4ad"/>
        <path id="Path_2020" data-name="Path 2020" d="M492.182,164.629a20.151,20.151,0,0,0,4.317-.313c2.758-.3,3.921.4,3.921.4l-1.043-4.586s-3.22-1.79-5.5-1.773c-2.9.019-5.443,1.13-4.005,2.068C491.395,161.424,492.182,164.629,492.182,164.629Z" transform="translate(-475.203 -156.921)" fill="#471a16"/>
        <g id="Group_8334" data-name="Group 8334" transform="translate(0 28.633)">
          <path id="Path_2021" data-name="Path 2021" d="M481.056,197.677c-.493,5.754-2.185,22.149-2.185,22.149,5.235,4.581,12.647,12.2,12.647,12.2s-2.109,4.16-3.011,3.454c-7.214-5.639-15.459-8.977-16.048-12.9-.967-6.448-1.3-22.671,1.074-27.948C475.362,190.56,481.577,191.573,481.056,197.677Z" transform="translate(-471.726 -192.186)" fill="#fec4ad"/>
          <path id="Path_2022" data-name="Path 2022" d="M498.676,242.13c2.192.823,3.572,1.63,3.441,2.448-.09.564-1.961-.466-3.081-.43a6.216,6.216,0,0,0,2.664,2.614c1.448.713,2.258,1.7,1.483,2.54s-2.2,2.011-3.137,1.581-4.242-2.741-5.488-3.381-1.745-2.207-2.386-2.637,1.174-3.726,1.174-3.726c.345.1,2.152.482,2.152.482a11.5,11.5,0,0,0,1.792.15A4.374,4.374,0,0,1,498.676,242.13Z" transform="translate(-475.708 -201.784)" fill="#fec4ad"/>
        </g>
      </g>
    </g>
    <line id="Line_77" data-name="Line 77" x2="489.999" transform="translate(70.247 316.236)" fill="none" stroke="#194459" stroke-miterlimit="10" stroke-width="1"/>
  </g>
</svg>
