<?xml version="1.0" encoding="UTF-8"?>
<!DOCTYPE svg PUBLIC "-//W3C//DTD SVG 1.1//EN" "http://www.w3.org/Graphics/SVG/1.1/DTD/svg11.dtd">
<!-- Creator: CorelDRAW 2020 (64-Bit) -->
<svg xmlns="http://www.w3.org/2000/svg" xml:space="preserve" width="285.75mm" height="285.75mm" version="1.1" style="shape-rendering:geometricPrecision; text-rendering:geometricPrecision; image-rendering:optimizeQuality; fill-rule:evenodd; clip-rule:evenodd"
viewBox="0 0 28575 28575"
 xmlns:xlink="http://www.w3.org/1999/xlink"
 xmlns:xodm="http://www.corel.com/coreldraw/odm/2003">
 <defs>
  <style type="text/css">
   <![CDATA[
    .fil0 {fill:#FEFEFE}
   ]]>
  </style>
 </defs>
 <g id="Layer_x0020_1">
  <metadata id="CorelCorpID_0Corel-Layer"/>
  <g id="_1959068729456">
   <path class="fil0" d="M4475.84 21529.74l486.98 464.07c676.77,650.01 1681.05,1312.15 2542.55,1670 5382.9,2236 11252.61,-733.31 13072.45,-6172.72 504.79,-1508.81 602.58,-2919.42 562.31,-4618.57 -36.93,-1558.23 -241.67,-3410 88.1,-4902.07 173.58,-785.39 406.44,-1267.5 820.28,-1775.75 313.56,-385.09 297.69,-342.56 620.04,-664.55 171.67,-171.48 493.89,-537.68 669.15,-642.27l45.53 -158.81 -4.34 -2230.7c-27.65,-75.64 -12.51,-54.34 -121.51,-59.51 -461.06,-21.89 -1296.63,201.11 -1691.07,370.6 -657.06,282.36 -1270.8,746.29 -1734.51,1271.14 -488.21,552.57 -843.89,1230.8 -1069.73,1935.92 -165.74,517.5 -226.64,1101.79 -233.17,1642.15 -1.79,148.34 -27.99,193.6 -27.31,358.03l0.68 2261.34c0.94,254.95 -25.78,443.9 -25.77,719.22 0.01,248.33 -0.03,496.66 0,744.98 0.03,253.73 -58.63,1893.88 -95.74,2164.93 -32.89,240.28 -46.37,986.13 -101.88,1388.1l-82.82 687.86c-105.2,952.29 -340.6,1795.68 -729.57,2635.72 -269.49,582.01 -869.11,1341.3 -1338.74,1795.36 -623.74,603.04 -1348.24,1085.22 -2121.09,1475.41 -88.78,44.83 -168.72,73.23 -265.58,119.75 -1058.11,508.26 -2469.21,774.71 -3742.65,779.88 -444.12,1.79 -1207.94,-103.21 -1658.27,-191.36 -114.2,-22.36 -195.39,-45.32 -312.73,-72.61 -726.82,-169.06 -1500.66,-500.42 -2155.84,-849.81 -318.16,-169.67 -841.14,-508.58 -1130.89,-744.43l-498.47 -426.34c-302.54,-254.97 -760.64,-806.88 -973.71,-1107.14l-441.95 -688.36c-74.28,-122.92 -184.28,-425 -277.44,-493.25 155.96,669.38 561.38,1447.67 909.78,2018.81l418.04 583.85c98.85,120.35 177.55,249.18 283.89,358.33l315 352.8z"/>
   <path class="fil0" d="M4475.84 21529.74c52.44,196.93 956.72,1226.6 1193,1453.13 573.46,549.8 738.07,628.84 1365.8,1048.99 122.94,82.29 225.26,147.71 345.51,219.65 723.76,433.02 1183.56,598.73 1966.68,859.14 125.28,41.67 317.31,104.02 446.68,121.77 266.97,14.29 639.51,107.22 926.53,144.45 1012.74,131.35 2029.42,136.38 3041.02,13.71 1280.1,-155.22 2309.62,-477.55 3371.93,-939.79 475.81,-207.04 988.25,-495.18 1401.88,-755.94 1312.59,-827.51 2454.6,-1801.99 3339.57,-3134.06 1365.59,-2055.53 1529.11,-4234.83 1531.69,-7097.36 1.29,-1430.87 -34.69,-2858.07 -36.93,-4290.16l-28.25 -3188.26c-6.09,-328.13 -29.99,-781.53 -3.25,-1097.13 -175.26,104.59 -497.48,470.79 -669.15,642.27 -322.35,321.99 -306.48,279.46 -620.04,664.55 -413.84,508.25 -646.7,990.36 -820.28,1775.75 -329.77,1492.07 -125.03,3343.84 -88.1,4902.07 40.27,1699.15 -57.52,3109.76 -562.31,4618.57 -1819.84,5439.41 -7689.55,8408.72 -13072.45,6172.72 -861.5,-357.85 -1865.78,-1019.99 -2542.55,-1670l-486.98 -464.07z"/>
   <path class="fil0" d="M23383.23 4729.07l-45.53 158.81c-26.74,315.6 -2.84,769 3.25,1097.13l28.25 3188.26c2.24,1432.09 38.22,2859.29 36.93,4290.16 -2.58,2862.53 -166.1,5041.83 -1531.69,7097.36 -884.97,1332.07 -2026.98,2306.55 -3339.57,3134.06 -413.63,260.76 -926.07,548.9 -1401.88,755.94 -1062.31,462.24 -2091.83,784.57 -3371.93,939.79 -1011.6,122.67 -2028.28,117.64 -3041.02,-13.71 -287.02,-37.23 -659.56,-130.16 -926.53,-144.45 59.01,36.02 127.75,50.14 201.74,77.52l691.78 233.08c1062.47,295.61 1990.87,482.48 3191.08,482.48 988.18,0 1338.98,-37.49 2253.65,-186.85l977.66 -229.73c1670.74,-472.26 3061.75,-1215.94 4380.68,-2324.23l1227.53 -1187.25c508.93,-603.82 912.33,-1086.15 1325.43,-1782.99l333.04 -591.77c454.02,-895.96 663.65,-1352.69 962.47,-2377.13 140.84,-482.8 256.13,-991.27 341.95,-1507.69 94.31,-567.46 230.86,-1616.82 245.64,-2194.84 5.02,-196.46 26.72,-226.43 25.32,-565.53 -0.82,-200.11 26.36,-359.59 26.3,-590.25l0 -1823.95c0.06,-230.67 -27.11,-390.13 -26.3,-590.25 0.85,-205.82 -0.23,-411.69 0.95,-617.49 1.21,-211.35 -26.23,-356.43 -26.04,-590.5l-44.36 -2382.09c48.6,-354.27 -19.56,-836.68 22.44,-1210.67 16.55,-147.55 39.67,-415.8 47.73,-568.8 11.24,-213.48 25.58,-388.94 25.58,-590.97 -316.74,-73.79 -1057.5,29.7 -1439.09,127.96 -341.7,87.99 -603.3,181.31 -899.03,334.07 -95.89,49.53 -160.11,103.47 -256.43,154.52z"/>
   <path class="fil0" d="M10178.86 21007.19c-377.49,-13.24 -628.03,-68.65 -969.22,-136.64 -1380.76,-160.25 -2411.06,-1292.09 -2955.01,-2095.86 -325.67,-481.24 -626.84,-1039.93 -850.3,-1667.83 -122.88,-345.3 -485.36,-1714.47 -471.72,-2076.39l-250.86 0c-0.4,-278.98 18.18,-2687.16 -12.25,-2736.91 -57.06,-93.32 -500.01,-37.53 -630.39,-37.53l-1388.73 -1.51c-197,-3.44 -235.14,-84.5 -204.13,489.74l25.65 642.27c-7.16,1390.92 294.89,3474.96 904.59,4592.92 445.27,816.46 720.53,1085.71 1362.15,1720.56 73.27,72.5 119.72,93.18 193.31,166.35 572.7,569.53 1932.28,1332.34 2755.01,1380.96 783.24,46.29 1611.94,22.35 2364.82,-177.83 119.64,-31.8 97.68,-35.18 127.08,-62.3z"/>
   <path class="fil0" d="M7114.01 15030.47c82.71,1372.39 -49.68,2144.99 364.67,3600.05 173.88,610.62 634.24,1441.33 1125.13,1828.46 200.77,158.33 568.84,370.84 605.83,411.57 341.19,67.99 591.73,123.4 969.22,136.64 28.38,-36.52 -81.97,-249.85 -128.3,-376.6 -217.63,-595.44 -368.38,-1318.34 -385.25,-1978.16l-77.48 -1695.08c8.13,-1579.26 25.86,-3088.68 25.86,-4675.63l-2491.86 0 -7.82 2748.75z"/>
   <path class="fil0" d="M4681.31 4857.52l16.33 57.78c347.02,115.63 1590.21,1429.12 1654.77,1791.85l769.42 0 0 2851.51 2517.55 0c52.03,-625.23 -129.15,-1941.81 -298.29,-2450.46 -245.76,-739.02 -403.32,-1014.35 -801.38,-1639.12 -28.16,-44.2 -37.32,-66.47 -67.73,-112.09 -187.99,-282.05 -617.03,-819.89 -869.63,-1031.38l-197.64 -162c-468.98,-335.54 -869.59,-519.82 -1443.97,-662.55 -324.73,-80.7 -844.32,-184.9 -1228.01,-184.9l-25.09 1156.61c0.7,170.22 -26.24,221.1 -26.33,384.75z"/>
   <path class="fil0" d="M4705.65 6707.15l-8.01 -1791.85 -16.33 -57.78c-125.37,-29.23 -327.96,-153.68 -480.33,-213.25 -342.36,-133.84 -727.22,-230.51 -1096.52,-290.7 -371.8,-60.61 -484.51,-9.84 -658.08,-9.84l-26.53 615.7c-6.6,220.31 8.27,449.3 1.68,669.6l-0.85 3903.94 1901.03 0.01c470.48,0.76 359.64,259.99 359.64,-1567.06l24.3 -1258.77z"/>
   <path class="fil0" d="M9209.64 20870.55c-36.99,-40.73 -405.06,-253.24 -605.83,-411.57 -490.89,-387.13 -951.25,-1217.84 -1125.13,-1828.46 -414.35,-1455.06 -281.96,-2227.66 -364.67,-3600.05l-2181.4 0c-13.64,361.92 348.84,1731.09 471.72,2076.39 223.46,627.9 524.63,1186.59 850.3,1667.83 543.95,803.77 1574.25,1935.61 2955.01,2095.86z"/>
   <path class="fil0" d="M4705.65 6707.15l1646.76 0c-64.56,-362.73 -1307.75,-1676.22 -1654.77,-1791.85l8.01 1791.85z"/>
  </g>
 </g>
</svg>
