<svg width="2999" height="3626" viewBox="0 0 2999 3626" fill="none" xmlns="http://www.w3.org/2000/svg">
<mask id="mask0_10_2" style="mask-type:luminance" maskUnits="userSpaceOnUse" x="0" y="0" width="2999" height="3626">
<path d="M2999 0H0V3626H2999V0Z" fill="white"/>
</mask>
<g mask="url(#mask0_10_2)">
<path d="M-117.5 -555H3378.5V4182H-117.5V-555Z" fill="#EFEFEF"/>
<g opacity="0.69">
<!-- <path d="M1196.71 1369.51H1185.77V1358.56C1185.77 1356.59 1184.17 1355 1182.21 1355H1169.07C1167.1 1355 1165.51 1356.59 1165.51 1358.56V1369.51H1154.56C1152.59 1369.51 1151 1371.1 1151 1373.07V1386.21C1151 1388.17 1152.59 1389.76 1154.56 1389.76H1165.51V1400.71C1165.51 1402.68 1167.1 1404.27 1169.07 1404.27H1182.21C1184.17 1404.27 1185.77 1402.68 1185.77 1400.71V1389.76H1196.71C1198.68 1389.76 1200.27 1388.17 1200.27 1386.21V1373.07C1200.27 1371.1 1198.68 1369.51 1196.71 1369.51Z" fill="#FFA000"/>
<path d="M1492.27 1494.86H1471.45V1474.04C1471.45 1470.3 1468.43 1467.27 1464.69 1467.27H1439.71C1435.97 1467.27 1432.94 1470.3 1432.94 1474.04V1494.86H1412.12C1408.39 1494.86 1405.36 1497.89 1405.36 1501.62V1526.6C1405.36 1530.34 1408.39 1533.37 1412.12 1533.37H1432.94V1554.19C1432.94 1557.92 1435.97 1560.95 1439.71 1560.95H1464.69C1468.43 1560.95 1471.45 1557.92 1471.45 1554.19V1533.37H1492.27C1496.01 1533.37 1499.04 1530.34 1499.04 1526.6V1501.62C1499.04 1497.89 1496.01 1494.86 1492.27 1494.86Z" fill="#3F598C"/> -->
</g>
<g opacity="0.69">
<!-- <path d="M2124.71 199.008H2113.77V188.058C2113.77 186.093 2112.17 184.5 2110.21 184.5H2097.07C2095.1 184.5 2093.51 186.093 2093.51 188.058V199.008H2082.56C2080.59 199.008 2079 200.601 2079 202.566V215.706C2079 217.671 2080.59 219.264 2082.56 219.264H2093.51V230.214C2093.51 232.179 2095.1 233.773 2097.07 233.773H2110.21C2112.17 233.773 2113.77 232.179 2113.77 230.214V219.264H2124.71C2126.68 219.264 2128.27 217.671 2128.27 215.706V202.566C2128.27 200.601 2126.68 199.008 2124.71 199.008Z" fill="#FFA000"/> -->
</g>
<g opacity="0.69">
<!-- <path d="M2084.33 3201.01H2075.29V3190.06C2075.29 3188.09 2073.97 3186.5 2072.35 3186.5H2061.5C2059.87 3186.5 2058.56 3188.09 2058.56 3190.06V3201.01H2049.52C2047.89 3201.01 2046.58 3202.6 2046.58 3204.57V3217.71C2046.58 3219.67 2047.89 3221.26 2049.52 3221.26H2058.56V3232.21C2058.56 3234.18 2059.87 3235.77 2061.5 3235.77H2072.35C2073.97 3235.77 2075.29 3234.18 2075.29 3232.21V3221.26H2084.33C2085.96 3221.26 2087.27 3219.67 2087.27 3217.71V3204.57C2087.27 3202.6 2085.96 3201.01 2084.33 3201.01Z" fill="#FFA000"/>
<path d="M1570.78 2265.59H1553.58V2244.77C1553.58 2241.03 1551.09 2238 1548 2238H1527.37C1524.28 2238 1521.78 2241.03 1521.78 2244.77V2265.59H1504.58C1501.5 2265.59 1499 2268.62 1499 2272.35V2297.33C1499 2301.07 1501.5 2304.1 1504.58 2304.1H1521.78V2324.92C1521.78 2328.65 1524.28 2331.68 1527.37 2331.68H1548C1551.09 2331.68 1553.58 2328.65 1553.58 2324.92V2304.1H1570.78C1573.87 2304.1 1576.37 2301.07 1576.37 2297.33V2272.35C1576.37 2268.62 1573.87 2265.59 1570.78 2265.59Z" fill="#3F598C"/> -->
</g>
<g opacity="0.69">
<!-- <path d="M2265.71 2911.01H2254.77V2900.06C2254.77 2898.09 2253.17 2896.5 2251.21 2896.5H2238.07C2236.1 2896.5 2234.51 2898.09 2234.51 2900.06V2911.01H2223.56C2221.59 2911.01 2220 2912.6 2220 2914.57V2927.71C2220 2929.67 2221.59 2931.26 2223.56 2931.26H2234.51V2942.21C2234.51 2944.18 2236.1 2945.77 2238.07 2945.77H2251.21C2253.17 2945.77 2254.77 2944.18 2254.77 2942.21V2931.26H2265.71C2267.68 2931.26 2269.27 2929.67 2269.27 2927.71V2914.57C2269.27 2912.6 2267.68 2911.01 2265.71 2911.01Z" fill="#FFA000"/>
<path d="M2561.27 3036.36H2540.45V3015.54C2540.45 3011.8 2537.43 3008.77 2533.69 3008.77H2508.71C2504.97 3008.77 2501.94 3011.8 2501.94 3015.54V3036.36H2481.12C2477.39 3036.36 2474.36 3039.39 2474.36 3043.12V3068.1C2474.36 3071.84 2477.39 3074.87 2481.12 3074.87H2501.94V3095.69C2501.94 3099.42 2504.97 3102.45 2508.71 3102.45H2533.69C2537.43 3102.45 2540.45 3099.42 2540.45 3095.69V3074.87H2561.27C2565.01 3074.87 2568.04 3071.84 2568.04 3068.1V3043.12C2568.04 3039.39 2565.01 3036.36 2561.27 3036.36Z" fill="#3F598C"/> -->
</g>
<g opacity="0.69">
<!-- <path d="M1166.71 3307.51H1155.77V3296.56C1155.77 3294.59 1154.17 3293 1152.21 3293H1139.07C1137.1 3293 1135.51 3294.59 1135.51 3296.56V3307.51H1124.56C1122.59 3307.51 1121 3309.1 1121 3311.07V3324.21C1121 3326.17 1122.59 3327.76 1124.56 3327.76H1135.51V3338.71C1135.51 3340.68 1137.1 3342.27 1139.07 3342.27H1152.21C1154.17 3342.27 1155.77 3340.68 1155.77 3338.71V3327.76H1166.71C1168.68 3327.76 1170.27 3326.17 1170.27 3324.21V3311.07C1170.27 3309.1 1168.68 3307.51 1166.71 3307.51Z" fill="#FFA000"/>
<path d="M1462.27 3432.86H1441.46V3412.04C1441.46 3408.3 1438.43 3405.27 1434.69 3405.27H1409.71C1405.97 3405.27 1402.94 3408.3 1402.94 3412.04V3432.86H1382.12C1378.39 3432.86 1375.36 3435.89 1375.36 3439.62V3464.6C1375.36 3468.34 1378.39 3471.37 1382.12 3471.37H1402.94V3492.19C1402.94 3495.92 1405.97 3498.95 1409.71 3498.95H1434.69C1438.43 3498.95 1441.46 3495.92 1441.46 3492.19V3471.37H1462.27C1466.01 3471.37 1469.04 3468.34 1469.04 3464.6V3439.62C1469.04 3435.89 1466.01 3432.86 1462.27 3432.86Z" fill="#3F598C"/> -->
</g>
<g opacity="0.69">
<!-- <path d="M2567.71 1251.01H2556.77V1240.06C2556.77 1238.09 2555.17 1236.5 2553.21 1236.5H2540.07C2538.1 1236.5 2536.51 1238.09 2536.51 1240.06V1251.01H2525.56C2523.59 1251.01 2522 1252.6 2522 1254.57V1267.71C2522 1269.67 2523.59 1271.26 2525.56 1271.26H2536.51V1282.21C2536.51 1284.18 2538.1 1285.77 2540.07 1285.77H2553.21C2555.17 1285.77 2556.77 1284.18 2556.77 1282.21V1271.26H2567.71C2569.68 1271.26 2571.27 1269.67 2571.27 1267.71V1254.57C2571.27 1252.6 2569.68 1251.01 2567.71 1251.01Z" fill="#FFA000"/>
<path d="M3077.91 2423.09H3057.09V2402.27C3057.09 2398.53 3054.07 2395.5 3050.33 2395.5H3025.35C3021.61 2395.5 3018.58 2398.53 3018.58 2402.27V2423.09H2997.76C2994.03 2423.09 2991 2426.12 2991 2429.85V2454.83C2991 2458.57 2994.03 2461.6 2997.76 2461.6H3018.58V2482.42C3018.58 2486.15 3021.61 2489.18 3025.35 2489.18H3050.33C3054.07 2489.18 3057.09 2486.15 3057.09 2482.42V2461.6H3077.91C3081.65 2461.6 3084.68 2458.57 3084.68 2454.83V2429.85C3084.68 2426.12 3081.65 2423.09 3077.91 2423.09Z" fill="#3F598C"/> -->
</g>
<g opacity="0.69">
<!-- <path d="M1065.71 2620.86H51H1054.77V2609.56C1054.77 2607.59 1053.17 2606 1051.21 2606H1038.07C1036.1 2606 1034.51 2607.59 1034.51 2609.56V2620.51H1023.56C1021.59 2620.51 1020 2622.1 1020 2624.07V2637.21C1020 2639.17 1021.59 2640.76 1023.56 2640.76H1034.51V2651.71C1034.51 2653.68 1036.1 2655.27 1038.07 2655.27H1051.21C1053.17 2655.27 1054.77 2653.68 1054.77 2651.71V2640.76H1065.71C1067.68 2640.76 1069.27 2639.17 1069.27 2637.21V2624.07C1069.27 2622.1 1067.68 2620.51 1065.71 2620.51Z" fill="#FFA000"/>
<path d="M1361.27 2745.1340.46V2725.04C1340.46 2721.3 1337.43 2718.27 1333.69 2718.27H1308.71C1304.97 2718.27 1301.94 2721.3 1301.94 2725.04V2745.86H1281.12C1277.39 2745.86 1274.36 2748.89 1274.36 2752.62V2777.6C1274.36 2781.34 1277.39 2784.37 1281.12 2784.37H1301.94V2805.19C1301.94 2808.92 1304.97 2811.95 1308.71 2811.95H1333.69C1337.43 2811.95 1340.46 2808.92 1340.46 2805.19V2784.37H1361.27C1365.01 2784.37 1368.04 2781.34 1368.04 2777.6V2752.62C1368.04 2748.89 1365.01 2745.86 1361.27 2745.86Z" fill="#3F598C"/> -->
</g>
<g opacity="0.69">
<path d="M1264.71 285.51H1253.77V274.56C1253.77 272.59 1252.17 271 1250.21 271H1237.07C1235.1 271 1233.51 272.59 1233.51 274.56V285.51H1222.56C1220.59 285.51 1219 287.1 1219 289.07V302.21C1219 304.17 1220.59 305.76 1222.56 305.76H1233.51V316.71C1233.51 318.68 1235.1 320.27 1237.07 320.27H1250.21C1252.17 320.27 1253.77 318.68 1253.77 316.71V305.76H1264.71C1266.68 305.76 1268.27 304.17 1268.27 302.21V289.07C1268.27 287.1 1266.68 285.51 1264.71 285.51Z" fill="#FFA000"/>
<path d="M1560.27 410.86H1539.46V390.04C1539.46 386.3 1536.43 383.27 1532.69 383.27H1507.71C1503.97 383.27 1500.94 386.3 1500.94 390.04V410.86H1480.12C1476.39 410.86 1473.36 413.89 1473.36 417.62V442.6C1473.36 446.34 1476.39 449.37 1480.12 449.37H1500.94V470.19C1500.94 473.92 1503.97 476.95 1507.71 476.95H1532.69C1536.43 476.95 1539.46 473.92 1539.46 470.19V449.37H1560.27C1564.01 449.37 1567.04 446.34 1567.04 442.6V417.62C1567.04 413.89 1564.01 410.86 1560.27 410.86Z" fill="#3F598C"/>
</g>
</g>
</svg>
