<svg width="2999" height="3626" viewBox="0 0 2999 3626" fill="none" xmlns="http://www.w3.org/2000/svg">
<g clip-path="url(#clip0_10_50)">
<path d="M-203.5 -604.5H3292.5V4132.5H-203.5V-604.5Z" fill="#EFEFEF"/>
<g opacity="0.69">
<path d="M2132.71 2283.51H2121.77V2272.56C2121.77 2270.59 2120.17 2269 2118.21 2269H2105.07C2103.1 2269 2101.51 2270.59 2101.51 2272.56V2283.51H2090.56C2088.59 2283.51 2087 2285.1 2087 2287.07V2300.21C2087 2302.17 2088.59 2303.76 2090.56 2303.76H2101.51V2314.71C2101.51 2316.68 2103.1 2318.27 2105.07 2318.27H2118.21C2120.17 2318.27 2121.77 2316.68 2121.77 2314.71V2303.76H2132.71C2134.68 2303.76 2136.27 2302.17 2136.27 2300.21V2287.07C2136.27 2285.1 2134.68 2283.51 2132.71 2283.51Z" fill="#FFA000"/>
<path d="M2428.27 2408.86H2407.45V2388.04C2407.45 2384.3 2404.43 2381.27 2400.69 2381.27H2375.71C2371.97 2381.27 2368.94 2384.3 2368.94 2388.04V2408.86H2348.12C2344.39 2408.86 2341.36 2411.89 2341.36 2415.62V2440.6C2341.36 2444.34 2344.39 2447.37 2348.12 2447.37H2368.94V2468.19C2368.94 2471.92 2371.97 2474.95 2375.71 2474.95H2400.69C2404.43 2474.95 2407.45 2471.92 2407.45 2468.19V2447.37H2428.27C2432.01 2447.37 2435.04 2444.34 2435.04 2440.6V2415.62C2435.04 2411.89 2432.01 2408.86 2428.27 2408.86Z" fill="#3F598C"/>
</g>
<g opacity="0.69">
<path d="M2038.71 648.508H2027.77V637.558C2027.77 635.593 2026.17 634 2024.21 634H2011.07C2009.1 634 2007.51 635.593 2007.51 637.558V648.508H1996.56C1994.59 648.508 1993 650.101 1993 652.066V665.206C1993 667.171 1994.59 668.764 1996.56 668.764H2007.51V679.714C2007.51 681.679 2009.1 683.273 2011.07 683.273H2024.21C2026.17 683.273 2027.77 681.679 2027.77 679.714V668.764H2038.71C2040.68 668.764 2042.27 667.171 2042.27 665.206V652.066C2042.27 650.101 2040.68 648.508 2038.71 648.508Z" fill="#FFA000"/>
<path d="M2334.27 773.857H2313.45V753.038C2313.45 749.302 2310.43 746.273 2306.69 746.273H2281.71C2277.97 746.273 2274.94 749.302 2274.94 753.038V773.857H2254.12C2250.39 773.857 2247.36 776.885 2247.36 780.622V805.603C2247.36 809.34 2250.39 812.369 2254.12 812.369H2274.94V833.187C2274.94 836.923 2277.97 839.952 2281.71 839.952H2306.69C2310.43 839.952 2313.45 836.923 2313.45 833.187V812.369H2334.27C2338.01 812.369 2341.04 809.34 2341.04 805.603V780.622C2341.04 776.885 2338.01 773.857 2334.27 773.857Z" fill="#3F598C"/>
</g>
<g opacity="0.69">
<path d="M2038.71 149.508H2027.77V138.558C2027.77 136.593 2026.17 135 2024.21 135H2011.07C2009.1 135 2007.51 136.593 2007.51 138.558V149.508H1996.56C1994.59 149.508 1993 151.101 1993 153.066V166.206C1993 168.171 1994.59 169.764 1996.56 169.764H2007.51V180.714C2007.51 182.679 2009.1 184.273 2011.07 184.273H2024.21C2026.17 184.273 2027.77 182.679 2027.77 180.714V169.764H2038.71C2040.68 169.764 2042.27 168.171 2042.27 166.206V153.066C2042.27 151.101 2040.68 149.508 2038.71 149.508Z" fill="#FFA000"/>
<path d="M2334.27 274.857H2313.45V254.038C2313.45 250.302 2310.43 247.273 2306.69 247.273H2281.71C2277.97 247.273 2274.94 250.302 2274.94 254.038V274.857H2254.12C2250.39 274.857 2247.36 277.885 2247.36 281.622V306.603C2247.36 310.34 2250.39 313.369 2254.12 313.369H2274.94V334.187C2274.94 337.923 2277.97 340.952 2281.71 340.952H2306.69C2310.43 340.952 2313.45 337.923 2313.45 334.187V313.369H2334.27C2338.01 313.369 2341.04 310.34 2341.04 306.603V281.622C2341.04 277.885 2338.01 274.857 2334.27 274.857Z" fill="#3F598C"/>
</g>
<g opacity="0.69">
<path d="M1958.71 1649.51H1947.77V1638.56C1947.77 1636.59 1946.17 1635 1944.21 1635H1931.07C1929.1 1635 1927.51 1636.59 1927.51 1638.56V1649.51H1916.56C1914.59 1649.51 1913 1651.1 1913 1653.07V1666.21C1913 1668.17 1914.59 1669.76 1916.56 1669.76H1927.51V1680.71C1927.51 1682.68 1929.1 1684.27 1931.07 1684.27H1944.21C1946.17 1684.27 1947.77 1682.68 1947.77 1680.71V1669.76H1958.71C1960.68 1669.76 1962.27 1668.17 1962.27 1666.21V1653.07C1962.27 1651.1 1960.68 1649.51 1958.71 1649.51Z" fill="#FFA000"/>
<path d="M2254.27 1774.86H2233.45V1754.04C2233.45 1750.3 2230.43 1747.27 2226.69 1747.27H2201.71C2197.97 1747.27 2194.94 1750.3 2194.94 1754.04V1774.86H2174.12C2170.39 1774.86 2167.36 1777.89 2167.36 1781.62V1806.6C2167.36 1810.34 2170.39 1813.37 2174.12 1813.37H2194.94V1834.19C2194.94 1837.92 2197.97 1840.95 2201.71 1840.95H2226.69C2230.43 1840.95 2233.45 1837.92 2233.45 1834.19V1813.37H2254.27C2258.01 1813.37 2261.04 1810.34 2261.04 1806.6V1781.62C2261.04 1777.89 2258.01 1774.86 2254.27 1774.86Z" fill="#3F598C"/>
</g>
<g opacity="0.69">
<path d="M405.715 2805.51H394.765V2794.56C394.765 2792.59 393.172 2791 391.207 2791H378.067C376.102 2791 374.509 2792.59 374.509 2794.56V2805.51H363.559C361.594 2805.51 360 2807.1 360 2809.07V2822.21C360 2824.17 361.594 2825.76 363.559 2825.76H374.509V2836.71C374.509 2838.68 376.102 2840.27 378.067 2840.27H391.207C393.172 2840.27 394.765 2838.68 394.765 2836.71V2825.76H405.715C407.68 2825.76 409.273 2824.17 409.273 2822.21V2809.07C409.273 2807.1 407.68 2805.51 405.715 2805.51Z" fill="#FFA000"/>
<path d="M701.273 2930.86H680.455V2910.04C680.455 2906.3 677.426 2903.27 673.69 2903.27H648.708C644.972 2903.27 641.943 2906.3 641.943 2910.04V2930.86H621.124C617.388 2930.86 614.359 2933.89 614.359 2937.62V2962.6C614.359 2966.34 617.388 2969.37 621.124 2969.37H641.943V2990.19C641.943 2993.92 644.972 2996.95 648.708 2996.95H673.69C677.426 2996.95 680.455 2993.92 680.455 2990.19V2969.37H701.273C705.009 2969.37 708.039 2966.34 708.039 2962.6V2937.62C708.039 2933.89 705.009 2930.86 701.273 2930.86Z" fill="#3F598C"/>
</g>
<g opacity="0.69">
<path d="M2179.71 2861.51H2168.77V2850.56C2168.77 2848.59 2167.17 2847 2165.21 2847H2152.07C2150.1 2847 2148.51 2848.59 2148.51 2850.56V2861.51H2137.56C2135.59 2861.51 2134 2863.1 2134 2865.07V2878.21C2134 2880.17 2135.59 2881.76 2137.56 2881.76H2148.51V2892.71C2148.51 2894.68 2150.1 2896.27 2152.07 2896.27H2165.21C2167.17 2896.27 2168.77 2894.68 2168.77 2892.71V2881.76H2179.71C2181.68 2881.76 2183.27 2880.17 2183.27 2878.21V2865.07C2183.27 2863.1 2181.68 2861.51 2179.71 2861.51Z" fill="#FFA000"/>
<path d="M2475.27 2986.86H2454.45V2966.04C2454.45 2962.3 2451.43 2959.27 2447.69 2959.27H2422.71C2418.97 2959.27 2415.94 2962.3 2415.94 2966.04V2986.86H2395.12C2391.39 2986.86 2388.36 2989.89 2388.36 2993.62V3018.6C2388.36 3022.34 2391.39 3025.37 2395.12 3025.37H2415.94V3046.19C2415.94 3049.92 2418.97 3052.95 2422.71 3052.95H2447.69C2451.43 3052.95 2454.45 3049.92 2454.45 3046.19V3025.37H2475.27C2479.01 3025.37 2482.04 3022.34 2482.04 3018.6V2993.62C2482.04 2989.89 2479.01 2986.86 2475.27 2986.86Z" fill="#3F598C"/>
</g>
<g opacity="0.69">
<path d="M405.715 2171.51H394.765V2160.56C394.765 2158.59 393.172 2157 391.207 2157H378.067C376.102 2157 374.509 2158.59 374.509 2160.56V2171.51H363.559C361.594 2171.51 360 2173.1 360 2175.07V2188.21C360 2190.17 361.594 2191.76 363.559 2191.76H374.509V2202.71C374.509 2204.68 376.102 2206.27 378.067 2206.27H391.207C393.172 2206.27 394.765 2204.68 394.765 2202.71V2191.76H405.715C407.68 2191.76 409.273 2190.17 409.273 2188.21V2175.07C409.273 2173.1 407.68 2171.51 405.715 2171.51Z" fill="#FFA000"/>
<path d="M701.273 2296.86H680.455V2276.04C680.455 2272.3 677.426 2269.27 673.69 2269.27H648.708C644.972 2269.27 641.943 2272.3 641.943 2276.04V2296.86H621.124C617.388 2296.86 614.359 2299.89 614.359 2303.62V2328.6C614.359 2332.34 617.388 2335.37 621.124 2335.37H641.943V2356.19C641.943 2359.92 644.972 2362.95 648.708 2362.95H673.69C677.426 2362.95 680.455 2359.92 680.455 2356.19V2335.37H701.273C705.009 2335.37 708.039 2332.34 708.039 2328.6V2303.62C708.039 2299.89 705.009 2296.86 701.273 2296.86Z" fill="#3F598C"/>
</g>
<g opacity="0.69">
<path d="M728.715 864.752H717.765V853.802C717.765 851.837 716.172 850.244 714.207 850.244H701.067C699.102 850.244 697.509 851.837 697.509 853.802V864.752H686.559C684.594 864.752 683 866.345 683 868.31V881.45C683 883.415 684.594 885.008 686.559 885.008H697.509V895.958C697.509 897.923 699.102 899.517 701.067 899.517H714.207C716.172 899.517 717.765 897.923 717.765 895.958V885.008H728.715C730.68 885.008 732.273 883.415 732.273 881.45V868.31C732.273 866.345 730.68 864.752 728.715 864.752Z" fill="#FFA000"/>
<path d="M1024.27 990.101H1003.45V969.282C1003.45 965.546 1000.43 962.517 996.69 962.517H971.708C967.972 962.517 964.943 965.546 964.943 969.282V990.101H944.124C940.388 990.101 937.359 993.129 937.359 996.866V1021.85C937.359 1025.58 940.388 1028.61 944.124 1028.61H964.943V1049.43C964.943 1053.17 967.972 1056.2 971.708 1056.2H996.69C1000.43 1056.2 1003.45 1053.17 1003.45 1049.43V1028.61H1024.27C1028.01 1028.61 1031.04 1025.58 1031.04 1021.85V996.866C1031.04 993.129 1028.01 990.101 1024.27 990.101Z" fill="#3F598C"/>
</g>
<g opacity="0.69">
<path d="M2052.71 1216.51H2041.77V1205.56C2041.77 1203.59 2040.17 1202 2038.21 1202H2025.07C2023.1 1202 2021.51 1203.59 2021.51 1205.56V1216.51H2010.56C2008.59 1216.51 2007 1218.1 2007 1220.07V1233.21C2007 1235.17 2008.59 1236.76 2010.56 1236.76H2021.51V1247.71C2021.51 1249.68 2023.1 1251.27 2025.07 1251.27H2038.21C2040.17 1251.27 2041.77 1249.68 2041.77 1247.71V1236.76H2052.71C2054.68 1236.76 2056.27 1235.17 2056.27 1233.21V1220.07C2056.27 1218.1 2054.68 1216.51 2052.71 1216.51Z" fill="#FFA000"/>
<path d="M2348.27 1341.86H2327.45V1321.04C2327.45 1317.3 2324.43 1314.27 2320.69 1314.27H2295.71C2291.97 1314.27 2288.94 1317.3 2288.94 1321.04V1341.86H2268.12C2264.39 1341.86 2261.36 1344.89 2261.36 1348.62V1373.6C2261.36 1377.34 2264.39 1380.37 2268.12 1380.37H2288.94V1401.19C2288.94 1404.92 2291.97 1407.95 2295.71 1407.95H2320.69C2324.43 1407.95 2327.45 1404.92 2327.45 1401.19V1380.37H2348.27C2352.01 1380.37 2355.04 1377.34 2355.04 1373.6V1348.62C2355.04 1344.89 2352.01 1341.86 2348.27 1341.86Z" fill="#3F598C"/>
</g>
<g opacity="0.69">
<path d="M380.715 1537.51H369.765V1526.56C369.765 1524.59 368.172 1523 366.207 1523H353.067C351.102 1523 349.509 1524.59 349.509 1526.56V1537.51H338.559C336.594 1537.51 335 1539.1 335 1541.07V1554.21C335 1556.17 336.594 1557.76 338.559 1557.76H349.509V1568.71C349.509 1570.68 351.102 1572.27 353.067 1572.27H366.207C368.172 1572.27 369.765 1570.68 369.765 1568.71V1557.76H380.715C382.68 1557.76 384.273 1556.17 384.273 1554.21V1541.07C384.273 1539.1 382.68 1537.51 380.715 1537.51Z" fill="#FFA000"/>
<path d="M676.273 1662.86H655.455V1642.04C655.455 1638.3 652.426 1635.27 648.69 1635.27H623.708C619.972 1635.27 616.943 1638.3 616.943 1642.04V1662.86H596.124C592.388 1662.86 589.359 1665.89 589.359 1669.62V1694.6C589.359 1698.34 592.388 1701.37 596.124 1701.37H616.943V1722.19C616.943 1725.92 619.972 1728.95 623.708 1728.95H648.69C652.426 1728.95 655.455 1725.92 655.455 1722.19V1701.37H676.273C680.009 1701.37 683.039 1698.34 683.039 1694.6V1669.62C683.039 1665.89 680.009 1662.86 676.273 1662.86Z" fill="#3F598C"/>
</g>
<g opacity="0.69">
<path d="M603.715 149.508H592.765V138.558C592.765 136.593 591.172 135 589.207 135H576.067C574.102 135 572.509 136.593 572.509 138.558V149.508H561.559C559.594 149.508 558 151.101 558 153.066V166.206C558 168.171 559.594 169.764 561.559 169.764H572.509V180.714C572.509 182.679 574.102 184.273 576.067 184.273H589.207C591.172 184.273 592.765 182.679 592.765 180.714V169.764H603.715C605.68 169.764 607.273 168.171 607.273 166.206V153.066C607.273 151.101 605.68 149.508 603.715 149.508Z" fill="#FFA000"/>
<path d="M899.273 274.857H878.455V254.038C878.455 250.302 875.426 247.273 871.69 247.273H846.708C842.972 247.273 839.943 250.302 839.943 254.038V274.857H819.124C815.388 274.857 812.359 277.885 812.359 281.622V306.603C812.359 310.34 815.388 313.369 819.124 313.369H839.943V334.187C839.943 337.923 842.972 340.952 846.708 340.952H871.69C875.426 340.952 878.455 337.923 878.455 334.187V313.369H899.273C903.009 313.369 906.039 310.34 906.039 306.603V281.622C906.039 277.885 903.009 274.857 899.273 274.857Z" fill="#3F598C"/>
</g>
<g opacity="0.69">
<path d="M217.715 859.246H206.765V848.296C206.765 846.331 205.172 844.738 203.207 844.738H190.067C188.102 844.738 186.509 846.331 186.509 848.296V859.246H175.559C173.594 859.246 172 860.839 172 862.804V875.944C172 877.909 173.594 879.502 175.559 879.502H186.509V890.452C186.509 892.417 188.102 894.011 190.067 894.011H203.207C205.172 894.011 206.765 892.417 206.765 890.452V879.502H217.715C219.68 879.502 221.273 877.909 221.273 875.944V862.804C221.273 860.839 219.68 859.246 217.715 859.246Z" fill="#FFA000"/>
<path d="M56.2728 567.584H35.4548V546.765C35.4548 543.029 32.4259 540 28.6899 540H3.70789C-0.0280762 540 -3.05713 543.029 -3.05713 546.765V567.584H-23.8761C-27.6121 567.584 -30.6411 570.612 -30.6411 574.349V599.33C-30.6411 603.067 -27.6121 606.096 -23.8761 606.096H-3.05713V626.914C-3.05713 630.65 -0.0280762 633.679 3.70789 633.679H28.6899C32.4259 633.679 35.4548 630.65 35.4548 626.914V606.096H56.2728C60.0089 606.096 63.0389 603.067 63.0389 599.33V574.349C63.0389 570.612 60.0089 567.584 56.2728 567.584Z" fill="#3F598C"/>
</g>
</g>
<defs>
<clipPath id="clip0_10_50">
<rect width="2999" height="3626" fill="white"/>
</clipPath>
</defs>
</svg>
