<svg xmlns="http://www.w3.org/2000/svg" width="525" height="627" viewBox="0 0 525 627">
  <g id="Group_573" data-name="Group 573" transform="translate(-1496 947)">
    <rect id="Rectangle_1" data-name="Rectangle 1" width="525" height="627" transform="translate(1496 -947)" fill="#ffdccc"/>
    <g id="Group_1" data-name="Group 1" transform="translate(1496 -760.54)">
      <path id="Path_658" data-name="Path 658" d="M471.919,197.2c-7,19.693-14.875,40.657-29.312,48.28-14.875,8.258-29.75,11.435-45.937,6.988-22.75-6.353-44.188.635-63.875,17.787-16.187,13.976-31.937,31.128-51.187,31.763-46.813.635-87.063-38.116-116.812-89.573-13.563-23.5-23.188-48.916-38.5-69.244-24.062-31.763-51.187-59.08-83.562-66.068C28.31,73.88,14.124,76.079,0,79.484V427.77H525V134.217C502.363,141.719,482.893,166.22,471.919,197.2Z" fill="#ffd1bd"/>
    </g>
    <path id="Path_1" data-name="Path 1" d="M615.588,531.055c26.513-6,53.027,12,67.843,40,4.679-8,8.578-18,15.6-21,13.257-6,21.835,11,32.752,19,3.119-34,22.614-74,53.027-70-11.7,7-26.513,18-26.513,37,24.954-31,67.843-35,93.577-5,10.917,13,19.5,28,23.394,47,6.238-27,21.055-48,40.55-61,21.055-14,49.128-26,71.742-10-8.578-38,.78-80,22.614-108-20.275,12-31.192,38-40.55,63,1.333-65.783,36.817-127.179,82.135-156.768V268.01c-79.091,11.638-115.311,129-108.649,222.045-24.954-17-55.366,2-71.742,28-.78-18-12.477-36-26.513-40-46.009-12-95.136,9-114.632,65-7.018-6-8.578-18-17.936-21-7.018-2-14.036-1-21.055,0-1.56,1-3.119,4-4.679,4-7.018-1-14.816,10-16.376,8-34.311-35-81.1-25-109.173,13C543.313,571.128,532.313,599.7,526.756,630h13.3c1.022-6.376,2.268-12.7,3.791-18.945C554.764,570.055,582.057,538.055,615.588,531.055Z" transform="translate(969.244 -953.01)" fill="#fff"/>
    <path id="Path_2" data-name="Path 2" d="M1058.949,305.287c-45.623,29.724-81.346,91.4-82.687,157.483,9.421-25.114,20.411-51.233,40.822-63.288-21.981,28.128-31.4,70.319-22.766,108.493-22.766-16.073-51.028-4.018-72.224,10.046-19.626,13.059-34.542,34.155-40.822,61.278-3.925-19.087-12.561-34.155-23.551-47.214-25.907-30.137-69.084-26.119-94.205,5.023,0-19.087,14.916-30.137,26.691-37.169-30.617-4.018-50.243,36.164-53.383,70.319-10.991-8.036-19.626-25.114-32.972-19.087-7.065,3.014-10.991,13.059-15.7,21.1-14.916-28.128-41.607-46.21-68.3-40.183-33.757,7.032-61.233,39.178-72.224,80.365-1.532,6.275-2.788,12.626-3.816,19.031h515.138Z" transform="translate(962.051 -954.492)" fill="#f5f5f5"/>
    <g id="Group_2" data-name="Group 2" transform="translate(981.524 -916.49)">
      <path id="Path_625" data-name="Path 625" d="M562.435,306.206a12.378,12.378,0,0,1-4.991-7.055,4.006,4.006,0,0,1-.1-2.125,1.745,1.745,0,0,1,1.522-1.316c-.214-1.875-.715-3.7-1-5.57a11.109,11.109,0,0,1,.345-5.586,5.445,5.445,0,0,1,4.046-3.571,3.66,3.66,0,0,1,4.151,2.906,8.592,8.592,0,0,1,4.668-5.238,6.51,6.51,0,0,1,6.772,1.042,7.612,7.612,0,0,1,2.157,4.347,22.66,22.66,0,0,1,.117,4.929,2.212,2.212,0,0,1,2.683.378,6.13,6.13,0,0,1,1.41,2.54,80.6,80.6,0,0,1,2.934,10.469,59.956,59.956,0,0,1-12.755,5.093C570.273,308.572,566.138,308.709,562.435,306.206Z" transform="translate(-4.696 -18.718)" fill="#9c452b"/>
      <path id="Path_626" data-name="Path 626" d="M563.463,306.794a11.333,11.333,0,0,1-4.573-6.462,3.679,3.679,0,0,1-.09-1.948,1.6,1.6,0,0,1,1.395-1.205c-.195-1.717-.654-3.393-.911-5.1a10.175,10.175,0,0,1,.315-5.117,4.991,4.991,0,0,1,3.707-3.272,3.353,3.353,0,0,1,3.8,2.663,7.873,7.873,0,0,1,4.278-4.8,5.961,5.961,0,0,1,6.2.955,6.965,6.965,0,0,1,1.976,3.983,20.76,20.76,0,0,1,.108,4.516,2.025,2.025,0,0,1,2.459.346,5.617,5.617,0,0,1,1.292,2.328,73.912,73.912,0,0,1,2.688,9.59,54.933,54.933,0,0,1-11.686,4.666C570.643,308.961,566.855,309.087,563.463,306.794Z" transform="translate(-4.904 -19.138)" fill="#6c301e"/>
      <g id="Group_523" data-name="Group 523" transform="translate(536.816 331.435)">
        <g id="Group_518" data-name="Group 518" transform="translate(168.322 58.324)">
          <g id="Group_517" data-name="Group 517">
            <g id="Group_515" data-name="Group 515">
              <path id="Path_627" data-name="Path 627" d="M767.516,430.174c-10.337,6.828-19.844,10.419-32.279,11.564.4.605,19.893,17.905,37.333,38.4,2.1,2.471,3.412,12.708,8.27,19.186,20.49,27.324,20.84,18.194,37.681,41.617,3.922.622,8.167,2.657,13.2-2.19C831.56,538.666,782.9,455.226,767.516,430.174Z" transform="translate(-735.237 -430.174)" fill="#ffab91"/>
            </g>
            <g id="Group_516" data-name="Group 516" transform="translate(81.398 108.188)">
              <path id="Path_628" data-name="Path 628" d="M832.027,558.426c4.844,1.75,9.888,1.886,13.636-2.053a2.837,2.837,0,0,0,1.682,1.6c8.24,2.9,22.643,4.492,22.643,10.294H830.457a14.516,14.516,0,0,1,1.269-9.089C831.837,558.934,831.93,558.679,832.027,558.426Z" transform="translate(-830.186 -556.373)" fill="#3b5249"/>
              <rect id="Rectangle_17393" data-name="Rectangle 17393" width="40.238" height="2.148" rx="0.783" transform="translate(40.238 14.043) rotate(180)" fill="#fafafa"/>
            </g>
          </g>
        </g>
        <g id="Group_522" data-name="Group 522" transform="translate(0)">
          <g id="Group_521" data-name="Group 521">
            <g id="Group_519" data-name="Group 519" transform="translate(25.153 58.324)">
              <path id="Path_629" data-name="Path 629" d="M632.438,430.174c10.337,6.828,19.844,10.419,32.279,11.564-.4.605-19.893,17.905-37.333,38.4-2.1,2.471-3.412,12.708-8.27,19.186-20.49,27.324-20.84,18.194-37.681,41.617-3.922.622-8.167,2.657-13.2-2.19C568.393,538.666,617.051,455.226,632.438,430.174Z" transform="translate(-568.234 -430.174)" fill="#ffab91"/>
            </g>
            <g id="Group_520" data-name="Group 520" transform="translate(0 166.512)">
              <path id="Path_630" data-name="Path 630" d="M577.363,558.426c-4.844,1.75-9.888,1.886-13.636-2.053a2.838,2.838,0,0,1-1.682,1.6c-8.24,2.9-22.643,4.492-22.643,10.294h39.531a14.516,14.516,0,0,0-1.269-9.089C577.553,558.934,577.46,558.679,577.363,558.426Z" transform="translate(-538.966 -556.373)" fill="#3b5249"/>
              <rect id="Rectangle_17394" data-name="Rectangle 17394" width="40.238" height="2.148" rx="0.783" transform="translate(0 11.895)" fill="#fafafa"/>
            </g>
            <path id="Path_631" data-name="Path 631" d="M718.513,362.141l-19.765.431-19.765-.431c-11.863,19.262-23.853,38.778-35.858,58.324,10.337,6.828,21.619,11.723,34.054,12.869.764-1.168,1.724-2.67,5.344-7.83.712-1.014,13.037-15.147,16.224-18.967,3.187,3.82,15.513,17.953,16.224,18.967,3.62,5.159,4.581,6.662,5.344,7.83,12.435-1.145,23.717-6.04,34.054-12.869C742.366,400.919,730.376,381.4,718.513,362.141Z" transform="translate(-553.769 -362.141)" fill="#3b5249"/>
            <path id="Path_632" data-name="Path 632" d="M701.278,362.572l-19.765-.431q-10.276,16.686-20.661,33.588c25.149,11.169,54.609,9.066,78.88-3.206q-9.381-15.263-18.69-30.382Z" transform="translate(-556.299 -362.141)" fill="#30423b"/>
            <path id="Path_633" data-name="Path 633" d="M658.323,400.787q-7.587,12.345-15.2,24.735c10.337,6.828,21.619,11.723,34.054,12.869.764-1.168,1.724-2.67,5.344-7.83.712-1.014,13.037-15.147,16.224-18.967,3.187,3.82,15.513,17.953,16.224,18.967,3.62,5.159,4.581,6.662,5.344,7.83,12.435-1.145,23.717-6.04,34.054-12.869q-8.6-13.993-17.167-27.941C712.932,409.853,683.472,411.957,658.323,400.787Z" transform="translate(-553.769 -367.199)" fill="#3b5249"/>
          </g>
          <path id="Path_634" data-name="Path 634" d="M648.377,427.954a5.305,5.305,0,0,1,1.571.85c.555.357,1.107.718,1.669,1.061q1.568.959,3.192,1.818a58.625,58.625,0,0,0,7.243,3.211,56.3,56.3,0,0,0,7.475,2.15c1.242.267,2.494.5,3.749.7,1.3.206,2.631.278,3.925.508a.461.461,0,0,1-.081.917,35.3,35.3,0,0,1-7.673-1.112,61.848,61.848,0,0,1-7.716-2.28,59.469,59.469,0,0,1-7.157-3.171q-1.718-.9-3.375-1.907c-.989-.6-2.5-1.294-3.146-2.286A.294.294,0,0,1,648.377,427.954Z" transform="translate(-554.464 -371.532)" fill="#30423b"/>
        </g>
      </g>
      <g id="Group_531" data-name="Group 531" transform="translate(524.339 146.99)">
        <path id="Path_635" data-name="Path 635" d="M573.206,365.584l-11.921,29.944-27.2,47.487,5.174,2.459s30.331-29.129,30.914-46.731a360.615,360.615,0,0,0,20.217-30.179Z" transform="translate(-525.73 -178.187)" fill="#ffab91"/>
        <path id="Path_636" data-name="Path 636" d="M533.131,453.262c-2.919,1.144-5.655,4.789-7,7.556A17.5,17.5,0,0,0,524.526,471c.146.932.58,2.375,1.433,2.009,1.276-.548.564-2.457,1.075-5.161.191-1.016.314-2.274,1.229-2.565-.009.061-.013.12-.019.181.032-.024.065-.042.1-.066a22.053,22.053,0,0,0,0,6.025c.18,1.251.738,3.183,1.883,2.676,1.715-.762.3-3.476,1.03-7.121.083-.418.22-1.171.39-1.95a21.546,21.546,0,0,0,.154,4.466c.18,1.251.738,3.183,1.883,2.676,1.379-.613.737-2.489.81-5.1.023.206.041.413.071.617.179,1.251.737,3.183,1.882,2.675,1.716-.761.3-3.475,1.03-7.121.1-.493.273-1.454.486-2.373a4.9,4.9,0,0,0,1.751-4.161C539.318,453.56,535.808,452.213,533.131,453.262Z" transform="translate(-524.339 -190.65)" fill="#ffab91"/>
        <path id="Path_637" data-name="Path 637" d="M534.9,455.156a3.321,3.321,0,0,1,.454,1.675,2.847,2.847,0,0,1-.5,1.521,3.051,3.051,0,0,1-1.243,1.027,5.165,5.165,0,0,1-1.537.328,1.848,1.848,0,0,0-1.184.549,10.083,10.083,0,0,0-.928,1.555,3.835,3.835,0,0,1-2.73,2.034c-.134.017-.115.207.009.226a3.138,3.138,0,0,0,2.892-1.619,7.423,7.423,0,0,0,.528-.922,7.753,7.753,0,0,1,.5-1.027c.417-.592,1.152-.39,1.778-.442a3.33,3.33,0,0,0,2.342-5.153A.23.23,0,0,0,534.9,455.156Z" transform="translate(-524.738 -190.924)" fill="#ff7043"/>
        <path id="Path_638" data-name="Path 638" d="M626.1,249.316l13.053-29.467,14.9-52.659,5.379,1.975s.409,42.051-11.759,54.784a360.536,360.536,0,0,1-7.416,35.56Z" transform="translate(-538.862 -149.873)" fill="#ffab91"/>
        <g id="Group_524" data-name="Group 524" transform="translate(44.375 97.014)">
          <path id="Path_639" data-name="Path 639" d="M619.273,260.155c-9,20.595-40.3,87.766-43.172,94.185,5.932,3.04,12.285,4.622,19.727,7.365,3.8-6.394,4.3-6.311,8.1-12.7,21.217,4.684,38.591,3.837,45.537,28.241,20.678,10.511,61.476,5.685,69.478-16.674-36.868-66.258-62.272-66.243-84.58-78.849,1.863-7.187,2.063-8.244,3.926-15.432Z" transform="translate(-576.101 -260.155)" fill="#2ba3dc"/>
          <path id="Path_640" data-name="Path 640" d="M646.072,365.163c9.43,0,19.718.857,27.433-5.144-23.147,5.144-46.293-6-68.583-4.286-4.852.694-10.825,8.672-15.653,16.687,2.67.892,5.464,1.8,8.438,2.9,3.8-6.394,4.3-6.311,8.1-12.7,21.217,4.685,38.591,3.838,45.537,28.241,20.129,10.233,59.311,5.923,68.761-14.936C695.465,384.075,664.579,385.353,646.072,365.163Z" transform="translate(-577.98 -273.77)" fill="#0089c3"/>
          <path id="Path_641" data-name="Path 641" d="M610.135,302.719a14.37,14.37,0,0,1,5.481,12.533,13.051,13.051,0,0,1-8.354,10.828,14.016,14.016,0,0,1-3.832.922,26.035,26.035,0,0,1-4.161-.231.283.283,0,0,0-.125.544,8.87,8.87,0,0,0,3.739.464,14.347,14.347,0,0,0,3.791-.658,15.293,15.293,0,0,0,6.548-4.115,13.68,13.68,0,0,0,2.588-14.129,13.332,13.332,0,0,0-5.275-6.727A.348.348,0,0,0,610.135,302.719Z" transform="translate(-579.365 -266.14)" fill="#70bfa8"/>
        </g>
        <g id="Group_529" data-name="Group 529" transform="translate(33.883 122.477)">
          <g id="Group_525" data-name="Group 525" transform="translate(17.101 11.549)">
            <path id="Path_642" data-name="Path 642" d="M583.81,311.843l13.768,6.977s-1.075,3.766-1.791,6.12c13.752,3.3,23.622-14.219,8.782-21.309-1.142,2.033-1.964,3.367-3.106,5.4a56.314,56.314,0,0,1-12.444-5.7Z" transform="translate(-583.81 -303.328)" fill="#ffab91"/>
            <path id="Path_643" data-name="Path 643" d="M589.019,303.328l-5.209,8.515,6.753,3.422a17.329,17.329,0,0,0,8.082-7.41A60.286,60.286,0,0,1,589.019,303.328Z" transform="translate(-583.81 -303.328)" fill="#ff7043"/>
          </g>
          <g id="Group_528" data-name="Group 528">
            <g id="Group_526" data-name="Group 526" transform="translate(6.364 1.709)">
              <path id="Path_644" data-name="Path 644" d="M582.522,294.207a1.539,1.539,0,0,1,.609-2.138,2.341,2.341,0,0,1,2.378.261,3.161,3.161,0,0,1,.289,4.962Z" transform="translate(-572.857 -291.851)" fill="#ff7043"/>
              <path id="Path_645" data-name="Path 645" d="M572.739,312.421a1.54,1.54,0,0,0-1.447,1.687,2.341,2.341,0,0,0,1.529,1.84,3.161,3.161,0,0,0,4.3-2.5Z" transform="translate(-571.286 -294.786)" fill="#ff7043"/>
            </g>
            <path id="Path_646" data-name="Path 646" d="M587.713,298.849c2.1,2.856,3.053,6.832,1.447,9.99-1.767,3.477-6.141,4.967-10.016,4.524-2.987-.34-9.956-4.284-13.584-6.816a3.961,3.961,0,0,1-1.541-4.354,28.73,28.73,0,0,1,6.464-11.41,2.951,2.951,0,0,1,3.186-.736C577.869,291.627,585.959,296.456,587.713,298.849Z" transform="translate(-563.862 -289.857)" fill="#ffab91"/>
            <path id="Path_647" data-name="Path 647" d="M574.986,304.384c1.116.878,2.26,1.731,3.408,2.568a1.258,1.258,0,0,0-.04,1.861,1.824,1.824,0,0,0,2.434-.087.2.2,0,0,0-.248-.325,1.5,1.5,0,0,1-1.751.195.8.8,0,0,1,.087-1.418.217.217,0,0,0,.051-.369c-1.249-.889-2.516-1.768-3.8-2.609C575.005,304.119,574.866,304.29,574.986,304.384Z" transform="translate(-565.443 -291.901)" fill="#ff7043"/>
            <path id="Path_648" data-name="Path 648" d="M572.917,308.376a.684.684,0,0,0-.319-.041,1.263,1.263,0,0,0-.2.054.475.475,0,0,0-.29.5.777.777,0,0,0,.24.455,1.961,1.961,0,0,0,.188.14c.153.1.318.19.479.28a6.032,6.032,0,0,0,.811.4.526.526,0,0,0,.53-.9,6.066,6.066,0,0,0-.745-.511c-.158-.1-.314-.2-.478-.281A1.984,1.984,0,0,0,572.917,308.376Z" transform="translate(-565.038 -292.493)" fill="#212121"/>
            <path id="Path_649" data-name="Path 649" d="M578.43,298.119a.672.672,0,0,0-.319-.041,1.263,1.263,0,0,0-.2.054.475.475,0,0,0-.29.5.775.775,0,0,0,.241.455,1.721,1.721,0,0,0,.187.139c.153.1.318.19.479.281a6.024,6.024,0,0,0,.811.4.526.526,0,0,0,.53-.9,6.062,6.062,0,0,0-.745-.511c-.158-.1-.313-.2-.478-.281A1.824,1.824,0,0,0,578.43,298.119Z" transform="translate(-565.825 -291.03)" fill="#212121"/>
            <path id="Path_650" data-name="Path 650" d="M575.652,294.569a2.007,2.007,0,0,0-1.294.714,3.228,3.228,0,0,0-.471,4.009c.127.2.483,0,.369-.213a2.958,2.958,0,0,1-.208-2.333,2.812,2.812,0,0,1,.664-1.05,3.02,3.02,0,0,1,.49-.389,3.429,3.429,0,0,0,.553-.343C575.872,294.849,575.865,294.576,575.652,294.569Z" transform="translate(-565.223 -290.529)" fill="#6c301e"/>
            <path id="Path_651" data-name="Path 651" d="M570.834,304.85a2.011,2.011,0,0,0-1.294.714,3.229,3.229,0,0,0-.471,4.009c.127.206.483,0,.369-.213a2.958,2.958,0,0,1-.208-2.333,2.807,2.807,0,0,1,.664-1.051,3.053,3.053,0,0,1,.49-.388,3.492,3.492,0,0,0,.553-.343C571.054,305.13,571.047,304.857,570.834,304.85Z" transform="translate(-564.536 -291.997)" fill="#6c301e"/>
            <g id="Group_527" data-name="Group 527" transform="translate(17.318 10.986)">
              <path id="Path_652" data-name="Path 652" d="M585.649,303.449a5.28,5.28,0,0,0,.272.957,6.672,6.672,0,0,1,.184.987,5.914,5.914,0,0,1-.151,2.078,6.686,6.686,0,0,1-1.841,3.135.149.149,0,0,0,.193.226,6.029,6.029,0,0,0,2.177-3.294,6.593,6.593,0,0,0,.177-2.117,6.052,6.052,0,0,0-.2-1.174,2.33,2.33,0,0,0-.432-.975A.217.217,0,0,0,585.649,303.449Z" transform="translate(-584.063 -302.747)" fill="#ff7043"/>
              <path id="Path_653" data-name="Path 653" d="M585.949,302.844l-.3.19a4.135,4.135,0,0,0-.608.412.2.2,0,0,0,.211.327,3.985,3.985,0,0,0,.612-.336l.295-.177a3.417,3.417,0,0,0,.318-.23c.184-.14-.014-.439-.219-.34A3.211,3.211,0,0,0,585.949,302.844Z" transform="translate(-584.193 -302.671)" fill="#ff7043"/>
            </g>
          </g>
        </g>
        <g id="Group_530" data-name="Group 530" transform="translate(113.614)">
          <path id="Path_654" data-name="Path 654" d="M657.519,166.338c-1.225-2.886-.535-7.391.5-10.286a17.509,17.509,0,0,1,6.15-8.273c.768-.548,2.1-1.246,2.437-.382.5,1.3-1.36,2.123-2.934,4.379-.592.848-1.405,1.816-.973,2.674.037-.05.077-.094.116-.141.006.039.015.076.021.116a22.025,22.025,0,0,1,4.3-4.216c1.019-.747,2.79-1.7,3.228-.527.657,1.759-2.271,2.648-4.367,5.718-.24.351-.682.977-1.12,1.643a21.538,21.538,0,0,1,3.3-3.014c1.019-.747,2.791-1.7,3.228-.527.528,1.415-1.262,2.269-3.073,4.145.164-.128.324-.26.49-.382,1.019-.747,2.791-1.7,3.229-.527.657,1.759-2.272,2.648-4.368,5.718-.283.415-.848,1.211-1.354,2.007a4.9,4.9,0,0,1-1.748,4.163C662.061,170.55,658.642,168.984,657.519,166.338Z" transform="translate(-656.866 -146.991)" fill="#ffab91"/>
          <path id="Path_655" data-name="Path 655" d="M660.071,167.424a3.314,3.314,0,0,0,1.516-.847,2.854,2.854,0,0,0,.736-1.421,3.065,3.065,0,0,0-.136-1.607,5.184,5.184,0,0,0-.841-1.328,1.849,1.849,0,0,1-.437-1.229,10.1,10.1,0,0,1,.462-1.751,3.837,3.837,0,0,0-.458-3.374c-.081-.107.069-.227.168-.153a3.138,3.138,0,0,1,.867,3.2,7.285,7.285,0,0,1-.289,1.022,7.81,7.81,0,0,0-.382,1.078c-.131.712.527,1.1.929,1.579a3.33,3.33,0,0,1-2.043,5.279A.23.23,0,0,1,660.071,167.424Z" transform="translate(-657.302 -148.232)" fill="#ff7043"/>
        </g>
      </g>
      <path id="Path_656" data-name="Path 656" d="M726.17,439.366c-6.035-9.1-12.319-18.457-20.712-25.4-.36-.3-.72-.6-1.1-.892-.377.292-.737.592-1.1.892-8.393,6.944-14.677,16.306-20.712,25.4-.411.626.532,1.294.943.669,2.3-3.455,4.6-6.91,7.081-10.253a80.718,80.718,0,0,1,13.785-14.96,80.709,80.709,0,0,1,13.785,14.96c2.478,3.343,4.784,6.8,7.081,10.253C725.638,440.66,726.581,439.992,726.17,439.366Z" transform="translate(-22.565 -37.974)" fill="#30423b"/>
      <path id="Path_657" data-name="Path 657" d="M763.555,427.954a5.3,5.3,0,0,0-1.571.85c-.555.357-1.107.718-1.669,1.061q-1.566.959-3.192,1.818a58.638,58.638,0,0,1-7.243,3.211,56.294,56.294,0,0,1-7.475,2.15c-1.242.267-2.494.5-3.749.7-1.3.206-2.63.278-3.925.508a.461.461,0,0,0,.081.917,35.306,35.306,0,0,0,7.674-1.112,61.827,61.827,0,0,0,7.716-2.28,59.461,59.461,0,0,0,7.158-3.171q1.718-.9,3.375-1.907c.989-.6,2.5-1.294,3.147-2.286A.3.3,0,0,0,763.555,427.954Z" transform="translate(-29.969 -40.097)" fill="#30423b"/>
    </g>
    <g id="Group_3" data-name="Group 3" transform="translate(902.131 -1005.99)">
      <path id="Path_663" data-name="Path 663" d="M821.785,264.431c-6.96-11.383-12.529-21.389-17.819-35.368-.938-20.485-11.728-40.5-13.265-62.809h-9c3.971,31.846-1.88,44.511,6.76,63.919,7.277,16.348,13.167,33.234,21.938,48.832,4.186,7.441,8.6,14.519,13.654,21.79A173.071,173.071,0,0,1,821.785,264.431Z" transform="translate(0.969 1.75)" fill="#f08035"/>
      <path id="Path_664" data-name="Path 664" d="M838.541,280.054c-3.861-7.876-4.3-10.6-13.435-13.067-2.363-3.8-4.565-7.324-6.649-10.732a173.08,173.08,0,0,0,2.267,36.363c4.868,7,10.33,14.183,16.768,22.043Z" transform="translate(4.297 9.926)" fill="#2ba3dc"/>
      <g id="Group_543" data-name="Group 543" transform="translate(877.374 280.469)">
        <path id="Path_665" data-name="Path 665" d="M888.251,298.541q-2.852-7.137-5.705-14.277a26.358,26.358,0,0,0-3.445-6.692c-1.539-1.945-3.79-3.382-5.9-3.075a3.979,3.979,0,0,0-1.288.43,6.238,6.238,0,0,0-2.792,3.589,17.312,17.312,0,0,0-.518,6.628c.507,7.125,2.52,14.213,4.946,21.066.769,2.173,1.6,4.324,2.457,6.464A74.056,74.056,0,0,1,888.251,298.541Z" transform="translate(-868.518 -268.89)" fill="#2ba3dc"/>
        <path id="Path_666" data-name="Path 666" d="M890.371,303.4q-1.371-3.433-2.743-6.865a74.055,74.055,0,0,0-12.241,14.133c.546,1.36,1.093,2.719,1.67,4.067a174.137,174.137,0,0,0,9.738,19.336,23.338,23.338,0,0,0,4.481,5.978,8.842,8.842,0,0,0,2.454,1.515,5.03,5.03,0,0,0,3.776.168c1.758-.713,2.876-2.662,3.257-4.779,1.515-8.417-4.107-17.827-7.228-25.636Q891.952,307.359,890.371,303.4Z" transform="translate(-867.894 -266.884)" fill="#f08035"/>
        <g id="Group_542" data-name="Group 542" transform="translate(14.982)">
          <g id="Group_541" data-name="Group 541">
            <g id="Group_540" data-name="Group 540">
              <rect id="Rectangle_17396" data-name="Rectangle 17396" width="4.865" height="31.753" transform="matrix(-0.046, 0.999, -0.999, -0.046, 37.48, 8.947)" fill="#ee6c4d"/>
              <rect id="Rectangle_17397" data-name="Rectangle 17397" width="3.061" height="31.753" transform="translate(37.439 9.848) rotate(92.645)" fill="#c23514"/>
              <rect id="Rectangle_17398" data-name="Rectangle 17398" width="3.06" height="16.364" transform="translate(29.029 9.46) rotate(92.648)" fill="#ee4118"/>
              <g id="Group_537" data-name="Group 537">
                <path id="Path_667" data-name="Path 667" d="M914.931,290.441h0a5.443,5.443,0,0,0,5.688-5.186l.412-8.939a5.442,5.442,0,0,0-5.185-5.688h0a5.444,5.444,0,0,0-5.689,5.186l-.412,8.938A5.444,5.444,0,0,0,914.931,290.441Z" transform="translate(-879.755 -269.238)" fill="#ee6c4d"/>
                <path id="Path_668" data-name="Path 668" d="M887.444,289.171h0a5.443,5.443,0,0,0,5.688-5.186l.412-8.938a5.441,5.441,0,0,0-5.185-5.688h0a5.443,5.443,0,0,0-5.689,5.185l-.412,8.939A5.443,5.443,0,0,0,887.444,289.171Z" transform="translate(-882.253 -269.353)" fill="#ee6c4d"/>
              </g>
              <g id="Group_538" data-name="Group 538" transform="translate(0.074 1.619)">
                <path id="Path_669" data-name="Path 669" d="M915,288.687h0a5.443,5.443,0,0,0,5.688-5.186l.264-5.7a5.443,5.443,0,0,0-5.186-5.688h0a5.442,5.442,0,0,0-5.688,5.186l-.264,5.7A5.444,5.444,0,0,0,915,288.687Z" transform="translate(-879.824 -270.722)" fill="#ee4118"/>
                <path id="Path_670" data-name="Path 670" d="M887.512,287.417h0a5.442,5.442,0,0,0,5.688-5.186l.264-5.7a5.444,5.444,0,0,0-5.186-5.689h0a5.443,5.443,0,0,0-5.688,5.186l-.264,5.7A5.443,5.443,0,0,0,887.512,287.417Z" transform="translate(-882.32 -270.838)" fill="#ee4118"/>
              </g>
              <g id="Group_539" data-name="Group 539" transform="translate(0.206 4.684)">
                <path id="Path_671" data-name="Path 671" d="M914.905,285.345l.45.021a5.216,5.216,0,0,0,5.452-4.97h0a5.216,5.216,0,0,0-4.97-5.452l-.452-.021a5.217,5.217,0,0,0-5.452,4.97h0A5.217,5.217,0,0,0,914.905,285.345Z" transform="translate(-879.945 -273.532)" fill="#ee4118"/>
                <path id="Path_672" data-name="Path 672" d="M887.418,284.075l.45.021a5.216,5.216,0,0,0,5.452-4.97h0a5.217,5.217,0,0,0-4.97-5.452l-.452-.021a5.217,5.217,0,0,0-5.452,4.97h0A5.216,5.216,0,0,0,887.418,284.075Z" transform="translate(-882.442 -273.648)" fill="#ee4118"/>
              </g>
            </g>
            <path id="Path_673" data-name="Path 673" d="M900.752,276.031a1.366,1.366,0,0,0-1.145-1.491,1.769,1.769,0,0,0-1.678,1.006,33.648,33.648,0,0,0-.983,6.023c-2.107-.257-3.289-.334-3.942,1.685s.262,4.374.075,6.487q-1.843,20.851-3.684,41.7c-.354,4.009-.491,8.627,2.446,11.381a7.257,7.257,0,0,0,6.149,1.752,8.417,8.417,0,0,0,5.378-3.569c2.411-3.544,2.023-8.22,1.54-12.478-1.421-12.539-2.843-25.541-4.264-38.08,3.631-1.668,4.027-1.637,7.7-3.281a2.843,2.843,0,0,0,1.607-2.064,46.741,46.741,0,0,0,.222-8.286c-.242-.963-.341-1.79-1.311-2a1.689,1.689,0,0,0-2.058,1.542c.331-.842-.717-2.077-1.614-2.186a1.558,1.558,0,0,0-1.651,1.676c.084-.769-.947-1.613-1.715-1.526a1.353,1.353,0,0,0-1.073,1.712Z" transform="translate(-881.62 -268.917)" fill="#f08035"/>
          </g>
          <path id="Path_674" data-name="Path 674" d="M895.3,288.525a2.517,2.517,0,0,1,.892-.093,3.669,3.669,0,0,1,.536-.033c.153.014.3.034.457.05l1.864.2a.4.4,0,0,1-.094.8l-1.877-.093c-.153-.008-.307-.012-.46-.023a3.333,3.333,0,0,1-.451-.1,2.579,2.579,0,0,1-.924-.253A.267.267,0,0,1,895.3,288.525Z" transform="translate(-881.082 -267.624)" fill="#d15500"/>
        </g>
        <path id="Path_675" data-name="Path 675" d="M889.188,315.086a55.221,55.221,0,0,1,2-7.435c.075-.233.481-.117.415.121-.657,2.37-1.106,4.826-1.561,7.244a58.651,58.651,0,0,0-.745,7.532,65.215,65.215,0,0,0,.622,15.323c.118.659-.525.42-.622-.249a66.751,66.751,0,0,1-.887-14.946C888.6,320.152,888.747,317.581,889.188,315.086Z" transform="translate(-866.723 -265.886)" fill="#d15500"/>
      </g>
      <g id="Group_545" data-name="Group 545" transform="translate(772.138 526.553)">
        <path id="Path_676" data-name="Path 676" d="M807.868,494.944c-3.725,26.016-8.527,51.765-14.316,75.376l11.743.338c.915-11.767,5.677-23.485,10.962-34.691s11.2-22.277,14.758-33.945c.621-2.039,1.2-4.176,1.705-6.362Z" transform="translate(-770.092 -494.944)" fill="#f08035"/>
        <g id="Group_544" data-name="Group 544" transform="translate(0 69.259)">
          <path id="Path_677" data-name="Path 677" d="M808.227,560.719c-4.625,1.946-9.153,2.1-11.824-2.284a3.585,3.585,0,0,1-1.777,1.78c-7.854,3.222-20.989,5-21.984,11.451h35.3a19.422,19.422,0,0,0,.425-10.109C808.309,561.282,808.27,561,808.227,560.719Z" transform="translate(-771.992 -558.435)" fill="#3b5249"/>
          <path id="Path_678" data-name="Path 678" d="M807.122,572.953H772.686a.624.624,0,0,1-.632-.746l.139-.9a.9.9,0,0,1,.862-.746H807.49a.624.624,0,0,1,.632.746l-.137.9A.9.9,0,0,1,807.122,572.953Z" transform="translate(-772.046 -557.333)" fill="#fafafa"/>
        </g>
      </g>
      <g id="Group_548" data-name="Group 548" transform="translate(809.914 397.259)">
        <g id="Group_546" data-name="Group 546">
          <path id="Path_679" data-name="Path 679" d="M898.455,377.149l-.448.068a269.27,269.27,0,0,0-36.411-.356,5,5,0,0,1-5.963,0,269.272,269.272,0,0,0-36.411.356l-.448-.068s-7.215,94.469-12.1,128.562l24.852.717c2.4-10.322,3.237-21.8-.558-29.937,10.181-26.514,21.576-53.623,27.645-80.843,6.069,27.221,17.464,54.329,27.645,80.843-3.8,8.135-2.962,19.615-.559,29.937l24.852-.717C905.67,471.618,898.455,377.149,898.455,377.149Z" transform="translate(-806.676 -376.418)" fill="#3b5249"/>
          <path id="Path_680" data-name="Path 680" d="M897.1,377.216a269.272,269.272,0,0,0-36.411-.356,5,5,0,0,1-5.963,0,269.272,269.272,0,0,0-36.411.356l-.448-.068s-.474,6.21-1.261,16.008a88.279,88.279,0,0,0,38.98,11.173c.758-2.893,1.476-5.788,2.122-8.683.655,2.937,1.382,5.872,2.153,8.806a91.119,91.119,0,0,0,39.169-8.57c-.917-11.363-1.481-18.735-1.481-18.735Z" transform="translate(-805.774 -376.418)" fill="#30423b"/>
          <path id="Path_681" data-name="Path 681" d="M903.971,494.944c3.725,26.016,8.527,51.765,14.316,75.376l-11.743.338c-.915-11.767-5.677-23.485-10.962-34.691s-11.2-22.277-14.758-33.945c-.621-2.039-1.2-4.176-1.7-6.362Z" transform="translate(-800.095 -365.65)" fill="#f08035"/>
        </g>
        <g id="Group_547" data-name="Group 547" transform="translate(104.81 198.552)">
          <path id="Path_682" data-name="Path 682" d="M903.364,560.719c4.625,1.946,9.153,2.1,11.824-2.284a3.585,3.585,0,0,0,1.777,1.78c7.854,3.222,20.989,5,21.984,11.451h-35.3a19.423,19.423,0,0,1-.425-10.109C903.283,561.282,903.322,561,903.364,560.719Z" transform="translate(-902.757 -558.435)" fill="#3b5249"/>
          <path id="Path_683" data-name="Path 683" d="M904.461,572.953H938.9a.624.624,0,0,0,.631-.746l-.139-.9a.9.9,0,0,0-.862-.746H904.093a.624.624,0,0,0-.632.746l.137.9A.9.9,0,0,0,904.461,572.953Z" transform="translate(-902.694 -557.333)" fill="#fafafa"/>
        </g>
      </g>
      <path id="Path_684" data-name="Path 684" d="M891.107,238.391a5.053,5.053,0,0,0-.989-3.133,5.044,5.044,0,0,0-1.079-5.84,5.042,5.042,0,0,0-2.077-5.564,5.042,5.042,0,0,0-3.012-5.119,5.045,5.045,0,0,0-3.855-4.519,5.043,5.043,0,0,0-4.582-3.78,5.04,5.04,0,0,0-5.167-2.928,28.36,28.36,0,0,1-8.2-3.4,6.92,6.92,0,0,1-6.064-.51,6.923,6.923,0,0,1-6.06.55,6.92,6.92,0,0,1-5.873,1.595,5.05,5.05,0,0,0-2.606,2,5.044,5.044,0,0,0-5.119,3.012,5.042,5.042,0,0,0-4.518,3.854,5.04,5.04,0,0,0-3.78,4.582,5.041,5.041,0,0,0-2.928,5.168,5.043,5.043,0,0,0-1.986,5.6,5.044,5.044,0,0,0-.983,5.858,5.043,5.043,0,0,0,.048,5.939,5.045,5.045,0,0,0,1.079,5.841,5.042,5.042,0,0,0,2.078,5.564,5.041,5.041,0,0,0,3.011,5.119A5.045,5.045,0,0,0,832.3,262.8a5.043,5.043,0,0,0,4.582,3.781,28.287,28.287,0,0,1,7.482,4.771,6.919,6.919,0,0,1,5.883,1.557,6.912,6.912,0,0,1,6.064.511,6.918,6.918,0,0,1,6.06-.551,6.924,6.924,0,0,1,5.873-1.594,6.92,6.92,0,0,1,5.507-2.59,5.057,5.057,0,0,0,2.219-2.424,5.045,5.045,0,0,0,4.518-3.855,5.04,5.04,0,0,0,3.78-4.582,5.041,5.041,0,0,0,2.928-5.167,5.043,5.043,0,0,0,1.986-5.6,5.043,5.043,0,0,0,.983-5.857A5.064,5.064,0,0,0,891.107,238.391Z" transform="translate(4.565 5.142)" fill="#963e00"/>
      <path id="Path_685" data-name="Path 685" d="M888.893,240.059a4.767,4.767,0,0,0-.933-2.954,4.754,4.754,0,0,0-1.018-5.507,4.757,4.757,0,0,0-1.958-5.247,4.753,4.753,0,0,0-2.839-4.826,4.757,4.757,0,0,0-3.635-4.261,4.754,4.754,0,0,0-4.32-3.564,26.665,26.665,0,0,1-7.054-4.5,6.529,6.529,0,0,1-5.547-1.466,6.523,6.523,0,0,1-5.716-.482,6.525,6.525,0,0,1-5.714.519,6.527,6.527,0,0,1-5.537,1.5,6.525,6.525,0,0,1-5.191,2.441A4.763,4.763,0,0,0,837.339,214a4.754,4.754,0,0,0-4.26,3.635,4.757,4.757,0,0,0-3.565,4.319,4.756,4.756,0,0,0-2.76,4.873,4.754,4.754,0,0,0-1.872,5.277,4.754,4.754,0,0,0-.928,5.523,4.757,4.757,0,0,0,.046,5.6,4.754,4.754,0,0,0,1.018,5.507,4.755,4.755,0,0,0,1.958,5.247,4.754,4.754,0,0,0,2.839,4.826,4.757,4.757,0,0,0,3.635,4.261,4.754,4.754,0,0,0,4.32,3.564,26.748,26.748,0,0,1,7.055,4.5,6.524,6.524,0,0,1,5.547,1.467,6.522,6.522,0,0,1,5.717.481,6.522,6.522,0,0,1,5.713-.519,6.521,6.521,0,0,1,5.537-1.5,6.522,6.522,0,0,1,5.191-2.442,4.763,4.763,0,0,0,2.092-2.285,4.751,4.751,0,0,0,4.26-3.635,4.751,4.751,0,0,0,3.565-4.319,4.754,4.754,0,0,0,2.76-4.873,4.755,4.755,0,0,0,1.873-5.277,4.755,4.755,0,0,0,.927-5.522A4.791,4.791,0,0,0,888.893,240.059Z" transform="translate(4.727 5.474)" fill="#6c301e"/>
      <g id="Group_555" data-name="Group 555" transform="translate(818.198 240.763)">
        <g id="Group_549" data-name="Group 549" transform="translate(0 43.077)">
          <path id="Path_686" data-name="Path 686" d="M878.3,273.864a34.623,34.623,0,0,0-5.822-.783c-8.89-.626-17.831-.749-26.739-.549-6.775.148-13.6-.868-15.9,6.57-4.958,16.038.287,33.431,1.556,48.784,1.148,13.887-4.3,27.51-9.261,40.178-.844,2.155-9.484,26.769-7.591,27.717,23.411,11.72,70.818,7.041,87.021,2.459.345-12.03-4.583-23.356-10.086-33.782-4.007-7.59-9.481-14.444-12.468-22.556-3.423-9.3-.818-17.376,1.758-26.513,2.84-10.075,5.851-20.582,5.089-31.162C885.368,277.472,882.645,274.95,878.3,273.864Z" transform="translate(-814.27 -272.444)" fill="#2ba3dc"/>
          <path id="Path_687" data-name="Path 687" d="M857.066,348.3c6.587-1.55,11.139-4.36,15.691-7.17-.349,25.395-18.472,45.991-41.171,56.784,24.375,4.066,55.81.451,68.4-3.111.345-12.03-4.583-23.356-10.086-33.782-4.007-7.59-9.482-14.444-12.468-22.556-3.423-9.3-.818-17.376,1.758-26.513.16-.569.321-1.147.482-1.719C873.3,323.2,869.522,337.922,857.066,348.3Z" transform="translate(-812.697 -269.011)" fill="#0089c3"/>
          <path id="Path_688" data-name="Path 688" d="M866.216,276.2c-1.264,6.045-4.709,11.049-9.354,13.085-4.721,2.07-9.8.3-13.266-4.122a18.106,18.106,0,0,1-2.366-4.029,39.768,39.768,0,0,1-1.436-5.027c-.11-.391-.549-.272-.55.14A13.86,13.86,0,0,0,840.3,280.9a19.294,19.294,0,0,0,2.107,4.12,15.455,15.455,0,0,0,6.378,5.543c4.9,2.185,10.29.226,14.017-4.418a19.478,19.478,0,0,0,4.1-9.773C866.961,275.8,866.333,275.642,866.216,276.2Z" transform="translate(-812.002 -272.134)" fill="#70bfa8"/>
        </g>
        <g id="Group_554" data-name="Group 554" transform="translate(26.721)">
          <g id="Group_550" data-name="Group 550" transform="translate(1.713 24.486)">
            <path id="Path_689" data-name="Path 689" d="M864.434,275.33c-.845,21.215-21.735,19.076-24.1,1.153,2.55-.417,6.617-1.18,6.617-1.18l.6-10.154c.194-3.244.389-6.5.585-9.748l10.314,1.514c-.068.574-.135,1.164-.186,1.755a88.46,88.46,0,0,0-.478,11.95c.031,1.287.095,2.592.191,3.966C860.387,274.824,862,275.074,864.434,275.33Z" transform="translate(-840.336 -255.401)" fill="#f08035"/>
            <path id="Path_690" data-name="Path 690" d="M857.66,258.67a88.5,88.5,0,0,0-.478,11.95,15.975,15.975,0,0,1-10.234-5.472c.194-3.244.389-6.5.585-9.748l10.314,1.514C857.779,257.489,857.711,258.079,857.66,258.67Z" transform="translate(-839.735 -255.401)" fill="#d15500"/>
          </g>
          <g id="Group_553" data-name="Group 553">
            <g id="Group_551" data-name="Group 551" transform="translate(0 11.943)">
              <path id="Path_691" data-name="Path 691" d="M863.193,246.559a1.988,1.988,0,0,1,2.844-.395,3.022,3.022,0,0,1,.93,2.947,4.083,4.083,0,0,1-5.715,2.928Z" transform="translate(-836.723 -243.735)" fill="#d15500"/>
              <path id="Path_692" data-name="Path 692" d="M842.894,244.979a1.989,1.989,0,0,0-2.748-.832,3.025,3.025,0,0,0-1.378,2.767,4.082,4.082,0,0,0,5.19,3.78Z" transform="translate(-838.766 -243.903)" fill="#d15500"/>
            </g>
            <path id="Path_693" data-name="Path 693" d="M863.566,257.885c-2.285,3.965-11.093,7.689-13.121,7.684-1.472,0-7.3-4.916-8.8-9.728-1.153-3.709-.125-12.876.98-18.483a5.116,5.116,0,0,1,4.344-4.091,37.1,37.1,0,0,1,16.857,1.7,3.813,3.813,0,0,1,2.531,3.383C866.679,244.134,865.481,254.564,863.566,257.885Z" transform="translate(-838.55 -232.954)" fill="#f08035"/>
            <path id="Path_694" data-name="Path 694" d="M846.468,243.368a.874.874,0,0,0-.118-.4,1.731,1.731,0,0,0-.168-.209.614.614,0,0,0-.74-.083,1,1,0,0,0-.412.52,2.132,2.132,0,0,0-.068.295c-.044.235-.059.476-.082.712a7.738,7.738,0,0,0-.05,1.167.68.68,0,0,0,1.337.158,7.832,7.832,0,0,0,.216-1.146c.031-.236.072-.473.083-.712A2.333,2.333,0,0,0,846.468,243.368Z" transform="translate(-838.216 -232.079)" fill="#212121"/>
            <path id="Path_695" data-name="Path 695" d="M858.255,244.29a.877.877,0,0,0-.118-.4,1.641,1.641,0,0,0-.169-.209.612.612,0,0,0-.739-.084,1,1,0,0,0-.412.521,2.134,2.134,0,0,0-.068.295c-.044.235-.059.476-.083.712a7.884,7.884,0,0,0-.049,1.167.68.68,0,0,0,1.337.158,7.816,7.816,0,0,0,.216-1.146c.031-.237.072-.473.083-.712A2.311,2.311,0,0,0,858.255,244.29Z" transform="translate(-837.145 -231.995)" fill="#212121"/>
            <path id="Path_696" data-name="Path 696" d="M860.929,240.53a2.594,2.594,0,0,0-1.519-1.158,4.172,4.172,0,0,0-4.984,1.532c-.177.257.248.573.445.326a3.821,3.821,0,0,1,2.648-1.462,3.636,3.636,0,0,1,1.588.238,3.847,3.847,0,0,1,.714.375,4.441,4.441,0,0,0,.694.476C860.712,240.937,861.032,240.785,860.929,240.53Z" transform="translate(-837.347 -232.398)" fill="#6c301e"/>
            <path id="Path_697" data-name="Path 697" d="M849.4,240.263a2.6,2.6,0,0,0-1.519-1.157,4.173,4.173,0,0,0-4.985,1.532c-.177.257.248.573.445.326a3.824,3.824,0,0,1,2.649-1.462,3.619,3.619,0,0,1,1.588.238,3.834,3.834,0,0,1,.714.375,4.527,4.527,0,0,0,.694.476C849.187,240.67,849.507,240.518,849.4,240.263Z" transform="translate(-838.394 -232.422)" fill="#6c301e"/>
            <g id="Group_552" data-name="Group 552" transform="translate(9.423 22.099)">
              <path id="Path_698" data-name="Path 698" d="M856.937,253.25a6.824,6.824,0,0,0-.99.819,8.633,8.633,0,0,1-1.07.733,7.639,7.639,0,0,1-2.535.9,8.63,8.63,0,0,1-4.666-.543.192.192,0,0,0-.167.346,7.8,7.8,0,0,0,5.029.858,8.524,8.524,0,0,0,2.594-.894,7.739,7.739,0,0,0,1.282-.852,3.012,3.012,0,0,0,.928-1.019A.281.281,0,0,0,856.937,253.25Z" transform="translate(-847.404 -253.213)" fill="#d15500"/>
            </g>
          </g>
        </g>
        <path id="Path_699" data-name="Path 699" d="M848.9,253a3.357,3.357,0,0,1-.5-.311,3.63,3.63,0,0,1-.548-.526,5.265,5.265,0,0,0,2.884-4.548.317.317,0,0,0-.625-.044,5.324,5.324,0,0,1-3.021,4.06.415.415,0,0,0-.213.616,4.439,4.439,0,0,0,1.042,1.067c.336.24.9.673,1.335.513a.314.314,0,0,0,.16-.466A1.042,1.042,0,0,0,848.9,253Z" transform="translate(-811.315 -231.649)" fill="#d15500"/>
      </g>
      <g id="Group_560" data-name="Group 560" transform="translate(771.034 146.99)">
        <path id="Path_700" data-name="Path 700" d="M781.852,167.843c.961.936,7.838,1.6,7.738.722,3.713-1.706,4.119-1.674,7.877-3.357a2.91,2.91,0,0,0,1.645-2.11,47.854,47.854,0,0,0,.227-8.476c-.248-.985-.349-1.83-1.342-2.049a1.813,1.813,0,0,0-2.053,1.157,2.222,2.222,0,0,0-1.7-1.814,1.592,1.592,0,0,0-1.69,1.713c.086-.786-.969-1.65-1.754-1.561a1.4,1.4,0,0,0-1.148,1.187,1.443,1.443,0,0,0-1.121-.961,1.808,1.808,0,0,0-1.716,1.029,34.459,34.459,0,0,0-1,6.16c-2.154-.264-3.364-.341-4.033,1.724S780.3,166.328,781.852,167.843Z" transform="translate(-770.133 -146.544)" fill="#f08035"/>
        <g id="Group_559" data-name="Group 559">
          <rect id="Rectangle_17399" data-name="Rectangle 17399" width="4.976" height="32.477" transform="translate(38.335 9.151) rotate(92.644)" fill="#ee6c4d"/>
          <rect id="Rectangle_17400" data-name="Rectangle 17400" width="3.13" height="32.477" transform="translate(38.293 10.073) rotate(92.644)" fill="#c23514"/>
          <rect id="Rectangle_17401" data-name="Rectangle 17401" width="3.13" height="16.737" transform="translate(29.691 9.676) rotate(92.649)" fill="#ee4118"/>
          <g id="Group_556" data-name="Group 556">
            <path id="Path_701" data-name="Path 701" d="M804.458,168.559h0a5.567,5.567,0,0,0,5.817-5.3l.422-9.142a5.568,5.568,0,0,0-5.3-5.819h0a5.567,5.567,0,0,0-5.817,5.3l-.422,9.142A5.567,5.567,0,0,0,804.458,168.559Z" transform="translate(-768.481 -146.873)" fill="#ee6c4d"/>
            <path id="Path_702" data-name="Path 702" d="M776.344,167.26h0a5.565,5.565,0,0,0,5.817-5.3l.423-9.142a5.567,5.567,0,0,0-5.3-5.817h0a5.567,5.567,0,0,0-5.818,5.3l-.422,9.142A5.566,5.566,0,0,0,776.344,167.26Z" transform="translate(-771.034 -146.99)" fill="#ee6c4d"/>
          </g>
          <g id="Group_557" data-name="Group 557" transform="translate(0.076 1.657)">
            <path id="Path_703" data-name="Path 703" d="M804.528,166.764h0a5.567,5.567,0,0,0,5.818-5.3l.269-5.828a5.567,5.567,0,0,0-5.3-5.819h0a5.566,5.566,0,0,0-5.818,5.3l-.269,5.828A5.567,5.567,0,0,0,804.528,166.764Z" transform="translate(-768.55 -148.392)" fill="#ee4118"/>
            <path id="Path_704" data-name="Path 704" d="M776.414,165.466h0a5.566,5.566,0,0,0,5.817-5.3l.27-5.828a5.566,5.566,0,0,0-5.3-5.817h0a5.567,5.567,0,0,0-5.817,5.3l-.27,5.829A5.567,5.567,0,0,0,776.414,165.466Z" transform="translate(-771.104 -148.509)" fill="#ee4118"/>
          </g>
          <g id="Group_558" data-name="Group 558" transform="translate(0.212 4.791)">
            <path id="Path_705" data-name="Path 705" d="M804.432,163.347l.461.022a5.337,5.337,0,0,0,5.576-5.084h0a5.336,5.336,0,0,0-5.084-5.575l-.461-.022a5.336,5.336,0,0,0-5.576,5.083h0A5.336,5.336,0,0,0,804.432,163.347Z" transform="translate(-768.675 -151.265)" fill="#ee4118"/>
            <path id="Path_706" data-name="Path 706" d="M776.318,162.048l.461.022a5.335,5.335,0,0,0,5.576-5.083h0a5.336,5.336,0,0,0-5.083-5.576l-.463-.022a5.335,5.335,0,0,0-5.575,5.084h0A5.334,5.334,0,0,0,776.318,162.048Z" transform="translate(-771.229 -151.383)" fill="#ee4118"/>
          </g>
        </g>
        <path id="Path_707" data-name="Path 707" d="M788.625,154.063a1.233,1.233,0,0,0,.368-1.566,1.172,1.172,0,0,0-.572-.554,1.407,1.407,0,0,0-.925-.036,2.732,2.732,0,0,0-.573.28c-.108.058-.216.117-.322.179-.212.125-.418.26-.616.4a10.087,10.087,0,0,0-1.311,1.146,7.5,7.5,0,0,0-1.033,1.372,3.765,3.765,0,0,0-.3.634,4.389,4.389,0,0,0-.177.55,1.635,1.635,0,0,0-.005.56.909.909,0,0,0,1.417.654,3.162,3.162,0,0,0,.687-.677c.16-.2.321-.395.479-.593a11.274,11.274,0,0,1,.955-1.049,8.286,8.286,0,0,1,1.511-1.071A2.3,2.3,0,0,0,788.625,154.063Z" transform="translate(-769.935 -146.549)" fill="#f08035"/>
        <path id="Path_708" data-name="Path 708" d="M791.7,154.063a1.235,1.235,0,0,0,.369-1.566,1.178,1.178,0,0,0-.573-.554,1.407,1.407,0,0,0-.925-.036,2.755,2.755,0,0,0-.573.28c-.108.058-.216.117-.322.179q-.318.188-.616.4a10.16,10.16,0,0,0-1.311,1.146,7.5,7.5,0,0,0-1.033,1.372,3.764,3.764,0,0,0-.3.634,4.389,4.389,0,0,0-.177.55,1.635,1.635,0,0,0-.005.56.909.909,0,0,0,1.417.654,3.162,3.162,0,0,0,.687-.677c.16-.2.321-.395.479-.593a11.273,11.273,0,0,1,.954-1.049,8.329,8.329,0,0,1,1.511-1.071A2.306,2.306,0,0,0,791.7,154.063Z" transform="translate(-769.656 -146.549)" fill="#f08035"/>
        <path id="Path_709" data-name="Path 709" d="M794.445,154.063a1.233,1.233,0,0,0,.368-1.566,1.181,1.181,0,0,0-.572-.554,1.408,1.408,0,0,0-.925-.036,2.745,2.745,0,0,0-.574.28c-.108.058-.215.117-.321.179q-.317.188-.617.4a10.151,10.151,0,0,0-1.31,1.146,7.555,7.555,0,0,0-1.034,1.372,3.873,3.873,0,0,0-.3.634,4.621,4.621,0,0,0-.177.55,1.657,1.657,0,0,0-.005.56.909.909,0,0,0,1.417.654,3.188,3.188,0,0,0,.688-.677c.159-.2.32-.395.479-.593a11.4,11.4,0,0,1,.953-1.049,8.3,8.3,0,0,1,1.512-1.071A2.371,2.371,0,0,0,794.445,154.063Z" transform="translate(-769.406 -146.549)" fill="#f08035"/>
        <path id="Path_710" data-name="Path 710" d="M797.192,154.3a1.231,1.231,0,0,0,.368-1.565,1.171,1.171,0,0,0-.572-.554,1.407,1.407,0,0,0-.925-.036,2.732,2.732,0,0,0-.573.28c-.109.058-.216.117-.322.179-.212.124-.418.26-.616.4a10.16,10.16,0,0,0-1.311,1.145,7.607,7.607,0,0,0-1.034,1.373,3.759,3.759,0,0,0-.3.634,4.43,4.43,0,0,0-.177.55,1.611,1.611,0,0,0-.005.56.909.909,0,0,0,1.417.654,3.14,3.14,0,0,0,.687-.678c.159-.2.32-.394.479-.593a11.419,11.419,0,0,1,.953-1.048,8.246,8.246,0,0,1,1.512-1.071A2.277,2.277,0,0,0,797.192,154.3Z" transform="translate(-769.156 -146.528)" fill="#f08035"/>
        <path id="Path_711" data-name="Path 711" d="M798.339,159.139a6.042,6.042,0,0,0-3.513-2.458,6.849,6.849,0,0,0-2.323-.177,7.514,7.514,0,0,0-2.43.473.585.585,0,0,0-.042,1.071,13,13,0,0,0,2.123.448c.356.068.712.139,1.063.229a3.558,3.558,0,0,1,.363.108c.139.051.28.1.423.135l.045.013c.051.019.243.082.271.093.135.05.268.106.4.166s.26.124.386.192c.061.032.122.065.181.1l.008.005a6.9,6.9,0,0,1,.661.532l.016.016q.057.065.111.134a4.038,4.038,0,0,1,.244.348,1.243,1.243,0,0,0,1.723.292A1.263,1.263,0,0,0,798.339,159.139Z" transform="translate(-769.339 -146.128)" fill="#f08035"/>
      </g>
    </g>
    <g id="Group_4" data-name="Group 4" transform="translate(871.642 -970.436)">
      <path id="Path_712" data-name="Path 712" d="M1016.814,248.612a46.906,46.906,0,0,1-6.5-10.041c-1.569-3.677-2.154-7.942-.725-11.676,1.281-3.348,4.03-5.933,7.006-7.932,2.373-1.6,5.122-2.935,7.971-2.684s5.657,2.625,5.475,5.479c.543-1.717,2.778-2.581,4.565-2.36a5.918,5.918,0,0,1,4.224,3.051,11.611,11.611,0,0,1,1.314,5.189,29.775,29.775,0,0,1-3.8,15.274,17.148,17.148,0,0,1-4.449,5.76C1027.812,251.81,1019.969,252.681,1016.814,248.612Z" fill="#ee6a42"/>
      <path id="Path_713" data-name="Path 713" d="M1017.4,248.82a43.356,43.356,0,0,1-6-9.276c-1.449-3.4-1.99-7.337-.67-10.787,1.183-3.093,3.724-5.481,6.473-7.328,2.193-1.474,4.732-2.711,7.364-2.48s5.226,2.425,5.059,5.062c.5-1.586,2.566-2.385,4.217-2.181a5.471,5.471,0,0,1,3.9,2.819,10.736,10.736,0,0,1,1.214,4.794,27.509,27.509,0,0,1-3.514,14.112,15.856,15.856,0,0,1-4.111,5.321C1027.559,251.776,1020.312,252.58,1017.4,248.82Z" fill="#b54e32"/>
      <path id="Path_714" data-name="Path 714" d="M1035.546,265.483c2.066-4.04,6.931-4.464,11.224-3,4.849,1.656,6.877,4.682,8.4,9.987,6.228,5.451,10.9,9.639,17.128,15.089a19.548,19.548,0,0,1,4.707,5.254c1.107,2.09,2.279,4.842.932,6.785-1.074,1.548-1.631,3.574-3.508,3.729a19.8,19.8,0,0,1-7.847-1.973c-10.414-5.948-21.806-14.6-31.521-20.081Z" fill="#ff9c7d"/>
      <g id="Group_566" data-name="Group 566">
        <g id="Group_563" data-name="Group 563">
          <g id="Group_562" data-name="Group 562">
            <path id="Path_715" data-name="Path 715" d="M1106.156,545.723c-.195-3.421-.545-6.85-.51-10.035l16.572-4.635a91.112,91.112,0,0,0-1.534,13.335A38.191,38.191,0,0,1,1106.156,545.723Z" fill="#ff7043"/>
            <path id="Path_716" data-name="Path 716" d="M1106.156,545.723a38.191,38.191,0,0,0,14.528-1.335c-.21,3.769-.289,7.531-.247,10.584a3.269,3.269,0,0,0,.257,1.208c-4.339,4.56-10.178,4.4-15.785,2.377C1106.4,554.667,1106.411,550.2,1106.156,545.723Z" fill="#ffab91"/>
            <path id="Path_717" data-name="Path 717" d="M1104.909,558.557c5.607,2.026,11.446,2.183,15.785-2.377a3.285,3.285,0,0,0,1.947,1.853c9.538,3.354,26.212,5.2,26.212,11.917h-45.761a16.8,16.8,0,0,1,1.469-10.521C1104.69,559.144,1104.8,558.849,1104.909,558.557Z" fill="#3b5249"/>
          </g>
          <rect id="Rectangle_17402" data-name="Rectangle 17402" width="46.579" height="2.487" rx="0.783" transform="translate(1149.358 572.436) rotate(180)" fill="#fafafa"/>
        </g>
        <g id="Group_565" data-name="Group 565">
          <g id="Group_564" data-name="Group 564">
            <path id="Path_718" data-name="Path 718" d="M894.13,528.868l15.22,9.437c-1.724,2.1-4.528,4.8-7.5,7.725a44.215,44.215,0,0,1-15.368-4.966C889.929,535.833,893.045,530.952,894.13,528.868Z" fill="#ff7043"/>
            <path id="Path_719" data-name="Path 719" d="M901.851,546.03c-5.081,5-10.653,10.649-12.168,15.029-5.6-2.056-14.939,4.084-15.326-2.2.223-.116,6.6-9.408,12.126-17.8A44.215,44.215,0,0,0,901.851,546.03Z" fill="#ffab91"/>
            <path id="Path_720" data-name="Path 720" d="M891.024,558.557c-5.607,2.026-11.446,2.183-15.785-2.377a3.285,3.285,0,0,1-1.947,1.853c-9.538,3.354-26.212,5.2-26.212,11.917h45.761a16.8,16.8,0,0,0-1.469-10.521C891.243,559.144,891.136,558.849,891.024,558.557Z" fill="#3b5249"/>
          </g>
          <rect id="Rectangle_17403" data-name="Rectangle 17403" width="46.579" height="2.487" rx="0.783" transform="translate(846.576 569.95)" fill="#fafafa"/>
        </g>
        <path id="Path_721" data-name="Path 721" d="M1048.143,364.664q-1.119,6.573-2.237,13.146c25.4,19.538,52.418,39.479,77.988,59.058a11.585,11.585,0,0,1,4.51,8.475c1.332,20.992,1.466,43.509.785,64.264-.2,6.025-.528,16.044-3.159,21.467s-8.165,9.893-14.173,9.409c-5.062-.407-9.343-4.219-11.715-8.709s-3.172-13.421-3.937-18.441q-3.979-26.119-7.961-52.24c-25.579-15.014-48.268-30.946-73.005-47.31-.914,1.318-18.7,21.679-19.618,22.993-9.189,13.093-3.58,5.852-13.207,18.744-13.123,17.572-26.331,35.106-38.744,53.005-8.442,12.172-18.708,26.664-32.9,30.906-6.483,1.938-15.005.946-17.845-5.2-2.5-5.4.717-11.589,3.837-16.655C928.094,466.7,960.189,414.3,991.522,363.428Z" fill="#3b5249"/>
        <path id="Path_722" data-name="Path 722" d="M1042.2,386.972c-21.354,8.1-46.156,14.129-67.948,4.527q8.661-14.088,17.271-28.071l56.621,1.236q-1.119,6.573-2.237,13.146,4.777,3.674,9.623,7.365c-5.661,1.57-10.869,4.046-16.475,5.728C1040.627,390.116,1040.627,387.758,1042.2,386.972Z" fill="#30423b"/>
        <path id="Path_723" data-name="Path 723" d="M982.464,454.091c1.272-2.2,2.849-4.261,4.325-6.327s3-4.138,4.528-6.181q4.542-6.06,9.339-11.923c3.218-3.932,6.48-7.812,9.876-11.592s6.875-7.448,10.44-11.049q6.015-6.077,12.349-11.819c.325-.3.748.228.431.528q-11.008,10.433-21.171,21.731c-6.757,7.514-13.3,15.2-19.453,23.224q-2.6,3.395-5.123,6.851-1.262,1.727-2.511,3.463c-.829,1.159-1.616,2.354-2.514,3.46A.317.317,0,0,1,982.464,454.091Z" fill="#30423b"/>
        <path id="Path_724" data-name="Path 724" d="M1064.113,445.666a8.888,8.888,0,0,1,1.815,1.225q.946.716,1.909,1.408,1.855,1.335,3.768,2.592,3.859,2.533,7.931,4.725A110.632,110.632,0,0,0,1096.585,463c3.283,1.109,6.626,2.087,9.995,2.9.335.081.209.667-.132.6a98.356,98.356,0,0,1-17.775-5.519,105.3,105.3,0,0,1-16.425-8.645q-2.207-1.422-4.341-2.954-1.066-.767-2.113-1.559a9.262,9.262,0,0,1-1.99-1.711C1063.653,445.894,1063.847,445.554,1064.113,445.666Z" fill="#30423b"/>
        <path id="Path_725" data-name="Path 725" d="M931.481,480.959c2.323-.716,4.75-1.075,7.108-1.666,2.413-.605,4.793-1.322,7.144-2.132a88.377,88.377,0,0,0,13.431-5.959,80.648,80.648,0,0,0,7.175-4.418c.322-.222.714.246.388.476a84.655,84.655,0,0,1-26.987,12.661,35.791,35.791,0,0,1-8.173,1.547A.268.268,0,0,1,931.481,480.959Z" fill="#30423b"/>
        <path id="Path_726" data-name="Path 726" d="M936.149,483.017a15.513,15.513,0,0,1,2.849-.889q1.543-.418,3.091-.822,3.045-.8,6.092-1.588c.374-.1.464.485.1.587q-2.989.839-5.981,1.669c-1,.276-1.993.553-2.993.821a16.116,16.116,0,0,1-3.014.694A.25.25,0,0,1,936.149,483.017Z" fill="#30423b"/>
      </g>
      <g id="Group_567" data-name="Group 567">
        <path id="Path_727" data-name="Path 727" d="M1018.729,250.3l-.947,17.843s-5.961-1.789-8.789-1.446c.8,24.637,31.826,44.189,29.478,3.3-2.686-.258-5.492-.659-8.178-.917a77.23,77.23,0,0,1-.111-17.253Z" fill="#ffab91"/>
        <path id="Path_728" data-name="Path 728" d="M1030.182,251.83l-11.453-1.532q-.233,4.375-.464,8.751a20.047,20.047,0,0,0,11.626,5.092A69.841,69.841,0,0,1,1030.182,251.83Z" fill="#ff7043"/>
      </g>
      <g id="Group_569" data-name="Group 569">
        <g id="Group_568" data-name="Group 568">
          <path id="Path_729" data-name="Path 729" d="M1015.339,241.679a1.783,1.783,0,0,0-2.549-.356,2.711,2.711,0,0,0-.836,2.64,3.659,3.659,0,0,0,5.119,2.628Z" fill="#ff7043"/>
          <path id="Path_730" data-name="Path 730" d="M1035.358,240.132a1.782,1.782,0,0,1,2.463-.744,2.71,2.71,0,0,1,1.233,2.481,3.66,3.66,0,0,1-4.654,3.383Z" fill="#ff7043"/>
        </g>
        <path id="Path_731" data-name="Path 731" d="M1016.9,252.266c2.044,3.555,5.8,6.428,9.9,6.206,4.508-.244,8.131-4.178,9.476-8.488,1.036-3.323.122-12.547-.863-17.572a4.586,4.586,0,0,0-3.889-3.669,33.253,33.253,0,0,0-15.106,1.505,3.416,3.416,0,0,0-2.27,3.029C1013.855,238.464,1015.183,249.289,1016.9,252.266Z" fill="#ffab91"/>
        <path id="Path_732" data-name="Path 732" d="M1031.665,238.578a.785.785,0,0,1,.1-.358,1.707,1.707,0,0,1,.151-.187.549.549,0,0,1,.662-.074.9.9,0,0,1,.37.467,2.02,2.02,0,0,1,.06.264c.039.21.053.426.073.639a7.028,7.028,0,0,1,.044,1.045.609.609,0,0,1-1.2.141,7.165,7.165,0,0,1-.192-1.027c-.027-.212-.064-.425-.074-.639A2.028,2.028,0,0,1,1031.665,238.578Z" fill="#212121"/>
        <path id="Path_733" data-name="Path 733" d="M1020.143,239.469a.779.779,0,0,1,.1-.358,1.627,1.627,0,0,1,.152-.188.551.551,0,0,1,.662-.074.894.894,0,0,1,.369.468,1.812,1.812,0,0,1,.06.264c.039.21.053.425.074.638a7.022,7.022,0,0,1,.043,1.045.609.609,0,0,1-1.2.142,7.032,7.032,0,0,1-.193-1.028c-.027-.212-.064-.425-.073-.638A2.049,2.049,0,0,1,1020.143,239.469Z" fill="#212121"/>
      </g>
      <path id="Path_734" data-name="Path 734" d="M1046.545,272.891a363.243,363.243,0,0,1,5.274,108.008,238.605,238.605,0,0,1-75.827,1.534c12.618-31.771,14.384-72.909,15.163-109.936C1008.567,267.645,1028.971,268.661,1046.545,272.891Z" fill="#2ba3dc"/>
      <path id="Path_735" data-name="Path 735" d="M994.328,327.371c7.382,11.6,20.037,18.983,32.692,23.2-14.608-23.738-25.253-52.218-22.377-80.65a86.266,86.266,0,0,0-13.488,2.575c-.779,37.027-2.545,78.165-15.163,109.936a238.605,238.605,0,0,0,75.827-1.534c.069-.68.123-1.365.188-2.046C1024.775,371.619,1001.326,355.948,994.328,327.371Z" fill="#0089c3"/>
      <g id="Group_570" data-name="Group 570">
        <path id="Path_736" data-name="Path 736" d="M1117.008,266.047c2.581-2.483,7.623-3.532,11.1-3.561a19.414,19.414,0,0,1,11.16,3.381c.879.616,2.14,1.787,1.354,2.5-1.178,1.062-2.779-.631-5.783-1.442-1.128-.3-2.471-.8-3.212.011.067.02.13.046.194.069-.04.022-.074.048-.114.07a24.607,24.607,0,0,1,6.143,2.994c1.188.809,2.888,2.353,1.815,3.3-1.608,1.415-3.69-1.411-7.759-2.463-.466-.121-1.3-.351-2.178-.561a24.013,24.013,0,0,1,4.479,2.381c1.187.809,2.887,2.353,1.815,3.3-1.294,1.138-2.9-.466-5.589-1.685.2.126.4.248.6.38,1.188.81,2.888,2.353,1.815,3.3-1.608,1.416-3.69-1.41-7.759-2.463-.55-.142-1.614-.437-2.654-.671a5.406,5.406,0,0,1-5.092-.238C1114.313,272.663,1114.642,268.323,1117.008,266.047Z" fill="#ffab91"/>
        <path id="Path_737" data-name="Path 737" d="M1123.02,266.859c-14.9-.655-45.229-5.563-60.155-1.117,0,0-33.058-3.9-48.923-3.211-7.293-4.7-18.027-2.424-22.91,4.85-3.783,5.636-2.559,15.151-.233,21.564,7.06-.633,13.447.115,19.463-3.727,13.448-8.588,31.316-3.973,51.529-7,18.405,4.572,35.671-4.623,62.11-6.13Z" fill="#ffab91"/>
        <path id="Path_738" data-name="Path 738" d="M1079.595,279.057l-3.437-15.091a59.741,59.741,0,0,0-11.8,1.377l-.306,13.34A51.78,51.78,0,0,0,1079.595,279.057Z" fill="#ff9c7d"/>
      </g>
      <g id="Group_571" data-name="Group 571">
        <path id="Path_739" data-name="Path 739" d="M1071.52,256.5c2.886-2.2,4.775-7.125,5.392-10.632a20.264,20.264,0,0,0-1.443-11.845c-.458-.991-1.4-2.459-2.231-1.782-1.248,1.016.151,2.915.441,6.086.109,1.192.372,2.632-.555,3.247-.008-.071-.024-.138-.036-.207-.028.036-.059.067-.087.1a25.507,25.507,0,0,0-1.912-6.707c-.6-1.335-1.831-3.309-2.944-2.381-1.669,1.393.766,3.966,1.114,8.255.04.491.126,1.373.184,2.294a24.861,24.861,0,0,0-1.589-4.922c-.6-1.335-1.831-3.309-2.944-2.381-1.342,1.12-.032,3,.715,5.93-.091-.222-.177-.446-.275-.664-.6-1.335-1.831-3.31-2.944-2.381-1.669,1.392.766,3.966,1.114,8.254.047.58.158,1.7.212,2.795a5.67,5.67,0,0,0-.628,5.189C1064.538,258.13,1068.873,258.515,1071.52,256.5Z" fill="#ffab91"/>
        <path id="Path_740" data-name="Path 740" d="M1065.31,253.675l-.327,32.122a38.108,38.108,0,0,0,.665,9.277c.724,3.007,2.305,5.9,4.773,7.366a5.9,5.9,0,0,0,7.683-1.227c1.926-2.542,3.122-8.191,2.606-11.464-2.1-13.35-5.806-24.808-7.907-38.158C1070.767,252.087,1067.345,253.179,1065.31,253.675Z" fill="#ffab91"/>
      </g>
      <path id="Path_741" data-name="Path 741" d="M1031.685,249.62a9.041,9.041,0,0,1-4.582,2.117,8.582,8.582,0,0,1-5.061-1.235c-.179-.1-.331.171-.185.3a7.042,7.042,0,0,0,5.3,1.6,6.9,6.9,0,0,0,4.83-2.448C1032.138,249.75,1031.9,249.459,1031.685,249.62Z" fill="#ff7043"/>
      <path id="Path_742" data-name="Path 742" d="M1032.4,244.913a11.564,11.564,0,0,1-3.311-2.119,4.669,4.669,0,0,1-1.042-1.627,7.663,7.663,0,0,1-.282-1.8.187.187,0,0,0-.354-.06c-.59,1.194.253,2.773,1.045,3.667a11.031,11.031,0,0,0,3.284,2.3,6.254,6.254,0,0,1-2.781,1.573.276.276,0,0,0-.164.352c.247.556.505,1.107.763,1.658.11.236.48.112.387-.141q-.262-.718-.533-1.434a6.173,6.173,0,0,0,3.1-1.885A.317.317,0,0,0,1032.4,244.913Z" fill="#ff7043"/>
      <path id="Path_743" data-name="Path 743" d="M1022.8,233.648a3.377,3.377,0,0,0-1.5-.45,5.68,5.68,0,0,0-2.776.416c-.5.231-1.114.546-1.239,1.134a.655.655,0,0,0,.529.746,2.6,2.6,0,0,0,1.245-.3c.161-.051.321-.1.485-.14.031-.005.129-.025.167-.031.1-.016.2-.029.308-.038.181-.017.362-.018.544-.02l.121.01c.092.007.183.016.274.028a4.711,4.711,0,0,1,.542.1l.106.029a2.056,2.056,0,0,0,.456.135.941.941,0,0,0,.991-.527A.926.926,0,0,0,1022.8,233.648Z" fill="#b54e32"/>
      <g id="Group_572" data-name="Group 572">
        <path id="Path_744" data-name="Path 744" d="M1033.141,234.976c-.041,0-.08-.007-.12-.009s-.073,0-.11,0Z" fill="#6c301e"/>
        <path id="Path_745" data-name="Path 745" d="M1033.877,233.562a3.18,3.18,0,0,0-.444-.3,1.936,1.936,0,0,0-.535-.168,4.156,4.156,0,0,0-.939-.04,3.8,3.8,0,0,0-.921.175,1.958,1.958,0,0,0-.949.549.828.828,0,0,0-.085.9.849.849,0,0,0,.8.445,2.447,2.447,0,0,0,.649-.145,4.293,4.293,0,0,1,.839-.076c.09.008.18.015.27.028.154.022.306.028.46.035a1.458,1.458,0,0,0,.229,0c.058-.007.236.005-.009-.008a.889.889,0,0,0,.5-.086.754.754,0,0,0,.358-.37A.807.807,0,0,0,1033.877,233.562Z" fill="#b54e32"/>
      </g>
    </g>
  </g>
</svg>
