<svg width="5437" height="2214" viewBox="0 0 5437 2214" fill="none" xmlns="http://www.w3.org/2000/svg">
<path d="M5436 3.6598L4.78271 1L1.24765 2211.52L5432.47 2214.17L5436 3.6598Z" fill="#192838" stroke="#707070"/>
<path d="M5184.24 1213.55L5154.64 1213.54L5154.67 1192.77C5154.68 1189.04 5150.37 1186.02 5145.06 1186.02L5109.54 1186C5104.23 1185.99 5099.92 1189.01 5099.91 1192.74L5099.88 1213.51L5070.28 1213.49C5064.97 1213.49 5060.65 1216.51 5060.65 1220.24L5060.61 1245.16C5060.6 1248.89 5064.91 1251.91 5070.22 1251.91L5099.82 1251.93L5099.79 1272.7C5099.78 1276.42 5104.09 1279.45 5109.4 1279.45L5144.92 1279.47C5150.23 1279.47 5154.54 1276.45 5154.55 1272.72L5154.58 1251.96L5184.18 1251.97C5189.49 1251.97 5193.8 1248.95 5193.81 1245.23L5193.84 1220.3C5193.85 1216.58 5189.55 1213.55 5184.24 1213.55Z" fill="#FCFFFF"/>
<path d="M4846.2 1720.39L4789.92 1720.36L4789.98 1680.87C4789.99 1673.79 4781.82 1668.04 4771.71 1668.03L4704.18 1668C4694.09 1668 4685.89 1673.74 4685.88 1680.82L4685.82 1720.31L4629.54 1720.28C4619.44 1720.27 4611.24 1726.01 4611.23 1733.1L4611.16 1780.48C4611.15 1787.57 4619.32 1793.32 4629.43 1793.32L4685.71 1793.35L4685.65 1832.84C4685.64 1839.92 4693.81 1845.67 4703.91 1845.68L4771.44 1845.71C4781.54 1845.72 4789.74 1839.98 4789.75 1832.89L4789.81 1793.4L4846.09 1793.43C4856.19 1793.44 4864.38 1787.7 4864.39 1780.61L4864.47 1733.23C4864.48 1726.14 4856.3 1720.39 4846.2 1720.39Z" fill="#3F598C"/>
<!-- <path d="M5316.78 28.8293L5287.17 28.8143L5287.2 8.04588C5287.21 4.31908 5282.91 1.29548 5277.6 1.29278L5242.08 1.27478C5236.77 1.27208 5232.46 4.29128 5232.45 8.01808L5232.42 28.7865L5202.81 28.7715C5197.51 28.7688 5193.19 31.788 5193.18 35.515L5193.14 60.4369C5193.14 64.1638 5197.44 67.1874 5202.76 67.1901L5232.36 67.2051L5232.33 87.973C5232.32 91.7 5236.62 94.726 5241.93 94.728L5277.45 94.746C5282.77 94.749 5287.07 91.728 5287.08 88.001L5287.11 67.2329L5316.72 67.2479C5322.02 67.2506 5326.34 64.2314 5326.35 60.5044L5326.39 35.5825C5326.39 31.8555 5322.08 28.832 5316.78 28.8293Z" fill="#FCFFFF"/> -->
<path d="M3389.48 1602.55L3359.87 1602.54L3359.9 1581.77C3359.91 1578.04 3355.61 1575.02 3350.29 1575.02L3314.77 1575C3309.47 1575 3305.15 1578.02 3305.14 1581.74L3305.11 1602.51L3275.51 1602.5C3270.2 1602.49 3265.89 1605.51 3265.88 1609.24L3265.84 1634.16C3265.84 1637.89 3270.14 1640.91 3275.46 1640.92L3305.05 1640.93L3305.02 1661.7C3305.01 1665.43 3309.31 1668.45 3314.63 1668.45L3350.15 1668.47C3355.47 1668.47 3359.77 1665.45 3359.78 1661.73L3359.81 1640.96L3389.41 1640.97C3394.72 1640.98 3399.03 1637.96 3399.04 1634.23L3399.08 1609.31C3399.08 1605.58 3394.78 1602.56 3389.48 1602.55Z" fill="#FCFFFF"/>
<path d="M878.466 1397.81L848.865 1397.8L848.897 1377.03C848.904 1373.3 844.602 1370.28 839.289 1370.28L803.769 1370.26C798.457 1370.25 794.146 1373.27 794.14 1377L794.109 1397.77L764.508 1397.75C759.196 1397.75 754.883 1400.77 754.876 1404.5L754.838 1429.42C754.833 1433.15 759.137 1436.17 764.449 1436.17L794.049 1436.19L794.017 1456.96C794.011 1460.68 798.313 1463.71 803.624 1463.71L839.145 1463.73C844.457 1463.73 848.769 1460.71 848.774 1456.98L848.806 1436.22L878.406 1436.23C883.718 1436.23 888.029 1433.21 888.034 1429.49L888.073 1404.56C888.079 1400.84 883.777 1397.81 878.466 1397.81Z" fill="#FCFFFF"/>
<path d="M2808.17 2147.58L2778.57 2147.56L2778.6 2126.8C2778.61 2123.07 2774.31 2120.05 2769 2120.04L2733.48 2120.02C2728.17 2120.02 2723.86 2123.04 2723.85 2126.77L2723.82 2147.54L2694.21 2147.52C2688.91 2147.52 2684.59 2150.54 2684.58 2154.26L2684.54 2179.19C2684.54 2182.91 2688.85 2185.94 2694.15 2185.94L2723.76 2185.96L2723.73 2206.72C2723.72 2210.45 2728.02 2213.48 2733.33 2213.48L2768.85 2213.5C2774.16 2213.5 2778.47 2210.48 2778.48 2206.75L2778.51 2185.98L2808.12 2186C2813.42 2186 2817.74 2182.98 2817.75 2179.25L2817.78 2154.33C2817.79 2150.61 2813.48 2147.58 2808.17 2147.58Z" fill="#FCFFFF"/>
<!-- <path d="M4489.62 606.153L4433.34 606.125L4433.4 566.638C4433.41 559.552 4425.24 553.803 4415.13 553.798L4347.6 553.764C4337.51 553.759 4329.31 559.5 4329.3 566.585L4329.24 606.072L4272.96 606.043C4262.86 606.038 4254.66 611.777 4254.65 618.865L4254.58 666.245C4254.57 673.333 4262.74 679.082 4272.85 679.087L4329.13 679.116L4329.07 718.6C4329.06 725.686 4337.23 731.435 4347.33 731.44L4414.86 731.474C4424.96 731.48 4433.16 725.739 4433.17 718.653L4433.23 679.168L4489.51 679.197C4499.6 679.202 4507.8 673.461 4507.81 666.373L4507.89 618.993C4507.9 611.905 4499.72 606.158 4489.62 606.153Z" fill="#3F598C"/>
<path d="M1386.63 1999.55L1357.03 1999.54L1357.06 1978.77C1357.07 1975.04 1352.77 1972.02 1347.45 1972.02L1311.93 1972C1306.62 1972 1302.31 1975.02 1302.3 1978.74L1302.27 1999.51L1272.67 1999.5C1267.36 1999.49 1263.05 2002.51 1263.04 2006.24L1263 2031.16C1263 2034.89 1267.3 2037.91 1272.61 2037.92L1302.21 2037.93L1302.18 2058.7C1302.17 2062.43 1306.47 2065.45 1311.79 2065.45L1347.31 2065.47C1352.62 2065.47 1356.93 2062.45 1356.94 2058.73L1356.97 2037.96L1386.57 2037.97C1391.88 2037.98 1396.19 2034.96 1396.2 2031.23L1396.23 2006.31C1396.24 2002.58 1391.94 1999.56 1386.63 1999.55Z" fill="#FCFFFF"/>
<path d="M133.701 59.4672L117.312 59.4589L117.334 44.7921C117.338 42.1601 114.957 40.0252 112.016 40.0237L92.3475 40.0137C89.4062 40.0122 87.0189 42.1448 87.0149 44.7767L86.9926 59.4435L70.6022 59.4352C67.661 59.4337 65.2717 61.5663 65.2676 64.1983L65.2402 81.798C65.2362 84.43 67.6194 86.565 70.5606 86.567L86.95 86.575L86.9276 101.242C86.9236 103.874 89.3048 106.01 92.246 106.012L111.914 106.022C114.855 106.023 117.243 103.889 117.247 101.257L117.269 86.591L133.66 86.599C136.601 86.6 138.988 84.468 138.992 81.836L139.02 64.2357C139.024 61.6037 136.642 59.4687 133.701 59.4672Z" fill="#FFA000"/>
<path d="M575.835 227.589L544.674 227.573L544.717 199.688C544.725 194.683 540.198 190.624 534.606 190.621L497.213 190.602C491.62 190.599 487.08 194.654 487.072 199.658L487.03 227.544L455.867 227.528C450.276 227.525 445.736 231.579 445.728 236.584L445.676 270.045C445.669 275.05 450.196 279.11 455.788 279.113L486.949 279.128L486.907 307.013C486.899 312.017 491.427 316.076 497.019 316.079L534.412 316.098C540.004 316.101 544.543 312.046 544.551 307.042L544.595 279.158L575.756 279.173C581.347 279.176 585.889 275.121 585.896 270.116L585.948 236.656C585.956 231.65 581.427 227.592 575.835 227.589Z" fill="#3F598C"/> -->
<!-- <path d="M1685.51 1144.01L1654.35 1144L1654.39 1116.11C1654.4 1111.11 1649.87 1107.05 1644.28 1107.05L1606.89 1107.03C1601.3 1107.02 1596.75 1111.08 1596.74 1116.08L1596.7 1143.97L1565.55 1143.95C1559.95 1143.95 1555.41 1148 1555.4 1153.01L1555.35 1186.47C1555.34 1191.47 1559.88 1195.53 1565.47 1195.54L1596.62 1195.55L1596.58 1223.44C1596.57 1228.44 1601.1 1232.5 1606.7 1232.5L1644.08 1232.52C1649.67 1232.52 1654.22 1228.47 1654.23 1223.47L1654.27 1195.58L1685.43 1195.6C1691.02 1195.6 1695.56 1191.55 1695.57 1186.54L1695.62 1153.08C1695.63 1148.07 1691.1 1144.02 1685.51 1144.01Z" fill="#3F598C"/> -->
<path d="M2515.01 2032.87L2500.86 2032.86L2500.88 2022.69C2500.88 2020.87 2498.82 2019.38 2496.28 2019.38L2479.3 2019.37C2476.75 2019.37 2474.69 2020.85 2474.69 2022.68L2474.67 2032.85L2460.52 2032.84C2457.98 2032.84 2455.92 2034.32 2455.91 2036.14L2455.89 2048.35C2455.89 2050.17 2457.95 2051.65 2460.49 2051.65L2474.65 2051.66L2474.63 2061.83C2474.63 2063.66 2476.68 2065.14 2479.23 2065.14L2496.21 2065.15C2498.75 2065.15 2500.82 2063.67 2500.82 2061.85L2500.83 2051.68H2514.99C2517.53 2051.68 2519.58 2050.21 2519.58 2048.38L2519.61 2036.18C2519.61 2034.35 2517.56 2032.87 2515.01 2032.87Z" fill="#FFA000"/>
<!-- <path d="M3317.41 114.678L3290.5 114.664L3290.53 95.327C3290.53 91.857 3286.63 89.041 3281.8 89.039L3249.51 89.023C3244.68 89.02 3240.75 91.831 3240.75 95.302L3240.72 114.639L3213.8 114.625C3208.97 114.623 3205.06 117.433 3205.05 120.904L3205.02 144.107C3205.01 147.578 3208.92 150.393 3213.75 150.396L3240.66 150.409L3240.63 169.746C3240.63 173.216 3244.53 176.031 3249.36 176.034L3281.66 176.05C3286.49 176.052 3290.41 173.241 3290.41 169.771L3290.44 150.435L3317.36 150.448C3322.19 150.451 3326.11 147.639 3326.12 144.168L3326.15 120.965C3326.16 117.494 3322.24 114.68 3317.41 114.678Z" fill="#3F598C"/> -->
<path d="M227.346 2005.74H216.236V1999.37C216.236 1998.23 214.62 1997.31 212.626 1997.31H199.295C197.301 1997.31 195.685 1998.23 195.685 1999.37V2005.74H184.576C182.582 2005.74 180.965 2006.67 180.965 2007.81V2015.45C180.965 2016.59 182.582 2017.52 184.576 2017.52H195.685V2023.88C195.685 2025.03 197.301 2025.95 199.295 2025.95H212.626C214.62 2025.95 216.236 2025.03 216.236 2023.88V2017.52H227.346C229.339 2017.52 230.956 2016.59 230.956 2015.45V2007.81C230.956 2006.67 229.339 2005.74 227.346 2005.74Z" fill="#FFA000"/>
<!-- <path d="M1685.49 410.52H1652.8V379.18C1652.8 373.56 1648.04 369 1642.17 369H1602.94C1597.07 369 1592.32 373.56 1592.32 379.18V410.52H1559.62C1553.76 410.52 1549 415.08 1549 420.7V458.3C1549 463.92 1553.76 468.48 1559.62 468.48H1592.32V499.82C1592.32 505.44 1597.07 510 1602.94 510H1642.17C1648.04 510 1652.8 505.44 1652.8 499.82V468.48H1685.49C1691.35 468.48 1696.11 463.92 1696.11 458.3V420.7C1696.11 415.08 1691.35 410.52 1685.49 410.52Z" fill="#3F598C"/> -->
<path d="M5052.65 347.004H5025.66V323.604C5025.66 319.405 5021.73 316 5016.89 316H4984.52C4979.68 316 4975.75 319.405 4975.75 323.604V347.004H4948.77C4943.93 347.004 4940 350.409 4940 354.608V382.688C4940 386.887 4943.93 390.292 4948.77 390.292H4975.75V413.692C4975.75 417.891 4979.68 421.298 4984.52 421.298H5016.89C5021.73 421.298 5025.66 417.891 5025.66 413.692V390.292H5052.65C5057.49 390.292 5061.41 386.887 5061.41 382.688V354.608C5061.41 350.409 5057.49 347.004 5052.65 347.004Z" fill="#FFA000"/>
<path d="M3693.07 598.947H3641.77V554.457C3641.77 546.473 3634.31 540 3625.1 540H3563.54C3554.33 540 3546.88 546.473 3546.88 554.457V598.947H3495.57C3486.37 598.947 3478.9 605.418 3478.9 613.404V666.789C3478.9 674.775 3486.37 681.248 3495.57 681.248H3546.88V725.737C3546.88 733.72 3554.33 740.193 3563.54 740.193H3625.1C3634.31 740.193 3641.77 733.72 3641.77 725.737V681.248H3693.07C3702.28 681.248 3709.74 674.775 3709.74 666.789V613.404C3709.74 605.418 3702.28 598.947 3693.07 598.947Z" fill="#3F598C"/>
</svg>
