<svg width="1124" height="393" viewBox="0 0 1124 393" fill="none" xmlns="http://www.w3.org/2000/svg">
<g id="Component 1">
<g id="Group 1">
<rect id="Rectangle 1" x="0.410568" y="6.64994" width="1121" height="347.848" fill="#F7FC00"/>
</g>
<g id="wave (3) 2" clip-path="url(#clip0_3_32)">
<path id="Vector" d="M1123.87 320.207L1059.3 322.746C994.715 325.738 865.633 330.135 739.713 281.237C613.794 232.34 491.172 127.879 365.253 78.9815C239.334 30.0837 110.251 34.4808 45.6626 37.473L-18.8988 40.0117L-17.6649 -65.86L57.6348 -61.4227C121.84 -57.9516 245.51 -61.2198 373.92 -54.2775C502.329 -47.3353 631.645 -38.4656 760.055 -31.5233C888.464 -24.581 1008.14 -16.5916 1072.35 -13.1204L1129.08 -9.77727L1123.87 320.207Z" fill="#192838"/>
</g>
<g id="wave (3) 1">
<path id="Vector_2" d="M0 141.8L62.3889 136.732C124.778 131.281 249.556 121.719 374.333 157.1C499.111 192.481 623.889 274.719 748.667 310.1C873.444 345.481 998.222 335.919 1060.61 330.468L1123 325.4V356H1060.61C998.222 356 873.444 356 748.667 356C623.889 356 499.111 356 374.333 356C249.556 356 124.778 356 62.3889 356H0V141.8Z" fill="#192838"/>
</g>
</g>
<defs>
<clipPath id="clip0_3_32">
<rect width="1122.36" height="363.441" fill="white" transform="matrix(-0.999999 0.00138982 -0.00158354 -0.999999 1122.93 363.44)"/>
</clipPath>
</defs>
</svg>
