<svg width="1942" height="479" viewBox="0 0 1942 479" fill="none" xmlns="http://www.w3.org/2000/svg">
<g clip-path="url(#clip0_66_86)">
<g filter="url(#filter0_d_66_86)">
<path d="M1862.01 314.154C1843.4 322.968 1824.7 331.438 1805.56 338.94C1713.55 375.007 1618.28 397.784 1520.17 409.044C1466.99 415.148 1413.63 417.504 1360.14 415.993C1324.56 414.987 1289.11 412.099 1253.74 407.916C1225 404.518 1196.52 399.691 1168.23 393.891C1086.63 377.159 1007.8 351.801 932.063 316.969C857.958 282.889 787.451 242.174 717.2 200.972C656.988 165.659 596.957 130.024 534.537 98.6513C482.292 72.394 428.652 49.5322 372.493 32.9737C336.785 22.4455 300.448 14.587 263.447 10.3122C182.945 1.01112 103.573 7.55592 25.2865 28.1494C-3.75396 35.7894 -32.2414 45.1094 -60.3227 55.7361C-64.5398 57.3321 -66.6156 59.3014 -67.3625 64.0326C-104.05 296.561 -140.863 529.07 -177.877 761.548C-178.864 767.744 -177.052 768.942 -171.536 769.816C460.63 869.82 1092.78 969.942 1724.91 1070.19C1730.44 1071.06 1732.53 1070.43 1733.54 1064.29C1740.63 1020.97 1748.16 977.734 1755.61 934.481C1766.44 871.592 1777.32 808.712 1788.19 745.828C1799.13 682.503 1810.07 619.179 1821.01 555.854C1831.91 492.75 1842.86 429.655 1853.68 366.536C1856.63 349.336 1859.18 332.069 1862.01 314.154Z" fill="#DFAD0C"/>
</g>
<rect x="-1.13501" y="427.472" width="1960" height="539.953" fill="#192838"/>
<g filter="url(#filter1_d_66_86)">
<path d="M1943.65 233.221C1926.65 244.589 1909.5 255.64 1891.77 265.821C1806.53 314.769 1716 351.37 1620.86 377.273C1569.29 391.314 1516.96 401.761 1463.89 408.49C1428.59 412.964 1393.13 415.6 1357.53 416.972C1328.62 418.087 1299.74 417.78 1270.89 416.506C1187.67 412.825 1105.85 400.383 1025.59 378.309C947.068 356.713 871.061 328.152 795.229 299.082C730.234 274.168 665.367 248.913 598.808 228.145C543.099 210.763 486.543 196.877 428.485 189.469C391.57 184.76 354.451 182.727 317.237 184.259C236.271 187.593 158.9 206.07 84.7986 237.961C57.3108 249.791 30.6321 263.161 4.55885 277.732C0.643322 279.92 -1.09887 282.141 -1.09642 286.829C-0.956288 517.204 -0.944081 747.58 -1.135 977.956C-1.14037 984.096 0.837169 984.977 6.42115 984.977C646.449 984.86 1286.48 984.86 1926.5 984.98C1932.1 984.98 1934.07 984.047 1934.11 977.956C1934.33 935.006 1935.01 892.057 1935.6 849.109C1936.46 786.663 1937.37 724.219 1938.26 661.773C1939.16 598.889 1940.07 536.005 1940.96 473.121C1941.86 410.457 1942.81 347.794 1943.62 285.128C1943.84 268.051 1943.65 250.971 1943.65 233.221Z" fill="#192838"/>
<path d="M1943.65 233.221C1926.65 244.589 1909.5 255.64 1891.77 265.821C1806.53 314.769 1716 351.37 1620.86 377.273C1569.29 391.314 1516.96 401.761 1463.89 408.49C1428.59 412.964 1393.13 415.6 1357.53 416.972C1328.62 418.087 1299.74 417.78 1270.89 416.506C1187.67 412.825 1105.85 400.383 1025.59 378.309C947.068 356.713 871.061 328.152 795.229 299.082C730.234 274.168 665.367 248.913 598.808 228.145C543.099 210.763 486.543 196.877 428.485 189.469C391.57 184.76 354.451 182.727 317.237 184.259C236.271 187.593 158.9 206.07 84.7986 237.961C57.3108 249.791 30.6321 263.161 4.55885 277.732C0.643322 279.92 -1.09887 282.141 -1.09642 286.829C-0.956288 517.204 -0.944081 747.58 -1.135 977.956C-1.14037 984.096 0.837169 984.977 6.42115 984.977C646.449 984.86 1286.48 984.86 1926.5 984.98C1932.1 984.98 1934.07 984.047 1934.11 977.956C1934.33 935.006 1935.01 892.057 1935.6 849.109C1936.46 786.663 1937.37 724.219 1938.26 661.773C1939.16 598.889 1940.07 536.005 1940.96 473.121C1941.86 410.457 1942.81 347.794 1943.62 285.128C1943.84 268.051 1943.65 250.971 1943.65 233.221Z" stroke="#DFAD0C" stroke-width="2"/>
</g>
</g>
<defs>
<filter id="filter0_d_66_86" x="-181.133" y="6.17099" width="2046.15" height="1070.33" filterUnits="userSpaceOnUse" color-interpolation-filters="sRGB">
<feFlood flood-opacity="0" result="BackgroundImageFix"/>
<feColorMatrix in="SourceAlpha" type="matrix" values="0 0 0 0 0 0 0 0 0 0 0 0 0 0 0 0 0 0 127 0" result="hardAlpha"/>
<feOffset dy="3"/>
<feGaussianBlur stdDeviation="1.5"/>
<feComposite in2="hardAlpha" operator="out"/>
<feColorMatrix type="matrix" values="0 0 0 0 0 0 0 0 0 0 0 0 0 0 0 0 0 0 0.160784 0"/>
<feBlend mode="normal" in2="BackgroundImageFix" result="effect1_dropShadow_66_86"/>
<feBlend mode="normal" in="SourceGraphic" in2="effect1_dropShadow_66_86" result="shape"/>
</filter>
<filter id="filter1_d_66_86" x="-5.13501" y="182.756" width="1952.86" height="809.224" filterUnits="userSpaceOnUse" color-interpolation-filters="sRGB">
<feFlood flood-opacity="0" result="BackgroundImageFix"/>
<feColorMatrix in="SourceAlpha" type="matrix" values="0 0 0 0 0 0 0 0 0 0 0 0 0 0 0 0 0 0 127 0" result="hardAlpha"/>
<feOffset dy="3"/>
<feGaussianBlur stdDeviation="1.5"/>
<feComposite in2="hardAlpha" operator="out"/>
<feColorMatrix type="matrix" values="0 0 0 0 0 0 0 0 0 0 0 0 0 0 0 0 0 0 0.160784 0"/>
<feBlend mode="normal" in2="BackgroundImageFix" result="effect1_dropShadow_66_86"/>
<feBlend mode="normal" in="SourceGraphic" in2="effect1_dropShadow_66_86" result="shape"/>
</filter>
<clipPath id="clip0_66_86">
<rect width="1942" height="479" fill="white"/>
</clipPath>
</defs>
</svg>
