<svg width="3533" height="1936" viewBox="0 0 3533 1936" fill="none" xmlns="http://www.w3.org/2000/svg">
<rect width="3533" height="1936" fill="white"/>
<rect x="2141" y="1100" width="1121" height="364" fill="#F7FC00"/>
<g clip-path="url(#clip0_0_1)">
<path d="M3262.79 1428.96L3198.37 1431.86C3133.93 1435.24 3005.13 1440.32 2879.28 1389.65C2753.43 1338.97 2630.65 1230.16 2504.8 1179.48C2378.95 1128.81 2250.15 1133.89 2185.71 1137.27L2121.29 1140.17L2122.11 1029.41L2197.27 1033.77C2261.36 1037.16 2384.76 1033.27 2512.93 1040.05C2641.1 1046.82 2770.19 1055.61 2898.36 1062.39C3026.53 1069.17 3145.99 1077.07 3210.08 1080.46L3266.71 1083.75L3262.79 1428.96Z" fill="#192838"/>
</g>
<path d="M2141 1240L2203.28 1234.7C2265.56 1229 2390.11 1219 2514.67 1256C2639.22 1293 2763.78 1379 2888.33 1416C3012.89 1453 3137.44 1443 3199.72 1437.3L3262 1432V1464H3199.72C3137.44 1464 3012.89 1464 2888.33 1464C2763.78 1464 2639.22 1464 2514.67 1464C2390.11 1464 2265.56 1464 2203.28 1464H2141V1240Z" fill="#192838"/>
<defs>
<clipPath id="clip0_0_1">
<rect width="1120.05" height="380.198" fill="white" transform="translate(3262.03 1474.19) rotate(179.7)"/>
</clipPath>
</defs>
</svg>
