<svg width="5427" height="6224" viewBox="0 0 5427 6224" fill="none" xmlns="http://www.w3.org/2000/svg">
<g opacity="0.69">
<path d="M1735.71 1722.45H1724.77V1708.72C1724.77 1706.26 1723.17 1704.26 1721.21 1704.26H1708.07C1706.1 1704.26 1704.51 1706.26 1704.51 1708.72V1722.45H1693.56C1691.59 1722.45 1690 1724.44 1690 1726.9V1743.37C1690 1745.83 1691.59 1747.83 1693.56 1747.83H1704.51V1761.55C1704.51 1764.01 1706.1 1766.01 1708.07 1766.01H1721.21C1723.17 1766.01 1724.77 1764.01 1724.77 1761.55V1747.83H1735.71C1737.68 1747.83 1739.27 1745.83 1739.27 1743.37V1726.9C1739.27 1724.44 1737.68 1722.45 1735.71 1722.45Z" fill="#FFA000"/>
<path d="M2031.27 1879.52H2010.46V1853.44C2010.46 1848.75 2007.43 1844.96 2003.69 1844.96H1978.71C1974.97 1844.96 1971.94 1848.75 1971.94 1853.44V1879.52H1951.12C1947.39 1879.52 1944.36 1883.32 1944.36 1888V1919.31C1944.36 1923.99 1947.39 1927.79 1951.12 1927.79H1971.94V1953.87C1971.94 1958.56 1974.97 1962.35 1978.71 1962.35H2003.69C2007.43 1962.35 2010.46 1958.56 2010.46 1953.87V1927.79H2031.27C2035.01 1927.79 2038.04 1923.99 2038.04 1919.31V1888C2038.04 1883.32 2035.01 1879.52 2031.27 1879.52Z" fill="#3F598C"/>
</g>
<rect x="0.499395" y="0.500323" width="5417.79" height="6218.92" transform="matrix(1 0.000646931 -0.00121059 0.999999 7.5299 -0.000322686)" fill="#192838" stroke="#707070"/>
<g opacity="0.69">
<path d="M1989.71 3823.95H1978.77V3810.23C1978.77 3807.77 1977.17 3805.77 1975.21 3805.77H1962.07C1960.1 3805.77 1958.51 3807.77 1958.51 3810.23V3823.95H1947.56C1945.59 3823.95 1944 3825.95 1944 3828.41V3844.88C1944 3847.34 1945.59 3849.34 1947.56 3849.34H1958.51V3863.06C1958.51 3865.52 1960.1 3867.52 1962.07 3867.52H1975.21C1977.17 3867.52 1978.77 3865.52 1978.77 3863.06V3849.34H1989.71C1991.68 3849.34 1993.27 3847.34 1993.27 3844.88V3828.41C1993.27 3825.95 1991.68 3823.95 1989.71 3823.95Z" fill="#FFA000"/>
<path d="M4557.71 442.994H4546.77V429.272C4546.77 426.81 4545.17 424.813 4543.21 424.813H4530.07C4528.1 424.813 4526.51 426.81 4526.51 429.272V442.994H4515.56C4513.59 442.994 4512 444.99 4512 447.453V463.919C4512 466.381 4513.59 468.378 4515.56 468.378H4526.51V482.099C4526.51 484.562 4528.1 486.559 4530.07 486.559H4543.21C4545.17 486.559 4546.77 484.562 4546.77 482.099V468.378H4557.71C4559.68 468.378 4561.27 466.381 4561.27 463.919V447.453C4561.27 444.99 4559.68 442.994 4557.71 442.994Z" fill="#FFA000"/>
<path d="M2285.27 3981.03H2264.46V3954.94C2264.46 3950.26 2261.43 3946.47 2257.69 3946.47H2232.71C2228.97 3946.47 2225.94 3950.26 2225.94 3954.94V3981.03H2205.12C2201.39 3981.03 2198.36 3984.83 2198.36 3989.51V4020.82C2198.36 4025.5 2201.39 4029.29 2205.12 4029.29H2225.94V4055.38C2225.94 4060.06 2228.97 4063.86 2232.71 4063.86H2257.69C2261.43 4063.86 2264.46 4060.06 2264.46 4055.38V4029.29H2285.27C2289.01 4029.29 2292.04 4025.5 2292.04 4020.82V3989.51C2292.04 3984.83 2289.01 3981.03 2285.27 3981.03Z" fill="#3F598C"/>
<path d="M4576.91 1212.51H4556.1V1186.43C4556.1 1181.74 4553.07 1177.95 4549.33 1177.95H4524.35C4520.61 1177.95 4517.58 1181.74 4517.58 1186.43V1212.51H4496.77C4493.03 1212.51 4490 1216.31 4490 1220.99V1252.3C4490 1256.98 4493.03 1260.78 4496.77 1260.78H4517.58V1286.86C4517.58 1291.54 4520.61 1295.34 4524.35 1295.34H4549.33C4553.07 1295.34 4556.1 1291.54 4556.1 1286.86V1260.78H4576.91C4580.65 1260.78 4583.68 1256.98 4583.68 1252.3V1220.99C4583.68 1216.31 4580.65 1212.51 4576.91 1212.51Z" fill="#3F598C"/>
<g opacity="0.69">
<path d="M2991.71 833.972H2980.77V820.251C2980.77 817.788 2979.17 815.792 2977.21 815.792H2964.07C2962.1 815.792 2960.51 817.788 2960.51 820.251V833.972H2949.56C2947.59 833.972 2946 835.969 2946 838.431V854.897C2946 857.36 2947.59 859.356 2949.56 859.356H2960.51V873.078C2960.51 875.54 2962.1 877.538 2964.07 877.538H2977.21C2979.17 877.538 2980.77 875.54 2980.77 873.078V859.356H2991.71C2993.68 859.356 2995.27 857.36 2995.27 854.897V838.431C2995.27 835.969 2993.68 833.972 2991.71 833.972Z" fill="#FFA000"/>
<path d="M3287.27 991.052H3266.46V964.963C3266.46 960.282 3263.43 956.486 3259.69 956.486H3234.71C3230.97 956.486 3227.94 960.282 3227.94 964.963V991.052H3207.12C3203.39 991.052 3200.36 994.847 3200.36 999.53V1030.83C3200.36 1035.52 3203.39 1039.31 3207.12 1039.31H3227.94V1065.4C3227.94 1070.08 3230.97 1073.88 3234.71 1073.88H3259.69C3263.43 1073.88 3266.46 1070.08 3266.46 1065.4V1039.31H3287.27C3291.01 1039.31 3294.04 1035.52 3294.04 1030.83V999.53C3294.04 994.847 3291.01 991.052 3287.27 991.052Z" fill="#3F598C"/>
</g>
<path d="M3548.77 1674.64H3527.96V1648.55C3527.96 1643.87 3524.93 1640.07 3521.19 1640.07H3496.21C3492.47 1640.07 3489.44 1643.87 3489.44 1648.55V1674.64H3468.62C3464.89 1674.64 3461.86 1678.43 3461.86 1683.12V1714.42C3461.86 1719.1 3464.89 1722.9 3468.62 1722.9H3489.44V1748.99C3489.44 1753.67 3492.47 1757.46 3496.21 1757.46H3521.19C3524.93 1757.46 3527.96 1753.67 3527.96 1748.99V1722.9H3548.77C3552.51 1722.9 3555.54 1719.1 3555.54 1714.42V1683.12C3555.54 1678.43 3552.51 1674.64 3548.77 1674.64Z" fill="#3F598C"/>
<g opacity="0.69">
<path d="M4047.36 3337.87H4023.32V3307.02C4023.32 3301.49 4019.82 3297 4015.51 3297H3986.66C3982.35 3297 3978.85 3301.49 3978.85 3307.02V3337.87H3954.81C3950.5 3337.87 3947 3342.35 3947 3347.89V3384.9C3947 3390.44 3950.5 3394.93 3954.81 3394.93H3978.85V3425.77C3978.85 3431.31 3982.35 3435.8 3986.66 3435.8H4015.51C4019.82 3435.8 4023.32 3431.31 4023.32 3425.77V3394.93H4047.36C4051.67 3394.93 4055.17 3390.44 4055.17 3384.9V3347.89C4055.17 3342.35 4051.67 3337.87 4047.36 3337.87Z" fill="#FFA000"/>
<path d="M4696.19 3690.96H4650.48V3632.32C4650.48 3621.79 4643.84 3613.26 4635.63 3613.26H4580.79C4572.59 3613.26 4565.94 3621.79 4565.94 3632.32V3690.96H4520.24C4512.04 3690.96 4505.39 3699.49 4505.39 3710.02V3780.39C4505.39 3790.91 4512.04 3799.44 4520.24 3799.44H4565.94V3858.09C4565.94 3868.61 4572.59 3877.14 4580.79 3877.14H4635.63C4643.84 3877.14 4650.48 3868.61 4650.48 3858.09V3799.44H4696.19C4704.39 3799.44 4711.04 3790.91 4711.04 3780.39V3710.02C4711.04 3699.49 4704.39 3690.96 4696.19 3690.96Z" fill="#3F598C"/>
</g>
<g opacity="0.69">
<path d="M1112.71 2357.78H1101.77V2344.06C1101.77 2341.6 1100.17 2339.6 1098.21 2339.6H1085.07C1083.1 2339.6 1081.51 2341.6 1081.51 2344.06V2357.78H1070.56C1068.59 2357.78 1067 2359.78 1067 2362.24V2378.71C1067 2381.17 1068.59 2383.17 1070.56 2383.17H1081.51V2396.89C1081.51 2399.35 1083.1 2401.35 1085.07 2401.35H1098.21C1100.17 2401.35 1101.77 2399.35 1101.77 2396.89V2383.17H1112.71C1114.68 2383.17 1116.27 2381.17 1116.27 2378.71V2362.24C1116.27 2359.78 1114.68 2357.78 1112.71 2357.78Z" fill="#FFA000"/>
<path d="M1408.27 2514.86H1387.46V2488.78C1387.46 2484.09 1384.43 2480.3 1380.69 2480.3H1355.71C1351.97 2480.3 1348.94 2484.09 1348.94 2488.78V2514.86H1328.12C1324.39 2514.86 1321.36 2518.66 1321.36 2523.34V2554.65C1321.36 2559.33 1324.39 2563.13 1328.12 2563.13H1348.94V2589.21C1348.94 2593.9 1351.97 2597.69 1355.71 2597.69H1380.69C1384.43 2597.69 1387.46 2593.9 1387.46 2589.21V2563.13H1408.27C1412.01 2563.13 1415.04 2559.33 1415.04 2554.65V2523.34C1415.04 2518.66 1412.01 2514.86 1408.27 2514.86Z" fill="#3F598C"/>
</g>
<g opacity="0.69">
<path d="M4606.71 5375.34H4595.77V5361.61C4595.77 5359.15 4594.17 5357.15 4592.21 5357.15H4579.07C4577.1 5357.15 4575.51 5359.15 4575.51 5361.61V5375.34H4564.56C4562.59 5375.34 4561 5377.33 4561 5379.79V5396.26C4561 5398.72 4562.59 5400.72 4564.56 5400.72H4575.51V5414.44C4575.51 5416.9 4577.1 5418.9 4579.07 5418.9H4592.21C4594.17 5418.9 4595.77 5416.9 4595.77 5414.44V5400.72H4606.71C4608.68 5400.72 4610.27 5398.72 4610.27 5396.26V5379.79C4610.27 5377.33 4608.68 5375.34 4606.71 5375.34Z" fill="#FFA000"/>
<path d="M4902.27 5532.41H4881.46V5506.33C4881.46 5501.64 4878.43 5497.85 4874.69 5497.85H4849.71C4845.97 5497.85 4842.94 5501.64 4842.94 5506.33V5532.41H4822.12C4818.39 5532.41 4815.36 5536.21 4815.36 5540.89V5572.2C4815.36 5576.88 4818.39 5580.68 4822.12 5580.68H4842.94V5606.76C4842.94 5611.45 4845.97 5615.24 4849.71 5615.24H4874.69C4878.43 5615.24 4881.46 5611.45 4881.46 5606.76V5580.68H4902.27C4906.01 5580.68 4909.04 5576.88 4909.04 5572.2V5540.89C4909.04 5536.21 4906.01 5532.41 4902.27 5532.41Z" fill="#3F598C"/>
</g>
<g opacity="0.69">
<path d="M1018.71 5386.61H1007.77V5372.89C1007.77 5370.43 1006.17 5368.43 1004.21 5368.43H991.067C989.102 5368.43 987.509 5370.43 987.509 5372.89V5386.61H976.559C974.594 5386.61 973 5388.61 973 5391.07V5407.54C973 5410 974.594 5412 976.559 5412H987.509V5425.72C987.509 5428.18 989.102 5430.18 991.067 5430.18H1004.21C1006.17 5430.18 1007.77 5428.18 1007.77 5425.72V5412H1018.71C1020.68 5412 1022.27 5410 1022.27 5407.54V5391.07C1022.27 5388.61 1020.68 5386.61 1018.71 5386.61Z" fill="#FFA000"/>
<path d="M1314.27 5543.69H1293.46V5517.6C1293.46 5512.92 1290.43 5509.13 1286.69 5509.13H1261.71C1257.97 5509.13 1254.94 5512.92 1254.94 5517.6V5543.69H1234.12C1230.39 5543.69 1227.36 5547.49 1227.36 5552.17V5583.48C1227.36 5588.16 1230.39 5591.95 1234.12 5591.95H1254.94V5618.04C1254.94 5622.72 1257.97 5626.52 1261.71 5626.52H1286.69C1290.43 5626.52 1293.46 5622.72 1293.46 5618.04V5591.95H1314.27C1318.01 5591.95 1321.04 5588.16 1321.04 5583.48V5552.17C1321.04 5547.49 1318.01 5543.69 1314.27 5543.69Z" fill="#3F598C"/>
</g>
<path d="M2535.53 1594.64H2503.3V1555.37C2503.3 1548.32 2498.62 1542.61 2492.83 1542.61H2454.17C2448.38 1542.61 2443.7 1548.32 2443.7 1555.37V1594.64H2411.47C2405.69 1594.64 2401 1600.35 2401 1607.4V1654.52C2401 1661.56 2405.69 1667.28 2411.47 1667.28H2443.7V1706.54C2443.7 1713.59 2448.38 1719.3 2454.17 1719.3H2492.83C2498.62 1719.3 2503.3 1713.59 2503.3 1706.54V1667.28H2535.53C2541.31 1667.28 2546 1661.56 2546 1654.52V1607.4C2546 1600.35 2541.31 1594.64 2535.53 1594.64Z" fill="#3F598C"/>
<path d="M3283.53 5440.51H3251.3V5401.24C3251.3 5394.2 3246.62 5388.48 3240.83 5388.48H3202.17C3196.38 5388.48 3191.7 5394.2 3191.7 5401.24V5440.51H3159.47C3153.69 5440.51 3149 5446.22 3149 5453.27V5500.39C3149 5507.44 3153.69 5513.15 3159.47 5513.15H3191.7V5552.42C3191.7 5559.46 3196.38 5565.18 3202.17 5565.18H3240.83C3246.62 5565.18 3251.3 5559.46 3251.3 5552.42V5513.15H3283.53C3289.31 5513.15 3294 5507.44 3294 5500.39V5453.27C3294 5446.22 3289.31 5440.51 3283.53 5440.51Z" fill="#3F598C"/>
<path d="M2774.53 2717.45H2742.3V2678.18C2742.3 2671.13 2737.62 2665.42 2731.83 2665.42H2693.17C2687.38 2665.42 2682.7 2671.13 2682.7 2678.18V2717.45H2650.47C2644.69 2717.45 2640 2723.16 2640 2730.21V2777.32C2640 2784.37 2644.69 2790.09 2650.47 2790.09H2682.7V2829.35C2682.7 2836.4 2687.38 2842.11 2693.17 2842.11H2731.83C2737.62 2842.11 2742.3 2836.4 2742.3 2829.35V2790.09H2774.53C2780.31 2790.09 2785 2784.37 2785 2777.32V2730.21C2785 2723.16 2780.31 2717.45 2774.53 2717.45Z" fill="#3F598C"/>
<path d="M3745.53 4732.49H3713.3V4693.22C3713.3 4686.18 3708.62 4680.46 3702.83 4680.46H3664.17C3658.38 4680.46 3653.7 4686.18 3653.7 4693.22V4732.49H3621.47C3615.69 4732.49 3611 4738.2 3611 4745.25V4792.37C3611 4799.42 3615.69 4805.13 3621.47 4805.13H3653.7V4844.39C3653.7 4851.44 3658.38 4857.15 3664.17 4857.15H3702.83C3708.62 4857.15 3713.3 4851.44 3713.3 4844.39V4805.13H3745.53C3751.31 4805.13 3756 4799.42 3756 4792.37V4745.25C3756 4738.2 3751.31 4732.49 3745.53 4732.49Z" fill="#3F598C"/>
<path d="M1359.32 450.402L1330.15 450.387L1330.18 429.618C1330.19 425.891 1325.95 422.868 1320.71 422.865L1285.7 422.847C1280.46 422.844 1276.22 425.864 1276.21 429.59L1276.18 450.359L1247 450.344C1241.77 450.341 1237.52 453.36 1237.51 457.087L1237.47 482.009C1237.47 485.736 1241.71 488.76 1246.94 488.762L1276.12 488.777L1276.09 509.546C1276.08 513.273 1280.32 516.298 1285.56 516.301L1320.57 516.319C1325.8 516.321 1330.05 513.3 1330.06 509.573L1330.09 488.805L1359.27 488.82C1364.5 488.823 1368.75 485.804 1368.76 482.077L1368.79 457.155C1368.8 453.428 1364.56 450.404 1359.32 450.402Z" fill="#FCFFFF"/>
</g>
<path d="M5150.63 1073.72L5121.45 1073.7L5121.48 1047.68C5121.49 1043.01 5117.25 1039.22 5112.01 1039.22L5077 1039.19C5071.77 1039.19 5067.52 1042.97 5067.51 1047.64L5067.48 1073.67L5038.3 1073.65C5033.07 1073.65 5028.82 1077.43 5028.81 1082.1L5028.77 1113.33C5028.77 1118 5033.01 1121.79 5038.25 1121.79L5067.42 1121.81L5067.39 1147.84C5067.38 1152.51 5071.62 1156.3 5076.86 1156.3L5111.87 1156.33C5117.11 1156.33 5121.35 1152.54 5121.36 1147.87L5121.39 1121.85L5150.57 1121.87C5155.8 1121.87 5160.05 1118.09 5160.06 1113.42L5160.09 1082.19C5160.1 1077.52 5155.86 1073.73 5150.63 1073.72Z" fill="#FCFFFF"/>
<path d="M776.044 2789.24L746.869 2789.22L746.901 2763.2C746.906 2758.53 742.666 2754.74 737.431 2754.74L702.42 2754.71C697.185 2754.71 692.936 2758.49 692.93 2763.16L692.898 2789.19L663.723 2789.17C658.487 2789.17 654.236 2792.95 654.23 2797.62L654.192 2828.85C654.186 2833.52 658.429 2837.31 663.664 2837.32L692.84 2837.33L692.808 2863.36C692.803 2868.03 697.043 2871.82 702.278 2871.82L737.289 2871.85C742.524 2871.85 746.773 2868.06 746.779 2863.39L746.81 2837.37L775.986 2837.39C781.222 2837.39 785.47 2833.61 785.476 2828.94L785.514 2797.71C785.52 2793.04 781.28 2789.25 776.044 2789.24Z" fill="#FCFFFF"/>
<path d="M2678.04 3728.8L2648.87 3728.79L2648.9 3702.76C2648.91 3698.09 2644.67 3694.3 2639.43 3694.3L2604.42 3694.28C2599.18 3694.27 2594.94 3698.06 2594.93 3702.73L2594.9 3728.75L2565.72 3728.73C2560.49 3728.73 2556.24 3732.51 2556.23 3737.18L2556.19 3768.41C2556.19 3773.08 2560.43 3776.87 2565.66 3776.88L2594.84 3776.89L2594.81 3802.92C2594.8 3807.59 2599.04 3811.38 2604.28 3811.39L2639.29 3811.41C2644.52 3811.41 2648.77 3807.63 2648.78 3802.96L2648.81 3776.93L2677.99 3776.95C2683.22 3776.95 2687.47 3773.17 2687.48 3768.5L2687.51 3737.27C2687.52 3732.6 2683.28 3728.81 2678.04 3728.8Z" fill="#FCFFFF"/>
<path d="M4335.35 1797.19L4279.88 1797.15L4279.94 1747.67C4279.95 1738.79 4271.89 1731.59 4261.93 1731.58L4195.37 1731.54C4185.42 1731.53 4177.34 1738.72 4177.33 1747.6L4177.27 1797.09L4121.8 1797.05C4111.84 1797.04 4103.76 1804.23 4103.75 1813.12L4103.68 1872.49C4103.67 1881.37 4111.73 1888.58 4121.69 1888.58L4177.16 1888.62L4177.1 1938.1C4177.09 1946.98 4185.15 1954.18 4195.1 1954.19L4261.66 1954.23C4271.62 1954.24 4279.7 1947.04 4279.71 1938.16L4279.77 1888.69L4335.24 1888.72C4345.19 1888.73 4353.27 1881.53 4353.28 1872.65L4353.36 1813.28C4353.37 1804.4 4345.3 1797.19 4335.35 1797.19Z" fill="#3F598C"/>
<path d="M498.36 675.156L467.647 675.14L467.69 647.254C467.697 642.25 463.235 638.19 457.723 638.188L420.867 638.169C415.355 638.166 410.88 642.221 410.873 647.225L410.83 675.11L380.116 675.095C374.604 675.092 370.129 679.145 370.121 684.151L370.07 717.611C370.063 722.617 374.525 726.676 380.037 726.679L410.752 726.695L410.709 754.579C410.702 759.583 415.164 763.643 420.676 763.646L457.532 763.665C463.044 763.667 467.519 759.612 467.526 754.608L467.569 726.724L498.282 726.74C503.794 726.743 508.27 722.688 508.278 717.682L508.329 684.222C508.336 679.216 503.872 675.158 498.36 675.156Z" fill="#3F598C"/>
<path d="M420.989 292.001H394.394V268.601C394.394 264.401 390.525 260.997 385.752 260.997H353.838C349.066 260.997 345.196 264.401 345.196 268.601V292.001H318.601C313.829 292.001 309.957 295.405 309.957 299.604V327.685C309.957 331.884 313.829 335.288 318.601 335.288H345.196V358.689C345.196 362.888 349.066 366.294 353.838 366.294H385.752C390.525 366.294 394.394 362.888 394.394 358.689V335.288H420.989C425.762 335.288 429.631 331.884 429.631 327.685V299.604C429.631 295.405 425.762 292.001 420.989 292.001Z" fill="#FFA000"/>
<path d="M2477.1 130.09H2426.53V85.5995C2426.53 77.6156 2419.18 71.1426 2410.1 71.1426H2349.43C2340.35 71.1426 2333 77.6156 2333 85.5995V130.09H2282.43C2273.36 130.09 2266 136.561 2266 144.547V197.932C2266 205.918 2273.36 212.391 2282.43 212.391H2333V256.879C2333 264.863 2340.35 271.336 2349.43 271.336H2410.1C2419.18 271.336 2426.53 264.863 2426.53 256.879V212.391H2477.1C2486.17 212.391 2493.53 205.918 2493.53 197.932V144.547C2493.53 136.561 2486.17 130.09 2477.1 130.09Z" fill="#3F598C"/>
<g opacity="0.69">
<path d="M510.715 1069.56H499.765V1055.84C499.765 1053.38 498.172 1051.38 496.207 1051.38H483.067C481.102 1051.38 479.509 1053.38 479.509 1055.84V1069.56H468.559C466.594 1069.56 465 1071.56 465 1074.02V1090.49C465 1092.95 466.594 1094.94 468.559 1094.94H479.509V1108.67C479.509 1111.13 481.102 1113.13 483.067 1113.13H496.207C498.172 1113.13 499.765 1111.13 499.765 1108.67V1094.94H510.715C512.68 1094.94 514.273 1092.95 514.273 1090.49V1074.02C514.273 1071.56 512.68 1069.56 510.715 1069.56Z" fill="#FFA000"/>
<path d="M806.273 1226.64H785.455V1200.55C785.455 1195.87 782.426 1192.07 778.69 1192.07H753.708C749.972 1192.07 746.943 1195.87 746.943 1200.55V1226.64H726.124C722.388 1226.64 719.359 1230.44 719.359 1235.12V1266.42C719.359 1271.11 722.388 1274.9 726.124 1274.9H746.943V1300.99C746.943 1305.67 749.972 1309.47 753.708 1309.47H778.69C782.426 1309.47 785.455 1305.67 785.455 1300.99V1274.9H806.273C810.009 1274.9 813.039 1271.11 813.039 1266.42V1235.12C813.039 1230.44 810.009 1226.64 806.273 1226.64Z" fill="#3F598C"/>
</g>
</svg>
