<svg width="3533" height="1936" viewBox="0 0 3533 1936" fill="none" xmlns="http://www.w3.org/2000/svg">
<g id="Untitled 1">
<rect id="Rectangle 1" x="2141" y="1100" width="1121" height="361" fill="#F7FC00"/>
<g id="wave (3) 2" clip-path="url(#clip0_3_2)">
<path id="Vector" d="M3262.79 1426.31L3198.37 1429.18C3133.93 1432.53 3005.13 1437.58 2879.28 1387.3C2753.43 1337.03 2630.65 1229.08 2504.8 1178.8C2378.95 1128.53 2250.15 1133.58 2185.71 1136.92L2121.29 1139.8L2122.11 1029.92L2197.27 1034.24C2261.36 1037.61 2384.76 1033.75 2512.93 1040.47C2641.1 1047.2 2770.19 1055.92 2898.36 1062.64C3026.53 1069.37 3145.99 1077.21 3210.08 1080.57L3266.71 1083.83L3262.79 1426.31Z" fill="#192838"/>
</g>
<g id="wave (3) 1" clip-path="url(#clip1_3_2)">
<path id="Vector_2" d="M2141 1239.1L2203.28 1233.85C2265.56 1228.2 2390.11 1218.3 2514.67 1254.95C2639.22 1291.6 2763.78 1376.8 2888.33 1413.45C3012.89 1450.1 3137.44 1440.2 3199.72 1434.55L3262 1429.3V1461H3199.72C3137.44 1461 3012.89 1461 2888.33 1461C2763.78 1461 2639.22 1461 2514.67 1461C2390.11 1461 2265.56 1461 2203.28 1461H2141V1239.1Z" fill="#192838"/>
</g>
</g>
<defs>
<clipPath id="clip0_3_2">
<rect width="1120.05" height="377.182" fill="white" transform="matrix(-0.999987 0.00519933 -0.00528281 -0.999986 3262.03 1471.18)"/>
</clipPath>
<clipPath id="clip1_3_2">
<rect width="1121" height="317" fill="white" transform="translate(2141 1144)"/>
</clipPath>
</defs>
</svg>
