<svg xmlns="http://www.w3.org/2000/svg" xmlns:xlink="http://www.w3.org/1999/xlink" width="587.171" height="485.332" viewBox="0 0 587.171 485.332">
  <defs>
    <linearGradient id="linear-gradient" y1="0.5" x2="1" y2="0.5" gradientUnits="objectBoundingBox">
      <stop offset="0.016" stop-color="#004f94"/>
      <stop offset="1" stop-color="#00338a"/>
    </linearGradient>
    <linearGradient id="linear-gradient-5" y1="0.5" x2="1" y2="0.5" gradientUnits="objectBoundingBox">
      <stop offset="0" stop-color="#df9673"/>
      <stop offset="0.972" stop-color="#fbbea8"/>
    </linearGradient>
    <linearGradient id="linear-gradient-7" y1="0.5" x2="1" y2="0.5" gradientUnits="objectBoundingBox">
      <stop offset="0.028" stop-color="#fbbea8"/>
      <stop offset="1" stop-color="#df9673"/>
    </linearGradient>
    <linearGradient id="linear-gradient-9" x1="0.927" y1="0.134" x2="0.039" y2="0.805" gradientUnits="objectBoundingBox">
      <stop offset="0.013" stop-color="#ffcb32"/>
      <stop offset="1" stop-color="#ffa238"/>
    </linearGradient>
    <linearGradient id="linear-gradient-10" y1="0.5" x2="1" y2="0.5" gradientUnits="objectBoundingBox">
      <stop offset="0" stop-color="#ffa238"/>
      <stop offset="0.987" stop-color="#ffcb32"/>
    </linearGradient>
    <linearGradient id="linear-gradient-11" x1="0.814" y1="0.206" x2="0.378" y2="0.743" xlink:href="#linear-gradient"/>
    <linearGradient id="linear-gradient-13" y1="0.5" x2="1" y2="0.5" gradientUnits="objectBoundingBox">
      <stop offset="0" stop-color="#c52264"/>
      <stop offset="0.976" stop-color="#e94e6d"/>
    </linearGradient>
    <linearGradient id="linear-gradient-14" x1="0.754" y1="0.082" x2="0.232" y2="0.965" gradientUnits="objectBoundingBox">
      <stop offset="0" stop-color="#479d8a"/>
      <stop offset="0.989" stop-color="#68bc96"/>
    </linearGradient>
    <linearGradient id="linear-gradient-15" x1="0.326" y1="0.223" x2="0.602" y2="1.108" xlink:href="#linear-gradient-5"/>
    <linearGradient id="linear-gradient-16" x1="0" y1="0.5" x2="1" y2="0.5" xlink:href="#linear-gradient-5"/>
    <linearGradient id="linear-gradient-19" x1="0" y1="0.5" x2="1" y2="0.5" xlink:href="#linear-gradient-14"/>
    <linearGradient id="linear-gradient-21" x1="0" y1="0.5" x2="1" y2="0.5" xlink:href="#linear-gradient-9"/>
    <linearGradient id="linear-gradient-23" x1="0.85" y1="0.147" x2="0.153" y2="1.064" xlink:href="#linear-gradient"/>
    <linearGradient id="linear-gradient-25" x1="0.48" y1="0.201" x2="0.521" y2="0.988" gradientUnits="objectBoundingBox">
      <stop offset="0" stop-color="#665557"/>
      <stop offset="0.959" stop-color="#483a33"/>
    </linearGradient>
    <linearGradient id="linear-gradient-26" x1="0.503" y1="0.275" x2="0.497" y2="0.836" xlink:href="#linear-gradient-25"/>
    <linearGradient id="linear-gradient-27" x1="0.5" y1="0.087" x2="0.5" y2="0.846" gradientUnits="objectBoundingBox">
      <stop offset="0" stop-color="#c76e58"/>
      <stop offset="0.972" stop-color="#e9866c"/>
    </linearGradient>
    <linearGradient id="linear-gradient-28" x1="0.692" y1="0.18" x2="0.133" y2="0.721" xlink:href="#linear-gradient-27"/>
    <linearGradient id="linear-gradient-29" x1="0.62" y1="0.131" x2="0.051" y2="0.717" xlink:href="#linear-gradient-27"/>
    <linearGradient id="linear-gradient-30" x1="0.71" y1="0.172" x2="0.376" y2="0.879" xlink:href="#linear-gradient-14"/>
    <linearGradient id="linear-gradient-31" x1="0.588" y1="0.08" x2="0.327" y2="0.964" xlink:href="#linear-gradient-14"/>
    <linearGradient id="linear-gradient-32" x1="-3.031" y1="0.279" x2="-3.943" y2="0.744" gradientUnits="objectBoundingBox">
      <stop offset="0.028" stop-color="#e9866c"/>
      <stop offset="1" stop-color="#c76e58"/>
    </linearGradient>
    <linearGradient id="linear-gradient-33" x1="-5.066" y1="0.5" x2="-4.066" y2="0.5" xlink:href="#linear-gradient-32"/>
    <linearGradient id="linear-gradient-34" x1="-28.141" y1="0.5" x2="-27.141" y2="0.5" xlink:href="#linear-gradient-32"/>
    <linearGradient id="linear-gradient-35" x1="0.916" y1="0.279" x2="0.003" y2="0.744" xlink:href="#linear-gradient-32"/>
    <linearGradient id="linear-gradient-36" x1="0" y1="0.5" x2="1" y2="0.5" xlink:href="#linear-gradient-32"/>
    <linearGradient id="linear-gradient-37" x1="0.5" y1="0.011" x2="0.5" y2="0.874" xlink:href="#linear-gradient-27"/>
    <linearGradient id="linear-gradient-38" x1="0.782" y1="0.112" x2="0.211" y2="0.91" gradientUnits="objectBoundingBox">
      <stop offset="0" stop-color="#930c39"/>
      <stop offset="0.995" stop-color="#6e082c"/>
    </linearGradient>
    <linearGradient id="linear-gradient-39" x1="0.689" y1="-0.007" x2="0.531" y2="0.508" xlink:href="#linear-gradient-27"/>
    <linearGradient id="linear-gradient-40" x1="0" y1="0.5" x2="1" y2="0.5" xlink:href="#linear-gradient-27"/>
    <linearGradient id="linear-gradient-42" x1="0.5" y1="-0.007" x2="0.5" y2="0.901" xlink:href="#linear-gradient-27"/>
    <linearGradient id="linear-gradient-43" x1="0.644" y1="0.038" x2="0.474" y2="0.631" xlink:href="#linear-gradient-38"/>
    <linearGradient id="linear-gradient-44" x1="0.576" y1="0.021" x2="0.452" y2="0.642" xlink:href="#linear-gradient-38"/>
    <linearGradient id="linear-gradient-45" x1="-0.211" y1="0.131" x2="0.914" y2="1.122" xlink:href="#linear-gradient-27"/>
    <linearGradient id="linear-gradient-46" x1="-0.459" y1="0.097" x2="1.165" y2="1.212" xlink:href="#linear-gradient-38"/>
    <linearGradient id="linear-gradient-47" y1="0.5" x2="1" y2="0.5" gradientUnits="objectBoundingBox">
      <stop offset="0" stop-color="#3da5d7"/>
      <stop offset="0.968" stop-color="#2f8ccd"/>
    </linearGradient>
    <linearGradient id="linear-gradient-48" y1="0.5" x2="1" y2="0.5" gradientUnits="objectBoundingBox">
      <stop offset="0" stop-color="#244294"/>
      <stop offset="0.964" stop-color="#1e6cab"/>
    </linearGradient>
    <linearGradient id="linear-gradient-49" x1="0.565" y1="0.5" x2="1.02" y2="0.5" xlink:href="#linear-gradient-48"/>
    <linearGradient id="linear-gradient-53" y1="0.5" x2="0.418" y2="0.5" gradientUnits="objectBoundingBox">
      <stop offset="0.036" stop-color="#1e6cab"/>
      <stop offset="1" stop-color="#244294"/>
    </linearGradient>
    <linearGradient id="linear-gradient-55" y1="0.5" x2="1" y2="0.5" gradientUnits="objectBoundingBox">
      <stop offset="0" stop-color="#755449"/>
      <stop offset="0.962" stop-color="#896966"/>
    </linearGradient>
    <linearGradient id="linear-gradient-56" x1="0" y1="0.5" x2="1" y2="0.5" xlink:href="#linear-gradient-32"/>
    <linearGradient id="linear-gradient-57" x1="0.547" y1="0.381" x2="0.298" y2="0.825" xlink:href="#linear-gradient-14"/>
    <linearGradient id="linear-gradient-58" x1="0.732" y1="0.119" x2="0.383" y2="0.829" xlink:href="#linear-gradient-14"/>
    <linearGradient id="linear-gradient-59" x1="0.511" y1="0.023" x2="0.423" y2="2.619" xlink:href="#linear-gradient-32"/>
    <linearGradient id="linear-gradient-60" x1="-10.25" y1="0.023" x2="-10.338" y2="2.619" xlink:href="#linear-gradient-32"/>
    <linearGradient id="linear-gradient-61" y1="0.5" x2="1" y2="0.5" gradientUnits="objectBoundingBox">
      <stop offset="0.019" stop-color="#ffe717"/>
      <stop offset="1" stop-color="#f2b333"/>
    </linearGradient>
    <linearGradient id="linear-gradient-63" x1="1.535" y1="0.348" x2="0.097" y2="0.597" gradientUnits="objectBoundingBox">
      <stop offset="0.028" stop-color="#fbbea8"/>
      <stop offset="0.375" stop-color="#f9bba5"/>
      <stop offset="0.6" stop-color="#f4b59c"/>
      <stop offset="0.791" stop-color="#edaa8d"/>
      <stop offset="0.962" stop-color="#e29a78"/>
      <stop offset="1" stop-color="#df9673"/>
    </linearGradient>
    <linearGradient id="linear-gradient-64" x1="0.651" y1="0.354" x2="0.007" y2="0.78" gradientUnits="objectBoundingBox">
      <stop offset="0" stop-color="#df9673"/>
      <stop offset="0.864" stop-color="#f7b9a1"/>
      <stop offset="0.972" stop-color="#fbbea8"/>
    </linearGradient>
    <linearGradient id="linear-gradient-65" x1="-0.061" y1="0.163" x2="0.925" y2="0.762" gradientUnits="objectBoundingBox">
      <stop offset="0.028" stop-color="#fbbea8"/>
      <stop offset="0.522" stop-color="#edab8f"/>
      <stop offset="1" stop-color="#df9673"/>
    </linearGradient>
    <linearGradient id="linear-gradient-66" x1="-57.638" y1="0.5" x2="-56.637" y2="0.5" xlink:href="#linear-gradient-48"/>
    <linearGradient id="linear-gradient-67" x1="-118.921" y1="0.5" x2="-117.921" y2="0.5" xlink:href="#linear-gradient-47"/>
    <linearGradient id="linear-gradient-68" x1="-31.602" y1="0.5" x2="-30.602" y2="0.5" xlink:href="#linear-gradient-48"/>
    <linearGradient id="linear-gradient-69" x1="-62.562" y1="0.5" x2="-61.562" y2="0.5" xlink:href="#linear-gradient-48"/>
    <linearGradient id="linear-gradient-70" x1="-128.971" y1="0.5" x2="-127.971" y2="0.5" xlink:href="#linear-gradient-47"/>
    <linearGradient id="linear-gradient-71" x1="-60.009" y1="-0.108" x2="-60.031" y2="1.655" xlink:href="#linear-gradient-63"/>
    <linearGradient id="linear-gradient-72" x1="0.794" y1="0.191" x2="0.32" y2="0.67" xlink:href="#linear-gradient-64"/>
    <linearGradient id="linear-gradient-73" x1="0.971" y1="0.112" x2="0.139" y2="0.902" xlink:href="#linear-gradient-64"/>
    <linearGradient id="linear-gradient-74" x1="1.151" y1="0.297" x2="0.177" y2="0.632" gradientUnits="objectBoundingBox">
      <stop offset="0" stop-color="#742882"/>
      <stop offset="0.954" stop-color="#49237e"/>
    </linearGradient>
    <linearGradient id="linear-gradient-76" x1="0" y1="0.5" x2="1" y2="0.5" xlink:href="#linear-gradient-47"/>
    <linearGradient id="linear-gradient-80" x1="0.506" y1="-0.109" x2="0.492" y2="0.993" xlink:href="#linear-gradient-63"/>
    <linearGradient id="linear-gradient-81" x1="0.82" y1="0.114" x2="-0.004" y2="1.12" gradientUnits="objectBoundingBox">
      <stop offset="0.013" stop-color="#ffcb32"/>
      <stop offset="0.328" stop-color="#ffc233"/>
      <stop offset="0.828" stop-color="#ffab36"/>
      <stop offset="1" stop-color="#ffa238"/>
    </linearGradient>
    <linearGradient id="linear-gradient-82" x1="0.297" y1="0.001" x2="0.729" y2="0.866" xlink:href="#linear-gradient-64"/>
    <linearGradient id="linear-gradient-83" x1="0" y1="0.5" x2="1" y2="0.5" xlink:href="#linear-gradient-63"/>
    <linearGradient id="linear-gradient-84" x1="0" y1="0.5" x2="1" y2="0.5" xlink:href="#linear-gradient-63"/>
    <linearGradient id="linear-gradient-85" x1="0.792" y1="0.132" x2="0.095" y2="0.921" gradientUnits="objectBoundingBox">
      <stop offset="0.028" stop-color="#fbbea8"/>
      <stop offset="0.314" stop-color="#f2b197"/>
      <stop offset="1" stop-color="#df9673"/>
    </linearGradient>
    <linearGradient id="linear-gradient-86" x1="0.857" y1="0.245" x2="0.106" y2="0.892" gradientUnits="objectBoundingBox">
      <stop offset="0" stop-color="#9a683e"/>
      <stop offset="0.987" stop-color="#794b2d"/>
    </linearGradient>
    <linearGradient id="linear-gradient-87" x1="0.765" y1="0.352" x2="-0.232" y2="0.993" xlink:href="#linear-gradient-85"/>
    <linearGradient id="linear-gradient-88" x1="0.76" y1="0" x2="0.072" y2="1.13" xlink:href="#linear-gradient-86"/>
    <linearGradient id="linear-gradient-89" x1="0.565" y1="0.474" x2="0.002" y2="0.67" xlink:href="#linear-gradient-61"/>
    <linearGradient id="linear-gradient-90" x1="0" y1="0.5" x2="1" y2="0.5" xlink:href="#linear-gradient-74"/>
    <linearGradient id="linear-gradient-91" x1="0" y1="0.5" x2="1" y2="0.5" xlink:href="#linear-gradient-86"/>
    <linearGradient id="linear-gradient-95" x1="-22.341" y1="-7.719" x2="-20.423" y2="-7.719" xlink:href="#linear-gradient-13"/>
    <linearGradient id="linear-gradient-96" x1="-55.969" y1="-18.535" x2="-53.859" y2="-18.535" xlink:href="#linear-gradient-48"/>
    <linearGradient id="linear-gradient-97" x1="-0.244" y1="0.805" x2="1.553" y2="0.139" xlink:href="#linear-gradient-48"/>
    <linearGradient id="linear-gradient-102" x1="-43.219" y1="-7.687" x2="-39.588" y2="-7.687" gradientUnits="objectBoundingBox">
      <stop offset="0" stop-color="#f5cde1"/>
      <stop offset="0.973" stop-color="#fcc6b3"/>
    </linearGradient>
    <linearGradient id="linear-gradient-103" x1="-0.164" y1="0.78" x2="0.992" y2="-0.016" xlink:href="#linear-gradient-48"/>
    <linearGradient id="linear-gradient-104" x1="0.448" y1="0.472" x2="1.466" y2="0.472" xlink:href="#linear-gradient-7"/>
    <linearGradient id="linear-gradient-107" x1="0.699" y1="0.14" x2="0.558" y2="0.554" xlink:href="#linear-gradient-5"/>
    <linearGradient id="linear-gradient-108" x1="0" y1="0.5" x2="1" y2="0.5" xlink:href="#linear-gradient-102"/>
    <linearGradient id="linear-gradient-110" x1="0.443" y1="0.016" x2="0.657" y2="0.905" xlink:href="#linear-gradient-5"/>
    <linearGradient id="linear-gradient-112" x1="-0.27" y1="0.882" x2="0.933" y2="0.047" xlink:href="#linear-gradient-5"/>
    <linearGradient id="linear-gradient-113" x1="0.172" y1="0.609" x2="0.824" y2="0.413" xlink:href="#linear-gradient-13"/>
    <linearGradient id="linear-gradient-114" x1="0.44" y1="0.978" x2="0.544" y2="0.049" xlink:href="#linear-gradient-13"/>
    <linearGradient id="linear-gradient-116" x1="0.532" y1="0.393" x2="0.344" y2="1.261" xlink:href="#linear-gradient-7"/>
    <linearGradient id="linear-gradient-117" x1="0.164" y1="0.737" x2="0.977" y2="0.102" gradientUnits="objectBoundingBox">
      <stop offset="0" stop-color="#c52264"/>
      <stop offset="0.259" stop-color="#d13167"/>
      <stop offset="0.69" stop-color="#e2466b"/>
      <stop offset="0.976" stop-color="#e94e6d"/>
    </linearGradient>
    <linearGradient id="linear-gradient-119" x1="0.525" y1="0.112" x2="0.501" y2="0.923" gradientUnits="objectBoundingBox">
      <stop offset="0.026" stop-color="#5c3540"/>
      <stop offset="1" stop-color="#3f212a"/>
    </linearGradient>
    <linearGradient id="linear-gradient-120" x1="0.737" y1="-1.087" x2="0.147" y2="3.15" xlink:href="#linear-gradient-119"/>
    <linearGradient id="linear-gradient-121" y1="0.5" x2="1" y2="0.5" gradientUnits="objectBoundingBox">
      <stop offset="0.026" stop-color="#8f697b"/>
      <stop offset="1" stop-color="#913b5e"/>
    </linearGradient>
    <linearGradient id="linear-gradient-122" y1="0.5" x2="1" y2="0.5" gradientUnits="objectBoundingBox">
      <stop offset="0.026" stop-color="#5c3540"/>
      <stop offset="1" stop-color="#913b5e"/>
    </linearGradient>
    <linearGradient id="linear-gradient-124" y1="0.5" x2="1" y2="0.5" gradientUnits="objectBoundingBox">
      <stop offset="0.04" stop-color="#ae948f"/>
      <stop offset="1" stop-color="#876664"/>
    </linearGradient>
    <linearGradient id="linear-gradient-125" x1="0.846" y1="0.173" x2="0.051" y2="0.924" gradientUnits="objectBoundingBox">
      <stop offset="0.028" stop-color="#ffc697"/>
      <stop offset="1" stop-color="#ab8671"/>
    </linearGradient>
    <linearGradient id="linear-gradient-126" x1="0.846" y1="0.173" x2="0.051" y2="0.924" xlink:href="#linear-gradient-125"/>
    <linearGradient id="linear-gradient-127" x1="0.982" y1="0.341" x2="-0.09" y2="0.697" xlink:href="#linear-gradient-124"/>
    <linearGradient id="linear-gradient-128" x1="-1.393" y1="0.5" x2="2.393" y2="0.5" xlink:href="#linear-gradient-119"/>
    <linearGradient id="linear-gradient-129" x1="0.642" y1="0.389" x2="0.316" y2="0.644" xlink:href="#linear-gradient-125"/>
    <linearGradient id="linear-gradient-130" x1="0" y1="0.5" x2="1" y2="0.5" xlink:href="#linear-gradient-119"/>
  </defs>
  <g id="Group_8201" data-name="Group 8201" transform="translate(-151.483 -78.778)">
    <path id="Path_1216" data-name="Path 1216" d="M284.575,211.035c47.285-7.342,97.84-1.718,138.929-29.516,34.666-23.455,55.339-62.143,91.451-84.235,72.3-44.233,153.812-1.417,197.859,61.735,36.908,52.919,32.034,113.309-.412,166.864-14.233,23.493-39.07,44.065-45.552,71.659C660.33,425.3,677.867,452.5,682.53,479.5c9.13,52.872-58.277,79.769-99.973,83.95-42.059,4.22-82.131-13.25-112.108-42.177-27.311-26.355-54.625-58.5-94.162-64.852-26.894-4.318-54.408-2.266-81.519-4.919-65.393-6.4-150.159-41.495-142.841-120.4,5.072-54.68,49.345-93.4,98.285-111.518A176.4,176.4,0,0,1,284.575,211.035Z" transform="translate(0 0.03)" fill="#feebe4"/>
    <path id="Path_1217" data-name="Path 1217" d="M386.945,97.038c-29.854,9.95-75.676,35.186-43.018,60.858,29.615,23.278,85.2-5.78,97.074-37.494,9.41-25.125-20.2-30.394-38.687-27.4A104.354,104.354,0,0,0,386.945,97.038Z" transform="translate(15.458 1.149)" fill="#feebe4"/>
    <g id="Group_8191" data-name="Group 8191" transform="translate(255.119 78.778)">
      <path id="Path_1218" data-name="Path 1218" d="M382.6,398.238a37.207,37.207,0,0,0,6.707,18.582c3.02,4.056,2.508,9.376-2.132,8.854s-9.962-9.528-13.569-14.593c-3.757-5.366-1.518-6.632-.534-12.612S382.6,398.238,382.6,398.238Z" transform="translate(-236.347 -51.735)" fill="url(#linear-gradient)"/>
      <path id="Path_1219" data-name="Path 1219" d="M377.562,412.048c-4.241-5.258-3.177-13.833-3.177-13.833l.307-2.191a2.933,2.933,0,0,0-1.62,2.421c-.984,5.98-3.223,7.247.534,12.612,3.607,5.065,8.93,14.073,13.569,14.593a3.306,3.306,0,0,0,4.018-3.411C385.453,423.984,381.582,417.034,377.562,412.048Z" transform="translate(-236.347 -51.712)" opacity="0.5" fill="url(#linear-gradient)" style="mix-blend-mode: multiply;isolation: isolate"/>
      <path id="Path_1220" data-name="Path 1220" d="M349.813,398.238a37.207,37.207,0,0,1-6.707,18.582c-3.02,4.056-2.508,9.376,2.132,8.854s9.962-9.528,13.569-14.593c3.757-5.366,1.518-6.632.534-12.612S349.813,398.238,349.813,398.238Z" transform="translate(-238.931 -51.735)" fill="url(#linear-gradient)"/>
      <path id="Path_1221" data-name="Path 1221" d="M354.85,412.048c4.241-5.258,3.177-13.833,3.177-13.833l-.307-2.191a2.933,2.933,0,0,1,1.62,2.421c.984,5.98,3.223,7.247-.534,12.612-3.607,5.065-8.929,14.073-13.569,14.593a3.306,3.306,0,0,1-4.018-3.411C346.958,423.984,350.829,417.034,354.85,412.048Z" transform="translate(-238.931 -51.712)" opacity="0.5" fill="url(#linear-gradient)" style="mix-blend-mode: multiply;isolation: isolate"/>
      <path id="Path_1222" data-name="Path 1222" d="M443.044,279.946a12.833,12.833,0,0,1-4.465-5.875c.659,2.006,4.285,3.01,4.45,2.437s-.989-2.007-3.152-5.588c-2.14-4.252-7.274-5.838-8.024-6.01L403.161,246.9s-3.309-1.274-6.973-17.2-13.74-21.336-13.74-21.336c-10.4,9.587,3.077,34.336,9.357,44.91,10.168,8.791,29.951,14.72,35.275,16.2,1.263,5.552,5.217,12.145,10.353,13.766C442.879,284.962,446.16,281.952,443.044,279.946Z" transform="translate(-235.739 -67.722)" fill="url(#linear-gradient-5)"/>
      <path id="Path_1223" data-name="Path 1223" d="M411.181,262.86l-16.6-12.782s-3.092-5.861-2.171-7.571c2.58-2.492,4.134-6.483,4.872-8.81-.442-1.562-.9-3.328-1.354-5.323a43.084,43.084,0,0,0-1.312-4.509l-12.973,6.445.163,2.167a133.364,133.364,0,0,0,9.739,19.472C396.675,256.383,404.249,260.086,411.181,262.86Z" transform="translate(-235.482 -66.4)" opacity="0.5" fill="url(#linear-gradient-5)" style="mix-blend-mode: multiply;isolation: isolate"/>
      <path id="Path_1224" data-name="Path 1224" d="M286.949,279.946a12.833,12.833,0,0,0,4.465-5.875c-.66,2.006-4.285,3.01-4.45,2.437s.989-2.007,3.152-5.588c2.139-4.252,7.274-5.838,8.024-6.01l28.691-18.01s3.309-1.274,6.972-17.2,13.741-21.336,13.741-21.336c10.4,9.587-3.077,34.336-9.357,44.91-10.168,8.791-29.952,14.72-35.276,16.2-1.262,5.552-5.216,12.145-10.352,13.766C287.114,284.962,283.833,281.952,286.949,279.946Z" transform="translate(-243.664 -67.722)" fill="url(#linear-gradient-7)"/>
      <path id="Path_1225" data-name="Path 1225" d="M315.975,262.86l16.6-12.782s3.092-5.861,2.171-7.571c-2.58-2.492-4.135-6.483-4.873-8.81.443-1.562.9-3.328,1.354-5.323a43.607,43.607,0,0,1,1.312-4.509l12.974,6.445-.163,2.167a133.361,133.361,0,0,1-9.739,19.472C330.479,256.383,322.907,260.086,315.975,262.86Z" transform="translate(-241.085 -66.4)" opacity="0.5" fill="url(#linear-gradient-5)" style="mix-blend-mode: multiply;isolation: isolate"/>
      <path id="Path_1226" data-name="Path 1226" d="M390.787,265.011H344.692s-7.28,14.6-6.537,37.609,6.537,54.707,6.537,54.707,3.612,38.86,5.338,52.065c1.353,4.15,6.742,3.659,8.213,0,1.226-2.663,3.677-38.223,2.7-51.65,1.961-9.7,6.128-43.267,5.392-56.944.736-2.735,1.408-2.238,1.408-2.238s.673-.5,1.409,2.238c-.736,13.677,3.431,47.247,5.392,56.944-.981,13.428,1.471,48.987,2.7,51.65,1.471,3.659,6.86,4.15,8.214,0,1.726-13.205,5.338-52.065,5.338-52.065s5.792-31.692,6.536-54.707S390.787,265.011,390.787,265.011Z" transform="translate(-239.197 -62.889)" fill="url(#linear-gradient-9)"/>
      <path id="Path_1227" data-name="Path 1227" d="M344.692,265.011s-7.28,14.6-6.537,37.609c.5,15.41,3.258,34.7,5.029,45.77h0s-2.657-18.532,2.135-46.688,33.887-32.275,33.887-32.275l-2.92-4.416H344.692Z" transform="translate(-239.197 -62.889)" opacity="0.5" fill="url(#linear-gradient-10)" style="mix-blend-mode: multiply;isolation: isolate"/>
      <path id="Path_1228" data-name="Path 1228" d="M349.319,164.7s7.015-10.293,18.815-4.406c6.57-.227,15.724,2.264,15.506,13.811s-.654,18.34,4.359,24.226-1.678,16.981-23.829,16.075-27.346-8.614-24.088-13.584c5.64-8.6,4.768-19.472,5.422-26.265S349.319,164.7,349.319,164.7Z" transform="translate(-239.104 -71.978)" fill="url(#linear-gradient-11)"/>
      <path id="Path_1229" data-name="Path 1229" d="M345.232,177.417h0c-.292,6.542-.627,14.892-5.15,21.791-3.258,4.97,1.935,12.679,24.088,13.584S393.011,202.6,388,196.717q-.467-.549-.871-1.107h0C352.615,201.066,345.232,177.417,345.232,177.417Z" transform="translate(-239.104 -70.362)" opacity="0.5" fill="url(#linear-gradient)" style="mix-blend-mode: multiply;isolation: isolate"/>
      <g id="Group_8190" data-name="Group 8190">
        <path id="Path_1230" data-name="Path 1230" d="M470.2,294.505a22.241,22.241,0,0,1-9.548-2.143,15.1,15.1,0,0,1-3.057-1.835l1.148-1.36a13.638,13.638,0,0,0,2.672,1.588,20.715,20.715,0,0,0,17.163.217,21.452,21.452,0,0,0,11.9-13.2c9.838-31.165,2.141-103.863-32.743-151.457-22.253-30.362-51.231-45.756-86.13-45.756-34.78,0-63.7,15.4-85.966,45.777-23.557,32.139-47.472,105.3-32.907,151.436a21.452,21.452,0,0,0,11.9,13.2,20.685,20.685,0,0,0,17.164-.218,13.619,13.619,0,0,0,2.671-1.587l1.148,1.36a15.055,15.055,0,0,1-3.056,1.833,22.479,22.479,0,0,1-18.638.243,23.224,23.224,0,0,1-12.89-14.3c-5.266-16.681-5.437-43-.457-70.4,5.728-31.514,17.67-60.859,33.625-82.627,22.3-30.423,52.521-46.5,87.4-46.5,35,0,65.275,16.074,87.564,46.483,35.215,48.045,42.957,121.519,33,153.044a23.224,23.224,0,0,1-12.89,14.3A22.75,22.75,0,0,1,470.2,294.505Z" transform="translate(-246.972 -78.778)" fill="url(#linear-gradient-13)"/>
      </g>
      <path id="Path_1231" data-name="Path 1231" d="M445.495,275.994l.628-2.925-24.652-6.492a2.693,2.693,0,1,0-1.12,5.216Z" transform="translate(-232.392 -62.762)" fill="#477d31"/>
      <path id="Path_1232" data-name="Path 1232" d="M280.72,275.994l-.627-2.925,24.651-6.492a2.693,2.693,0,1,1,1.12,5.216Z" transform="translate(-244.146 -62.762)" fill="#477d31"/>
      <path id="Path_1233" data-name="Path 1233" d="M387.756,240.987c12.285-2.925,12.927-12.431,12.927-14.186-4.973-14.625-16.286-19.634-16.286-19.634h0c-3.913-2.24-10.884-3.528-15.534-4.763a20.48,20.48,0,0,0-9.734-.194c-5.809,1.3-9.993,3.011-12.948,5.041-1.411.683-11.488,5.964-16.107,19.55,0,1.755.643,11.261,12.927,14.186.445-.715,1-1.722,1.6-2.936.078.25.156.5.231.748,5.014,16.589,2.708,25.014-.194,33.2,23.749,7.916,43.8,1.846,46.715-1.583-4.957-8.513-8.116-23.328-5.3-32.584C386.69,239.141,387.283,240.229,387.756,240.987Z" transform="translate(-239.882 -68.289)" fill="url(#linear-gradient-14)"/>
      <path id="Path_1234" data-name="Path 1234" d="M367.053,191.971c-.169.985-.393,10.5,2.14,13.623s3.936,9.682-6.225,10.339-10.837-5.087-6.445-10.668c2.027-4.923,1.8-13.294,1.8-13.294Z" transform="translate(-237.844 -69.121)" fill="url(#linear-gradient-15)"/>
      <path id="Path_1235" data-name="Path 1235" d="M357.782,197.692c.8,1.471,2.4,3.665,4.931,4.018a6.609,6.609,0,0,0,4.436-.844,40.936,40.936,0,0,1-.511-7.1,4.193,4.193,0,0,0-1.142-1.1c-.753-.216-6.994-.7-6.994-.7l-.5,1.638C357.981,194.651,357.927,196.093,357.782,197.692Z" transform="translate(-237.518 -69.121)" opacity="0.5" fill="url(#linear-gradient-16)" style="mix-blend-mode: multiply;isolation: isolate"/>
      <path id="Path_1236" data-name="Path 1236" d="M374.205,183.064s2.827-3.821,4.867-1.653c1.4,1.493.709,7.961-2.079,9.721s-4.108.44-4.4-2.2S374.205,183.064,374.205,183.064Z" transform="translate(-236.257 -70.078)" fill="url(#linear-gradient-5)"/>
      <path id="Path_1237" data-name="Path 1237" d="M351.036,183.064s-2.828-3.821-4.867-1.653c-1.4,1.493-.709,7.961,2.079,9.721s4.108.44,4.4-2.2S351.036,183.064,351.036,183.064Z" transform="translate(-238.569 -70.078)" fill="url(#linear-gradient-5)"/>
      <path id="Path_1238" data-name="Path 1238" d="M394.611,231.149c-1.08,1.349-5.523,2.336-7.823,1.737s-1.629-4.466-5.142-8.346a17.718,17.718,0,0,1,0,11.34c.644,1.314,1.237,2.4,1.709,3.16C389.749,237.518,392.973,234.216,394.611,231.149Z" transform="translate(-235.482 -66.342)" opacity="0.5" fill="url(#linear-gradient-19)" style="mix-blend-mode: multiply;isolation: isolate"/>
      <path id="Path_1239" data-name="Path 1239" d="M356.125,269.15a6.714,6.714,0,0,1-3.586-5.5c-.336-2.33,2.268-3.73,4.181-4.136.406-.086.887-.189,1.048-.572.211-.5-.3-.992-.755-1.277a19.313,19.313,0,0,0-3.569-1.395c-3.189-1.169-1.275-8.715-3.3-13.285s-4.437-14.227-4.118-16.991c-3.082,2.02-3.189,7.228-7.287,7.228s-8.042-5.026-8.042-5.026c-.051.011-.091.034-.139.047,1.022,3.573,3.97,8.672,12.393,10.676.445-.715,1-1.722,1.6-2.936.078.25.156.5.231.748,5.014,16.589,2.708,25.014-.194,33.2a71.526,71.526,0,0,0,35.257,2.833A56.725,56.725,0,0,1,356.125,269.15Z" transform="translate(-239.84 -66.218)" opacity="0.5" fill="url(#linear-gradient-19)" style="mix-blend-mode: multiply;isolation: isolate"/>
      <path id="Path_1240" data-name="Path 1240" d="M376.485,289.215a76.312,76.312,0,0,1-10.4,2.214c-4.341.467-9.17-2.808-8.48-2.214,4.152,3.562,6.677,24.949,6.677,24.956a137.667,137.667,0,0,0,.4-15.432c.736-2.735,1.408-2.238,1.408-2.238s.673-.5,1.409,2.238c-.736,13.677,3.431,47.247,5.392,56.944a228.268,228.268,0,0,0,.167,23.074c.842-4.677,4.488-24.084,7.381-26.194C369.85,321.35,376.485,289.215,376.485,289.215Z" transform="translate(-237.539 -60.83)" opacity="0.5" fill="url(#linear-gradient-21)" style="mix-blend-mode: multiply;isolation: isolate"/>
      <path id="Path_1241" data-name="Path 1241" d="M376.585,172.967c-3.331-8.2-13.113-7.777-13.113-7.777s-9.782-.42-13.113,7.777.417,17.657,2.29,20.6,6.035,6.726,10.823,6.726,8.95-3.783,10.823-6.726S379.915,181.164,376.585,172.967Z" transform="translate(-238.265 -71.406)" fill="url(#linear-gradient-5)"/>
      <path id="Path_1242" data-name="Path 1242" d="M371.174,172.786s-5.529,5.863-18.678,4.327c-1.563,5.811.913,14.416-1.842,14.936S347.231,181.58,347.826,176s8.97-14.657,19.021-12.7,11.935,8.3,12.564,13.645a27.937,27.937,0,0,1-2.513,13.915c-1.2,2.12-1.257-7.736-.978-11.505S371.174,172.786,371.174,172.786Z" transform="translate(-238.384 -71.591)" fill="url(#linear-gradient-23)"/>
      <path id="Path_1243" data-name="Path 1243" d="M362.495,182.229a25.454,25.454,0,0,0,2.918,4.928c1.2,1.222-1.029,1.738-3,1.823S361.6,182.942,362.495,182.229Z" transform="translate(-237.215 -69.952)" opacity="0.5" fill="url(#linear-gradient-16)" style="mix-blend-mode: multiply;isolation: isolate"/>
    </g>
    <g id="Group_8193" data-name="Group 8193" transform="translate(157.798 242.631)">
      <path id="Path_1244" data-name="Path 1244" d="M314,500.009c-2.181-1.09-10.57-2.725-15.1-3.27s-7.029-7.01-7.029-7.01c-2.3-3.094-9.851-1.971-9.734,2.184a99.773,99.773,0,0,0,1.223,12.722,2.933,2.933,0,0,0,2.905,2.463h29.244S316.184,501.1,314,500.009Z" transform="translate(-146.651 -207.721)" fill="url(#linear-gradient-25)"/>
      <path id="Path_1245" data-name="Path 1245" d="M222.614,489.729s-2.5,6.464-7.029,7.01-12.919,2.18-15.1,3.27-1.51,7.088-1.51,7.088H228.22a2.933,2.933,0,0,0,2.905-2.463,99.767,99.767,0,0,0,1.223-12.722C232.465,487.758,224.915,486.635,222.614,489.729Z" transform="translate(-153.755 -207.721)" fill="url(#linear-gradient-26)"/>
      <path id="Path_1246" data-name="Path 1246" d="M296.032,464.143q-.086-9.349.033-18.652l.08-4.644-.034-5.076c.008-1.727-.09-3.369-.161-5.036-.089-1.655-.122-3.358-.259-4.98-.9-13.149-2.5-25.953-4.407-38.651-.937-6.359-1.99-12.67-3.076-18.985-1.1-6.345-2.236-12.531-3.546-19.021H233.17c-1.31,6.49-2.441,12.676-3.546,19.021-1.085,6.315-2.139,12.627-3.076,18.985-1.909,12.7-3.509,25.5-4.407,38.651-.139,1.623-.172,3.325-.259,4.98-.072,1.667-.168,3.309-.161,5.036l-.034,5.076.08,4.644q.125,9.3.033,18.652c-.122,12.453-.48,25.007-1.084,37.434a7.3,7.3,0,0,0,4.343,2.291,9.309,9.309,0,0,0,5.406-.8c2.51-12.443,4.751-24.835,6.777-37.372q1.512-9.393,2.824-18.872l.634-4.749.689-4.3c.2-1.405.516-2.871.8-4.316.3-1.453.538-2.878.894-4.347,2.6-11.665,16.147-44.252,16.371-44.913.225.661,12.7,33.248,15.294,44.913.355,1.468.59,2.893.893,4.347.284,1.446.6,2.911.8,4.316l.688,4.3.635,4.749q1.306,9.483,2.824,18.872c2.025,12.536,4.265,24.929,6.776,37.372a6.85,6.85,0,0,0,5,.631,9.685,9.685,0,0,0,4.749-2.12C296.511,489.15,296.152,476.6,296.032,464.143Z" transform="translate(-151.892 -219.568)" fill="url(#linear-gradient-27)"/>
      <path id="Path_1247" data-name="Path 1247" d="M242.6,398.655c-2.488-.814-14.243.845-14.243.845a25.081,25.081,0,0,0-4.813,5.237q-.667,6.03-1.16,12.143c3.821,2.453,12.687,6.441,14,11.022,1.6,5.606,1.483,27.283,1.473,28.767.726-4.671,1.427-9.351,2.075-14.056l.634-4.749.689-4.3c.2-1.405.516-2.871.8-4.316.3-1.453.538-2.878.894-4.347,1.02-4.581,3.731-12.389,6.66-20.223C246.713,401.632,243.834,399.06,242.6,398.655Z" transform="translate(-151.75 -215.359)" opacity="0.5" fill="url(#linear-gradient-28)" style="mix-blend-mode: multiply;isolation: isolate"/>
      <path id="Path_1248" data-name="Path 1248" d="M291.629,416.963c-.578-7.1-1.338-14.12-2.239-21.075-2.532.122-5.4.906-7.346.628-2.348-.336-11.461,2.677-18.306,5.382,3.1,8.782,6.19,18.051,7.341,23.217.355,1.468.59,2.893.893,4.347.284,1.446.6,2.911.8,4.316l.688,4.3.635,4.749q.628,4.565,1.309,9.1c0-.289-.333-20.555.911-25.709C277.307,422.12,287.433,418.358,291.629,416.963Z" transform="translate(-148.221 -215.576)" opacity="0.5" fill="url(#linear-gradient-29)" style="mix-blend-mode: multiply;isolation: isolate"/>
      <path id="Path_1249" data-name="Path 1249" d="M293.413,387.479c-1-6.779-2.123-13.506-3.28-20.238-1.178-6.763-2.382-13.357-3.78-20.275H231.467c-1.4,6.918-2.6,13.512-3.779,20.275-1.158,6.732-2.281,13.459-3.28,20.238-1.434,9.539-2.687,19.142-3.648,28.882,8.979,4.794,20.642,5.428,26.076,5.345,5.176-15.245,12.462-36.774,12.648-37.327.188.552,6.757,22.06,11.629,37.3,4.928.165,16.721-.18,26.006-4.759C296.153,406.989,294.874,397.2,293.413,387.479Z" transform="translate(-151.888 -219.75)" fill="url(#linear-gradient-30)"/>
      <path id="Path_1250" data-name="Path 1250" d="M271.068,346.966H231.075c-1.4,6.918-2.6,13.512-3.779,20.275q-1,5.822-1.942,11.653c5.208-5,13.763-11.511,22.293-10.577,11.057,1.211,29.955-9,29.955-9A123.462,123.462,0,0,0,271.068,346.966Z" transform="translate(-151.496 -219.75)" opacity="0.5" fill="url(#linear-gradient-31)" style="mix-blend-mode: multiply;isolation: isolate"/>
      <path id="Path_1251" data-name="Path 1251" d="M198.366,274.626c0-1.605.85-3.418,1.89-3.692s1.886.747,3.019,0,1.292-2.214,2.9-1.174,2.072,2.059,2.959,1.561c1.579-.886,3.5.567,3.025,1.89s-2.362,2.928-1.605,3.967-1.81,4.041-2.889,4.854c1.928,3.854,5.3,16.257,7.227,25.892,4.578-26.5,16.771-30.262,16.771-30.262s5.874,19.181,4.428,28.983-14.7,25.4-21.681,25.4c-20.717-14.213-13.73-50.01-13.73-50.01S198.366,276.231,198.366,274.626Z" transform="translate(-153.799 -226.368)" fill="url(#linear-gradient-32)"/>
      <path id="Path_1252" data-name="Path 1252" d="M214.177,327.127c2.971-.625,10.32-9.225,11.771-14.7s.013-31.464,0-31.843a14.56,14.56,0,0,1,5.162-3.574s5.874,19.181,4.428,28.983-14.7,25.4-21.681,25.4a29.547,29.547,0,0,1-9.042-10.048C204.9,321.431,211.227,327.749,214.177,327.127Z" transform="translate(-153.248 -225.718)" opacity="0.5" fill="url(#linear-gradient-33)" style="mix-blend-mode: multiply;isolation: isolate"/>
      <path id="Path_1253" data-name="Path 1253" d="M216.123,296.017c-.218,4.506-.691,13.712-1.9,13.712-1.572,0-3.7-12.45-3.134-15.7,1.014,3.908,1.979,8.056,2.725,11.792A79.01,79.01,0,0,1,216.123,296.017Z" transform="translate(-152.721 -224.267)" opacity="0.5" fill="url(#linear-gradient-34)" style="mix-blend-mode: multiply;isolation: isolate"/>
      <path id="Path_1254" data-name="Path 1254" d="M316.441,274.626c0-1.605-.85-3.418-1.888-3.692s-1.887.747-3.02,0-1.292-2.214-2.9-1.174-2.072,2.059-2.96,1.561c-1.578-.886-3.5.567-3.025,1.89s2.362,2.928,1.606,3.967,1.809,4.041,2.888,4.854c-1.928,3.854-5.3,16.257-7.227,25.892-4.577-26.5-16.77-30.262-16.77-30.262s-5.874,19.181-4.429,28.983,14.7,25.4,21.681,25.4c20.718-14.213,13.731-50.01,13.731-50.01S316.441,276.231,316.441,274.626Z" transform="translate(-146.963 -226.368)" fill="url(#linear-gradient-35)"/>
      <path id="Path_1255" data-name="Path 1255" d="M300.08,327.127c-2.971-.625-10.32-9.225-11.771-14.7s-.013-31.464,0-31.843a14.562,14.562,0,0,0-5.161-3.574s-5.874,19.181-4.429,28.983,14.7,25.4,21.681,25.4a29.55,29.55,0,0,0,9.043-10.048C309.355,321.431,303.03,327.749,300.08,327.127Z" transform="translate(-146.963 -225.718)" opacity="0.5" fill="url(#linear-gradient-36)" style="mix-blend-mode: multiply;isolation: isolate"/>
      <path id="Path_1256" data-name="Path 1256" d="M284.814,336.14c-2.273-14.016,7.2-55.3,2.651-57.953-3.114-1.817-15.645-3.455-23.232-4.307a34.416,34.416,0,0,1-1.919-10.236c-1.092-.952-4.015,0-4.015,0s-2.924-.952-4.015,0a34.381,34.381,0,0,1-1.92,10.236c-7.586.852-20.117,2.49-23.231,4.307-4.545,2.651,4.924,43.937,2.651,57.953s-3.9,28.407-3.9,28.407,16.024,3.409,30.417,3.409,30.417-3.409,30.417-3.409S287.087,350.155,284.814,336.14Z" transform="translate(-151.28 -226.895)" fill="url(#linear-gradient-37)"/>
      <path id="Path_1257" data-name="Path 1257" d="M284.814,335.155c-2.273-14.016,7.2-55.3,2.651-57.953-1.5-.875-5.187-1.707-9.45-2.431-.51,7.3-.014,18.825-19.657,18.825-19.4,0-19.874-11.831-20.485-18.7-3.96.695-7.324,1.484-8.739,2.31-4.545,2.651,4.924,43.937,2.651,57.953s-3.9,28.407-3.9,28.407,16.024,3.409,30.417,3.409,30.417-3.409,30.417-3.409S287.087,349.17,284.814,335.155Z" transform="translate(-151.28 -225.91)" fill="url(#linear-gradient-38)"/>
      <path id="Path_1258" data-name="Path 1258" d="M260.282,263.645c-1.092-.952-4.015,0-4.015,0s-2.924-.952-4.015,0a26.5,26.5,0,0,1-.543,4.987,14.5,14.5,0,0,0,10.157,4.147A32.434,32.434,0,0,1,260.282,263.645Z" transform="translate(-149.247 -226.895)" opacity="0.5" fill="url(#linear-gradient-39)" style="mix-blend-mode: multiply;isolation: isolate"/>
      <path id="Path_1259" data-name="Path 1259" d="M268.22,252.183s2.427-2.5,3.947-1.455,2.377,6.592-1.6,8.406-4.323-.64-4.323-.961S268.22,252.183,268.22,252.183Z" transform="translate(-148.007 -227.983)" fill="url(#linear-gradient-40)"/>
      <path id="Path_1260" data-name="Path 1260" d="M244.162,252.183s-2.426-2.5-3.946-1.455-2.377,6.592,1.6,8.406,4.323-.64,4.323-.961S244.162,252.183,244.162,252.183Z" transform="translate(-150.337 -227.983)" fill="url(#linear-gradient-40)"/>
      <path id="Path_1261" data-name="Path 1261" d="M271.115,245.771c-1.7-11.884-14.077-11.828-14.077-11.828s-12.379-.056-14.078,11.828,4.1,23.2,14.078,24.334C267.013,268.973,272.814,257.655,271.115,245.771Z" transform="translate(-150.019 -229.393)" fill="url(#linear-gradient-42)"/>
      <path id="Path_1262" data-name="Path 1262" d="M269.766,246.741s-.176,5.988-.055,10.5,2.949-.548,3.431-4.367,2.773-15.275-4.34-19.556-15.672-5.207-20.976,0c-2.41.347-7.716.926-7.233,9.72s.843,9.258,1.2,11.457,3.438,7.354,2.835-2.134c0,0,.268-8.052,4.463-10.451C253.914,244.908,260.275,249.773,269.766,246.741Z" transform="translate(-150.199 -229.751)" fill="url(#linear-gradient-43)"/>
      <path id="Path_1263" data-name="Path 1263" d="M269.709,256.548c.12,4.513,2.949-.548,3.431-4.367a47.478,47.478,0,0,0,.672-9.666c-9.552,4.184-25.225-4.645-25.225-4.645a12.058,12.058,0,0,1-5.013,3.982,2.7,2.7,0,0,1-3-.378c0,.289,0,.563.014.87.482,8.794.843,9.258,1.2,11.457s3.438,7.354,2.835-2.134c0,0,.268-8.052,4.463-10.451,4.819,3,11.18,7.863,20.671,4.831C269.764,246.048,269.589,252.036,269.709,256.548Z" transform="translate(-150.197 -229.058)" opacity="0.5" fill="url(#linear-gradient-44)" style="mix-blend-mode: multiply;isolation: isolate"/>
      <path id="Path_1264" data-name="Path 1264" d="M259.2,256.808c-1.052-.9-2.185-3.292-2.785-4.684a.556.556,0,0,0-1.028.021,14.2,14.2,0,0,0-.812,6.716.528.528,0,0,0,.495.36C257.388,259.31,260.661,258.059,259.2,256.808Z" transform="translate(-149.015 -227.87)" opacity="0.5" fill="url(#linear-gradient-45)" style="mix-blend-mode: multiply;isolation: isolate"/>
      <path id="Path_1265" data-name="Path 1265" d="M237.4,352.362c-1.009-5.716,7.566-17.654,11.937-20.008s-9.752-7.9-13.217-13.283-4.1-29.089-3.765-32.956c.249-2.854,4.225-4.515,6.295-5.19a47.119,47.119,0,0,1-.78-6.042c-3.96.695-7.324,1.484-8.739,2.31-4.545,2.651,4.924,43.937,2.651,57.953s-3.9,28.407-3.9,28.407,16.024,3.409,30.417,3.409a143.474,143.474,0,0,0,19.086-1.49C263.882,365.236,238.407,358.051,237.4,352.362Z" transform="translate(-151.28 -225.9)" opacity="0.5" fill="url(#linear-gradient-46)" style="mix-blend-mode: multiply;isolation: isolate"/>
      <path id="Path_1266" data-name="Path 1266" d="M352.049,266.327h-2.335c-1.738,0-3.145,4.766-3.145,10.643s1.408,10.644,3.145,10.644h2.335c1.736,0,3.145-4.765,3.145-10.644S353.785,266.327,352.049,266.327Z" transform="translate(-141.154 -226.63)" fill="url(#linear-gradient-47)"/>
      <path id="Path_1267" data-name="Path 1267" d="M346.071,251.066h-4.229c-3.148,0-5.7,12.181-5.7,27.206s2.553,27.207,5.7,27.207h4.229c3.148,0,5.7-12.181,5.7-27.207S349.219,251.066,346.071,251.066Z" transform="translate(-142.044 -227.932)" fill="url(#linear-gradient-48)"/>
      <path id="Path_1268" data-name="Path 1268" d="M340.334,246.359h-9.957c-3.74,0-6.771,14.468-6.771,32.314s3.031,32.315,6.771,32.315h9.957c3.739,0,6.771-14.468,6.771-32.315S344.073,246.359,340.334,246.359Z" transform="translate(-143.113 -228.334)" fill="url(#linear-gradient-49)"/>
      <path id="Path_1269" data-name="Path 1269" d="M337.149,278.673c0,17.847-3.031,32.314-6.771,32.314s-6.771-14.467-6.771-32.314,3.031-32.313,6.771-32.313S337.149,260.827,337.149,278.673Z" transform="translate(-143.113 -228.334)" fill="url(#linear-gradient-47)"/>
      <path id="Path_1270" data-name="Path 1270" d="M160.447,266.327h2.335c1.737,0,3.145,4.766,3.145,10.643s-1.409,10.644-3.145,10.644h-2.335c-1.736,0-3.145-4.765-3.145-10.644S158.711,266.327,160.447,266.327Z" transform="translate(-157.302 -226.63)" fill="url(#linear-gradient-47)"/>
      <path id="Path_1271" data-name="Path 1271" d="M166.976,251.066h4.229c3.148,0,5.7,12.181,5.7,27.206s-2.553,27.207-5.7,27.207h-4.229c-3.148,0-5.7-12.181-5.7-27.207S163.828,251.066,166.976,251.066Z" transform="translate(-156.963 -227.932)" fill="url(#linear-gradient-48)"/>
      <path id="Path_1272" data-name="Path 1272" d="M173.331,246.359h9.957c3.739,0,6.77,14.468,6.77,32.314s-3.031,32.315-6.77,32.315h-9.957c-3.74,0-6.771-14.468-6.771-32.315S169.591,246.359,173.331,246.359Z" transform="translate(-156.512 -228.334)" fill="url(#linear-gradient-53)"/>
      <path id="Path_1273" data-name="Path 1273" d="M175.734,278.673c0,17.847,3.031,32.314,6.771,32.314s6.77-14.467,6.77-32.314-3.031-32.313-6.77-32.313S175.734,260.827,175.734,278.673Z" transform="translate(-155.729 -228.334)" fill="url(#linear-gradient-47)"/>
      <path id="Path_1274" data-name="Path 1274" d="M341.04,274.218H183.585c-1.51,0-2.735.93-2.735,2.078s1.225,2.079,2.735,2.079H341.04c1.511,0,2.736-.931,2.736-2.079S342.55,274.218,341.04,274.218Z" transform="translate(-155.293 -225.957)" fill="url(#linear-gradient-55)"/>
      <path id="Path_1275" data-name="Path 1275" d="M296.1,296.017c.219,4.506.692,13.712,1.9,13.712,1.572,0,3.7-12.45,3.133-15.7-1.014,3.908-1.979,8.056-2.725,11.792A78.821,78.821,0,0,0,296.1,296.017Z" transform="translate(-145.46 -224.267)" opacity="0.5" fill="url(#linear-gradient-56)" style="mix-blend-mode: multiply;isolation: isolate"/>
      <g id="Group_8192" data-name="Group 8192" transform="translate(70.945 164.629)" opacity="0.5" style="mix-blend-mode: multiply;isolation: isolate">
        <path id="Path_1276" data-name="Path 1276" d="M272.217,412.345,256.44,381.438c.188.552,6.757,22.06,11.629,37.3a65.744,65.744,0,0,0,20.552-2.6Z" transform="translate(-219.789 -381.438)" fill="url(#linear-gradient-57)"/>
        <path id="Path_1277" data-name="Path 1277" d="M222.67,414.426c8.63,3.872,18.978,4.415,24,4.338,5.176-15.244,12.462-36.773,12.648-37.326,0,0-12.41,21.677-16.649,26.916C238.447,413.572,222.789,414.42,222.67,414.426Z" transform="translate(-222.67 -381.438)" fill="url(#linear-gradient-58)"/>
      </g>
      <path id="Path_1278" data-name="Path 1278" d="M315.42,505.8a20.291,20.291,0,0,0,.1-2.027c-2.444.208-7.8.582-14.306.5-7.113-.085-15.035-.842-17.973-1.147.011.065.023.144.033.208a2.933,2.933,0,0,0,2.905,2.463Z" transform="translate(-146.558 -206.426)" fill="#ad887a"/>
      <path id="Path_1279" data-name="Path 1279" d="M231.141,503.228c-3.495.347-10.541.967-16.94,1.043a148.628,148.628,0,0,1-15.321-.6,20.572,20.572,0,0,0,.1,2.12h29.244a2.933,2.933,0,0,0,2.905-2.463C231.129,503.3,231.135,503.261,231.141,503.228Z" transform="translate(-153.755 -206.418)" fill="#ad887a"/>
      <path id="Path_1280" data-name="Path 1280" d="M301.118,273.728s1.872,2.135,3.016,2.23a1.4,1.4,0,0,0,1.46-.985s1.4,1.781,2.546,1.478,1.049-1.146,1.717-1.344.953,1.551,2.1,1.344,2.692-1.812,2.5-2.8S305.732,271.4,301.118,273.728Z" transform="translate(-145.032 -226.111)" fill="url(#linear-gradient-59)"/>
      <path id="Path_1281" data-name="Path 1281" d="M211.72,273.728s-1.872,2.135-3.017,2.23a1.4,1.4,0,0,1-1.458-.985s-1.4,1.781-2.547,1.478-1.048-1.146-1.716-1.344-.954,1.551-2.1,1.344-2.692-1.812-2.5-2.8S207.106,271.4,211.72,273.728Z" transform="translate(-153.799 -226.111)" fill="url(#linear-gradient-60)"/>
    </g>
    <g id="Group_8196" data-name="Group 8196" transform="translate(578.618 148.647)">
      <path id="Path_1282" data-name="Path 1282" d="M656.582,422.1s.883,5.108,5.059,5.571,11.908,1.856,13.919,2.784,1.391,6.031,1.391,6.031H647.723a33.591,33.591,0,0,1-1.532-12.921C646.8,416.539,654.462,419.47,656.582,422.1Z" transform="translate(-536.42 -119.604)" fill="url(#linear-gradient-61)"/>
      <path id="Path_1283" data-name="Path 1283" d="M582.435,422.1s-.883,5.108-5.059,5.571-11.908,1.856-13.918,2.784-1.391,6.031-1.391,6.031h29.228a33.6,33.6,0,0,0,1.534-12.921C592.223,416.539,584.556,419.47,582.435,422.1Z" transform="translate(-543.596 -119.604)" fill="url(#linear-gradient-61)"/>
      <path id="Path_1284" data-name="Path 1284" d="M677.809,211.971c0-1.579-.837-3.363-1.859-3.634s-1.857.735-2.973,0-1.27-2.178-2.85-1.156-2.039,2.026-2.913,1.537c-1.553-.872-3.44.558-2.976,1.859s2.324,2.882,1.58,3.9,1.78,3.976,2.842,4.775c-1.9,3.793-5.216,14.224-7.112,23.707-4.5-26.077-16.5-29.78-16.5-29.78s-5.78,18.875-4.359,28.521S655.147,266.7,662.023,266.7c20.387-13.986,13.512-47.439,13.512-47.439S677.809,213.552,677.809,211.971Z" transform="translate(-536.9 -137.723)" fill="url(#linear-gradient-63)"/>
      <path id="Path_1285" data-name="Path 1285" d="M660.527,259.271c-3.066-1.971-7.227-6.132-9.856-14.236s-4.468-29.141-4.468-29.141a4.332,4.332,0,0,0-2.479,1.28c-1.612,6.238-4.01,17.158-3.038,23.758,1.423,9.645,14.461,24.992,21.336,24.992a29.9,29.9,0,0,0,9.672-11.144C671.585,254.868,663.573,261.229,660.527,259.271Z" transform="translate(-536.9 -136.949)" opacity="0.5" fill="url(#linear-gradient-64)" style="mix-blend-mode: multiply;isolation: isolate"/>
      <path id="Path_1286" data-name="Path 1286" d="M594.516,218.212s-3.8-10.411-20.437-23.851c0,0,.383-20.372-5.5-33.784a2.269,2.269,0,0,0,.484-.253c1.061-.8,3.586-3.754,2.842-4.776s1.115-2.6,1.579-3.9-1.422-2.731-2.976-1.859c-.874.489-1.332-.514-2.912-1.537s-1.735.422-2.851,1.156-1.949-.269-2.972,0-1.859,2.054-1.859,3.635,2.274,7.286,2.274,7.286a.827.827,0,0,0,.122.2c-.224,2.408-2.642,29.066-1.079,38.521,0,0,7.58,35.346,36.991,47.414C601.271,239.342,594.516,218.212,594.516,218.212Z" transform="translate(-543.772 -142.751)" fill="url(#linear-gradient-65)"/>
      <g id="Group_8194" data-name="Group 8194">
        <path id="Path_1287" data-name="Path 1287" d="M548.276,143.155h6.762c1.786,0,3.234,4.712,3.234,10.526s-1.448,10.525-3.234,10.525h-6.762c-1.787,0-3.235-4.712-3.235-10.525S546.489,143.155,548.276,143.155Z" transform="translate(-545.041 -143.155)" fill="url(#linear-gradient-66)"/>
        <path id="Path_1288" data-name="Path 1288" d="M551.271,153.682c0,5.813,1.448,10.525,3.235,10.525s3.234-4.712,3.234-10.525-1.448-10.526-3.234-10.526S551.271,147.867,551.271,153.682Z" transform="translate(-544.51 -143.155)" fill="url(#linear-gradient-67)"/>
        <rect id="Rectangle_17450" data-name="Rectangle 17450" width="25.175" height="3.232" transform="translate(35.696 12.142) rotate(180)" fill="url(#linear-gradient-68)"/>
        <path id="Path_1289" data-name="Path 1289" d="M578.293,143.155h6.761c1.786,0,3.234,4.712,3.234,10.526s-1.448,10.525-3.234,10.525h-6.761c-1.788,0-3.235-4.712-3.235-10.525S576.506,143.155,578.293,143.155Z" transform="translate(-542.48 -143.155)" fill="url(#linear-gradient-69)"/>
        <path id="Path_1290" data-name="Path 1290" d="M581.288,153.682c0,5.813,1.448,10.525,3.235,10.525s3.235-4.712,3.235-10.525-1.449-10.526-3.235-10.526S581.288,147.867,581.288,153.682Z" transform="translate(-541.949 -143.155)" fill="url(#linear-gradient-70)"/>
      </g>
      <path id="Path_1291" data-name="Path 1291" d="M573.521,151.3s-1.83,2.087-2.949,2.18a1.371,1.371,0,0,1-1.426-.964s-1.371,1.742-2.49,1.446-1.026-1.12-1.678-1.314-.932,1.517-2.051,1.314-2.632-1.771-2.445-2.738S569.011,149.032,573.521,151.3Z" transform="translate(-543.725 -142.57)" fill="url(#linear-gradient-71)"/>
      <path id="Path_1292" data-name="Path 1292" d="M593.079,211.109c-.858,1.458-1.714,2.917-2.531,4.4-.881,1.6-1.587,3.656-3.277,4.59-3.826,2.112-9.967-1.179-13.018-3.444-3.8-2.823-7.161-7.947-9.4-10.544,4.838,11.409,14.68,27.883,32.949,35.379,3.049-7.115-3.706-28.245-3.706-28.245A20.384,20.384,0,0,0,593.079,211.109Z" transform="translate(-543.351 -137.784)" opacity="0.5" fill="url(#linear-gradient-72)" style="mix-blend-mode: multiply;isolation: isolate"/>
      <path id="Path_1293" data-name="Path 1293" d="M646.685,270.8c-2.236-13.792,7.082-54.42,2.609-57.029-3.028-1.766-15.1-3.36-22.59-4.207a27.575,27.575,0,0,1-1.95-9.174c-1.132-.862-4.16,0-4.16,0s-3.029-.862-4.161,0a27.572,27.572,0,0,1-1.95,9.174c-7.49.847-19.562,2.441-22.59,4.207C587.42,216.375,596.739,257,594.5,270.8s-3.841,27.954-3.841,27.954,15.769,3.355,29.933,3.355,29.932-3.355,29.932-3.355S648.921,284.585,646.685,270.8Z" transform="translate(-541.149 -138.305)" fill="url(#linear-gradient-73)"/>
      <path id="Path_1294" data-name="Path 1294" d="M661,396.833q-.091-9.2.035-18.355l.087-4.569-.036-5c.008-1.7-.1-3.315-.173-4.956-.093-1.628-.128-3.3-.276-4.9-.957-12.939-2.663-25.539-4.7-38.035-1-6.257-2.122-12.467-3.28-18.683-1.178-6.243-2.382-12.33-3.779-18.717H594c-1.4,6.387-2.6,12.475-3.779,18.717-1.157,6.216-2.281,12.426-3.279,18.683-2.035,12.5-3.741,25.1-4.7,38.035-.148,1.6-.182,3.273-.276,4.9-.076,1.641-.18,3.257-.171,4.956l-.037,5,.087,4.569q.133,9.148.035,18.355c-.129,12.254-.512,24.608-1.156,36.837a7.926,7.926,0,0,0,4.629,2.254,10.629,10.629,0,0,0,5.763-.789c2.676-12.245,5.065-24.439,7.224-36.776q1.61-9.244,3.008-18.571l.677-4.673.734-4.233c.214-1.384.55-2.825.853-4.248.323-1.43.574-2.832.953-4.278,2.77-11.478,17.212-43.546,17.451-44.2.238.65,13.532,32.718,16.3,44.2.379,1.447.63,2.848.953,4.278.3,1.423.639,2.864.853,4.248l.734,4.233.677,4.673q1.39,9.332,3.01,18.571c2.158,12.337,4.546,24.531,7.223,36.776a7.807,7.807,0,0,0,5.33.621,10.669,10.669,0,0,0,5.062-2.086C661.515,421.441,661.132,409.087,661,396.833Z" transform="translate(-541.997 -131.171)" fill="url(#linear-gradient-74)"/>
      <g id="Group_8195" data-name="Group 8195" transform="translate(112.105 64.334)">
        <path id="Path_1295" data-name="Path 1295" d="M688.347,202.432h-6.761c-1.787,0-3.235,4.714-3.235,10.526s1.448,10.525,3.235,10.525h6.761c1.786,0,3.235-4.712,3.235-10.525S690.133,202.432,688.347,202.432Z" transform="translate(-645.772 -202.432)" fill="url(#linear-gradient-48)"/>
        <path id="Path_1296" data-name="Path 1296" d="M684.82,212.958c0,5.813-1.448,10.525-3.234,10.525s-3.235-4.712-3.235-10.525,1.448-10.526,3.235-10.526S684.82,207.146,684.82,212.958Z" transform="translate(-645.772 -202.432)" fill="url(#linear-gradient-76)"/>
        <rect id="Rectangle_17451" data-name="Rectangle 17451" width="25.175" height="3.232" transform="translate(10.114 8.911)" fill="url(#linear-gradient-48)"/>
        <path id="Path_1297" data-name="Path 1297" d="M658.33,202.432h-6.763c-1.786,0-3.234,4.714-3.234,10.526s1.448,10.525,3.234,10.525h6.763c1.786,0,3.235-4.712,3.235-10.525S660.116,202.432,658.33,202.432Z" transform="translate(-648.333 -202.432)" fill="url(#linear-gradient-48)"/>
        <path id="Path_1298" data-name="Path 1298" d="M654.8,212.958c0,5.813-1.448,10.525-3.234,10.525s-3.235-4.712-3.235-10.525,1.448-10.526,3.235-10.526S654.8,207.146,654.8,212.958Z" transform="translate(-648.333 -202.432)" fill="url(#linear-gradient-76)"/>
      </g>
      <path id="Path_1299" data-name="Path 1299" d="M662.614,210.651s1.83,2.087,2.949,2.18a1.371,1.371,0,0,0,1.426-.964s1.371,1.742,2.49,1.446,1.026-1.121,1.678-1.314.933,1.517,2.051,1.314,2.632-1.772,2.445-2.738S667.125,208.379,662.614,210.651Z" transform="translate(-535.01 -137.506)" fill="url(#linear-gradient-80)"/>
      <path id="Path_1300" data-name="Path 1300" d="M646.685,269.9c-2.236-13.792,7.082-54.42,2.609-57.029-1.429-.834-4.877-1.629-8.905-2.326.66,5.11,1.109,21.345-19.8,21.345-20.895,0-20.514-16.206-19.871-21.331-3.993.694-7.4,1.484-8.823,2.312-4.473,2.609,4.846,43.237,2.609,57.029s-3.841,27.954-3.841,27.954,15.769,3.355,29.933,3.355,29.932-3.355,29.932-3.355S648.921,283.686,646.685,269.9Z" transform="translate(-541.149 -137.406)" fill="url(#linear-gradient-81)"/>
      <path id="Path_1301" data-name="Path 1301" d="M624.044,207.63a24.777,24.777,0,0,1-1.287-7.244c-1.132-.862-4.16,0-4.16,0s-3.029-.862-4.161,0a19.726,19.726,0,0,1-.365,3.475C616.593,205.6,620.225,207.491,624.044,207.63Z" transform="translate(-539.152 -138.305)" opacity="0.5" fill="url(#linear-gradient-82)" style="mix-blend-mode: multiply;isolation: isolate"/>
      <path id="Path_1302" data-name="Path 1302" d="M630.356,188.252s2.388-2.456,3.884-1.433,2.339,6.487-1.576,8.272-4.253-.631-4.253-.945S630.356,188.252,630.356,188.252Z" transform="translate(-537.928 -139.451)" fill="url(#linear-gradient-83)"/>
      <path id="Path_1303" data-name="Path 1303" d="M606.682,188.252s-2.388-2.456-3.884-1.433-2.339,6.487,1.576,8.272,4.253-.631,4.253-.945S606.682,188.252,606.682,188.252Z" transform="translate(-540.22 -139.451)" fill="url(#linear-gradient-84)"/>
      <path id="Path_1304" data-name="Path 1304" d="M633.2,181.942c-1.67-11.694-13.852-11.64-13.852-11.64s-12.183-.054-13.853,11.64,4.037,22.832,13.853,23.946C629.167,204.774,634.876,193.636,633.2,181.942Z" transform="translate(-539.907 -140.839)" fill="url(#linear-gradient-85)"/>
      <path id="Path_1305" data-name="Path 1305" d="M609.3,168.622a10.514,10.514,0,0,1,7.845-2.534c4.948.363,10.741.483,12.914-1.207s5.359-1.448,4.188,1.871a32.77,32.77,0,0,1-1.654,3.319s4.827-3.684,7.121-3.108-3.118,5.984-3.139,6c.772-.771,2.57-.573,2.915.507a2.306,2.306,0,0,1-.281,1.792,11.778,11.778,0,0,1-1.119,1.489,9.409,9.409,0,0,0-2.178,5.216,53.429,53.429,0,0,1-.544,6.676c-.965,5.079-3.2,8.432-4.477,8.1a37.007,37.007,0,0,0-.141-18.23,2.953,2.953,0,0,0-3.432-2.128,43.092,43.092,0,0,1-14.976-.135,2.967,2.967,0,0,0-3.2,1.62c-1.372,2.988-2.245,8.7-1.049,15.218.242,1.964-1.42,3.232-3,0s-7.439-16.632.437-22.242c1.721-.661,2.445,0,2.445,0A7.488,7.488,0,0,1,609.3,168.622Z" transform="translate(-540.223 -141.389)" fill="url(#linear-gradient-86)"/>
      <path id="Path_1306" data-name="Path 1306" d="M622.2,191.917A24.662,24.662,0,0,0,619,185.466a.438.438,0,0,0-.776.1c-1.587,4.565-1.359,7.224-1.207,8.1a.414.414,0,0,0,.385.353C618.592,194.114,622.732,194.286,622.2,191.917Z" transform="translate(-538.91 -139.562)" opacity="0.5" fill="url(#linear-gradient-87)" style="mix-blend-mode: multiply;isolation: isolate"/>
      <path id="Path_1307" data-name="Path 1307" d="M638.311,175.758c-1.395.071-2.858-.5-2.566-1.7-1.139,1.188-3.073-.051-4.324-1.707-3.982,2.781-16.93.933-22,0-2.953,3.575-5.717,3.7-7.516,3.19-1.589,6.284,1.995,14.412,3.18,16.833,1.584,3.232,3.245,1.964,3,0-1.2-6.515-.322-12.23,1.049-15.218a2.967,2.967,0,0,1,3.2-1.62,43.092,43.092,0,0,0,14.976.135,2.953,2.953,0,0,1,3.432,2.128,37.007,37.007,0,0,1,.141,18.23c1.272.329,3.512-3.024,4.477-8.1a53.429,53.429,0,0,0,.544-6.676,9.409,9.409,0,0,1,2.178-5.216C638.162,175.938,638.236,175.848,638.311,175.758Z" transform="translate(-540.223 -140.664)" opacity="0.5" fill="url(#linear-gradient-88)" style="mix-blend-mode: multiply;isolation: isolate"/>
      <path id="Path_1308" data-name="Path 1308" d="M594.5,269.713c-2.236,13.79-3.841,27.954-3.841,27.954s15.769,3.355,29.933,3.355a138.817,138.817,0,0,0,17.826-1.335c-.133,0-30.279-.67-35.183-7.521s3.108-14.454,8.528-16.8,2.53-3.252-4.517-7.046-6.324-10.481-10.118-21.322-5.238-34.31-5.238-34.31C587.42,215.293,596.739,255.921,594.5,269.713Z" transform="translate(-541.149 -137.223)" opacity="0.5" fill="url(#linear-gradient-89)" style="mix-blend-mode: multiply;isolation: isolate"/>
      <path id="Path_1309" data-name="Path 1309" d="M641.551,354.356c-1.433-3.939-6.092-12.749-10.6-20.939,0-.013-3.031-9.767-3.031-12.022s3.385-2.821,2.821-3.573-3.2-.563-3.2-1.87,4.891-2.267,5.641-5.088-3.761.752-12.1.941-9.529-3.573-11.6-1.881,5.077,3.761,5.829,7.9-1.53,10.976-1.53,10.976h0c-5.163,9.238-11.46,20.861-13.167,25.558-3.027,8.324-10.847,6.559-8.577,8.828s6.307,10.09,5.8,14.882c-.487,4.626-4.677,39.6-4.97,42.04,1.616-7.96,3.129-15.926,4.534-23.954q1.61-9.244,3.008-18.571l.677-4.673.734-4.233c.214-1.384.55-2.825.853-4.248.323-1.43.574-2.832.953-4.278,1.591-6.591,7.029-19.968,11.418-30.29q.449-1.057.882-2.066c.056-.132.114-.269.172-.4.145-.341.288-.672.43-1,.063-.144.126-.291.187-.433.143-.333.284-.659.423-.981l.149-.345c.148-.339.292-.672.432-1l.11-.252c.142-.328.282-.65.418-.961l.09-.207c.137-.313.271-.622.4-.916l.051-.118c.971-2.222,1.7-3.862,2.049-4.67l.048-.106.092-.214.042-.1c.03-.072.051-.123.059-.141.011.029.057.147.122.3.052.128.118.293.2.5.034.082.065.162.1.255,1.005,2.469,3.653,8.96,6.537,16.375,3.764,9.674,7.922,20.9,9.336,26.763.379,1.447.63,2.848.953,4.278.3,1.423.639,2.864.853,4.248l.734,4.233.677,4.673q1.39,9.332,3.01,18.571,1.882,10.764,4.021,21.419c1.056,1.691,1.678,2.68,1.678,2.68s-4.482-37.391-4.986-42.184,3.532-12.611,5.8-14.882S644.578,362.681,641.551,354.356Z" transform="translate(-541.066 -128.964)" opacity="0.5" fill="url(#linear-gradient-90)" style="mix-blend-mode: multiply;isolation: isolate"/>
      <path id="Path_1310" data-name="Path 1310" d="M647.011,433.114c.339,1.375.633,2.187.633,2.187h29.229a15.974,15.974,0,0,0,.089-1.606C669.417,434.1,651.761,433.521,647.011,433.114Z" transform="translate(-536.341 -118.417)" fill="url(#linear-gradient-91)"/>
      <path id="Path_1311" data-name="Path 1311" d="M561.978,433.692a15.634,15.634,0,0,0,.089,1.608h29.228s.293-.811.632-2.184C587.1,433.525,569.471,434.1,561.978,433.692Z" transform="translate(-543.596 -118.416)" fill="url(#linear-gradient-91)"/>
    </g>
    <g id="Group_8200" data-name="Group 8200" transform="translate(410.04 217.208)">
      <g id="Group_8197" data-name="Group 8197" transform="translate(89.598)">
        <path id="Path_1312" data-name="Path 1312" d="M612.268,429.08l9.767,3.763s2.618-3.389,2.171-5.327a6.706,6.706,0,0,0-1.9-3.2l-7.269-2.248Z" transform="translate(-460.325 -187.92)" fill="url(#linear-gradient-5)"/>
        <path id="Path_1313" data-name="Path 1313" d="M534.4,328.783l23.71-2.321a5.429,5.429,0,0,1,5.958,5.382c.017,4.246.064,8.541.125,12.789q.137,9.411.425,18.784c.2,6.235.456,12.461.84,18.568.322,5.127-.1,8.323.4,13.437.374,3.805,4.518,5.342,7.441,7.182,5.192,3.234,13.61,6.393,19.081,9.5,10.957,6.2,22.139,12.253,33.333,18.154a8.83,8.83,0,0,1,0,5.906,4.813,4.813,0,0,1-3.725,3.344c-12.126-4.009-24.3-7.757-36.349-12.138-6.022-2.2-15.011-4.456-21.075-6.944-5.378-2.206-11.071-4.439-15.351-8.511-4.9-4.659-6.361-11.594-8.1-17.885-.888-3.254-.713-4.537-1.462-7.722-1.494-6.37-2.823-12.686-4.1-19-2.151-10.749-4.126-21.409-5.983-32.2A5.43,5.43,0,0,1,534.4,328.783Z" transform="translate(-467.387 -196.079)" fill="url(#linear-gradient-48)"/>
        <path id="Path_1314" data-name="Path 1314" d="M619.934,422.6c.066.792,3.737,4.259,2.456,7.289s-5.253,3.363-4.506,5.14,3.758,2.389,5.219,9.081.656,5.709.79,8.931,3.019,3.744,4.939,1.855,7.589-8.773,3.455-20.05c1.559-.71,3.571-2.056,3.583-6.645s-.59-6.838-4.762-6.36S619.713,419.952,619.934,422.6Z" transform="translate(-459.854 -187.983)" fill="url(#linear-gradient-95)"/>
        <path id="Path_1315" data-name="Path 1315" d="M619.469,436.071c1.171,1.2,2.611,3.024,3.491,7.052a37.813,37.813,0,0,1,.863,5.026c1.248-.677,2.722-4,2.776-6.653.061-2.963-2.827-8.7-3.981-8.61A16.328,16.328,0,0,1,619.469,436.071Z" transform="translate(-459.711 -186.996)" fill="url(#linear-gradient-96)"/>
        <path id="Path_1316" data-name="Path 1316" d="M564.527,369.438c-.1-2.441-.2-4.884-.277-7.333q-.295-9.361-.424-18.784c-.008-.5-.009-1.009-.015-1.514-2.944.994-5.875,3.933-7.837,4.845-2.324,1.079-15.141,8.263-22.158,12.213.46,2.374.9,4.743,1.374,7.123,1.276,6.319,2.6,12.635,4.1,19,.749,3.185.574,4.468,1.462,7.722,1.738,6.29,3.2,13.226,8.1,17.885-2.828-5.042-3.694-18.789-.684-25.813C550.179,380.087,558.943,373.371,564.527,369.438Z" transform="translate(-467.018 -194.767)" opacity="0.5" fill="url(#linear-gradient-97)" style="mix-blend-mode: multiply;isolation: isolate"/>
        <path id="Path_1317" data-name="Path 1317" d="M494.591,451.092l-1.173,10.4s3.941,1.677,5.7.755a6.7,6.7,0,0,0,2.62-2.651l.339-7.6Z" transform="translate(-470.465 -185.443)" fill="url(#linear-gradient-5)"/>
        <path id="Path_1318" data-name="Path 1318" d="M495.74,426.469c1.477-16.82,4.3-33.836,12.251-48.934,4.452-8.451,9.828-16.542,14.5-24.91l10.515-17.519,5.221-8.712s-2.3-10.2,36.357,2.776c0,0,8.019,12.07-.332,22.691-6.845,8.706-16.37,15.746-24.9,22.688-6.537,5.318-14.534,10.06-19.871,16.624-2.834,3.485-6.077,6.766-8.025,10.845-1.229,2.571-2.375,5.531-3.45,8.539-2.154,6.052-4.048,12.443-5.837,18.869-3.548,12.877-6.681,22.261-9.5,35.421,0,0-1.357,1.7-4.925,1.281s-4.33-2.34-4.33-2.34C493.825,450.058,494.53,440.254,495.74,426.469Z" transform="translate(-470.465 -196.407)" fill="url(#linear-gradient-48)"/>
        <path id="Path_1319" data-name="Path 1319" d="M504.792,456.685c-.781.15-3.836,4.17-6.986,3.22s-3.9-4.863-5.592-3.932-1.974,3.993-8.471,6.159-5.606,1.262-8.8,1.74-3.4,3.4-1.318,5.11,9.533,6.608,20.305,1.294c.873,1.474,2.425,3.331,6.989,2.852s6.737-1.318,5.816-5.415S507.4,456.182,504.792,456.685Z" transform="translate(-472.269 -185.039)" fill="url(#linear-gradient-13)"/>
        <path id="Path_1320" data-name="Path 1320" d="M489.865,457.745c-1.07,1.294-2.726,2.919-6.639,4.224a37.671,37.671,0,0,1-4.9,1.4c.806,1.168,4.262,2.28,6.91,2.05,2.953-.257,8.345-3.74,8.136-4.879A16.315,16.315,0,0,1,489.865,457.745Z" transform="translate(-471.753 -184.876)" fill="url(#linear-gradient-48)"/>
        <path id="Path_1321" data-name="Path 1321" d="M631.617,434.809c1.559-.71,3.571-2.056,3.583-6.645.01-3.984-.45-6.2-3.3-6.4,1.273,1.29,1.706,3.445,1.552,7a6,6,0,0,1-3.607,5.643,29.448,29.448,0,0,1,1.354,10.865c-.194,5.3-3.928,9.21-5.543,10.662a3.463,3.463,0,0,0,2.5-1.076C630.082,452.969,635.75,446.086,631.617,434.809Z" transform="translate(-459.183 -187.946)" fill="url(#linear-gradient-102)"/>
        <path id="Path_1322" data-name="Path 1322" d="M535.145,326.394l-5.221,8.712-.343.571a47.99,47.99,0,0,0,21.849,8.12c14.944,1.811-8.477,33.228-8.64,33.446,1.186-.89,2.357-1.783,3.477-2.695,8.534-6.942,18.059-13.981,24.9-22.687,8.352-10.621.332-22.691.332-22.691C532.847,316.19,535.145,326.394,535.145,326.394Z" transform="translate(-467.38 -196.407)" opacity="0.5" fill="url(#linear-gradient-103)" style="mix-blend-mode: multiply;isolation: isolate"/>
        <path id="Path_1323" data-name="Path 1323" d="M554.244,259.6l-1.349-1.55a9.828,9.828,0,0,0-14.377-.472l-.076.076c-2.54,2.535-5.1,5.054-7.7,7.5s-5.224,4.871-7.885,7.169c-2.285,1.974-4.594,3.887-6.909,5.653a22,22,0,0,1-2.916-1.673A72.768,72.768,0,0,1,505.1,269.9c-2.6-2.38-6.142-6.7-8.639-9.291s-4.96-5.283-7.3-7.974c0,0,3.521-4.773,1.6-6.356s-2.895-1.231-2.895-1.231.776-2.6-1.591-3.346-3.888.24-4.357,1.237-2.486,1.246-3.612,1.862a5.027,5.027,0,0,0-2.05,2.494,5.552,5.552,0,0,0,1.527,6.846c3.417,2.745,6.281,2.03,6.281,2.03,1.865,3.285,3.776,6.441,5.785,9.61s5.091,8.074,7.341,11.156a84.448,84.448,0,0,0,7.548,9.1,32.4,32.4,0,0,0,5.238,4.4,17.031,17.031,0,0,0,4.107,1.981c.478.132,1,.244,1.51.342.262.047.5.1.784.128.316.022.636.034.956.038s.643,0,.964-.014l.48-.026c.174-.022.363-.059.544-.092a15.209,15.209,0,0,0,2.173-.583l.783-.392c3.641-1.7,7.057-3.532,10.415-5.422s6.6-3.865,9.828-5.866,6.388-4.061,9.538-6.148l.235-.156A9.819,9.819,0,0,0,554.244,259.6Z" transform="translate(-471.979 -203.33)" fill="url(#linear-gradient-104)"/>
        <path id="Path_1324" data-name="Path 1324" d="M535.086,257.489c-2.141,2.126-4.3,4.238-6.484,6.3-2.6,2.443-5.224,4.871-7.885,7.169-.272.234-.547.458-.819.691-.654,2.37-1.141,5.246-.544,7.488,1.194,4.476-4.933,12.606-18.649,3.478.613.686,1.242,1.371,1.9,2.051a32.4,32.4,0,0,0,5.238,4.4,17.03,17.03,0,0,0,4.107,1.981c.478.132,1,.244,1.509.342.263.047.5.1.785.128.316.022.636.034.956.038s.643,0,.964-.014l.48-.026c.174-.022.363-.059.544-.092a15.217,15.217,0,0,0,2.173-.583l.783-.392c3.641-1.7,7.057-3.533,10.415-5.422s6.6-3.865,9.828-5.866q2.374-1.475,4.707-2.986c.011-6.085-.647-12.984-1.86-14.2C542.274,261.005,538.716,259.145,535.086,257.489Z" transform="translate(-469.843 -201.961)" opacity="0.5" fill="url(#linear-gradient-5)" style="mix-blend-mode: multiply;isolation: isolate"/>
        <path id="Path_1325" data-name="Path 1325" d="M553.53,250.284a14.045,14.045,0,0,0-6.778-.809c-3.947.435-8.212,1.854-10.831,5-3.917,4.7-12.461,10.575-14.749,18.6s6.982,11.156,8.941,18.014-.16,43.446-1.388,49.589c3.862,2.107,27.731,4.037,43.527-5.265,0,0-11.439-17.6-6.328-43.723,1.633-8.642,2.225-17.857-.2-26.416a25.179,25.179,0,0,0-6.484-11.129A17.107,17.107,0,0,0,553.53,250.284Z" transform="translate(-468.128 -202.653)" fill="url(#linear-gradient-19)"/>
        <path id="Path_1326" data-name="Path 1326" d="M536.874,242.483c.109.759,1.95,10.152,0,12.745s-9.137,8.372-7.356,10.9c3.421,4.859,20.177-2.392,18.46-14.4-.4-2.828-2.854-7.34-5.034-11.1S536.874,242.483,536.874,242.483Z" transform="translate(-467.409 -203.51)" fill="url(#linear-gradient-107)"/>
        <path id="Path_1327" data-name="Path 1327" d="M493.933,469.428c.873,1.474,2.425,3.331,6.989,2.852,3.962-.416,6.115-1.109,6.013-3.964-1.147,1.4-3.243,2.064-6.8,2.29a6,6,0,0,1-6-2.982,29.432,29.432,0,0,1-10.658,2.507c-5.291.372-9.577-2.922-11.193-4.373a3.465,3.465,0,0,0,1.336,2.376C475.712,469.842,483.161,474.743,493.933,469.428Z" transform="translate(-472.267 -184.192)" fill="url(#linear-gradient-108)"/>
        <path id="Path_1328" data-name="Path 1328" d="M537.167,340.833c9.386.459,23.287-.794,33.688-6.92,0,0-11.439-17.6-6.328-43.723a63.744,63.744,0,0,0,.8-21.7c-2.325-1.04-4.162-1.723-4.486-1.437-.964.856-9.491,7.261-9.491,7.261s7.933,7.293,8.123,17.352.975,20.975-.916,23.756-8.525,5.566-5.1,6.421,8.678,4.437,6.339,7.063C557.764,331.187,550.322,337.412,537.167,340.833Z" transform="translate(-466.732 -201.15)" opacity="0.5" fill="url(#linear-gradient-19)" style="mix-blend-mode: multiply;isolation: isolate"/>
        <path id="Path_1329" data-name="Path 1329" d="M592.173,284.485c-.062-.492-.16-1.019-.265-1.526-.057-.259-.1-.5-.183-.773-.1-.3-.214-.6-.333-.9s-.247-.593-.383-.883l-.21-.433c-.087-.152-.192-.313-.293-.467a15.506,15.506,0,0,0-1.374-1.781l-.663-.571c-2.966-2.71-5.975-5.156-9.011-7.529s-6.106-4.6-9.195-6.815-6.2-4.335-9.343-6.439l-.236-.157a9.819,9.819,0,0,0-14.242,3.826l-.912,1.841a9.828,9.828,0,0,0,5.1,13.453l.1.041c3.317,1.369,6.628,2.768,9.888,4.226s6.5,2.949,9.65,4.521c2.7,1.349,5.355,2.746,7.876,4.2a22.025,22.025,0,0,1-.422,3.335,72.9,72.9,0,0,1-2.865,9.781c-1.2,3.319-4.858,10.837-6.292,14.139-1.356,3.106-2.8,6.229-4.289,9.255a3.35,3.35,0,0,0-1.239.226s-5.93-.072-6.1,2.409.69,3.068.69,3.068-2.561.887-1.787,3.245,2.465,3.016,3.548,2.814,2.464,1.292,3.621,1.846a5.042,5.042,0,0,0,3.222.208,5.553,5.553,0,0,0,4.667-5.237,8.742,8.742,0,0,0-1.218-5.281c2.146-2.788,4.188-5.574,6.2-8.445,2.139-3.069,6.531-10.4,8.511-13.66a84.582,84.582,0,0,0,5.493-10.466,32.345,32.345,0,0,0,2.042-6.526A16.984,16.984,0,0,0,592.173,284.485Z" transform="translate(-466.106 -202.21)" fill="url(#linear-gradient-110)"/>
        <path id="Path_1330" data-name="Path 1330" d="M574.3,281.914c-3.451-.524-20.584-6.725-20.584-6.725l0,.008c2.048.865,4.089,1.741,6.109,2.644,3.255,1.461,6.5,2.949,9.65,4.521,2.7,1.349,5.355,2.746,7.876,4.2a22.025,22.025,0,0,1-.422,3.335,72.946,72.946,0,0,1-2.865,9.781c-.262.725-.646,1.658-1.093,2.7h0c1.977-2.348,8.828-18.362,8.978-19.938S577.749,282.439,574.3,281.914Z" transform="translate(-465.321 -200.451)" opacity="0.5" fill="url(#linear-gradient-5)" style="mix-blend-mode: multiply;isolation: isolate"/>
        <path id="Path_1331" data-name="Path 1331" d="M545.519,246.394c-.889-1.854-1.976-3.808-3.016-5.611-1.744.424-4.062.993-6.2,1.527l-.034.049a47.885,47.885,0,0,1,.852,9.475A14.327,14.327,0,0,0,545.519,246.394Z" transform="translate(-466.809 -203.386)" opacity="0.5" fill="url(#linear-gradient-112)" style="mix-blend-mode: multiply;isolation: isolate"/>
        <path id="Path_1332" data-name="Path 1332" d="M577.481,206.393c8.241-.647,16.114,3.331,16.118,13.4,0,3.315-.992,6.442.418,9.609,1.313,2.948,4.043,5,6.395,7.078,4.57,4.042,8.65,11.35,6.411,17.58-3.153,8.772-13.5,13.2-21.825,9.044-4.9-2.445-8.979-6.406-10.609-11.86-1.875-6.279.64-12.994-1.581-19.184-2.073-5.774-5.644-5.116-10.492-6-3.118-.565-3.71-2.345-3.147-5.419C560.7,212.269,569.272,207.038,577.481,206.393Z" transform="translate(-464.871 -206.326)" fill="url(#linear-gradient-113)"/>
        <path id="Path_1333" data-name="Path 1333" d="M602.282,237.758c-2.782,7.442-12.94,10.968-20.075,7.414-7.682-3.827-3.2-13.778-5.868-20.607s-10.136-5.441-11.1-8.215a5.253,5.253,0,0,0-2.967-2.975,14.845,14.845,0,0,0-3.106,6.666c-.562,3.074.029,4.854,3.147,5.419,4.848.879,8.419.221,10.492,6,2.222,6.19-.294,12.906,1.581,19.184,1.63,5.455,5.713,9.415,10.609,11.86,8.323,4.155,18.673-.272,21.825-9.044C608.748,248.1,606,241.946,602.282,237.758Z" transform="translate(-464.871 -205.725)" opacity="0.5" fill="url(#linear-gradient-114)" style="mix-blend-mode: multiply;isolation: isolate"/>
        <path id="Path_1334" data-name="Path 1334" d="M553.721,223.506c1.055,3.916,4.142,6.489,6.893,5.748s4.125-4.517,3.069-8.434-4.142-6.489-6.893-5.748S552.665,219.589,553.721,223.506Z" transform="translate(-465.351 -205.591)" fill="url(#linear-gradient-48)"/>
        <path id="Path_1335" data-name="Path 1335" d="M558.015,229.027s2.829-13.528-11.76-15.825-18.244,12.647-18.47,15.458-5.414,7.443-4.852,8.559,3.854,1.532,3.906,3.506-.045,6.287,2.143,7.38S550.847,253.3,558.015,229.027Z" transform="translate(-467.951 -205.76)" fill="url(#linear-gradient-116)"/>
        <path id="Path_1336" data-name="Path 1336" d="M528.283,219.083c13.247-15.985,32.326-3.725,31.947,5.732-.189,15.13-10.9,21.188-13.1,20.475s-4.228-3.069-.593-4.771,2.795-7.377,0-8.133c-1.82-.493-2.628,3.309-4.359,5.656a.515.515,0,0,1-.9-.472c.49-1.424.049-3.36.869-6.422.418-1.564.4-3.849-1.743-3.217-1.534.454-1.71,1.837-1.765,3.217C526.8,226.274,528.283,219.083,528.283,219.083Z" transform="translate(-467.496 -205.897)" fill="url(#linear-gradient-117)"/>
        <path id="Path_1337" data-name="Path 1337" d="M538.633,230.538c.054-1.379.231-2.763,1.765-3.217,2.141-.632,2.161,1.653,1.743,3.217-.82,3.062-.38,5-.869,6.422a.515.515,0,0,0,.9.472c1.731-2.346,2.539-6.148,4.359-5.656,2.795.756,3.637,6.431,0,8.132s-1.608,4.058.593,4.772c1.833.594,9.546-3.527,12.194-13.647-3.779,1.859-7.332.991-8.818-3.3-1.605-4.632-7.16-3.639-13.209-3.393s-9.009-5.87-9.009-5.87S526.8,225.666,538.633,230.538Z" transform="translate(-467.496 -205.289)" opacity="0.5" fill="url(#linear-gradient-13)" style="mix-blend-mode: multiply;isolation: isolate"/>
      </g>
      <g id="Group_8199" data-name="Group 8199" transform="translate(0 72.892)">
        <path id="Path_1338" data-name="Path 1338" d="M658.8,497.162a25.278,25.278,0,0,0-19.95-15.033c-43.318-5.761-191.144-24.958-214.909-21.892-27.9,3.6-27.9,48.617-27.9,48.617H661.9A38.11,38.11,0,0,0,658.8,497.162Z" transform="translate(-389.175 -257.584)" fill="url(#linear-gradient-119)"/>
        <path id="Path_1339" data-name="Path 1339" d="M661.9,507.754a34.089,34.089,0,0,0-1.548-7.447l-32.327-.1L513.674,498c-82.994,0-103.83-17.247-109.028-25.209-8.594,14.44-8.607,34.96-8.607,34.96Z" transform="translate(-389.175 -256.484)" opacity="0.5" fill="url(#linear-gradient-120)" style="mix-blend-mode: multiply;isolation: isolate"/>
        <path id="Path_1340" data-name="Path 1340" d="M428.649,471.431l208.236,17.179a5.94,5.94,0,0,1-.577,11.859l-208.92-3.121a12.981,12.981,0,0,1,.387-25.96C428.058,471.393,428.373,471.41,428.649,471.431Z" transform="translate(-387.592 -256.604)" fill="url(#linear-gradient-121)"/>
        <path id="Path_1341" data-name="Path 1341" d="M630.094,493.518a10.15,10.15,0,1,1-10.15-10.15A10.15,10.15,0,0,1,630.094,493.518Z" transform="translate(-370.938 -255.582)" fill="url(#linear-gradient-122)"/>
        <circle id="Ellipse_44" data-name="Ellipse 44" cx="18.826" cy="18.826" r="18.826" transform="translate(17.765 241.759) rotate(-76.657)" fill="url(#linear-gradient-122)"/>
        <path id="Path_1342" data-name="Path 1342" d="M497.334,492.182a47.891,47.891,0,0,0-1.029-7.935,48.769,48.769,0,0,0-6.027-15.064,50.5,50.5,0,0,0-25.62-20.969,37.934,37.934,0,0,0-4.1-1.327l-3.519-.961-5.88-1.575-10.4-1.858-7.223-126.218L413.3,289.81A13.144,13.144,0,1,0,392.9,306.367l18.419,21.4,13.167,148.521h14.045l17.417,1.283a21.979,21.979,0,0,1,13.105,6.689,23.812,23.812,0,0,1,4.468,6.664,24.566,24.566,0,0,1,1.375,3.927,15.178,15.178,0,0,1,.443,2.078c.061.378.142.645.2,1.121l.143,1.514,2.292,24.243h16.867l2.292-24.243.144-1.514c.043-.534.053-1.276.077-1.907A35.443,35.443,0,0,0,497.334,492.182Z" transform="translate(-389.715 -272.536)" fill="url(#linear-gradient-124)"/>
        <path id="Path_1343" data-name="Path 1343" d="M435.23,483.97a7.663,7.663,0,1,1-7.663-7.663A7.664,7.664,0,0,1,435.23,483.97Z" transform="translate(-387.139 -256.184)" fill="url(#linear-gradient-125)"/>
        <path id="Path_1344" data-name="Path 1344" d="M623.009,493a3.582,3.582,0,1,1-3.581-3.582A3.582,3.582,0,0,1,623.009,493Z" transform="translate(-370.422 -255.066)" fill="url(#linear-gradient-126)"/>
        <path id="Path_1345" data-name="Path 1345" d="M478.571,487.32c-1.327-6.441-6.407-10.9-11.753-13.9a57.7,57.7,0,0,1-24.094-25.3l-2.692-5.63h0l-7.223-126.218L412.58,289.809a13.143,13.143,0,0,0-14.4-4.547c7.184,10.346,28.2,44.478,28.2,44.478l10.451,146.547,5.154.307,13.245.976a21.979,21.979,0,0,1,13.105,6.689,23.812,23.812,0,0,1,4.468,6.664,24.566,24.566,0,0,1,1.375,3.927,15.178,15.178,0,0,1,.443,2.078c.061.378.142.645.2,1.121l.143,1.514,2.292,24.243h5.225C482.047,515.992,480.894,498.6,478.571,487.32Z" transform="translate(-388.993 -272.536)" opacity="0.5" fill="url(#linear-gradient-127)" style="mix-blend-mode: multiply;isolation: isolate"/>
        <rect id="Rectangle_17452" data-name="Rectangle 17452" width="9.422" height="46.165" transform="translate(21.538 7.102) rotate(-37.677)" fill="url(#linear-gradient-128)"/>
        <path id="Path_1346" data-name="Path 1346" d="M443.979,320.616l-34.237-44.335a7.182,7.182,0,0,0-11.369,8.779l34.237,44.335a7.181,7.181,0,0,0,10.074,1.295h0A7.183,7.183,0,0,0,443.979,320.616Z" transform="translate(-389.104 -273.488)" fill="url(#linear-gradient-129)"/>
        <g id="Group_8198" data-name="Group 8198" transform="translate(26.364 19.187)">
          <path id="Path_1347" data-name="Path 1347" d="M457.894,322.614h-40.92a2.969,2.969,0,0,1,0-5.938h40.92a7.885,7.885,0,0,0,6.348-3.223,7.863,7.863,0,0,0-1.962-11.169l-8.461-5.685a2.969,2.969,0,1,1,3.311-4.928l8.46,5.685a13.8,13.8,0,0,1,3.444,19.6A13.845,13.845,0,0,1,457.894,322.614Z" transform="translate(-414.006 -291.167)" fill="url(#linear-gradient-130)"/>
        </g>
      </g>
    </g>
  </g>
</svg>
