<svg xmlns="http://www.w3.org/2000/svg" xmlns:xlink="http://www.w3.org/1999/xlink" width="806.717" height="593.505" viewBox="0 0 806.717 593.505">
  <defs>
    <clipPath id="clip-path">
      <path id="SVGID" d="M403.644,180.139c17.979,3.615,37.183-7.941,55.318-3.727,12.909,3,14.2,14.594,1.7,18.844-13.748,4.681-28.616,8.493-41.576,14.734-10.047,4.837-19.868,8.094-30.275,1.3a81.037,81.037,0,0,1-7.839-6.4c-5.973-5.063-12.708-9.135-19.408-13.183a96.126,96.126,0,0,0-14.083-7.472c-5.526-2.189-14.52-3.465-15.474-11.039-2.093-16.6,9.393-26.648,24.424-20.484,16.039,6.576,27.883,21.808,44.355,26.715Q402.21,179.852,403.644,180.139Z" transform="translate(-331.763 -150.885)" fill="none"/>
    </clipPath>
    <clipPath id="clip-path-2">
      <path id="SVGID-2" data-name="SVGID" d="M395.591,222.369a47.25,47.25,0,0,0,14.1,5.5c12.6,2.773,25.853,2.852,37.926,7.4,4.9,1.847,10.1,5.213,10.66,10.424A9.692,9.692,0,0,1,453.6,254.6c-7.325,4.559-21.125,2.189-29.235,2.128-11.036-.08-22.076-.089-33.112-.246-2.511-.016-5.1-.054-7.4-1.078a18.312,18.312,0,0,1-5.587-4.575q-22.694-24.284-45.389-48.564c-2.687-2.878-5.58-6.432-4.76-10.283,3.944-18.493,21.211-24.2,32.151-10.743C372.405,196.162,380,213.123,395.591,222.369Z" transform="translate(-327.982 -173.848)" fill="none"/>
    </clipPath>
  </defs>
  <g id="Group_8300" data-name="Group 8300" transform="translate(-123.578 -26.419)">
    <g id="Group_8292" data-name="Group 8292" transform="translate(162.975 505.84)">
      <path id="Path_1807" data-name="Path 1807" d="M903.244,236.944c.166,12.252-13.423,25.8-23.677,30.977-45.759,23.09-99.265,23.17-150.519,22.752l-169.713-1.381c-52.925-.434-104.884,1.972-157.6-.428-49.1-2.233-98.241-5.829-146.961-12.472-31.612-4.31-64.6-8.943-94.578-20.388a105.528,105.528,0,0,1-12.523-5.29C127.48,239.847,136,223.7,153.05,216.358a406.794,406.794,0,0,1,78.192-24.181C284.8,181.029,339.715,178.62,394.258,177.5q167.137-3.431,334.156,7.482c26.629,1.739,53.27,3.762,79.707,7.466,23.441,3.286,50.319,6.225,72.021,16.132C892.818,214.364,903.082,225.215,903.244,236.944Z" transform="translate(-135.926 -176.68)" fill="#c0d9bf"/>
      <path id="Path_1808" data-name="Path 1808" d="M862.59,219.564c-2.62-4.381-7.651-7.9-13.333-10.468-6.8-3.079-14.313-4.483-21.591-5.954-24.127-4.872-48.688-7.329-73.16-9.75q-79.656-7.887-159.7-10.816c-106.01-3.883-212.952-2.227-318.586,8.069-24.689,2.409-49.339,5.686-73.591,10.963-12.064,2.626-24.283,5.481-35.945,9.575-7.437,2.61-15.289,6.171-20.018,12.785-4.135,5.784-4.161,11.03,2.438,14.358,9.884,4.984,21.855,7.517,32.627,9.706,23.917,4.859,48.468,6.927,72.691,9.734,53.232,6.171,106.5,10.714,160.094,11.847,53.8,1.139,107.65.239,161.459.019,59.782-.242,119.679.351,179.387-3.127,26.335-1.535,54.007-2.974,79.021-12.118,10.749-3.931,22.328-10.433,28.029-20.8C865.354,228.242,864.968,223.546,862.59,219.564Zm-42.9,36.389c-23.164,5.686-47.243,6.943-70.978,8.181-48.2,2.521-96.493,2.4-144.744,2.565-96.869.341-194.032,3.009-290.582-6.32-22.956-2.221-45.871-4.843-68.776-7.533-23.642-2.776-47.664-4.748-70.831-10.443-5.434-1.337-10.81-2.91-16.087-4.779-3.733-1.324-11.062-3.184-9.163-9.683.855-2.913,5.7-6.48,8.031-7.992,9.141-5.947,21.013-8.337,31.459-11.023,23.7-6.1,47.907-10.044,72.2-12.861,95.207-11.033,192.169-12.96,287.918-11.177q81.7,1.517,163.192,8.206c26.175,2.15,52.367,4.508,78.434,7.721,13.42,1.653,26.8,3.663,40.039,6.455,12.335,2.6,41.184,9.479,28.23,27.643C850.138,245.972,832.4,252.829,819.687,255.952Z" transform="translate(-118.653 -167.981)" fill="#fff"/>
    </g>
    <path id="Path_1809" data-name="Path 1809" d="M303.055,372.986c-31.628-94.633-64.954-188.736-97.6-283.02-1.969-5.692-11.052-3.264-9.087,2.5,31.4,92.134,62.213,184.518,94.527,276.339C295.107,369.725,299.028,371.452,303.055,372.986Z" transform="translate(158.846 132.11)" fill="#ab733a"/>
    <path id="Path_1810" data-name="Path 1810" d="M598.533,217.74a23.983,23.983,0,0,0,3.873-4.534c2.387-3.8,1.544-7.083-.75-10.044q-18.282,3.135-36.736,5.4a769.132,769.132,0,0,1-105.739,5.456c-24.4-.437-48.765-2.045-72.969-4.818a755.149,755.149,0,0,1-110.228-21q-27.184-7.318-53.634-16.62c-4.537-1.6-9.08-3.717-13.735-4.987s-6.257-.4-9.843,2.907c-6.011,5.533-.2,9.856,6.71,12.434A750.013,750.013,0,0,0,406.69,226.313a769.926,769.926,0,0,0,109.931,1.047q13.745-.857,27.439-2.211,13.654-1.35,27.238-3.194,13.6-1.852,27.11-4.2Z" transform="translate(159.224 305.846)" fill="#ab733a"/>
    <path id="Path_1811" data-name="Path 1811" d="M527.224,370.477c-1.417-8.583-2.974-17.137-4.607-25.678-5.9-30.888-10.988-62.13-17.4-92.935,3-.517,5.319-2.281,6-6.139.638-3.612-2.083-6.914-4.859-9.313-5.2-4.5-11.218-7.919-16.955-11.706-23.026-15.19-39.426-37.036-57.019-57.826a187.674,187.674,0,0,0-51.544-42.492c-57.15-31.836-129.378-44.8-193.279-28.559-7.842,1.994-4.846,10.2,3.494,8.784,67.095-11.39,134.732.785,185.73,31.258a260.163,260.163,0,0,1,25.738,20.921c12.475,11.815,23.716,24.8,34.49,38.163,15.107,18.735,29.309,36.366,48.8,50.781.488.361,1.085.759,1.764,1.171,2.441,10.516,5.252,20.962,7.3,31.571,2.664,13.831,4.936,27.733,7.121,41.647,2.189,13.93,4.32,27.87,6.9,41.733,2.036,10.918,2.651,24.737,9.945,33.6,1.069,1.3,2.731.766,3.58-.361a7.343,7.343,0,0,0,6.735-4.572C531.276,384.9,528.139,376.016,527.224,370.477Z" transform="translate(130.177 136.681)" fill="#ab733a"/>
    <path id="Path_1812" data-name="Path 1812" d="M576.171,388.546A286.563,286.563,0,0,0,606.2,344.557c2.785-5.127,5.437-10.586,5.539-16.422.176-10.12-11.636-20.369-20.624-23.135-9.568-2.945-19.558-6.611-29.133-9.087-12.9-3.334-27.043-2.744-40.166-5.577Q473.949,280,426.127,269.5C411.183,266.212,396,262.83,382.6,255.451c-25.576-14.083-41.5-40.922-52.357-68.026s-17.957-55.851-32.1-81.392-37.432-48.356-66.39-52.093c-35.843-4.623-72.2,26.153-73.556,62.267-.5,13.48,3.162,26.737,6.975,39.681a1464.06,1464.06,0,0,0,69.861,188.369c5.047,11.186,10.513,22.682,19.9,30.585,13.037,10.966,31.134,13.056,48.092,14.686q80.182,7.7,160.359,15.4c16.677,1.6,33.374,3.357,49.866,6.4,6.86,1.27,14.616-1.388,19.545,4.48,2.415,2.875,4.872,6.423,8.611,6.761,3.57.326,6.579-2.463,9.048-5.06C559.34,408.168,568.016,398.551,576.171,388.546Z" transform="translate(75.729 59.277)" fill="#0a2d40"/>
    <path id="Path_1813" data-name="Path 1813" d="M225.894,81.8a16,16,0,0,1,3.835,2.517c5.622,5.517,10.73,11.18,17.044,15.988a114.566,114.566,0,0,0,41.883,20.12c19.217,4.728,39.3,4.377,58.87,7.3,7.1,1.062,14.134,2.552,21.16,4.039,22.1,4.665,46.225,7.482,60.56,27.206,2.352,3.238,4.221,7.2,3.506,11.135-5.079-.648-9.872-2.658-14.591-4.649-11.745-4.952-24.073-12.526-36.982-12.571q-25.93-.086-51.856-.176c-16.585-.057-33.964,1.356-50.4.026-33.4-2.706-67.446-33.128-63.106-68.731C216.456,78.753,221.87,79.832,225.894,81.8Z" transform="translate(201.23 117.766)" fill="#dea98c"/>
    <path id="Path_1814" data-name="Path 1814" d="M332.569,218.146c-3.975-15.8-18.783-32.554-23.84-48.018-3.057-9.345-5.354-18.483-3.621-28.323.054-.316.112-.625.169-.941,1.289-4.728,2.45-9.447,1.809-14.294-.986-7.456-4.987-13.908-10.357-19.029-2.2-2.1-4.467-3.988-6.537-5.6-8.828-6.872-17.446-13.968-25.7-21.52-9.4-8.6-16.7-18.821-29.963-21.071a23.036,23.036,0,0,0-7.188-.195,24.4,24.4,0,0,0-7.715,2.709c-8.3,4.371-14.836,11.607-19.673,19.648-5.258,8.736-10.025,19.389-12.319,29.325-2.227,9.652-1.535,20.142,2.961,29.057,7.051,13.994,21.964,19.134,30.346,32.394,15.369,24.322,14.37,55.235,22.714,82.77.906,2.99,1.988,6.056,4.186,8.276,7.7,7.795,31.772-3.545,40.351-6.407,15-5,33.134-8.774,43.89-21.268C333.421,234.1,334.981,223.592,332.569,218.146Z" transform="translate(137.621 71.271)" fill="#b34a0e"/>
    <path id="Path_1815" data-name="Path 1815" d="M220.922,130.4c-2.875,3.452-5.836,7.549-6.866,11.266-1.512,5.459.788,11.441,4.658,15.583s9.093,6.729,14.345,8.857c17.551,7.115,36.494,10,55.29,12.316a1026.412,1026.412,0,0,0,126.988,7.667c10.612-.019,21.568-.274,31.252-4.62,9.157-4.106,16.856-13.946,18.094-23.974C466,146.8,456.521,136.5,447.629,131.745c-5.676-3.034-11.987-4.642-18.234-6.193-32.707-8.123-66.208-15.538-99.814-13-13.755,1.04-52.906,3.57-56.563,2.01-5.443-2.326-6.011-7.791-11.729-9.339-7.9-2.138-15.959,2.565-22.366,7.667a121.922,121.922,0,0,0-15.076,14.128C222.945,128.035,221.937,129.177,220.922,130.4Z" transform="translate(197.172 171.474)" fill="#806f6f"/>
    <path id="Path_1816" data-name="Path 1816" d="M395.591,222.369a47.25,47.25,0,0,0,14.1,5.5c12.6,2.773,25.853,2.852,37.926,7.4,4.9,1.847,10.1,5.213,10.66,10.424A9.692,9.692,0,0,1,453.6,254.6c-7.325,4.559-21.125,2.189-29.235,2.128-11.036-.08-22.076-.089-33.112-.246-2.511-.016-5.1-.054-7.4-1.078a18.312,18.312,0,0,1-5.587-4.575q-22.694-24.284-45.389-48.564c-2.687-2.878-5.58-6.432-4.76-10.283,3.944-18.493,21.211-24.2,32.151-10.743C372.405,196.162,380,213.123,395.591,222.369Z" transform="translate(447.763 322.957)" fill="#005473"/>
    <path id="Path_1817" data-name="Path 1817" d="M540.277,215.891c-9.259-13.333-19.128-27.059-31.07-37.92a24.5,24.5,0,0,0-7.954-9.932c-6.113-4.54-13.4-6.41-20.844-7.45a18.4,18.4,0,0,0-3.947-.491c-1.787-.188-3.573-.364-5.344-.517l-102.143-8.934c-19.456-1.7-38.928-5.373-58.308-5.016-4.853.089-9.852.153-14.364-1.634-9.824-3.9-14.287-14.989-18.167-24.82-1.212-3.076-2.524-6.215-4.827-8.586-3.305-3.4-8.235-4.744-12.97-4.891-10.7-.335-21.131,4.856-28.482,12.635-21,22.213-31.124,58.1-24.373,87.865a51.905,51.905,0,0,0,4.154,11.847c7.817,15.573,22.9,26.073,38.424,30.69,19.587,5.82,40.339,3.883,60.57,1.9l36.411-3.57c21.335-2.09,42.69-4.183,63.824-7.938a263.328,263.328,0,0,0,48.49-13.018q1.034,2.139,2.157,4.221c9.868,18.279,24.041,33.367,38.619,47.5A666.258,666.258,0,0,0,593.209,353.2a89.38,89.38,0,0,1,12.354,9.291c5.918-6.378,21.616-23.856,27.436-30.333C612.04,301.986,549.645,229.388,540.277,215.891Z" transform="translate(179.254 173.642)" fill="#806f6f"/>
    <path id="Path_1818" data-name="Path 1818" d="M404.239,185.651c17.979,3.615,37.183-7.941,55.318-3.727,12.909,3,14.2,14.594,1.7,18.844-13.748,4.681-28.616,8.493-41.576,14.734-10.047,4.837-19.868,8.094-30.275,1.3a81.037,81.037,0,0,1-7.839-6.4c-5.973-5.063-12.708-9.135-19.408-13.183a96.126,96.126,0,0,0-14.083-7.472c-8.455-3.347-17.727-5.9-16.473-17.255a91.33,91.33,0,0,1,2.093-11.805c.721-2.926,1.63-5.9,3.542-8.232a11.776,11.776,0,0,1,14.182-2.836,21.383,21.383,0,0,1,3.822,2.8c13.761,11.827,28.17,27.165,46.139,32.518Q402.805,185.364,404.239,185.651Z" transform="translate(455.45 267.142)" fill="#005473"/>
    <path id="Path_1819" data-name="Path 1819" d="M518.133,247.678c3.095-7.182,6.081-14.428,9.486-21.447-15.245-9.811-30.505-19.635-45.038-30.476-16.208-12.1-31.488-25.445-48.273-36.724-8.43-5.663-17.21-10.784-25.984-15.9q-22.254-12.984-44.515-25.968c-8.331-4.859-20.71-4.224-30.154-4.042-11.049.211-22.021,1.557-33.051,2.109-8.082.463-16.246,1.117-23.939,3.631s-14.973,7.086-19.3,13.924c-1.429,2.256-2.543,4.9-2.109,7.536.893,5.434,7.326,7.654,12.651,9.061a134.9,134.9,0,0,1,29.717,11.5c10.015,5.414,17.066,12.67,25.5,19.992,15.688,13.617,33.884,23.821,51.991,33.871A712.19,712.19,0,0,0,489.9,265.766c5.459,1.87,10.976,3.8,15.943,6.678A192.667,192.667,0,0,0,518.133,247.678Z" transform="translate(288.233 189.641)" fill="#a18d8d"/>
    <path id="Path_1820" data-name="Path 1820" d="M548.321,421.861c-16.8-11.553-36.433-15.222-56.371-17.5-26.434-3.021-53.027-4.961-79.525-7.342Q373.391,393.5,334.354,390c-21.639-1.93-42.891-.3-62.816-10.685-16.773-8.742-24.491-33.319-31.089-49.9-9.428-23.684-17.985-47.75-26.364-71.82q-10.62-30.515-20.282-61.345-8.945-28.543-17.1-57.332c-4.263-15.047-8.5-27.522.278-41.758,12.5-20.27,40.01-31.769,62.835-34.331,8.366-.941,8.793-13.828,0-13.413A100.682,100.682,0,0,0,184.6,69.167c-9.942,7.415-23.282,17.532-26.341,30.125-3.439,14.157.118,29.028,3.672,42.792,10.7,41.468,25.052,82.228,39.263,122.745q5.312,15.152,10.877,30.212c8.359,22.612,13.707,46.551,25.474,67.781,4.744,8.557,11.161,18.926,17.886,25.955,7.578,7.919,22.146,10.481,32.493,12.14,25.981,4.167,52.766,5.115,78.961,7.412q43.915,3.853,87.833,7.7c29.637,2.562,60.225,2.517,86.813,17.456C549.173,437.782,555.391,426.723,548.321,421.861Z" transform="translate(72.904 50.36)" fill="#0f4461"/>
    <path id="Path_1821" data-name="Path 1821" d="M282.4,393.638c-31.628-94.633-64.954-188.736-97.6-283.02-1.969-5.692-11.052-3.264-9.084,2.5,31.4,92.131,62.21,184.518,94.524,276.339C274.453,390.377,278.378,392.1,282.4,393.638Z" transform="translate(113.608 177.35)" fill="#d18334"/>
    <path id="Path_1822" data-name="Path 1822" d="M577.881,242.067a26.053,26.053,0,0,0,3.874-5.051c2.386-4.237,1.547-7.9-.747-11.2q-18.287,3.494-36.74,6.021a690.929,690.929,0,0,1-105.736,6.084,684.1,684.1,0,0,1-72.972-5.373,685.658,685.658,0,0,1-110.228-23.416Q228.148,200.978,201.7,190.6c-4.537-1.777-9.08-4.141-13.735-5.555s-6.254-.444-9.843,3.238c-6.011,6.167-.2,10.985,6.71,13.863a684.97,684.97,0,0,0,201.208,49.476,690.689,690.689,0,0,0,109.932,1.164q13.745-.952,27.439-2.463,13.654-1.5,27.238-3.561,13.6-2.063,27.11-4.681Z" transform="translate(113.984 346.135)" fill="#d18334"/>
    <path id="Path_1823" data-name="Path 1823" d="M481.343,340.776c2.189,13.927,4.32,27.867,6.9,41.73,1.57,8.426,2.326,18.553,5.925,26.82,4.98-.322,9.958-.686,14.926-.868.613-5.488-1.748-12.616-2.527-17.331-1.417-8.579-2.974-17.133-4.607-25.675-3.988-20.876-7.587-41.819-11.48-62.711-1.493-8.024-2.9-16.065-3.944-24.159-.169-1.3-1.024-3.969-.281-5.191.925-1.519,2.434-.635,3.877-.236q6.021,1.67,12.041,3.334a16.352,16.352,0,0,0,6.3.881c2.119-.262,4.253-1.576,4.818-3.634.568-2.074-.565-4.231-1.918-5.906-5.561-6.892-14.788-7.8-22.781-10.341-8.471-2.693-16.977-5.918-23.942-11.594a84.526,84.526,0,0,1-9.977-10.213c-28.6-32.818-55.79-69.086-94.489-90.641-57.15-31.839-129.375-44.805-193.279-28.559-7.839,1.991-4.847,10.2,3.494,8.78,67.095-11.39,134.732.785,185.73,31.261a259.426,259.426,0,0,1,25.738,20.921c12.475,11.815,23.716,24.8,34.49,38.163,15.107,18.735,29.309,36.363,48.8,50.781.488.361,1.085.756,1.761,1.168,2.441,10.516,5.252,20.965,7.3,31.574C476.889,312.961,479.16,326.862,481.343,340.776Z" transform="translate(84.938 181.919)" fill="#d18334"/>
    <path id="Path_1824" data-name="Path 1824" d="M271.264,89.611q-.512-3.714-1.018-7.434c-2.776.431-5.577.775-8.385,1.107-10.66,1.248-20.946,3.991-31.418,6.014,4.744,20.072,9.875,40.045,14.945,60.037.322.578.7,1.107,1.066,1.646,10.615-1.407,21.23-2.8,31.867-4.02q-.78-7.514-1.656-15.021a47.965,47.965,0,0,0,12.775-27.158C290.634,92.54,281.146,88.312,271.264,89.611Zm9.875,19.756c-.8,2.166-2.313,5.893-4.33,7.223a1.334,1.334,0,0,1-1.238.281c-1.082-.443-1.12-3.149-1.308-4.626q-.4-3.149-.807-6.3c-.195-1.493-1.34-4.939-.836-6.314.6-1.634,3.337-.794,5.076-.313a6.935,6.935,0,0,1,1.758.7,5.666,5.666,0,0,1,2.511,4.3A11.265,11.265,0,0,1,281.139,109.367Z" transform="translate(234.099 122.143)" fill="#0a2d40"/>
    <g id="Group_8293" data-name="Group 8293" transform="translate(478.837 269.461)">
      <path id="Path_1825" data-name="Path 1825" d="M392.568,122.6c-.951-2.281-2.706-3.867-4.1-5.864a35.371,35.371,0,0,0-3.8-4.815,2.68,2.68,0,0,0-.992-.708,1,1,0,0,0-1.117.268.632.632,0,0,0,.306.98c-2.163-1.388-3.921-3.784-6.7-3.915a2.078,2.078,0,0,0-1.946.826c-.37.641.118,1.685.852,1.567-5.552-2.964-11.3-5.986-17.567-6.537-11.6-1.024-23.259-2.045-34.95-1.758-18.084.447-36.172,3.912-52.287,12.383-27.774,14.6-43.561,37.946-30.272,49.8s77.525,10.746,91.184,7.054c7.916-2.141,26.743-8.994,41.178-14.377a29.744,29.744,0,0,0,15.318-12.507,38.1,38.1,0,0,0,3.845-9.02c.877-3.021,2.167-6.987,1.879-10.152A10.984,10.984,0,0,0,392.568,122.6Z" transform="translate(-234.294 -102.594)" fill="#fcca59"/>
      <path id="Path_1826" data-name="Path 1826" d="M282.446,116.724l15.136-11.087a1.651,1.651,0,0,1,2.6,1.634l-3.848,20.685Z" transform="translate(-130.824 -96.635)" fill="#c99642" opacity="0.78"/>
      <path id="Path_1827" data-name="Path 1827" d="M291.434,116.049l-19.82-10.414a1.192,1.192,0,0,0-1.739,1.174l1.994,19.948Z" transform="translate(-158.375 -96.234)" fill="#c99642" opacity="0.78"/>
      <path id="Path_1828" data-name="Path 1828" d="M262.86,132.6s36.411,1.544,52.788,2.061c7.989.255,15.991.306,23.98.045,3.414-.112,6.834-.153,10.245-.351,1.63-.1,3.245-.265,4.862-.463,1.455-.176,2.875-.108,4.049-1.136a1.125,1.125,0,0,0,.383-1.2c-.089-.233-.278-.415-.357-.651-.169-.517.271-1.047.753-1.3,1.487-.785,3.583-2.872.938-4.09a2.466,2.466,0,0,0,.74-3.089c-.731-1.3-2.47-1.579-3.953-1.477-11.317.782-22.577,1.362-33.97,1.062-10.325-.274-20.633-.743-30.958-1.5q-1.742-.129-3.481-.265-4.585-.354-9.16-.779c-.377-.032-2.916-.593-3.2-.313Z" transform="translate(-173.729 -66.484)" fill="#fcca59"/>
      <path id="Path_1829" data-name="Path 1829" d="M235.447,127.437a20.837,20.837,0,0,0-.392,6.946,21.26,21.26,0,0,0,5.986,12.408c2.3,2.345,5.593,3.806,8.563,5.1,16.2,7.08,35.2,8.994,52.67,7.485,25.659-2.214,41.42-5.4,40.425-11.971-.925-6.1-27.7-.121-48.545-1.64-17.14-1.254-32.487-3.372-37.84-7.986-2.112-2.112-2.738-4.476-3.261-7.338-.542-2.974.112-4.929,1-7.852.485-1.586.97-3.3.469-4.878a5.633,5.633,0,0,0-4.5-3.484c-4.409-.788-8.739,2.147-11.314,5.813A20.954,20.954,0,0,0,235.447,127.437Z" transform="translate(-234.924 -77.382)" fill="#fcca59"/>
      <path id="Path_1830" data-name="Path 1830" d="M282.148,114.145c-.357-.584-.686-1.193-1.021-1.8a16.981,16.981,0,0,1-7.3,4.878,40.036,40.036,0,0,1-10.4,2.256,3.265,3.265,0,0,0,.6,1.047,6.336,6.336,0,0,0,2.4,1.484,72.249,72.249,0,0,1,11.419,6.234c1.075.718,3.49,2.84,5.612,3.462C281.989,126.046,280.76,119.675,282.148,114.145Z" transform="translate(-172.482 -81.224)" fill="#c99642" opacity="0.78"/>
      <path id="Path_1831" data-name="Path 1831" d="M322.918,146.282s8.12-2.217,7.383-12.552a62.08,62.08,0,0,0-3.669-15.222,15.56,15.56,0,0,0-13.247-10.274c-12.351-1.136-32.994-1.793-38.826,5.561-8.493,10.7-7.016,31.746,2.581,35.068,6.716,2.326,17.041,4.106,22.64,4.968a13.809,13.809,0,0,0,7.5-.935Z" transform="translate(-160.323 -91.764)" fill="#fcca59"/>
      <path id="Path_1832" data-name="Path 1832" d="M293.579,114.282a10.575,10.575,0,0,1-10.213,1.672c-1.35-.472-1.93,1.665-.59,2.134a12.6,12.6,0,0,0,11.92-1.9C295.809,115.338,294.708,113.414,293.579,114.282Z" transform="translate(-131.766 -77.471)" fill="#110809"/>
      <path id="Path_1833" data-name="Path 1833" d="M282.41,115.1a11.065,11.065,0,0,1-9.109.479c-1.34-.5-1.918,1.643-.59,2.134a13.246,13.246,0,0,0,10.816-.7C284.8,116.362,283.677,114.447,282.41,115.1Z" transform="translate(-153.796 -75.492)" fill="#110809"/>
      <path id="Path_1834" data-name="Path 1834" d="M279.68,108.562c-.274-1.4-2.409-.8-2.138.59a17.7,17.7,0,0,1,.185,5.785c-.192,1.394,1.943,2,2.134.59A21.1,21.1,0,0,0,279.68,108.562Z" transform="translate(-141.618 -91.267)" fill="#c99642"/>
      <path id="Path_1835" data-name="Path 1835" d="M281.586,108.885c-.083-1.417-2.3-1.426-2.214,0a56.065,56.065,0,0,1,.054,5.813c-.061,1.426,2.154,1.423,2.214,0A56.065,56.065,0,0,0,281.586,108.885Z" transform="translate(-137.564 -91.147)" fill="#c99642"/>
      <path id="Path_1836" data-name="Path 1836" d="M283.592,108.654c-.207-1.4-2.342-.807-2.135.59a14.175,14.175,0,0,1-.159,4.949c-.287,1.391,1.847,1.985,2.138.587A17.264,17.264,0,0,0,283.592,108.654Z" transform="translate(-133.396 -91.073)" fill="#c99642"/>
      <path id="Path_1837" data-name="Path 1837" d="M339.973,116.12q-14.879,2.814-29.625,6.241c-1.388.322-.8,2.457.59,2.135.258-.061.517-.115.775-.176a1.312,1.312,0,0,0-.153.817,1.114,1.114,0,0,0,.329,2.16c.169.006.341,0,.514.01-.644,1.139-3.108,2.16-3.7,2.3-1.748.434-5.057.482-4.872-2.147a.947.947,0,0,0-.128-.565,1.238,1.238,0,0,0,.124-.1,8.631,8.631,0,0,0,1.838-3.028,1.121,1.121,0,0,0-1.069-1.4,17,17,0,0,0-2.907.07c-.8.093-1.962.1-2.568.708-1.445,1.455,1.381,3.283,2.387,3.985a1.188,1.188,0,0,0,.172.1,1.037,1.037,0,0,0-.064.233,5.207,5.207,0,0,0,.006.775,1.01,1.01,0,0,0-.373.562c-.485,1.924-3.417,1.889-4.965,1.7a10.054,10.054,0,0,1-2.945-1.059c.281-.083.565-.15.846-.233a1.108,1.108,0,0,0-.587-2.134c-.175.051-.354.092-.53.144a1.07,1.07,0,0,0,.456-.909c.351.006.705.013,1.056.016a1.108,1.108,0,0,0,0-2.214q-12.319-.2-24.641-.4a1.108,1.108,0,0,0,0,2.214q10.491.167,20.981.338a2.881,2.881,0,0,0-.574,1.691,189.662,189.662,0,0,1-19.6,4.212c-1.4.223-.807,2.358.59,2.138a190.206,190.206,0,0,0,19.676-4.234,5.41,5.41,0,0,0,2.434,2c2.7,1.1,7.533,1.3,9.358-1.391,1.815,1.6,5.268,1.576,7.523.75,1.828-.673,3.759-2.316,4.208-4.087a204.408,204.408,0,0,0,25.308-1.008c1.4-.147,1.42-2.364,0-2.217a204.207,204.207,0,0,1-25.639,1.005,4.13,4.13,0,0,0-1.059-1.126q13.649-3.13,27.407-5.737C341.961,117.993,341.368,115.859,339.973,116.12Z" transform="translate(-160.555 -73.011)" fill="#110809"/>
      <path id="Path_1838" data-name="Path 1838" d="M320.758,135.27c-13.9,1.056-27.886,1.752-41.809.616a119.689,119.689,0,0,1-21.2-3.42c-6.148-1.643-17.494-5.373-16.511-13.547.124-1.021-1.48-1.015-1.6,0-.686,5.7,4.291,9.537,8.867,11.847,6.786,3.423,14.591,4.773,22.053,5.807,16.645,2.3,33.5,1.57,50.2.3C321.779,136.8,321.789,135.19,320.758,135.27Z" transform="translate(-224.745 -68.506)" fill="#c99642" opacity="0.78"/>
      <path id="Path_1839" data-name="Path 1839" d="M294.622,128.32c-1.11-.976-2.929-1.5-4.183-2.342-1.187-.8-2.284-1.726-3.471-2.521a38.586,38.586,0,0,0-4.856-2.607c-6.193-2.948-12.424-5.912-19.025-7.766a14.138,14.138,0,0,0-4.135-.654c-.632.016-3.449.472-1.8,1.343,2.4,1.267,5.239,1.3,7.913,1.774a34.753,34.753,0,0,1,9.645,3.481,83.1,83.1,0,0,1,8.615,4.76,73.491,73.491,0,0,0,10.724,5.966C295.174,130.263,295.209,128.84,294.622,128.32Z" transform="translate(-187.352 -81.05)" fill="#c99642" opacity="0.78"/>
      <path id="Path_1840" data-name="Path 1840" d="M277.372,121.258a102.023,102.023,0,0,1-29.43-1.583c-1.034-.214-1.484,1.35-.44,1.6a86.83,86.83,0,0,0,29.87,1.991C278.632,123.125,278.673,121.15,277.372,121.258Z" transform="translate(-208.673 -65.218)" fill="#c99642"/>
    </g>
    <path id="Path_1841" data-name="Path 1841" d="M183.792,101.637c-2.737,9.24-2.524,18.821-1.637,28.131a197.445,197.445,0,0,0,7.377,37.863c7.038,23.543,21.122,47.757,46.436,53.959C281.3,232.7,323.9,191.895,348,158.627c5.277-7.287,10.29-14.619,17.137-20.547,5.322-4.607,12.4-8.353,15.934-14.651,3-5.331,2.734-11.917,1.353-17.874a5.631,5.631,0,0,0-1.413-3c-1.557-1.413-4.007-.8-5.992-.1-10.066,3.526-25.4,7.444-30.371,17.513a82.564,82.564,0,0,1-24.469,29.2c-10.832,8.27-23.068,14.482-35.32,20.452-10.96,5.341-25.611,12.6-37.537,6.3-9.9-5.233-16.3-16.5-19.383-26.9-6.317-21.316-2.383-44.627,1.589-67.111C211.92,77.2,188.865,84.506,183.792,101.637Z" transform="translate(127.013 118.474)" fill="#f5c2a6"/>
    <path id="Path_1842" data-name="Path 1842" d="M245.891,112c.108-2.53.22-5.063.31-7.6-1.123-2.249-2.45-4.416-3.727-6.589-2.431-4.125-4.63-8.382-6.713-12.689-2.1-4.346-4.2-8.05-3.905-13,.112-1.889.447-3.771.622-5.654-.852-1.8-1.637-3.618-2.377-5.462-22.691,17.4-40.46,38.1-48.3,66.559a151.067,151.067,0,0,0,1.372,82.429c2.473-.115,5.494-1.2,7.367-1.611,9.428-2.058,18.853-4.109,28.31-6.027,9.064-1.838,18.126-3.663,27.142-5.673C239,169.151,237.988,139.383,245.891,112Z" transform="translate(116.432 75.76)" fill="#b34a0e"/>
    <path id="Path_1843" data-name="Path 1843" d="M232.16,118.117a30.563,30.563,0,0,1-4.54,2.144,17.944,17.944,0,0,1-11.764.577c-4.094-1.366-7.278-4.54-10.87-6.93-6.672-4.444-15.06-6.368-20.64-12.121-8.544-8.809-12.689-20.423-9.872-32.662,2.671-11.582,10.7-21.441,20.48-28.2a64.992,64.992,0,0,1,16.281-8.158c8.324-2.795,17.759-3.8,25.691-.029,8.193,3.893,13.483,12.341,15.745,21.128,3.283,12.743,2.734,28.135-.766,40.769a33.928,33.928,0,0,1-7.077,13.745,43.436,43.436,0,0,1-6.853,5.883A62.245,62.245,0,0,1,232.16,118.117Z" transform="translate(109.57 8.442)" fill="#110809"/>
    <path id="Path_1844" data-name="Path 1844" d="M247.2,125.884c-.941-1.6-2.01-3.155-2.8-4.767q-3.163-6.423-5.807-13.078c-1.161-2.926-2.856-6.212-3.363-9.326-.485-2.99,1.171-5.453,2.466-7.986,2.667-5.213,5.108-12.383,4.591-18.308a31.059,31.059,0,0,0-1.547-6.735,114.328,114.328,0,0,0-10.554-23.425,26.417,26.417,0,0,0-5.6-7.15,15.214,15.214,0,0,0-10.749-3.334c-3.226.217-6.531-.1-9.789.472-5.922,1.043-13.292,4.54-16.355,9.964-3.57,6.321-4.594,14.5-3.612,21.6,1.088,7.839,4.655,15.069,7.753,22.35,4.25,9.983,7.089,20.458,11.1,30.467,3.242,8.094,6.617,16.4,12.622,22.72s15.344,10.277,23.6,7.488c6.206-2.1,10.813-9,10.1-15.564A13.723,13.723,0,0,0,247.2,125.884Z" transform="translate(131.746 11.651)" fill="#f5c2a6"/>
    <path id="Path_1845" data-name="Path 1845" d="M208.255,46.984a6,6,0,0,0,.262-1.6c0-.507-.727-.89-1.082-.447-1.123,1.4-1.8,3.006-3.251,4.148a6.926,6.926,0,0,1-6.544,1.181c-1.563-.514-2.268,2.131-.676,2.444,3.676.721,8.819-.887,10.74-4.413a8.3,8.3,0,0,0,.683-1.263Z" transform="translate(158.786 40.15)"/>
    <path id="Path_1846" data-name="Path 1846" d="M265.225,38.892a7.724,7.724,0,0,0-.954-3,5.6,5.6,0,0,0-5.663-2.865c-1.452.287-2.658,1.26-3.982,1.93-2.68,1.359-4.942,1.429-7.341-.217-2.457-1.691-5.162-3.27-8.209-3.459a15.581,15.581,0,0,0-4.955.66,38.1,38.1,0,0,0-8.2,3.254c-1.452.782-5.028,2.9-6.576,1.155A14.558,14.558,0,0,1,217.4,32.9a8.06,8.06,0,0,0-3.468-3.835,18.843,18.843,0,0,0-11.416-2.591c-12.654.887-27.6,10.65-32.764,22.388-4.789,10.883,1.63,20.254,12.724,22.226A42.6,42.6,0,0,0,210.557,66a11.466,11.466,0,0,0,.431,3.248,29.994,29.994,0,0,0,6.85,11.993c1.892,2.055,6.116,5.954,9.323,5,1.614-.479,3.991-.912,4.821.954,3.937,8.876,7.064,15.742,6.652,25.78a.928.928,0,0,0,1.815.246c3.573-14.932-7.705-26.121-8.6-40.4-.281-4.46.9-9.224,4.141-12.3,2.578-2.45,6.113-3.564,9.514-4.6,7.728-2.361,17.488-4.157,19.51-13.448A11.059,11.059,0,0,0,265.225,38.892Z" transform="translate(97.634 0)" fill="#110809"/>
    <path id="Path_1847" data-name="Path 1847" d="M191.351,43.323a7.5,7.5,0,0,0-8.343,5.944,9.306,9.306,0,0,0,6.4,10.484,9.492,9.492,0,0,0,10.009-3.095,5.832,5.832,0,0,0,.948-1.86,6.57,6.57,0,0,0-.552-4.135,13.188,13.188,0,0,0-4.464-5.832A8.486,8.486,0,0,0,191.351,43.323Z" transform="translate(129.797 36.929)" fill="#f5c2a6"/>
    <path id="Path_1848" data-name="Path 1848" d="M201.286,41.051c-2.163-.673-2.626,2.329-3.529,3.609-1.745,2.479-4.882,2.868-7.638,2.179a.532.532,0,0,0-.408.967c5.038,3.593,10.13-1.64,11.971-6.056A.575.575,0,0,0,201.286,41.051Z" transform="translate(144.341 31.84)"/>
    <path id="Path_1849" data-name="Path 1849" d="M206.129,38.047a.643.643,0,0,0-1.059-.281c-1.232.96-1.764,2.441-3.143,3.312a7.474,7.474,0,0,1-4.681,1.05c-.833-.077-.916,1.161-.188,1.4a7.154,7.154,0,0,0,6.107-.782C204.715,41.789,206.579,40.031,206.129,38.047Z" transform="translate(159.879 24.494)"/>
    <g id="Group_8295" data-name="Group 8295" transform="translate(787.808 423.539)">
      <g id="Group_8294" data-name="Group 8294" clip-path="url(#clip-path)">
        <path id="Path_1850" data-name="Path 1850" d="M368.989,155.245c-3.909,4.99-3.14,11.508-3.159,17.551-.035,11.5.3,22.982.833,34.465l.118-.029c.526,3.465,5.992,3.366,5.737-.619q-.79-12.405-1.33-24.823c-.284-6.352-2.8-18.617.877-24.082C373.462,155.634,370.574,153.222,368.989,155.245Z" transform="translate(-257.244 -143.006)" fill="#fcca59"/>
        <path id="Path_1851" data-name="Path 1851" d="M386.628,165.419a2.979,2.979,0,0,0-5.52.954c-.275,1.015-.495,2.039-.743,3.057-.115-2.613-.163-5.239-.121-7.881.048-3.184-4.9-3.06-5.443-.108-.182-1.748-.376-3.5-.562-5.245-.274-2.594-4.228-2.147-4.02.447.775,9.639.242,19.638,1.311,29.267.022,1.608-1.193,18.126,4.164,13.525a7.587,7.587,0,0,0,2.568-5.839c1.688,1.4,4.709,1.171,4.863-1.589.038-.7.118-1.394.169-2.09.089,0,.172,0,.258,0-.073.992-.131,1.984-.217,2.97a2.373,2.373,0,0,0,4.684.75c2.511-8.586,2.817-16.655,1.946-25.528A3.009,3.009,0,0,0,386.628,165.419Z" transform="translate(-247.537 -143.057)" fill="#fcca59"/>
        <path id="Path_1852" data-name="Path 1852" d="M368.962,169.9c-7.1-5.338-16.326-1.41-20.713,5.312a2.108,2.108,0,0,0,1.037,3.235,8.005,8.005,0,0,0,.121,6.643c3.2,7.252,12.51,7.211,18.486,3.758A11.3,11.3,0,0,0,368.962,169.9Z" transform="translate(-296.522 -114.679)" fill="#fcca59"/>
        <path id="Path_1853" data-name="Path 1853" d="M360.4,157.863a11.439,11.439,0,0,0,.9-3.822,2.149,2.149,0,0,0-.536-1.745,1.711,1.711,0,0,0-1.969-.035,5.043,5.043,0,0,0-1.423,1.535q-2.852,4.111-5.7,8.216c-4.713,6.793-9.451,13.621-13,21.087-.708,1.487-1.337,3.35-.357,4.671,1.876,2.543,3.51.68,4.853-1.1,2.441-3.238,4.065-6.987,6.011-10.522,2.045-3.717,4.451-7.214,6.761-10.765A46.524,46.524,0,0,0,360.4,157.863Z" transform="translate(-318.54 -148.516)" fill="#fcca59"/>
      </g>
    </g>
    <g id="Group_8297" data-name="Group 8297" transform="translate(775.744 496.806)">
      <g id="Group_8296" data-name="Group 8296" clip-path="url(#clip-path-2)">
        <path id="Path_1854" data-name="Path 1854" d="M383.268,195.96a39.011,39.011,0,0,0-3.494-2.626q-.828-.569-1.656-1.145c-5.456-3.781-8.155-.657-8.487,4.547-.571,8.911-5.36,15.959-7.128,24.248a4.148,4.148,0,0,0,.1,2.795,3.649,3.649,0,0,0,2.581,1.6,20.549,20.549,0,0,0,6.439.032c2.967-.294,7.574.175,9.728-1.764,1.876-1.691,3.092-5.874,3.944-8.181,1.94-5.249,3.711-12.459-.006-17.373A14.235,14.235,0,0,0,383.268,195.96Z" transform="translate(-252.779 -137.331)" fill="#fcca59"/>
        <path id="Path_1855" data-name="Path 1855" d="M376.938,189.009c-1.953,9.1-4.208,18.167-7.775,26.788-3.605,8.707-9.422,15.363-14.026,23.409a1.912,1.912,0,0,0,2.6,2.6c15.79-9.99,20.356-34.87,22.762-51.815C380.817,187.708,377.448,186.633,376.938,189.009Z" transform="translate(-269.025 -143.571)" fill="#fcca59"/>
        <path id="Path_1856" data-name="Path 1856" d="M364.464,198.423c-7.169-7.9-18.525-.3-23.282,6.407-1.19,1.675.753,3.688,2.425,3.43a13.056,13.056,0,0,0,.44,5.182c2.285,7.463,10.851,12.137,18.116,8.579C370.8,217.79,370.373,204.932,364.464,198.423Z" transform="translate(-299.869 -127.396)" fill="#fcca59"/>
        <path id="Path_1857" data-name="Path 1857" d="M377.142,178.536c-8.219,4.381-13.148,11.914-19.207,18.726-7.543,8.484-16.129,15.35-25.387,21.852-3.478,2.444.08,7.236,3.111,5.309l.022.054a112.511,112.511,0,0,0,22.35-18.675c7.16-7.654,12.284-17.762,21.533-23.122C382.244,181.126,379.867,177.087,377.142,178.536Z" transform="translate(-321.124 -164.256)" fill="#fcca59"/>
      </g>
    </g>
    <path id="Path_1858" data-name="Path 1858" d="M276.6,158.533a1,1,0,0,0-.533,1.934,30.246,30.246,0,0,1,7.8,3.427c2.214,1.42,3.963,3.433,6.241,4.738a.628.628,0,0,0,.913-.7C289.146,162.538,281.84,159.3,276.6,158.533Z" transform="translate(332.462 289.378)" fill="#0f4461"/>
    <path id="Path_1859" data-name="Path 1859" d="M281.67,154.174c-1.082-.392-1.8,1.324-.782,1.857a14.373,14.373,0,0,1,3.758,2.8,14.672,14.672,0,0,0,2.977,2.954,1,1,0,0,0,1.487-.855C288.827,157.463,284.561,155.217,281.67,154.174Z" transform="translate(343.531 279.731)" fill="#0f4461"/>
    <path id="Path_1860" data-name="Path 1860" d="M290.293,156.925a13.614,13.614,0,0,0-3.813-4.834c-1.3-1.056-3.178.766-1.867,1.866a11.564,11.564,0,0,1,3.232,4.192c.581,1.315.689,3.12,1.745,4.141a.806.806,0,0,0,1.244-.16C291.879,160.658,290.973,158.389,290.293,156.925Z" transform="translate(351.786 274.6)" fill="#0f4461"/>
    <path id="Path_1861" data-name="Path 1861" d="M289.3,154.173c-.246-1.3-2.259-.753-1.984.546a41.716,41.716,0,0,0,1.707,7.262c.313.763,1.531.743,1.528-.207A42.925,42.925,0,0,0,289.3,154.173Z" transform="translate(358.616 278.232)" fill="#0f4461"/>
    <path id="Path_1862" data-name="Path 1862" d="M284.883,160.183q-6.461-3.178-12.992-6.2c-1.238-.574-2.3,1.3-1.066,1.822q6.748,2.867,13.55,5.583C285.068,161.663,285.553,160.511,284.883,160.183Z" transform="translate(321.353 279.204)" fill="#0f4461"/>
    <path id="Path_1863" data-name="Path 1863" d="M284.665,159.839a21.341,21.341,0,0,0-4.052-3.861l-4.642-3.9c-1.161-.976-2.852.692-1.678,1.681q2.312,1.953,4.63,3.908a21.825,21.825,0,0,0,4.515,3.395C284.167,161.408,285.227,160.652,284.665,159.839Z" transform="translate(329.283 274.628)" fill="#0f4461"/>
    <path id="Path_1864" data-name="Path 1864" d="M172.37,67.764c.475-1.391-1.71-1.975-2.189-.606-2.747,7.855-7.064,19.277-2.013,27.063.341.526,1.391.389,1.3-.354-.558-4.748-1.375-8.918-.574-13.716A79.473,79.473,0,0,1,172.37,67.764Z" transform="translate(92.567 87.536)" fill="#0f4461"/>
    <path id="Path_1865" data-name="Path 1865" d="M170.5,70.817c-.5,4.068-1.442,8.34-1.177,12.446a.664.664,0,0,0,1.3.175c1.283-3.985,1.423-8.487,1.94-12.622C172.724,69.505,170.663,69.515,170.5,70.817Z" transform="translate(100.106 95.111)" fill="#0f4461"/>
    <path id="Path_1866" data-name="Path 1866" d="M175.512,64.884a1.07,1.07,0,0,0-2.138,0c-.124,4.132.326,8.535,2.5,12.131a.7.7,0,0,0,1.279-.539C176.37,72.58,175.406,68.9,175.512,64.884Z" transform="translate(109.041 82.003)" fill="#0f4461"/>
    <path id="Path_1867" data-name="Path 1867" d="M174.216,82.718a23.087,23.087,0,0,1-.938-4.173,1.248,1.248,0,1,0-2.463.335c.44,2.789,1.2,6.378,3.283,8.439a.852.852,0,0,0,1.413-.82A33.66,33.66,0,0,0,174.216,82.718Z" transform="translate(103.426 111.568)" fill="#0f4461"/>
    <path id="Path_1868" data-name="Path 1868" d="M176.059,75.023c-.8-1.627-3.254-.2-2.441,1.426,1.965,3.921,3.711,8.177,6.439,11.639.558.708,1.63-.07,1.433-.836C180.388,82.973,178,78.966,176.059,75.023Z" transform="translate(109.259 104.899)" fill="#0f4461"/>
    <path id="Path_1869" data-name="Path 1869" d="M210.055,173.169c-7.169-12.526-13.448-25.062-17.81-38.877-.3-.951-1.8-.546-1.5.415,4.314,13.732,10.1,27.177,18.333,39.037A.568.568,0,0,0,210.055,173.169Z" transform="translate(147.042 235.119)" fill="#0f4461"/>
    <path id="Path_1870" data-name="Path 1870" d="M212.8,153.8c-1.592-.7-3.334-.8-4.977-1.362a12.056,12.056,0,0,1-5.207-3.564c-1.085-1.244-2.9.577-1.809,1.809,2.562,2.907,8.133,6.394,11.993,4A.518.518,0,0,0,212.8,153.8Z" transform="translate(168.433 267.329)" fill="#0f4461"/>
    <path id="Path_1871" data-name="Path 1871" d="M210.594,149.287c-1.812-2.141-4.92-3.561-7.3-4.984a1.544,1.544,0,0,0-1.557,2.664c2.38,1.429,5.083,3.494,7.827,4.084A1.065,1.065,0,0,0,210.594,149.287Z" transform="translate(169.6 257.731)" fill="#0f4461"/>
    <path id="Path_1872" data-name="Path 1872" d="M245.462,128.127c-1.075-.08-1.139-.025-1.9.74-.536.536.14,1.283.769.992-4.674,2.144-8.375,8.343-12.887,11.215-6.161,3.921-11.987,4.419-19.045,4.122-1.886-.08-1.975,2.489-.418,3.085,7.342,2.814,16.007-.456,22.133-4.709,3.966-2.75,12.81-8.761,12.644-14.147A1.331,1.331,0,0,0,245.462,128.127Z" transform="translate(191.265 222.74)" fill="#0f4461"/>
    <path id="Path_1873" data-name="Path 1873" d="M237.658,88.081c.919-2.6,2.5-4.917,3.133-7.629.753-3.229.469-6.18-2.237-8.158-1.171-.855-2.3.555-2.15,1.656.5,3.64.546,6.212-.718,9.709-.9,2.479-1.959,4.885-1.949,7.571.013,4.416,2.8,6.885,6.228,9.2.766.517,1.557-.609.96-1.244C237.6,95.655,236.012,92.732,237.658,88.081Z" transform="translate(241.312 99.917)" fill="#c4c4c4"/>
    <path id="Path_1874" data-name="Path 1874" d="M243.5,89c-.507-3.27-2.275-6.107-3.27-9.211-1.506-4.69-.747-9.084-.884-13.844-.026-.887-1.407-1.436-1.822-.495a20.3,20.3,0,0,0-.893,14.064c1.011,3.5,2.907,6.608,3.462,10.255.772,5.06-.747,9.8-2.495,14.508-.38,1.031,1.308,1.752,1.787.753C241.8,99.97,244.4,94.789,243.5,89Z" transform="translate(245.788 84.428)" fill="#c4c4c4"/>
    <g id="Group_8299" data-name="Group 8299" transform="translate(123.578 319.828)">
      <g id="Group_8298" data-name="Group 8298" transform="translate(0 0)">
        <path id="Path_1875" data-name="Path 1875" d="M150.526,266.768a92.482,92.482,0,0,1-9.131-8.707c-7.236-8.359-11.882-18.69-15.031-29.289-1.8-6.065-3.159-12.376-2.693-18.69.581-7.865,4.578-15.723,11.346-20.024,3.356-2.131,7.453-3.459,9.728-6.719,2.361-3.382,2.087-7.881,1.707-11.99-1.439-15.513-4.164-27.3,4.85-41.194,3.181-4.9,7.22-9.8,12.868-11.314,6.2-1.665,12.989,1.362,17.149,6.257,9.1,10.711,8.9,29.328,9.715,42.566,1.133,18.349.357,36.794,2.731,55.069.459,3.545,1.059,7.172,2.849,10.267,3.561,6.155,9.894,5.306,15.777,7.329,17.934,6.171,11.537,32.518,8.187,45.772-1.745,6.9-3.545,13.869-6.847,20.177-4.365,8.343-14.09,18.509-24.545,16.642a16.738,16.738,0,0,1-8.012-4.231c-7.632-6.812-10.414-17.073-13.653-26.389C163.786,281.553,159.067,274.237,150.526,266.768Z" transform="translate(-123.578 -118.38)" fill="#c0d9bf"/>
        <path id="Path_1876" data-name="Path 1876" d="M139.418,252.932a104.246,104.246,0,0,1-2.067-17.736c-.15-4.958.121-10.162,2.61-14.456,1.806-3.114,4.642-5.5,6.662-8.484,4.448-6.569,2.766-13.451,2.214-20.7-.67-8.838-2.243-17.6-2.192-26.488a44.412,44.412,0,0,1,10.191-27.736c5.13-6.053,13.518-10.054,21.1-7.718,5.079,1.567,9.055,5.737,11.422,10.5C196.3,154.068,193,166.7,193.47,181.568c.191,6.145,2.38,13.289,8.225,15.2,2.728.89,5.724.415,8.528,1.021,16.361,3.526,9.655,27.653,5.178,38.07-8.126,18.917-20.592,39.662-38.159,51.075-6,3.9-14.2,6.7-20.212,1.965-6.2-4.878-10.085-12.392-12.849-19.616A104.042,104.042,0,0,1,139.418,252.932Z" transform="translate(-93.48 -95.246)" fill="#50855f"/>
        <path id="Path_1877" data-name="Path 1877" d="M150.645,226.483c3.028-22.937,5.973-46.11,6.707-69.13.029-.957-1.57-1.219-1.713-.233-.057.412-.105.82-.163,1.232l-.329-.032-.711,7.811c-3.143,24.711-4.9,49.674-7.775,74.4-.16,1.372,1.962,1.343,2.138,0,.032-.258.067-.517.1-.775l.533.048Z" transform="translate(-73.034 -34.884)" fill="#0f4461"/>
        <path id="Path_1878" data-name="Path 1878" d="M137.435,184.13a98,98,0,0,1,1.248,9.75c.463,9.332,1.056,18.655,1.452,27.994.431,10.082.664,20.254,2.243,30.234.179,1.12.345,2.217.51,3.318.048.316,17.1.887,18.333.935,2.709.1,30.952,1.487,31.475-1.321a255.254,255.254,0,0,0,4.393-35.4c.654-14.335,1.069-28.655,3.787-42.712-10.271-.609-21.026.539-31.367.23-10.947-.325-21.91-.673-32.853-1.1,0,.4.032.791.048,1.187A64.447,64.447,0,0,1,137.435,184.13Z" transform="translate(-94.927 7.954)" fill="#d18334"/>
      </g>
      <path id="Path_1879" data-name="Path 1879" d="M151.241,172.683a4.062,4.062,0,0,0-1.608-.721,6.917,6.917,0,0,1-2.7-1.748,15.873,15.873,0,0,0-3.889-3.156c-1.136-.549-2.141,1.123-1,1.71,1.956,1.008,6.624,7.693,9.192,4.792A.629.629,0,0,0,151.241,172.683Z" transform="translate(-84.219 -11.985)" fill="#0f4461"/>
      <path id="Path_1880" data-name="Path 1880" d="M150.983,168.275c-.9-1.228-2.367-1.8-3.51-2.773a14.254,14.254,0,0,1-3.207-3.988c-.66-1.19-2.47-.128-1.825,1.066a16.141,16.141,0,0,0,3.49,4.464c1.212,1.069,2.747,2.4,4.457,2.265C150.855,169.274,151.315,168.735,150.983,168.275Z" transform="translate(-82.555 -25.03)" fill="#0f4461"/>
      <path id="Path_1881" data-name="Path 1881" d="M147.749,142.532a.782.782,0,0,0-.874-.357c-.689.169-.817.31-1.021,1-.214.724.737,1.005,1.136.479-1.206,1.6.865,6.426,1.327,8.369.708,2.954,1.41,5.887,2.291,8.8a.964.964,0,0,0,1.857-.51A67.971,67.971,0,0,0,147.749,142.532Z" transform="translate(-74.848 -66.302)" fill="#0f4461"/>
      <path id="Path_1882" data-name="Path 1882" d="M152.327,146.991a47.563,47.563,0,0,0-1.321,8.343.877.877,0,0,0,1.713.233,46.454,46.454,0,0,0,1.72-8C154.691,146.2,152.592,145.6,152.327,146.991Z" transform="translate(-63.495 -57.44)" fill="#0f4461"/>
      <path id="Path_1883" data-name="Path 1883" d="M160.023,156.066c-1.851,2.071-4.438,4.279-5.529,6.869-.341.817.753,1.464,1.417,1.088,2.339-1.33,4.173-4.148,5.925-6.148C162.913,156.644,161.126,154.832,160.023,156.066Z" transform="translate(-55.997 -36.728)" fill="#0f4461"/>
      <path id="Path_1884" data-name="Path 1884" d="M162.417,162.346l-4.336,3.637a18.1,18.1,0,0,0-3.7,3.65c-.549.826.485,1.56,1.225,1.228a18.567,18.567,0,0,0,4.243-3.114l4.307-3.666C165.362,163.055,163.62,161.338,162.417,162.346Z" transform="translate(-56.449 -22.738)" fill="#0f4461"/>
      <path id="Path_1885" data-name="Path 1885" d="M151.31,160.866a18.2,18.2,0,0,0-2.9-3.535c-1.126-1.222-2.2-2.492-3.226-3.8-.718-.906-2.323.313-1.618,1.247,1.87,2.476,3.912,5.647,6.729,7.1A.745.745,0,0,0,151.31,160.866Z" transform="translate(-80.169 -42.07)" fill="#0f4461"/>
      <path id="Path_1886" data-name="Path 1886" d="M205.574,176.141c-2.97-.08-5.931-.195-8.851-.188-3.357.006-6.71.048-10.066.083-8.158.389-16.32.482-24.488.488-8.726.175-17.488.15-26.243.156-.073.041-.169.045-.233.105l-.013,0q.019,4.145-.032,8.286c8.126-.191,16.246-.357,24.312-.66,13.254-.5,26.514-.121,39.767-.054,2.09-.1,4.183-.223,6.276-.335C205.886,181.393,205.724,178.767,205.574,176.141Z" transform="translate(-97.136 7.739)" fill="#b34a0e"/>
    </g>
  </g>
</svg>
