<svg xmlns="http://www.w3.org/2000/svg" width="366.456" height="66.4" viewBox="0 0 366.456 66.4">
  <g id="white-logo" transform="translate(-2.6 -2.6)">
    <path id="Path_1893" data-name="Path 1893" d="M267,52.2v15s.4,1,2.6,1.1V69H260v-.7s2,0,2.6-1.1V59.9H255v7.4s.4,1,2.6,1.1V69h-9.7v-.7s1.9,0,2.6-1.1v-15c-.7-1.1-2.6-1.1-2.6-1.1v-.7h9.7v.7c-2.3.1-2.6,1.1-2.6,1.1v6.5h7.6V52.2c-.7-1.1-2.6-1.1-2.6-1.1v-.7h9.7v.7c-2.3.2-2.7,1.1-2.7,1.1m-15.7.1h.7V67.2h-.7Zm12,0h.7V67.2h-.7Z" fill="#0072bc" fill-rule="evenodd"/>
    <path id="Path_1894" data-name="Path 1894" d="M295.7,67.2s.6,1,2.7,1.1V69h-9.8v-.7s1.8,0,2.4-1.1v-15c-.6-1.1-2.4-1.1-2.4-1.1v-.7h12.1s4-.2,5.3,3a5.087,5.087,0,0,1,.1,3c-.8,2.7-4.3,3.6-4.3,3.6s1.5.8,4.2,5c0,0,2.1,2.9,3.6,3.3l.6.6h-6.5c-.6-.2-3.5-4.5-3.5-4.5-2.4-3.9-4.3-3.6-4.5-3.5v6.3Zm.1-15.3c-.1.2,0,.3,0,.3v7.4c.2,0,4.6.3,5.9-3a4.739,4.739,0,0,0,.2-1.8c-.5-4.1-6.1-2.9-6.1-2.9Zm7.3,15.2h.7c-.6-.6-2.6-3.6-2.6-3.6a10.4,10.4,0,0,0-2.4-2.6h-.7a10.5,10.5,0,0,1,2.5,2.8c.1,0,1.6,2.4,2.5,3.4M301.2,52c3.5,3.3,0,6.6,0,6.6a4.069,4.069,0,0,0,2.2-3.3,3.7,3.7,0,0,0-2.2-3.3m-9.1.3h.6V67.2h-.6Z" fill="#0072bc" fill-rule="evenodd"/>
    <path id="Path_1895" data-name="Path 1895" d="M277.8,52.1v6.6h4c.6-.2,1.1-2.8,1.2-3.2h.8V63H283c-.1-.4-.6-3-1.2-3.1h-4v6.3a1.356,1.356,0,0,0,1.3,1.4,14.128,14.128,0,0,0,6.6-.6s.6-.6,1.3-3.4h.8l-.2,5.4H270.7v-.7a2.56,2.56,0,0,0,2.1-1.1v-15c-.5-1.1-2.1-1.1-2.1-1.1v-.7H287v5h-.7c-.7-2.8-1.4-3.3-1.4-3.3a14.751,14.751,0,0,0-7.1,0m-3.7.1h.6V67.1h-.6Z" fill="#0072bc" fill-rule="evenodd"/>
    <path id="Path_1896" data-name="Path 1896" d="M317.4,54l-3,8h6.4Zm.3-1.7h.6l6.2,14.8h-.8Zm-3.8,10.9L312.4,67s.4,1.1,2.6,1.1V69h-7v-.8s2.2,0,2.8-1.4l5.6-14.5c-.5-1-2.6-1.1-2.6-1.1v-.8h6.7l7.1,16.3a2.7,2.7,0,0,0,2.8,1.4V69h-10v-.8s2.2-.1,2.6-1.1l-1.6-3.9h-7.5Z" fill="#0072bc" fill-rule="evenodd"/>
    <path id="Path_1897" data-name="Path 1897" d="M340.6,50.5v.7c-2.2.2-2.3.8-2.6,1.1V66.1c0,.3.2,1.4,1.1,1.4a15.313,15.313,0,0,0,6.5-.6,11.428,11.428,0,0,0,1.3-4h.7l-.1,6H330.9v-.8s2.1-.1,2.5-1.1V52.3c-.4-1.1-2.6-1.2-2.6-1.2v-.7h9.8Zm-6.2,1.9h.6V67.2h-.6Z" fill="#0072bc" fill-rule="evenodd"/>
    <path id="Path_1898" data-name="Path 1898" d="M368.3,55.7c-2.4-5.4-8.7-5.2-8.7-5.2H348.3v.7s2.3.1,2.6,1.2V67.1c-.3,1.1-2.6,1.2-2.6,1.2V69h10.1c4.6-.1,8.4-2.2,9.9-5.6a10.37,10.37,0,0,0,0-7.7m-3.8.5c-.7-3.4-2.7-4.2-2.7-4.2,2.4.6,3.6,3.6,3.7,6.8.1,3.6-1.1,7.3-3.6,8.1,0,0,2.8-1.5,2.9-7.3a7.88,7.88,0,0,0,0-1.6c-.1-.9-.3-1.8-.3-1.8m-.6,3.3s.1,3.4-1,5.2c-1.6,3.4-5.7,3.1-5.7,3.1-1.9-.1-1.9-1.3-1.9-1.3V52a14.9,14.9,0,0,1,3.5-.3,4.633,4.633,0,0,1,3.6,1.7,7.512,7.512,0,0,1,1.4,4.5Zm-12.3-7.2h.7V67.2h-.7Z" fill="#0072bc" fill-rule="evenodd"/>
    <path id="Path_1899" data-name="Path 1899" d="M147,55.7c-2.3-5.2-8.4-5.1-8.4-5.1H127.7v.7s2.2.1,2.5,1.2V66.8c-.3,1.1-2.5,1.2-2.5,1.2v.7h9.8c4.4-.1,8.1-2.1,9.6-5.4a10.366,10.366,0,0,0-.1-7.6m-3.6.5c-.7-3.3-2.6-4.1-2.6-4.1,2.3.6,3.5,3.5,3.6,6.6.1,3.4-1,7.1-3.5,7.8,0,0,2.7-1.5,2.8-7.1V57.8c-.1-.7-.3-1.6-.3-1.6m-.5,3.2s.1,3.2-1,5c-1.5,3.3-5.5,3-5.5,3-1.8-.1-1.8-1.3-1.8-1.3V52a12.349,12.349,0,0,1,3.4-.2,4.336,4.336,0,0,1,3.4,1.6,7.694,7.694,0,0,1,1.4,4.3Zm-12-7h.7V66.8h-.7Z" fill="#0072bc" fill-rule="evenodd"/>
    <path id="Path_1900" data-name="Path 1900" d="M155.2,52.2v6.4h3.9c.5-.2,1.1-2.7,1.2-3.1h.7v7.3h-.8c-.1-.4-.6-2.9-1.2-3h-3.8v6.1a1.4,1.4,0,0,0,1.2,1.4,14.07,14.07,0,0,0,6.4-.5s.6-.6,1.2-3.3h.7l-.2,5.2H148.1V68a2.323,2.323,0,0,0,2-1.1V52.4c-.5-1-2-1.1-2-1.1v-.6h15.8v4.9h-.7c-.6-2.7-1.3-3.2-1.3-3.2-2.3-1.1-6.1-.3-6.7-.2m-3.5.2h.5V66.8h-.5Z" fill="#0072bc" fill-rule="evenodd"/>
    <path id="Path_1901" data-name="Path 1901" d="M208.9,54.2l-3,7.8h6.2Zm.2-1.7h.6l6,14.3H215Zm-3.6,10.6-1.4,3.7s.4,1.1,2.5,1.1v.7h-6.8v-.7s2.1,0,2.7-1.3l5.4-14.1c-.5-1-2.6-1-2.6-1v-.7h6.6l6.9,15.8a2.786,2.786,0,0,0,2.7,1.4v.7h-9.8V68s2.2-.1,2.5-1l-1.6-3.8h-7.1Z" fill="#0072bc" fill-rule="evenodd"/>
    <path id="Path_1902" data-name="Path 1902" d="M170.8,68a13.109,13.109,0,0,0,7.9.7,8.458,8.458,0,0,0,4.5-2.8l-.6-.8a7.97,7.97,0,0,1-8.9,1.3c-6-3.4-4.1-16,4.2-14.6,0,0,2.3.2,2.6,1.4l.8,2.5h.7V51.5a15.624,15.624,0,0,0-8.9-.8c-4.4.8-6.3,5-6.3,5a9,9,0,0,0-1,3.7c.1.1-.5,6,5,8.6m-3.6-7.5a8.113,8.113,0,0,0,4.1,6.9,8.216,8.216,0,0,1-4.3-4.3,11.2,11.2,0,0,1-.3-5.4,7.89,7.89,0,0,1,4.4-5.6,9.131,9.131,0,0,0-3.9,5.7v2.7" fill="#0072bc" fill-rule="evenodd"/>
    <path id="Path_1903" data-name="Path 1903" d="M188,68a13.109,13.109,0,0,0,7.9.7,8.458,8.458,0,0,0,4.5-2.8l-.6-.8a7.97,7.97,0,0,1-8.9,1.3c-6-3.4-4.1-16,4.2-14.6,0,0,2.3.2,2.6,1.4l.8,2.5h.7V51.5a15.624,15.624,0,0,0-8.9-.8c-4.4.8-6.3,5-6.3,5a9,9,0,0,0-1,3.7c.1.1-.5,6,5,8.6m-3.6-7.5a8.113,8.113,0,0,0,4.1,6.9,8.216,8.216,0,0,1-4.3-4.3,11.2,11.2,0,0,1-.3-5.4,7.89,7.89,0,0,1,4.4-5.6,9.131,9.131,0,0,0-3.9,5.7v2.7" fill="#0072bc" fill-rule="evenodd"/>
    <path id="Path_1904" data-name="Path 1904" d="M226,54.3l11.1,14.4h2.8V52.6c.6-1,2.6-1.1,2.6-1.1v-.7h-6.7v.8a3.024,3.024,0,0,1,2.6,1.1V63.1l-9.5-12.2H222v.7a3.411,3.411,0,0,1,2.5,1.1V67c-.6,1-2.6,1.1-2.6,1.1v.7h6.7V68a3.024,3.024,0,0,1-2.6-1.1Zm11.5,12.6-11-14.3h-.7l11,14.3Z" fill="#0072bc" fill-rule="evenodd"/>
    <path id="Path_1905" data-name="Path 1905" d="M55.5,22.1C49.1,3.4,32.5,4,32.5,4H2.6V6.4s6,.4,6.9,4.2V61.5c-.9,3.8-6.9,4.2-6.9,4.2V68H29.4c12.1-.3,22.1-7.6,26.3-19.2,4.4-13.5-.2-26.7-.2-26.7m-9.9,1.8c-2-11.7-7.1-14.5-7.1-14.5,6.3,2,9.5,12.5,9.9,23.5.4,12.3-2.8,25.3-9.6,28,0,0,7.4-5.3,7.7-25.2,0-.2.1-3.2-.1-5.6-.3-3.3-.8-6.2-.8-6.2M44,35.3s.2,11.6-2.6,17.9C37.2,65,26.3,63.8,26.3,63.8c-5-.5-5.1-4.7-5.1-4.7V8.8s3-1.1,9.4-.9c0,0,5.7-.3,9.4,5.8,0,0,3.6,5.9,3.8,15.5Zm-32.6-25h1.9V61.7H11.4Z" fill="#0072bc" fill-rule="evenodd"/>
    <path id="Path_1906" data-name="Path 1906" d="M110.4,9.9v52s1.1,3.3,7.8,3.7V68H89.6V65.7s5.8-.1,7.7-3.8V36.5H75.1V62s1.1,3.3,7.8,3.8V68H54.3V65.7s5.8-.1,7.7-3.8V10c-2-3.7-7.7-3.8-7.7-3.8V3.9H82.9V6.2c-6.7.4-7.8,3.8-7.8,3.8V32.4H97.4V10c-2-3.7-7.7-3.8-7.7-3.8V3.9h28.6V6.2c-6.8.4-7.9,3.7-7.9,3.7m-46.3.4h2.1V62H64.1Zm35.4,0h2.1V62H99.5Z" fill="#0072bc" fill-rule="evenodd"/>
    <g id="Group_8301" data-name="Group 8301">
      <path id="Path_1907" data-name="Path 1907" d="M272,38.6c-.1-.5-.1-.6-.2-.6h-.1a.31.31,0,0,1-.1.2,3.832,3.832,0,0,1-.8,1.7h0a5.025,5.025,0,0,1-3.9,2H218.8a4.857,4.857,0,0,1-4.4-2.8,3.178,3.178,0,0,1-.3-.9c0-.1,0-.2-.2-.2-.1,0-.2.1-.2.6v.8a5.164,5.164,0,0,0,5.2,5.2H267a5.164,5.164,0,0,0,5.2-5.2C272.1,39.2,272.1,38.8,272,38.6Z"/>
      <path id="Path_1908" data-name="Path 1908" d="M218.3,40.5a3.887,3.887,0,0,0,1.5.2h0a10.9,10.9,0,0,0,2.4-.3,1.087,1.087,0,0,1,.5-.1,9.484,9.484,0,0,1,1.7,0c.3,0,.6.1.9.1a45.81,45.81,0,0,0,6.1.3h0a6.439,6.439,0,0,0,3-.8,15.532,15.532,0,0,0,3.6.8h1.9a74.665,74.665,0,0,0,7.8-.5,62.434,62.434,0,0,0,10.9.7h0c3,0,5.6-.1,6.1-.2h.2c1-.1,3.2-.3,4.1-2.4a2.982,2.982,0,0,0-.1-2.6c1.5-1.8,1.7-4.8,1.1-7a8.119,8.119,0,0,0-1.3-2.7,21.173,21.173,0,0,0-1.6-3.5,8.692,8.692,0,0,0-6.3-4.2,21.876,21.876,0,0,0-6.2-.3,5.638,5.638,0,0,1-.7.1c-1.3.2-4,.7-4.9.7-.2,0-.3-.1-.3-.2a2.009,2.009,0,0,1-.1-1.5V17h0a3.453,3.453,0,0,0-1.1-3.4,2.792,2.792,0,0,0-1.8-.6,12.252,12.252,0,0,0-1.9.2c-.2,0-.3.1-.5.1a4.931,4.931,0,0,1-2.4.1c-.1,0-.2-.1-.3-.1h0a21.972,21.972,0,0,1-3.7-3.3,4.875,4.875,0,0,0,.3-.7c.1-.2.1-.4.3-.6.1-.2.4-.7.6-1a.749.749,0,0,0,.1-.5c0-.2-.2-.3-.3-.4a5.271,5.271,0,0,0-1.5-.5,17.968,17.968,0,0,0,1.3-2.8.661.661,0,0,0-.1-.6.55.55,0,0,0-.5-.3h0c-3,.1-4.5.7-5.2,1.2a2.588,2.588,0,0,0-1.4-.4,1.7,1.7,0,0,0-.7.1,2.3,2.3,0,0,0-1.6,1.4,5.133,5.133,0,0,0-2.8,2.2,15.238,15.238,0,0,1-4,3.7,1.38,1.38,0,0,0-.4.3c-1,.8-2.1,2.1-.8,4.6.9,1.8,3.1,2.4,4.9,2.4a4.869,4.869,0,0,0,1.2-.1,1.581,1.581,0,0,1,.2,1.4c-.1.3-.3.6-.4.9l-.1.3a3.107,3.107,0,0,0-.5,2.6,2.66,2.66,0,0,0-1.2,1.8,1.99,1.99,0,0,0,.1,1.3h-.1l-.4-.1a3.865,3.865,0,0,0-2.6,0c-1,.4-2.4,1.5-3.5,4.5a2.7,2.7,0,0,0-.2,2.3c0,.1.1.2-.4.5a1.387,1.387,0,0,0-.7,1.2,2.92,2.92,0,0,0,.2.9h0v.2a2.01,2.01,0,0,0-.4.8,4.052,4.052,0,0,0-.3,1.2C215.6,38.6,216.5,39.9,218.3,40.5Zm-2-2.8c.1-.3.1-.4.3-1a2.146,2.146,0,0,1,.4-.7.854.854,0,0,0,0-.7h0a.9.9,0,0,1-.1-.5,1.235,1.235,0,0,1,.4-.8q.9-.6.6-1.2a2.314,2.314,0,0,1,.3-1.9c1-2.8,2.3-3.8,3.2-4.2a3.33,3.33,0,0,1,2.2.1l.4.1c.4.1.6,0,.7-.1s.1-.2,0-.4a4.1,4.1,0,0,1-.1-1.1,2.23,2.23,0,0,1,1.1-1.5c.1-.1.2-.2.1-.3a2.522,2.522,0,0,1,.4-2.3l.2-.3a2.994,2.994,0,0,0,.4-1,1.905,1.905,0,0,0-.4-2,.367.367,0,0,0-.3-.1,5.7,5.7,0,0,1-1.3.1c-1.6,0-3.6-.6-4.4-2.1-1.1-2.1-.4-3.1.6-3.9.1-.1.2-.1.4-.2a14.144,14.144,0,0,0,4.2-3.8,4.353,4.353,0,0,1,2.6-2,.215.215,0,0,0,.2-.2,2.218,2.218,0,0,1,1.3-1.2,1.268,1.268,0,0,1,.6-.1,1.364,1.364,0,0,1,1.2.5.188.188,0,0,0,.3,0c.5-.4,1.8-1.1,5.1-1.2h.1v.1a12.938,12.938,0,0,1-1.5,3,.187.187,0,0,0,0,.3c0,.1.1.1.2.1a3.809,3.809,0,0,1,1.7.4v.2a9.054,9.054,0,0,0-.6,1.1,4.875,4.875,0,0,1-.3.7,4.875,4.875,0,0,1-.3.7c-.1.1,0,.2,0,.3a31.794,31.794,0,0,0,4,3.6h0c.1.1.3.1.4.2a4.61,4.61,0,0,0,2.6-.1c.2,0,.3-.1.5-.1a11.135,11.135,0,0,1,1.7-.2,2.41,2.41,0,0,1,1.5.4,2.988,2.988,0,0,1,.9,2.9v.1a2.62,2.62,0,0,0,.2,1.9,1.039,1.039,0,0,0,.8.4c.9,0,3.6-.5,5-.7a1.952,1.952,0,0,1,.7-.1,14.979,14.979,0,0,1,2.2-.2,15.814,15.814,0,0,1,3.8.4,8.377,8.377,0,0,1,6,4,26.663,26.663,0,0,1,1.6,3.4v.1a10.711,10.711,0,0,1,1.2,2.6c.5,2,.3,5-1.1,6.6a.187.187,0,0,0,0,.3l.1.1a2.248,2.248,0,0,1,.1,2.1c-.8,1.8-2.7,2-3.7,2.1h-.2a56.136,56.136,0,0,1-6,.2h0a67.237,67.237,0,0,1-10.9-.7h-.1a52.009,52.009,0,0,1-7.7.5H238c-1-.1-3.1-.4-3.5-.8a.188.188,0,0,0-.3,0,5.085,5.085,0,0,1-2.9.8h0c-1.3,0-4-.1-6-.3-.3,0-.6-.1-.9-.1a5.971,5.971,0,0,0-1.9,0c-.2,0-.4.1-.6.1a8.475,8.475,0,0,1-2,.3h-.3a6.882,6.882,0,0,1-1.3-.2C216.9,39.5,216.2,38.4,216.3,37.7Z"/>
      <path id="Path_1909" data-name="Path 1909" d="M259.4,21.2h0c.7.7,1.4,1.5,2.1,2.2h0a4.955,4.955,0,0,0,3.2,1.6,3.485,3.485,0,0,0,2.1-.8h0a4.348,4.348,0,0,0-.4-.7,5.422,5.422,0,0,1-.6-1.1c-.2-.3-.4-.5-.6-.8-1.8-1.8-4.5-2.4-6.5-2.6h0c-.4,0-.7-.1-1.1-.1h-.4a6.885,6.885,0,0,1,1.3,1.1A3.449,3.449,0,0,0,259.4,21.2Z"/>
      <path id="Path_1910" data-name="Path 1910" d="M233.7,12.2h0a3.358,3.358,0,0,1-.2,2.9c-.9,1.3-2.6,1.6-3.9,1.8l-.3.1a.756.756,0,0,0-.4.1c-.3,0-1.1.2-1.1.4,0,.3.3.5.8.5a1.268,1.268,0,0,0,.6-.1,3.552,3.552,0,0,0,.9-.4.349.349,0,0,0,.2-.1.55.55,0,0,1,.5.3.3.3,0,0,1,0,.4q0,.15-.3.3a10.4,10.4,0,0,1-2,.8c-.1,0-.2.1-.1.3s.1.2.3.2a23.055,23.055,0,0,0,10.7-5.6,34.983,34.983,0,0,1-3.3-3A3.186,3.186,0,0,1,233.7,12.2Z"/>
      <path id="Path_1911" data-name="Path 1911" d="M232.7,7.2a3.717,3.717,0,0,0,2.7-1.7,7.506,7.506,0,0,0,.8-1.4c-1.9.2-4.2.8-4.6,1.7a.955.955,0,0,0,.2,1A1.222,1.222,0,0,0,232.7,7.2Z"/>
      <path id="Path_1912" data-name="Path 1912" d="M226.5,24.9h.3a34.859,34.859,0,0,0,4.4-.3,48.194,48.194,0,0,0,14.3-4.4c.1,0,.1-.1.1-.2s-.1-.2-.5-.3a1.643,1.643,0,0,1-1.4-1.2.631.631,0,0,1,.1-.7c.2-.1.6-.1.7.2a1.581,1.581,0,0,0,1.2.5h.1a2.255,2.255,0,0,0,1.8-1.3,2.281,2.281,0,0,0-.6-2.6,1.8,1.8,0,0,0-1.1-.3h-.5a3.619,3.619,0,0,0-2.2,1.5l-.7.8c-2.8,3.2-6.3,4.7-9.7,5.8a22.117,22.117,0,0,1-6.2,1.3.562.562,0,0,0-.5.6C226,24.7,226.2,24.9,226.5,24.9Z"/>
      <path id="Path_1913" data-name="Path 1913" d="M226.4,36.5A6.4,6.4,0,0,0,225,35a1.809,1.809,0,0,0-1.8-.3,1.59,1.59,0,0,0-.6.9,15.245,15.245,0,0,0-.3,1.9c-.1.7.6,1.2,1.8,1,1.3-.1,3.2-.4,2.3-2Z"/>
      <path id="Path_1914" data-name="Path 1914" d="M217,38.1h0c.2-.7.4-1.2.4-1.2q.15-.3.3-.3h.1l.1.1a.6.6,0,0,1-.1.4,8.508,8.508,0,0,0-.4,1.5c0,.1.4.3.3.3a.1.1,0,0,1,.1.1q.75.3.9-1.2c.2-1.6-.1-1.9-.4-2h-.1a1.024,1.024,0,0,1-.5-.6c.1-.6.7-.6,1.1-.6h.9a.875.875,0,0,0,.9-.6,1.2,1.2,0,0,0-.5-1.5c-.8-.7-1.1-1.1-.9-1.5a.55.55,0,0,1,.5-.3,2.3,2.3,0,0,1,.9.3.367.367,0,0,0,.3.1c.5,0,.9-.6,1.1-.9a3.543,3.543,0,0,1,1-1.2.746.746,0,0,1,.9,0,.44.44,0,0,1,.1.5,2.236,2.236,0,0,1-.3,1,2.046,2.046,0,0,0-.1,1.7,1.887,1.887,0,0,0,1.2,1.1,2.809,2.809,0,0,0,2.2-.1c.7-.2,1.1-.2,1.2.1a.845.845,0,0,1-.2.9c-.5.9-.9,1.9-.5,2.3l.2-.2c.3-.6.7-1.6,1.9-1.6a1.952,1.952,0,0,1,.7.1.215.215,0,0,1,.2.2.367.367,0,0,1-.1.3,2.022,2.022,0,0,0-.3,2.7,2.281,2.281,0,0,0,1.2.6h.4a1.755,1.755,0,0,0,1.8-1.2c0-.1.1-.3.1-.4a4.147,4.147,0,0,1,.4-1.2,3.558,3.558,0,0,1,1.4-1.6A8.627,8.627,0,0,0,238,31l.1-.2c.1-.4.2-.7.6-.7h0a.52.52,0,0,1,.4.2c.2.2.2.6,0,1.1a9.885,9.885,0,0,1-1.9,2.8,2.946,2.946,0,0,0-.4,2.7,1.216,1.216,0,0,0,1.3.9h.3a12.751,12.751,0,0,0,1.9.1,6.837,6.837,0,0,0,3.4-.6,2.309,2.309,0,0,0,1.2-1.2,28.719,28.719,0,0,0,.9-3.7c.7-4.4-.4-7-.9-7.8a1.039,1.039,0,0,1-.8.4h-.3a1.136,1.136,0,0,1-.8-.3,1.167,1.167,0,0,1-.6.6,1.268,1.268,0,0,1-.6.1,1.165,1.165,0,0,1-.7-.2,1.149,1.149,0,0,1-.8.7h-.4a1.445,1.445,0,0,1-.7-.2,1.419,1.419,0,0,1-.8.7c-.1,0-.2.1-.4.1a1.445,1.445,0,0,1-.7-.2,1.078,1.078,0,0,1-.8.8h-.4a1.49,1.49,0,0,1-.8-.3,1.067,1.067,0,0,1-.8.6h-.4a1.549,1.549,0,0,1-.8-.2,1.067,1.067,0,0,1-.8.6c-.1,0-.3.1-.4.1a.845.845,0,0,1-.6-.2.99.99,0,0,1-.7.5h-.3a1.207,1.207,0,0,1-.8-.3c-.1.1-.1.2-.1.4,0,.3,0,.5.7,1.3a9.429,9.429,0,0,0,1,1h0c.9.9,1.7,1.6,1.5,2.1a.55.55,0,0,1-.5.3,5,5,0,0,1-2-.9c-.1-.1-.2-.1-.3-.2l-.1-.1c-.3-.2-1-.7-1.3-.9-.5-.4-2.7-1.8-3.5-2.3h-.2a6.891,6.891,0,0,0-3.1-1.3,1.268,1.268,0,0,0-.6.1c-.8.3-1.9,1.2-2.8,3.8a2.717,2.717,0,0,0-.3,1.4c.2.5.4,1.3-.9,2-.1,0-.1.1-.1.2h0v.1c0,.1.1.2.1.3h0c.2.3.1.7-.2,1.1-.1.1-.1.2-.2.3h0c-.1.1-.1.1-.1.2l-.3.9a.931.931,0,0,0,0,.6Zm1-.9a1.034,1.034,0,0,0,.1-.4c0,.2,0,.3-.1.4a8.493,8.493,0,0,0-.3.9A4.178,4.178,0,0,0,218,37.2Z"/>
      <path id="Path_1915" data-name="Path 1915" d="M246.8,22.8c-.3.1-.5.4-.7.6a1.448,1.448,0,0,0,.1,1.1c.1.3.3.7.4,1.1a1.1,1.1,0,0,0,1,.8h.3c.9-.2.9-.6.9-1.1a7.189,7.189,0,0,0-.4-1.9,1.025,1.025,0,0,0-1-.6A1.146,1.146,0,0,0,246.8,22.8Z"/>
      <path id="Path_1916" data-name="Path 1916" d="M248,31.6h0c-.7,0-1,.3-1.1.8a2.814,2.814,0,0,0-.1.8.756.756,0,0,1-.1.4,1.512,1.512,0,0,0,.2.8,1.234,1.234,0,0,0,.8.4h.1a1.021,1.021,0,0,0,1.1-1,5.7,5.7,0,0,0,.1-1.3,1.1,1.1,0,0,0-.3-.6C248.7,31.8,248.4,31.6,248,31.6Z"/>
      <path id="Path_1917" data-name="Path 1917" d="M248,27.2a1.032,1.032,0,0,0-1.1,1.1v1.4a.991.991,0,0,0,1.1,1.1h0c1,0,1.1-.6,1.1-1.1A10.283,10.283,0,0,0,249,28c0-.7-.5-.8-1-.8Z"/>
      <path id="Path_1918" data-name="Path 1918" d="M253.8,35.9s.5-.1,0-.4a2.409,2.409,0,0,0-2.4-.3c-1.1.4-1.1,1.3-.6,1.5.6.2,1.2.3,1.1.5-.1.4-1.6-.4-1.7.6-.1.8.3,1,1.4,1.1.1,0,.2,0,.2-.1A3.038,3.038,0,0,1,253.8,35.9Z"/>
      <path id="Path_1919" data-name="Path 1919" d="M257,37.3a3.75,3.75,0,0,1-2.5-.8c-.1-.1-.1-.1-.3-.1a2.539,2.539,0,0,0-1.8,2.3.367.367,0,0,0,.1.3,1.88,1.88,0,0,0,1,.4c.1,0,.2,0,.2-.1a2.888,2.888,0,0,1,.6-1.7c.3-.5.8-.1.5.2a3.1,3.1,0,0,0-.4,1.6.215.215,0,0,0,.2.2,3.439,3.439,0,0,0,1.8,0,.31.31,0,0,0,.2-.1,2.848,2.848,0,0,0,.9-1.9A.683.683,0,0,0,257,37.3Z"/>
      <path id="Path_1920" data-name="Path 1920" d="M256.6,35.6c-.9-.1-.9-.4-.9-.6,0-.3.3-.5.4-.6a3.083,3.083,0,0,1-.5-.7,1.745,1.745,0,0,0-.8,1.3c0,.4.2,1.4,1.7,1.5a1.919,1.919,0,0,1,1.2.3,1.4,1.4,0,0,1,.7-.6A2.768,2.768,0,0,0,256.6,35.6Z"/>
      <path id="Path_1921" data-name="Path 1921" d="M261,36.7a4.115,4.115,0,0,0-1.7-.2c-.6.1-1.1.4-1.1.9-.1,1.6,1.6,1.5,2.2,1.5h3.2A5.333,5.333,0,0,0,261,36.7Z"/>
      <path id="Path_1922" data-name="Path 1922" d="M250,31.6q0,1.65,2.1,2.1a4.332,4.332,0,0,1,.5.1c1.3,0,1.7-1.1,2-2.4l.1-.2a5.476,5.476,0,0,1,2.3-2.9c.5-.3.9-.5.9-.5h.2a.55.55,0,0,1,.5.3.3.3,0,0,1,0,.4l-.3.3a3.871,3.871,0,0,0-2.2,2.5,3.358,3.358,0,0,0,.6,2.5,5.041,5.041,0,0,0,3.9,2h.5c2.7,0,4.6-.6,5.6-1.8a3.781,3.781,0,0,0,.6-3.2.6.6,0,0,1,.1-.4c.1-.1.2-.2.3-.2h.1a.458.458,0,0,1,.5.4,5.332,5.332,0,0,1-.9,4.2c0,.1-.1.1-.1.2a4.064,4.064,0,0,1-1,.9h.2a1.856,1.856,0,0,0,1.5-.8c1.2-1.5,1.3-4.1.8-5.9a13.527,13.527,0,0,0-.9-2.2,5.871,5.871,0,0,1-3.3,1,7.949,7.949,0,0,1-5.1-2.4,24.914,24.914,0,0,1-2.3-2.4h0a3.819,3.819,0,0,0-.9-.9,7.486,7.486,0,0,0-2.9-1.7c-.1,0-.1,0-.2-.1h-.1c-.2-.1-.5-.1-.8-.2a3.3,3.3,0,0,0-1.4,0c-.2.1-.4.1-.6.2h-.1a1.928,1.928,0,0,0-1.2,2.2C249.3,22.7,250.4,27.8,250,31.6Zm17.6-4a.6.6,0,0,1,.1.4.987.987,0,0,1-.9,1,.948.948,0,0,1-.9-.8A5.775,5.775,0,0,0,267.6,27.6Zm-2.9.7h.7a1.548,1.548,0,0,0,.8,1.1,1.421,1.421,0,0,1-.6.2,1,1,0,0,1-1-1A.367.367,0,0,0,264.7,28.3Zm-1.2-.1c.2,0,.4.1.6.1v.3a1.284,1.284,0,0,0,.4,1,.972.972,0,0,1-1.1-1C263.4,28.5,263.5,28.4,263.5,28.2Zm-1.2-.4c.2.1.5.2.7.3a1.268,1.268,0,0,0-.1.6,1.884,1.884,0,0,0,.2.8.972.972,0,0,1-1.1-1A.908.908,0,0,1,262.3,27.8Zm-1.1-.5.6.3a1.613,1.613,0,0,0-.3.9.9.9,0,0,0,.1.5,1.063,1.063,0,0,1-.8-.9C260.8,27.7,260.9,27.4,261.2,27.3Zm-1.1-.8c.2.1.4.3.6.4a1.606,1.606,0,0,0-.5,1.1v.3a.961.961,0,0,1-.7-.9A1.456,1.456,0,0,1,260.1,26.5Zm-1-.9.3.3.3.3a1.9,1.9,0,0,0-.7,1.1,1.05,1.05,0,0,1-.5-.9A.938.938,0,0,1,259.1,25.6Zm-1-1,.6.6a1.525,1.525,0,0,0-.7,1.2,1.149,1.149,0,0,1-.6-.9A.961.961,0,0,1,258.1,24.6Zm-1-1h0a2.651,2.651,0,0,1,.5.6,1.548,1.548,0,0,0-.8,1.1.91.91,0,0,1-.4-.8A1.324,1.324,0,0,1,257.1,23.6Zm-1-1.2.1.1.6.6a1.548,1.548,0,0,0-.8,1.1,1.149,1.149,0,0,1-.6-.9A1.068,1.068,0,0,1,256.1,22.4Zm-1.2-.8a3.039,3.039,0,0,1,.7.5,1.561,1.561,0,0,0-.7,1.3,1.06,1.06,0,0,1,0-1.8Z"/>
      <path id="Path_1923" data-name="Path 1923" d="M227.1,21.4h.1v.4a.55.55,0,0,0-.3.5.6.6,0,0,0,1.2,0,.576.576,0,0,0-.6-.6h0c-.1-.1,0-.3,0-.4h0a5.019,5.019,0,0,0,1.2-.2h0v.4a.52.52,0,0,0-.2.4.5.5,0,1,0,.5-.5h0c-.1-.1,0-.3,0-.4h0c.3-.1.6-.2,1-.3h0v.4c-.1.1-.2.2-.2.3a.4.4,0,1,0,.4-.4h0c-.1-.1,0-.3,0-.4.2,0,.3-.1.5-.1h.1a1.165,1.165,0,0,0,.7.2h.3a.828.828,0,0,0,.7-.8h.1a.845.845,0,0,0,.6.2,1.051,1.051,0,0,0,1.1-1V19l.1-.1h0a.713.713,0,0,0,.6.3.9.9,0,0,0,.5-.1.876.876,0,0,0,.5-1V18h.1a1.074,1.074,0,0,0,1.2.2.949.949,0,0,0,.4-1.1V17l.1-.1h0a.864.864,0,0,0,.6.3.764.764,0,0,0,.5-.2.851.851,0,0,0,.3-1.1v-.1l.1-.1h0a.845.845,0,0,0,.6.2,1.135,1.135,0,0,0,.8-.3,1.063,1.063,0,0,0,.2-1.2c-.1,0-.3-.1-.4-.1a.349.349,0,0,0-.2-.1l-.7.7a25.93,25.93,0,0,1-4.7,3.2,32.937,32.937,0,0,1-3.9,1.7,27.981,27.981,0,0,1-4.1,1c-.2.1-.2.2-.2.2C226.9,21.4,227,21.4,227.1,21.4Z"/>
      <path id="Path_1924" data-name="Path 1924" d="M226.4,26.9a.8.8,0,1,0,.8-.8h0c-.1-.1,0-.3,0-.3,0-.1,0-.2-.1-.2H227c-.1,0-.1,0-.1.1a.781.781,0,0,0,0,.5h0A.752.752,0,0,0,226.4,26.9Z"/>
      <path id="Path_1925" data-name="Path 1925" d="M228.2,26.8a.8.8,0,1,0,.8-.8h0c-.1-.2,0-.3,0-.3,0-.1,0-.2-.1-.2h-.1c-.1,0-.1,0-.1.1a.781.781,0,0,0,0,.5h0A.752.752,0,0,0,228.2,26.8Z"/>
      <path id="Path_1926" data-name="Path 1926" d="M230,26.6a.8.8,0,0,0,1.6,0,.669.669,0,0,0-.6-.7h-.1c-.1-.2,0-.3,0-.3,0-.1,0-.2-.1-.2h-.1c-.1,0-.1,0-.1.1a.781.781,0,0,0,0,.5h0A.576.576,0,0,0,230,26.6Z"/>
      <path id="Path_1927" data-name="Path 1927" d="M231.7,26.3a.8.8,0,1,0,.8-.8h0c-.1-.2,0-.3,0-.3,0-.1,0-.2-.1-.2h-.1c-.1,0-.1,0-.1.1a.781.781,0,0,0,0,.5h0A.666.666,0,0,0,231.7,26.3Z"/>
      <path id="Path_1928" data-name="Path 1928" d="M234.1,25.2h0c-.1,0-.1.1-.2.1h0a.6.6,0,0,0-.3.6.8.8,0,0,0,1.6,0,1.012,1.012,0,0,0-.4-.7h-.3c-.1-.1,0-.3,0-.3,0-.1,0-.2-.1-.2h-.1c-.1,0-.1,0-.1.1-.1-.1-.2.1-.1.4Z"/>
      <path id="Path_1929" data-name="Path 1929" d="M235.6,25.5a.8.8,0,1,0,.8-.8h0c-.1-.2,0-.3,0-.3,0-.1,0-.2-.1-.2h-.1c-.1,0-.1,0-.1.1a.781.781,0,0,0,0,.5h0A.752.752,0,0,0,235.6,25.5Z"/>
      <path id="Path_1930" data-name="Path 1930" d="M237.9,24.2c-.1,0-.1.1-.2.1h0a.6.6,0,0,0-.3.6.8.8,0,0,0,1.6,0,.713.713,0,0,0-.3-.6.758.758,0,0,0-.4-.2h0c-.1-.1,0-.3,0-.3,0-.1,0-.2-.1-.2h-.1c-.1,0-.1,0-.1.1-.1,0-.2.2-.1.5Z"/>
      <path id="Path_1931" data-name="Path 1931" d="M239.3,24.3a.8.8,0,1,0,.8-.8h0c-.1-.2,0-.3,0-.3,0-.1,0-.2-.1-.2h-.1c-.1,0-.1,0-.1.1a.781.781,0,0,0,0,.5h0A.752.752,0,0,0,239.3,24.3Z"/>
      <path id="Path_1932" data-name="Path 1932" d="M241.1,23.7a.8.8,0,0,0,1.6,0,.684.684,0,0,0-.7-.7h0c-.1-.2,0-.3,0-.3,0-.1,0-.2-.1-.2h-.1c-.1,0-.1,0-.1.1a.692.692,0,0,0,0,.5h0Q241.1,23.25,241.1,23.7Z"/>
      <path id="Path_1933" data-name="Path 1933" d="M243.5,22.4c-.1,0-.1.1-.2.1h0a.6.6,0,0,0-.3.6.8.8,0,0,0,1.6,0,1.012,1.012,0,0,0-.4-.7h-.3c-.1-.2,0-.3,0-.3,0-.1,0-.2-.1-.2h-.1c-.1,0-.1,0-.1.1-.1-.1-.2.1-.1.4Z"/>
      <path id="Path_1934" data-name="Path 1934" d="M258.2,22.4a23.364,23.364,0,0,0,2.2,2.3,6.674,6.674,0,0,0,4.3,2.1,5.15,5.15,0,0,0,2.8-.9c-.1-.2-.2-.3-.2-.5a4.908,4.908,0,0,1-2.6.9,6.616,6.616,0,0,1-4-1.9,23.368,23.368,0,0,1-2.2-2.3,9.323,9.323,0,0,0-1-1,9.172,9.172,0,0,0-2.5-1.7,3.553,3.553,0,0,0-1,.2,8.126,8.126,0,0,1,3.1,1.9C257.5,21.6,257.8,22,258.2,22.4Z"/>
      <path id="Path_1935" data-name="Path 1935" d="M228.3,15.9h1.3c1.2-.2,2.5-.4,3-1.3a2.724,2.724,0,0,0-.3-2.7l-.1-.1c-.2-.3-.6-1,0-1.4a9.683,9.683,0,0,0,.9-.7.957.957,0,0,1,.4-1,1.826,1.826,0,0,1,.9-.2.6.6,0,0,0,.4-.1.494.494,0,0,1,.3-.1c.2,0,.2.1.2.2a.6.6,0,0,1-.1.4l-.2.2a5.023,5.023,0,0,0-1.3,1.2,1.412,1.412,0,0,0-.1.9c0,.1.1.1.2.1a2.664,2.664,0,0,0,1.9-1.2,3.552,3.552,0,0,0,.4-.9,4.875,4.875,0,0,0,.3-.7,3.329,3.329,0,0,0,.3-.6,3.083,3.083,0,0,0-1-.1H235a4.914,4.914,0,0,0-3,1.8,1.256,1.256,0,0,1-1,.7c-.3,0-.5-.2-.6-.2-.1-.1-.4-.4,0-1.2a2.157,2.157,0,0,0-.3-2.2,1.469,1.469,0,0,0-1.2-.4h-.5A4.468,4.468,0,0,0,226.2,8a11.919,11.919,0,0,1-1.5,1.8,6.279,6.279,0,0,1-1.2,1.1c-.4.3-.8.6-.9.9h0a.758.758,0,0,1-.2.4.756.756,0,0,1-.4.1,1.433,1.433,0,0,0-.7.2c-.5.2-.7.6-.7,1.3a2.735,2.735,0,0,0,.4,1.4,6.469,6.469,0,0,0,.8.9,1.445,1.445,0,0,0,.7.2,2.215,2.215,0,0,0,1.9-1.3c0-.1,0-.1.1-.2s.4-.7.8-.7a.864.864,0,0,1,.6.3c.1.1.2.3.1.4,0,.3-.3.5-.5.7a.385.385,0,0,0-.1.6c0,.1.2.2.5.2h.1a2.92,2.92,0,0,0,.9-.2,2.92,2.92,0,0,1,.9-.2Zm-1.5-5.5a3.552,3.552,0,0,1-.9-.4l-.1-.1-.1.1c0,.1-.1.1-.1.2h-.1a.1.1,0,0,1-.1-.1,3.36,3.36,0,0,1,.5-1.4,2.652,2.652,0,0,1,.5-.6,1.612,1.612,0,0,1,.7-.4,1.7,1.7,0,0,1,.7-.1h.1c.3,0,.5.1.8.1.1,0,.2.1.3.1l.4.2c.1,0,.2.1.3.1s.2.1.3.1a.1.1,0,0,1,.1.1v.1c-.1,0-.2.1-.3,0h0c-.1.1-.1.2-.2.3l-.1.1c-.1.1-.1.3-.2.4a2.182,2.182,0,0,1-.4.5c-.2.1-.4.3-.6.3A1.582,1.582,0,0,1,226.8,10.4Z"/>
      <path id="Path_1936" data-name="Path 1936" d="M228.8,9.3c.1-.1.1-.2.2-.3h0c.1-.1.1-.2.2-.2l.2-.2h-.2c-.2,0-.3-.1-.5-.1s-.5-.1-.7,0a.367.367,0,0,1,.1.3.931.931,0,0,1-.6,1.2h-.3a.961.961,0,0,1-.9-.6c-.1.1-.2.3-.3.4a1.613,1.613,0,0,0,.9.3A3.75,3.75,0,0,0,228,10,5.008,5.008,0,0,0,228.8,9.3Z"/>
    </g>
  </g>
</svg>
