<svg xmlns="http://www.w3.org/2000/svg" width="157.555" height="152.024" viewBox="0 0 157.555 152.024">
  <g id="Group_726" data-name="Group 726" transform="translate(-1140.602 567.733)">
    <path id="Path_946" data-name="Path 946" d="M1194.09-343.4c-4.31,0-8.621-.036-12.931.025-1.089.015-1.429-.248-1.416-1.384.034-2.879.319-5.793-.622-8.6a12.16,12.16,0,0,0-5.086-6.942,14.728,14.728,0,0,1-1.787-1.568q-6.8-5.892-13.6-11.772c-.8-.693-1.693-1.287-2.513-1.964a8.723,8.723,0,0,1-2.915-4.668c-.973-3.718-1.84-7.476-3.04-11.122-3.4-10.341-5.745-20.971-8.72-31.428-.213-.749-.794-1.266-.846-2.12a5.754,5.754,0,0,1,7.465-5.644,6.24,6.24,0,0,1,4.2,4.455c1.514,5.032,3.008,10.087,4.9,14.982,1.172,3.035,2.133,6.129,3.247,9.174a3.086,3.086,0,0,1-.114,2.574,10.688,10.688,0,0,0,5.666,14.53,24.894,24.894,0,0,1,2.222,1.236c4.137,2.32,8.281,4.629,12.409,6.967a3.113,3.113,0,0,0,3.514.008,2.512,2.512,0,0,0,1.091-2.67c-.2-1.275-1.213-1.838-2.217-2.391-5.092-2.8-10.216-5.556-15.256-8.452-1.369-.787-2.723-1.785-2.968-3.644a5.138,5.138,0,0,1,2.218-5.281,5.5,5.5,0,0,1,5.446-.82,21.279,21.279,0,0,1,2.9,1.382c7.67,4.339,15.285,8.776,23.006,13.021,4.086,2.247,6.572,5.642,8.522,9.753a18.252,18.252,0,0,1,1.506,8.161c-.009,7.543-.031,15.086.025,22.629.009,1.21-.2,1.643-1.538,1.611C1202.6-343.468,1198.344-343.4,1194.09-343.4Z" transform="translate(0 -94.11)" fill="#ffa000"/>
    <path id="Path_947" data-name="Path 947" d="M1443.59-343.523c-4.253,0-8.506-.037-12.758.025-1.11.016-1.553-.153-1.543-1.427.065-8.221-.171-16.45.1-24.662.235-7.091,3.771-12.445,9.943-15.995,4.749-2.732,9.5-5.465,14.273-8.151,3.685-2.073,7.386-4.121,11.13-6.085a5.094,5.094,0,0,1,5.76.5c1.718,1.32,2.879,2.954,2.421,5.334a5.517,5.517,0,0,1-2.964,3.682c-4.88,2.826-9.855,5.49-14.793,8.215-.049.027-.1.061-.146.086-2.4,1.191-3.166,2.674-2.247,4.329,1.477,2.658,5.059,1.479,9.667-3.425a10.014,10.014,0,0,1,6.325-3.18,10.7,10.7,0,0,0,8.7-15.079,3.551,3.551,0,0,1-.158-2.89c.875-2.506,1.448-5.133,2.5-7.558,2.42-5.592,3.864-11.5,5.895-17.217a6.215,6.215,0,0,1,7.216-3.824c2.926.886,4.377,3.785,3.5,7.095-2.434,9.178-4.655,18.422-7.423,27.5-1.624,5.325-2.979,10.714-4.547,16.047a9.382,9.382,0,0,1-4.031,5.362,9.69,9.69,0,0,0-1.029.79c-5,4.316-9.827,8.849-15.027,12.906-3.463,2.7-5.793,5.837-6.311,10.162a44.078,44.078,0,0,0-.105,6.285c.024.991-.309,1.213-1.244,1.2C1452.322-343.549,1447.955-343.523,1443.59-343.523Z" transform="translate(-198.502 -93.991)" fill="#ffa000"/>
    <path id="Path_948" data-name="Path 948" d="M1274.267-117.076c-5.214,0-10.428-.033-15.641.026-2.211.025-1.243-1.157-.84-7.749a9.931,9.931,0,0,0-.008-1.338c-.462-6.252-1.294-7.306.85-7.3q15.641.064,31.282,0c2.2-.009,1.259,1.108.841,7.683a9.953,9.953,0,0,0,.005,1.341c.451,6.27,1.311,7.386-.848,7.361C1284.694-117.108,1279.48-117.076,1274.267-117.076Z" transform="translate(-80.199 -298.659)" fill="#ffa000"/>
    <path id="Path_949" data-name="Path 949" d="M1437.7-133.412c5.214,0,10.427.033,15.641-.026,1.252-.014,1.487.356,1.378,1.887a86.746,86.746,0,0,0,0,12.567c.116,1.57-.112,1.936-1.375,1.931q-15.641-.064-31.282,0c-2.164.009-1.292-1.07-.846-7.449a9.968,9.968,0,0,0,0-1.341c-.423-6.464-1.348-7.62.842-7.595C1427.276-133.379,1432.49-133.412,1437.7-133.412Z" transform="translate(-192.592 -298.657)" fill="#ffa000"/>
    <path id="Path_950" data-name="Path 950" d="M1164.789-465.782c2.742.012,5.106,1.936,6.214,5.114,2.325,6.67,4.483,13.4,7.009,20,1.241,3.24,2.433,6.5,3.667,9.74.34.894.37,1.343-.79,1.581-2.848.584-2.842.655-3.737-2.106-2.005-6.18-3.9-12.4-6.05-18.529-.933-2.66-1.953-5.365-4.177-7.374a10.983,10.983,0,0,0-6.558-2.878c-1.218-.106-1.231-.613-1-1.51A5.4,5.4,0,0,1,1164.789-465.782Z" transform="translate(-12.824 -70.11)" fill="#ffa000"/>
    <path id="Path_951" data-name="Path 951" d="M1572.843-465.789a5.361,5.361,0,0,1,5.387,3.835c.344,1.094.366,1.647-1.377,1.745a9.7,9.7,0,0,0-8.223,5.425c-3.207,6.615-4.8,13.781-7.231,20.659-.527,1.489-.977,3.006-1.444,4.516-.235.761-.514,1.06-1.445.746-2.869-.969-2.951-.934-1.855-3.872q5.367-14.389,10.4-28.9A6.109,6.109,0,0,1,1572.843-465.789Z" transform="translate(-285.666 -70.103)" fill="#ffa000"/>
    <path id="Path_952" data-name="Path 952" d="M1342.056-547.191c-.8-9.791-6.207-16.179-15.345-19.223a22.093,22.093,0,0,0-21.877,3.929c-1.234.985-2.386,2.04-3.541,3.107a2.593,2.593,0,0,1-3.8.015c-1.023-.962-2.116-1.836-3.166-2.762a22.206,22.206,0,0,0-14.367-5.53c-8.309.063-14.426,3.194-19.121,8.983a19.728,19.728,0,0,0-4.209,12.66c-.018,5.327,1.447,10.344,5.227,14.142,3,3.019,6.095,5.991,9.22,8.909,5.9,5.506,11.608,11.213,17.5,16.725,3.382,3.161,6.687,6.406,9.986,9.654.625.615.968.65,1.623.021,4.225-4.062,8.526-8.045,12.745-12.112,4.966-4.787,9.875-9.633,14.809-14.453a5.518,5.518,0,0,1,.486-.475,68.437,68.437,0,0,0,9.2-8.921A19.008,19.008,0,0,0,1342.056-547.191Zm-22.93,10.1a9.691,9.691,0,0,1-9.958,9.719l-.1,0c-.992-.032-1.231.306-1.2,1.242.065,2.095.035,4.193.016,6.29-.021,2.387-1.018,3.366-3.446,3.377q-5.015.022-10.031,0c-2.545-.008-3.515-.961-3.531-3.461-.013-2.04-.058-4.082.021-6.12.039-1.016-.194-1.382-1.289-1.335-2.206.095-4.419.044-6.629.024-2.305-.022-3.315-1.021-3.329-3.318q-.031-4.845,0-9.691c.015-2.3,1.021-3.3,3.328-3.316,2.21-.02,4.423-.071,6.629.024,1.091.047,1.329-.314,1.291-1.333-.078-2.094-.041-4.193-.019-6.289.025-2.287,1.031-3.269,3.354-3.292,1.757-.017,3.514,0,5.27,0,1.53,0,3.06,0,4.59,0,2.941.006,3.79.875,3.794,3.881,0,1.87.059,3.743-.022,5.609-.046,1.066.2,1.48,1.367,1.427,2.206-.1,4.419-.048,6.629-.023s3.231,1.039,3.249,3.225Q1319.122-538.771,1319.126-537.089Z" transform="translate(-79.788 0)" fill="#ffa000"/>
    <path id="Path_953" data-name="Path 953" d="M1353.2-491.907c-1.587,0-3.175-.035-4.761.015-.745.023-.925-.224-.967-.958-.263-4.5-.285-4.5,4.213-4.5,2.04,0,4.085-.072,6.12.028,1.109.055,1.3-.344,1.28-1.343-.066-2.719.019-5.442-.044-8.161-.024-1.036.158-1.455,1.349-1.448,4.117.023,4.117-.032,4.117,4.1,0,1.871.049,3.743-.021,5.611-.035.944.225,1.257,1.208,1.237,3.06-.062,6.122.014,9.182-.045.962-.019,1.213.263,1.226,1.221.059,4.246.092,4.245-4.132,4.245-2.041,0-4.085.075-6.12-.029-1.171-.06-1.393.368-1.366,1.429.069,2.776,0,5.555.04,8.331.013.83-.136,1.159-1.088,1.187-4.375.128-4.373.165-4.374-4.178,0-1.87-.041-3.742.018-5.611.027-.868-.2-1.192-1.121-1.149C1356.377-491.853,1354.787-491.907,1353.2-491.907Z" transform="translate(-142.196 -40.888)" fill="#ffa000"/>
  </g>
</svg>
