<svg xmlns="http://www.w3.org/2000/svg" width="96.309" height="112.626" viewBox="0 0 96.309 112.626">
  <g id="Untitled-2" transform="translate(-2.54 -2.465)">
    <path id="Path_2041" data-name="Path 2041" d="M227.831,268.781a40.532,40.532,0,0,0-44.735-32.52,39.452,39.452,0,0,0-25.273,13.4,38.735,38.735,0,0,0-9.877,22.949,12.587,12.587,0,0,1-1.818,5.647c-3.535,5.874-6.94,11.826-10.388,17.752a1.827,1.827,0,0,0-.45,1.037c3.8,0,7.593.026,11.384-.02.828,0,1.072.177,1.066,1.046-.041,6.736-.026,13.473-.02,20.209a5.387,5.387,0,0,0,5.691,5.714h16.848c2.684,0,2.658,0,2.614,2.643,0,.7-.247.834-.871.825-2.353-.035-4.709.032-7.059-.038-.93-.026-1.113.267-1.107,1.162.029,5.647,0,11.294-.023,16.944h44.968a97.666,97.666,0,0,1,.392-11.062,88.244,88.244,0,0,1,3.413-17.609c2.033-6.617,5.519-12.508,9.3-18.26A39.336,39.336,0,0,0,227.831,268.781ZM188.72,302.057a27.825,27.825,0,1,1,27.89-27.762A27.907,27.907,0,0,1,188.72,302.057Z" transform="translate(-131.25 -231.94)" fill="none" stroke="#ffa000" stroke-miterlimit="10" stroke-width="3"/>
    <path id="Path_2042" data-name="Path 2042" d="M285.667,342.444a63.973,63.973,0,0,0-5.484,4.535c-2.193,1.824-4.34,3.71-6.681,5.723,0-2.068-.064-3.962.026-5.848.046-.97-.232-1.179-1.162-1.162-3.948.058-7.9,0-11.84.044-.767,0-.97-.186-.941-.947.061-1.743.055-3.486,0-5.214-.02-.683.177-.834.84-.831,4.067.035,8.11,0,12.166.038.767,0,.964-.189.944-.95-.061-1.946-.02-3.893-.02-6.051,2.237,1.911,4.34,3.707,6.437,5.519,1.705,1.452,3.4,2.925,5.11,4.383.18.154.32.412.625.357A.305.305,0,0,1,285.667,342.444Z" transform="translate(-219.436 -299.941)" fill="none" stroke="#ffa000" stroke-miterlimit="10" stroke-width="2"/>
    <path id="Path_2043" data-name="Path 2043" d="M349.337,333.927v-.433c0-4.276.017-8.549-.017-12.825,0-.7.168-.912.886-.892,1.772.055,3.55.044,5.325,0,.616-.014.776.166.776.779q-.032,13.15,0,26.3c0,.619-.171.787-.781.773-1.772-.041-3.55-.052-5.322,0-.726.02-.889-.2-.871-.9C349.352,342.476,349.335,338.2,349.337,333.927Z" transform="translate(-283.107 -291.423)" fill="none" stroke="#ffa000" stroke-miterlimit="10" stroke-width="2"/>
  </g>
</svg>
