<svg id="Group_731" data-name="Group 731" xmlns="http://www.w3.org/2000/svg" width="122.319" height="115.696" viewBox="0 0 122.319 115.696">
  <path id="Path_978" data-name="Path 978" d="M-1006.254-325.16l.03-.211h1.788a.556.556,0,0,0,.023.222Z" transform="translate(1016.44 325.371)" fill="#ffa000"/>
  <path id="Path_979" data-name="Path 979" d="M-723.487-325.146a1.517,1.517,0,0,1-1.31-.225h1.277A.3.3,0,0,0-723.487-325.146Z" transform="translate(831.043 325.371)" fill="#ffa000"/>
  <path id="Path_980" data-name="Path 980" d="M-1036.1-297.839l.21-.079c.064.473.172.953-.21,1.356Z" transform="translate(1036.1 307.288)" fill="#ffa000"/>
  <path id="Path_981" data-name="Path 981" d="M-1036.1-290.951c.387.385.285.856.231,1.319l-.112-.044h-.12Z" transform="translate(1036.1 302.698)" fill="#ffa000"/>
  <g id="Group_737" data-name="Group 737" transform="translate(-1839.277 -329.413)">
    <path id="Path_1035" data-name="Path 1035" d="M1950.611,458.073a21.77,21.77,0,0,0-11.846,13.476,26.412,26.412,0,0,0-6.327-4.107,14.587,14.587,0,0,0,4.4-6.032,22.9,22.9,0,0,0-.072-15.279c-2.667-7.3-11.425-10.684-18.661-7.529-.4.173-.777.38-1.193.585-.341-.375-.2-.78-.2-1.134-.01-7.216.01-14.432-.031-21.647a1.95,1.95,0,0,1,1.01-1.875q20.2-13.415,40.349-26.9a1.629,1.629,0,0,1,2.169-.016q20.14,13.492,40.33,26.909c.561.374,1.044.689,1.037,1.568-.055,7.461-.039,14.922-.047,22.383,0,.187-.032.375-.059.669a22.822,22.822,0,0,0-4.739-1.536,14.078,14.078,0,0,0-16.346,13.121,30,30,0,0,0,.62,9.652,12.618,12.618,0,0,0,4.77,7,20.809,20.809,0,0,0-6.305,4.224c-2.148-6.151-5.824-10.77-11.688-13.486-.058-.339.251-.474.461-.654a14.1,14.1,0,0,0,5-11.01,28.675,28.675,0,0,0-.525-8.04,14.059,14.059,0,0,0-27.5,1.564,32.712,32.712,0,0,0,.123,9.678C1945.878,453.1,1947.88,455.734,1950.611,458.073Z" transform="translate(-53.384 -46.532)" fill="#ffa000"/>
    <path id="Path_1036" data-name="Path 1036" d="M1961.6,366.58c-.829,1.171-1.622,2.411-2.561,3.527-.219.26-.738-.31-1.084-.542q-16.8-11.223-33.6-22.458c-5.379-3.587-10.811-7.094-16.181-10.693-1.766-1.183-3.119-1.249-5.065.067-16.428,11.106-32.968,22.047-49.455,33.066-.9.6-1.349.661-1.993-.353-1.811-2.848-1.863-2.814.959-4.7q25.858-17.25,51.7-34.522a2.127,2.127,0,0,1,2.815-.057q26.659,17.876,53.378,35.661C1960.9,365.842,1961.416,365.994,1961.6,366.58Z" fill="#ffa000"/>
    <path id="Path_1037" data-name="Path 1037" d="M1858.606,835.244c1.011-4.885,1.2-9.834,4.217-14.02,6.282-8.707,20.5-10.064,27.635-.937a1.736,1.736,0,0,1,.443,1.445q-.853,6.258-1.625,12.528c-.1.778-.412,1.024-1.215,1.006q-3.827-.088-7.656,0c-.834.018-1.061-.223-1.052-1.054.043-4.024.032-8.049.007-12.073,0-.653.1-1.047.816-1.276a2.06,2.06,0,0,0,1.49-2.4,2.272,2.272,0,0,0-2.328-2.047c-1.519-.064-3.043-.048-4.564-.007a2.291,2.291,0,0,0-2.4,1.971,2.1,2.1,0,0,0,1.532,2.512c.628.209.771.532.766,1.162-.032,4.073-.013,8.147-.021,12.221,0,.447.2.991-.646.987C1868.911,835.231,1863.813,835.244,1858.606,835.244Z" transform="translate(-6.62 -390.2)" fill="#ffa000"/>
    <path id="Path_1038" data-name="Path 1038" d="M2268.363,835.214c-2.355,0-4.711-.024-7.066.015-.691.011-.923-.166-.917-.891q.05-6.256,0-12.512c-.006-.639.292-.818.778-1a2.135,2.135,0,0,0,1.518-2.527,2.3,2.3,0,0,0-2.4-1.964c-1.52-.039-3.044-.058-4.563.008a2.267,2.267,0,0,0-2.322,2.051,2.06,2.06,0,0,0,1.495,2.4c.722.227.818.626.814,1.277-.024,4.023-.035,8.047.007,12.07.009.829-.215,1.073-1.051,1.055q-3.826-.081-7.654,0c-.8.018-1.119-.221-1.22-1-.555-4.268-1.127-8.533-1.744-12.792-.076-.527.238-.7.476-.97,4.6-5.288,10.389-7.537,17.235-6.008,7.061,1.576,11.536,6.128,13.29,13.194.529,2.132.813,4.323,1.254,6.478.184.9-.055,1.173-1.006,1.142C2272.978,835.163,2270.67,835.214,2268.363,835.214Z" transform="translate(-316.939 -390.131)" fill="#ffa000"/>
    <path id="Path_1039" data-name="Path 1039" d="M2086.142,631.837a23.452,23.452,0,0,1,.252-4.427,9.482,9.482,0,0,1,10.562-7.1,9.385,9.385,0,0,1,8.016,9.121c.041,2.492.332,5.013-.3,7.471a9.426,9.426,0,0,1-18.533-2.306C2086.135,633.762,2086.142,632.928,2086.142,631.837Z" transform="translate(-189.82 -234.155)" fill="#ffa000"/>
    <path id="Path_1040" data-name="Path 1040" d="M1923.3,680.705a23.017,23.017,0,0,1-.257,4.408,9.423,9.423,0,0,1-18.582-2.143c-.011-2.443-.294-4.905.307-7.322a9.427,9.427,0,0,1,18.531,2.139C1923.308,678.669,1923.3,679.552,1923.3,680.705Z" transform="translate(-43.476 -273.151)" fill="#ffa000"/>
    <path id="Path_1041" data-name="Path 1041" d="M2267.579,680.3a23.278,23.278,0,0,1,.256-4.411,9.424,9.424,0,0,1,18.583,2.148c.01,2.443.291,4.906-.309,7.322a9.427,9.427,0,0,1-18.528-2.144C2267.568,682.328,2267.579,681.445,2267.579,680.3Z" transform="translate(-335.903 -273.175)" fill="#ffa000"/>
    <path id="Path_1042" data-name="Path 1042" d="M2076.649,795.107c-.265-1.139-.308-2.327-.49-3.487-.7-4.459-.907-8.994-1.907-13.4a16.026,16.026,0,0,0-17.32-12.509c-7.607.647-14.109,5.516-15.308,15.144-.586,4.708-1.134,9.422-1.834,14.114-.183,1.225.142,1.341,1.2,1.333,5.741-.046,11.482-.022,17.223-.022,5.79,0,11.58-.018,17.37.018C2076.517,796.3,2076.893,796.156,2076.649,795.107Zm-15.232-22.657c-.777.257-.868.683-.865,1.39.027,5.487.015,10.973.015,16.46,0,.343.014.687,0,1.029a2.472,2.472,0,0,1-2.291,2.58,2.422,2.422,0,0,1-2.407-2.6c-.035-3.527-.012-7.054-.012-10.581,0-2.058-.02-4.115.008-6.172.014-1.03.123-1.93-1.262-2.333a1.842,1.842,0,0,1-1.043-2.216,2.289,2.289,0,0,1,2.093-1.964,21.179,21.179,0,0,1,2.5-.019v-.01c.833,0,1.671-.058,2.5.014a2.279,2.279,0,0,1,2.216,2A2.055,2.055,0,0,1,2061.417,772.45Z" transform="translate(-152.463 -351.235)" fill="#ffa000"/>
  </g>
</svg>
