<svg xmlns="http://www.w3.org/2000/svg" width="108.774" height="108.792" viewBox="0 0 108.774 108.792">
  <g id="Untitled-1" transform="translate(-0.008 -0.022)">
    <path id="Path_2036" data-name="Path 2036" d="M386.281,317.335a11.3,11.3,0,0,1-3.562,6.088c-.472.412-.751.476-1.124-.106-.466-.73-1.278-1.339-1.469-2.12s.909-1.172,1.348-1.841a7.048,7.048,0,0,0,.36-7.69A6.769,6.769,0,0,0,375.172,308a7.041,7.041,0,0,0-6.387,4.643c-.276.645-.221.963.585,1.236a8.9,8.9,0,0,1,6.13,7.3c.161.833.133,1.478-1.057,1.29-.739-.115-1.587.176-2.241-.082s-.415-1.242-.672-1.881a5.388,5.388,0,0,0-6.315-3.3,5.4,5.4,0,0,0,1.16,10.661c1.015.055,2.038.042,3.056,0,.548-.021.678.154.7.694.112,2.947.13,2.944-2.853,2.944-4.779,0-8.144-2.268-9.446-6.36a8.992,8.992,0,0,1,5.824-11.294,1.751,1.751,0,0,0,1.393-1.426,10.868,10.868,0,0,1,21.125.391.975.975,0,0,0,.818.866,9.082,9.082,0,0,1-.863,17.727,31.519,31.519,0,0,1-4.637.115c-.412.015-.542-.154-.5-.53v-.115c-.182-2.986-.182-2.986,2.792-2.986,3.332,0,5.452-1.493,6.085-4.258A5.268,5.268,0,0,0,386.281,317.335Z" transform="translate(-284.907 -284.325)" fill="#ffa000"/>
    <path id="Path_2037" data-name="Path 2037" d="M403.017,387.434h-6.86c-.1-.436.164-.7.3-.978,1.941-3.9,3.937-7.775,5.821-11.7.4-.83.733-.8,1.42-.445,2.332,1.187,2.338,1.166,1.181,3.489-.966,1.941-1.929,3.889-2.944,5.939h7.178c.2.369-.061.557-.179.763-2.641,4.637-5.312,9.259-7.92,13.914-.409.73-.724.769-1.327.3-.712-.536-1.99-.691-2.144-1.46-.127-.639.727-1.478,1.151-2.223C400.109,392.543,401.545,390.039,403.017,387.434Z" transform="translate(-311.909 -332.954)" fill="#ffa000"/>
    <path id="Path_2038" data-name="Path 2038" d="M152.8,264.315a2.726,2.726,0,0,0,0,.566c.2.909-.218,1.16-1.078,1.311a7.026,7.026,0,0,0-6.094,6.306c-.115.7-.336.872-.969.806a12.6,12.6,0,0,0-1.354,0c-1.59,0-1.59,0-1.314-1.545a10.886,10.886,0,0,1,8.768-9.137C152.8,262.213,152.8,262.213,152.8,264.315Z" transform="translate(-134.642 -255.108)" fill="#ffa000"/>
    <path id="Path_2039" data-name="Path 2039" d="M133.092,246.249a1.381,1.381,0,0,0,0,.224c.221,1.163-.224,1.6-1.43,1.86a4.744,4.744,0,0,0-3.8,4.007c-.176.99-.572,1.311-1.514,1.163a3.719,3.719,0,0,0-1.13,0c-.972.151-1.327-.151-1.175-1.193a9.222,9.222,0,0,1,7.039-7.663C133.092,244.2,133.092,244.2,133.092,246.249Z" transform="translate(-122.202 -242.56)" fill="#ffa000"/>
    <path id="Path_2040" data-name="Path 2040" d="M213.559,327.475c-2.686-.533-5.421-.158-8.132-.206a1.374,1.374,0,0,1-1.451-.893c-4.24-8.559-8.565-17.088-12.778-25.662a16.629,16.629,0,0,0-8.741-8.574c-.527-.215-.578-.391-.3-.893a15.865,15.865,0,0,0,1.23-3.731c.927-3.937,1.115-8.068,3.162-11.7a2.5,2.5,0,0,0,.221-.754c.448-2.423.109-4.894.209-7.338a5.082,5.082,0,0,0-.854-3.332,5.97,5.97,0,0,1-.96-4.155c.03-.678.015-1.36,0-2.041a19.5,19.5,0,0,0-7.405-15.349c-4.116-3.4-8.925-4.607-14.21-4.461a19.484,19.484,0,0,0-13.668,5.57c-7.987,7.875-15.943,15.785-23.781,23.805a27.284,27.284,0,0,0-8,19.565c-.061,11.067,0,22.133-.024,33.2a23.784,23.784,0,0,0,.3,3.719,26.934,26.934,0,0,0,30.153,22.682c10.794-1.4,18.172-7.484,22.109-17.612,1.469-3.777,2.614-7.678,3.937-11.621.151.206.227.3.282.388,4.622,8.1,9.667,15.958,13.992,24.229a8.571,8.571,0,0,0,8.074,4.846q7.366.024,14.728,0a9.947,9.947,0,0,0,1.908-19.677Zm-30.735-61.561a1.312,1.312,0,0,1,.188.409c.512,2.835.987,5.857-.13,8.456-1.393,3.241-1.941,6.605-2.7,9.955-.267,1.172-.418,2.378-.769,3.522a9.1,9.1,0,0,1-8.459,6.336c-1.054.033-2.12-.018-3.168.021-.563.021-.8-.106-.769-.733.058-.978.015-1.963.015-2.941V288c0-.339-.051-.606.482-.666,3.477-.439,4.882-1.772,5.452-5.2.4-2.371.678-4.767,1.072-7.142A7.269,7.269,0,0,0,173.1,270a3.935,3.935,0,0,1-.124-4.086c1.211-2.2,3.3-2.15,5.424-2.156C180.271,263.764,181.834,264.212,182.824,265.914ZM166.13,281.908c-3.634.021-7.251-.015-10.876.024a2.529,2.529,0,0,1-2.468-1.417c-1.4-2.523-2.847-5.018-4.352-7.663h4.746a1.133,1.133,0,0,1,.839.479c.642.636,1.269,1.293,1.926,1.914a5.4,5.4,0,0,0,7.638,0c1.605-1.566,3.5-2.75,5.218-4.152.466-.379.569-.206.875.224,1.033,1.451.763,3,.524,4.57q-.454,3.071-.909,6.148a1.847,1.847,0,0,1-.957,1.448c-.948.521-1.354.318-1.29-.757C167.112,281.93,166.739,281.9,166.13,281.908Zm7.572-37.356c5.982,3.389,8.108,9.086,7.8,15.828-4-.391-6.484-.482-9.047.824V258.27a7.229,7.229,0,0,0-7.2-7.187,1.76,1.76,0,0,0-1.463.63c-.527.591-1.1,1.145-1.681,1.681a4.443,4.443,0,0,1-6.49-.076,5.932,5.932,0,0,0-5.812-2.232,11.938,11.938,0,0,1-1.714,0c6.63-8.716,15.913-12.024,25.607-6.533Zm-32,12.572c1.766-1.851,3.565-2.829,6.088-2.4a2.193,2.193,0,0,0,.563,0,6.36,6.36,0,0,1,5.352,1.754c3.229,2.95,7.993,2.462,11.236-.7,1.127-1.1,1.672-1.1,2.789,0a3.777,3.777,0,0,1,1.1,2.756c.015,2.423,0,4.846,0,7.251a3.384,3.384,0,0,1-1.757,1.972c-.369.055-.4-.285-.536-.466-1.036-1.345-2.081-2.683-3.062-4.067-.36-.506-.606-.494-1.039-.136-.721.606-1.917,1.057-2.093,1.775s.93,1.514,1.469,2.275,1.145,1.6,1.772,2.347c.388.466.339.73-.164,1.054a14.366,14.366,0,0,0-2.238,1.9,1.783,1.783,0,0,1-2.856-.024c-.818-.784-1.651-1.56-2.4-2.423a2.153,2.153,0,0,0-1.966-.8c-.784.067-1.578.015-2.474.015.073-.321.109-.506.158-.687.215-.787,1.018-1.872.591-2.271-.7-.657-1.9-.787-2.886-1.13-.536-.188-.53.3-.627.572a23.317,23.317,0,0,0-.909,2.78c-.167.7-.542.769-1.139.724a7.473,7.473,0,0,1-6.866-7.03A6,6,0,0,1,141.7,257.125ZM121.76,286.936a24.181,24.181,0,0,1,7.066-16.764c2.359-2.441,4.8-4.8,7.345-7.338a11.161,11.161,0,0,0,5.321,8.48,1.726,1.726,0,0,0,.482.26c1.841.379,2.583,1.848,3.389,3.3,1.378,2.5,2.841,4.961,4.24,7.454a5.716,5.716,0,0,0,5.521,3.213c2.49-.067,4.982,0,7.475-.027.63,0,.821.154.815.8q-.045,5.546,0,11.1c0,.627-.151.821-.8.818q-5.947-.045-11.891,0a2.514,2.514,0,0,1-1.89-.848c-2.338-2.359-4.71-4.685-7.03-7.066-.542-.557-.878-.606-1.384,0-.551.663-1.642,1.227-1.681,1.884-.051.772,1.078,1.324,1.7,1.96q3.062,3.107,6.175,6.157a1.478,1.478,0,0,1,.479,1.178c0,3.474-.024,6.948,0,10.422,0,.606-.136.824-.8.821q-11.891-.03-23.781,0c-.606,0-.836-.115-.833-.787.039-8.338-.082-16.682.079-25.023Zm28.945,15.446c0-.388.115-.524.512-.521h7.454l-7.959,7.959c0-2.426.006-4.931-.006-7.444Zm39.424,32.764c-.869.563-1.018-.07-1.3-.548-5.306-9.016-10.625-18.024-15.882-27.07-.606-1.024-.99-1.133-1.975-.479-1.872,1.236-2.078,1.287-.739,3.071,1.7,2.253,1.787,4.343.724,6.936-1.514,3.707-2.438,7.663-3.937,11.385-3.525,8.753-10.064,13.868-19.459,14.9a23.284,23.284,0,0,1-25.6-19.835,48.513,48.513,0,0,1-.282-6.33c0-.772.285-.83.909-.824,3.965.024,7.929,0,11.894,0,3.889,0,7.778.015,11.669-.018.709,0,.987.133.942.909-.07,1.278,0,2.565-.03,3.849,0,.527.121.691.681.712,2.956.121,3.141.124,2.9-2.838a6.939,6.939,0,0,1,2.574-6.254c3.332-3.007,6.433-6.275,9.555-9.507a3.454,3.454,0,0,1,3.313-1.363c.7.133,1.075-.115.927-.887a.464.464,0,0,1,0-.112c.064-.854-.379-2.02.191-2.474s1.657-.179,2.514-.139a12.841,12.841,0,0,0,9.134-2.92,1.151,1.151,0,0,1,1.248-.127,11.492,11.492,0,0,1,7.054,5.806c4.513,8.883,8.932,17.815,13.408,26.716.267.53.194.763-.3,1.066C196.883,330.882,193.485,332.981,190.129,335.146Zm27.637,2.387a6.418,6.418,0,0,1-6.324,6.027H197.289a6.036,6.036,0,0,1-5.948-4.37c-.13-.415.048-.536.3-.7l11.875-7.414a1.027,1.027,0,0,1,.512-.194c2.826.073,5.673-.3,8.48.164a6.23,6.23,0,0,1,5.261,6.49Z" transform="translate(-118.06 -238.35)" fill="#ffa000"/>
  </g>
</svg>
