<svg xmlns="http://www.w3.org/2000/svg" width="110.591" height="110.558" viewBox="0 0 110.591 110.558">
  <g id="Group_732" data-name="Group 732" transform="translate(0 0)">
    <path id="Path_983" data-name="Path 983" d="M-1473.548-478.243a4.149,4.149,0,0,1-2.582-4.473c.155-2.544-.164-5.1.185-7.647a12.638,12.638,0,0,1,12.238-10.935c8.667-.077,17.335-.093,26,.005a12.616,12.616,0,0,1,12.31,12.581c.008,2.05-.087,4.1.026,6.148a3.958,3.958,0,0,1-2.616,4.319Z" transform="translate(1535.952 588.802)" fill="#ffa000"/>
    <path id="Path_984" data-name="Path 984" d="M-1683.2-474.723a29.47,29.47,0,0,1,1.037-2.994c2.212-4.742,5.937-7.423,11.183-7.624,4.417-.17,8.849-.214,13.267.047a12.685,12.685,0,0,1,11.229,10.539,28.986,28.986,0,0,1,.176,4.3,3.83,3.83,0,0,1-2.558,3.5h-31.741a2.864,2.864,0,0,1-2.591-2.591Z" transform="translate(1683.205 577.507)" fill="#ffa000"/>
    <path id="Path_985" data-name="Path 985" d="M-1422.28-593.128a13.857,13.857,0,0,1-13.792-13.894,13.891,13.891,0,0,1,13.993-13.813,13.954,13.954,0,0,1,13.708,14.017A13.916,13.916,0,0,1-1422.28-593.128Z" transform="translate(1507.455 673.768)" fill="#ffa000"/>
    <path id="Path_986" data-name="Path 986" d="M-1642.251-546.415a9.212,9.212,0,0,1-9.088-9.383,9.18,9.18,0,0,1,9.728-9.044c4.958.109,8.83,4.449,8.7,9.745A9.214,9.214,0,0,1-1642.251-546.415Z" transform="translate(1660.546 633.95)" fill="#ffa000"/>
    <path id="Path_987" data-name="Path 987" d="M-1614.113-791.564a12.6,12.6,0,0,0-12.463-12.518q-22.07-.026-44.139,0a12.711,12.711,0,0,0-12.013,9.1,4.1,4.1,0,0,1-.477,1.478v38.65c.065.077.17.144.192.232,1.611,6.715,6.322,10.443,13.216,10.446,6.835,0,13.67.024,20.5-.023a3.644,3.644,0,0,1,2.764,1.067c4.161,3.923,8.382,7.781,12.582,11.663a3.436,3.436,0,0,0,3.965.786,3.4,3.4,0,0,0,2.064-3.46c-.035-2.949.021-5.9-.029-8.849-.015-.872.106-1.2,1.128-1.219a12.6,12.6,0,0,0,12.708-12.71Q-1614.1-774.244-1614.113-791.564Zm-34.637,38.1a3.479,3.479,0,0,1-3.355-3.51,3.45,3.45,0,0,1,3.541-3.308,3.465,3.465,0,0,1,3.357,3.5A3.475,3.475,0,0,1-1648.75-753.46Zm7.42-21.06c-.277.229-.563.447-.842.673a7.235,7.235,0,0,0-3.049,6.207,3.458,3.458,0,0,1-2.609,3.723,3.458,3.458,0,0,1-4.275-3.357,13.936,13.936,0,0,1,5.029-11.412c.458-.4.961-.756,1.423-1.154a4.646,4.646,0,0,0,1.177-5.485,4.591,4.591,0,0,0-5.082-2.564,4.447,4.447,0,0,0-3.652,3.985c-.156,1.779-.673,3.24-2.553,3.813a3.381,3.381,0,0,1-4.357-3.157,11.438,11.438,0,0,1,11.5-11.578,11.462,11.462,0,0,1,10.755,7.54A11.5,11.5,0,0,1-1641.33-774.52Z" transform="translate(1683.205 804.093)" fill="#ffa000"/>
  </g>
</svg>
