<svg xmlns="http://www.w3.org/2000/svg" width="102.37" height="104.142" viewBox="0 0 102.37 104.142">
  <g id="Group_735" data-name="Group 735" transform="translate(0)">
    <path id="Path_1004" data-name="Path 1004" d="M650.333-1103.464q-6.85,0-13.7.007a1.208,1.208,0,0,1-1.281-.636c-1.873-3.34-3.8-6.651-5.719-9.964a1.954,1.954,0,0,1-.249-1.933,1.811,1.811,0,0,1,1.585-1.132,1.839,1.839,0,0,1,1.761,1.044c1.155,2,2.3,4.014,3.484,6a1.776,1.776,0,0,0,2.677.789,2.281,2.281,0,0,0,.83-2.122q-.015-10.5,0-21.007c0-1.2.546-1.938,1.5-2.092a1.82,1.82,0,0,1,2.15,2.008c.012,4.3,0,8.6,0,12.9,0,1.028-.019,2.056.005,3.082a1.908,1.908,0,0,0,1.813,2.079,1.9,1.9,0,0,0,1.828-2.064c.027-1.636,0-3.273.01-4.909a1.908,1.908,0,0,1,1.844-2.147c1.121-.014,1.8.779,1.805,2.138.008,1.6-.011,3.2.006,4.795.013,1.326.746,2.185,1.821,2.187s1.8-.864,1.825-2.184c.016-1.027-.006-2.055.006-3.083a1.794,1.794,0,0,1,1.8-2.027,1.78,1.78,0,0,1,1.846,1.982c.017,1.636-.005,3.273.008,4.909.011,1.338.709,2.2,1.778,2.23,1.1.034,1.854-.861,1.87-2.255.012-1.066-.019-2.132.01-3.2a1.763,1.763,0,0,1,1.867-1.842,1.741,1.741,0,0,1,1.77,1.824c.02,4.643-.014,9.286.031,13.928.008.843-.467.686-.936.686Q657.355-1103.462,650.333-1103.464Z" transform="translate(-562.941 1207.597)" fill="#ffa000"/>
    <path id="Path_1005" data-name="Path 1005" d="M738.87-1271.818a5.132,5.132,0,0,0-3.75.1v-76.659a4.971,4.971,0,0,1,3.738,4.545c.021.38.012.761.012,1.141q0,34.818,0,69.637Z" transform="translate(-636.521 1356.177)" fill="#ffa000"/>
    <path id="Path_1006" data-name="Path 1006" d="M493.134-1071.009h-.977q-24.6,0-49.2.006a5.5,5.5,0,0,1-5.141-2.952.685.685,0,0,1-.109-.708h1.08q26.313,0,52.626-.016c.834,0,1.306.006,1.136,1.087A5.333,5.333,0,0,0,493.134-1071.009Z" transform="translate(-429.832 1166.007)" fill="#ffa000"/>
    <path id="Path_1007" data-name="Path 1007" d="M505.88-1326.122q-46.294.045-92.588,0c-.988,0-1.233.21-1.232,1.221.034,21.958.069,43.916-.019,65.874a5.938,5.938,0,0,0,6.048,6.049c19.294-.091,38.588-.046,57.882-.039a5.3,5.3,0,0,0,2.2-.407,4.909,4.909,0,0,1,3.992.013,5.944,5.944,0,0,0,2.084.408c.75.051.942-.188.934-.933-.039-3.805-.013-7.611-.022-11.416a6.567,6.567,0,0,1,.383-2.344,5.5,5.5,0,0,1,5.749-3.545,5.5,5.5,0,0,1,4.817,5.365c.058,1.931.011,3.864.011,5.871a5.469,5.469,0,0,1,6.2,1.909c.153.188.3.331.571.192a5.232,5.232,0,0,1,4.194-.246v-1.328q0-32.708.026-65.417C507.111-1325.9,506.874-1326.123,505.88-1326.122Zm-65.467,54.85c-1.29-.07-2.587,0-3.88-.031-.535-.015-.72.125-.71.689q.05,2.967,0,5.936c-.008.538.133.785.692.7a1.477,1.477,0,0,1,.342,0c.858.066,2.165-.385,2.474.184.432.8.133,1.987.16,3.009.017.671-.483.449-.8.451-2.816.014-5.632.008-8.448.008-2.74,0-5.48-.02-8.219.015-.646.008-.86-.17-.813-.818.066-.9-.29-2.079.158-2.65.477-.609,1.707-.2,2.6-.176.762.023.946-.215.926-.948-.052-1.863-.047-3.729,0-5.593.016-.663-.2-.828-.828-.805-1.292.047-2.589-.024-3.88.03-.669.028-.844-.2-.8-.831.064-.9-.284-2.083.166-2.645.478-.6,1.71-.205,2.6-.168.789.032.913-.256.91-.961-.023-7.915,0-15.83-.025-23.745,0-1.517.245-2.885,1.569-3.817.373-.263.258-.6.263-.917.016-1.065-.005-2.131.009-3.2a3.626,3.626,0,0,1,2.941-3.8c.614-.156.733-.4.725-.982-.035-2.473.014-4.947-.033-7.42-.013-.7.164-.882.874-.881,2.8,0,2.8-.027,2.8,2.82,0,1.826.025,3.654-.015,5.479-.013.58.109.828.724.984a3.614,3.614,0,0,1,2.943,3.8c.01.609,0,1.218,0,1.827,0,1.109-.129,2.166.982,3.026.822.636.853,1.8.852,2.851-.012,7.953.006,15.906-.025,23.859,0,.812.131,1.1,1.028,1.076,2.672-.059,2.647-.011,2.662,2.7C441.338-1271.5,441.188-1271.23,440.413-1271.272Zm26.479-.019c0,2.854.005,5.709,0,8.563,0,1.739-.667,2.4-2.423,2.4q-8.563.006-17.126,0c-1.684,0-2.367-.672-2.369-2.334-.007-5.747.006-11.493-.012-17.24a2.774,2.774,0,0,1,.875-2.133c1.392-1.353,2.763-2.726,4.129-4.105.808-.817.722-1.272-.3-1.816a1.871,1.871,0,0,1-1.031-1.77c-.009-2.322-.027-4.643.006-6.964a1.847,1.847,0,0,1,2.011-1.99q5.252-.039,10.5,0a1.878,1.878,0,0,1,2.081,2.04c.031,2.283.013,4.567.006,6.85a1.913,1.913,0,0,1-1.079,1.856c-.952.48-1.048.983-.3,1.746,1.334,1.356,2.673,2.709,4.047,4.025a3.078,3.078,0,0,1,1,2.43C466.867-1276.924,466.893-1274.108,466.893-1271.292Zm19.393-22.358a3.916,3.916,0,0,0-1.426,4.364,8.916,8.916,0,0,1-6.9,10.645,9.226,9.226,0,0,1-10.945-6.732,9.272,9.272,0,0,1,9.157-11.487,9.121,9.121,0,0,1,5.33,1.922c.468.376.724.327,1.108-.083.8-.861,1.682-1.653,2.482-2.517.41-.442.651-.543,1.153-.056C488.289-1295.614,488.372-1295.569,486.285-1293.65Zm.005-21.947a3.989,3.989,0,0,0-1.41,4.478,8.934,8.934,0,0,1-6.9,10.55,9.2,9.2,0,0,1-10.919-6.6,9.257,9.257,0,0,1,9.109-11.615,8.612,8.612,0,0,1,5.03,1.721c.766.615,1.159.462,1.725-.186.723-.829,1.562-1.556,2.318-2.357.339-.359.538-.339.909-.008C488.376-1317.623,488.474-1317.536,486.291-1315.6Zm10.761,35.171H494.2c-1.559,0-3.12-.019-4.678.011-.522.01-.7-.108-.723-.678-.124-2.987-.144-2.986,2.856-2.986,2.4,0,4.793.026,7.189-.016.711-.012.962.132.956.912C499.779-1280.426,499.814-1280.426,497.052-1280.426Zm-5.435-10.961c2.434,0,4.869.03,7.3-.019.711-.014.877.177.876.878,0,2.794.027,2.794-2.707,2.794h-2.853c-1.56,0-3.12-.028-4.678.014-.6.016-.746-.167-.759-.759C488.737-1291.387,488.717-1291.387,491.617-1291.387Zm5.417-10.961h-2.738c-1.6,0-3.2-.022-4.793.012-.549.012-.682-.155-.7-.7-.113-2.968-.131-2.968,2.873-2.968,2.434,0,4.869.023,7.3-.015.645-.01.811.173.819.816C499.826-1302.348,499.849-1302.348,497.033-1302.348Zm0-7.307H494.3c-1.6,0-3.2-.022-4.793.013-.547.011-.684-.151-.7-.7-.114-2.97-.132-2.969,2.871-2.969,2.434,0,4.869.022,7.3-.015.643-.01.812.169.82.814C499.827-1309.656,499.85-1309.656,497.035-1309.656Z" transform="translate(-412.041 1340.713)" fill="#ffa000"/>
    <path id="Path_1008" data-name="Path 1008" d="M507.116-1368.47a5.4,5.4,0,0,0-5.4-5.456q-42.123-.012-84.246,0a5.4,5.4,0,0,0-5.345,5.393c-.015,1.446.058,2.9-.024,4.336-.054.953.148,1.257,1.2,1.254q23.116-.064,46.233-.029H502.34c1.294,0,2.59-.053,3.88.02.785.044.938-.241.914-.954C507.083-1365.425,507.129-1366.948,507.116-1368.47Zm-89.589,1.846c-1.751,0-1.751,0-1.751-1.788,0-1.866,0-1.866,1.9-1.866,1.752,0,1.752,0,1.752,1.788C419.429-1366.624,419.429-1366.624,417.526-1366.624Zm7.48,0c-1.924,0-1.924,0-1.924-1.958,0-1.7,0-1.7,1.73-1.7,1.924,0,1.924,0,1.924,1.958C426.736-1366.624,426.736-1366.624,425.006-1366.624Zm7.234,0c-1.85,0-1.85,0-1.85-1.8,0-1.85,0-1.85,1.8-1.85,1.85,0,1.85,0,1.85,1.917C434.044-1366.624,434.044-1366.624,432.24-1366.624Z" transform="translate(-412.076 1373.932)" fill="#ffa000"/>
    <path id="Path_1009" data-name="Path 1009" d="M460.028-1229.568c0-3.917.026-7.835-.021-11.751-.01-.809.2-1.015,1-.988,1.861.063,3.727.045,5.589.006.605-.013.8.168.748.762-.089.936.392,2.175-.188,2.729-.486.465-1.723.21-2.621.158-.723-.042-.939.187-.863.885.1.9-.37,2.085.188,2.617.468.446,1.653.214,2.511.151.821-.061,1.069.212.975,1-.1.856.361,2.037-.184,2.5-.517.438-1.657.186-2.52.158-.665-.021-1.083.046-.973.885.117.892-.37,2.085.194,2.615.473.445,1.656.212,2.514.147.829-.063.989.23.979,1.007-.035,2.659,0,2.708-2.6,2.641-.931-.024-1.107.275-1.09,1.129.051,2.542.016,2.592,2.607,2.524.936-.024,1.1.283,1.087,1.132-.049,2.547-.015,2.547-2.61,2.547-1.293,0-2.589-.051-3.878.02-.747.041-.859-.23-.854-.9C460.044-1221.582,460.028-1225.575,460.028-1229.568Z" transform="translate(-445.368 1282.479)" fill="#ffa000"/>
    <path id="Path_1010" data-name="Path 1010" d="M469.669-1142.824v.8c0,2.781,0,2.754-2.73,2.769-.727,0-.967-.16-.943-.925.059-1.9.038-3.8.008-5.7-.008-.533.129-.692.687-.714,2.979-.12,2.978-.138,2.978,2.862Z" transform="translate(-449.528 1216.004)" fill="#ffa000"/>
    <path id="Path_1011" data-name="Path 1011" d="M467.98-1266.18c1.736,0,1.736,0,1.736,1.8,0,1.85,0,1.85-1.8,1.85-1.85,0-1.85,0-1.85-1.8C466.063-1266.18,466.063-1266.18,467.98-1266.18Z" transform="translate(-449.576 1299.064)" fill="#ffa000"/>
    <path id="Path_1012" data-name="Path 1012" d="M547.536-1224.278h.8c3.022,0,3.01,0,2.756,3.081-.036.435-.138.585-.585.581q-3.08-.029-6.16,0c-.442,0-.639-.131-.576-.579a.568.568,0,0,0,0-.114c-.148-2.97-.148-2.97,2.854-2.97Z" transform="translate(-503.533 1269.95)" fill="#ffa000"/>
    <path id="Path_1013" data-name="Path 1013" d="M614.156-1285.735a5.734,5.734,0,0,1-4.563,6.634,5.64,5.64,0,0,1-6.474-4.923,5.655,5.655,0,0,1,4.991-6.118,5.846,5.846,0,0,1,3.294.663c.683.367.9.629.211,1.255-1.177,1.076-2.248,2.268-3.414,3.358-.542.507-.726.855-.043,1.4s1.275,1.646,1.9,1.639c.639-.006,1.279-1.05,1.9-1.66C612.649-1284.173,613.319-1284.878,614.156-1285.735Z" transform="translate(-544.772 1315.727)" fill="#ffa000"/>
    <path id="Path_1014" data-name="Path 1014" d="M612.317-1216.98c-1.36,1.336-2.7,2.681-4.073,3.988-.485.461-.7.789-.05,1.312.679.542,1.234,1.651,1.9,1.695.783.052,1.33-1.094,1.977-1.721.678-.657,1.289-1.385,2-2.162a5.345,5.345,0,0,1-3.036,6.2,5.589,5.589,0,0,1-6.988-2.128,5.555,5.555,0,0,1,1.108-7.209A5.462,5.462,0,0,1,612.317-1216.98Z" transform="translate(-544.849 1265.82)" fill="#ffa000"/>
    <path id="Path_1015" data-name="Path 1015" d="M546.488-1184.661c0-2.245-.037-4.49.02-6.733a2.27,2.27,0,0,0-.8-1.876c-1.3-1.224-2.539-2.517-3.816-3.769a2.7,2.7,0,0,1-.875-1.552c-.093-.622.311-1.5-.208-1.81s-1.328-.082-2.011-.09a2.943,2.943,0,0,1-.456,0c-.775-.133-1.12.128-.995.96a3.06,3.06,0,0,1-1.166,2.809c-1.28,1.192-2.474,2.475-3.737,3.685a1.736,1.736,0,0,0-.583,1.389q.035,7.019,0,14.038c0,.678.128.9.86.892q6.448-.06,12.9,0c.825.009.9-.308.887-.979C546.468-1180.02,546.488-1182.34,546.488-1184.661Zm-3.654-1.206a5.972,5.972,0,0,0,.008.911c.119.764-.205,1.036-.931.9-.763-.138-1.033.2-.9.925.139.766-.2,1.005-.927.912a5.119,5.119,0,0,0-1.139,0c-1.033.1-1.878.066-1.607-1.389.122-.658-.494-.468-.79-.425-.882.128-1.155-.226-1.028-1.058a4.123,4.123,0,0,0,0-1.025c-.1-1.033-.069-1.858,1.39-1.613.734.123.448-.587.419-.9-.073-.771.223-1.008.949-.914a5.086,5.086,0,0,0,1.139,0c1.032-.1,1.9-.063,1.6,1.387-.1.457.261.5.572.439,1.216-.241,1.4.413,1.25,1.388A3.025,3.025,0,0,0,542.835-1185.867Z" transform="translate(-495.291 1253.472)" fill="#ffa000"/>
  </g>
</svg>
