<svg xmlns="http://www.w3.org/2000/svg" width="123.66" height="122.26" viewBox="0 0 123.66 122.26">
  <g id="Group_8339" data-name="Group 8339" transform="translate(2005.415 -110.333)">
    <path id="Path_2024" data-name="Path 2024" d="M-1706.239,209.248a7.247,7.247,0,0,1,7.111,5.993,7.239,7.239,0,0,1-4.226,7.86c-.726.314-1.162.571-1.148,1.494a1.69,1.69,0,0,1-1.759,1.765,1.875,1.875,0,0,1-1.893-1.8c-.3-2.606.451-3.782,3-4.681a3.591,3.591,0,0,0,2.407-3.858,3.67,3.67,0,0,0-3.563-3.147,3.685,3.685,0,0,0-3.55,3.022c-.041.236-.01.483-.043.721a1.879,1.879,0,0,1-1.979,1.7,1.813,1.813,0,0,1-1.651-1.879A7.173,7.173,0,0,1-1706.239,209.248Z" transform="translate(-197.707 -67)" fill="#ffa000"/>
    <path id="Path_2025" data-name="Path 2025" d="M-1951.6,209.248a7.313,7.313,0,0,1,7.151,5.813,7.309,7.309,0,0,1-4.27,8.077c-.7.3-1.07.553-1.057,1.417a1.762,1.762,0,0,1-1.857,1.8,1.813,1.813,0,0,1-1.8-1.764c-.348-2.619.414-3.839,2.94-4.714a3.632,3.632,0,0,0,2.453-3.948,3.735,3.735,0,0,0-3.526-3.065,3.587,3.587,0,0,0-3.526,2.866c-.073.311-.105.632-.156.948a1.814,1.814,0,0,1-1.89,1.635,1.875,1.875,0,0,1-1.731-1.954A7.228,7.228,0,0,1-1951.6,209.248Z" transform="translate(-31.53 -67)" fill="#ffa000"/>
    <path id="Path_2026" data-name="Path 2026" d="M-1938.345,269.123c.005,1.334-.7,2.172-1.848,2.181-1.163.01-1.858-.794-1.863-2.153-.005-1.32.733-2.211,1.836-2.216A1.952,1.952,0,0,1-1938.345,269.123Z" transform="translate(-42.916 -106.074)" fill="#ffa000"/>
    <path id="Path_2027" data-name="Path 2027" d="M-1693.172,269.121c0,1.363-.679,2.176-1.835,2.182s-1.871-.826-1.876-2.153a1.958,1.958,0,0,1,1.844-2.217C-1693.937,266.919-1693.176,267.811-1693.172,269.121Z" transform="translate(-208.985 -106.073)" fill="#ffa000"/>
    <path id="Path_2028" data-name="Path 2028" d="M-1886.155,252.284c-8.068-6.711-15.992-13.6-24.13-20.223-1.926-1.567-2.751-3.1-2.489-5.5.1-.96.338-1.158,1.236-1.151q7.785.059,15.571.011c5.506-.038,9.517-3.788,9.575-9.023q.1-8.629,0-17.259a8.856,8.856,0,0,0-8.682-8.86c-5.711-.123-11.426-.078-17.139-.043-5.648.035-9.371,3.852-9.376,9.516,0,1.842.563,2.717,1.779,2.756,1.25.04,1.841-.848,1.855-2.786.027-3.619,2.25-5.829,5.888-5.833q8.087-.01,16.175,0c3.595,0,5.76,2.148,5.8,5.758.025,2.333.014,4.667,0,7-.014,3.459.057,6.922-.1,10.376a5.013,5.013,0,0,1-4.965,4.654c-5.593.048-11.186.011-16.779.038-.635,0-.831-.173-.807-.809.047-1.245.041-2.495.006-3.741-.064-2.282-.962-4.328-3.212-4.851-2.049-.477-2.129-1.539-2.04-3.132a1.749,1.749,0,0,0-1.723-1.92,1.84,1.84,0,0,0-1.877,1.924c-.028,1.126-.037,2.254.005,3.379a1.722,1.722,0,0,1-.643,1.552c-9.077-16.591-33.178-16.729-42.67.04a2.019,2.019,0,0,1-.657-1.667q.04-6.638.009-13.277a8.837,8.837,0,0,0-6.812-8.685c-2.927-.679-5.93-.206-8.9-.286a1.828,1.828,0,0,0-2.07,1.842,1.925,1.925,0,0,0,2.149,1.8c2.092.015,4.184,0,6.277.006a5.4,5.4,0,0,1,5.716,5.639c.03,3.781,0,7.564.019,11.346,0,.6-.069.854-.779.986a5.16,5.16,0,0,0-4.46,5.423c-.016,1.126-.061,2.257.015,3.378.058.846-.2,1.069-1.05,1.062-5.311-.042-10.623-.011-15.934-.026-3.464-.01-5.61-2.15-5.666-5.629-.026-1.649-.007-3.3-.007-4.949,0-3.862-.02-7.725.01-11.587a5.277,5.277,0,0,1,4.349-5.548,22.468,22.468,0,0,1,2.766-.106,1.883,1.883,0,0,0,1.843-1.86,1.839,1.839,0,0,0-1.776-1.775c-6.442-.636-10.9,3.378-10.905,9.824q-.005,7.725,0,15.45c0,6.135,3.763,9.9,9.916,9.91,4.989.011,9.979.047,14.968-.029,1.21-.018,1.419.3,1.529,1.487a5.162,5.162,0,0,1-2.385,5.071c-3.673,2.8-7.112,5.908-10.648,8.888-4.7,3.965-9.425,7.91-14.106,11.9a10.151,10.151,0,0,0-3.594,10.692,10.233,10.233,0,0,0,7.837,7.838c2.794.738,5.684.318,8.53.306,1,0,1.543-.821,1.6-1.809a1.749,1.749,0,0,0-1.757-1.769c-1.246-.046-2.494-.023-3.741-.018a13.388,13.388,0,0,1-3.95-.319,6.761,6.761,0,0,1-4.924-4.973,6.521,6.521,0,0,1,2.185-6.957c3.189-2.766,6.443-5.458,9.67-8.18q7.745-6.534,15.5-13.054c.238-.2.517-.841.938-.242,1.316,1.87,3.305,3.225,3.938,5.647a1.545,1.545,0,0,1-.585,1.95c-5.584,4.668-11.138,9.372-16.707,14.059-.738.621-1.376,1.261-1,2.349.385,1.119,1.257,1.305,2.3,1.3,6.639-.017,13.278,0,19.917-.018a2.21,2.21,0,0,1,1.632.558,10.693,10.693,0,0,0,4.656,2.39,27.9,27.9,0,0,0,6.963.37,1.442,1.442,0,0,1,1.528.957c2.6,5.167,9.789,6.006,13.038,1.249a4.537,4.537,0,0,1,4.868-2.188,13.061,13.061,0,0,0,1.448,0,11.651,11.651,0,0,0,7.847-2.863,1.913,1.913,0,0,1,1.419-.474c3.138.014,6.277.007,9.415.006,3.662,0,7.323-.006,10.985,0a1.856,1.856,0,0,0,1.9-1.19,1.8,1.8,0,0,0-.61-2.153c-.147-.136-.31-.255-.464-.385q-8.439-7.114-16.872-14.235c-.272-.23-.821-.37-.571-.911.543-1.175.633-2.541,1.688-3.51a16.358,16.358,0,0,0,2.106-2.478c.494-.681.806-.7,1.465-.141,4.461,3.816,8.968,7.579,13.455,11.364,3.842,3.24,7.708,6.454,11.509,9.743a6.758,6.758,0,0,1,1.2,9.309,7.341,7.341,0,0,1-6.377,3.006q-10.925,0-21.849,0c-2.935,0-3.942,1.026-3.943,4.008,0,3.219-.04,6.438.021,9.656.02,1.049-.275,1.374-1.353,1.372q-23.358-.05-46.715,0c-1.078,0-1.374-.325-1.355-1.372.06-3.258-.036-6.519.042-9.776.053-2.246-.987-4.048-3.846-3.912-2.529.12-5.069.024-7.6.026-1.8,0-2.714.635-2.675,1.848.039,1.19.926,1.8,2.635,1.8,2.253,0,4.507.036,6.76-.018.789-.019,1,.2.991.992-.047,3.057-.024,6.115-.018,9.173.006,3.178,1.656,4.876,4.79,4.877q23.659.012,47.318,0c3.063,0,4.731-1.71,4.743-4.8.012-3.017.04-6.036-.019-9.052-.018-.921.2-1.2,1.165-1.19q10.863.064,21.727.008a10.782,10.782,0,0,0,9.939-7.126,6.307,6.307,0,0,1,.581-1.784v-3.621A13.541,13.541,0,0,0-1886.155,252.284Zm-66.36-44.9c12.457-6.242,27.423,1.846,29.292,15.63.278,2.047.125,4.078.212,6.107a1.6,1.6,0,0,1-.237.019c-.75-.119-1.662-.019-2.2-.419-.61-.45-.157-1.425-.265-2.164a6.691,6.691,0,0,0-6.427-5.613c-1.488-.013-2.977.008-4.465,0a5.638,5.638,0,0,0-4.916,2.554,2.966,2.966,0,0,1-2.725,1.4c-3.379-.039-6.759-.012-10.138-.013a6.6,6.6,0,0,0-6.126,3.339c-.437.75-1.071.615-1.66.634-.632.02-1.474.576-1.785.167-.336-.441-.131-1.3-.142-1.983C-1964.244,218.124-1960.5,211.385-1952.515,207.385Zm-18.18,21.884c.095-3.933.027-7.87.033-11.806,0-1.324.465-1.965,1.4-1.977s1.484.676,1.488,1.934c.012,4.538-.015,9.076.02,13.613.009,1.055-.8,1.6-1.163,2.381C-1970.489,232.359-1970.735,230.937-1970.7,229.269Zm-10.073,26.6,12.912-10.881c.342,3.725-.493,7.371.977,10.881Zm14.708-18.485a4.72,4.72,0,0,1,3.686-4.831c.719-.149,1,.032.951.831-.072,1.281-.019,2.568-.019,3.853h.011c0,1.285-.017,2.57.008,3.854.011.577-.031.845-.775.708A4.644,4.644,0,0,1-1966.06,237.386Zm14.607,21.508a.424.424,0,0,1-.472.26c-2.2-.088-4.426.287-6.588-.312a7.725,7.725,0,0,1-5.582-7.305c-.026-2.086,0-4.172,0-6.384a5.743,5.743,0,0,0,1.733.335c1.449-.2,1.78.638,2.231,1.777a17.527,17.527,0,0,0,7.758,8.877A2.582,2.582,0,0,1-1951.453,258.894Zm12.04-.151a9.192,9.192,0,0,0-.008,1.085c-.012,2.509-1.311,4.268-3.38,4.576a4.125,4.125,0,0,1-4.723-2.828,10.245,10.245,0,0,1-.169-3.112c-.014-.658.521-.37.791-.321a17.937,17.937,0,0,0,6.708-.021C-1939.671,258.023-1939.334,258.08-1939.414,258.744Zm-2.99-3.981a14.338,14.338,0,0,1-14.937-10.7,15.383,15.383,0,0,1-.474-3.808c.018-2.693,0-5.386.006-8.08,0-2.445,1.086-3.552,3.494-3.558,3.257-.007,6.513-.023,9.769,0a6.5,6.5,0,0,0,5.959-2.951,2.4,2.4,0,0,1,2.144-1.106c1.326,0,2.654-.032,3.979.008a3.05,3.05,0,0,1,3.138,3.231c.027,2.251.006,4.5.006,7.234-.133,2.206.193,4.9-.19,7.585A14.362,14.362,0,0,1-1942.4,254.763Zm19.142-1.635a7.543,7.543,0,0,1-7.178,5.99c-1.483.058-2.971,0-4.455.053-.634.022-.8-.186-.823-.811a2.293,2.293,0,0,1,1.292-2.473,16.947,16.947,0,0,0,7.746-9.453,1.1,1.1,0,0,1,1.244-.912,15.7,15.7,0,0,0,2.427-.316C-1923.159,247.855-1922.7,250.516-1923.262,253.128Zm-1.916-11.278c-.638.045-.516-.312-.518-.647-.007-1.365,0-2.729,0-4.093h.011c0-1.324.028-2.65-.013-3.972-.018-.583.228-.658.712-.61a4.69,4.69,0,0,1,3.917,4.866A4.694,4.694,0,0,1-1925.177,241.85Zm18.782,13.986h-13.815c1.386-3.466.642-7.071.919-10.862Zm-11.742-22.425a4.487,4.487,0,0,1-1.248-3.423c.086-4.054.029-8.111.034-12.167a6,6,0,0,1,.084-1.194,1.3,1.3,0,0,1,1.481-1.112,1.273,1.273,0,0,1,1.3,1.307c.027.722.018,1.445.018,2.168,0,3.454-.1,6.911.042,10.359A4.464,4.464,0,0,1-1918.137,233.412Z" transform="translate(0 -54.07)" fill="#ffa000"/>
    <path id="Path_2029" data-name="Path 2029" d="M-1833.156,118.952a8.839,8.839,0,0,0-8.462-8.569c-3.015-.1-6.035-.019-9.052-.019-3.058,0-6.118-.08-9.173.018a8.876,8.876,0,0,0-8.485,8.676q-.092,8.81,0,17.622a8.774,8.774,0,0,0,8.06,8.7,178.043,178.043,0,0,0,19.057,0,8.733,8.733,0,0,0,8.063-8.567C-1833.081,130.861-1833.072,124.9-1833.156,118.952Zm-3.667,17.534c-.054,3.232-2.354,5.282-5.618,5.316h-8.321c-2.773,0-5.547.014-8.32,0a5.255,5.255,0,0,1-5.577-5.357q-.118-8.56,0-17.121a5.276,5.276,0,0,1,5.619-5.328q8.32-.018,16.641,0a5.273,5.273,0,0,1,5.576,5.372Q-1836.693,127.924-1836.823,136.486Z" transform="translate(-92.826 0)" fill="#ffa000"/>
    <path id="Path_2030" data-name="Path 2030" d="M-1822.733,317.733c1.384-.025,2.071.532,2.21,1.576a1.737,1.737,0,0,1-1.454,2.024c-.3.079-.7.011-.685.459.011.368.392.33.643.422,1.233.452,1.727,1.209,1.457,2.226-.3,1.12-1.223,1.594-2.552,1.308a4.081,4.081,0,0,1-3.284-4.374A4.03,4.03,0,0,1-1822.733,317.733Z" transform="translate(-121.242 -140.482)" fill="#ffa000"/>
    <path id="Path_2031" data-name="Path 2031" d="M-1838.116,315.523a8.835,8.835,0,0,1-.086,1.56,1.721,1.721,0,0,1-1.889,1.5,1.629,1.629,0,0,1-1.7-1.55,15.829,15.829,0,0,1-.053-2.647,1.81,1.81,0,0,1,1.805-1.872,1.874,1.874,0,0,1,1.893,1.925c.027.36,0,.724,0,1.086Z" transform="translate(-110.775 -136.946)" fill="#ffa000"/>
    <path id="Path_2032" data-name="Path 2032" d="M-1797.159,315.549c0-.4-.032-.808.006-1.206a1.836,1.836,0,0,1,1.868-1.816,1.734,1.734,0,0,1,1.8,1.731,14.155,14.155,0,0,1-.008,2.648,1.678,1.678,0,0,1-1.828,1.683,1.759,1.759,0,0,1-1.826-1.715,8.564,8.564,0,0,1-.011-1.325Z" transform="translate(-141.051 -136.956)" fill="#ffa000"/>
    <path id="Path_2033" data-name="Path 2033" d="M-1828.987,129.185a7.284,7.284,0,0,1,7.211,5.882,7.278,7.278,0,0,1-4.337,8.03,1.274,1.274,0,0,0-.987,1.348,1.835,1.835,0,0,1-1.826,1.861,1.933,1.933,0,0,1-1.868-1.845c-.31-2.5.518-3.861,2.8-4.607a3.6,3.6,0,0,0,2.628-3.929,3.723,3.723,0,0,0-3.6-3.119,3.69,3.69,0,0,0-3.571,3.278c-.022.158,0,.323-.024.481a1.858,1.858,0,0,1-1.852,1.7,1.833,1.833,0,0,1-1.764-1.9A7.182,7.182,0,0,1-1828.987,129.185Z" transform="translate(-114.632 -12.769)" fill="#ffa000"/>
    <path id="Path_2034" data-name="Path 2034" d="M-1815.775,189.124c-.022,1.322-.769,2.142-1.924,2.115-1.133-.027-1.838-.889-1.816-2.221a1.958,1.958,0,0,1,1.922-2.149A2,2,0,0,1-1815.775,189.124Z" transform="translate(-125.919 -51.841)" fill="#ffa000"/>
    <path id="Path_2035" data-name="Path 2035" d="M-1823.351,351.417a4.21,4.21,0,0,0-4.3-4.371c-2.971-.054-5.944-.058-8.915,0a4.19,4.19,0,0,0-4.249,4.292c-.024.923-.028,1.848.016,2.77a4.132,4.132,0,0,0,4.156,3.97c1.526.017,3.053,0,4.579,0,1.486,0,2.972.01,4.458,0a4.151,4.151,0,0,0,4.246-4.135C-1823.327,353.1-1823.332,352.26-1823.351,351.417Zm-6.261,3.042c-2.124.018-4.25-.024-6.373.017-.873.016-1.218-.271-1.193-1.177.081-2.934-.382-2.488,2.443-2.527.922-.013,1.844,0,2.766,0,1.323,0,2.646.019,3.968-.007.691-.014,1.024.2,1.01.961C-1827.051,354.91-1826.618,354.434-1829.612,354.459Z" transform="translate(-111.481 -160.31)" fill="#ffa000"/>
  </g>
</svg>
