<svg xmlns="http://www.w3.org/2000/svg" width="129.368" height="129.369" viewBox="0 0 129.368 129.369">
  <g id="Group_733" data-name="Group 733" transform="translate(0 0)">
    <path id="Path_988" data-name="Path 988" d="M-918.254-760.747c-3.77.965-6.4-.749-8.649-3.56-.917-1.146-2.081-2.091-3.1-3.156a2.1,2.1,0,0,1-.138-3.115,2.1,2.1,0,0,1,3.115.144q2.472,2.408,4.877,4.884a1.958,1.958,0,0,0,1.587.647c2.083-.043,4.168-.026,6.252-.013,1.446.009,2.311.779,2.336,2.034.026,1.322-.848,2.118-2.37,2.132C-915.649-760.737-916.952-760.747-918.254-760.747Z" transform="translate(1012.13 825.417)" fill="#ffa000"/>
    <path id="Path_989" data-name="Path 989" d="M-935.258-914.895c1.04,0,2.081-.026,3.12.007a2.01,2.01,0,0,1,2.079,2.018,2.013,2.013,0,0,1-2.092,2.136q-2.274.053-4.549,0a1.679,1.679,0,0,0-1.356.559q-1.9,1.959-3.858,3.861a2.135,2.135,0,0,1-3.205.19c-.878-.9-.79-2.135.26-3.2,1.337-1.359,2.753-2.646,4.021-4.065a3.9,3.9,0,0,1,3.632-1.514A15.331,15.331,0,0,0-935.258-914.895Z" transform="translate(1021.87 919.069)" fill="#ffa000"/>
    <path id="Path_990" data-name="Path 990" d="M-1031.123-813.326a61.166,61.166,0,0,0-17.6-5.151c-.973-.152-1.123-.486-1.121-1.363q.04-22.228,0-44.457c0-.978.188-1.294,1.244-1.287,7.474.052,14.948.03,22.422.024a7.765,7.765,0,0,0,1.94-.147,7.374,7.374,0,0,0,5.674-8.178,7.346,7.346,0,0,0-7.45-6.272q-16.1-.009-32.2,0h-1.425c6.141-3.8,8.427-8.868,6.708-14.552a11.954,11.954,0,0,0-11.608-8.539,11.978,11.978,0,0,0-11.494,9.37c-1.287,5.386,1.34,10.633,7.052,13.677-.465.026-.628.043-.792.043q-16.425,0-32.85.007a8.66,8.66,0,0,0-1.938.145,7.329,7.329,0,0,0-5.728,8.125,7.347,7.347,0,0,0,7.4,6.324q11.406.014,22.813-.008c.684,0,1.073,0,1.071.924q-.05,22.554-.007,45.108c0,.718-.225.909-.9,1.018a69.375,69.375,0,0,0-13.329,3.3c-4.542,1.688-8.872,3.744-12.171,7.458-3.822,4.3-3.77,9.556.092,13.842a22.852,22.852,0,0,0,6.637,4.959c7.271,3.745,15.128,5.4,23.169,6.29a102.463,102.463,0,0,0,18.606.3,77.788,77.788,0,0,0,21.337-4.222c4.506-1.645,8.787-3.721,12.077-7.373,3.856-4.28,3.854-9.53.028-13.845A24.037,24.037,0,0,0-1031.123-813.326Zm-40.936-77.974a7.6,7.6,0,0,1,7.647-7.674,7.744,7.744,0,0,1,7.8,7.72,7.8,7.8,0,0,1-7.7,7.713A7.7,7.7,0,0,1-1072.059-891.3Zm-29.933,21.571a8.788,8.788,0,0,1-1.43-.055,3.177,3.177,0,0,1-2.715-3.038,3.183,3.183,0,0,1,2.775-3.117,9.793,9.793,0,0,1,1.43-.045q18.769,0,37.536,0h37.406c.348,0,.7-.013,1.043.006a3.224,3.224,0,0,1,3.22,3.1,3.183,3.183,0,0,1-3.178,3.135c-1.475.059-2.954.016-4.431.016q-10.492,0-20.984,0c-2.055,0-2.681.641-2.681,2.735q0,34.672,0,69.344a6.412,6.412,0,0,1-.372,2.553,4.233,4.233,0,0,1-4.3,2.514,4.276,4.276,0,0,1-3.656-3.846,12.721,12.721,0,0,1-.021-1.3q0-17.857,0-35.715a8.434,8.434,0,0,0-.023-1.172,2.03,2.03,0,0,0-2.1-1.731,2.019,2.019,0,0,0-2.031,1.8,10.443,10.443,0,0,0-.016,1.172q0,17.923.005,35.845a6.173,6.173,0,0,1-.369,2.423,4.232,4.232,0,0,1-4.3,2.522,4.27,4.27,0,0,1-3.672-3.969c-.033-.432-.012-.868-.012-1.3q0-34.476,0-68.953c0-2.355-.561-2.922-2.889-2.922Q-1089.871-869.728-1101.992-869.729Zm75.439,72.852a22.089,22.089,0,0,1-8.646,5.608,68.957,68.957,0,0,1-19.791,4.5,96.557,96.557,0,0,1-16.389.22c-8.284-.624-16.41-1.984-24.031-5.5a20.234,20.234,0,0,1-6.617-4.513c-2.689-2.923-2.688-5.727.015-8.617,2.8-3,6.425-4.667,10.175-6.052a61.033,61.033,0,0,1,12.805-3.122c0,5.874.011,11.605,0,17.337a8.011,8.011,0,0,0,4.785,7.833,8,8,0,0,0,9.182-1.358c.488-.417.712-.5,1.246-.033a7.964,7.964,0,0,0,9.169,1.406,8.047,8.047,0,0,0,4.831-7.934c-.023-5.256-.006-10.512-.006-15.767v-1.51c6.952,1.141,13.65,2.726,19.649,6.451a16.193,16.193,0,0,1,3.575,3.007C-1024.28-802.307-1024.251-799.511-1026.552-796.877Z" transform="translate(1129.128 911.45)" fill="#ffa000"/>
    <path id="Path_991" data-name="Path 991" d="M-1127.194-926.771q-8.536,0-17.073,0-8.6,0-17.2,0c-2.006,0-2.674.651-2.675,2.61q0,11.991,0,23.982c0,1.957.673,2.61,2.677,2.611q17.138,0,34.276,0c2,0,2.676-.659,2.677-2.612q0-11.991,0-23.982C-1124.516-926.116-1125.19-926.77-1127.194-926.771Zm-1.471,23.987c.005.85-.216,1.068-1.066,1.065q-14.6-.047-29.2,0c-.848,0-1.072-.212-1.067-1.064q.057-9.385,0-18.771c0-.851.215-1.073,1.066-1.066,4.866.042,9.732.021,14.6.021s9.733.021,14.6-.021c.849-.007,1.072.213,1.067,1.065Q-1128.722-912.169-1128.665-902.784Z" transform="translate(1164.18 926.773)" fill="#ffa000"/>
    <path id="Path_992" data-name="Path 992" d="M-1137.578-728.658c-2.868-.007-5.738-.079-8.6.034-1.222.049-1.435-.365-1.364-1.441.091-1.384.022-2.779.022-4.17,0-1.564.017-3.129-.005-4.692a2.072,2.072,0,0,0-2.271-2.249c-7.174-.174-13.963,6.222-14.413,13.406a14.762,14.762,0,0,0,15.377,15.832c7.348-.362,13.777-6.752,13.823-14.118C-1135-727.92-1135.712-728.653-1137.578-728.658Zm-11.533,12.508A10.468,10.468,0,0,1-1160-725.671a10.334,10.334,0,0,1,8.307-10.995q0,4.827,0,9.63c0,1.886.674,2.562,2.587,2.57,3.166.013,6.331,0,9.5,0C-1139.757-720.39-1144.423-716.327-1149.111-716.15Z" transform="translate(1164.242 805.855)" fill="#ffa000"/>
    <path id="Path_993" data-name="Path 993" d="M-859.342-924.449a2.04,2.04,0,0,0-2.308-2.32q-15.441-.013-30.882,0a2.009,2.009,0,0,0-2.26,2.233c-.022,1.867-.01,3.736,0,5.6.005,1.9.68,2.584,2.57,2.586q7.558.007,15.115,0,7.688,0,15.376,0c1.643,0,2.383-.741,2.395-2.368Q-859.32-921.582-859.342-924.449Zm-13.426,3.959c-2.822-.071-5.647-.026-8.471-.026s-5.649-.045-8.471.026c-.918.023-.935-.378-.935-1.068s.016-1.077.933-1.069q8.471.075,16.943,0c.915-.008.935.378.934,1.067S-871.849-920.467-872.768-920.49Zm8.234-.016a7.666,7.666,0,0,0-1.171-.01,6.724,6.724,0,0,0-.911.007c-.811.111-1.126-.135-1.1-1.03.024-.807.163-1.184,1.058-1.079a10,10,0,0,0,2.081,0c.813-.075,1.126.141,1.1,1.036C-863.5-920.771-863.643-920.367-864.534-920.506Z" transform="translate(988.698 926.776)" fill="#ffa000"/>
    <path id="Path_994" data-name="Path 994" d="M-859.343-888.053c0-2.181-.608-2.8-2.745-2.8q-7.493,0-14.985,0-7.688,0-15.376,0c-1.581,0-2.334.736-2.348,2.277q-.028,2.932,0,5.864a2.04,2.04,0,0,0,2.348,2.281q15.376.012,30.752,0c1.616,0,2.342-.76,2.353-2.41C-859.333-884.578-859.341-886.315-859.343-888.053Zm-27.109,3.1c-.1.36-.31.35-.566.351-.521,0-1.042,0-1.563,0a6.221,6.221,0,0,0-.911.007c-.866.131-1.189-.122-1.182-1.086.007-.917.336-1.09,1.121-1.019.6.055,1.215.01,1.823.011C-886.511-886.682-886.12-886.121-886.451-884.951Zm22.021.379c-2.866-.07-5.734-.026-8.6-.026-2.781,0-5.562-.046-8.341.026-.919.023-.933-.381-.934-1.069s.018-1.076.934-1.068q8.471.075,16.943,0c.917-.008.933.381.933,1.069S-863.512-884.55-864.43-884.573Z" transform="translate(988.703 903.375)" fill="#ffa000"/>
    <path id="Path_995" data-name="Path 995" d="M-862.208-735.452q-7.361-.008-14.722,0-7.492,0-14.983,0c-2.275,0-2.875.6-2.877,2.822,0,1.694-.005,3.388,0,5.082.007,1.831.755,2.577,2.614,2.586,2.345.01,4.69,0,7.035,0q11.6,0,23.191,0c1.861,0,2.61-.754,2.618-2.584.007-1.694,0-3.388,0-5.082C-859.332-734.849-859.937-735.449-862.208-735.452Zm-10.565,6.283c-2.862-.064-5.727-.024-8.591-.024-2.777,0-5.555-.043-8.331.024-.919.022-.938-.393-.944-1.087-.006-.669.069-.99.884-.984q8.527.057,17.053,0c.824-.006.88.329.879.989C-871.824-729.548-871.862-729.148-872.773-729.169Zm8-.018c-.257-.023-.519,0-.779,0-.3,0-.608-.023-.909,0-.769.071-1.248.022-1.259-1.035-.011-1.092.523-1.049,1.259-1.007.561.032,1.125,0,1.687.008.641.01,1.33-.267,1.327.934C-863.451-729.155-863.965-729.114-864.776-729.187Z" transform="translate(988.69 802.126)" fill="#ffa000"/>
    <path id="Path_996" data-name="Path 996" d="M-859.385-696.689c0-2.247-.593-2.847-2.851-2.85q-7.426-.009-14.853,0c-5.081,0-10.162-.012-15.244.007-1.823.007-2.5.723-2.511,2.529-.006,1.129.031,2.26-.007,3.388-.145,4.3.177,4.617,4.548,4.588,9.337-.062,18.674-.018,28.012-.02,2.262,0,2.905-.656,2.906-2.95Q-859.384-694.344-859.385-696.689Zm-28.5,3.409c-.259.01-.519,0-.779,0a8.361,8.361,0,0,0-.908.006c-.768.083-1.154-.074-1.143-1.015.01-.883.288-1.12,1.1-1.033.556.06,1.124,0,1.687.013.717.011,1.5-.3,1.478,1.043C-886.471-692.995-887.211-693.306-887.884-693.28Zm24.344-1.12c-.055.6.107,1.15-.882,1.142q-8.526-.069-17.053,0c-1,.008-.807-.561-.869-1.152-.081-.77.238-.922.945-.913,2.82.038,5.641.016,8.462.016s5.641.024,8.461-.016C-863.752-695.334-863.471-695.152-863.54-694.4Z" transform="translate(988.745 778.73)" fill="#ffa000"/>
    <path id="Path_997" data-name="Path 997" d="M-1085.5-765.168c-2.562-.014-5.125.027-7.687-.02a2.889,2.889,0,0,0-2.292.977c-1.048,1.1-2.181,2.121-3.2,3.246-.558.617-.929.713-1.675.213a13.575,13.575,0,0,0-7.588-2.318,2.065,2.065,0,0,0-2.34,2.3c-.018,2,0,4,0,5.994,0,2.084-.02,4.169.008,6.254a1.941,1.941,0,0,0,2.089,2.136q6.253.05,12.507,0a1.961,1.961,0,0,0,2.079-2.151,14.474,14.474,0,0,0-1.257-5.922c-.416-1.012-1.668-1.93-1.343-2.878.343-1,1.594-1.657,2.361-2.541a3.048,3.048,0,0,1,2.689-1.148c1.862.1,3.734.036,5.6.024,1.528-.01,2.4-.8,2.379-2.123A2.051,2.051,0,0,0-1085.5-765.168Zm-19.969,14.62c-.667.01-.653-.339-.65-.807.011-2.387,0-4.774,0-7.25a10.229,10.229,0,0,1,2.936,1.043c.5.25.641.508.149.935a3.285,3.285,0,0,0-.743.891,1.944,1.944,0,0,0,.374,2.491,1.973,1.973,0,0,0,2.616.243,10.975,10.975,0,0,0,1.253-1.088,8.557,8.557,0,0,1,1.478,3.528C-1100.555-750.562-1103.011-750.583-1105.467-750.548Z" transform="translate(1129.091 821.499)" fill="#ffa000"/>
    <path id="Path_998" data-name="Path 998" d="M-1132.549-904.642q-5.536,0-11.073,0c-1.664,0-2.551-.73-2.556-2.076s.876-2.092,2.536-2.093q11.008-.006,22.016,0c1.664,0,2.552.73,2.558,2.074s-.885,2.093-2.539,2.1Q-1127.078-904.636-1132.549-904.642Z" transform="translate(1152.473 915.074)" fill="#ffa000"/>
    <path id="Path_999" data-name="Path 999" d="M-1132.493-890.856q5.471,0,10.942,0c1.575,0,2.448.724,2.481,2.02.035,1.366-.853,2.146-2.485,2.148q-11.073.007-22.146,0c-1.573,0-2.446-.726-2.479-2.022-.034-1.369.849-2.143,2.484-2.146Q-1138.095-890.864-1132.493-890.856Z" transform="translate(1152.475 903.374)" fill="#ffa000"/>
    <path id="Path_1000" data-name="Path 1000" d="M-1136.795-868.729c-2.344,0-4.688.01-7.033,0-1.51-.009-2.385-.824-2.352-2.146.031-1.254.893-2.016,2.347-2.019q7.032-.014,14.065,0c1.511,0,2.388.823,2.354,2.144-.031,1.253-.9,2.013-2.349,2.021C-1132.107-868.719-1134.451-868.729-1136.795-868.729Z" transform="translate(1152.474 891.678)" fill="#ffa000"/>
  </g>
</svg>
