<svg xmlns="http://www.w3.org/2000/svg" width="171.151" height="152.024" viewBox="0 0 171.151 152.024">
  <path id="Path_945" data-name="Path 945" d="M-157.873,631.887q-10.5-25.069-20.983-50.146a11.675,11.675,0,0,0-8.7-7.484,28.633,28.633,0,0,0-8.148-.192,10.712,10.712,0,0,0-10.1,10.646,10.835,10.835,0,0,0,10.192,10.761,1.466,1.466,0,0,1,1.543,1.108c3.507,9.689,7.07,19.357,10.618,29.031.146.4.551.863.117,1.209s-.813-.167-1.166-.38c-9.616-5.812-19.148-5.393-28.592.4a5.016,5.016,0,0,1-2.8.784c-4.448-.041-8.9-.017-13.344-.017h-8.122c.305-.213.382-.305.473-.324a22.1,22.1,0,0,0,17.7-17.934c.978-5.494.6-11.1.284-16.636-.58-10.251-9.552-19.462-19.779-20.156-9.322-.633-18.674-.164-28.011-.2a4.7,4.7,0,0,0-4.521,3.138c-1.463,3.5,1.137,6.934,5.336,6.9,1.46-.011,1.858.34,1.838,1.827q-.13,10.257-.023,20.516a22.573,22.573,0,0,0,10.452,19.384,25.028,25.028,0,0,0,7.967,3.379c-7.14.1-14.254.089-21.369.121a4.745,4.745,0,0,1-2.649-.741c-9.428-5.837-18.961-6.242-28.591-.479-.5.3-.97.788-1.609.385.2-.527.413-1.039.6-1.558q5.181-14.121,10.341-28.251a1.928,1.928,0,0,1,1.946-1.54,10.765,10.765,0,0,0,9.955-10.63,10.714,10.714,0,0,0-9.841-10.715,51.793,51.793,0,0,0-5.332-.1c-5.711,0-9.585,2.578-11.789,7.826q-3.6,8.582-7.194,17.17-7.6,18.171-15.206,36.338a5.326,5.326,0,0,0,.449,5.654,43.469,43.469,0,0,0,13.267,11.973c8.605,4.969,18.021,6.678,27.8,6.871a1.7,1.7,0,0,1,1.944,1.432c2.711,9.019,5.224,18.111,8.33,26.995,3.36,9.61,5.2,19.331,4.342,29.51-.065.773-.012,1.556-.007,2.335.015,2.815,1.232,4.127,4.032,4.131q24.854.031,49.708,0c2.7,0,3.947-1.344,3.952-4.042q.016-8.091-.007-16.18a8.15,8.15,0,0,1,.36-2.451q6.187-20.184,12.337-40.379a1.615,1.615,0,0,1,1.843-1.344,65.284,65.284,0,0,0,16.789-2.248c10.681-3.043,19.363-8.863,25.417-18.325v-2.67C-156.513,635.019-157.213,633.462-157.873,631.887Zm-76.55,75.171q-6.986.145-13.977,0a4.892,4.892,0,0,1-4.855-5.06,4.941,4.941,0,0,1,4.98-4.778c2.329-.046,4.659-.009,6.989-.009,2.219,0,4.438-.034,6.656.008a4.946,4.946,0,0,1,5.032,4.9A4.883,4.883,0,0,1-234.423,707.058Zm4.515-19.98q-11.506.067-23.013,0c-3.133-.019-5.35-2.187-5.311-5,.039-2.843,2.263-4.866,5.413-4.88,3.835-.017,7.671,0,11.506,0,3.78,0,7.56-.014,11.34,0,3.146.015,5.366,2.051,5.39,4.9C-224.559,684.922-226.758,687.06-229.908,687.078Z" transform="translate(326.982 -572.219)" fill="#ffa000"/>
</svg>
