<svg xmlns="http://www.w3.org/2000/svg" width="168.395"  viewBox="0 0 168.395 152.024">
  <g id="Group_725" data-name="Group 725" transform="translate(-682.151 -219.685)">
    <path id="Path_942" data-name="Path 942" d="M850.546,274c-.541,2.354-1.044,4.717-1.63,7.06A52.433,52.433,0,0,1,842.934,295a1.941,1.941,0,0,1-1.954,1.061q-19.489-.042-38.979,0a1.806,1.806,0,0,1-1.852-1.151q-7.988-14.949-16.056-29.856c-1.5-2.78-3.782-3.8-6.357-2.876a5.74,5.74,0,0,0-3.148,3.368q-9.223,19.538-18.479,39.061c-.3.624-.623,1.233-1,1.983-4.547-7.133-8.969-14.093-13.415-21.037-1.521-2.374-3.676-3.186-6.024-2.334a5.306,5.306,0,0,0-2.754,2.455c-1.869,3.149-3.795,6.264-5.631,9.432a1.654,1.654,0,0,1-1.668.949q-17.1-.039-34.21.014c-1.051,0-1.409-.536-1.849-1.256a48.75,48.75,0,0,1,15.541-67.208,47.811,47.811,0,0,1,30.26-7.762c10.845.874,20.319,5.23,28.747,11.991,2.18,1.748,2.17,1.766,4.389-.014,7.653-6.135,16.206-10.364,25.982-11.674a47.429,47.429,0,0,1,35.561,9.3A49.743,49.743,0,0,1,849.786,260.2a24.376,24.376,0,0,0,.76,4.267v5.263a2.51,2.51,0,0,0,0,1.974Z" transform="translate(0 0)" fill="#ffa000"/>
    <path id="Path_943" data-name="Path 943" d="M1064.723,335.487a1.483,1.483,0,0,1,0-1.974Z" transform="translate(-214.177 -63.787)" fill="#ffa000"/>
    <path id="Path_944" data-name="Path 944" d="M718.515,380.107c10.327,0,20.3-.037,30.269.025a5.9,5.9,0,0,0,5.76-3.26c.986-1.813,2.118-3.548,3.2-5.341.6.321.764.864,1.04,1.3,4.268,6.68,8.549,13.351,12.765,20.064,1.169,1.862,2.651,3.105,4.907,2.952s3.56-1.569,4.5-3.557q9.088-19.315,18.262-38.589c.254-.536.523-1.066.789-1.608.588.291.7.87.949,1.336,4.15,7.685,8.346,15.347,12.4,23.081a6.215,6.215,0,0,0,6.184,3.633c11.125-.079,22.251-.032,33.376-.032H854.5l.344.471a8.553,8.553,0,0,0-1.31.9q-31.367,31.181-62.7,62.392c-1.738,1.732-3.639,2.581-6.056,1.671a5.384,5.384,0,0,1-1.868-1.3q-31.812-31.665-63.633-63.32C719.094,380.732,718.922,380.539,718.515,380.107Z" transform="translate(-20.378 -74.197)" fill="#ffa000"/>
  </g>
</svg>
