<svg xmlns="http://www.w3.org/2000/svg" width="152.115" height="152.023" viewBox="0 0 152.115 152.023">
  <g id="Group_729" data-name="Group 729" transform="translate(888.274 177.491)">
    <g id="Group_728" data-name="Group 728" transform="translate(-888.274 -177.491)">
      <g id="Group_727" data-name="Group 727" transform="translate(0 0)">
        <path id="Path_954" data-name="Path 954" d="M-744.776-177.491c1.694.422,3.421.743,5.076,1.283a27.146,27.146,0,0,1,18.838,25.865c.1,12.319.017,24.64.035,36.96,0,.808-.048,1.22-1.09,1.2-4.641-.11-9.285-.135-13.928-.116-1.012,0-1.363-.233-1.332-1.3.076-2.62.045-5.244.013-7.866a2.109,2.109,0,0,1,.761-1.788,21.356,21.356,0,0,0,7.352-16.368c.015-1.682.023-3.365,0-5.047a2.656,2.656,0,0,0-2.82-2.909c-6.553-.39-10.371-4.219-10.743-10.827a2.653,2.653,0,0,0-1.81-2.61,2.632,2.632,0,0,0-3.04.932,38.151,38.151,0,0,1-12.285,9.356,32.176,32.176,0,0,1-12.679,3.148c-1.682.061-2.679.858-2.888,2.2-.217,1.4.367,2.417,1.992,3.011.83.3.682.845.661,1.4a22.312,22.312,0,0,0,3.089,12.618,19.5,19.5,0,0,0,4.152,4.994,2.158,2.158,0,0,1,.887,1.878c-.049,2.671-.058,5.344,0,8.015.021.927-.27,1.159-1.169,1.158-4.741-.005-9.484.023-14.224.123-1.047.022-.945-.523-.945-1.187q.01-7.867,0-15.734c0-7.026-.149-14.056.034-21.077.3-11.586,5.739-19.978,16.212-25a27.836,27.836,0,0,1,6.938-2c.273-.051.611.051.754-.314Z" transform="translate(826.897 177.491)" fill="#ffa000"/>
        <path id="Path_955" data-name="Path 955" d="M-888.274,135.421c.5-.351.424-.955.6-1.439a10.621,10.621,0,0,1,9.6-7.159c15.242-.063,30.485-.024,45.727-.071,1.124,0,.994.583.994,1.281q-.007,10.226,0,20.453H-879.38a10.155,10.155,0,0,1-8.894-8.907Z" transform="translate(888.274 3.538)" fill="#ffa000"/>
        <path id="Path_956" data-name="Path 956" d="M-666.075,148.487c0-6.825.015-13.651-.018-20.476,0-.91.155-1.259,1.182-1.256,14.914.037,29.827.006,44.741.036a10.828,10.828,0,0,1,10.977,9.585,10.86,10.86,0,0,1-8.789,11.907,1.42,1.42,0,0,0-.361.2Z" transform="translate(761.24 3.536)" fill="#ffa000"/>
        <path id="Path_957" data-name="Path 957" d="M-742.894,148.475c.013-6.773.05-13.546.015-20.318-.006-1.063.19-1.471,1.354-1.419,2.266.1,4.541.013,6.811.036,2,.02,3.052,1.019,3.061,2.982.024,5.24-.015,10.482.024,15.722a3.659,3.659,0,0,1-1.778,3Z" transform="translate(805.152 3.548)" fill="#ffa000"/>
        <path id="Path_958" data-name="Path 958" d="M-702.371,148.485a3.985,3.985,0,0,1-1.8-3.738c.091-4.893.026-9.79.036-14.685,0-2.3.953-3.265,3.212-3.281,2.172-.015,4.347.052,6.516-.028,1.019-.038,1.206.336,1.2,1.263-.023,6.823.006,13.645.019,20.468Z" transform="translate(783.009 3.538)" fill="#ffa000"/>
        <path id="Path_959" data-name="Path 959" d="M-888.274-87.006a3.794,3.794,0,0,1,3.706-1.814c4.037.1,8.078.024,12.117.035,1.964.005,3.154,1.054,3.144,2.728-.008,1.618-1.156,2.671-3.038,2.681-4.286.024-8.572-.03-12.857.028a3.311,3.311,0,0,1-3.073-1.877Z" transform="translate(888.274 126.794)" fill="#ffa000"/>
        <path id="Path_960" data-name="Path 960" d="M-796.959,77.856c-4.248,0-8.5.009-12.743,0-5.678-.015-9.045-3.354-9.064-9.014-.019-5.639.02-11.279-.027-16.917-.008-1.021.251-1.341,1.306-1.328q6.889.088,13.779,0c1.064-.014,1.434.322,1.282,1.334a4.719,4.719,0,0,0,0,.593c-.022,1.084.3,2.364-.164,3.2-.5.9-1.9.222-2.885.419a2.773,2.773,0,0,0-2.4,2.6,2.668,2.668,0,0,0,2.158,2.639,8.79,8.79,0,0,0,1.765.131c7.013.012,14.027-.037,21.04.038a7.926,7.926,0,0,1,7.582,5.965,8.156,8.156,0,0,1-3.5,9.028,9.146,9.146,0,0,1-5.081,1.315Q-790.44,77.854-796.959,77.856Z" transform="translate(848.547 47.081)" fill="#ffa000"/>
        <path id="Path_961" data-name="Path 961" d="M-682.419,77.854c-4.4,0-8.792.054-13.187-.013-6.154-.095-10.109-5.765-7.908-11.244a8.083,8.083,0,0,1,7.8-5.074c6.766-.025,13.532,0,20.3-.015a7.413,7.413,0,0,0,1.9-.19,2.432,2.432,0,0,0,1.9-2.655,2.47,2.47,0,0,0-2.15-2.47,6.851,6.851,0,0,0-.883-.1c-2.379-.128-2.379-.126-2.379-2.614,0-2.862,0-2.862,2.837-2.862,4.1,0,8.2.037,12.3-.027,1.018-.015,1.229.325,1.223,1.258-.035,5.787.03,11.575-.032,17.362-.056,5.237-3.461,8.59-8.688,8.634C-673.726,77.884-678.073,77.855-682.419,77.854Z" transform="translate(782.987 47.083)" fill="#ffa000"/>
        <path id="Path_962" data-name="Path 962" d="M-728.888-119.883c2.126,5.613,5.856,9.12,11.653,10.249.433.084.938.032.99.8.586,8.63-3.918,15.274-11.042,17.678-6.122,2.066-11.572.649-16.483-3.548-4.492-3.84-5.562-8.811-5.392-14.345.032-1.041.816-.882,1.33-.98a36.328,36.328,0,0,0,12.285-4.873A48.277,48.277,0,0,0-728.888-119.883Z" transform="translate(808.744 144.553)" fill="#ffa000"/>
        <path id="Path_963" data-name="Path 963" d="M-713.1-36.154c0,1.335.032,2.671-.007,4-.109,3.609-2.318,5.757-5.913,5.776-1.678.009-3.358.035-5.035-.01a5.164,5.164,0,0,1-5.236-4.68c-.22-3.249-.108-6.52-.15-9.781-.009-.725.309-.641.831-.453a21.309,21.309,0,0,0,14.767-.022c.7-.249.752.015.748.567C-713.106-39.219-713.1-37.687-713.1-36.154Z" transform="translate(797.46 99.696)" fill="#ffa000"/>
        <path id="Path_964" data-name="Path 964" d="M-862.379-13.066A2.728,2.728,0,0,1-864.922-15a2.586,2.586,0,0,1,1.226-3.185c1.81-1.1,3.663-2.127,5.5-3.188,1.961-1.136,3.908-2.294,5.881-3.407,1.666-.941,3.3-.573,4.089.864.75,1.375.244,2.916-1.358,3.857-3.694,2.171-7.41,4.3-11.118,6.452A3.983,3.983,0,0,1-862.379-13.066Z" transform="translate(875.006 90.473)" fill="#ffa000"/>
        <path id="Path_965" data-name="Path 965" d="M-847.894-158.3c.019,1.942-2.213,3.185-4.234,2.055-2.922-1.634-5.8-3.34-8.7-5.016-.937-.543-1.891-1.06-2.805-1.639a2.718,2.718,0,0,1-1.081-3.7,2.628,2.628,0,0,1,3.7-1.038c3.948,2.218,7.854,4.511,11.771,6.782A2.778,2.778,0,0,1-847.894-158.3Z" transform="translate(875.002 172.072)" fill="#ffa000"/>
        <path id="Path_966" data-name="Path 966" d="M-593.666-155.719a2.666,2.666,0,0,1-2.639-1.97,2.579,2.579,0,0,1,1.276-3.162c2.459-1.453,4.938-2.871,7.409-4.3,1.364-.791,2.713-1.608,4.095-2.363a2.742,2.742,0,0,1,3.872.886,2.708,2.708,0,0,1-1.106,3.806c-3.814,2.257-7.663,4.455-11.5,6.668A2.7,2.7,0,0,1-593.666-155.719Z" transform="translate(721.415 172.037)" fill="#ffa000"/>
        <path id="Path_967" data-name="Path 967" d="M-593.675-25.433a3.849,3.849,0,0,1,1.6.536c3.667,2.116,7.339,4.223,10.993,6.36,1.7.992,2.245,2.53,1.476,3.942-.8,1.472-2.455,1.8-4.215.79q-5.508-3.162-10.992-6.367a2.727,2.727,0,0,1-1.488-3.343A2.814,2.814,0,0,1-593.675-25.433Z" transform="translate(721.415 90.55)" fill="#ffa000"/>
        <path id="Path_968" data-name="Path 968" d="M-568.013-83.329c-2.118,0-4.236.02-6.354-.006-1.892-.023-3.037-1.045-3.057-2.662-.021-1.677,1.169-2.743,3.121-2.748q6.354-.017,12.709,0c1.958.005,3.148,1.063,3.133,2.739-.015,1.615-1.164,2.647-3.049,2.671C-563.679-83.309-565.846-83.329-568.013-83.329Z" transform="translate(710.543 126.755)" fill="#ffa000"/>
        <path id="Path_969" data-name="Path 969" d="M-745.115-12.689c-4.3.027-8.6.037-12.894-.021a1.5,1.5,0,0,0-1.671,1.174,10.153,10.153,0,0,1-8.01,6.709,28.653,28.653,0,0,1-9.145.059c-4.219-.619-7-3.307-8.721-7.1a1.187,1.187,0,0,0-1.315-.821c-2.47.023-4.941.009-7.906.009-2.851.13-6.228-.322-9.538.509A19.372,19.372,0,0,0-818.852,8.108c.059.988.536.952,1.223.949,4.051-.014,8.1-.007,12.153-.007,2.8,0,2.8,0,3-2.711a2.63,2.63,0,0,1,3.455-2.583c1.511.48,1.923,1.7,1.92,3.155-.008,3.612,0,7.224,0,10.836,0,2.145,0,2.145,2.068,2.145,3.656,0,7.312.028,10.968-.006a13.632,13.632,0,0,1,11.025,4.765c.429.5.665.716,1.205.076,2.986-3.536,6.881-4.929,11.43-4.848,3.7.066,7.411-.028,11.116.039,1.069.019,1.345-.319,1.293-1.337-.082-1.579-.022-3.166-.021-4.749,0-2.425-.039-4.85.017-7.274.042-1.833,1.087-2.894,2.686-2.9,1.617,0,2.593,1.04,2.674,2.883.024.543.027,1.089,0,1.632-.028.6.148.889.827.886q7.336-.034,14.673,0c.653,0,.822-.242.856-.861C-725.569-4.787-735.565-12.75-745.115-12.689ZM-769.739,14.4a2.633,2.633,0,0,1-2.7,2.711,2.617,2.617,0,0,1-2.647-2.758q-.057-3.994,0-7.99a2.577,2.577,0,0,1,2.692-2.7,2.606,2.606,0,0,1,2.652,2.745c.038,1.331.008,2.663.007,4S-769.7,13.069-769.739,14.4Z" transform="translate(848.603 83.277)" fill="#ffa000"/>
      </g>
    </g>
  </g>
</svg>
