<svg xmlns="http://www.w3.org/2000/svg" width="107.89" height="110.558" viewBox="0 0 107.89 110.558">
  <g id="Group_734" data-name="Group 734" transform="translate(0)">
    <path id="Path_1001" data-name="Path 1001" d="M-495.046-1256.09q23.87,0,47.74.021c.944,0,1.248-.16,1.245-1.2q-.059-25.5,0-51c.01-2.8-1.529-3.737-3.762-3.711-4.755.057-9.51,0-14.266.034-.72,0-.982-.162-.933-.917.068-1.044.04-2.1.008-3.144-.017-.54.08-.789.716-.786,5.242.031,10.485-.046,15.725.052a7.565,7.565,0,0,1,7.365,7.654q.02,31,0,62.006a7.617,7.617,0,0,1-7.628,7.637q-15.782.048-31.564-.013c-1.1,0-1.468.243-1.487,1.382a67.031,67.031,0,0,0,.716,10.4c.129.923.494,1.18,1.428,1.157,2.956-.073,5.915-.047,8.873-.02,2.078.019,3.264,1.133,3.2,2.917a2.671,2.671,0,0,1-2.571,2.6c-.15.008-.3,0-.449,0q-24.488,0-48.976,0a2.718,2.718,0,0,1-2.925-2.083,2.75,2.75,0,0,1,1.216-3,3.626,3.626,0,0,1,1.945-.436c1.348-.009,2.7,0,4.044,0h4.044c1.874,0,1.916.006,2.188-1.784a53.9,53.9,0,0,0,.547-9.96c-.031-.9-.307-1.168-1.244-1.164-10.222.039-20.446-.108-30.665.081a8.265,8.265,0,0,1-8.565-8.518c.125-20.331.051-40.663.056-60.995a7.714,7.714,0,0,1,5.95-7.7,7.4,7.4,0,0,1,1.89-.184c5.018-.012,10.035.008,15.052-.024.73-.005.975.178.926.923a21.35,21.35,0,0,0,0,3.03c.062.8-.273.9-.956.893-4.68-.026-9.361-.014-14.041-.013-.337,0-.676-.015-1.01.014a2.864,2.864,0,0,0-2.919,3.138c-.016,4.942-.006,9.885-.006,14.827q0,18.366-.022,36.732c0,.914.19,1.178,1.148,1.176Q-519.029-1256.116-495.046-1256.09Z" transform="translate(549.083 1331.569)" fill="#ffa000"/>
    <path id="Path_1002" data-name="Path 1002" d="M-308.959-1354.244h-9.24c-.619,0-.871-.348-.872-.922,0-3.129,0-6.258,0-9.208Z" transform="translate(388.136 1364.867)" fill="#ffa000"/>
    <path id="Path_1003" data-name="Path 1003" d="M-404.725-1351.066c-2.882.046-5.764.036-8.646.013a5.018,5.018,0,0,1-5.315-5.351c-.006-2.845-.043-5.691.023-8.534.021-.9-.251-1.083-1.1-1.08q-16.676.044-33.352.019c-1.82,0-2.148.326-2.148,2.146q0,15.216,0,30.432,0,15.328,0,30.656c0,1.573.409,1.982,1.986,1.991,1.61.009,3.219,0,4.829,0q21.336,0,42.672,0c1.7,0,2.113-.385,2.114-1.978q0-23.638.022-47.276C-403.644-1350.9-403.915-1351.079-404.725-1351.066Zm-32.91,1.842c1.235.032,2.471-.021,3.705.021.646.022.844-.207.824-.839-.041-1.271,0-2.546-.017-3.818-.011-.651.22-.952.916-.942q2.751.044,5.5,0c.714-.011.9.333.893.964-.018,1.235.041,2.473-.022,3.705-.039.77.245.961.964.931,1.233-.052,2.47,0,3.706-.019.652-.01.95.232.939.923q-.043,2.694,0,5.39c.013.722-.247,1.015-.98.993-1.2-.036-2.4.051-3.592-.029-.882-.06-1.085.268-1.038,1.082.066,1.157-.008,2.321.025,3.48.022.751-.226,1.108-1.033,1.062-.9-.051-1.8-.012-2.695-.012-.824,0-1.65-.042-2.47.012s-1.155-.247-1.124-1.086c.046-1.233-.018-2.471.024-3.7.022-.642-.195-.848-.833-.825-1.234.044-2.471-.016-3.706.023-.751.024-1.09-.207-1.07-1.018q.065-2.637,0-5.278C-438.736-1349.028-438.372-1349.243-437.635-1349.224Zm21.852,40.987a5.625,5.625,0,0,1-1.116.066q-12.561,0-25.123,0c-.261,0-.525.008-.785-.016a1.733,1.733,0,0,1-1.67-1.639,1.77,1.77,0,0,1,1.656-1.789c.818-.06,1.644-.018,2.466-.018h10.879q6.449,0,12.9,0a1.821,1.821,0,0,1,2,1.254A1.645,1.645,0,0,1-415.783-1308.237Zm-.17-8.024a7.32,7.32,0,0,1-1.116.064q-6.225.006-12.451,0-6.169,0-12.339,0a7.384,7.384,0,0,1-1.116-.062,1.62,1.62,0,0,1-1.481-1.69,1.659,1.659,0,0,1,1.364-1.692,4.395,4.395,0,0,1,1.113-.074q12.507-.005,25.014,0a4.439,4.439,0,0,1,1.114.071,1.665,1.665,0,0,1,1.372,1.687A1.618,1.618,0,0,1-415.953-1316.26Zm.66-8.3a2.549,2.549,0,0,1-1.511.3q-5.16-.008-10.32,0-7.347,0-14.694,0a6.867,6.867,0,0,1-1.118-.044,1.654,1.654,0,0,1-1.519-1.669,1.68,1.68,0,0,1,1.542-1.766,6.19,6.19,0,0,1,1.118-.035q6.226,0,12.451,0h12.787a1.827,1.827,0,0,1,2.027,1.389A1.609,1.609,0,0,1-415.294-1324.559Z" transform="translate(483.437 1366.018)" fill="#ffa000"/>
  </g>
</svg>
