<svg xmlns="http://www.w3.org/2000/svg" width="1970.918" height="2797" viewBox="0 0 1970.918 2797">
  <g id="Group_8371" data-name="Group 8371" transform="translate(-5975.082 -32)">
    <g id="Group_8366" data-name="Group 8366" transform="translate(-174.918 -648.668)">
      <g id="Rectangle_17522" data-name="Rectangle 17522" transform="translate(6158.918 680.668)" fill="#efefef" stroke="#707070" stroke-width="1">
        <rect width="1962" height="2797" stroke="none"/>
        <rect x="0.5" y="0.5" width="1961" height="2796" fill="none"/>
      </g>
      <g id="Group_387" data-name="Group 387" transform="translate(6978.436 825.989)">
        <path id="Path_378" data-name="Path 378" d="M1263.757,885.11h-10.95V874.16a3.558,3.558,0,0,0-3.558-3.558h-13.14a3.558,3.558,0,0,0-3.558,3.558v10.95H1221.6a3.559,3.559,0,0,0-3.559,3.558v13.14a3.559,3.559,0,0,0,3.559,3.558h10.95v10.95a3.559,3.559,0,0,0,3.558,3.559h13.14a3.559,3.559,0,0,0,3.558-3.559v-10.95h10.95a3.558,3.558,0,0,0,3.558-3.558v-13.14A3.558,3.558,0,0,0,1263.757,885.11Z" transform="translate(-1218.042 -324.864)" fill="#fcffff"/>
        <path id="Path_379" data-name="Path 379" d="M1426.315,694.448H1405.5V673.629a6.765,6.765,0,0,0-6.765-6.765H1373.75a6.765,6.765,0,0,0-6.765,6.765v20.819h-20.819a6.765,6.765,0,0,0-6.765,6.765v24.981a6.766,6.766,0,0,0,6.765,6.766h20.819v20.818a6.765,6.765,0,0,0,6.765,6.765h24.982a6.765,6.765,0,0,0,6.765-6.765V732.96h20.818a6.766,6.766,0,0,0,6.766-6.766V701.213A6.766,6.766,0,0,0,1426.315,694.448Z" transform="translate(-476.042 -666.864)" fill="#3f598c"/>
      </g>
      <g id="Group_151" data-name="Group 151" transform="translate(6151.569 1474.282)">
        <path id="Path_378-2" data-name="Path 378" d="M1263.757,885.11h-10.95V874.16a3.558,3.558,0,0,0-3.558-3.558h-13.14a3.558,3.558,0,0,0-3.558,3.558v10.95H1221.6a3.559,3.559,0,0,0-3.559,3.558v13.14a3.559,3.559,0,0,0,3.559,3.558h10.95v10.95a3.559,3.559,0,0,0,3.558,3.559h13.14a3.559,3.559,0,0,0,3.558-3.559v-10.95h10.95a3.558,3.558,0,0,0,3.558-3.558v-13.14A3.558,3.558,0,0,0,1263.757,885.11Z" transform="translate(-1015.401 -565.864)" fill="#fcffff"/>
        <path id="Path_379-2" data-name="Path 379" d="M1426.315,694.448H1405.5V673.629a6.765,6.765,0,0,0-6.765-6.765H1373.75a6.765,6.765,0,0,0-6.765,6.765v20.819h-20.819a6.765,6.765,0,0,0-6.765,6.765v24.981a6.766,6.766,0,0,0,6.765,6.766h20.819v20.818a6.765,6.765,0,0,0,6.765,6.765h24.982a6.765,6.765,0,0,0,6.765-6.765V732.96h20.818a6.766,6.766,0,0,0,6.766-6.766V701.213A6.766,6.766,0,0,0,1426.315,694.448Z" transform="translate(-1339.401 -666.864)" fill="#3f598c"/>
      </g>
      <g id="Group_151-2" data-name="Group 151" transform="translate(6150 2796.668)" opacity="0.69">
        <path id="Path_378-3" data-name="Path 378" d="M1263.757,885.11h-10.95V874.16a3.558,3.558,0,0,0-3.558-3.558h-13.14a3.558,3.558,0,0,0-3.558,3.558v10.95H1221.6a3.559,3.559,0,0,0-3.559,3.558v13.14a3.559,3.559,0,0,0,3.559,3.558h10.95v10.95a3.559,3.559,0,0,0,3.558,3.559h13.14a3.559,3.559,0,0,0,3.558-3.559v-10.95h10.95a3.558,3.558,0,0,0,3.558-3.558v-13.14A3.558,3.558,0,0,0,1263.757,885.11Z" transform="translate(-1181.042 -300.864)" fill="#ffa000"/>
        <path id="Path_379-3" data-name="Path 379" d="M1426.315,694.448H1405.5V673.629a6.765,6.765,0,0,0-6.765-6.765H1373.75a6.765,6.765,0,0,0-6.765,6.765v20.819h-20.819a6.765,6.765,0,0,0-6.765,6.765v24.981a6.766,6.766,0,0,0,6.765,6.766h20.819v20.818a6.765,6.765,0,0,0,6.765,6.765h24.982a6.765,6.765,0,0,0,6.765-6.765V732.96h20.818a6.766,6.766,0,0,0,6.766-6.766V701.213A6.766,6.766,0,0,0,1426.315,694.448Z" transform="translate(-1339.401 -666.864)" fill="#3f598c"/>
      </g>
      <path id="Path_3587" data-name="Path 3587" d="M1426.315,694.448H1405.5V673.629a6.765,6.765,0,0,0-6.765-6.765H1373.75a6.765,6.765,0,0,0-6.765,6.765v20.819h-20.819a6.765,6.765,0,0,0-6.765,6.765v24.981a6.766,6.766,0,0,0,6.765,6.766h20.819v20.818a6.765,6.765,0,0,0,6.765,6.765h24.982a6.765,6.765,0,0,0,6.765-6.765V732.96h20.818a6.766,6.766,0,0,0,6.766-6.766V701.213A6.766,6.766,0,0,0,1426.315,694.448Z" transform="translate(6661.699 2179.219)" fill="#3f598c"/>
      <g id="Group_8365" data-name="Group 8365" transform="translate(7976.463 3345.146)" opacity="0.69">
        <path id="Path_378-4" data-name="Path 378" d="M1263.757,885.11h-10.95V874.16a3.558,3.558,0,0,0-3.558-3.558h-13.14a3.558,3.558,0,0,0-3.558,3.558v10.95H1221.6a3.559,3.559,0,0,0-3.559,3.558v13.14a3.559,3.559,0,0,0,3.559,3.558h10.95v10.95a3.559,3.559,0,0,0,3.558,3.559h13.14a3.559,3.559,0,0,0,3.558-3.559v-10.95h10.95a3.558,3.558,0,0,0,3.558-3.558v-13.14A3.558,3.558,0,0,0,1263.757,885.11Z" transform="translate(-1218.042 -870.602)" fill="#ffa000"/>
      </g>
      <g id="Group_8367" data-name="Group 8367" transform="translate(6196.84 702.668)">
        <path id="Path_378-5" data-name="Path 378" d="M1263.76,885.11h-10.95V874.16a3.558,3.558,0,0,0-3.558-3.558h-13.14a3.558,3.558,0,0,0-3.558,3.558v10.95H1221.6a3.559,3.559,0,0,0-3.559,3.558v13.14a3.559,3.559,0,0,0,3.559,3.558h10.95v10.95a3.559,3.559,0,0,0,3.558,3.559h13.14a3.559,3.559,0,0,0,3.558-3.559v-10.95h10.95a3.558,3.558,0,0,0,3.558-3.558v-13.14A3.558,3.558,0,0,0,1263.76,885.11Z" transform="translate(-1015.401 -565.864)" fill="#fcffff"/>
        <path id="Path_379-4" data-name="Path 379" d="M1426.31,694.448H1405.5V673.629a6.765,6.765,0,0,0-6.765-6.765H1373.75a6.765,6.765,0,0,0-6.765,6.765v20.819h-20.819a6.765,6.765,0,0,0-6.765,6.765v24.981a6.766,6.766,0,0,0,6.765,6.766h20.819v20.818a6.765,6.765,0,0,0,6.765,6.765h24.982a6.765,6.765,0,0,0,6.765-6.765V732.96h20.818a6.766,6.766,0,0,0,6.766-6.766V701.213a6.766,6.766,0,0,0-6.77-6.765Z" transform="translate(-1339.401 -666.864)" fill="#3f598c"/>
      </g>
      <g id="Group_8369" data-name="Group 8369" transform="translate(6150 2796.668)" opacity="0.69">
        <path id="Path_378-6" data-name="Path 378" d="M1263.757,885.11h-10.95V874.16a3.558,3.558,0,0,0-3.558-3.558h-13.14a3.558,3.558,0,0,0-3.558,3.558v10.95H1221.6a3.559,3.559,0,0,0-3.559,3.558v13.14a3.559,3.559,0,0,0,3.559,3.558h10.95v10.95a3.559,3.559,0,0,0,3.558,3.559h13.14a3.559,3.559,0,0,0,3.558-3.559v-10.95h10.95a3.558,3.558,0,0,0,3.558-3.558v-13.14A3.558,3.558,0,0,0,1263.757,885.11Z" transform="translate(-1181.042 -300.864)" fill="#ffa000"/>
        <path id="Path_379-5" data-name="Path 379" d="M1426.315,694.448H1405.5V673.629a6.765,6.765,0,0,0-6.765-6.765H1373.75a6.765,6.765,0,0,0-6.765,6.765v20.819h-20.819a6.765,6.765,0,0,0-6.765,6.765v24.981a6.766,6.766,0,0,0,6.765,6.766h20.819v20.818a6.765,6.765,0,0,0,6.765,6.765h24.982a6.765,6.765,0,0,0,6.765-6.765V732.96h20.818a6.766,6.766,0,0,0,6.766-6.766V701.213A6.766,6.766,0,0,0,1426.315,694.448Z" transform="translate(-1339.401 -666.864)" fill="#3f598c"/>
      </g>
      <g id="Group_8370" data-name="Group 8370" transform="translate(7954.26 1386.668)" opacity="0.69">
        <path id="Path_378-7" data-name="Path 378" d="M1263.757,885.11h-10.95V874.16a3.558,3.558,0,0,0-3.558-3.558h-13.14a3.558,3.558,0,0,0-3.558,3.558v10.95H1221.6a3.559,3.559,0,0,0-3.559,3.558v13.14a3.559,3.559,0,0,0,3.559,3.558h10.95v10.95a3.559,3.559,0,0,0,3.558,3.559h13.14a3.559,3.559,0,0,0,3.558-3.559v-10.95h10.95a3.558,3.558,0,0,0,3.558-3.558v-13.14A3.558,3.558,0,0,0,1263.757,885.11Z" transform="translate(-1181.042 -300.864)" fill="#ffa000"/>
        <path id="Path_379-6" data-name="Path 379" d="M1426.315,694.448H1405.5V673.629a6.765,6.765,0,0,0-6.765-6.765H1373.75a6.765,6.765,0,0,0-6.765,6.765v20.819h-20.819a6.765,6.765,0,0,0-6.765,6.765v24.981a6.766,6.766,0,0,0,6.765,6.766h20.819v20.818a6.765,6.765,0,0,0,6.765,6.765h24.982a6.765,6.765,0,0,0,6.765-6.765V732.96h20.818a6.766,6.766,0,0,0,6.766-6.766V701.213A6.766,6.766,0,0,0,1426.315,694.448Z" transform="translate(-1339.401 -666.864)" fill="#3f598c"/>
      </g>
    </g>
  </g>
</svg>
