<svg xmlns="http://www.w3.org/2000/svg" width="946.306" height="483.121" viewBox="0 0 946.306 483.121">
  <g id="_2206_w039_n003_266b_p1_266_Converted_" data-name="2206_w039_n003_266b_p1_266 [Converted]" transform="translate(0.044 0.036)">
    <circle id="Ellipse_92" data-name="Ellipse 92" cx="19.493" cy="19.493" r="19.493" transform="matrix(0.866, -0.5, 0.5, 0.866, 51.648, 385.222)" fill="#ffa000"/>
    <path id="Path_3147" data-name="Path 3147" d="M184.96,324.525a20.192,20.192,0,1,1,20.159-18.884,20.318,20.318,0,0,1-20.159,18.884Zm0-38.986a10.548,10.548,0,1,0,.015-.062Z" transform="translate(-106.698 88.099)"/>
    <path id="Path_3148" data-name="Path 3148" d="M180.049,311.882a5.2,5.2,0,0,1-1.382-.186c-4.66-1.227-5.98-4.225-6.027-4.349a.761.761,0,0,1,.419-.994.746.746,0,0,1,.979.419,7.254,7.254,0,0,0,5.017,3.464,3.991,3.991,0,0,0,2.889-.357,3.883,3.883,0,0,0,1.895-2.5c.761-2.874-1.041-4.334-3.107-6.042s-4.349-3.572-3.619-6.974a5.514,5.514,0,0,1,2.563-3.324,5.141,5.141,0,0,1,4.023-.652c4.489,1.181,4.877,4.116,4.893,4.24a.759.759,0,0,1-1.507.186c0-.109-.373-2.066-3.774-2.967a3.65,3.65,0,0,0-2.842.5,4.023,4.023,0,0,0-1.864,2.33c-.544,2.5,1.134,3.883,3.107,5.483s4.66,3.805,3.619,7.611a5.421,5.421,0,0,1-5.266,4.116Z" transform="translate(-102.378 91.469)"/>
    <path id="Path_3149" data-name="Path 3149" d="M179.935,292.809h-.2a.761.761,0,0,1-.544-.932l.73-2.749a.746.746,0,0,1,.916-.528.73.73,0,0,1,.544.916l-.715,2.749A.777.777,0,0,1,179.935,292.809Z" transform="translate(-98.737 90.552)"/>
    <path id="Path_3150" data-name="Path 3150" d="M175.909,307.227h-.186a.761.761,0,0,1-.544-.932l.715-2.749a.8.8,0,0,1,1.553.388l-.73,2.749a.73.73,0,0,1-.808.544Z" transform="translate(-100.956 98.501)"/>
    <path id="Path_3151" data-name="Path 3151" d="M177.028,268.481a27.865,27.865,0,0,1-23.3-43.118.777.777,0,0,1,1.056-.217A.761.761,0,0,1,155,226.2a26.405,26.405,0,1,0,7.067-7.254.761.761,0,1,1-.87-1.243,27.71,27.71,0,0,1,15.408-4.955h.45a27.866,27.866,0,1,1,.45,55.73Z" transform="translate(-115.324 48.603)"/>
    <path id="Path_3152" data-name="Path 3152" d="M183.019,291.287a44.733,44.733,0,0,1-44.656-43.957,44.159,44.159,0,0,1,8.993-27.632.761.761,0,1,1,1.212.916,42.652,42.652,0,0,0-8.683,26.685,43.2,43.2,0,0,0,43.134,42.466h.715a43.155,43.155,0,0,0-1.4-86.3,42.714,42.714,0,0,0-26.405,9.615.746.746,0,0,1-1.072-.109.761.761,0,0,1,.109-1.072,44.683,44.683,0,1,1,28.875,79.386Z" transform="translate(-121.315 42.618)"/>
    <path id="Path_3153" data-name="Path 3153" d="M183.066,234.691a11.758,11.758,0,1,0-11.572,11.944,11.758,11.758,0,0,0,11.572-11.944Z" transform="translate(-109.588 54.341)" fill="#ffa000"/>
    <path id="Path_3154" data-name="Path 3154" d="M171.46,247.5a12.286,12.286,0,1,1,.2,0Zm0-23.516h-.186a11.09,11.09,0,1,0,.186,0Z" transform="translate(-109.741 54.236)"/>
    <path id="Path_3155" data-name="Path 3155" d="M185.035,248.8a.761.761,0,0,1-.528-.217l-49.486-47.9a.761.761,0,1,1,1.056-1.087l49.486,47.9a.761.761,0,0,1,0,1.072A.73.73,0,0,1,185.035,248.8Z" transform="translate(-123.316 41.178)"/>
    <path id="Path_3156" data-name="Path 3156" d="M24.208,167.4,11.844,155.42.49,156.756l12.364,11.976Z" transform="translate(0.296 86.006)"/>
    <path id="Path_3157" data-name="Path 3157" d="M140.55,214.286a.745.745,0,0,1-.528-.217L127.6,202.093a.761.761,0,0,1-.2-.792.808.808,0,0,1,.637-.513l11.354-1.336a.73.73,0,0,1,.621.217l12.426,11.96a.777.777,0,0,1,.186.792.761.761,0,0,1-.621.513l-11.354,1.336Zm-10.64-12.193,10.873,10.64,9.413-1.1-10.966-10.655Z" transform="translate(-127.4 41.243)"/>
    <path id="Path_3158" data-name="Path 3158" d="M20.224,171.342,7.86,159.367l.87-11.277,12.364,11.96Z" transform="translate(4.373 81.95)"/>
    <path id="Path_3159" data-name="Path 3159" d="M147.917,216.876a.761.761,0,0,1-.528-.217l-12.426-11.976a.777.777,0,0,1-.233-.59l.87-11.292a.777.777,0,0,1,.5-.652.73.73,0,0,1,.792.171l12.426,11.96a.746.746,0,0,1,.233.606l-.87,11.292a.761.761,0,0,1-.481.652Zm-11.572-13.032,10.873,10.593.714-9.319L137.06,194.525Z" transform="translate(-123.32 37.178)"/>
    <path id="Path_3160" data-name="Path 3160" d="M579.282,300.313a38.132,38.132,0,1,1,69.508,24.355l13.327,11.913a55.917,55.917,0,1,0-100.7-35.336Z" transform="translate(112.744 67.671)" fill="#fff"/>
    <path id="Path_3161" data-name="Path 3161" d="M662.388,337.624a.73.73,0,0,1-.5-.186l-13.342-11.913a.761.761,0,0,1-.124-.994A37.387,37.387,0,1,0,580.3,300.641a.761.761,0,0,1-.714.715l-17.847.994a.73.73,0,0,1-.575-.217.745.745,0,0,1-.233-.559A56.678,56.678,0,1,1,662.994,337.3a.714.714,0,0,1-.528.3Zm-12.333-12.8L662.279,335.7a55.16,55.16,0,1,0-99.8-34.948l16.356-.932a38.831,38.831,0,1,1,71.216,25.007ZM579.554,300.594Z" transform="translate(112.473 67.39)"/>
    <path id="Path_3162" data-name="Path 3162" d="M622.013,301.8a38.148,38.148,0,0,1-22.957,9.226L598,328.842a55.777,55.777,0,0,0,37.278-15.129Z" transform="translate(132.982 97.87)"/>
    <path id="Path_3163" data-name="Path 3163" d="M598.272,329.874a.761.761,0,0,1-.559-.233.777.777,0,0,1-.2-.575l1.041-17.816a.746.746,0,0,1,.715-.714,37.51,37.51,0,0,0,22.491-9.04.761.761,0,0,1,.994,0l13.342,11.913a.769.769,0,0,1,.015,1.118A56.507,56.507,0,0,1,598.272,329.874Zm1.755-17.862-.947,16.325a54.938,54.938,0,0,0,35.367-14.352l-12.208-10.873a39.064,39.064,0,0,1-22.18,8.9Z" transform="translate(132.71 97.6)"/>
    <path id="Path_3164" data-name="Path 3164" d="M609.315,318.06a38.117,38.117,0,0,1-29.7-30.35l-17.847,1.01a55.917,55.917,0,0,0,46.5,47.234Z" transform="translate(112.938 90.075)" fill="#ffa000"/>
    <path id="Path_3165" data-name="Path 3165" d="M608.543,336.981h-.109a56.662,56.662,0,0,1-47.141-47.871.776.776,0,0,1,.155-.59.73.73,0,0,1,.544-.28l17.862-1.01a.777.777,0,0,1,.792.621A37.278,37.278,0,0,0,609.739,317.6a.777.777,0,0,1,.606.792L609.3,336.282a.745.745,0,0,1-.28.544.792.792,0,0,1-.482.155Zm-45.619-47.3a55.14,55.14,0,0,0,44.92,45.65l.947-16.4a38.831,38.831,0,0,1-29.512-30.164Z" transform="translate(112.669 89.809)"/>
    <path id="Path_3166" data-name="Path 3166" d="M597.16,149.611l-4.5-2.967a10.593,10.593,0,0,0-15.781,5.219l-1.771,5.064-13.575-1.771-.482-5.374a10.593,10.593,0,0,0-13.979-9.086l-5.11,1.709-7.083-11.727,3.9-3.728a10.593,10.593,0,0,0-1.553-16.542l-4.52-2.92,4.737-12.845,5.359.714a10.562,10.562,0,0,0,11.944-11.525l-.528-5.374,13-4.287,2.765,4.66a10.609,10.609,0,0,0,16.48,2.143l3.868-3.759L601.788,84.7l-1.895,5.048a10.593,10.593,0,0,0,8.59,14.228l5.343.683c.715,7.456.59,6.213,1.289,13.622l-5.126,1.678a10.593,10.593,0,0,0-5.763,15.532l2.811,4.66Z" transform="translate(96.855 -28.065)" fill="#fff"/>
    <path id="Path_3167" data-name="Path 3167" d="M575.386,157.949h-.109l-13.56-1.771a.761.761,0,0,1-.668-.683l-.481-5.374a9.816,9.816,0,0,0-12.907-8.434l-5.126,1.709a.761.761,0,0,1-.885-.326l-7.083-11.711a.777.777,0,0,1,.124-.948l3.9-3.728a9.832,9.832,0,0,0-1.445-15.362l-4.613-2.982a.761.761,0,0,1-.3-.9l4.753-12.845a.73.73,0,0,1,.808-.482l5.343.715a9.848,9.848,0,0,0,11.106-10.717l-.606-5.281a.761.761,0,0,1,.528-.792l13-4.3a.761.761,0,0,1,.885.342l2.765,4.66a9.848,9.848,0,0,0,15.439,1.926l3.868-3.759a.777.777,0,0,1,.947-.093l11.447,7.487a.761.761,0,0,1,.311.9l-1.895,5.064a9.832,9.832,0,0,0,7.968,13.2l5.343.668a.761.761,0,0,1,.668.683l1.289,13.637a.777.777,0,0,1-.513.792l-5.141,1.662a9.832,9.832,0,0,0-5.343,14.461l2.811,4.66a.777.777,0,0,1-.124.947l-9.848,9.506a.746.746,0,0,1-.948.078l-4.5-2.967a9.848,9.848,0,0,0-14.647,4.831L576.1,157.5A.777.777,0,0,1,575.386,157.949Zm-12.876-3.215,12.426,1.553,1.646-4.489a11.37,11.37,0,0,1,16.915-5.592l3.992,2.641,8.978-8.667-2.5-4.085a11.354,11.354,0,0,1,6.213-16.7l4.551-1.553-1.18-12.426-4.737-.59A11.37,11.37,0,0,1,599.43,89.7l1.678-4.473L590.67,78.408l-3.433,3.324a11.354,11.354,0,0,1-17.661-2.3l-2.454-4.1-11.836,3.9L555.753,84a11.37,11.37,0,0,1-12.814,12.426l-4.737-.637-4.333,11.7,4.023,2.594a11.37,11.37,0,0,1,1.677,17.738l-3.464,3.308,6.446,10.671,4.551-1.553a11.354,11.354,0,0,1,14.9,9.739Z" transform="translate(96.572 -28.327)"/>
    <circle id="Ellipse_93" data-name="Ellipse 93" cx="19.291" cy="19.291" r="19.291" transform="translate(643.46 87.485) rotate(-45)"/>
    <path id="Path_3168" data-name="Path 3168" d="M566.352,127.995A20.052,20.052,0,1,1,586.4,107.958,20.052,20.052,0,0,1,566.352,127.995Zm0-38.567a18.53,18.53,0,1,0,18.53,18.53A18.53,18.53,0,0,0,566.352,89.428Z" transform="translate(104.379 -20.474)"/>
    <circle id="Ellipse_94" data-name="Ellipse 94" cx="12.55" cy="12.55" r="12.55" transform="translate(652.993 87.485) rotate(-45)" fill="#fff"/>
    <path id="Path_3169" data-name="Path 3169" d="M563.951,118.863a13.311,13.311,0,1,1,13.311-13.311A13.311,13.311,0,0,1,563.951,118.863Zm0-25.1a11.789,11.789,0,1,0,11.789,11.789A11.789,11.789,0,0,0,563.951,93.762Z" transform="translate(106.78 -18.068)"/>
    <path id="Path_3170" data-name="Path 3170" d="M348.257,371.047,345,368.9a7.673,7.673,0,0,0-11.447,3.774l-1.336,3.666-9.832-1.289-.357-3.883a7.673,7.673,0,0,0-10.081-6.586l-3.7,1.243c-2.811-4.66-2.33-3.852-5.126-8.5l2.811-2.7a7.673,7.673,0,0,0-1.134-11.991L301.52,340.6c1.879-5.095,1.553-4.225,3.448-9.319l3.868.513a7.673,7.673,0,0,0,8.667-8.357l-.388-3.883,9.413-3.106,2.019,3.355a7.673,7.673,0,0,0,11.929,1.553l2.811-2.734,8.294,5.436-1.367,3.65a7.673,7.673,0,0,0,6.213,10.314l3.868.482c.513,5.405.419,4.473.932,9.879l-3.712,1.212a7.673,7.673,0,0,0-4.178,11.292l2.035,3.339Z" transform="translate(-31.044 105.975)" fill="#fff"/>
    <path id="Path_3171" data-name="Path 3171" d="M332.484,377.428h-.093l-9.832-1.289a.761.761,0,0,1-.668-.683l-.357-3.9a6.912,6.912,0,0,0-9.071-5.933l-3.712,1.243a.745.745,0,0,1-.885-.326l-5.126-8.5a.73.73,0,0,1,.124-.932l2.811-2.7a6.912,6.912,0,0,0-1.01-10.873l-3.293-2.112a.761.761,0,0,1-.3-.9l3.448-9.319a.761.761,0,0,1,.808-.5l3.883.528a6.912,6.912,0,0,0,7.766-7.533l-.388-3.9a.777.777,0,0,1,.528-.792l9.413-3.106a.761.761,0,0,1,.885.326l2.019,3.355A6.912,6.912,0,0,0,340.188,321l2.8-2.734a.777.777,0,0,1,.947-.093l8.31,5.436a.761.761,0,0,1,.3.9l-1.367,3.65a6.912,6.912,0,0,0,5.607,9.319l3.868.5a.761.761,0,0,1,.668.683l.932,9.863a.776.776,0,0,1-.513.808L358,350.541a6.912,6.912,0,0,0-3.759,10.174l2.035,3.324a.761.761,0,0,1-.124.947l-7.021,7.005a.777.777,0,0,1-.947.078l-3.262-2.143a6.928,6.928,0,0,0-10.314,3.4l-1.336,3.666A.777.777,0,0,1,332.484,377.428Zm-9.133-2.718,8.636,1.134,1.134-3.106a8.418,8.418,0,0,1,12.55-4.147l2.765,1.817,6.213-6.042-1.724-2.827a8.434,8.434,0,0,1,4.66-12.426l3.107-1.025-.823-8.667L356.59,339a8.434,8.434,0,0,1-6.834-11.323l1.165-3.106-7.285-4.753-2.376,2.3a8.419,8.419,0,0,1-13.109-1.724l-1.678-2.765-8.263,2.734.311,3.277a8.434,8.434,0,0,1-9.521,9.2l-3.262-.45-3.013,8.17,2.765,1.786a8.434,8.434,0,0,1,3.805,6.291,8.341,8.341,0,0,1-2.563,6.881l-2.376,2.283,4.489,7.456,3.106-1.056a8.45,8.45,0,0,1,11.075,7.238Z" transform="translate(-31.316 105.652)"/>
    <circle id="Ellipse_95" data-name="Ellipse 95" cx="11.168" cy="11.168" r="11.168" transform="translate(289.177 441.173)" fill="#fff"/>
    <path id="Path_3172" data-name="Path 3172" d="M325,351.888a11.929,11.929,0,1,1,11.929-11.929A11.929,11.929,0,0,1,325,351.888Zm0-22.336a4.312,4.312,0,1,0,0-.016Z" transform="translate(-24.654 112.382)"/>
    <rect id="Rectangle_17495" data-name="Rectangle 17495" width="13.311" height="6.197" transform="translate(800.652 270.412) rotate(15.47)"/>
    <path id="Path_3173" data-name="Path 3173" d="M654.888,229.091a.465.465,0,0,1-.2,0l-12.83-3.541a.823.823,0,0,1-.466-.357.776.776,0,0,1,0-.59l1.646-5.964a.761.761,0,0,1,.932-.528l12.845,3.557a.684.684,0,0,1,.45.357.808.808,0,0,1,.078.575l-1.662,5.964A.745.745,0,0,1,654.888,229.091Zm-11.9-4.846,11.37,3.106,1.243-4.5-11.37-3.107Z" transform="translate(156.955 51.554)"/>
    <path id="Path_3174" data-name="Path 3174" d="M702.254,203.028a33.938,33.938,0,1,0-62.223,7.766c4.877,8.589,8.76,14.4,6.12,23.92l22.553,6.213c2.609-9.319,8.7-12.426,17.241-17.194a33.892,33.892,0,0,0,16.309-20.7Z" transform="translate(153.78 19.464)" fill="#fff"/>
    <path id="Path_3175" data-name="Path 3175" d="M668.944,241.848h-.2l-22.553-6.213a.761.761,0,0,1-.528-.932c2.376-8.6-.761-14.1-5.126-21.745-.3-.544-.606-1.087-.916-1.553a34.684,34.684,0,1,1,63.683-7.875h0a34.482,34.482,0,0,1-16.666,21.124l-.87.466c-8.17,4.5-13.575,7.487-16.014,16.262a.808.808,0,0,1-.357.466.776.776,0,0,1-.45,0Zm-21.606-7.533,21.109,5.84c2.687-8.838,8.527-12.053,16.527-16.464l.854-.466a33.177,33.177,0,1,0-44.873-12.674l.916,1.631C646.111,219.605,649.5,225.508,647.338,234.314Z" transform="translate(153.539 19.257)"/>
    <path id="Path_3176" data-name="Path 3176" d="M640.431,214.4l2.9-10.531,26.7,7.393-2.92,10.515a13.839,13.839,0,0,1-17.086,9.661h0A13.855,13.855,0,0,1,640.431,214.4Z" transform="translate(156.176 43.691)" fill="#ffa000"/>
    <path id="Path_3177" data-name="Path 3177" d="M656.528,233.7a11.62,11.62,0,0,1-3.107-.419l-6.089-1.678a11.447,11.447,0,0,1-7.984-14.088h0l3.759-13.575a.746.746,0,0,1,.932-.528l26.7,7.378a.776.776,0,0,1,.528.947l-3.759,13.56a11.463,11.463,0,0,1-10.981,8.4Zm-15.672-15.781h0a9.925,9.925,0,0,0,6.927,12.209l6.089,1.693a9.941,9.941,0,0,0,12.224-6.927l3.557-12.83-25.24-6.99Z" transform="translate(155.627 43.42)"/>
    <path id="Path_3178" data-name="Path 3178" d="M663.877,213.555h0l-20.58-5.7a.249.249,0,0,1,.124-.482l20.534,5.638a.283.283,0,0,1-.078.544Z" transform="translate(157.938 45.624)"/>
    <path id="Path_3179" data-name="Path 3179" d="M669.5,193.2h0l-20.581-5.685a.264.264,0,0,1,.14-.5l20.581,5.7a.233.233,0,0,1,.171.311.249.249,0,0,1-.311.171Z" transform="translate(161.075 34.369)"/>
    <path id="Path_3180" data-name="Path 3180" d="M665.9,157.916h-.2a.761.761,0,0,1-.544-.932l3.51-12.659a.761.761,0,1,1,1.46.4l-3.495,12.659A.761.761,0,0,1,665.9,157.916Z" transform="translate(170.123 10.399)"/>
    <path id="Path_3181" data-name="Path 3181" d="M686.6,169.971a.761.761,0,0,1-.388-1.429l11.432-6.477a.765.765,0,0,1,.746,1.336l-11.416,6.461a.684.684,0,0,1-.373.109Z" transform="translate(181.565 20.508)"/>
    <path id="Path_3182" data-name="Path 3182" d="M702.19,193.64h-.217l-12.643-3.495a.765.765,0,0,1,.4-1.476l12.659,3.51a.783.783,0,1,1-.2,1.553Z" transform="translate(183.2 35.266)"/>
    <path id="Path_3183" data-name="Path 3183" d="M644.407,159.43a.761.761,0,0,1-.668-.373l-6.461-11.432a.761.761,0,1,1,1.32-.746l6.477,11.416a.761.761,0,0,1-.3,1.041A.777.777,0,0,1,644.407,159.43Z" transform="translate(154.638 11.914)"/>
    <path id="Path_3184" data-name="Path 3184" d="M632.52,174.359h-.2l-12.659-3.495a.746.746,0,0,1-.528-.932.761.761,0,0,1,.932-.544l12.659,3.51a.783.783,0,1,1-.2,1.553Z" transform="translate(144.656 24.6)"/>
    <path id="Path_3185" data-name="Path 3185" d="M649,219.216h-.171a.745.745,0,0,1-.575-.9c0-.233,5.359-23.718-2.609-36.439a.761.761,0,0,1,.233-1.056.777.777,0,0,1,1.056.249c8.31,13.265,3.107,36.594,2.8,37.589A.761.761,0,0,1,649,219.216Z" transform="translate(159.273 30.877)"/>
    <path id="Path_3186" data-name="Path 3186" d="M654.163,218.534a.606.606,0,0,1-.233,0,.761.761,0,0,1-.5-.963c.311-.963,7.766-23.687,21.745-30.8a.768.768,0,0,1,.7,1.367c-13.389,6.819-20.907,29.682-20.984,29.9a.73.73,0,0,1-.73.5Z" transform="translate(163.629 34.184)"/>
    <path id="Path_3187" data-name="Path 3187" d="M679.887,191.862h-.2a4.489,4.489,0,0,1-2.858-2.625,3.028,3.028,0,0,0-1.926-1.864,3.106,3.106,0,0,0-2.609.606,4.287,4.287,0,0,1-6.663-1.833,3.027,3.027,0,0,0-1.926-1.864,2.967,2.967,0,0,0-2.609.606,4.256,4.256,0,0,1-6.648-1.848c-.481-.87-.839-1.553-1.926-1.864a3.106,3.106,0,0,0-2.625.621,4.458,4.458,0,0,1-3.79.761.761.761,0,0,1,.4-1.46,3.107,3.107,0,0,0,2.61-.606,4.271,4.271,0,0,1,6.663,1.833,2.8,2.8,0,0,0,4.535,1.258,4.271,4.271,0,0,1,6.663,1.848,2.8,2.8,0,0,0,4.536,1.243,4.271,4.271,0,0,1,6.648,1.848,3.027,3.027,0,0,0,1.926,1.864.783.783,0,0,1-.2,1.553Z" transform="translate(159.325 30.241)"/>
    <path id="Path_3188" data-name="Path 3188" d="M123.661,196.647,110.132,186.5,107.01,117.68l28.735,39.452Z" transform="translate(59.227 65.126)"/>
    <path id="Path_3189" data-name="Path 3189" d="M251.327,242.168a.824.824,0,0,1-.466-.14l-13.529-10.143a.839.839,0,0,1-.3-.575l-3.106-68.824a.761.761,0,0,1,1.382-.482l28.735,39.452a.792.792,0,0,1,.109.668L252.072,241.64a.792.792,0,0,1-.5.5A.606.606,0,0,1,251.327,242.168Zm-12.783-11.292L250.97,240.2l11.665-38.117-27.042-37.138Z" transform="translate(-68.439 20.35)"/>
    <path id="Path_3190" data-name="Path 3190" d="M192.726,146.349l-5.5-16L122.69,106.26l28.735,39.468Z" transform="translate(67.902 58.808)"/>
    <path id="Path_3191" data-name="Path 3191" d="M320.4,191.865h0l-41.316-.621a.73.73,0,0,1-.606-.311l-28.735-39.452a.777.777,0,0,1,0-.9.761.761,0,0,1,.87-.264l64.537,24.091a.714.714,0,0,1,.45.466l5.514,16a.761.761,0,0,1-.109.683.745.745,0,0,1-.606.311Zm-40.912-2.128,39.841.59-5.033-14.616L252.46,152.63Z" transform="translate(-59.77 14.038)"/>
    <path id="Path_3192" data-name="Path 3192" d="M280.338,244.533l-52.36-59.722c-21.264-24.246-31.2-55.078-26.405-84.761h.155a105.357,105.357,0,0,1,71.4,49.626l41.7,69.741Z" transform="translate(-86.996 -13.747)" fill="#ffa000"/>
    <path id="Path_3193" data-name="Path 3193" d="M280.6,245.531a.761.761,0,0,1-.575-.249l-52.36-59.629c-21.745-24.743-31.36-55.917-26.514-85.428a.746.746,0,0,1,.311-.5.808.808,0,0,1,.575-.124h.14a105.745,105.745,0,0,1,71.869,49.937l41.7,69.725a.761.761,0,0,1-.2,1.01l-34.5,25.131a.808.808,0,0,1-.45.124ZM202.515,101.188c-4.473,28.844,5.095,59.194,26.3,83.378l51.894,59.194L314.1,219.437,272.737,150.3a104.316,104.316,0,0,0-70.222-49.114Z" transform="translate(-87.255 -14)"/>
    <path id="Path_3194" data-name="Path 3194" d="M222.786,147.763a11.51,11.51,0,1,1,16.076,2.532A11.51,11.51,0,0,1,222.786,147.763Z" transform="translate(-75.824 2.534)" fill="#fff"/>
    <path id="Path_3195" data-name="Path 3195" d="M232.379,153.537a12.271,12.271,0,0,1-7.238-22.2,12.115,12.115,0,0,1,9.133-2.206,12.271,12.271,0,0,1-1.895,24.4Zm0-22.972a10.764,10.764,0,0,0-8.683,17.086h0a10.764,10.764,0,1,0,17.4-12.659,10.624,10.624,0,0,0-7.021-4.287A10.513,10.513,0,0,0,232.379,130.565Z" transform="translate(-76.098 2.258)"/>
    <rect id="Rectangle_17496" data-name="Rectangle 17496" width="35.569" height="12.271" transform="translate(196.012 228.852) rotate(-36.06)" fill="#fff"/>
    <path id="Path_3196" data-name="Path 3196" d="M261.071,210.225a.73.73,0,0,1-.606-.311l-7.238-9.925a.808.808,0,0,1-.124-.559.746.746,0,0,1,.3-.5l28.766-20.953a.7.7,0,0,1,.559-.124.792.792,0,0,1,.5.3l7.223,9.925a.745.745,0,0,1-.171,1.056l-28.751,20.938A.714.714,0,0,1,261.071,210.225Zm-6.213-10.515,6.337,8.683,27.524-20.037-6.26-8.714Z" transform="translate(-57.836 29.29)"/>
    <path id="Path_3197" data-name="Path 3197" d="M203.867,140.487a.248.248,0,0,1-.2-.093.264.264,0,0,1,0-.357l39.126-28.5a.264.264,0,0,1,.357,0,.248.248,0,0,1,0,.357l-39.126,28.487A.264.264,0,0,1,203.867,140.487Z" transform="translate(-85.221 -7.432)"/>
    <path id="Path_3198" data-name="Path 3198" d="M275.57,235.514a.761.761,0,0,1-.746-.652,103.868,103.868,0,0,0-7.16-26.405.761.761,0,0,1,1.4-.59,105,105,0,0,1,7.269,26.84.761.761,0,0,1-.652.854Z" transform="translate(-49.797 45.675)"/>
    <path id="Path_3199" data-name="Path 3199" d="M267.555,207.094a.745.745,0,0,1-.652-.357l-3.293-5.281a.777.777,0,0,1,.249-1.056.761.761,0,0,1,1.041.249l3.293,5.281a.746.746,0,0,1-.233,1.041A.776.776,0,0,1,267.555,207.094Z" transform="translate(-52.08 41.71)"/>
    <path id="Path_3200" data-name="Path 3200" d="M275.787,245.355a.808.808,0,0,1-.544-.217,11.043,11.043,0,0,1-2.9-7.021,31.373,31.373,0,0,1,.575-7.362.764.764,0,0,1,1.507.249,30.349,30.349,0,0,0-.575,7.005,9.677,9.677,0,0,0,2.47,6.058.753.753,0,0,1-.528,1.289Z" transform="translate(-47.203 58.216)"/>
    <path id="Path_3201" data-name="Path 3201" d="M293.687,216.287a.808.808,0,0,1-.559-.248,184.851,184.851,0,0,1-18.064-22.2.761.761,0,1,1,1.258-.854,184.379,184.379,0,0,0,17.971,21.963.746.746,0,0,1,0,1.072.73.73,0,0,1-.606.264Z" transform="translate(-45.765 37.471)"/>
    <path id="Path_3202" data-name="Path 3202" d="M298.933,214.253a.668.668,0,0,1-.3,0l-6.927-2.951a.777.777,0,0,1-.388-1.01.746.746,0,0,1,.994-.388l6.927,2.951a.777.777,0,0,1,.388,1.01.761.761,0,0,1-.7.388Z" transform="translate(-36.721 46.992)"/>
    <path id="Path_3203" data-name="Path 3203" d="M312.048,300.034a12.474,12.474,0,0,1-1.693-.078,22.227,22.227,0,0,1-19.478-19.415,18.359,18.359,0,0,1-32.354-9.723c-1.072-9.521,5.219-18.049,12.177-25.861a.761.761,0,1,1,1.134,1.01c-6.726,7.549-12.8,15.765-11.8,24.681a16.853,16.853,0,0,0,30.863,7.331.777.777,0,0,1,.854-.311.746.746,0,0,1,.544.73,19.959,19.959,0,0,0,39.623,3.495.761.761,0,0,1,.792-.637,21.109,21.109,0,0,0,21.279-27.322.746.746,0,0,1,.5-.947.777.777,0,0,1,.963.5,22.631,22.631,0,0,1-22.165,29.31,22.258,22.258,0,0,1-21.233,17.241Z" transform="translate(-54.899 66.257)"/>
    <path id="Path_3204" data-name="Path 3204" d="M342.163,242.482a.761.761,0,0,1-.652-.373.746.746,0,0,1,.28-1.041,13.032,13.032,0,0,0-7.393-24.293c-1.289.093-3.215.217-4.038-1.3a3.634,3.634,0,0,1-.093-2.516c1.1-5.25.777-9.242-1.025-12.24-2.392-3.976-7.766-6.1-12.954-5.157-5.654,1.041-9.941,4.97-12.535,8.092a.762.762,0,0,1-1.181-.963c2.765-3.324,7.331-7.5,13.436-8.621,5.856-1.056,11.82,1.351,14.538,5.871,2,3.339,2.392,7.766,1.2,13.342a2.408,2.408,0,0,0,0,1.553c.311.606,1.4.575,2.578.5a14.554,14.554,0,0,1,8.232,27.135.839.839,0,0,1-.388.015Z" transform="translate(-30.558 38.131)"/>
    <path id="Path_3205" data-name="Path 3205" d="M290.689,233.629a.807.807,0,0,1-.652-.342c-6.772-10.873-13.342-21.916-19.509-33.053a.761.761,0,1,1,1.32-.746c6.213,11.121,12.721,22.211,19.478,32.975a.746.746,0,0,1-.637,1.165Z" transform="translate(-48.265 41.02)"/>
    <path id="Path_3206" data-name="Path 3206" d="M293.154,236.094a.745.745,0,0,1-.637-.326l-6.477-9.615a.761.761,0,0,1,1.258-.854l6.43,9.615a.761.761,0,0,1-.2,1.056A.73.73,0,0,1,293.154,236.094Z" transform="translate(-39.671 55.377)"/>
    <path id="Path_3207" data-name="Path 3207" d="M150.481,168.842a5.281,5.281,0,1,1,5.281-5.281,5.281,5.281,0,0,1-5.281,5.281Zm0-9.04a3.759,3.759,0,1,0,3.759,3.759,3.759,3.759,0,0,0-3.759-3.759Z" transform="translate(-117.528 18.468)"/>
    <path id="Path_3208" data-name="Path 3208" d="M735.081,207.7a5.281,5.281,0,1,1,5.281-5.281A5.281,5.281,0,0,1,735.081,207.7Zm0-9.04a3.759,3.759,0,1,0,3.759,3.759,3.759,3.759,0,0,0-3.759-3.759Z" transform="translate(205.899 39.968)"/>
    <path id="Path_3209" data-name="Path 3209" d="M454.957,354.992a5.281,5.281,0,1,1,5.266-5.265,5.281,5.281,0,0,1-5.266,5.265Zm0-9.024a3.759,3.759,0,1,0,3.759,3.759,3.759,3.759,0,0,0-3.759-3.759Z" transform="translate(50.913 121.455)"/>
    <path id="Path_3210" data-name="Path 3210" d="M379.081,263.762a5.281,5.281,0,1,1,5.281-5.281,5.281,5.281,0,0,1-5.281,5.281Zm0-9.04a3.736,3.736,0,1,1,0,.047Z" transform="translate(8.944 70.982)"/>
    <path id="Path_3211" data-name="Path 3211" d="M399.515,114.8a8.465,8.465,0,1,1,8.465-8.465,8.465,8.465,0,0,1-8.465,8.465Zm0-15.408a6.943,6.943,0,1,0,6.943,6.943,6.943,6.943,0,0,0-6.943-6.943Z" transform="translate(18.488 -14.953)"/>
    <path id="Path_3212" data-name="Path 3212" d="M671.338,290.522a.761.761,0,0,1-.28-1.476l19.027-7.922,3.51-21.2a.761.761,0,0,1,.715-.637l21.326-.947L729.46,228.47a.746.746,0,0,1,1.01-.373.777.777,0,0,1,.373,1.01l-13.979,30.288a.73.73,0,0,1-.652.435l-21.171.947-3.479,21a.745.745,0,0,1-.45.575L671.68,290.46a.9.9,0,0,1-.342.062Z" transform="translate(173.124 57.053)"/>
    <path id="Path_3213" data-name="Path 3213" d="M232.34,372.627h-.217a.777.777,0,0,1-.513-.947l11.6-39.81a.761.761,0,0,1,.932-.528l25.893,7.036,12.208-24.06a.807.807,0,0,1,.606-.419l26.405-2.268a.746.746,0,0,1,.823.683.761.761,0,0,1-.7.823l-25.893,2.175-12.426,24.262a.745.745,0,0,1-.885.388l-25.753-6.99-11.4,39.111A.761.761,0,0,1,232.34,372.627Z" transform="translate(-69.737 103.307)"/>
    <rect id="Rectangle_17497" data-name="Rectangle 17497" width="11.354" height="11.354" transform="translate(734.374 250.839) rotate(45)"/>
    <path id="Path_3214" data-name="Path 3214" d="M603.311,223.063a.7.7,0,0,1-.528-.217l-8.03-8.03a.73.73,0,0,1-.233-.544.7.7,0,0,1,.233-.528l8.03-8.03a.7.7,0,0,1,.528-.233h0a.73.73,0,0,1,.543.233l8.03,8.03a.761.761,0,0,1,0,1.072l-8.03,8.03A.73.73,0,0,1,603.311,223.063Zm-6.959-8.791,6.959,6.959,6.958-6.959-6.958-6.959Z" transform="translate(131.056 44.582)"/>
    <rect id="Rectangle_17498" data-name="Rectangle 17498" width="11.354" height="11.354" transform="translate(224.721 62.707) rotate(45)"/>
    <path id="Path_3215" data-name="Path 3215" d="M275.2,101.954a.792.792,0,0,1-.544-.233l-8.03-8.03a.761.761,0,0,1,0-1.072l8.03-8.03a.761.761,0,0,1,1.072,0l8.03,8.03a.73.73,0,0,1,0,1.072l-8.03,8.03a.761.761,0,0,1-.528.233Zm-6.959-8.838,6.959,6.959,6.959-6.959L275.2,86.173Z" transform="translate(-50.47 -22.423)"/>
    <path id="Path_3216" data-name="Path 3216" d="M533.41,374.129a.745.745,0,0,1-.761-.7.761.761,0,0,1,.7-.823,28.506,28.506,0,0,0,5.84-.979.761.761,0,0,1,.932.528.777.777,0,0,1-.528.947,31.459,31.459,0,0,1-6.135,1.025Zm-6.073-.2h-.109a31.069,31.069,0,0,1-6.042-1.445.764.764,0,0,1,.5-1.444,29.231,29.231,0,0,0,5.747,1.382.778.778,0,0,1-.093,1.553Zm17.707-3a.761.761,0,0,1-.342-1.444,28.833,28.833,0,0,0,4.97-3.2.761.761,0,1,1,.947,1.18,29.913,29.913,0,0,1-5.219,3.371.762.762,0,0,1-.358.093Zm-29.108-.994a.839.839,0,0,1-.388-.093,31.7,31.7,0,0,1-4.924-3.728A.761.761,0,0,1,511.649,365a30.235,30.235,0,0,0,4.753,3.541.745.745,0,0,1-.388,1.4Zm38.552-6.539a.73.73,0,0,1-.482-.186.746.746,0,0,1-.093-1.072,29.736,29.736,0,0,0,3.308-4.893.758.758,0,1,1,1.336.715,31.268,31.268,0,0,1-3.479,5.157.761.761,0,0,1-.59.28Zm-47.467-1.553a.761.761,0,0,1-.621-.326,31.961,31.961,0,0,1-3.106-5.374.765.765,0,0,1,1.4-.621,29.055,29.055,0,0,0,2.982,5.11.761.761,0,0,1-.171,1.056.823.823,0,0,1-.482.109Zm53.2-9.04H560a.761.761,0,0,1-.513-.947,28.242,28.242,0,0,0,1.118-5.809.777.777,0,0,1,.823-.7.792.792,0,0,1,.7.839,31.4,31.4,0,0,1-1.18,6.1.761.761,0,0,1-.73.466Zm-58.2-1.957a.792.792,0,0,1-.746-.59,30.556,30.556,0,0,1-.746-6.213.621.621,0,0,1,0-.342.917.917,0,0,1-.078-.357,30.455,30.455,0,0,1,.621-6.213.746.746,0,0,1,.9-.59.761.761,0,0,1,.59.885,29.911,29.911,0,0,0-.59,5.887.837.837,0,0,1-.078.342.713.713,0,0,1,.078.326,29.917,29.917,0,0,0,.73,5.871.761.761,0,0,1-.575.9Zm59.272-10.081a.761.761,0,0,1-.746-.668,29,29,0,0,0-1.243-5.778.746.746,0,0,1,.482-.963.776.776,0,0,1,.963.481,31.27,31.27,0,0,1,1.3,6.089.761.761,0,0,1-.668.839Zm-57.61-8.465a.667.667,0,0,1-.3,0,.761.761,0,0,1-.4-.994,31.069,31.069,0,0,1,2.982-5.576.746.746,0,0,1,1.056-.2.761.761,0,0,1,.186,1.056,29.183,29.183,0,0,0-2.874,5.188.745.745,0,0,1-.652.482Zm53.882-3.013a.745.745,0,0,1-.652-.388,29.954,29.954,0,0,0-3.433-4.831.745.745,0,0,1,0-1.072.777.777,0,0,1,1.072.078,31.34,31.34,0,0,1,3.6,5.079.761.761,0,0,1-.279,1.025.7.7,0,0,1-.311.062Zm-46.939-6.959a.792.792,0,0,1-.559-.233.761.761,0,0,1,0-1.072,31.532,31.532,0,0,1,4.908-3.821.761.761,0,1,1,.808,1.274,30.153,30.153,0,0,0-4.66,3.65A.777.777,0,0,1,510.624,322.329Zm39.033-2.19a.714.714,0,0,1-.45-.155,29.516,29.516,0,0,0-5.048-3.106.792.792,0,0,1-.357-1.025.761.761,0,0,1,1.025-.342,30.829,30.829,0,0,1,5.3,3.246.746.746,0,0,1,.14,1.072.73.73,0,0,1-.653.311Zm-28.813-4.24a.761.761,0,0,1-.715-.5.777.777,0,0,1,.45-.979,30.883,30.883,0,0,1,6.011-1.553.761.761,0,0,1,.87.637.745.745,0,0,1-.621.87,29.1,29.1,0,0,0-5.732,1.553.731.731,0,0,1-.311-.031Zm17.893-1.041h-.155a29.768,29.768,0,0,0-5.856-.854.777.777,0,0,1,0-1.553,31.594,31.594,0,0,1,6.213.9.746.746,0,0,1,.544.916A.73.73,0,0,1,538.738,314.858Z" transform="translate(79.013 103.762)"/>
    <path id="Path_3217" data-name="Path 3217" d="M643.539,127.153h0a10.873,10.873,0,0,1-6.135-1.988.777.777,0,0,1-.2-1.056.761.761,0,0,1,1.056-.2,9.521,9.521,0,0,0,5.3,1.678.761.761,0,0,1,.746.777.746.746,0,0,1-.761.792Zm5.763-1.662a.761.761,0,0,1-.419-1.4,9.63,9.63,0,0,0,3.572-4.256.746.746,0,0,1,.994-.4.761.761,0,0,1,.4.994,11.23,11.23,0,0,1-4.132,4.939.871.871,0,0,1-.42.124ZM634.1,120.66a.761.761,0,0,1-.7-.482,11.106,11.106,0,0,1,1.087-10.236.767.767,0,0,1,1.274.854,9.459,9.459,0,0,0-1.553,5.312,9.319,9.319,0,0,0,.668,3.51.761.761,0,0,1-.435.979.606.606,0,0,1-.342.062Zm19.7-5.731a.746.746,0,0,1-.745-.621,9.568,9.568,0,0,0-2.594-4.908.763.763,0,1,1,1.087-1.072,11,11,0,0,1,3,5.7.761.761,0,0,1-.606.885Zm-13.979-7.6a.758.758,0,0,1-.3-1.46,11.09,11.09,0,0,1,4.194-.823h0a11.787,11.787,0,0,1,2.205.217.792.792,0,0,1-.311,1.553,9.674,9.674,0,0,0-1.895-.186h0a9.32,9.32,0,0,0-3.619.715.886.886,0,0,1-.326-.016Z" transform="translate(152.135 -10.981)"/>
    <path id="Path_3218" data-name="Path 3218" d="M383.764,451.184c-4.66,0-8-1.181-10.065-3.588-7.875-9.211,5.716-32.106,18.5-49.7,17.6-24.231,45.386-54.472,78.19-85.164a.761.761,0,0,1,1.072,0,.745.745,0,0,1,0,1.072C403.8,377.063,363.184,432.886,374.9,446.539c6.539,7.626,29.512,1.041,63.062-18.08,34.327-19.571,76.2-50.03,117.891-85.755s78.206-72.443,102.809-103.384c24.013-30.211,34.047-51.909,27.508-59.536s-29.915-.932-63.947,18.639a.761.761,0,0,1-1.041-.28.777.777,0,0,1,.28-1.041c35.243-20.192,58.635-26.685,65.858-18.251s-2.594,30.2-27.477,61.477c-24.65,31.065-61.229,67.8-103,103.6s-83.72,66.293-118.14,85.91C413.96,443.93,395.134,451.184,383.764,451.184Z" transform="translate(7.6 27.857)"/>
    <path id="Path_3219" data-name="Path 3219" d="M450.907,120.8a121.716,121.716,0,0,1,2.283,26.871L442.318,151.9s-6.679,27.508,35.445,19.043c8.17-1.631,31.842-19.6,31.842-19.6l-18.639-5.359s-1.786-27.2-2.5-40.711C478.493,109.852,462.712,117.121,450.907,120.8Z" transform="translate(46.637 -10.859)" fill="#fff"/>
    <path id="Path_3220" data-name="Path 3220" d="M463.627,173.59c-8.124,0-14.119-1.973-17.878-5.9-6.089-6.337-3.992-15.3-3.9-15.672a.73.73,0,0,1,.466-.528l10.407-4.054a118.813,118.813,0,0,0-2.283-26.157.777.777,0,0,1,.513-.9c12.208-3.821,29.17-11.711,37.278-15.532a.73.73,0,0,1,.714,0,.761.761,0,0,1,.373.606c.652,12.317,2.206,36.3,2.47,40.167l18.188,5.2a.761.761,0,0,1,.264,1.336c-.979.746-23.9,18.111-32.152,19.757a75.58,75.58,0,0,1-14.461,1.677Zm-20.379-20.845c-.311,1.709-1.243,8.869,3.6,13.9,5.359,5.576,15.781,6.865,30.987,3.837,6.85-1.382,25.364-14.88,30.3-18.561L490.9,147.076a.777.777,0,0,1-.559-.683c0-.264-1.693-25.893-2.439-39.592-8.356,3.883-24.075,11.137-35.818,14.9A124.417,124.417,0,0,1,454.23,148.1a.777.777,0,0,1-.482.683Zm10.22-4.784Z" transform="translate(46.359 -11.147)"/>
    <path id="Path_3221" data-name="Path 3221" d="M433.943,78.484c-3.852.932-7.689-2.967-7.766-7.083a11.183,11.183,0,0,1,6.353-9.646c3.557-1.8,7.642-2,11.618-2.578a10.407,10.407,0,0,1,3.712-11.339,15.983,15.983,0,0,1,11.774-2.672,14.274,14.274,0,0,1,7.487,2.967,9.412,9.412,0,0,1,3.433,7.549c3.572-4.5,9.319-7.518,14.74-6.213s9.521,7.922,9.925,12.426c2.641-3.246,6.1-5.9,10.158-5.685,8.077.435,9.894,7.3,6.213,16.123A9.32,9.32,0,0,1,524.327,78.3c1.553,4.66-.186,12.038-3.417,15.672a9.15,9.15,0,0,1-2.376,1.8c-1.258,6.912-2.827,14.135-5.188,23.3a83.633,83.633,0,0,1-8.139,19.788,11.9,11.9,0,0,1-6.213,5.731c-.171-2.858-3.106-4.271-3.619-7.114-.559-3.495,1.677-6.57-.419-9.661a50.854,50.854,0,0,1-8.03-19c-1.056-5.452-1.087-11.183,1.476-16.216a17.35,17.35,0,0,1,3.821-4.908,28.81,28.81,0,0,1-1.709-4.271c-2.361,4.054-4.1,6.85-10.018,8.791-4.318,1.413-9.444-.311-10.873-4.427-.916,4.163-7.378,10.018-11.447,10.438s-5.576-1.46-7.223-5.359c-3.6,3.2-6.306,6.446-9.972,7.766a11.494,11.494,0,0,1-14.445-7.3C424.624,87.477,428.212,80.3,433.943,78.484Z" transform="translate(37.833 -44.23)" fill="#ffa000"/>
    <path id="Path_3222" data-name="Path 3222" d="M499.259,145.621a.746.746,0,0,1-.746-.714,6.353,6.353,0,0,0-1.646-3.262,8.17,8.17,0,0,1-1.973-3.774,12.859,12.859,0,0,1,.2-4.256c.311-1.879.59-3.495-.512-5.11a51.6,51.6,0,0,1-8.139-19.276c-1.289-6.679-.792-12.131,1.553-16.7a18.049,18.049,0,0,1,3.557-4.66c-.342-.73-.668-1.553-.963-2.3a15.424,15.424,0,0,1-9.6,7.766,9.615,9.615,0,0,1-11.012-3.231c-2.019,4.178-7.611,8.885-11.494,9.319-4.116.4-5.949-1.367-7.564-4.846-.606.544-1.181,1.1-1.755,1.646a24.339,24.339,0,0,1-7.689,5.638,11.556,11.556,0,0,1-9.055-.575,12.27,12.27,0,0,1-6.384-7.223,13.28,13.28,0,0,1,5.2-14.523,7.488,7.488,0,0,1-2.221-1.181,8.667,8.667,0,0,1-3.34-6.663,11.991,11.991,0,0,1,6.788-10.345,28.936,28.936,0,0,1,9.646-2.376l1.32-.171a11.4,11.4,0,0,1,4.24-11.308,16.651,16.651,0,0,1,12.333-2.811,14.88,14.88,0,0,1,7.875,3.107,10.189,10.189,0,0,1,3.6,6.213c4.039-4.24,9.475-6.213,14.274-5.064s9.1,6.679,10.236,11.51c3.106-3.308,6.337-4.893,9.708-4.66a8.838,8.838,0,0,1,7.409,3.774c1.771,2.811,1.8,6.959.109,11.8a9.987,9.987,0,0,1,6.213.482,10.469,10.469,0,0,1,5.871,6.555c1.553,4.831-.093,12.426-3.572,16.418a9.213,9.213,0,0,1-2.206,1.724c-1.336,7.347-2.982,14.647-5.141,22.941a83.049,83.049,0,0,1-8.263,20.068,12.69,12.69,0,0,1-6.555,6.042.808.808,0,0,1-.311.016Zm-8.481-62.689h.078a.745.745,0,0,1,.637.528,30.568,30.568,0,0,0,1.662,4.163.761.761,0,0,1-.155.9,16.652,16.652,0,0,0-3.65,4.66c-2.174,4.24-2.64,9.319-1.413,15.7a50.014,50.014,0,0,0,7.906,18.639,7.767,7.767,0,0,1,.761,6.213,11.743,11.743,0,0,0-.218,3.759,7.207,7.207,0,0,0,1.678,3.106,8.947,8.947,0,0,1,1.771,3.029,11.106,11.106,0,0,0,5-4.986,82.208,82.208,0,0,0,8.093-19.68c2.19-8.4,3.836-15.765,5.188-23.19a.761.761,0,0,1,.388-.513,8.915,8.915,0,0,0,2.174-1.646c3.107-3.51,4.66-10.624,3.262-14.942a8.962,8.962,0,0,0-5.017-5.421,8.124,8.124,0,0,0-6.679,0,.758.758,0,0,1-1.041-.963c2.081-5.064,2.3-9.319.606-11.991a7.3,7.3,0,0,0-6.213-3.106c-3.262-.186-6.461,1.646-9.537,5.405a.792.792,0,0,1-.808.249.746.746,0,0,1-.528-.668c-.373-4.085-4.1-10.562-9.319-11.82-4.66-1.134-10.2,1.212-13.979,5.949a.777.777,0,0,1-.87.249.792.792,0,0,1-.5-.746,8.729,8.729,0,0,0-3.106-6.943,13.56,13.56,0,0,0-7.1-2.7,15.206,15.206,0,0,0-11.214,2.5,9.646,9.646,0,0,0-3.464,10.484.745.745,0,0,1,0,.652.715.715,0,0,1-.544.357l-2.221.3a27.275,27.275,0,0,0-9.149,2.221A10.438,10.438,0,0,0,427.2,71.7a7.114,7.114,0,0,0,2.734,5.328,4.815,4.815,0,0,0,4.085,1.041.758.758,0,0,1,.4,1.46c-5.3,1.678-8.683,8.465-6.943,13.979a10.718,10.718,0,0,0,5.592,6.306,10,10,0,0,0,7.844.513A23.05,23.05,0,0,0,448.11,95c.808-.777,1.662-1.553,2.563-2.392a.807.807,0,0,1,.668-.171.792.792,0,0,1,.544.45c1.553,3.681,2.842,5.266,6.43,4.893s9.925-6,10.78-9.848a.761.761,0,0,1,1.46,0c1.367,3.868,6.213,5.157,9.956,3.945,5.778-1.895,7.378-4.66,9.584-8.45a.776.776,0,0,1,.668-.5Z" transform="translate(37.567 -44.5)"/>
    <path id="Path_3223" data-name="Path 3223" d="M436.252,87.865v-.637L437,86.98c3.666-1.4,6.368-4.66,9.972-7.766,1.646,3.9,3.106,5.763,7.223,5.359s10.531-6.213,11.447-10.438c1.46,4.116,6.586,5.84,10.873,4.427,5.918-1.942,7.658-4.66,10.019-8.791A21.42,21.42,0,0,0,494.3,81.326a16.107,16.107,0,0,0,5.2,2.454,18.555,18.555,0,0,0,.218,2.314,67.8,67.8,0,0,1,.388,14.678c4.66-3.821,8.419-3.184,11.277-.28a7.331,7.331,0,0,1-.171,10.314,13.513,13.513,0,0,1-12.038,3.013c-1.118,7.269-2.8,21.839-7.766,28.285-5.374,6.85-14.88,11.23-24.712,11.4s-19.726-3.914-25.722-10.562c-6.819-7.564-8.325-17.583-7.766-26.964S436.237,97.262,436.252,87.865Z" transform="translate(41.752 -30.499)" fill="#fff"/>
    <path id="Path_3224" data-name="Path 3224" d="M466.409,154.445a35.259,35.259,0,0,1-25.722-10.873c-5.98-6.648-8.652-15.905-7.937-27.508.249-4.116.854-8.263,1.445-12.271a110.647,110.647,0,0,0,1.553-15.719h0v-.652a.746.746,0,0,1,.544-.714c.233-.078.466-.14.683-.233a23.05,23.05,0,0,0,7.207-5.219c.808-.777,1.662-1.553,2.563-2.392a.807.807,0,0,1,.668-.171.792.792,0,0,1,.544.45c1.553,3.681,2.842,5.266,6.43,4.893s9.925-6,10.78-9.848a.761.761,0,0,1,1.46,0c1.367,3.868,6.213,5.157,9.956,3.945,5.778-1.895,7.378-4.66,9.584-8.45a.777.777,0,0,1,.746-.373.746.746,0,0,1,.637.528A20.938,20.938,0,0,0,495.1,81.007a15.534,15.534,0,0,0,4.97,2.345.746.746,0,0,1,.544.668c.078.9.155,1.553.233,2.283v.186a71.933,71.933,0,0,1,.513,12.97c3.961-2.625,7.766-2.376,10.873.792a8.061,8.061,0,0,1-.171,11.385,14.088,14.088,0,0,1-11.944,3.371c-.078.528-.155,1.087-.249,1.677-1.181,8.061-2.982,20.192-7.626,26.188-5.53,7.052-15.222,11.525-25.3,11.7ZM437.27,88.121a113.036,113.036,0,0,1-1.553,15.936c-.59,3.976-1.18,8.092-1.429,12.146-.683,11.183,1.848,20.068,7.549,26.405a33.736,33.736,0,0,0,24.588,10.314h.559c9.63-.171,18.872-4.427,24.137-11.106,4.4-5.623,6.213-18.049,7.316-25.473.14-.885.249-1.709.373-2.47a.714.714,0,0,1,.311-.5.73.73,0,0,1,.59-.124,12.674,12.674,0,0,0,11.339-2.811,6.555,6.555,0,0,0,.171-9.319c-2.936-2.982-6.384-2.858-10.251.342a.73.73,0,0,1-.839,0,.746.746,0,0,1-.4-.746,66.63,66.63,0,0,0-.357-14.336V86.2c0-.528-.109-1.118-.171-1.8a17.21,17.21,0,0,1-4.939-2.423,21.4,21.4,0,0,1-7.564-10.376,15.424,15.424,0,0,1-9.6,7.766,9.615,9.615,0,0,1-11.013-3.231c-2.019,4.178-7.611,8.885-11.494,9.319s-5.949-1.367-7.564-4.846c-.606.544-1.18,1.1-1.755,1.646a24.339,24.339,0,0,1-7.689,5.638l-.264.093h0Z" transform="translate(41.495 -30.755)"/>
    <path id="Path_3225" data-name="Path 3225" d="M440.762,91.125a2.237,2.237,0,1,1,2.454,1.833,2.159,2.159,0,0,1-2.454-1.833Z" transform="translate(45.972 -20.138)"/>
    <path id="Path_3226" data-name="Path 3226" d="M460.721,92.19a2.237,2.237,0,1,1,2.454,1.848,2.19,2.19,0,0,1-2.454-1.848Z" transform="translate(57.015 -19.54)"/>
    <path id="Path_3227" data-name="Path 3227" d="M456.014,116.538a11.09,11.09,0,0,1-2.858-.357.8.8,0,0,1,.388-1.553,10.236,10.236,0,0,0,10.189-3.106.746.746,0,0,1,1.072,0,.761.761,0,0,1,.093,1.072,11.82,11.82,0,0,1-8.885,3.945Z" transform="translate(52.512 -7.527)"/>
    <path id="Path_3228" data-name="Path 3228" d="M454.321,117.427a13.979,13.979,0,0,1-4.66-.885,5.809,5.809,0,0,1-2.547-1.553,4.8,4.8,0,0,1-.885-4.24,13.311,13.311,0,0,1,1.258-3.231l.233-.45a40.074,40.074,0,0,0,4.023-17.676.761.761,0,0,1,.761-.761h0a.746.746,0,0,1,.761.746,41.751,41.751,0,0,1-4.194,18.359l-.233.466a12.657,12.657,0,0,0-1.149,2.858,3.448,3.448,0,0,0,.559,2.936,4.41,4.41,0,0,0,1.91,1.118,11.417,11.417,0,0,0,5.514.7,6.617,6.617,0,0,0,4.473-2.641.756.756,0,1,1,1.258.839,8.015,8.015,0,0,1-5.5,3.308,10.514,10.514,0,0,1-1.584.109Z" transform="translate(48.924 -20.065)"/>
    <path id="Path_3229" data-name="Path 3229" d="M476.273,96.087h-.109a.777.777,0,0,1-.652-.854c.342-2.563.466-3.93.7-6.4a.78.78,0,1,1,1.553.14c-.233,2.5-.357,3.868-.7,6.461a.761.761,0,0,1-.792.652Z" transform="translate(65.213 -20.346)"/>
    <path id="Path_3230" data-name="Path 3230" d="M430.891,80.477a.326.326,0,0,1-.186-.078,8.45,8.45,0,0,1-1.911-8.388.253.253,0,0,1,.482.155,7.937,7.937,0,0,0,1.8,7.875.264.264,0,0,1-.186.435Z" transform="translate(39.146 -29.355)"/>
    <path id="Path_3231" data-name="Path 3231" d="M482.921,80.371a.248.248,0,0,1-.186-.093.264.264,0,0,1,0-.357,12.193,12.193,0,0,0,3.386-12.8.255.255,0,0,1,.482-.171,12.768,12.768,0,0,1-3.51,13.436A.326.326,0,0,1,482.921,80.371Z" transform="translate(69.173 -32.153)"/>
    <path id="Path_3232" data-name="Path 3232" d="M372.52,226.07c-9.319-21.388-20.192-60.732-31.22-81.639a60.048,60.048,0,0,1-19.369-20.425c-1.709-3.231-1.973-4.66-.171-7.425,1.3-2.05,4.38-2.112,6.477-1.367-1.3-1.973-3.79-3.51-1.553-6.213a3.774,3.774,0,0,1,4.085-1.553c-1.553-4.225,2.718-7.766,6.337-4.209-3.215-4.939-6.213-9.319-9.319-13.886-1.988-2.811-4.054-6.213-2.392-7.89,2.128-2.128,5.359.777,9.226,5.39a205.789,205.789,0,0,0,15.657,17.365c6.493,6.493,13.4,19.493,10.7,25.4,2.175,8.978,34.979,61.074,45.743,71.822,3.914,3.93.714,7.766-.2,13.187-1.118,6.617-5.949,29.915-22.755,22.336C378.951,234.753,373.079,227.344,372.52,226.07Z" transform="translate(-20.53 -24.423)" fill="#fff"/>
    <path id="Path_3233" data-name="Path 3233" d="M390.235,239.44a16.028,16.028,0,0,1-6.57-1.553c-5-2.252-10.873-9.77-11.556-11.214h0c-3.883-8.9-7.984-20.782-12.317-33.348-6.1-17.645-12.426-35.88-18.794-48.073-6.508-4.178-15-12.146-19.462-20.612-1.833-3.448-2.112-5.126-.14-8.186a5.5,5.5,0,0,1,5.234-2.112c-1.134-1.429-2.206-3.106-.28-5.576a4.924,4.924,0,0,1,3.65-2.019,4.769,4.769,0,0,1,1.973-4.862,4.225,4.225,0,0,1,3.107-.59c-2.376-3.619-4.924-7.44-7.657-11.277-2.3-3.231-4.365-6.8-2.314-8.853a2.9,2.9,0,0,1,2.314-.932c2,0,4.318,1.926,8.03,6.353l.155.186a207.518,207.518,0,0,0,15.532,17.086c6.306,6.306,13.606,19.447,10.966,25.97,2.532,9.071,34.513,60.281,45.463,71.247,3.106,3.107,2.159,6.322,1.1,9.677a29.624,29.624,0,0,0-1.087,4.163c-1.165,6.9-4.24,19.074-11.836,23.128a11.23,11.23,0,0,1-5.514,1.4ZM325.977,115.832a3.79,3.79,0,0,0-3.308,1.444c-1.553,2.5-1.413,3.6.2,6.663,4.38,8.279,12.752,16.092,19.1,20.192a.652.652,0,0,1,.264.28c6.493,12.286,12.845,30.677,18.981,48.461,4.334,12.535,8.434,24.386,12.271,33.224h0c.513,1.149,6.213,8.372,10.8,10.438,4.007,1.8,7.58,1.879,10.64.264,7.021-3.743,9.925-15.424,11.044-22.041a32.9,32.9,0,0,1,1.149-4.365c1.025-3.293,1.771-5.669-.73-8.155-10.547-10.547-43.6-62.5-45.929-72.195a.684.684,0,0,1,0-.5c2.423-5.312-3.79-17.754-10.562-24.526a209.67,209.67,0,0,1-15.532-17.241l-.155-.186c-2.05-2.454-5.017-5.731-6.927-5.809a1.445,1.445,0,0,0-1.18.482c-1.414,1.413,1.553,5.545,2.485,6.9,3.4,4.8,6.524,9.521,9.32,13.979a.761.761,0,0,1-.155,1.01.777.777,0,0,1-1.025,0,3.107,3.107,0,0,0-4.023-.854,3.464,3.464,0,0,0-1.056,4.24.761.761,0,0,1-.979.979,3.107,3.107,0,0,0-3.231,1.336c-1.289,1.553-.668,2.516.637,4.1.326.4.683.823.978,1.274a.745.745,0,0,1,0,.885.777.777,0,0,1-.854.248,7.051,7.051,0,0,0-2.221-.528Z" transform="translate(-20.802 -24.714)"/>
    <path id="Path_3234" data-name="Path 3234" d="M331.758,115.548a3.775,3.775,0,0,1-1.4-.264,8.418,8.418,0,0,1-2.485-1.678l-3.246-2.842a.761.761,0,0,1,0-1.072.746.746,0,0,1,1.072,0l3.231,2.842a7.067,7.067,0,0,0,2.035,1.413,1.553,1.553,0,0,0,2.283-2.035,6.213,6.213,0,0,0-1.32-2.19,20.657,20.657,0,0,0-4.038-4.085c-.575-.435-1.274-.994-2.221-1.8a.746.746,0,0,1-.093-1.072.777.777,0,0,1,1.072-.093c.932.792,1.631,1.336,2.175,1.771a21.279,21.279,0,0,1,4.287,4.318,7.362,7.362,0,0,1,1.553,2.765,3.339,3.339,0,0,1-.932,3.448A3.107,3.107,0,0,1,331.758,115.548Z" transform="translate(-18.382 -12.392)"/>
    <path id="Path_3235" data-name="Path 3235" d="M336.432,115.55a5.778,5.778,0,0,1-2.112-.513c-.823-.326-1.631-.683-2.423-1.056a.761.761,0,1,1,.652-1.367c.761.357,1.553.7,2.33,1.01a2.765,2.765,0,0,0,2.1.28c.7-.357.854-1.553.652-2.408-.311-1.445-2.392-4.784-10.547-12.566l-.233-.217a.761.761,0,0,1,0-1.072.746.746,0,0,1,1.072,0l.233.217c6.85,6.555,10.438,10.873,10.966,13.342a3.6,3.6,0,0,1-1.429,4.085,2.749,2.749,0,0,1-1.258.264Z" transform="translate(-17.154 -15.206)"/>
    <path id="Path_3236" data-name="Path 3236" d="M340.6,120.893a.777.777,0,0,1-.683-.419c-1.942-3.681-.3-7.456.9-10.22.45-1.041,1.134-2.609.854-2.889-.9-.963-4.753-1.289-6.6-1.445a11.181,11.181,0,0,1-1.817-.217,5.048,5.048,0,0,1-3.293-2.594,2.641,2.641,0,0,1-.109-2.05,6.555,6.555,0,0,1,2.718-2.811c1.942-.637,6.57-.5,10.764-.311H344.7c1.553,0,6.213,1.724,6.726,3.572a.777.777,0,0,1-.528.947.73.73,0,0,1-.932-.513c-.233-.761-3.805-2.439-5.328-2.485H343.26c-2.92-.14-8.372-.373-10.2.233a5.546,5.546,0,0,0-1.8,1.988,1.1,1.1,0,0,0,.109.808,3.542,3.542,0,0,0,2.377,1.848c.155,0,.839.093,1.46.155,3.184.264,6.4.621,7.6,1.91.947,1.01.28,2.563-.575,4.535-1.149,2.609-2.563,5.871-.947,8.916a.761.761,0,0,1-.311,1.025A.824.824,0,0,1,340.6,120.893Z" transform="translate(-15.455 -15.003)"/>
    <path id="Path_3237" data-name="Path 3237" d="M335.78,101.146a.746.746,0,0,1-.652-.388,30.327,30.327,0,0,0-2.889-3.4l-1.553-1.646a.766.766,0,1,1,1.165-.994c.357.419.885.994,1.445,1.553a28.144,28.144,0,0,1,3.107,3.666.777.777,0,0,1-.28,1.041A.854.854,0,0,1,335.78,101.146Z" transform="translate(-15.01 -16.847)"/>
    <path id="Path_3238" data-name="Path 3238" d="M335.257,109.925a2.439,2.439,0,0,1-.575,0,.745.745,0,0,1-.544-.916.761.761,0,0,1,.916-.559,1.553,1.553,0,0,0,1.553-.7,3.464,3.464,0,0,0-.419-3.79.746.746,0,0,1,.233-1.041.777.777,0,0,1,1.056.249c1.8,2.9.854,4.8.357,5.467a3.231,3.231,0,0,1-2.578,1.289Z" transform="translate(-13.012 -12.221)"/>
    <path id="Path_3239" data-name="Path 3239" d="M627.75,231.736c-5.856-30.723-5.887-63.683-30.646-84.388-11.9-9.925-40.058-14.2-56.585-15.268-1.01,16-16.635,19.8-26.638,19.152-16.713-1.072-19.68-4.349-23.936-17.086-3.743,1.553-26.312,2.625-40.975,15.719-27.2,24.308-62.829,20.534-64.77,22.475-2.7,2.687,3.93,26.281-20.052,37.387-10.1,4.66,50.387,14.29,92.045,3.262-1.553,21.745,11.183,82.167,15.7,106.646,43.491,30.3,127.879-.73,127.879-.73s-6.834-20.115-6.834-35.29c0-7.518,26.327,8.046,29.822,8.667a5.188,5.188,0,0,0,4.256-1.833C629.955,283.63,633.124,260.021,627.75,231.736Z" transform="translate(2.986 3.973)"/>
    <path id="Path_3240" data-name="Path 3240" d="M523.953,333.963c-18.359,0-37.6-3.2-52.22-13.389a.73.73,0,0,1-.311-.481c-.715-3.9-1.631-8.652-2.7-14.135-5.607-29.03-13.979-72.63-13.078-91.641-22.041,5.623-46.6,5.172-59.334,4.4-15.828-.963-32.463-3.7-33.674-7.036-.186-.528-.249-1.553,1.46-2.314,17.614-8.155,18.328-23.3,18.639-31.376.155-3.106.248-4.986,1.118-5.871.606-.606,1.988-.73,6.213-1.041,11.23-.808,37.557-2.7,58.557-21.45,11.6-10.376,27.772-13.28,36.455-14.849a36.282,36.282,0,0,0,4.737-1.01.746.746,0,0,1,.606,0,.777.777,0,0,1,.4.45c4.163,12.426,6.8,15.532,23.3,16.527A31.531,31.531,0,0,0,530.4,147.5a17.552,17.552,0,0,0,9.568-15.206.653.653,0,0,1,.249-.513.73.73,0,0,1,.544-.186c19.26,1.227,45.743,6.011,57.02,15.439,20.332,16.961,24.246,42.606,28.036,67.4.87,5.732,1.771,11.68,2.874,17.427h0c5.157,27.089,2.578,51.257-.777,59.194-.637,1.553-3.7,2.532-5.095,2.283a46.4,46.4,0,0,1-7.192-3.106c-6.477-3.106-18.546-8.978-21.28-7.254a1.025,1.025,0,0,0-.45.994c0,14.865,6.726,34.839,6.8,35.041a.777.777,0,0,1-.466.963,272.638,272.638,0,0,1-47.793,11.758A193.283,193.283,0,0,1,523.953,333.963Zm-51.086-14.445c22.227,15.315,55.435,14.274,79.417,10.686A274.919,274.919,0,0,0,599.1,318.757c-1.212-3.728-6.648-21.311-6.648-34.824a2.515,2.515,0,0,1,1.165-2.283c3.184-2,12.193,2.066,22.74,7.176a55.912,55.912,0,0,0,6.8,3.106,4.769,4.769,0,0,0,3.433-1.382c2.547-5.98,6.213-28.953.683-58.309h0c-1.1-5.794-2.019-11.742-2.889-17.49-3.914-25.644-7.611-49.875-27.508-66.463-10.873-9.071-36.439-13.746-55.389-15.035a19.12,19.12,0,0,1-10.283,15.672,32.991,32.991,0,0,1-17.086,3.417c-16.573-1.056-20.115-4.38-24.37-16.853-.979.264-2.423.528-4.256.854-8.543,1.553-24.433,4.4-35.725,14.492-21.388,19.1-48.073,21.015-59.458,21.839a27.709,27.709,0,0,0-5.328.621,13.98,13.98,0,0,0-.637,4.846c-.4,8.434-1.149,24.137-19.586,32.618-.59.264-.684.466-.684.466.388,1.413,11.447,4.66,32.09,5.964,21.994,1.367,43.91-.311,60.111-4.66a.777.777,0,0,1,.683.155.715.715,0,0,1,.264.637c-1.3,18.22,7.658,64.584,13,92.294C471.251,311.022,472.152,315.666,472.866,319.518Z" transform="translate(2.715 3.702)"/>
    <path id="Path_3241" data-name="Path 3241" d="M509.791,243.189a.761.761,0,0,1-.714-.513c-8.869-26.856-13.886-43.833-13.886-80.66a.777.777,0,1,1,1.553,0c0,36.594,4.986,53.478,13.808,80.179a.777.777,0,0,1-.482.963Z" transform="translate(76.103 20.106)"/>
    <path id="Path_3242" data-name="Path 3242" d="M423.564,194.731a.777.777,0,0,1-.513-.186c-.45-.4-.45-.854-.528-6.213,0-4.023-.155-10.78-.544-21.015a.777.777,0,0,1,1.553,0c.373,10.267.482,17.086.528,21.046a42.973,42.973,0,0,0,.186,5.328.777.777,0,0,1-.093.9.745.745,0,0,1-.59.14ZM424.061,193.411Z" transform="translate(35.6 23.038)"/>
    <path id="Path_3243" data-name="Path 3243" d="M467.384,177.146c-16.682,0-31.842-1.476-39.825-5.545a.254.254,0,1,1,.233-.45c16.5,8.4,63.869,5.654,91.641,1.755a.248.248,0,0,1,.28.217.28.28,0,0,1-.217.3,402.291,402.291,0,0,1-52.111,3.728Z" transform="translate(38.61 25.573)" fill="#fff"/>
    <path id="Path_3244" data-name="Path 3244" d="M485.186,192.862a245.816,245.816,0,0,1-57.579-7.238.249.249,0,1,1,.124-.482c23.3,5.685,58.557,10.95,94.22,3.65a.248.248,0,0,1,.3.2.264.264,0,0,1-.186.3,184.058,184.058,0,0,1-36.874,3.572Z" transform="translate(38.608 33.326)" fill="#fff"/>
    <path id="Path_3245" data-name="Path 3245" d="M550.685,224.95a.249.249,0,0,1-.186-.093,48.508,48.508,0,0,0-44.407-16.123.256.256,0,1,1,0-.513,49.02,49.02,0,0,1,44.827,16.294.249.249,0,0,1,0,.357A.233.233,0,0,1,550.685,224.95Z" transform="translate(81.992 45.754)" fill="#fff"/>
    <path id="Path_3246" data-name="Path 3246" d="M539.453,214.708h-.093a15.858,15.858,0,0,1-4.489-3.106c-.482-.435-.963-.87-1.46-1.274a21.636,21.636,0,0,0-10.562-4.66.249.249,0,0,1-.218-.28.264.264,0,0,1,.3-.217,22.212,22.212,0,0,1,10.873,4.784c.5.4.994.854,1.553,1.274a15,15,0,0,0,4.333,3.106.228.228,0,1,1-.233.373Z" transform="translate(91.283 44.409)" fill="#fff"/>
    <path id="Path_3247" data-name="Path 3247" d="M379.195,180.945h-.14a.264.264,0,0,1-.14-.326,52.811,52.811,0,0,0,3.9-21.295.233.233,0,0,1,.233-.264.249.249,0,0,1,.264.249,53.339,53.339,0,0,1-3.93,21.5A.217.217,0,0,1,379.195,180.945Z" transform="translate(11.766 18.9)" fill="#fff"/>
    <path id="Path_3248" data-name="Path 3248" d="M385.59,167.5h0a.233.233,0,0,1-.186-.3,24.214,24.214,0,0,0,.481-7.844.264.264,0,1,1,.513,0,25.191,25.191,0,0,1-.5,8,.264.264,0,0,1-.311.14Z" transform="translate(15.359 18.883)" fill="#fff"/>
    <path id="Path_3249" data-name="Path 3249" d="M510.6,239.571a.745.745,0,0,1-.73-.559,394.615,394.615,0,0,1-12.178-67.442.779.779,0,0,1,1.553-.124,394.4,394.4,0,0,0,12.131,67.162.761.761,0,0,1-.528.932Z" transform="translate(77.485 25.355)" fill="#fff"/>
    <path id="Path_3250" data-name="Path 3250" d="M422.121,196.822h0a.792.792,0,0,1-.761-.777l.388-25.069a.746.746,0,0,1,.761-.746h0a.746.746,0,0,1,.746.761l-.388,25.085a.761.761,0,0,1-.746.746Z" transform="translate(35.257 25.08)" fill="#fff"/>
    <rect id="Rectangle_17499" data-name="Rectangle 17499" width="88.224" height="114.987" transform="translate(423.409 192.413) rotate(-11.06)" fill="#fff"/>
    <path id="Path_3251" data-name="Path 3251" d="M422.311,288.254a.73.73,0,0,1-.435-.14.684.684,0,0,1-.311-.482L399.494,174.789a.792.792,0,0,1,.606-.9L486.677,157a.761.761,0,0,1,.885.606l22.072,112.781a.761.761,0,0,1-.606.885l-86.578,16.93ZM401.14,175.24l21.745,111.352,85.087-16.635L486.227,158.6Z" transform="translate(23.153 17.756)"/>
    <path id="Path_3252" data-name="Path 3252" d="M443.483,361.194a.761.761,0,0,1-.746-.637c-4.784-29.978-6.1-60.81-7.393-90.616q-.326-7.875-.683-15.719a.746.746,0,0,1,.715-.792.761.761,0,0,1,.792.73q.373,7.844.7,15.7c1.274,29.776,2.594,60.577,7.378,90.445a.761.761,0,0,1-.637.87Z" transform="translate(42.614 71.109)"/>
    <path id="Path_3253" data-name="Path 3253" d="M491.118,298.807a.761.761,0,0,1-.714-.466c-2.19-5.234-3.464-8.869-4.582-12.069a80.53,80.53,0,0,0-3.479-8.854,115.706,115.706,0,0,1-13.56.155H467.9a.777.777,0,1,1,0-1.553h.885a98.2,98.2,0,0,0,13.839-.217.777.777,0,0,1,.823.419,83.516,83.516,0,0,1,3.79,9.506c1.1,3.2,2.361,6.8,4.551,11.991a.792.792,0,0,1-.419,1.01.885.885,0,0,1-.249.078Z" transform="translate(60.573 83.482)"/>
    <path id="Path_3254" data-name="Path 3254" d="M517.257,265.262a.777.777,0,0,1-.73-.544c-.233-.73-.59-1.724-.979-2.78a35.818,35.818,0,0,1-2.439-8.6.761.761,0,0,1,.73-.792.746.746,0,0,1,.792.73,34.7,34.7,0,0,0,2.345,8.139c.388,1.072.761,2.081.994,2.858a.746.746,0,0,1-.5.948.5.5,0,0,1-.217.047Z" transform="translate(86.017 70.617)"/>
    <path id="Path_3255" data-name="Path 3255" d="M569.688,234.385c-6.042-2.345-63.854-22.242-71.931-31.329-5.157-5.794-19.882-17.443-24.091-18.08-7.052-1.041-11.618-2.594-17.567-1.553-4.955.932-13.886,5.25-13.606,6.99.87,5.436,12.177-1.942,13.358-1.91a21.839,21.839,0,0,1,12.83,3.4c-5.017,1.879-13.5,5.949-15.284,8.108s-5.53,11.96-5.778,13.544c-.435,2.765,1.553,4.66,3.728,1.243a60.154,60.154,0,0,0,5.98-9.754c.513-1.367,9.164-5.141,13.5-5.7-4.66,0-12.317,3.572-13.529,5.747-.3.513-4.52,9.879-4.66,10.733-.715,3.619,2.609,3.774,4.365,1.258,1.988-2.858,3.7-7.005,4.271-7.58,3.106-3.107,7.331-3.355,10.686-4.023a19.618,19.618,0,0,0-10.578,3.759c-.606.482-5.794,8.45-3.246,10.7,1.382,1.2,4.458-.715,7.036-6.648a53.821,53.821,0,0,1,6.306-.544c1.553-.124,9.848,8.947,16.34,10.251,1.289.249,24.448,26.747,56.74,42.823,2.889,1.429,28.176,11.416,38.614-4.784C585.7,257.109,587.907,241.405,569.688,234.385Z" transform="translate(46.944 32.188)" fill="#fff"/>
    <path id="Path_3256" data-name="Path 3256" d="M564.233,271.279a49.952,49.952,0,0,1-19.742-4.427c-25.83-12.861-45.96-32.478-53.54-39.856-1.476-1.429-2.749-2.672-3.106-2.936-4.24-.885-9.024-4.753-12.519-7.6a22.06,22.06,0,0,0-3.557-2.609c-.746,0-1.414.093-2.066.124a26.139,26.139,0,0,0-3.728.342c-1.771,3.93-4.007,6.539-6.011,6.99a2.268,2.268,0,0,1-2.05-.466,2.842,2.842,0,0,1-.932-1.973,3.4,3.4,0,0,1-3.464.823c-.45-.2-1.879-1.025-1.351-3.666a1.542,1.542,0,0,1,.186-.559v.078c-1.553,2.5-3.013,2.283-3.572,2.081a3.324,3.324,0,0,1-1.553-3.837c.28-1.755,3.961-11.556,5.933-13.979s9.319-5.825,14.166-7.766a21.5,21.5,0,0,0-11.106-2.5,19.51,19.51,0,0,0-2.019.916c-3.215,1.553-8.061,3.914-10.593,2.609a2.874,2.874,0,0,1-1.553-2.252c-.45-2.749,10.1-7.083,14.212-7.859,4.66-.854,8.325-.186,13.016.668,1.553.28,3.107.559,4.8.823,4.473.668,19.322,12.426,24.541,18.328,6.865,7.766,51.863,23.951,66.65,29.294l5,1.817h0c9.568,3.681,13.249,9.63,14.678,13.979a18,18,0,0,1-.854,13.87C579.346,269.058,571.673,271.279,564.233,271.279Zm-92.511-59.023c.823,0,1.942.885,4.5,2.951,3.2,2.609,8.046,6.524,11.944,7.316.466,0,.9.5,3.79,3.308,7.533,7.331,27.539,26.825,53.152,39.577.264.124,26.964,12.053,37.635-4.52,1.32-2.05,2.408-7.3.683-12.581-1.88-5.763-6.632-10.267-13.762-13.016-.808-.311-2.547-.932-4.97-1.8-16.449-5.949-60.142-21.745-67.271-29.714-5.3-5.98-19.85-17.272-23.625-17.831-1.755-.264-3.34-.559-4.862-.823-4.535-.839-8.123-1.553-12.426-.683-5.141.963-12.612,4.908-12.985,6.213a1.336,1.336,0,0,0,.7,1.1c1.848.963,6.648-1.382,9.226-2.625a8.311,8.311,0,0,1,2.656-1.072h0a22.569,22.569,0,0,1,13.234,3.526.807.807,0,0,1,.326.73.746.746,0,0,1-.482.621c-5.53,2.066-13.436,6.042-14.973,7.875-1.74,2.1-5.343,11.6-5.607,13.187-.171,1.149.155,2.019.575,2.175s1.025-.264,1.771-1.46l.217-.326a70.773,70.773,0,0,0,4.66-7.238c.528-1.149.916-1.988.994-2.128,1.367-2.408,9.226-6.12,14.2-6.12h0a.765.765,0,0,1,.109,1.522c-4.489.575-12.317,4.225-12.908,5.234a16.511,16.511,0,0,1-1.041,2.19c-1.32,2.92-3.495,7.875-3.635,8.45-.2,1.025,0,1.755.466,1.973a2.5,2.5,0,0,0,2.532-1.3c.264-.4.544-.823.808-1.274a22.335,22.335,0,0,1,3.712-6.726A14.284,14.284,0,0,1,462.7,207.8a13.016,13.016,0,0,1,3.013-1.429,29.51,29.51,0,0,1,6.306-1.336.792.792,0,0,1,.854.637.777.777,0,0,1-.606.87l-1.771.311a25.523,25.523,0,0,0-4.924,1.2,13.747,13.747,0,0,0-1.74.839,9.55,9.55,0,0,0-1.848,1.46,18.04,18.04,0,0,0-1.1,2.035c-.59,1.149-1.32,2.594-2.143,3.961a7.147,7.147,0,0,0-.373,2.128,1.553,1.553,0,0,0,.45,1.212.746.746,0,0,0,.7.124c1.18-.264,3.231-2.128,5.126-6.508a.761.761,0,0,1,.575-.435,30.686,30.686,0,0,1,4.3-.435,13.658,13.658,0,0,0,2.066-.109ZM456.081,189.609Z" transform="translate(46.698 31.904)"/>
    <ellipse id="Ellipse_96" data-name="Ellipse 96" cx="8.481" cy="6.834" rx="8.481" ry="6.834" transform="translate(468.277 236.399) rotate(-9.05)"/>
    <path id="Path_3257" data-name="Path 3257" d="M437.653,210.543c-4.3,0-7.984-2.532-8.558-6.213a6.958,6.958,0,0,1,1.879-5.809,10.764,10.764,0,0,1,12.783-2.035,6.71,6.71,0,0,1,1.709,10.733,10.345,10.345,0,0,1-6.042,3.107A11.634,11.634,0,0,1,437.653,210.543Zm1.149-13.762a10.384,10.384,0,0,0-1.553.109,8.838,8.838,0,0,0-5.157,2.64,5.452,5.452,0,0,0-1.553,4.536c.528,3.308,4.38,5.467,8.574,4.784a8.822,8.822,0,0,0,5.172-2.672,5.436,5.436,0,0,0,1.553-4.535,5.514,5.514,0,0,0-2.827-3.852,8.512,8.512,0,0,0-4.209-1.01Z" transform="translate(39.497 38.913)"/>
    <path id="Path_3258" data-name="Path 3258" d="M473.675,310.144a.761.761,0,0,1-.761-.746c-.171-8.372-.217-12.426-.264-16.293s-.109-7.922-.28-16.278a.746.746,0,0,1,.746-.777h0a.745.745,0,0,1,.761.746c.171,8.372.217,12.426.28,16.294s.093,7.922.264,16.278a.745.745,0,0,1-.745.777Z" transform="translate(63.477 83.624)"/>
    <path id="Path_3259" data-name="Path 3259" d="M379.393,400.96s-11.556-4.908,45.51-70.362c43.91-50.341,46.038-50.185,46.038-50.185l-.792-16.262s-54.705,52.95-77.755,84.683C357.648,396.518,379.393,400.96,379.393,400.96Z" transform="translate(8.321 77.04)"/>
    <path id="Path_3260" data-name="Path 3260" d="M379.648,401.985h-.171a9.32,9.32,0,0,1-6.337-5.965c-2.47-6.353-1.2-19.726,18.888-47.358,22.817-31.407,77.274-84.248,77.833-84.776a.761.761,0,0,1,1.289.513l.792,16.262a.761.761,0,0,1-.218.59,1.352,1.352,0,0,1-.28.171c-.575.326-5.871,4.271-45.728,49.968-43.491,49.859-46.815,64.2-46.24,68.048a1.771,1.771,0,0,0,.481,1.118.714.714,0,0,1,.466.885.808.808,0,0,1-.777.544ZM379.928,400.525Zm89.809-134.387c-8.17,7.984-55.606,54.705-76.451,83.394-19.633,27.042-21.015,39.872-18.717,45.883a8.4,8.4,0,0,0,3.448,4.287c-.823-5.172,4.458-21.015,46.6-69.337,22.693-26.017,34.016-38.288,39.515-44a61.946,61.946,0,0,1,6.322-6.073Zm1.429,15.3ZM471.165,281.438Z" transform="translate(8.066 76.776)"/>
    <path id="Path_3261" data-name="Path 3261" d="M531.38,199.031s62.254-39.344,68.219-17.179c-6.415-9.49-65.889,32.773-65.889,32.773Z" transform="translate(96.125 27.763)"/>
    <path id="Path_3262" data-name="Path 3262" d="M533.979,215.582a1.011,1.011,0,0,1-.3,0,.745.745,0,0,1-.45-.59L530.9,199.46a.745.745,0,0,1,.342-.746c1.91-1.212,47.11-29.589,63.683-23.112a8.993,8.993,0,0,1,5.654,6.368.761.761,0,0,1-1.367.621,2.454,2.454,0,0,0-1.709-.963c-12.084-2.19-62.611,33.566-63.124,33.938A.73.73,0,0,1,533.979,215.582Zm-1.553-15.967,2.081,13.87c7.456-5.234,51.381-35.631,63.264-33.472a3.835,3.835,0,0,1,.451.093,7.394,7.394,0,0,0-3.868-3.215c-15.02-5.825-57.206,19.866-61.881,22.771Z" transform="translate(95.856 27.521)"/>
  </g>
</svg>
