<svg xmlns="http://www.w3.org/2000/svg" width="774.818" height="503.16" viewBox="0 0 774.818 503.16">
  <g id="join" transform="translate(0 -44.015)">
    <path id="Path_3267" data-name="Path 3267" d="M2795.483,944.984l-.963-10.827,44.567,3.284v7.543Z" transform="translate(-2069.417 -659.174)" fill="#fafafa"/>
    <path id="Path_3268" data-name="Path 3268" d="M2804.08,916.9v-6.3h41.433l-.828,9.284Z" transform="translate(-2076.497 -641.733)" fill="#fafafa"/>
    <path id="Path_3269" data-name="Path 3269" d="M2788.33,888.242l.854,5.8H2830.1v-5.8Z" transform="translate(-2064.833 -625.173)" fill="#fafafa"/>
    <g id="Group_8350" data-name="Group 8350" transform="translate(727.583 268.872)" opacity="0.29">
      <path id="Path_3270" data-name="Path 3270" d="M2804.08,910.6v1.358l40-1.358Z" transform="translate(-2804.08 -910.605)" fill="#e0e0e0"/>
    </g>
    <g id="Group_8351" data-name="Group 8351" transform="translate(727.583 275.168)" opacity="0.29">
      <path id="Path_3271" data-name="Path 3271" d="M2804.08,934.871l40.6,2.988.137-1.494Z" transform="translate(-2804.08 -934.871)" fill="#e0e0e0"/>
    </g>
    <g id="Group_8352" data-name="Group 8352" transform="translate(749.906 271.835)" opacity="0.29">
      <path id="Path_3272" data-name="Path 3272" d="M2890.11,922.913l7.024-.889,10.654.889Z" transform="translate(-2890.11 -922.024)" fill="#e0e0e0"/>
    </g>
    <g id="Group_8353" data-name="Group 8353" transform="translate(725.671 281.316)" opacity="0.29">
      <path id="Path_3273" data-name="Path 3273" d="M2796.71,958.566h13.246l-13.173.938Z" transform="translate(-2796.71 -958.566)" fill="#e0e0e0"/>
    </g>
    <g id="Group_8354" data-name="Group 8354" transform="translate(738.004 265.119)" opacity="0.29">
      <path id="Path_3274" data-name="Path 3274" d="M2844.24,896.993l27.26-.852C2871.523,896.8,2844.24,896.993,2844.24,896.993Z" transform="translate(-2844.24 -896.141)" fill="#e0e0e0"/>
    </g>
    <path id="Path_3275" data-name="Path 3275" d="M2587.31,818.2v6.222h46.581V818.2Z" transform="translate(-1915.973 -573.308)" fill="#e0e0e0"/>
    <path id="Path_3276" data-name="Path 3276" d="M2610.966,819.2a15.079,15.079,0,0,1,0,5.827A14.493,14.493,0,0,1,2610.966,819.2Z" transform="translate(-1933.271 -574.048)" fill="#fafafa"/>
    <path id="Path_3277" data-name="Path 3277" d="M2607.066,818.68a15.15,15.15,0,0,1,0,5.839A14.553,14.553,0,0,1,2607.066,818.68Z" transform="translate(-1930.383 -573.66)" fill="#fafafa"/>
    <path id="Path_3278" data-name="Path 3278" d="M2752.136,819.2a14.5,14.5,0,0,1,0,5.827A14.493,14.493,0,0,1,2752.136,819.2Z" transform="translate(-2037.812 -574.048)" fill="#fafafa"/>
    <path id="Path_3279" data-name="Path 3279" d="M2748.236,818.68a14.562,14.562,0,0,1,0,5.839A14.553,14.553,0,0,1,2748.236,818.68Z" transform="translate(-2034.924 -573.66)" fill="#fafafa"/>
    <path id="Path_3280" data-name="Path 3280" d="M2657.617,830.063c0,.16-5.332.3-11.912.3s-11.915-.136-11.915-.3,5.335-.3,11.915-.3S2657.617,829.89,2657.617,830.063Z" transform="translate(-1950.392 -581.871)" fill="#fafafa"/>
    <path id="Path_3281" data-name="Path 3281" d="M2586.59,926.164v12.445h46.581V926.164Z" transform="translate(-1915.44 -653.255)" fill="#e0e0e0"/>
    <path id="Path_3282" data-name="Path 3282" d="M2634.046,938.213l-.26.136c-.174.1-.433.21-.778.358a12.9,12.9,0,0,1-3.147.9,8.2,8.2,0,0,1-5.125-.728,6.859,6.859,0,0,1-2.468-2.2,5.138,5.138,0,0,1-.841-3.593,3.8,3.8,0,0,1,.851-1.852,2.47,2.47,0,0,1,1.964-.889,2.834,2.834,0,0,1,1.1.328,2.863,2.863,0,0,1,.879.733,3.9,3.9,0,0,1,.9,2.124,5.612,5.612,0,0,1-1.6,4.407,7.1,7.1,0,0,1-4.481,2.2,11.909,11.909,0,0,1-5.187-.654,9.545,9.545,0,0,1-4.53-3.012,4.941,4.941,0,0,1-1.061-2.679,3.518,3.518,0,0,1,.184-1.511,3.472,3.472,0,0,1,.8-1.292,2.278,2.278,0,0,1,1.456-.642,2.731,2.731,0,0,1,1.531.432,4.054,4.054,0,0,1,1.715,2.469,5.889,5.889,0,0,1-1.837,5.482,9.287,9.287,0,0,1-5.249,2.136,12.956,12.956,0,0,1-5.431-.543,7.411,7.411,0,0,1-4.136-3.21,5.521,5.521,0,0,1-.519-4.938,2.616,2.616,0,0,1,1.9-1.605,2.989,2.989,0,0,1,2.346.568,3.9,3.9,0,0,1,1.111,4.2,7.238,7.238,0,0,1-2.359,3.3,10.335,10.335,0,0,1-14.087-.629,5.959,5.959,0,0,1-.555-.654,1.183,1.183,0,0,1-.161-.235,11.927,11.927,0,0,0,3.459,2.642,10.1,10.1,0,0,0,11.111-1.445,6.8,6.8,0,0,0,2.172-3.124,3.431,3.431,0,0,0-.963-3.7,2.465,2.465,0,0,0-1.962-.457,2.069,2.069,0,0,0-.931.464,2.1,2.1,0,0,0-.589.857,4.954,4.954,0,0,0,.506,4.457,6.968,6.968,0,0,0,3.853,2.963,12.4,12.4,0,0,0,5.2.494,8.641,8.641,0,0,0,4.938-1.988,5.3,5.3,0,0,0,1.656-4.939,3.5,3.5,0,0,0-1.445-2.148,1.789,1.789,0,0,0-2.271.148,2.864,2.864,0,0,0-.815,2.321,4.331,4.331,0,0,0,.937,2.382,9.083,9.083,0,0,0,4.26,2.877,11.451,11.451,0,0,0,4.938.63,6.575,6.575,0,0,0,4.172-2,5.132,5.132,0,0,0,1.495-4.012,2.962,2.962,0,0,0-2.47-2.778,1.973,1.973,0,0,0-1.616.728,3.284,3.284,0,0,0-.765,1.63,4.721,4.721,0,0,0,.752,3.309,6.392,6.392,0,0,0,2.273,2.123,8.081,8.081,0,0,0,4.938.79,15.056,15.056,0,0,0,3.147-.79C2633.675,938.349,2634.033,938.188,2634.046,938.213Z" transform="translate(-1915.721 -656.353)" fill="#fafafa"/>
    <path id="Path_3283" data-name="Path 3283" d="M2602.58,842.85v21.593H2645V842.85Z" transform="translate(-1927.281 -591.559)" fill="#ebebeb"/>
    <path id="Path_3284" data-name="Path 3284" d="M2628.8,845.706a184.7,184.7,0,0,1,0,20.9,184.7,184.7,0,0,1,0-20.9Z" transform="translate(-1946.451 -593.674)" fill="#e0e0e0"/>
    <path id="Path_3285" data-name="Path 3285" d="M2641.217,844.517a188.31,188.31,0,0,1,0,20.63,178.463,178.463,0,0,1,0-20.63Z" transform="translate(-1955.645 -592.793)" fill="#e0e0e0"/>
    <path id="Path_3286" data-name="Path 3286" d="M2746.464,841.994a198.03,198.03,0,0,1,0,21.741,199.989,199.989,0,0,1,0-21.741Z" transform="translate(-2033.586 -590.925)" fill="#e0e0e0"/>
    <path id="Path_3287" data-name="Path 3287" d="M2732.194,843.137a189.527,189.527,0,0,1,0,21.173,189.527,189.527,0,0,1,0-21.173Z" transform="translate(-2023.018 -591.771)" fill="#e0e0e0"/>
    <path id="Path_3288" data-name="Path 3288" d="M2599.511,972.888H2536.4v204.273h63.112Z" transform="translate(-1878.272 -687.855)" fill="#f5f5f5"/>
    <path id="Path_3289" data-name="Path 3289" d="M2833.208,973.03H2779.63v204.2h53.579Z" transform="translate(-2058.391 -687.961)" fill="#e0e0e0"/>
    <path id="Path_3290" data-name="Path 3290" d="M2606.011,1004.77H2555.38v44h50.631Z" transform="translate(-1892.328 -711.465)" fill="#e0e0e0"/>
    <path id="Path_3291" data-name="Path 3291" d="M2606.011,1193.57H2555.38v44h50.631Z" transform="translate(-1892.328 -851.276)" fill="#e0e0e0"/>
    <path id="Path_3292" data-name="Path 3292" d="M2606.011,1382.36H2555.38v44h50.631Z" transform="translate(-1892.328 -991.081)" fill="#e0e0e0"/>
    <path id="Path_3293" data-name="Path 3293" d="M2606.011,1571.21H2555.38v44h50.631Z" transform="translate(-1892.328 -1130.929)" fill="#e0e0e0"/>
    <path id="Path_3294" data-name="Path 3294" d="M2642.893,1031.071a1.768,1.768,0,1,1-.519-1.235A1.769,1.769,0,0,1,2642.893,1031.071Z" transform="translate(-1954.519 -729.645)" fill="#fafafa"/>
    <path id="Path_3295" data-name="Path 3295" d="M2642.891,1222.074a1.767,1.767,0,0,1-3.5.337,1.792,1.792,0,0,1,.106-1.022,1.767,1.767,0,0,1,3.394.685Z" transform="translate(-1954.517 -871.078)" fill="#fafafa"/>
    <path id="Path_3296" data-name="Path 3296" d="M2642.891,1413.057a1.766,1.766,0,0,1-.3.981,1.764,1.764,0,0,1-1.816.75,1.777,1.777,0,0,1-1.386-1.393,1.789,1.789,0,0,1,.106-1.022,1.774,1.774,0,0,1,1.64-1.082,1.754,1.754,0,0,1,1.624,1.092A1.812,1.812,0,0,1,2642.891,1413.057Z" transform="translate(-1954.517 -1012.504)" fill="#fafafa"/>
    <path id="Path_3297" data-name="Path 3297" d="M2642.893,1604.081a1.767,1.767,0,1,1-.519-1.235A1.769,1.769,0,0,1,2642.893,1604.081Z" transform="translate(-1954.519 -1153.974)" fill="#fafafa"/>
    <path id="Path_3298" data-name="Path 3298" d="M2543.7,1760.15h-7.3v40.976h7.3Z" transform="translate(-1878.272 -1270.844)" fill="#e0e0e0"/>
    <path id="Path_3299" data-name="Path 3299" d="M2757.846,1760.15h-7.3v40.976h7.3Z" transform="translate(-2036.856 -1270.844)" fill="#e0e0e0"/>
    <path id="Path_3300" data-name="Path 3300" d="M2962.306,1760.15h-7.3v40.976h7.3Z" transform="translate(-2188.265 -1270.844)" fill="#e0e0e0"/>
    <path id="Path_3301" data-name="Path 3301" d="M9.94,223.164l-9.926.054L2.4,664.7l9.926-.055Z" transform="translate(-0.011 -132.665)" fill="#e0e0e0"/>
    <path id="Path_3302" data-name="Path 3302" d="M101.576,222.62l-9.926.054,2.389,441.479,9.926-.052Z" transform="translate(-67.869 -132.262)" fill="#e0e0e0"/>
    <path id="Path_3303" data-name="Path 3303" d="M902.46,218.287l-9.926.054,2.389,441.479,9.926-.054Z" transform="translate(-660.945 -129.053)" fill="#e0e0e0"/>
    <path id="Path_3304" data-name="Path 3304" d="M994.191,217.791l-9.926.054,2.389,441.478,9.925-.052Z" transform="translate(-728.875 -128.686)" fill="#e0e0e0"/>
    <path id="Path_3305" data-name="Path 3305" d="M265.309,217.768,0,219.2l.055,10.074,265.309-1.435Z" transform="translate(0 -128.669)" fill="#e0e0e0"/>
    <path id="Path_3306" data-name="Path 3306" d="M267.2,567.135,1.89,568.57l.016,3.012,265.308-1.435Z" transform="translate(-1.4 -387.384)" fill="#e0e0e0"/>
    <path id="Path_3307" data-name="Path 3307" d="M268.98,896.376,3.671,897.811l.016,3.013L269,899.388Z" transform="translate(-2.719 -631.196)" fill="#e0e0e0"/>
    <path id="Path_3308" data-name="Path 3308" d="M270.761,1225.62,5.453,1227.055l.016,3.012,265.307-1.435Z" transform="translate(-4.038 -875.01)" fill="#e0e0e0"/>
    <path id="Path_3309" data-name="Path 3309" d="M272.542,1554.91,7.234,1556.345l.016,3.013,265.307-1.435Z" transform="translate(-5.357 -1118.859)" fill="#e0e0e0"/>
    <path id="Path_3310" data-name="Path 3310" d="M468.327,1365.04l-47,.254.27,49.853,47-.254Z" transform="translate(-312.004 -978.255)" fill="#ebebeb"/>
    <path id="Path_3311" data-name="Path 3311" d="M648.553,1364.07l-47,.254.27,49.85,47-.254Z" transform="translate(-445.466 -977.536)" fill="#f5f5f5"/>
    <path id="Path_3312" data-name="Path 3312" d="M420.619,1415.1c31.223.309,62.544,0,93.828-.446a.37.37,0,0,0,.3-.363.37.37,0,0,0-.3-.363c-31.222-.174-62.544-.088-93.828.555a.309.309,0,0,0-.309.309.309.309,0,0,0,.09.218A.312.312,0,0,0,420.619,1415.1Z" transform="translate(-311.251 -1014.398)" fill="#e0e0e0"/>
    <path id="Path_3313" data-name="Path 3313" d="M451.785,641.735l-34.42.186.2,36.518,34.42-.186Z" transform="translate(-309.07 -442.628)" fill="#ebebeb"/>
    <path id="Path_3314" data-name="Path 3314" d="M583.815,641.021l-34.42.186.2,36.518,34.42-.186Z" transform="translate(-406.842 -442.099)" fill="#f5f5f5"/>
    <path id="Path_3315" data-name="Path 3315" d="M416.778,678.286q34.309.272,68.68-.321a.37.37,0,0,0,0-.728c-22.877-.124-45.815,0-68.692.42a.321.321,0,0,0,0,.63Z" transform="translate(-308.435 -468.884)" fill="#e0e0e0"/>
    <path id="Path_3316" data-name="Path 3316" d="M397.2,780.148l-62.543.338.161,29.753,62.543-.338Z" transform="translate(-247.826 -545.126)" fill="#ebebeb"/>
    <path id="Path_3317" data-name="Path 3317" d="M637.094,778.85l-62.543.338.161,29.753,62.543-.338Z" transform="translate(-425.471 -544.165)" fill="#f5f5f5"/>
    <path id="Path_3318" data-name="Path 3318" d="M334.035,809.214c41.543.469,83.235,0,124.779-.617a.37.37,0,0,0,0-.741c-41.556-.21-83.248-.185-124.791.728a.321.321,0,0,0,0,.629Z" transform="translate(-247.161 -565.565)" fill="#e0e0e0"/>
    <path id="Path_3319" data-name="Path 3319" d="M356.9,335.029l-15.7.085.331,61.259,15.7-.085Z" transform="translate(-252.664 -215.504)" fill="#ebebeb"/>
    <path id="Path_3320" data-name="Path 3320" d="M295.583,399.214l-15.7.085.241,44.531,15.7-.085Z" transform="translate(-207.258 -263.034)" fill="#e0e0e0"/>
    <path id="Path_3321" data-name="Path 3321" d="M427.169,378.764l-24.407.132.269,49.642,24.407-.132Z" transform="translate(-298.256 -247.891)" fill="#e0e0e0"/>
    <path id="Path_3322" data-name="Path 3322" d="M503.151,378.563l-7.753.042.269,49.642,7.753-.042Z" transform="translate(-366.856 -247.742)" fill="#ebebeb"/>
    <path id="Path_3323" data-name="Path 3323" d="M533.269,422.649l-7.753.042.207,38.173,7.753-.042Z" transform="translate(-389.159 -280.389)" fill="#e0e0e0"/>
    <path id="Path_3324" data-name="Path 3324" d="M285.361,1009.338l-14.53-5.958-21.784,53.14,14.53,5.958Z" transform="translate(-184.426 -710.436)" fill="#e0e0e0"/>
    <path id="Path_3325" data-name="Path 3325" d="M396.578,994.125l-15.7.085.331,61.258,15.7-.086Z" transform="translate(-282.047 -703.582)" fill="#ebebeb"/>
    <path id="Path_3326" data-name="Path 3326" d="M497.108,1037.74l-24.407.132.269,49.642,24.407-.132Z" transform="translate(-350.048 -735.88)" fill="#e0e0e0"/>
    <path id="Path_3327" data-name="Path 3327" d="M457.063,967.36l-5.346.029.368,68.026,5.346-.031Z" transform="translate(-334.509 -683.762)" fill="#ebebeb"/>
    <path id="Path_3328" data-name="Path 3328" d="M444.328,1008.34l-2.667.016.311,57.432,2.667-.016Z" transform="translate(-327.062 -714.109)" fill="#f5f5f5"/>
    <path id="Path_3329" data-name="Path 3329" d="M568.6,1218.341l.015,2.667,57.432-.311-.014-2.667Z" transform="translate(-421.067 -869.39)" fill="#f5f5f5"/>
    <path id="Path_3330" data-name="Path 3330" d="M630.065,1156.77l-62.6.337.086,15.877,62.6-.34Z" transform="translate(-420.219 -824.025)" fill="#ebebeb"/>
    <path id="Path_3331" data-name="Path 3331" d="M617.35,1095.36l-50.271.272.086,15.877,50.271-.272Z" transform="translate(-419.937 -778.549)" fill="#e0e0e0"/>
    <path id="Path_3332" data-name="Path 3332" d="M2223.077,115.464a37.148,37.148,0,1,0-48.579-20A37.146,37.146,0,0,0,2223.077,115.464Z" transform="translate(-1608.151)" fill="#e0e0e0"/>
    <path id="Path_3333" data-name="Path 3333" d="M2330.165,129.006a4.812,4.812,0,0,1-1.308.124l-3.607.1c-3.075,0-7.333.086-12.159.1h-.322V126.6c0-5.383,0-10.247.1-13.778,0-1.654.073-3.062.1-4.173a7.593,7.593,0,0,1,.125-1.531,6.737,6.737,0,0,1,.122,1.531c0,1.111,0,2.469.111,4.173,0,3.531.086,8.4.086,13.778v2.469l-.319-.321c4.826,0,9.084,0,12.159.111l3.607.1A6.159,6.159,0,0,1,2330.165,129.006Z" transform="translate(-1712.669 -46.729)" fill="#fafafa"/>
    <path id="Path_3334" data-name="Path 3334" d="M2313.415,67.435a7.543,7.543,0,0,1,.335,3.123,7.529,7.529,0,0,1-.335,3.111,7.942,7.942,0,0,1-.319-3.111A8,8,0,0,1,2313.415,67.435Z" transform="translate(-1712.882 -17.343)" fill="#fafafa"/>
    <path id="Path_3335" data-name="Path 3335" d="M2367.243,86.72c.125.123-.753,1.235-1.949,2.4s-2.286,2.074-2.408,1.951.752-1.234,1.951-2.395S2367.108,86.6,2367.243,86.72Z" transform="translate(-1749.772 -31.616)" fill="#fafafa"/>
    <path id="Path_3336" data-name="Path 3336" d="M2402.968,128.433c.085.16-1.074.9-2.47,1.778a9.193,9.193,0,0,1-2.73,1.407c-.109-.136.926-1.074,2.4-1.963A6.544,6.544,0,0,1,2402.968,128.433Z" transform="translate(-1775.606 -62.514)" fill="#fafafa"/>
    <path id="Path_3337" data-name="Path 3337" d="M2415.916,189.325a28.392,28.392,0,0,1-8.506,0A28.392,28.392,0,0,1,2415.916,189.325Z" transform="translate(-1782.752 -107.369)" fill="#fafafa"/>
    <path id="Path_3338" data-name="Path 3338" d="M2189.816,186.993a25.314,25.314,0,0,1-8.036,0A25.314,25.314,0,0,1,2189.816,186.993Z" transform="translate(-1615.667 -105.642)" fill="#fafafa"/>
    <path id="Path_3339" data-name="Path 3339" d="M2210.647,234.108a12.794,12.794,0,0,1-2.963,2.827,13.759,13.759,0,0,1-3.394,2.321,13.228,13.228,0,0,1,2.987-2.827A13.46,13.46,0,0,1,2210.647,234.108Z" transform="translate(-1632.336 -140.769)" fill="#fafafa"/>
    <path id="Path_3340" data-name="Path 3340" d="M2256.361,269.7a18.084,18.084,0,0,1-1.988,3.63,17.359,17.359,0,0,1-2.273,3.457,11.233,11.233,0,0,1,1.718-3.79A11.072,11.072,0,0,1,2256.361,269.7Z" transform="translate(-1667.741 -167.124)" fill="#fafafa"/>
    <path id="Path_3341" data-name="Path 3341" d="M2313.411,291.513a28.072,28.072,0,0,1,0-8.445,26.816,26.816,0,0,1,0,8.445Z" transform="translate(-1712.878 -177.025)" fill="#fafafa"/>
    <path id="Path_3342" data-name="Path 3342" d="M2366.96,277.919a10.363,10.363,0,0,1-3.557-2.346,10.5,10.5,0,0,1-2.813-3.21,22.764,22.764,0,0,1,3.233,2.729A21.443,21.443,0,0,1,2366.96,277.919Z" transform="translate(-1748.081 -169.098)" fill="#fafafa"/>
    <path id="Path_3343" data-name="Path 3343" d="M2403.1,242.785a11.159,11.159,0,0,1-2.877-2.469,10.918,10.918,0,0,1-2.468-2.877,11.526,11.526,0,0,1,2.875,2.469A11.289,11.289,0,0,1,2403.1,242.785Z" transform="translate(-1775.599 -143.236)" fill="#fafafa"/>
    <path id="Path_3344" data-name="Path 3344" d="M2214.081,130.719c-.122.136-1.235-.8-2.543-2.086a9.077,9.077,0,0,1-2.1-2.543,10.682,10.682,0,0,1,2.556,2.086C2213.315,129.448,2214.206,130.6,2214.081,130.719Z" transform="translate(-1636.141 -60.775)" fill="#fafafa"/>
    <path id="Path_3345" data-name="Path 3345" d="M2255.356,87.954c-.125.124-1.235-.79-2.47-2.037a9.242,9.242,0,0,1-2.047-2.469,8.776,8.776,0,0,1,2.468,2.037C2254.541,86.732,2255.48,87.831,2255.356,87.954Z" transform="translate(-1666.798 -29.196)" fill="#fafafa"/>
    <path id="Path_3346" data-name="Path 3346" d="M1320.559,514.5H1212.52v71.038h108.039Z" transform="translate(-897.904 -348.406)" fill="#e0e0e0"/>
    <path id="Path_3347" data-name="Path 3347" d="M1327.5,525.729H1227.03V590.68H1327.5Z" transform="translate(-908.649 -356.722)" fill="#fafafa"/>
    <path id="Path_3348" data-name="Path 3348" d="M1390.229,616.939H1357.45v17.877h32.779Z" transform="translate(-1005.228 -424.266)" fill="#e0e0e0"/>
    <path id="Path_3349" data-name="Path 3349" d="M910.768,1919.152c0,.174-160.816.322-359.165.322s-359.25-.148-359.25-.322,160.792-.322,359.263-.322S910.768,1918.978,910.768,1919.152Z" transform="translate(-142.442 -1388.351)" fill="#263238"/>
    <path id="Path_3350" data-name="Path 3350" d="M1880.314,1218.07h-130.7V1243.4h130.7Z" transform="translate(-1295.633 -869.419)" fill="#455a64"/>
    <path id="Path_3351" data-name="Path 3351" d="M1435.72,1147.185h77.4v-3.765h-77.4Z" transform="translate(-1063.189 -814.139)" fill="#263238"/>
    <path id="Path_3352" data-name="Path 3352" d="M1611.641,1002.637l14.52-54.4h-60.434l-13.148,54.4Z" transform="translate(-1149.727 -669.604)" fill="#263238"/>
    <path id="Path_3353" data-name="Path 3353" d="M1566.52,1005.679h53.989l12.566-47.779h-54.258Z" transform="translate(-1160.05 -676.756)" fill="#e0e0e0"/>
    <path id="Path_3354" data-name="Path 3354" d="M1321.633,1200.84h-3.913v186.621h3.913Z" transform="translate(-975.807 -856.66)" fill="#455a64"/>
    <path id="Path_3355" data-name="Path 3355" d="M1336.716,1202.89H1332.8v186.089h3.916Z" transform="translate(-986.974 -858.178)" fill="#263238"/>
    <path id="Path_3356" data-name="Path 3356" d="M2249.736,1200.84h-3.916v186.621h3.916Z" transform="translate(-1663.09 -856.66)" fill="#455a64"/>
    <path id="Path_3357" data-name="Path 3357" d="M2264.773,1202.89h-3.913v186.089h3.913Z" transform="translate(-1674.228 -858.178)" fill="#263238"/>
    <path id="Path_3358" data-name="Path 3358" d="M1549.585,1159.07h-296.9v15.309h296.9Z" transform="translate(-927.643 -825.728)" fill="#455a64"/>
    <path id="Path_3359" data-name="Path 3359" d="M2007.279,1251.814a2.915,2.915,0,1,1-.854-2.06A2.924,2.924,0,0,1,2007.279,1251.814Z" transform="translate(-1482.128 -892.25)" fill="#263238"/>
    <path id="Path_3360" data-name="Path 3360" d="M1060.418,1122.29l-26.6-108.26a12.345,12.345,0,0,1,11.975-15.259h62.878a12.347,12.347,0,0,1,11.925,9.221l27.963,107.645a12.34,12.34,0,0,1-11.8,15.418l-64.2.618a12.344,12.344,0,0,1-12.138-9.383Z" transform="translate(-765.309 -707.023)" fill="#fff"/>
    <path id="Path_3361" data-name="Path 3361" d="M1045.016,998.581a13.111,13.111,0,0,0-12.743,16.209l28.334,116.791h21.124Z" transform="translate(-764.152 -706.882)" fill="#fff"/>
    <path id="Path_3362" data-name="Path 3362" d="M1329.055,1380.94H1266.61a11.84,11.84,0,0,0-11.84,11.84v10.158a11.838,11.838,0,0,0,11.84,11.84h62.445a11.838,11.838,0,0,0,11.84-11.84V1392.78A11.84,11.84,0,0,0,1329.055,1380.94Z" transform="translate(-929.191 -990.029)" fill="#fff"/>
    <g id="Group_8355" data-name="Group 8355" transform="translate(267.751 291.674)" opacity="0.4">
      <path id="Path_3363" data-name="Path 3363" d="M1101.571,1131.537l-7.605-33.841h-21.554l-27.4-99.21a13.113,13.113,0,0,0-12.743,16.21l28.334,116.791h.963Z" transform="translate(-1031.904 -998.486)"/>
    </g>
    <path id="Path_3364" data-name="Path 3364" d="M1270.58,1380.022c0,.171-17.777.319-39.7.319s-39.715-.148-39.715-.319,17.776-.322,39.715-.322S1270.58,1379.835,1270.58,1380.022Z" transform="translate(-882.086 -989.111)" fill="#e0e0e0"/>
    <path id="Path_3365" data-name="Path 3365" d="M1208.987,1161.9a3.378,3.378,0,0,0,0,1.925,2.387,2.387,0,0,0,1.383,1.357,2,2,0,0,0,2.112-.729,2.031,2.031,0,0,0,.345-2.208,2.385,2.385,0,0,0-.675-.729,2.329,2.329,0,0,0-.919-.381,3.312,3.312,0,0,0-1.889.283.98.98,0,0,1,.394-.42,2.475,2.475,0,0,1,1.57-.319,2.7,2.7,0,0,1,1.157.384,2.507,2.507,0,0,1,.5,3.747,2.514,2.514,0,0,1-4.4-.885,2.468,2.468,0,0,1,0-1.606A3.182,3.182,0,0,1,1208.987,1161.9Z" transform="translate(-894.877 -826.907)" fill="#e0e0e0"/>
    <path id="Path_3366" data-name="Path 3366" d="M1205.141,1189.268a4.54,4.54,0,0,1-.706-2.159,10.85,10.85,0,0,1,.545-5.457,10.988,10.988,0,0,1,3.121-4.507,4.989,4.989,0,0,1,1.938-1.235c.062.088-.664.555-1.63,1.521a11.949,11.949,0,0,0-3.529,9.58C1204.99,1188.417,1205.239,1189.244,1205.141,1189.268Z" transform="translate(-891.819 -838.199)" fill="#e0e0e0"/>
    <path id="Path_3367" data-name="Path 3367" d="M1188.09,1130.81a19.182,19.182,0,0,0,1.938,5.135,18.731,18.731,0,0,0,3.788,3.962c0,.075-.654-.122-1.518-.7a9.637,9.637,0,0,1-2.815-2.914,9.863,9.863,0,0,1-1.419-3.8A3.179,3.179,0,0,1,1188.09,1130.81Z" transform="translate(-879.719 -804.801)" fill="#e0e0e0"/>
    <path id="Path_3368" data-name="Path 3368" d="M1176.79,1168.872c.1-.161,1.764.864,4.061,1.334s4.235.234,4.26.431a6.93,6.93,0,0,1-4.4.2A6.808,6.808,0,0,1,1176.79,1168.872Z" transform="translate(-871.445 -832.974)" fill="#e0e0e0"/>
    <path id="Path_3369" data-name="Path 3369" d="M1335.983,1161.894a3.378,3.378,0,0,0,0,1.925,2.387,2.387,0,0,0,1.383,1.357,2,2,0,0,0,2.112-.729,2.018,2.018,0,0,0,.345-2.208,2.331,2.331,0,0,0-1.58-1.111,3.31,3.31,0,0,0-1.9.283,1.062,1.062,0,0,1,.407-.42,2.406,2.406,0,0,1,1.557-.322,2.754,2.754,0,0,1,2.037,1.235,2.612,2.612,0,1,1-4.78,2.014,2.5,2.5,0,0,1,0-1.606C1335.8,1162.016,1335.959,1161.881,1335.983,1161.894Z" transform="translate(-988.922 -826.897)" fill="#e0e0e0"/>
    <path id="Path_3370" data-name="Path 3370" d="M1331.906,1189.268a4.7,4.7,0,0,1-.7-2.159,10.9,10.9,0,0,1,3.7-9.964,4.83,4.83,0,0,1,1.925-1.235c0,.088-.667.555-1.616,1.521a11.915,11.915,0,0,0-3.542,9.58A20.261,20.261,0,0,1,1331.906,1189.268Z" transform="translate(-985.697 -838.199)" fill="#e0e0e0"/>
    <path id="Path_3371" data-name="Path 3371" d="M1314.906,1130.81a19.178,19.178,0,0,0,1.938,5.135,18.728,18.728,0,0,0,3.788,3.962c0,.075-.654-.122-1.518-.7a9.667,9.667,0,0,1-2.815-2.914,9.863,9.863,0,0,1-1.419-3.8A3.346,3.346,0,0,1,1314.906,1130.81Z" transform="translate(-973.634 -804.801)" fill="#e0e0e0"/>
    <path id="Path_3372" data-name="Path 3372" d="M1303.59,1168.872c.1-.161,1.764.864,4.061,1.334s4.235.234,4.26.431a6.89,6.89,0,0,1-4.382.2A6.811,6.811,0,0,1,1303.59,1168.872Z" transform="translate(-965.344 -832.974)" fill="#e0e0e0"/>
    <path id="Path_3373" data-name="Path 3373" d="M1252.321,1519.708H1151.368a4.939,4.939,0,0,1,0-9.878h100.953a4.939,4.939,0,0,1,0,9.878Z" transform="translate(-848.962 -1085.476)" fill="#263238"/>
    <path id="Path_3374" data-name="Path 3374" d="M1145.4,1547.9l-16.617,96.568h4.543l21.853-96.568Z" transform="translate(-835.892 -1113.667)" fill="#263238"/>
    <path id="Path_3375" data-name="Path 3375" d="M1293.378,1547.9l-17.668,96.568h4.556l22.888-96.568Z" transform="translate(-944.698 -1113.667)" fill="#263238"/>
    <path id="Path_3376" data-name="Path 3376" d="M1482.847,1547.9l19.7,96.568H1498L1473.07,1547.9Z" transform="translate(-1090.848 -1113.667)" fill="#263238"/>
    <path id="Path_3377" data-name="Path 3377" d="M2099.365,389.276c-14.494-1.716-22.221,7.247-25.431,14.161s-4,14.691-4.382,22.321-.532,15.334-2.543,22.691c-1.051,3.827-2.605,7.543-3.1,11.482s.285,8.321,3.223,11" transform="translate(-1528.278 -255.517)" fill="#263238"/>
    <path id="Path_3378" data-name="Path 3378" d="M2217.159,419.148c3.827,7.79,1.012,17.284,3.012,25.679a85.674,85.674,0,0,0,3.7,10.1c2.47,6.753,3.521,13.963,4.507,21.111.493,3.593.952,7.408-.729,10.655a10.985,10.985,0,0,1-9.875,5.358,14.135,14.135,0,0,1-12.481-8.21c-1.629-3.7-1.606-7.815-1.544-11.815.246-17.346.506-34.766,3.555-51.852" transform="translate(-1631.922 -277.796)" fill="#263238"/>
    <path id="Path_3379" data-name="Path 3379" d="M2346.1,560.2l-9.024-3.482a2.187,2.187,0,0,0-2.95,1.765c-.26,2.161-1.666,7.988-3.173,5.938l-.112-.124c-2.11-3.037-4.751-4.679-5.825-4.629a1.408,1.408,0,0,0-.348,2.543,2.271,2.271,0,0,1,.223.161,18.05,18.05,0,0,1,2.47,2.864,9.98,9.98,0,0,1,1.591,3.086c.371,1.234.656,2.3.854,3.2l-.545,6.013-11.111,30.136L2298.677,587.4s-10.42,23.013-10.654,23.778c-.174.518,9.751,10.852,16.282,17.568a18.433,18.433,0,0,0,31.15-8.642l8.456-42.457h-.22l.887-3.086,2.839-11.778a2.195,2.195,0,0,0-1.321-2.58Z" transform="translate(-1694.341 -379.563)" fill="#ffbe9d"/>
    <path id="Path_3380" data-name="Path 3380" d="M2306.689,1615.413l.21-11.321-21.186-.532-.493,16.557,1.308.112c5.841.47,29.73,2,33.679.913C2324.59,1619.92,2306.689,1615.413,2306.689,1615.413Z" transform="translate(-1692.267 -1154.885)" fill="#fff"/>
    <g id="Group_8356" data-name="Group 8356" transform="translate(592.953 459.038)" opacity="0.5">
      <path id="Path_3381" data-name="Path 3381" d="M2292.911,1649.769a7.392,7.392,0,0,0-2.592-4.593,7.164,7.164,0,0,0-4.938-1.668l-.161,5.926Z" transform="translate(-2285.22 -1643.5)" fill="#fff"/>
    </g>
    <g id="Group_8357" data-name="Group 8357" transform="translate(592.953 463.047)" opacity="0.4">
      <path id="Path_3382" data-name="Path 3382" d="M2315.43,1658.95s6.271,1.975,5.457,3-25.013.395-35.667-.815v-.483l28.223.976S2314.2,1658.973,2315.43,1658.95Z" transform="translate(-2285.22 -1658.95)" fill="#fff"/>
    </g>
    <path id="Path_3383" data-name="Path 3383" d="M2284.12,1665.42a1.038,1.038,0,0,0,.358,0l1.051.1,3.851.26c3.249.21,7.743.42,12.7.555s9.471.161,12.73.125h0c-3.259,0-7.753-.075-12.717-.21s-9.458-.322-12.717-.47l-3.851-.184h-1.051Z" transform="translate(-1691.453 -1200.694)" fill="#263238"/>
    <path id="Path_3384" data-name="Path 3384" d="M2394.038,1661.259a9.622,9.622,0,0,1,.778-1.827,8.011,8.011,0,0,1,1.347-1.432,2.807,2.807,0,0,0-1.57,1.235A2.908,2.908,0,0,0,2394.038,1661.259Z" transform="translate(-1772.839 -1195.199)" fill="#263238"/>
    <path id="Path_3385" data-name="Path 3385" d="M2370.309,1652.734a4.737,4.737,0,0,0,.68-.8c.319-.483.542-.9.48-.939s-.369.322-.69.8S2370.247,1652.685,2370.309,1652.734Z" transform="translate(-1755.269 -1190.008)" fill="#263238"/>
    <path id="Path_3386" data-name="Path 3386" d="M2363.761,1650.712a3.576,3.576,0,0,0,.765-.483c.371-.309.644-.63.594-.68s-.384.161-.752.483S2363.724,1650.65,2363.761,1650.712Z" transform="translate(-1750.426 -1188.936)" fill="#263238"/>
    <path id="Path_3387" data-name="Path 3387" d="M2359.82,1645.867a2.459,2.459,0,0,0,1.1.171,2.369,2.369,0,0,0,1.11-.086,2.483,2.483,0,0,0-1.1-.174A2.417,2.417,0,0,0,2359.82,1645.867Z" transform="translate(-1747.51 -1186.128)" fill="#263238"/>
    <path id="Path_3388" data-name="Path 3388" d="M2358.54,1640.72a3.055,3.055,0,0,0,1.207.389,3.02,3.02,0,0,0,1.264-.13,6.815,6.815,0,0,0-1.235-.122A7.063,7.063,0,0,0,2358.54,1640.72Z" transform="translate(-1746.563 -1182.403)" fill="#263238"/>
    <path id="Path_3389" data-name="Path 3389" d="M2373.29,1645.273a3.618,3.618,0,0,0,1.357,0,9.571,9.571,0,0,0,1.458-.283,4.2,4.2,0,0,0,.838-.322.739.739,0,0,0,.215-.174.724.724,0,0,0,.132-.246.553.553,0,0,0-.013-.3.529.529,0,0,0-.174-.244,2.473,2.473,0,0,0-3.064.555,2.5,2.5,0,0,0-.517.989.884.884,0,0,0,0,.368,4.013,4.013,0,0,1,.656-1.147,2.472,2.472,0,0,1,1.233-.729,2.128,2.128,0,0,1,1.619.161c.21.161.122.407-.125.542a3.268,3.268,0,0,1-.766.309,8.812,8.812,0,0,1-1.419.335C2373.809,1645.249,2373.29,1645.236,2373.29,1645.273Z" transform="translate(-1757.485 -1184.387)" fill="#263238"/>
    <path id="Path_3390" data-name="Path 3390" d="M2369.711,1643.308a1.325,1.325,0,0,0,.187-.95,2.217,2.217,0,0,0-.348-1,1.4,1.4,0,0,0-.467-.509,1.413,1.413,0,0,0-.656-.22.543.543,0,0,0-.335.223.561.561,0,0,0-.1.394,1.461,1.461,0,0,0,.22.618,3.645,3.645,0,0,0,.618.838,2.074,2.074,0,0,0,.765.581,8.288,8.288,0,0,1-.628-.7,4.2,4.2,0,0,1-.555-.828c-.174-.3-.285-.815,0-.864s.69.322.888.6a2.026,2.026,0,0,1,.358.89A4.573,4.573,0,0,1,2369.711,1643.308Z" transform="translate(-1753.562 -1182.337)" fill="#263238"/>
    <path id="Path_3391" data-name="Path 3391" d="M2286.36,1642.811s.6,0,1.567.086a6.69,6.69,0,0,1,5.434,4.582,15.206,15.206,0,0,1,.358,1.518v-.433a5.225,5.225,0,0,0-.2-1.147,6.44,6.44,0,0,0-5.594-4.691,5.1,5.1,0,0,0-1.16,0C2286.508,1642.749,2286.36,1642.788,2286.36,1642.811Z" transform="translate(-1693.111 -1183.864)" fill="#263238"/>
    <path id="Path_3392" data-name="Path 3392" d="M2294.661,1609.37a41.329,41.329,0,0,0-.3,4.346,38.139,38.139,0,0,0,0,4.357,72.719,72.719,0,0,0,.335-8.7Z" transform="translate(-1698.991 -1159.188)" fill="#263238"/>
    <path id="Path_3393" data-name="Path 3393" d="M2325.33,1659.694a17.752,17.752,0,0,0,6.173.221c0-.073-1.4,0-3.1-.086A30.272,30.272,0,0,0,2325.33,1659.694Z" transform="translate(-1721.97 -1196.437)" fill="#263238"/>
    <path id="Path_3394" data-name="Path 3394" d="M2309.34,1659.309s.1.3.236.618.2.6.27.6.125-.335,0-.7S2309.426,1659.259,2309.34,1659.309Z" transform="translate(-1710.129 -1196.163)" fill="#263238"/>
    <path id="Path_3395" data-name="Path 3395" d="M2303.49,1651.641a1.211,1.211,0,0,0,.3.493c.223.223.42.384.483.335s-.088-.272-.3-.506S2303.539,1651.592,2303.49,1651.641Z" transform="translate(-1705.796 -1190.483)" fill="#263238"/>
    <path id="Path_3396" data-name="Path 3396" d="M2294.929,1647.687c0,.075.3.075.6.2s.529.283.592.234-.111-.345-.506-.483S2294.916,1647.627,2294.929,1647.687Z" transform="translate(-1699.456 -1187.481)" fill="#263238"/>
    <path id="Path_3397" data-name="Path 3397" d="M2288.83,1646.1c0,.062.1.174.272.249s.335.073.358,0-.085-.187-.259-.249S2288.856,1646.025,2288.83,1646.1Z" transform="translate(-1694.94 -1186.349)" fill="#263238"/>
    <path id="Path_3398" data-name="Path 3398" d="M2531.937,1352.057,2527,1341.87l-19.146,9.113,7.05,14.987,1.233-.493c5.42-2.224,27.421-11.668,30.447-14.421C2549.95,1347.983,2531.937,1352.057,2531.937,1352.057Z" transform="translate(-1857.131 -961.097)" fill="#fff"/>
    <g id="Group_8358" data-name="Group 8358" transform="translate(655.125 398.305)" opacity="0.5">
      <path id="Path_3399" data-name="Path 3399" d="M2534.363,1412.549a7.411,7.411,0,0,0-4.4-2.927,7.15,7.15,0,0,0-5.137.742l2.543,5.358Z" transform="translate(-2524.83 -1409.437)" fill="#fff"/>
    </g>
    <g id="Group_8359" data-name="Group 8359" transform="translate(657.559 388.835)" opacity="0.4">
      <path id="Path_3400" data-name="Path 3400" d="M2560.383,1373.359s6.492-1.074,6.173.21-22.125,11.666-32.175,15.408l-.171-.444,25.69-11.9S2559.3,1373.94,2560.383,1373.359Z" transform="translate(-2534.21 -1372.938)" fill="#fff"/>
    </g>
    <path id="Path_3401" data-name="Path 3401" d="M2533.3,1389.551l.348-.125.973-.394,3.558-1.505c2.986-1.235,7.1-3.124,11.58-5.26s8.519-4.149,11.406-5.644l3.42-1.8.913-.506a1.788,1.788,0,0,0,.309-.187l-.332.148-.939.457-3.443,1.731c-2.914,1.456-6.951,3.443-11.432,5.566s-8.643,4-11.557,5.335l-3.568,1.58-.95.431A1.52,1.52,0,0,0,2533.3,1389.551Z" transform="translate(-1875.977 -984.986)" fill="#263238"/>
    <path id="Path_3402" data-name="Path 3402" d="M2632.417,1377.284a8.863,8.863,0,0,1-.135-1.962,8.378,8.378,0,0,1,.555-1.9,3.409,3.409,0,0,0-.42,3.864Z" transform="translate(-1949.069 -984.46)" fill="#263238"/>
    <path id="Path_3403" data-name="Path 3403" d="M2606.419,1381.676a4.211,4.211,0,0,0,.26-2.076,2.288,2.288,0,0,0-.26,1.025A2.475,2.475,0,0,0,2606.419,1381.676Z" transform="translate(-1930.082 -989.037)" fill="#263238"/>
    <path id="Path_3404" data-name="Path 3404" d="M2599.053,1382.619a3.2,3.2,0,0,0,.457-.778c.184-.457.3-.838.233-.864s-.272.322-.47.766S2598.991,1382.6,2599.053,1382.619Z" transform="translate(-1924.654 -990.055)" fill="#263238"/>
    <path id="Path_3405" data-name="Path 3405" d="M2592.02,1379.534a2.465,2.465,0,0,0,1.061-.345c.555-.26.986-.519.95-.579a2.442,2.442,0,0,0-1.061.345A2.612,2.612,0,0,0,2592.02,1379.534Z" transform="translate(-1919.461 -988.304)" fill="#263238"/>
    <path id="Path_3406" data-name="Path 3406" d="M2588.4,1375.233a2.253,2.253,0,0,0,1.235-.208,2.145,2.145,0,0,0,1.074-.706,7.251,7.251,0,0,0-1.235.47A6.691,6.691,0,0,0,2588.4,1375.233Z" transform="translate(-1916.78 -985.127)" fill="#263238"/>
    <path id="Path_3407" data-name="Path 3407" d="M2606.048,1371.14a4.026,4.026,0,0,0,1.235-.594,7.715,7.715,0,0,0,1.235-.913,4.085,4.085,0,0,0,.6-.667.721.721,0,0,0,.125-.519.576.576,0,0,0-.151-.265.547.547,0,0,0-.27-.143,2.47,2.47,0,0,0-2.47,1.988,2.558,2.558,0,0,0,0,1.012.826.826,0,0,0,.125.348,4.7,4.7,0,0,1,.062-1.321,2.445,2.445,0,0,1,.727-1.173,2.186,2.186,0,0,1,1.521-.607c.257,0,.3.322.135.558a3.8,3.8,0,0,1-.542.615,9.355,9.355,0,0,1-1.113.939C2606.494,1370.88,2606.024,1371.1,2606.048,1371.14Z" transform="translate(-1929.848 -980.475)" fill="#263238"/>
    <path id="Path_3408" data-name="Path 3408" d="M2600.065,1374.2a1.383,1.383,0,0,0-.27-.926,2.206,2.206,0,0,0-.752-.74,1.411,1.411,0,0,0-1.334-.135.52.52,0,0,0-.2.348.529.529,0,0,0,.1.392,1.51,1.51,0,0,0,.467.457,4.144,4.144,0,0,0,.927.47,1.821,1.821,0,0,0,.952.161,6.562,6.562,0,0,1-.877-.335,4.246,4.246,0,0,1-.864-.493c-.3-.174-.63-.592-.358-.791a1.252,1.252,0,0,1,.545-.052,1.232,1.232,0,0,1,.516.189,2.23,2.23,0,0,1,.729.628A5.88,5.88,0,0,1,2600.065,1374.2Z" transform="translate(-1923.521 -983.625)" fill="#263238"/>
    <path id="Path_3409" data-name="Path 3409" d="M2525.12,1409.222a8.713,8.713,0,0,1,1.445-.615,6.737,6.737,0,0,1,3.7-.2,6.863,6.863,0,0,1,3.223,1.8,12.074,12.074,0,0,1,1.012,1.235,1.628,1.628,0,0,0-.184-.384,5.9,5.9,0,0,0-.706-.937,6.457,6.457,0,0,0-7.1-1.656,4.857,4.857,0,0,0-1.048.532A1.594,1.594,0,0,0,2525.12,1409.222Z" transform="translate(-1869.92 -1010.09)" fill="#263238"/>
    <path id="Path_3410" data-name="Path 3410" d="M2518.17,1378.27a39.57,39.57,0,0,0,1.7,4.014,37.57,37.57,0,0,0,1.938,3.9,37.335,37.335,0,0,0-1.7-4.011A34.093,34.093,0,0,0,2518.17,1378.27Z" transform="translate(-1864.773 -988.052)" fill="#263238"/>
    <path id="Path_3411" data-name="Path 3411" d="M2567.419,1402.374a11.831,11.831,0,0,0,2.924-1.051,12.438,12.438,0,0,0,2.693-1.554c0-.062-1.235.6-2.8,1.321S2567.393,1402.3,2567.419,1402.374Z" transform="translate(-1901.243 -1003.969)" fill="#263238"/>
    <path id="Path_3412" data-name="Path 3412" d="M2552.95,1416.6c0,.073.223.223.5.444s.444.446.516.407,0-.345-.358-.6S2552.963,1416.539,2552.95,1416.6Z" transform="translate(-1890.528 -1016.419)" fill="#263238"/>
    <path id="Path_3413" data-name="Path 3413" d="M2544.25,1412.381c0,.062.2.21.493.309s.542.148.568.075-.187-.21-.483-.309S2544.273,1412.308,2544.25,1412.381Z" transform="translate(-1884.086 -1013.286)" fill="#263238"/>
    <path id="Path_3414" data-name="Path 3414" d="M2534.958,1412.2a4.856,4.856,0,0,1,.628-.1,4.975,4.975,0,0,1,.631,0,.76.76,0,0,0-.654-.21C2535.155,1411.942,2534.919,1412.152,2534.958,1412.2Z" transform="translate(-1877.202 -1012.945)" fill="#263238"/>
    <path id="Path_3415" data-name="Path 3415" d="M2528.54,1413.811c0,.075.161.125.348.112s.345-.086.332-.161-.161-.112-.345-.1S2528.54,1413.751,2528.54,1413.811Z" transform="translate(-1872.452 -1014.26)" fill="#263238"/>
    <path id="Path_3416" data-name="Path 3416" d="M1996.93,665.566l4.382-21.173c3.544-19.9,32.273-21.889,32.273-21.889l21.889-.4s16.209-2.2,26.232,9.074c10.384,11.667,15.828,17.494,15.828,17.494L2082.424,672.8,2072.1,662.133a23.564,23.564,0,0,1,3.111,11.05c0,6.469-6.754,9.469-6.754,9.469L2066.77,699.1l8.4,16.049-68.693,15.234c1.37-11.543.519-20.37,5.963-28.975l5.335-32.173Z" transform="translate(-1478.781 -427.966)" fill="#192838"/>
    <path id="Path_3417" data-name="Path 3417" d="M2030.553,969.36s97.16-28.335,105.927-24.2,45.135,105.816,45.135,105.816l-27.878,13.581-35.47-86.693s-69.012,26.876-80.086,24.593S2030.553,969.36,2030.553,969.36Z" transform="translate(-1503.304 -667.017)" fill="#ffa000"/>
    <path id="Path_3418" data-name="Path 3418" d="M2093.223,1028.6c1.383.457,54.656,17.891,58.348,24.793s-3.371,129.913-3.371,129.913l-32.569,3.459,2-120.658-58.322-1.469Z" transform="translate(-1524.975 -729.112)" fill="#ffa000"/>
    <path id="Path_3419" data-name="Path 3419" d="M2058.07,1096.984a3.615,3.615,0,0,0,.851-.111l2.47-.431c2.112-.394,5.161-1,8.913-1.8,7.52-1.593,17.865-4,29.123-7.247,5.644-1.642,10.965-3.345,15.766-5s9.076-3.308,12.605-4.826c1.78-.716,3.371-1.432,4.753-2.076s2.582-1.233,3.544-1.666l2.208-1.11a3.539,3.539,0,0,0,.742-.433,4.163,4.163,0,0,0-.8.309l-2.26,1c-.976.444-2.172.976-3.581,1.554s-3,1.235-4.79,1.975c-3.544,1.458-7.839,3-12.629,4.681s-10.125,3.3-15.742,4.938c-11.248,3.236-21.554,5.716-29.038,7.408l-8.864,2.011-2.408.555A3.392,3.392,0,0,0,2058.07,1096.984Z" transform="translate(-1524.056 -761.458)" fill="#dfad0c"/>
    <path id="Path_3420" data-name="Path 3420" d="M2375.277,1128.016a10.388,10.388,0,0,0,.27-1.718c.125-1.233.285-2.826.482-4.7s.407-4.4.641-6.988a31.512,31.512,0,0,0,0-8.643,13.406,13.406,0,0,0-4.356-7.47,22.509,22.509,0,0,0-5.965-3.814c-1.425-.651-2.885-1.232-4.369-1.741a8.391,8.391,0,0,0-1.679-.48c0,.122,2.309.937,5.89,2.654a23.791,23.791,0,0,1,5.752,3.838,13.09,13.09,0,0,1,4.11,7.138,32.354,32.354,0,0,1,0,8.469c-.171,2.592-.345,4.938-.493,7s-.2,3.469-.272,4.717A7.8,7.8,0,0,0,2375.277,1128.016Z" transform="translate(-1747.866 -776.402)" fill="#dfad0c"/>
    <path id="Path_3421" data-name="Path 3421" d="M2431.62,334.306s8.161-1.556,19.891-12.21,17.517-25.1,18.913-24.988,7.579-2.543,18.519,23.037,6.173,31.309,3.84,31.2-17.865-4.939-27.694-4.087-22.566,5.581-22.566,5.581Z" transform="translate(-1800.68 -187.399)" fill="#455a64"/>
    <path id="Path_3422" data-name="Path 3422" d="M2361.619,440.384l2.618,5.333,1.173,2.395a6.863,6.863,0,0,0,8.864,3.3l17.569-5.568-9.471-23.457-17.641,8.766a6.878,6.878,0,0,0-3.111,9.235Z" transform="translate(-1748.308 -280.192)" fill="#263238"/>
    <path id="Path_3423" data-name="Path 3423" d="M2401.41,515.293l5.234,11.025,2.792-.691,17.678,15.235,5.345-9.753s-10.566-4.938-12.431-8.79.433-4.667.433-4.667l-4.865-5.864Z" transform="translate(-1778.309 -346.398)" fill="#263238"/>
    <path id="Path_3424" data-name="Path 3424" d="M2598.9,322.431c5.792,13.852,8.012,26.111,4.94,27.383s-10.21-8.926-16.051-22.778-8.012-26.112-4.938-27.383S2593.113,308.555,2598.9,322.431Z" transform="translate(-1911.64 -189.228)" fill="#263238"/>
    <path id="Path_3425" data-name="Path 3425" d="M2352.534,500.967l4.753-1.346-2.766-5.63-3.591,2.1Z" transform="translate(-1740.927 -333.22)" fill="#455a64"/>
    <path id="Path_3426" data-name="Path 3426" d="M2421.416,519.543l-12.9,7.716-1.495-3.136Z" transform="translate(-1782.463 -352.141)" fill="#455a64"/>
    <path id="Path_3427" data-name="Path 3427" d="M2363.541,493.992l2.766,5.63-.976.284-2.221-5.667Z" transform="translate(-1749.947 -333.22)" fill="#455a64"/>
    <g id="Group_8360" data-name="Group 8360" transform="translate(642.829 162.821)" opacity="0.2">
      <path id="Path_3428" data-name="Path 3428" d="M2477.44,502.977l3.223-1.086Z" transform="translate(-2477.44 -501.891)"/>
    </g>
    <path id="Path_3429" data-name="Path 3429" d="M2377.14,486.871a51.405,51.405,0,0,0,10.4-4.346,26.426,26.426,0,0,0-5.309,1.9A27.022,27.022,0,0,0,2377.14,486.871Z" transform="translate(-1760.336 -324.728)" fill="#455a64"/>
    <path id="Path_3430" data-name="Path 3430" d="M2371.96,474.012a21.512,21.512,0,0,0,4.8-1.864,22.826,22.826,0,0,0,4.567-2.469,43.432,43.432,0,0,0-9.37,4.284Z" transform="translate(-1756.5 -315.216)" fill="#455a64"/>
    <path id="Path_3431" data-name="Path 3431" d="M2383.848,501.736c0,.087.581,0,1.482-.284l1.58-.469c.581-.2,1.235-.482,1.853-.753a20.378,20.378,0,0,0,4.556-2.383,23.834,23.834,0,0,0-4.79,1.827c-.656.271-1.235.568-1.829.79l-1.505.58A3.811,3.811,0,0,0,2383.848,501.736Z" transform="translate(-1765.303 -336.075)" fill="#455a64"/>
    <path id="Path_3432" data-name="Path 3432" d="M2600.49,372s7.172-4.173,10.766,5.457-3.877,11-3.877,11A63.4,63.4,0,0,1,2600.49,372Z" transform="translate(-1925.733 -242.215)" fill="#455a64"/>
    <path id="Path_3433" data-name="Path 3433" d="M2572.79,329.983a11.107,11.107,0,0,0,.223,1.827c.2,1.161.457,2.864.851,4.938l.89,3.371c.148.6.322,1.235.493,1.864l.26.988c.1.321.223.642.334.975.467,1.333.963,2.716,1.482,4.16l.381,1.086c.125.371.309.716.47,1.086l.989,2.185c.332.741.664,1.469.986,2.2.174.346.309.716.506,1.062l.555,1.012,2.138,3.852c.171.309.332.617.516.914l.568.839,1.074,1.617,1.938,2.889c1.31,1.667,2.395,2.988,3.147,3.9a11.912,11.912,0,0,0,1.235,1.383,9.7,9.7,0,0,0-1.035-1.519l-2.989-4.037c-.579-.889-1.235-1.864-1.863-2.9-.348-.518-.693-1.062-1.051-1.617l-.542-.839c-.184-.3-.335-.605-.506-.9l-2.086-3.852-.555-1.012c-.187-.333-.322-.7-.5-1.062-.319-.716-.654-1.444-.976-2.173l-.986-2.173c-.161-.358-.334-.7-.469-1.074l-.384-1.074c-.529-1.432-1.022-2.8-1.5-4.123-.112-.321-.247-.642-.345-.975s-.187-.642-.272-.963c-.189-.642-.361-1.259-.519-1.852-.345-1.235-.654-2.309-.95-3.333-.433-2.037-.779-3.7-1.038-4.938A8.869,8.869,0,0,0,2572.79,329.983Z" transform="translate(-1905.22 -211.767)" fill="#263238"/>
    <path id="Path_3434" data-name="Path 3434" d="M2477.457,559.511a11.853,11.853,0,0,0,.2,4.852c.135.543.482,1.235,1.038,1.123a1.067,1.067,0,0,0,.4-.21,1.032,1.032,0,0,0,.278-.358,5.794,5.794,0,0,0,.939-2.827,9.585,9.585,0,0,0,.272,4.346c.21.654.6,1.37,1.232,1.432s1.235-.778,1.373-1.519a9.63,9.63,0,0,1,.234-2.247,20.736,20.736,0,0,0-.062,4.358,3.345,3.345,0,0,0,.309,1.3,1.232,1.232,0,0,0,1.038.753,1.322,1.322,0,0,0,.677-.21,1.306,1.306,0,0,0,.47-.53,3.526,3.526,0,0,0,.371-1.383c.2-1.605.322-3.21.358-4.827" transform="translate(-1834.504 -381.739)" fill="#ffbe9d"/>
    <path id="Path_3435" data-name="Path 3435" d="M2260.068,484.378c0-.247.828-.395,2.05-1.025a9.47,9.47,0,0,0,3.939-4.013,10.519,10.519,0,0,0,1.235-3.7,12.8,12.8,0,0,0-.272-4.432,28.573,28.573,0,0,0-4.753-9.617,75.552,75.552,0,0,1-6.295-9.753,23.325,23.325,0,0,1-2.4-9.469,19.622,19.622,0,0,1,.8-6.481c.457-1.469.926-2.185,1.124-2.136s.171.9.1,2.358a30.955,30.955,0,0,0,.246,6.062,24.594,24.594,0,0,0,2.753,8.321,111.316,111.316,0,0,0,6.308,9.272,28.389,28.389,0,0,1,5.013,10.864,14.581,14.581,0,0,1,0,5.469,12.171,12.171,0,0,1-1.876,4.407,9.4,9.4,0,0,1-5.457,3.988C2260.932,484.872,2260.068,484.564,2260.068,484.378Z" transform="translate(-1668.82 -288.606)" fill="#263238"/>
    <path id="Path_3436" data-name="Path 3436" d="M2154.211,454.431c.135-4.58.332-8.815.332-8.815s9.222-1.235,9.619-10.605-.594-31.136-.594-31.136l-17.011-8.136-14.816,16.938-.161,41.358a11.318,11.318,0,0,0,22.631.4Z" transform="translate(-1578.492 -260.461)" fill="#ffbe9d"/>
    <path id="Path_3437" data-name="Path 3437" d="M2240.012,485.236a1.236,1.236,0,0,1-1.477,1.211,1.226,1.226,0,0,1-.63-.338,1.235,1.235,0,1,1,2.107-.873Z" transform="translate(-1656.961 -325.822)" fill="#263238"/>
    <path id="Path_3438" data-name="Path 3438" d="M2239.869,478.832c-.148.161-1.025-.58-2.3-.629s-2.2.592-2.335.42.088-.358.5-.654a3,3,0,0,1,3.7.16C2239.82,478.512,2239.942,478.832,2239.869,478.832Z" transform="translate(-1655.224 -320.937)" fill="#263238"/>
    <path id="Path_3439" data-name="Path 3439" d="M2187.9,484.135a1.236,1.236,0,0,1-1.736,1.485,1.277,1.277,0,0,1-.439-.376,1.218,1.218,0,0,1-.218-.534,3.575,3.575,0,0,0,0-1.151,1.218,1.218,0,0,1,.218-.534,1.277,1.277,0,0,1,.439-.376,1.236,1.236,0,0,1,1.123,0,1.23,1.23,0,0,1,.439.376,1.252,1.252,0,0,1,.22.534A1.239,1.239,0,0,1,2187.9,484.135Z" transform="translate(-1618.414 -324.721)" fill="#263238"/>
    <path id="Path_3440" data-name="Path 3440" d="M2185.83,480.069c-.148.161-1.035-.58-2.3-.629s-2.208.6-2.346.432.088-.37.506-.667a2.994,2.994,0,0,1,1.865-.543,3.036,3.036,0,0,1,1.827.7C2185.77,479.76,2185.905,480.007,2185.83,480.069Z" transform="translate(-1615.199 -321.865)" fill="#263238"/>
    <path id="Path_3441" data-name="Path 3441" d="M2216.36,493.74a8.647,8.647,0,0,1,2.063-.321c.319,0,.628-.074.69-.309a1.986,1.986,0,0,0-.2-1.037l-.926-2.667a50.169,50.169,0,0,1-2.05-6.975,46.267,46.267,0,0,1,2.569,6.79l.877,2.691a2.1,2.1,0,0,1,.148,1.358.833.833,0,0,1-.545.494,2.152,2.152,0,0,1-.542,0A7.987,7.987,0,0,1,2216.36,493.74Z" transform="translate(-1640.963 -324.659)" fill="#263238"/>
    <path id="Path_3442" data-name="Path 3442" d="M2185.127,576.583a22.534,22.534,0,0,1-12.247-3.988s2.891,6.864,12.086,6.3Z" transform="translate(-1609.076 -391.428)" fill="#eb996e"/>
    <path id="Path_3443" data-name="Path 3443" d="M2204.829,533.152a2.477,2.477,0,0,0-1.471-1.8,1.925,1.925,0,0,0-1.629,0,1.371,1.371,0,0,0-.752,1.383,1.6,1.6,0,0,0,1.31,1.235,4.392,4.392,0,0,0,1.876-.124,1.226,1.226,0,0,0,.48-.185.436.436,0,0,0,.21-.444" transform="translate(-1629.875 -360.751)" fill="#eb996e"/>
    <path id="Path_3444" data-name="Path 3444" d="M2203.156,525.729c-.086,0-.233.346-.184.95a3.331,3.331,0,0,0,3.223,3.037c.617,0,.962-.161.95-.247a5.366,5.366,0,0,1-2.655-1.173C2203.317,527.2,2203.354,525.729,2203.156,525.729Z" transform="translate(-1631.353 -356.722)" fill="#263238"/>
    <path id="Path_3445" data-name="Path 3445" d="M2149.839,398.387a11.323,11.323,0,0,1-11.186,9.877l2.556-5.642c-2.271,2.654-4.629,5.37-7.74,6.951s-7.2,1.765-9.878-.494c-.851,2.309-.838,4.864-1.629,7.2s-2.628,11.951-5.073,11.593c-2.234-.333-3.84-10.037-4.408-12.222a19.982,19.982,0,0,1,4.4-17.494,23.954,23.954,0,0,1,19.754-8.358A16.62,16.62,0,0,1,2145.8,393a12.8,12.8,0,0,1,4.52,7.2" transform="translate(-1563.985 -256.023)" fill="#263238"/>
    <path id="Path_3446" data-name="Path 3446" d="M2249.8,436.555a7.78,7.78,0,0,1-2.631-4.222,22.649,22.649,0,0,1-.628-5.012c0-.482,0-1.111.516-1.235s.841.346,1.064.765a16.3,16.3,0,0,1,1.692,10.21l-.309-.284" transform="translate(-1663.623 -282.919)" fill="#263238"/>
    <path id="Path_3447" data-name="Path 3447" d="M2100.311,435.3c-5.395,20.309-7.135,41.63-4.382,59.618.283,1.852-.247,3.8.345,5.593a4.939,4.939,0,0,0,3.962,3.581c1.754.148,3.705-.926,5.187,0,1.16.7,1.443,2.235,2.307,3.271a4.362,4.362,0,0,0,4.556,1.1,7.7,7.7,0,0,0,3.814-3.025c3.36-4.679,3.209-11.111,1.606-16.63s-4.445-10.654-6.173-16.16c-3.2-10.284-2.273-21.334-1.308-32.1q.416-4.7.838-9.407" transform="translate(-1551.136 -286.676)" fill="#263238"/>
    <path id="Path_3448" data-name="Path 3448" d="M2080.558,729.089c4.406-4.482,4.011-4.938,3.42-5.333-1.619-1.235-8.039,7.593-7.73,4.877s9.074-9.79,7.408-10.951c-2.26-1.519-8.814,7.8-9.432,8.543s-1.692-.136-1.1-.778c.841-.926,9.494-10.864,7.286-12.346-1.235-.839-2.47,1.543-2.47,1.543s-7.408,9.877-8.443,9.16,3.134-6.728,4.678-8.642,1.235-3.395-.112-3.395c-.939,0-5.8,5.728-7.283,7.654s-5.457,7.284-5.6,3v-.2c0-4.222-1.445-7.469-2.47-8.136a1.472,1.472,0,0,0-2.112,1.568,1.794,1.794,0,0,0,.137.605,2.333,2.333,0,0,1,.112.3,21.177,21.177,0,0,1,.506,4.333,11.269,11.269,0,0,1-.519,3.84c-.444,1.42-.89,2.617-1.235,3.617l-.641.778-35.914,20.309V732.348s-19.829-.864-20.558-.3c-.493.383-1.84,16.63,0,27.161a21.05,21.05,0,0,0,34.915,12.049l29.829-27.161.109.086,4.248-3.494.828-1.309.989-.9A134.066,134.066,0,0,0,2080.558,729.089Z" transform="translate(-1479.234 -494.489)" fill="#ffbe9d"/>
    <path id="Path_3449" data-name="Path 3449" d="M906.533,774.373s16.309,35.729,17.358,37.111,21.482,14.433,21.482,14.433l19.826-1.124L942.508,801l-19.061-37.754Z" transform="translate(-671.312 -532.612)" fill="#ffbe9d"/>
    <path id="Path_3450" data-name="Path 3450" d="M693.167,395.856a1.987,1.987,0,0,1-.494,2.1,2.024,2.024,0,0,1-2.148.37c-1.321-.58-1.593-2.37-1.407-3.8s.58-3-.1-4.3a9.579,9.579,0,0,0-2.358-2.321,6.272,6.272,0,0,1-2.025-5.222,5.284,5.284,0,0,1,3.4-4.346c1.877-.629,4.247-.173,5.593-1.629.975-1.049.938-2.691,1.679-3.926,1.123-1.926,3.7-2.358,5.938-2.173s4.494.765,6.63.111c1.778-.543,3.185-1.889,4.827-2.753a9.741,9.741,0,0,1,13.407,12.667,6.172,6.172,0,0,1-2.864,3.161" transform="translate(-506.971 -239.06)" fill="#263238"/>
    <path id="Path_3451" data-name="Path 3451" d="M716.783,467.612l20.988-1.679c.136-2.469,0-11.926,0-11.926s8.716-1.358,8.827-10.074-1.407-28.766-1.407-28.766a30.322,30.322,0,0,0-30.457,3.827l-1.235,1Z" transform="translate(-528.365 -273.025)" fill="#ffbe9d"/>
    <path id="Path_3452" data-name="Path 3452" d="M822.99,473.174a1.235,1.235,0,1,1,.422.265A1.232,1.232,0,0,1,822.99,473.174Z" transform="translate(-609.165 -316.229)" fill="#263238"/>
    <path id="Path_3453" data-name="Path 3453" d="M823.156,468.77c-.136.161-.988-.506-2.2-.506s-2.074.617-2.2.457,0-.346.444-.63a2.914,2.914,0,0,1,1.765-.556,2.951,2.951,0,0,1,1.753.593C823.094,468.437,823.218,468.708,823.156,468.77Z" transform="translate(-606.281 -313.628)" fill="#263238"/>
    <path id="Path_3454" data-name="Path 3454" d="M774.039,475.826a1.269,1.269,0,0,1-1.333,2.161,1.27,1.27,0,0,1,1.333-2.161Z" transform="translate(-571.782 -319.635)" fill="#263238"/>
    <path id="Path_3455" data-name="Path 3455" d="M772.839,472.861c-.136.148-1-.506-2.2-.506s-2.074.605-2.21.457.074-.346.457-.63a2.841,2.841,0,0,1,1.765-.556,2.876,2.876,0,0,1,1.753.593C772.777,472.515,772.9,472.8,772.839,472.861Z" transform="translate(-569.013 -316.657)" fill="#263238"/>
    <path id="Path_3456" data-name="Path 3456" d="M802.084,484.715a5.694,5.694,0,0,1,1.951-.407c.308,0,.556-.111.58-.272a1.74,1.74,0,0,0-.222-.9c-.308-.8-.629-1.6-.95-2.469a33.463,33.463,0,0,1-2.062-6.42,34.059,34.059,0,0,1,2.691,6.173c.321.852.617,1.667.9,2.469a1.927,1.927,0,0,1,.173,1.3.815.815,0,0,1-.543.506,2.274,2.274,0,0,1-.531.074A5.844,5.844,0,0,1,802.084,484.715Z" transform="translate(-593.443 -318.598)" fill="#263238"/>
    <path id="Path_3457" data-name="Path 3457" d="M788.859,519.732a22.737,22.737,0,0,0,5.889,1.7,3.309,3.309,0,0,1-3.914,1.321C788.217,521.806,788.859,519.732,788.859,519.732Z" transform="translate(-584.12 -352.281)" fill="#fff"/>
    <path id="Path_3458" data-name="Path 3458" d="M774.4,562.173a20.3,20.3,0,0,1-11.371-3.235s2.679,6.284,11.383,5.494Z" transform="translate(-565.044 -381.314)" fill="#eb996e"/>
    <path id="Path_3459" data-name="Path 3459" d="M739.372,411.153s-5.1,2.951-12.247,0c-4.692-1.926-10.037-2.63-11.111-1.642s-1,5.679-5.371,7.407c0,0,.963,8.864-2.6,8.8s-2.371-13.963-2.371-13.963l8.358-4.938,9.321-2.469,9.013.6,7.037,1.37Z" transform="translate(-522.423 -266.839)" fill="#263238"/>
    <path id="Path_3460" data-name="Path 3460" d="M700.589,474.842c-.148-.062-6-1.778-5.8,4.2s6.173,4.543,6.173,4.37S700.589,474.842,700.589,474.842Z" transform="translate(-514.504 -318.836)" fill="#ffbe9d"/>
    <path id="Path_3461" data-name="Path 3461" d="M703.067,486.665a1.4,1.4,0,0,1-.272.173,1.148,1.148,0,0,1-.778,0,2.555,2.555,0,0,1-1.235-2.272,3.436,3.436,0,0,1,.235-1.494,1.235,1.235,0,0,1,.765-.827.519.519,0,0,1,.617.272c.086.161,0,.284.086.284s.124-.1,0-.346a.593.593,0,0,0-.247-.358.717.717,0,0,0-.58-.136,1.444,1.444,0,0,0-1.049.951,3.555,3.555,0,0,0-.309,1.679,2.7,2.7,0,0,0,1.593,2.531,1.135,1.135,0,0,0,.95-.2C703.067,486.813,703.141,486.678,703.067,486.665Z" transform="translate(-518.587 -324.301)" fill="#eb996e"/>
    <path id="Path_3462" data-name="Path 3462" d="M701.454,403.375c-.062-.161.926-.58,2.123-.21s1.778,1.235,1.63,1.383-.815-.457-1.827-.765S701.516,403.548,701.454,403.375Z" transform="translate(-519.444 -265.85)" fill="#263238"/>
    <path id="Path_3463" data-name="Path 3463" d="M713.665,389.886c.21,0,.185,1.235.469,2.7s.95,2.469.8,2.58-1.111-.839-1.432-2.469A4.282,4.282,0,0,1,713.665,389.886Z" transform="translate(-528.247 -256.127)" fill="#263238"/>
    <path id="Path_3464" data-name="Path 3464" d="M813.259,460.95c-.2-.3.926-1.235,2.642-1.333s2.914.79,2.753,1.086-1.321.124-2.692.2S813.432,461.272,813.259,460.95Z" transform="translate(-602.224 -307.759)" fill="#263238"/>
    <path id="Path_3465" data-name="Path 3465" d="M761.681,456.66c-.2-.284.914-1.235,2.642-1.321s2.914.778,2.753,1.086-1.321.124-2.7.2S761.854,456.981,761.681,456.66Z" transform="translate(-564.029 -304.592)" fill="#263238"/>
    <path id="Path_3466" data-name="Path 3466" d="M509.27,1881.24l-2.061,8.778s-14.284,18.519-18.692,17.642c-2.877-.592.667-5.431,6.1-19.518l1.136-5.815Z" transform="translate(-361.001 -1360.515)" fill="#fff"/>
    <path id="Path_3467" data-name="Path 3467" d="M489.158,1923.647a2.109,2.109,0,0,0,.765.729,2.656,2.656,0,0,0,2.728-.384,78.624,78.624,0,0,0,7.111-6.741c2.642-2.766,4.864-5.444,6.432-7.408.691-.887,1.235-1.679,1.827-2.346l.494-.641c.111-.148.173-.223.185-.21l-.148.233-.457.68c-.407.568-1,1.4-1.765,2.395a90.8,90.8,0,0,1-6.383,7.483,69.873,69.873,0,0,1-7.185,6.7,3.434,3.434,0,0,1-1.617.594,2.487,2.487,0,0,1-1.235-.272,1.551,1.551,0,0,1-.593-.555A1.041,1.041,0,0,1,489.158,1923.647Z" transform="translate(-362.235 -1379.327)" fill="#263238"/>
    <path id="Path_3468" data-name="Path 3468" d="M496.866,1948.92a2.292,2.292,0,0,1,1.173-.137,6.169,6.169,0,0,1,2.692.939,4.935,4.935,0,0,1,1.963,2.063,2.56,2.56,0,0,1,.309,1.147,7.129,7.129,0,0,0-.469-1.061,5.245,5.245,0,0,0-1.963-1.974,6.462,6.462,0,0,0-2.568-.976A10.371,10.371,0,0,0,496.866,1948.92Z" transform="translate(-367.943 -1410.514)" fill="#263238"/>
    <path id="Path_3469" data-name="Path 3469" d="M547.721,1907.5a2.235,2.235,0,0,1-.173-.42,7.382,7.382,0,0,1-.271-1.233,6.374,6.374,0,0,1,.667-3.965,6.183,6.183,0,0,1,2.877-2.815,5.244,5.244,0,0,1,1.235-.355h.444a9.339,9.339,0,0,0-1.543.555,6.277,6.277,0,0,0-2.741,2.753,6.765,6.765,0,0,0-.716,3.827A7.531,7.531,0,0,0,547.721,1907.5Z" transform="translate(-405.217 -1373.452)" fill="#263238"/>
    <path id="Path_3470" data-name="Path 3470" d="M564.322,1886.95c.062,0-.259,1.235-.531,2.792a9.587,9.587,0,0,1-.741,2.74s.222-1.235.494-2.792A8.952,8.952,0,0,1,564.322,1886.95Z" transform="translate(-416.954 -1364.743)" fill="#263238"/>
    <path id="Path_3471" data-name="Path 3471" d="M513.9,1912.043a3.357,3.357,0,0,1,1.839,0,3.3,3.3,0,0,1,1.654.778c0,.06-.753-.309-1.716-.532S513.912,1912.116,513.9,1912.043Z" transform="translate(-380.557 -1383.23)" fill="#263238"/>
    <path id="Path_3472" data-name="Path 3472" d="M512.806,1917.776a3.1,3.1,0,0,1,2.889.74c0,.062-.6-.309-1.407-.493S512.818,1917.848,512.806,1917.776Z" transform="translate(-379.747 -1387.468)" fill="#263238"/>
    <path id="Path_3473" data-name="Path 3473" d="M508.381,1924.636a2.331,2.331,0,0,1,2.95.667,6.367,6.367,0,0,0-1.407-.618A6.827,6.827,0,0,0,508.381,1924.636Z" transform="translate(-376.47 -1392.452)" fill="#263238"/>
    <path id="Path_3474" data-name="Path 3474" d="M517.706,1899.719a17.286,17.286,0,0,0,1.679-.568,12.413,12.413,0,0,0,1.716-.828,10.773,10.773,0,0,0,.951-.6c.3-.221.617-.542.6-.875s-.432-.519-.765-.446a2.091,2.091,0,0,0-.877.594c-.531.493-.975.973-1.346,1.383-.729.815-1.136,1.357-1.161,1.331s.062-.158.235-.418.445-.618.79-1.038a18.073,18.073,0,0,1,1.309-1.432,2.257,2.257,0,0,1,1-.654.785.785,0,0,1,.355-.034.82.82,0,0,1,.337.117.826.826,0,0,1,.382.584,1.455,1.455,0,0,1-.231.625,1.434,1.434,0,0,1-.485.459,9.643,9.643,0,0,1-.975.607,12.039,12.039,0,0,1-1.778.8,8.823,8.823,0,0,1-1.235.332A1.673,1.673,0,0,1,517.706,1899.719Z" transform="translate(-383.375 -1371.536)" fill="#263238"/>
    <path id="Path_3475" data-name="Path 3475" d="M513.237,1896.026a14.6,14.6,0,0,1-.259-1.6,7.156,7.156,0,0,0-.494-1.642,3.622,3.622,0,0,0-.531-.851c-.222-.246-.543-.457-.815-.3a.858.858,0,0,0-.272.864,4.639,4.639,0,0,0,.284.963,5.631,5.631,0,0,0,.938,1.445c.654.727,1.173,1.085,1.148,1.121a1.36,1.36,0,0,1-.383-.221,8.114,8.114,0,0,1-.852-.752,5.619,5.619,0,0,1-1.025-1.471,4.286,4.286,0,0,1-.309-1.025,1.082,1.082,0,0,1,.03-.62,1.071,1.071,0,0,1,.365-.5.937.937,0,0,1,1.124.355,3.613,3.613,0,0,1,.568.916,6.062,6.062,0,0,1,.444,1.715c.062.506.086.9.1,1.235A1.609,1.609,0,0,1,513.237,1896.026Z" transform="translate(-378.141 -1368.017)" fill="#263238"/>
    <g id="Group_8361" data-name="Group 8361" transform="translate(126.514 525.318)" opacity="0.4">
      <path id="Path_3476" data-name="Path 3476" d="M507.274,1903.125l1-4.185s-3.494.644-4.407,3.259a11.12,11.12,0,0,0-.679,4.484l-7.605,8.2s-1.914-3.705-5.37-2.839c0,0-2.716,5.986-2.63,7.481s1.827,1.321,2.469,1.038a30.376,30.376,0,0,0,6.815-5.371C500.854,1910.954,505.311,1905.658,507.274,1903.125Z" transform="translate(-487.58 -1898.94)"/>
    </g>
    <path id="Path_3477" data-name="Path 3477" d="M782.025,1864.275V1852.62l-21.8-.259-.284,17.037,1.346.1c6.025.407,30.618,1.656,34.655.483C800.506,1868.632,782.025,1864.275,782.025,1864.275Z" transform="translate(-562.755 -1339.128)" fill="#fff"/>
    <g id="Group_8362" data-name="Group 8362" transform="translate(197.27 523.85)" opacity="0.4">
      <path id="Path_3478" data-name="Path 3478" d="M768.16,1899.629a7.638,7.638,0,0,0-2.729-4.691,7.4,7.4,0,0,0-5.086-1.642l-.074,6.1Z" transform="translate(-760.271 -1893.282)"/>
    </g>
    <g id="Group_8363" data-name="Group 8363" transform="translate(197.245 527.614)" opacity="0.4">
      <path id="Path_3479" data-name="Path 3479" d="M791.226,1907.79s6.482,1.951,5.654,3.012-25.729.742-36.7-.358v-.493l29.05.618S789.954,1907.829,791.226,1907.79Z" transform="translate(-760.176 -1907.79)"/>
    </g>
    <path id="Path_3480" data-name="Path 3480" d="M759.034,1916.07a1.771,1.771,0,0,0,.37,0l1.074.075,3.963.221c3.346.161,7.975.322,13.087.4s9.741,0,13.1,0l3.963-.125H777.528c-5.111,0-9.728-.21-13.074-.322l-3.963-.135H759.4Z" transform="translate(-562.085 -1386.307)" fill="#263238"/>
    <path id="Path_3481" data-name="Path 3481" d="M872.183,1910.174a9.9,9.9,0,0,1,.765-1.889,9.09,9.09,0,0,1,1.37-1.495,2.9,2.9,0,0,0-1.592,1.36A2.935,2.935,0,0,0,872.183,1910.174Z" transform="translate(-645.864 -1379.435)" fill="#263238"/>
    <path id="Path_3482" data-name="Path 3482" d="M847.552,1901.786a4.427,4.427,0,0,0,.7-.828c.321-.493.543-.939.481-.976s-.383.332-.7.828S847.49,1901.747,847.552,1901.786Z" transform="translate(-627.627 -1374.392)" fill="#263238"/>
    <path id="Path_3483" data-name="Path 3483" d="M840.807,1899.786c0,.062.4-.171.778-.493s.654-.654.6-.7-.395.161-.778.493S840.758,1899.736,840.807,1899.786Z" transform="translate(-622.636 -1373.357)" fill="#263238"/>
    <path id="Path_3484" data-name="Path 3484" d="M836.637,1894.886a5.069,5.069,0,0,0,2.284.062,2.533,2.533,0,0,0-1.136-.161A2.729,2.729,0,0,0,836.637,1894.886Z" transform="translate(-619.552 -1370.53)" fill="#263238"/>
    <path id="Path_3485" data-name="Path 3485" d="M835.209,1889.62a2.214,2.214,0,0,0,1.235.394,2.287,2.287,0,0,0,1.308-.161,7.88,7.88,0,0,0-1.235-.112A8.2,8.2,0,0,0,835.209,1889.62Z" transform="translate(-618.495 -1366.72)" fill="#263238"/>
    <path id="Path_3486" data-name="Path 3486" d="M850.531,1894.123a3.669,3.669,0,0,0,1.407,0,8.137,8.137,0,0,0,1.494-.309,4.332,4.332,0,0,0,.864-.345.682.682,0,0,0,.218-.182.665.665,0,0,0,.128-.252.54.54,0,0,0-.017-.306.551.551,0,0,0-.181-.249,2.58,2.58,0,0,0-3.2.7,2.759,2.759,0,0,0-.469.939.72.72,0,0,0,0,.371,4.014,4.014,0,0,1,.654-1.235,2.531,2.531,0,0,1,1.235-.766,2.226,2.226,0,0,1,1.667.135c.222.174.123.433-.123.581a3.621,3.621,0,0,1-.79.319,8.676,8.676,0,0,1-1.445.358C851.074,1894.087,850.531,1894.087,850.531,1894.123Z" transform="translate(-629.841 -1368.631)" fill="#263238"/>
    <path id="Path_3487" data-name="Path 3487" d="M846.795,1892.107a1.43,1.43,0,0,0,.173-.963,2.567,2.567,0,0,0-.37-1.035,1.425,1.425,0,0,0-.488-.514,1.441,1.441,0,0,0-.673-.215.561.561,0,0,0-.35.231.573.573,0,0,0-.094.41,1.6,1.6,0,0,0,.235.63,3.9,3.9,0,0,0,.654.864c.432.433.778.6.79.568s-.272-.246-.654-.7a5.49,5.49,0,0,1-.58-.841c-.185-.309-.308-.838,0-.9s.7.332.926.618a2.3,2.3,0,0,1,.383.913A5.618,5.618,0,0,1,846.795,1892.107Z" transform="translate(-625.735 -1366.542)" fill="#263238"/>
    <path id="Path_3488" data-name="Path 3488" d="M761.032,1892.683s.617,0,1.6.075a6.8,6.8,0,0,1,5.654,4.629c.321.937.346,1.567.4,1.567s0-.161,0-.444a6.646,6.646,0,0,0-6.037-5.939,6.136,6.136,0,0,0-1.235,0A1.317,1.317,0,0,0,761.032,1892.683Z" transform="translate(-563.565 -1368.883)" fill="#263238"/>
    <path id="Path_3489" data-name="Path 3489" d="M769.4,1858.21a74.151,74.151,0,0,0-.222,8.965A74.038,74.038,0,0,0,769.4,1858.21Z" transform="translate(-569.56 -1343.46)" fill="#263238"/>
    <path id="Path_3490" data-name="Path 3490" d="M801.38,1909.606a12.2,12.2,0,0,0,3.185.358,12.592,12.592,0,0,0,3.2-.21c0-.075-1.432,0-3.2,0S801.38,1909.531,801.38,1909.606Z" transform="translate(-593.443 -1381.509)" fill="#263238"/>
    <path id="Path_3491" data-name="Path 3491" d="M784.87,1909.389a3.925,3.925,0,0,0,.259.641c.148.335.21.618.284.607s.124-.335,0-.716S784.919,1909.339,784.87,1909.389Z" transform="translate(-581.217 -1381.354)" fill="#263238"/>
    <path id="Path_3492" data-name="Path 3492" d="M778.739,1901.583c-.062,0,.086.283.309.519s.445.369.494.319-.086-.27-.309-.506S778.788,1901.534,778.739,1901.583Z" transform="translate(-576.667 -1375.572)" fill="#263238"/>
    <path id="Path_3493" data-name="Path 3493" d="M769.925,1897.641c0,.075.3.075.617.184s.556.3.605.249-.111-.358-.518-.5S769.9,1897.568,769.925,1897.641Z" transform="translate(-570.149 -1372.569)" fill="#263238"/>
    <path id="Path_3494" data-name="Path 3494" d="M763.6,1895.971c0,.075.1.184.284.26s.346.073.37,0-.1-.174-.272-.247A.657.657,0,0,0,763.6,1895.971Z" transform="translate(-565.467 -1371.405)" fill="#263238"/>
    <path id="Path_3495" data-name="Path 3495" d="M591.129,1006.86l-10.173,226.273-33.976.716,5.642-189.433-38.21,190.879h-32.3l43.136-228.435" transform="translate(-357.02 -713.013)" fill="#ffa000"/>
    <path id="Path_3496" data-name="Path 3496" d="M516.092,1871.3l-.778,3.345-33.2.446.506-5.223Z" transform="translate(-357.02 -1352.095)" fill="#455a64"/>
    <path id="Path_3497" data-name="Path 3497" d="M511.975,1874.813c.173,0,.247.457.161.963s-.284.89-.469.864-.247-.47-.161-.976S511.8,1874.777,511.975,1874.813Z" transform="translate(-378.756 -1355.754)" fill="#455a64"/>
    <path id="Path_3498" data-name="Path 3498" d="M516.085,1846.267c.173,0,.173.877,0,1.9s-.444,1.827-.617,1.8-.185-.89,0-1.915S515.912,1846.23,516.085,1846.267Z" transform="translate(-381.618 -1334.615)" fill="#455a64"/>
    <path id="Path_3499" data-name="Path 3499" d="M520.855,1817.678c.173,0,.173.887,0,1.912s-.444,1.827-.629,1.79-.173-.877,0-1.9S520.682,1817.652,520.855,1817.678Z" transform="translate(-385.142 -1313.445)" fill="#455a64"/>
    <path id="Path_3500" data-name="Path 3500" d="M525.674,1789.126c.173,0,.173.877,0,1.9s-.457,1.827-.63,1.8-.173-.887,0-1.9S525.5,1789.087,525.674,1789.126Z" transform="translate(-388.713 -1292.301)" fill="#455a64"/>
    <path id="Path_3501" data-name="Path 3501" d="M530.48,1760.529c.173,0,.173.89,0,1.915s-.457,1.827-.63,1.8-.173-.887,0-1.912S530.307,1760.505,530.48,1760.529Z" transform="translate(-392.272 -1271.124)" fill="#455a64"/>
    <path id="Path_3502" data-name="Path 3502" d="M535.272,1731.977c.173,0,.185.877,0,1.9s-.457,1.827-.629,1.8-.185-.877,0-1.9S535.1,1731.94,535.272,1731.977Z" transform="translate(-395.818 -1249.98)" fill="#455a64"/>
    <path id="Path_3503" data-name="Path 3503" d="M540.139,1703.388c.173,0,.173.887,0,1.912s-.457,1.827-.629,1.8-.173-.89,0-1.915S539.966,1703.362,540.139,1703.388Z" transform="translate(-399.425 -1228.81)" fill="#455a64"/>
    <path id="Path_3504" data-name="Path 3504" d="M544.992,1674.838c.173,0,.173.89,0,1.912s-.457,1.829-.63,1.79-.173-.875,0-1.9S544.819,1674.812,544.992,1674.838Z" transform="translate(-403.019 -1207.668)" fill="#455a64"/>
    <path id="Path_3505" data-name="Path 3505" d="M549.845,1646.287c.173,0,.173.877,0,1.9s-.457,1.827-.63,1.8-.173-.89,0-1.915S549.672,1646.25,549.845,1646.287Z" transform="translate(-406.613 -1186.524)" fill="#455a64"/>
    <path id="Path_3506" data-name="Path 3506" d="M554.7,1617.7c.173,0,.173.887,0,1.912s-.457,1.827-.642,1.8-.173-.89,0-1.915S554.524,1617.672,554.7,1617.7Z" transform="translate(-410.193 -1165.354)" fill="#455a64"/>
    <path id="Path_3507" data-name="Path 3507" d="M559.611,1589.148c.173,0,.173.887,0,1.912s-.469,1.827-.642,1.79-.173-.877,0-1.9S559.438,1589.122,559.611,1589.148Z" transform="translate(-413.836 -1144.213)" fill="#455a64"/>
    <path id="Path_3508" data-name="Path 3508" d="M564.595,1560.6c.173,0,.173.887,0,1.912s-.457,1.829-.63,1.79-.173-.877,0-1.9S564.41,1560.572,564.595,1560.6Z" transform="translate(-417.535 -1123.07)" fill="#455a64"/>
    <path id="Path_3509" data-name="Path 3509" d="M569.543,1532.049c.173,0,.173.89,0,1.915s-.457,1.827-.63,1.79-.173-.877,0-1.9S569.37,1532.025,569.543,1532.049Z" transform="translate(-421.2 -1101.929)" fill="#455a64"/>
    <path id="Path_3510" data-name="Path 3510" d="M574.456,1503.5c.185,0,.173.89,0,1.915s-.469,1.827-.642,1.79-.173-.877,0-1.9S574.283,1503.475,574.456,1503.5Z" transform="translate(-424.829 -1080.786)" fill="#455a64"/>
    <path id="Path_3511" data-name="Path 3511" d="M579.5,1475c.173,0,.173.877,0,1.9s-.469,1.827-.642,1.79-.173-.877,0-1.9S579.327,1474.96,579.5,1475Z" transform="translate(-428.563 -1059.68)" fill="#455a64"/>
    <path id="Path_3512" data-name="Path 3512" d="M584.543,1446.447c.173,0,.173.89,0,1.9s-.469,1.827-.642,1.8-.173-.89,0-1.915S584.37,1446.41,584.543,1446.447Z" transform="translate(-432.299 -1038.538)" fill="#455a64"/>
    <path id="Path_3513" data-name="Path 3513" d="M589.789,1417.908c.173,0,.173.887,0,1.912s-.469,1.827-.654,1.79-.16-.89,0-1.9S589.567,1417.882,589.789,1417.908Z" transform="translate(-436.174 -1017.405)" fill="#455a64"/>
    <path id="Path_3514" data-name="Path 3514" d="M594.583,1389.406c.173,0,.16.887,0,1.9s-.469,1.827-.642,1.8-.173-.89,0-1.915S594.447,1389.367,594.583,1389.406Z" transform="translate(-439.733 -996.298)" fill="#455a64"/>
    <path id="Path_3515" data-name="Path 3515" d="M599.912,1360.906c.173,0,.16.874,0,1.9s-.469,1.827-.642,1.79-.173-.877,0-1.9S599.764,1360.867,599.912,1360.906Z" transform="translate(-443.68 -975.192)" fill="#455a64"/>
    <path id="Path_3516" data-name="Path 3516" d="M605.063,1332.4c.185,0,.173.877,0,1.9s-.481,1.827-.654,1.79-.173-.89,0-1.9S604.89,1332.36,605.063,1332.4Z" transform="translate(-447.485 -954.081)" fill="#455a64"/>
    <path id="Path_3517" data-name="Path 3517" d="M610.344,1303.9c.173,0,.161.89,0,1.9s-.481,1.827-.654,1.79-.173-.89,0-1.9S610.171,1303.86,610.344,1303.9Z" transform="translate(-451.396 -932.975)" fill="#455a64"/>
    <path id="Path_3518" data-name="Path 3518" d="M615.59,1275.4c.173,0,.161.89,0,1.9s-.482,1.827-.667,1.79-.161-.877,0-1.9S615.417,1275.36,615.59,1275.4Z" transform="translate(-455.271 -911.87)" fill="#455a64"/>
    <path id="Path_3519" data-name="Path 3519" d="M620.98,1246.947c.173,0,.161.877,0,1.9s-.494,1.814-.667,1.79-.16-.89,0-1.915S620.807,1246.91,620.98,1246.947Z" transform="translate(-459.266 -890.802)" fill="#455a64"/>
    <path id="Path_3520" data-name="Path 3520" d="M626.369,1218.448c.173,0,.161.89,0,1.912s-.494,1.816-.667,1.78-.148-.877,0-1.9S626.2,1218.422,626.369,1218.448Z" transform="translate(-463.26 -869.699)" fill="#455a64"/>
    <path id="Path_3521" data-name="Path 3521" d="M631.828,1190c.173,0,.16.887,0,1.912s-.494,1.816-.667,1.777-.161-.887,0-1.9S631.656,1189.957,631.828,1190Z" transform="translate(-467.3 -848.629)" fill="#455a64"/>
    <path id="Path_3522" data-name="Path 3522" d="M637.312,1161.539c.173,0,.161.89,0,1.915s-.506,1.814-.679,1.777-.16-.89,0-1.9S637.14,1161.515,637.312,1161.539Z" transform="translate(-471.352 -827.556)" fill="#455a64"/>
    <path id="Path_3523" data-name="Path 3523" d="M642.927,1133.136c.173,0,.148.887,0,1.9s-.506,1.814-.679,1.788-.161-.887,0-1.912S642.7,1133.1,642.927,1133.136Z" transform="translate(-475.509 -806.523)" fill="#455a64"/>
    <path id="Path_3524" data-name="Path 3524" d="M648.426,1104.727c.173,0,.148.89-.062,1.9s-.506,1.814-.679,1.777-.148-.887,0-1.9S648.253,1104.69,648.426,1104.727Z" transform="translate(-479.539 -785.485)" fill="#455a64"/>
    <path id="Path_3525" data-name="Path 3525" d="M654.311,1076.326c.173,0,.148.887,0,1.9s-.506,1.816-.679,1.78-.148-.89,0-1.9S654.138,1076.287,654.311,1076.326Z" transform="translate(-483.943 -764.453)" fill="#455a64"/>
    <path id="Path_3526" data-name="Path 3526" d="M660.081,1047.917c.173,0,.148.89,0,1.9s-.518,1.814-.691,1.777-.148-.89,0-1.9S659.908,1047.88,660.081,1047.917Z" transform="translate(-488.207 -743.415)" fill="#455a64"/>
    <path id="Path_3527" data-name="Path 3527" d="M665.207,1026.693c.173,0,.235.47.136.976s-.333.877-.506.841-.235-.47-.123-.976S665.034,1026.657,665.207,1026.693Z" transform="translate(-492.196 -727.698)" fill="#455a64"/>
    <path id="Path_3528" data-name="Path 3528" d="M753.591,1874.719c.185,0,.309.433.272.939s-.185.913-.358.913-.309-.431-.284-.95S753.369,1874.709,753.591,1874.719Z" transform="translate(-557.778 -1355.686)" fill="#455a64"/>
    <path id="Path_3529" data-name="Path 3529" d="M754.745,1845.65c.173,0,.284.854.247,1.9s-.222,1.876-.4,1.876-.284-.864-.247-1.9S754.56,1845.65,754.745,1845.65Z" transform="translate(-558.612 -1334.159)" fill="#455a64"/>
    <path id="Path_3530" data-name="Path 3530" d="M755.7,1816.58c.173,0,.3.851.26,1.889s-.2,1.889-.371,1.876-.3-.851-.272-1.889S755.511,1816.58,755.7,1816.58Z" transform="translate(-559.327 -1312.632)" fill="#455a64"/>
    <path id="Path_3531" data-name="Path 3531" d="M756.446,1787.51c.173,0,.3.851.272,1.889s-.185,1.889-.358,1.876-.309-.851-.284-1.889S756.273,1787.5,756.446,1787.51Z" transform="translate(-559.892 -1291.105)" fill="#455a64"/>
    <path id="Path_3532" data-name="Path 3532" d="M757.158,1758.39c.173,0,.3.851.271,1.9s-.185,1.876-.37,1.876-.3-.851-.272-1.889S756.973,1758.39,757.158,1758.39Z" transform="translate(-560.419 -1269.541)" fill="#455a64"/>
    <path id="Path_3533" data-name="Path 3533" d="M757.872,1729.51c.185,0,.308.851.271,1.889s-.185,1.889-.37,1.889-.3-.864-.272-1.9S757.7,1729.51,757.872,1729.51Z" transform="translate(-560.948 -1248.155)" fill="#455a64"/>
    <path id="Path_3534" data-name="Path 3534" d="M758.791,1700.2c.173,0,.284.864.247,1.9s-.21,1.876-.383,1.876-.3-.851-.259-1.9S758.606,1700.2,758.791,1700.2Z" transform="translate(-561.608 -1226.45)" fill="#455a64"/>
    <path id="Path_3535" data-name="Path 3535" d="M759.968,1671.13c.185,0,.284.864.247,1.9s-.222,1.876-.4,1.876-.3-.864-.247-1.9S759.8,1671.13,759.968,1671.13Z" transform="translate(-562.476 -1204.923)" fill="#455a64"/>
    <path id="Path_3536" data-name="Path 3536" d="M761.123,1642.06c.185,0,.3.864.247,1.9s-.21,1.879-.383,1.879-.3-.854-.259-1.9S760.95,1642.06,761.123,1642.06Z" transform="translate(-563.335 -1183.395)" fill="#455a64"/>
    <path id="Path_3537" data-name="Path 3537" d="M762.2,1612.99c.185,0,.3.864.259,1.9s-.2,1.876-.383,1.876-.3-.851-.259-1.9S762.018,1612.99,762.2,1612.99Z" transform="translate(-564.143 -1161.868)" fill="#455a64"/>
    <path id="Path_3538" data-name="Path 3538" d="M763.095,1583.91c.185,0,.3.854.272,1.889s-.2,1.889-.383,1.879-.3-.854-.259-1.889S762.873,1583.9,763.095,1583.91Z" transform="translate(-564.813 -1140.333)" fill="#455a64"/>
    <path id="Path_3539" data-name="Path 3539" d="M763.868,1554.79c.185,0,.308.867.271,1.9s-.185,1.876-.358,1.876-.309-.851-.284-1.889S763.7,1554.79,763.868,1554.79Z" transform="translate(-565.388 -1118.77)" fill="#455a64"/>
    <path id="Path_3540" data-name="Path 3540" d="M764.527,1525.72c.185,0,.309.854.284,1.9s-.173,1.876-.358,1.876-.3-.851-.284-1.889S764.355,1525.72,764.527,1525.72Z" transform="translate(-565.887 -1097.242)" fill="#455a64"/>
    <path id="Path_3541" data-name="Path 3541" d="M765.052,1496.65c.173,0,.309.851.284,1.889s-.173,1.889-.346,1.889-.309-.851-.3-1.9S764.867,1496.65,765.052,1496.65Z" transform="translate(-566.276 -1075.715)" fill="#455a64"/>
    <path id="Path_3542" data-name="Path 3542" d="M765.42,1467.807c.173,0,.309.838.3,1.889s-.16,1.876-.333,1.876-.321-.841-.309-1.889S765.247,1467.732,765.42,1467.807Z" transform="translate(-566.557 -1054.353)" fill="#455a64"/>
    <path id="Path_3543" data-name="Path 3543" d="M765.647,1438.46c.185,0,.321.851.321,1.889s-.161,1.889-.333,1.889-.321-.851-.321-1.889S765.475,1438.46,765.647,1438.46Z" transform="translate(-566.736 -1032.624)" fill="#455a64"/>
    <path id="Path_3544" data-name="Path 3544" d="M765.776,1409.39c.173,0,.321.838.321,1.889s-.148,1.876-.333,1.876-.321-.838-.309-1.876S765.591,1409.39,765.776,1409.39Z" transform="translate(-566.839 -1011.097)" fill="#455a64"/>
    <path id="Path_3545" data-name="Path 3545" d="M765.718,1380.27c.173,0,.321.851.333,1.889s-.136,1.889-.321,1.889-.321-.841-.321-1.889S765.545,1380.27,765.718,1380.27Z" transform="translate(-566.806 -989.533)" fill="#455a64"/>
    <path id="Path_3546" data-name="Path 3546" d="M765.478,1351.2c.185,0,.333.838.346,1.889s-.136,1.889-.308,1.889-.333-.854-.346-1.889S765.3,1351.2,765.478,1351.2Z" transform="translate(-566.628 -968.006)" fill="#455a64"/>
    <path id="Path_3547" data-name="Path 3547" d="M765.127,1322.13c.185,0,.333.838.346,1.876s-.111,1.889-.284,1.889-.333-.841-.358-1.876S764.954,1322.13,765.127,1322.13Z" transform="translate(-566.376 -946.479)" fill="#455a64"/>
    <path id="Path_3548" data-name="Path 3548" d="M764.639,1293.05c.185,0,.346.828.358,1.879s-.111,1.889-.284,1.889-.333-.841-.358-1.879S764.466,1293.05,764.639,1293.05Z" transform="translate(-566.023 -924.944)" fill="#455a64"/>
    <path id="Path_3549" data-name="Path 3549" d="M764.007,1263.94c.185,0,.346.838.37,1.876s-.1,1.889-.272,1.9-.346-.841-.37-1.889S763.834,1263.94,764.007,1263.94Z" transform="translate(-565.564 -903.387)" fill="#455a64"/>
    <path id="Path_3550" data-name="Path 3550" d="M763.072,1234.67c.173,0,.358.841.395,1.879s-.074,1.889-.247,1.9-.358-.838-.4-1.876A3.61,3.61,0,0,1,763.072,1234.67Z" transform="translate(-564.888 -881.712)" fill="#455a64"/>
    <path id="Path_3551" data-name="Path 3551" d="M761.444,1205.79c.185,0,.383.815.445,1.853s0,1.9-.2,1.915-.37-.828-.444-1.866S761.271,1205.8,761.444,1205.79Z" transform="translate(-563.705 -860.326)" fill="#455a64"/>
    <path id="Path_3552" data-name="Path 3552" d="M758.881,1176.82c.173,0,.407.8.519,1.84a3.351,3.351,0,0,1-.136,1.912c-.136.026-.407-.815-.506-1.853S758.659,1176.83,758.881,1176.82Z" transform="translate(-561.834 -838.873)" fill="#455a64"/>
    <path id="Path_3553" data-name="Path 3553" d="M756,1155.36c.185,0,.383.369.457.877s0,.937-.185.963-.383-.371-.457-.877S755.83,1155.383,756,1155.36Z" transform="translate(-559.683 -822.981)" fill="#455a64"/>
    <path id="Path_3554" data-name="Path 3554" d="M763.937,1867.747l-35.926.592.284-5.989,35.642.187Z" transform="translate(-539.112 -1346.526)" fill="#455a64"/>
    <path id="Path_3555" data-name="Path 3555" d="M758.163,1017.95a5.356,5.356,0,0,1,0,1.393c0,1.038-.086,2.309-.136,3.8-.148,3.21-.383,7.629-.679,12.517-.161,2.47-.321,4.754-.457,6.889a19.9,19.9,0,0,1-.827,5.631,4.7,4.7,0,0,1-2.617,2.789,2.857,2.857,0,0,1-1.049.21c-.235,0-.358,0-.358-.062a6.048,6.048,0,0,0,1.309-.369,4.716,4.716,0,0,0,2.3-2.73,21.208,21.208,0,0,0,.654-5.506c.124-2.135.26-4.458.408-6.889.3-4.938.6-9.307.864-12.507.136-1.492.247-2.766.333-3.788A6.951,6.951,0,0,1,758.163,1017.95Z" transform="translate(-556.905 -721.225)" fill="#455a64"/>
    <path id="Path_3556" data-name="Path 3556" d="M756.584,1028.674c0-.086.568,0,.765.766a1.422,1.422,0,0,1-.271,1.235,1.458,1.458,0,0,1-2.469-1.015,1.409,1.409,0,0,1,.679-1.085c.667-.4,1.148-.075,1.086,0s-.42,0-.815.381a1.011,1.011,0,0,0-.358.742.914.914,0,0,0,.186.428.9.9,0,0,0,.374.283.911.911,0,0,0,.9-.119,1.061,1.061,0,0,0,.259-.789C756.868,1028.983,756.535,1028.822,756.584,1028.674Z" transform="translate(-558.808 -728.949)" fill="#455a64"/>
    <path id="Path_3557" data-name="Path 3557" d="M639.036,1029.065c0-.112,1.086.368,2.889.615a12.341,12.341,0,0,0,12.2-5.444c1.025-1.518,1.371-2.615,1.469-2.579a6.47,6.47,0,0,1-1.086,2.815,11.945,11.945,0,0,1-12.654,5.654A6.526,6.526,0,0,1,639.036,1029.065Z" transform="translate(-473.223 -723.97)" fill="#455a64"/>
    <path id="Path_3558" data-name="Path 3558" d="M856.417,1017.95c.1,0,.123.924.556,2.333a10.113,10.113,0,0,0,8.1,7.1c1.457.246,2.383.135,2.395.246a4.814,4.814,0,0,1-2.469.2,9.631,9.631,0,0,1-8.482-7.408A4.636,4.636,0,0,1,856.417,1017.95Z" transform="translate(-634.109 -721.225)" fill="#455a64"/>
    <path id="Path_3559" data-name="Path 3559" d="M638.662,717.178l-73.136-4.938.852-36.037V650.128l-8.148,12.013-21.729-22.7,24.284-23.3a38.125,38.125,0,0,1,14.815-9.568,30.693,30.693,0,0,1,9.259-1.765,37.151,37.151,0,0,0,22.358,0l3.7.42a44.113,44.113,0,0,1,25.741,12.346L660,651.449l-26.3,13.667-3.049-10.457S638.834,709.957,638.662,717.178Z" transform="translate(-397.293 -415.282)" fill="#455a64"/>
    <path id="Path_3560" data-name="Path 3560" d="M649.123,761.207a18.507,18.507,0,0,1,2.358-4.3,17.939,17.939,0,0,1,2.9-3.938,18.865,18.865,0,0,1-2.358,4.284A19.644,19.644,0,0,1,649.123,761.207Z" transform="translate(-480.693 -525.002)" fill="#263238"/>
    <path id="Path_3561" data-name="Path 3561" d="M513.558,1022.907,367.495,995.141,377.878,942.1l146.076,27.765L536,999.129Z" transform="translate(-272.14 -665.058)" fill="#fff"/>
    <g id="Group_8364" data-name="Group 8364" transform="translate(95.355 277.045)" opacity="0.3">
      <path id="Path_3562" data-name="Path 3562" d="M513.558,1022.907,367.495,995.141,377.878,942.1l146.076,27.765L536,999.129Z" transform="translate(-367.495 -942.103)"/>
    </g>
    <path id="Path_3563" data-name="Path 3563" d="M514.789,1004.013l-142.964-28,10.383-53.037L525.185,950.99l12.05,29.258Z" transform="translate(-275.346 -650.894)" fill="#fff"/>
    <path id="Path_3564" data-name="Path 3564" d="M544.491,1031.862l-8.951,13.469-2.062-.358-3.877-15.7,2.259.381,3.16,12.9,7.407-11.051Z" transform="translate(-392.185 -729.608)" fill="#fff"/>
    <path id="Path_3565" data-name="Path 3565" d="M586.319,1054.963l-7.753-1.357-2.185,3.37-2.148-.384,9.148-13.433,2.062.358,4.086,15.755-2.185-.384Zm-.432-1.8-1.9-7.691-4.395,6.642Z" transform="translate(-425.234 -739.894)" fill="#fff"/>
    <path id="Path_3566" data-name="Path 3566" d="M640.532,1059.7a7.492,7.492,0,0,1,9.037-6.111,7.285,7.285,0,0,1,5.136,3.233l-1.58,1.087a5.471,5.471,0,0,0-3.8-2.47,5.692,5.692,0,1,0-1.963,11.212,5.536,5.536,0,0,0,4.42-1.025l1.124,1.544a7.336,7.336,0,0,1-5.963,1.321,7.483,7.483,0,0,1-6.407-8.791Z" transform="translate(-474.237 -747.484)" fill="#fff"/>
    <path id="Path_3567" data-name="Path 3567" d="M700.894,1075.134l-7.753-1.357-2.235,3.371-2.148-.371,9.148-13.4,2.062.371,4.087,15.68-2.2-.384Zm-.444-1.8-1.889-7.691-4.395,6.593Z" transform="translate(-510.044 -754.867)" fill="#fff"/>
    <path id="Path_3568" data-name="Path 3568" d="M771.135,1072.7l-2.543,14.593-1.716-.3-6.852-12.408-1.9,10.877-2.086-.358,2.556-14.593,1.7.3,6.852,12.408,1.889-10.851Z" transform="translate(-559.865 -760.155)" fill="#fff"/>
    <path id="Path_3569" data-name="Path 3569" d="M826.792,1083.19l-5-.864.309-1.816,12.074,2.1-.321,1.816-5-.864-2.235,12.764-2.062-.358Z" transform="translate(-608.559 -767.552)" fill="#fff"/>
    <path id="Path_3570" data-name="Path 3570" d="M456.53,1048.121l1.42,3.469a32.507,32.507,0,0,0,2.284,5.877,9.181,9.181,0,0,0,1.815,2.47,13.711,13.711,0,0,0,3.025,2.468,1.234,1.234,0,0,1,.73,1.168,1.234,1.234,0,0,1-.8,1.116c-1.074.21-4.1-1.124-6.58-4.074s-2.383,3.124-2.383,5.345-.333,9.063-1.012,9.606c-1,.792-2.025-.135-1.975-2.346s-.259-8.864-1.432-8.8-1,11.334-1,11.334.42,2.395-.926,2.468c-2.469.2-1.716-11.791-1.617-12.937.074-.791-1.235-.778-1.235.073s.42,11.248-2.062,11.471c-1.9.171.506-9.878-.778-11.964s-1.05,7.8-2.876,7.888c-.667,0-1.235,0-.494-5.74s5.173-21.37,5.173-21.37l10.877,2.579" transform="translate(-326.039 -741.73)" fill="#ffbe9d"/>
    <path id="Path_3571" data-name="Path 3571" d="M493.748,763.008s-15.334,12.679-16.321,17.012-8.383,52.445-8.383,52.445l-15-2.26s.753-59.815,6-65.618,18.247-19.42,18.247-19.42Z" transform="translate(-336.232 -519.223)" fill="#ffbe9d"/>
    <path id="Path_3572" data-name="Path 3572" d="M479.231,829.929a1.454,1.454,0,0,1-.432-.494,3.062,3.062,0,0,1,1-4.074,3.148,3.148,0,0,1,3.271-.16,2.469,2.469,0,0,1,1.148,1.37,2.184,2.184,0,0,1-.123,1.679,1.8,1.8,0,0,1-2.469.7,1.481,1.481,0,0,1-.519-1.728c.173-.42.432-.519.444-.494a2.987,2.987,0,0,0-.247.556,1.235,1.235,0,0,0,.531,1.358,1.4,1.4,0,0,0,1.889-.617,1.729,1.729,0,0,0,.062-1.235,1.951,1.951,0,0,0-.926-1.074,2.654,2.654,0,0,0-2.741.124,2.716,2.716,0,0,0-1.235,1.938A4.075,4.075,0,0,0,479.231,829.929Z" transform="translate(-354.27 -578.206)" fill="#eb996e"/>
    <path id="Path_3573" data-name="Path 3573" d="M1084.77,988.116s14.025-4.939,14.987-4.148a40.594,40.594,0,0,1,3.581,6.419,2.048,2.048,0,0,1,.205.991,2.022,2.022,0,0,1-3.786.874l-2.3-4.185Z" transform="translate(-803.301 -695.997)" fill="#ffbe9d"/>
    <path id="Path_3574" data-name="Path 3574" d="M1105.89,988.116s14.027-4.939,14.977-4.148a39.748,39.748,0,0,1,3.581,6.419,2.015,2.015,0,0,1,.2.991,1.968,1.968,0,0,1-.3.965,2.017,2.017,0,0,1-1.715.947,2.052,2.052,0,0,1-1.022-.28,2.019,2.019,0,0,1-.742-.758l-2.3-4.185Z" transform="translate(-818.941 -695.997)" fill="#ffbe9d"/>
    <path id="Path_3575" data-name="Path 3575" d="M1127.11,988.116s14.037-4.939,14.99-4.148a39.944,39.944,0,0,1,3.581,6.419,2.014,2.014,0,0,1,.2.991,2.013,2.013,0,0,1-1.038,1.661,2.02,2.02,0,0,1-2-.029,2,2,0,0,1-.742-.758l-2.3-4.185Z" transform="translate(-834.655 -695.997)" fill="#ffbe9d"/>
    <path id="Path_3576" data-name="Path 3576" d="M1116.534,988.745a7.035,7.035,0,0,1-1.235-2.359,11.278,11.278,0,0,0-1.308-2.469,2.3,2.3,0,0,0-1.136-.864,3.71,3.71,0,0,0-1.593.358,64.733,64.733,0,0,0-8.321,3.333,8.076,8.076,0,0,1,2.187-1.506,30.349,30.349,0,0,1,5.9-2.469,3.96,3.96,0,0,1,1.925-.383,2.72,2.72,0,0,1,1.507,1.123,9.853,9.853,0,0,1,1.233,2.642A25.3,25.3,0,0,1,1116.534,988.745Z" transform="translate(-816.757 -694.885)" fill="#eb996e"/>
    <path id="Path_3577" data-name="Path 3577" d="M1153.142,988.1a7.047,7.047,0,0,1-.752-1.482,26.068,26.068,0,0,0-1.988-3.408,1.729,1.729,0,0,0-1.681-.654,8.8,8.8,0,0,0-1.679.444c-1.012.358-1.715.247-1.7.161s.618-.136,1.544-.58a6.618,6.618,0,0,1,1.764-.605,2.473,2.473,0,0,1,1.235.062,2.367,2.367,0,0,1,1.061.765C1152.8,985.468,1153.339,988.061,1153.142,988.1Z" transform="translate(-848.155 -694.546)" fill="#eb996e"/>
    <path id="Path_3578" data-name="Path 3578" d="M1174.262,988.1a7.039,7.039,0,0,1-.752-1.482,25.49,25.49,0,0,0-1.988-3.408,1.728,1.728,0,0,0-1.679-.654,8.7,8.7,0,0,0-1.679.444c-1.012.358-1.715.247-1.7.161s.618-.136,1.544-.58a6.807,6.807,0,0,1,1.767-.605,2.463,2.463,0,0,1,1.232.062,2.307,2.307,0,0,1,1.064.765C1173.917,985.468,1174.462,988.061,1174.262,988.1Z" transform="translate(-863.795 -694.546)" fill="#eb996e"/>
    <path id="Path_3579" data-name="Path 3579" d="M1856.19,422.873a6.545,6.545,0,0,0,3.9-6.062,6.173,6.173,0,0,0-12.346-.062,6.555,6.555,0,0,0,3.915,6.173c-9.458,1.432-9.037,11.716-9.037,11.716l22.382.1S1865.573,424.293,1856.19,422.873Z" transform="translate(-1364.509 -271.472)" fill="#fff"/>
    <path id="Path_3580" data-name="Path 3580" d="M1837.7,414.435a5.007,5.007,0,0,0,1.37-.272,5.739,5.739,0,0,0,3.036-2.037,5.433,5.433,0,1,0-8.7-.173,5.693,5.693,0,0,0,2.95,2.161c.841.259,1.357.259,1.347.321s-.125,0-.358,0a4.311,4.311,0,0,1-1.061-.123,5.692,5.692,0,0,1-3.249-2.124,5.9,5.9,0,0,1-.815-5.642,5.975,5.975,0,0,1,11.271.222,5.911,5.911,0,0,1-1.035,5.6,5.7,5.7,0,0,1-3.321,2,4.435,4.435,0,0,1-1.064.074C1837.82,414.472,1837.7,414.459,1837.7,414.435Z" transform="translate(-1356.524 -265.589)" fill="#455a64"/>
    <path id="Path_3581" data-name="Path 3581" d="M1823.31,449.783a12.39,12.39,0,0,1,2.1-3.346,12.143,12.143,0,0,1,2.618-2.975,12.806,12.806,0,0,1-2.1,3.358A12.607,12.607,0,0,1,1823.31,449.783Z" transform="translate(-1350.21 -295.801)" fill="#455a64"/>
    <path id="Path_3582" data-name="Path 3582" d="M1808.523,378.658s.174.222.483.667l1.357,1.938c1.235,1.741,2.888,4.247,5.086,7.407a.132.132,0,0,1,.034.048.161.161,0,0,1,0,.114.079.079,0,0,1-.119.048H1801.1a.178.178,0,0,1-.125-.05.176.176,0,0,1-.06-.123.211.211,0,0,1,0-.1l.335.272a30.765,30.765,0,0,1-13.581,7.136,29.375,29.375,0,0,1-8.778.7,28.986,28.986,0,0,1-9.211-2,31.215,31.215,0,0,1-8.641-5.062,30.31,30.31,0,0,1-6.754-8,30.647,30.647,0,1,1,56.666-20.185c.062.457.138.9.2,1.346s0,.889.075,1.309c0,.864.112,1.691.086,2.469a31.154,31.154,0,0,1-.395,4.309,29.015,29.015,0,0,1-1.58,5.766c-.247.63-.457,1.111-.6,1.42a3.781,3.781,0,0,1-.236.482,3.7,3.7,0,0,1,.174-.494c.135-.333.322-.815.542-1.457a30.961,30.961,0,0,0,1.458-5.753A31.387,31.387,0,0,0,1811,366.6c0-.79-.073-1.605-.109-2.469a6.52,6.52,0,0,0-.088-1.3l-.21-1.333a30.125,30.125,0,1,0-55.776,19.753,29.759,29.759,0,0,0,6.617,7.852,30.973,30.973,0,0,0,8.433,4.938,28.54,28.54,0,0,0,9.035,1.988,29.232,29.232,0,0,0,8.643-.654,30.219,30.219,0,0,0,13.42-6.951.222.222,0,0,1,.309,0,.215.215,0,0,1,0,.247l-.332-.284a2.2,2.2,0,0,1,.654-.086h7.208l6.471.074-.125.235-5-7.58-1.235-1.975A1.418,1.418,0,0,1,1808.523,378.658Z" transform="translate(-1295.781 -215.528)" fill="#263238"/>
  </g>
</svg>
