<svg xmlns="http://www.w3.org/2000/svg" width="133.293" height="133.521" viewBox="0 0 133.293 133.521">
  <g id="_2206_w039_" data-name="2206_w039_" transform="translate(0)">
    <path id="Path_3263" data-name="Path 3263" d="M175.806,277.379q-2.247-10.915-4.536-21.819a2.893,2.893,0,0,1,.4-2.336,27.267,27.267,0,0,0,4.132-12.065c.426-4.988-1.613-9.086-5.244-12.562a1.944,1.944,0,0,1,.267-.219c3.572-1.929,5.4-4.933,4.977-8.975a8.5,8.5,0,0,0-6.368-7.581.953.953,0,0,1-.779-.816,82.9,82.9,0,0,1-1.4-9.6c-.441-5.459-.23-10.93-.249-16.393a38.726,38.726,0,0,0-1.131-9.205,38.261,38.261,0,0,0-33.805-28.754,35.908,35.908,0,0,0-23.135,6.053,37.4,37.4,0,0,0-17.145,27.678c-.586,4.706-.178,9.442-.256,14.16a82.6,82.6,0,0,1-1.587,15.577,1.7,1.7,0,0,1-1.328,1.458,8.793,8.793,0,0,0-5.663,10.774,9,9,0,0,0,5.029,5.767c-4.617,4.428-5.685,9.194-5.274,12.951a31.814,31.814,0,0,0,3.338,11.067c.223.445.586.842.464,1.406-.668,3.063-1.331,6.131-2.062,9.487l-7.788-15.61c-.1-.2-.215-.408-.312-.616a2.677,2.677,0,0,1,0-1.636c.464-2.4,1.012-4.792,1.369-7.21a5.453,5.453,0,0,0-4.484-6.042,5.857,5.857,0,0,0-5.737,2.3,1.593,1.593,0,0,1-2.136.471c-4.443-1.84-8.894-3.579-13.344-5.381a6.632,6.632,0,0,0-3.635-.59,6.7,6.7,0,0,0-5.671,5.341,6.617,6.617,0,0,0,3.408,7.013q5.685,3.293,11.408,6.516a2.5,2.5,0,0,1,1.28,1.654c2.707,9.576,5.474,19.137,8.189,28.709a2.459,2.459,0,0,0,2.641,2.1q51.826-.022,103.648,0C175.243,280.438,176.2,279.278,175.806,277.379ZM71.854,276.021c-.846,0-.975-.445-1.142-1.024-2.318-8.159-4.821-16.263-6.876-24.478-.89-3.546-2.437-5.967-5.823-7.51-3.256-1.484-6.26-3.523-9.387-5.3-1.005-.571-1.725-1.3-1.413-2.548.337-1.35,1.584-1.854,3.115-1.25,4.15,1.632,8.289,3.3,12.432,4.955.983.393,1.969.775,2.937,1.205a2.639,2.639,0,0,0,3.368-.668c.612-.694,1.309-1.305,1.943-1.98.475-.5,1-.909,1.691-.56s.579,1.113.46,1.732c-.452,2.4-.894,4.821-1.454,7.188a4.258,4.258,0,0,0,.371,3.056q6.576,13.1,13.1,26.232c.119.241.234.486.441.927C80.911,276,76.383,275.962,71.854,276.021Zm25.906-46.7c1.176-.074,2.1-.371,2.529-1.528a2.194,2.194,0,0,0-2.147-2.948c-2.081-.037-4.165.026-6.246-.019-3.293-.067-5.563-3.041-4.536-5.912a4.251,4.251,0,0,1,3.979-2.948,2.431,2.431,0,0,0,2.448-2.151,76.029,76.029,0,0,0,2.162-16.463c.111-5.192-.319-10.384.252-15.554,1.242-11.226,6.724-19.883,16.37-25.631,20.55-12.239,44.876.886,49.2,22.089a40.867,40.867,0,0,1,.786,7.714c.078,5.511-.234,11.026.274,16.53a77.044,77.044,0,0,0,1.98,11.738,2.177,2.177,0,0,0,2.092,1.71c2.789.286,4.606,2.11,4.525,4.476a4.825,4.825,0,0,1-4.988,4.406c-1.94.022-3.883,0-5.826,0-1.55,0-2.466.82-2.5,2.159s.831,2.192,2.374,2.3c5.934.4,10.014,4.08,10.822,9.936.371,2.722-.53,5.278-1.673,8.07-.9-3.987-3.649-5.3-7.024-6.064-6.375-1.446-12.7-3.089-19.063-4.6-.8-.189-1.012-.475-1-1.265q.067-4.658,0-9.313a1.742,1.742,0,0,1,.86-1.561,24.141,24.141,0,0,0,10.255-20.057c.033-3.149.067-6.3-.026-9.45-.033-1.146.371-1.461,1.38-1.3a3.09,3.09,0,0,0,.556,0c1.628-.026,2.555-.857,2.533-2.266a2.184,2.184,0,0,0-2.477-2.177h-5.274a6.037,6.037,0,0,1-6.164-4.751c-1.483-5.192-2.967-10.384-4.391-15.577-.349-1.268-.89-2.259-2.377-2.248s-2,1.038-2.344,2.288c-1.283,4.617-2.6,9.227-3.9,13.837-1.2,4.246-4.08,6.438-8.53,6.442H102.815a2.161,2.161,0,0,0-2.366,1.7,2.125,2.125,0,0,0,1.19,2.544,2.273,2.273,0,0,0,1.484.193c1.483-.248,1.8.393,1.743,1.791-.115,2.774-.056,5.563-.03,8.337a25.136,25.136,0,0,0,10.18,20.446,2,2,0,0,1,.942,1.8c-.059,3.1-.052,6.208,0,9.313,0,.8-.211,1.064-1.02,1.246-7.047,1.606-14.093,3.279-21.114,4.929-2.941.69-4.024,1.483-5.53,4.12-3.531-7.625,1.228-15.825,9.465-16.33Zm40.581,27.667c.4,1.276.8,2.548,1.239,3.805.152.434.263.742-.267.994-2.555,1.246-5.1,2.522-7.837,3.887V259.5a2.726,2.726,0,0,1,.438-1.42c3.019-5.437,6.045-10.867,9.012-16.318a1.231,1.231,0,0,1,1.747-.712,5.889,5.889,0,0,0,.664.189c3.423.794,3.423.794,2.815,4.232-.337,1.906-.742,3.8-.983,5.719a1.254,1.254,0,0,1-1.042,1.194c-1.4.438-2.8.9-4.183,1.391-1.661.575-2.125,1.535-1.6,3.219Zm-11.308,8.682c-2.722-1.354-5.289-2.63-7.885-3.924-.452-.226-.371-.5-.23-.9.445-1.257.846-2.533,1.246-3.809.549-1.758.085-2.693-1.665-3.312-1.387-.49-2.789-.942-4.183-1.406a1.176,1.176,0,0,1-.953-1.113q-.579-4.183-1.38-8.334c-.163-.842.074-1.016.831-1.139a29.048,29.048,0,0,0,3.356-.8.955.955,0,0,1,1.294.59q4.606,8.36,9.25,16.689a2.032,2.032,0,0,1,.341,1.035c-.03,2.088-.022,4.161-.022,6.42Zm-17.754-69.557c-.041-2.418,0-2.418,2.44-2.418h11.5a12.354,12.354,0,0,0,12.105-9.149c.686-2.344,1.339-4.692,2.1-7.351.842,2.967,1.613,5.682,2.366,8.385,1.2,4.313,3.916,7.024,8.33,7.9.872.174,1.165.478,1.113,1.417-.174,4.161.185,8.33-.274,12.491-.92,8.363-8.53,15.747-16.838,16.979a20.421,20.421,0,0,1-22.527-16.608C108.9,203.916,109.35,199.992,109.279,196.113Zm11.085,39.576c.019-2.726,0-5.452,0-8.363a24.694,24.694,0,0,0,17.761.1v8.423a.857.857,0,0,1-.742.964,28.109,28.109,0,0,1-16.318,0C120.431,236.62,120.361,236.249,120.365,235.689Zm5.63,40.333c-3.746-.056-7.492-.022-11.241-.022s-7.417-.03-11.1.019c-.86,0-1.087-.2-1.068-1.064.063-2.5.033-5.007.022-7.507,0-1.65-.827-2.574-2.225-2.566s-2.2.935-2.2,2.6c0,2.5-.026,5.007,0,7.507,0,.723-.082,1.076-.942,1.042-1.9-.067-3.794-.048-5.689,0a1.164,1.164,0,0,1-1.254-.794c-.712-1.55-1.483-3.067-2.288-4.58a2,2,0,0,1-.156-1.446c1.513-7.132,2.993-14.268,4.5-21.4a2.055,2.055,0,0,1,1.669-1.654q6.249-1.461,12.495-2.967c.853-.208.994.189,1.113.909.508,3.238,1.113,6.464,1.6,9.7a2.518,2.518,0,0,0,1.954,2.225c1.146.345,2.27.76,3.412,1.113.549.171.679.467.49,1.005-.4,1.113-.775,2.266-1.139,3.408-.53,1.658-.2,2.529,1.328,3.3,3.534,1.788,7.065,3.59,10.64,5.289a1.677,1.677,0,0,1,1.131,1.9,18.707,18.707,0,0,0,0,2.919C127.126,275.806,126.859,276.021,125.994,276.021Zm-3.138-34.013a60.583,60.583,0,0,0,6.475.608c2.118-.007,4.1-.371,6.323-.6l-6.4,11.527C127.066,249.6,125,245.88,122.857,242.008Zm47.227,34.013c-2.967-.03-5.934-.044-8.875,0-.786,0-.894-.289-.886-.957.033-2.455.019-4.91,0-7.362,0-1.9-.76-2.841-2.255-2.819-1.428.019-2.177.957-2.181,2.752,0,2.362-.052,4.725.022,7.084.03.987-.152,1.339-1.25,1.313-3.709-.082-7.392-.03-11.089-.03s-7.306-.026-10.956,0c-.834,0-1.072-.152-1.2-1.087-.434-3.093.5-4.985,3.649-6.075a66.215,66.215,0,0,0,8.048-3.95c1.636-.831,1.973-1.647,1.428-3.364-.33-1.053-.627-2.125-1.05-3.145-.337-.816-.063-1.113.7-1.328,1.146-.326,2.277-.716,3.4-1.113a2.4,2.4,0,0,0,1.658-2.014c.516-3.238,1.113-6.461,1.6-9.7.141-.953.371-1.087,1.305-.846,3.6.935,7.239,1.769,10.867,2.618a2.721,2.721,0,0,1,2.225,2.329q2.7,13.422,5.493,26.833C170.885,275.877,170.781,276.021,170.084,276.021Z" transform="translate(-42.599 -146.932)" fill="#ffa000"/>
    <path id="Path_3264" data-name="Path 3264" d="M262.082,330.287a9.269,9.269,0,0,1-6.676-2.492,4.71,4.71,0,0,1-1.572-3.709,1.532,1.532,0,0,1,1.439-1.58,1.485,1.485,0,0,1,1.836,1.28c.2,1.547,1.205,2.181,2.466,2.652a7.354,7.354,0,0,0,5.53-.126,2.9,2.9,0,0,0,2.069-2.37,1.518,1.518,0,0,1,1.854-1.432,1.577,1.577,0,0,1,1.465,1.836,5.191,5.191,0,0,1-2.285,4.08,9.642,9.642,0,0,1-6.127,1.862Z" transform="translate(-175.49 -257.377)" fill="#ffa000"/>
    <path id="Path_3265" data-name="Path 3265" d="M240.283,294.164a6.842,6.842,0,0,1,.059-.831c.263-1.346,1.209-2.351,2.207-2.288,1.376.082,1.825,1.153,2.1,2.225a4.02,4.02,0,0,1-.226,2.715c-.389.827-.916,1.528-1.947,1.513a2.093,2.093,0,0,1-1.854-1.458A3.553,3.553,0,0,1,240.283,294.164Z" transform="translate(-166.957 -237.596)" fill="#ffa000"/>
    <path id="Path_3266" data-name="Path 3266" d="M304.575,294.35a6.839,6.839,0,0,1-.059.831,2.178,2.178,0,1,1-4.343-.056,4.3,4.3,0,0,1,.389-2.826,1.89,1.89,0,0,1,3.594.048A3.6,3.6,0,0,1,304.575,294.35Z" transform="translate(-204.591 -237.581)" fill="#ffa000"/>
  </g>
</svg>
