<svg xmlns="http://www.w3.org/2000/svg" width="128.027" height="123.778" viewBox="0 0 116.514 112.705">
  <g id="Group_8280" data-name="Group 8280" transform="translate(-2479.913 -1645.524)">
    <path id="Path_1695" data-name="Path 1695" d="M2479.913,1838.39c.773-1.329,2.04-1.33,3.357-1.305,5.912.11,10.286,2.689,12.907,8.043a12.6,12.6,0,0,1,1.242,5.6q0,7.622,0,15.243a5.8,5.8,0,0,0,6.142,6.1c.91,0,1.823.049,2.729-.015.716-.051.864.223.918.891a7.685,7.685,0,0,0,15.255.233c.1-.934.409-1.154,1.311-1.133,2.843.066,5.687.027,8.532.03a3,3,0,0,1,.325.048,25.407,25.407,0,0,1-3.947,8.059c-6.719,8.988-15.772,12.844-26.743,10.832-11.065-2.029-18.089-8.993-21.26-19.8a29.99,29.99,0,0,0-.771-3.473Z" transform="translate(0 -133.308)" fill="#ffa000"/>
    <path id="Path_1696" data-name="Path 1696" d="M2671.579,1734.55a17.17,17.17,0,0,1,8.383-12.247,18.39,18.39,0,0,1,10.14-2.312c2.693.065,2.694.013,2.694-2.687,0-3.3-.027-6.6.02-9.9.011-.792-.192-1.133-.993-.98-.88.169-1.065-.224-1.038-1.051.063-1.932,0-3.867.033-5.8.013-.64-.068-.961-.836-.914-.973.059-2.3.34-2.844-.16-.642-.584-.2-1.924-.2-2.933-.02-5.081.009-10.163-.027-15.244-.006-.85.149-1.225,1.1-1.159.89.062,2.067.406,2.621-.144s.147-1.726.166-2.625c.029-1.326.056-2.656-.01-3.98-.04-.8.216-1.126,1.011-.991.77.13,1.086-.139,1.015-.966-.076-.866-.025-1.743-.015-2.615a5.772,5.772,0,0,1,6.042-6.084c.3-.007.606,0,.91,0q11.547,0,23.092,0a7.94,7.94,0,0,0,1.247-.056,1.885,1.885,0,0,0-.267-3.759c-.265-.012-.531,0-.8,0q-22.24,0-44.479-.02c-.927,0-1.452.119-1.236,1.191.1.513-.1.747-.673.736-1.516-.031-3.034-.039-4.549,0-.6.017-.664-.246-.659-.739.02-2.123.025-4.247,0-6.37-.007-.544.146-.714.7-.7,1.44.037,2.883.049,4.322,0,.695-.025,1.011.169.87.879-.2.987.347,1.059,1.142,1.058q22.3-.027,44.593-.019a6.7,6.7,0,0,1,4.562,1.39,5.849,5.849,0,0,1-3.755,10.336q-12.171.025-24.344.007c-.3,0-.608-.013-.91.005a1.909,1.909,0,0,0-1.9,1.873c-.047.756.031,1.519-.023,2.274-.074,1.031-.062,1.889,1.39,1.6.642-.129.6.381.6.808,0,2.048.026,4.1-.015,6.143-.014.654.187.829.828.823.975-.011,2.249-.434,2.852.169.653.652.206,1.94.21,2.948.023,5.119-.006,10.238.028,15.357.005.779-.169,1.06-.991,1.023-.934-.042-2.161-.422-2.739.149s-.145,1.793-.166,2.729c-.03,1.327-.051,2.656.009,3.981.032.718-.205.992-.891.858-1-.2-1.143.28-1.131,1.172.051,3.829.044,7.66,0,11.489-.008.764.218.943.951.937,3.905-.034,7.811-.005,11.716-.027.664,0,1.01.057,1,.9-.046,4.626-.02,9.252-.028,13.878,0,.241.155.6-.136.707-.42.149-.423-.3-.555-.541a5.883,5.883,0,0,0-5.555-3.259c-7.85.009-15.7.045-23.548-.017A13.117,13.117,0,0,0,2671.579,1734.55Z" transform="translate(-133.28 -4.528)" fill="#ffa000"/>
    <path id="Path_1697" data-name="Path 1697" d="M2691.258,1942.211c-3.944,0-7.888.044-11.831-.011a7.765,7.765,0,0,1-.814-15.5c8.607-.068,17.215-.032,25.823-.021a1.9,1.9,0,0,1,2.011,2q.059,5.744,0,11.489c-.015,1.345-.85,2.033-2.334,2.039C2699.828,1942.222,2695.543,1942.212,2691.258,1942.211Z" transform="translate(-133.303 -195.647)" fill="#ffa000"/>
    <path id="Path_1698" data-name="Path 1698" d="M2823.441,1889.142c0,4.2-.024,8.41.021,12.614.009.815-.229,1.057-1.009.969-.93-.1-2.153.39-2.729-.184s-.164-1.8-.168-2.732c-.02-4.338-1.953-7.271-5.56-8.379-.072-.022-.137-.068-.209-.084-.654-.142-1.649-.077-1.882-.467-.336-.563-.136-1.457-.137-2.21-.006-4.053.018-8.106-.022-12.159-.008-.776.166-1.027.984-1.014q4.885.074,9.772,0c.856-.015.961.292.955,1.034C2823.424,1880.733,2823.441,1884.938,2823.441,1889.142Z" transform="translate(-230.906 -160.042)" fill="#ffa000"/>
    <path id="Path_1699" data-name="Path 1699" d="M2802.875,1947.172c-1.021,0-2.042-.028-3.061.011-.572.022-.794-.123-.783-.745.037-2.116.028-4.234,0-6.35-.006-.531.129-.732.695-.711,1.17.044,2.344-.023,3.514.026a3.874,3.874,0,0,1,3.615,3.69c.05,1.132-.017,2.269.027,3.4.021.573-.2.7-.722.687C2805.069,1947.15,2803.972,1947.172,2802.875,1947.172Z" transform="translate(-222.082 -204.499)" fill="#ffa000"/>
    <path id="Path_1700" data-name="Path 1700" d="M2531.584,1645.539q-24.5,0-49-.015a2.828,2.828,0,0,0-2.673,1.311v44.14a2.769,2.769,0,0,0,2.576,1.255q24.612-.031,49.225-.017c1.953,0,2.574-.639,2.574-2.586q0-20.691,0-41.381C2534.288,1646.168,2533.666,1645.539,2531.584,1645.539Zm-38.926,40.826c-2.042-.034-4.086-.024-6.128,0-.5,0-.757-.088-.749-.674.028-2.156.021-4.312,0-6.469,0-.453.164-.575.593-.572,2.156.016,4.313.025,6.469,0,.608-.008.663.29.653.768-.021,1.021-.006,2.043-.006,3.064s-.036,2.045.013,3.064C2493.535,1686.2,2493.291,1686.375,2492.658,1686.364Zm16.391-.766c.009.6-.17.791-.769.766-1.059-.045-2.122-.012-3.183-.012-.985,0-1.974-.05-2.954.016-.736.05-.879-.233-.866-.9q.062-3.011,0-6.024c-.015-.664.2-.813.83-.8,2.045.037,4.092.042,6.138,0,.658-.014.817.2.806.824Q2508.994,1682.529,2509.049,1685.6Zm19.366-.08c.01.618-.13.855-.808.848q-4.992-.052-9.986,0c-.64.005-.847-.179-.834-.831q.058-3.063,0-6.127c-.01-.6.172-.779.765-.767,1.7.035,3.4.012,5.106.012,1.665,0,3.33.025,4.993-.014.591-.013.775.147.764.753Q2528.361,1682.454,2528.415,1685.519Zm0-15.667c0,.731-.174.942-.928.941q-20.414-.036-40.828,0c-.683,0-.894-.146-.89-.866q.048-8.814,0-17.628c-.005-.82.319-.894.991-.893,6.786.019,13.571.012,20.357.012,6.748,0,13.5.017,20.244-.021.851,0,1.067.2,1.061,1.057Q2528.363,1661.151,2528.42,1669.851Z" transform="translate(0 0)" fill="#ffa000"/>
    <path id="Path_1701" data-name="Path 1701" d="M2583.121,1869.464c-.1-4.443-2.174-7.926-5.856-10.722,0,.607,0,1.011,0,1.415a7.69,7.69,0,0,1-6.453,7.746c-.412.071-1.313.45-1.2-.381.159-1.136-.984-2.781.625-3.357,2.129-.763,3.4-2.24,3.15-4.444a3.861,3.861,0,0,0-4.051-3.349q-7.562-.016-15.125,0a3.836,3.836,0,0,0-4.07,4.042q-.031,9.5,0,18.991c0,1.538.687,2.211,2.21,2.221,2.123.014,4.248.059,6.367-.021.943-.036,1.146.295,1.087,1.142a20.283,20.283,0,0,0,0,2.841,3.868,3.868,0,0,0,4.1,3.8,3.911,3.911,0,0,0,3.746-4.05c.018-.909.059-1.824-.013-2.728-.064-.8.187-1.008.989-1,4.359.042,8.718.009,13.078.032.637,0,.89-.134,1.012-.836A58.4,58.4,0,0,0,2583.121,1869.464Zm-25.759,6.2c-1.347.255-1.347.255-1.347-1.779a9.631,9.631,0,0,0-.006-1.022c-.067-.624.1-.92.8-1.059a3.853,3.853,0,0,0,3.083-3.713,3.811,3.811,0,0,0-2.866-3.762c-.884-.219-1.166-.611-1.022-1.457a6.238,6.238,0,0,0,.008-1.021c0-1.774,0-1.774,1.76-1.347a7.764,7.764,0,0,1-.413,15.16Z" transform="translate(-48.866 -146.727)" fill="#ffa000"/>
  </g>
</svg>
