<svg xmlns="http://www.w3.org/2000/svg" width="128.027" height="123.778" viewBox="0 0 128.027 123.778">
  <g id="Group_8276" data-name="Group 8276" transform="translate(-171.246 -887.207)">
    <path id="Path_1649" data-name="Path 1649" d="M260.635,1086.855c.952,1.469.7,3.2,1.049,4.8,1.08,4.94-.878,9.34-2.586,13.738a77.649,77.649,0,0,1-23.841,32.587,5.487,5.487,0,0,1-5.724,1.065c-9.849-3.848-19.762-7.566-28.523-13.7-7.757-5.431-14.946-11.465-20.445-19.268a45.755,45.755,0,0,1-7.879-20.495,6.249,6.249,0,0,1,0-.665,25.135,25.135,0,0,0,8.8,4.483c5.589,1.49,11,1.4,15.891-2.131a16.159,16.159,0,0,0,6.972-13.8,38.92,38.92,0,0,1,2.718-14.668c.318-.8.545-1.086,1.425-.479a23.88,23.88,0,0,0,28.3-.705c4.261-3.29,9.088-4.6,14.231-5.318.722-.1.81.426,1.04.8a26.964,26.964,0,0,1,3.5,10.082c.682,4.152,1.427,8.293,2.168,12.435a13.524,13.524,0,0,0,.507,1.641.922.922,0,0,1,.264.59,9.21,9.21,0,0,1-.721,2.554c-1.8,4.924-3.519,9.878-5.288,14.813-.2.566-.276,1.447-.977,1.433-.753-.014-.672-.92-.805-1.483q-3.544-14.983-7.066-29.971c-.327-1.383-.645-2.767-.89-4.079-1.726,7.833-3.513,15.747-5.241,23.674-.25,1.148-.816,1.728-2.009,1.629-.132-.011-.266,0-.4,0-3.545-.025-3.232.22-4.553-2.767a9.351,9.351,0,0,0-9.339-5.688,9.745,9.745,0,0,0-9.23,6.323,10.2,10.2,0,0,0,9.071,14.15,9.95,9.95,0,0,0,9.859-6.389c.81-2.081.815-2.08,3.1-2.084,1.244,0,2.488,0,3.733,0,2.109,0,2.125,0,2.6-2.113.548-2.427,1.068-4.861,1.628-7.286.05-.217.095-.434.15-.649.111-.43.183-.994.7-1.024.572-.033.582.585.7.982.619,2.135,1.049,4.318,1.559,6.48,1.96,8.3,3.93,16.6,5.854,24.916a4.1,4.1,0,0,1,.205,1.382c.806-2.82,1.922-5.519,2.9-8.265q2.875-8.1,5.818-16.181C260.028,1087.71,260.127,1087.161,260.635,1086.855Z" transform="translate(-1.112 -128.456)" fill="#ffa000"/>
    <path id="Path_1650" data-name="Path 1650" d="M185.443,1107.2c-4.735-.125-9.648-2.516-13.691-6.834a1.542,1.542,0,0,1-.37-1.337,21.31,21.31,0,0,1,17.488-19.312c4.006-.666,7.854.121,11.725.9.465.093.618.26.438.817a49,49,0,0,0-1.99,14.429C198.933,1102.25,193.394,1107.223,185.443,1107.2Z" transform="translate(-0.093 -149.605)" fill="#ffa000"/>
    <path id="Path_1651" data-name="Path 1651" d="M171.251,912.085a2.35,2.35,0,0,1,.473-1.5c.591-.885,1.154-1.788,1.759-2.663,1.2-1.744,2.821-2,4.567-.722,1.61,1.181,3.195,2.4,4.8,3.581q3.547,2.617,6.77.455c2.036-1.362,2.775-3.693,2.075-6.477q-1.6-6.368-3.181-12.741c-.526-2.111.122-3.221,2.194-3.761,1.2-.312,2.4-.622,3.6-.917,1.723-.423,2.71.2,2.859,1.946.459,5.4.862,10.8,1.283,16.2.114,1.461.168,2.927.323,4.383a10.985,10.985,0,0,0,3.348,6.912c1.211,1.177,2.365,2.412,3.6,3.568a.846.846,0,0,1,.117,1.335,31.163,31.163,0,0,0-2.776,4.831c-.255.543-.5.667-1.113.531-2.03-.45-4.077-.832-6.128-1.175a22.58,22.58,0,0,0-7.428.07c-.571.094-.77-.037-.964-.545a13.055,13.055,0,0,0-7.057-7.225c-2.519-1.194-4.984-2.5-7.492-3.72A2.6,2.6,0,0,1,171.251,912.085Z" transform="translate(0 0)" fill="#ffa000"/>
    <path id="Path_1652" data-name="Path 1652" d="M378.527,1009.639a48.85,48.85,0,0,0-5.572,1.172,30.119,30.119,0,0,0-8.926,4.83,20.024,20.024,0,0,1-22.924.594c-1.67-1.084-1.67-1.084-.539-2.768a24.558,24.558,0,0,1,36.81-4.9C377.7,1008.852,378.015,1009.161,378.527,1009.639Z" transform="translate(-131.139 -89.629)" fill="#ffa000"/>
    <path id="Path_1653" data-name="Path 1653" d="M560.742,1136.845a34.75,34.75,0,0,0-2.4-8.472l-.009-.563c1.287-2.456,1.915-5.161,2.931-7.72a17,17,0,0,1,1.267-2.832l5.128,25.591c1.322-1.978,2.524-3.717,3.653-5.5a1.411,1.411,0,0,1,1.377-.751q13.4.033,26.792-.008c.862,0,1,.261,1,1.045,0,3.244.03,3.244-3.179,3.244-7.509,0-15.018.016-22.526-.021a2.084,2.084,0,0,0-1.866.922c-2.541,3.248-5.143,6.448-7.9,9.883l-3.266-16.238C561.154,1135.737,561.52,1136.69,560.742,1136.845Z" transform="translate(-301.207 -179.013)" fill="#ffa000"/>
    <path id="Path_1654" data-name="Path 1654" d="M371.756,908.484c.219.914-.028,1.435-1.006,1.616a11.315,11.315,0,0,0-2.117.755c-1.775.72-1.776.728-2.1-1.187q-1.467-8.774-2.928-17.549c-.37-2.221.468-3.514,2.769-4.285,3.063-1.026,3.741-.673,3.994,2.374C370.881,896.31,371.3,902.418,371.756,908.484Z" transform="translate(-149.621 -0.085)" fill="#ffa000"/>
    <path id="Path_1655" data-name="Path 1655" d="M432.549,908.637c1.076-6.546,2.116-12.923,3.176-19.3.365-2.194,1.44-2.626,3.332-1.381,4.286,2.82,4.484,3.412,2.857,8.26q-1.958,5.838-3.873,11.69c-.232.71-.5,1.086-1.373.957A15.307,15.307,0,0,0,432.549,908.637Z" transform="translate(-203.331 -0.049)" fill="#ffa000"/>
    <path id="Path_1656" data-name="Path 1656" d="M501.777,944.9a3.6,3.6,0,0,1,2.831,1.732c.6,1.2-.023,2.1-.769,2.989-2.257,2.683-4.521,5.363-6.715,8.1-.53.661-.914.63-1.487.185a9.208,9.208,0,0,0-1.007-.642c-2.035-1.194-2.037-1.193-.746-3.261,1.5-2.4,2.994-4.812,4.507-7.208A3.457,3.457,0,0,1,501.777,944.9Z" transform="translate(-250.366 -44.896)" fill="#ffa000"/>
    <path id="Path_1657" data-name="Path 1657" d="M370.066,1185.264a6.4,6.4,0,1,1-6.439,6.358A6.332,6.332,0,0,1,370.066,1185.264Z" transform="translate(-149.7 -231.931)" fill="#ffa000"/>
  </g>
</svg>
