<svg xmlns="http://www.w3.org/2000/svg" width="151.999" height="202.771" viewBox="0 0 151.999 202.771">
  <g id="Group_8250" data-name="Group 8250" transform="translate(-471.121 281.584)">
    <path id="Path_1518" data-name="Path 1518" d="M539.89-193.977c-1.465,1.109-2.871,2.315-4.408,3.316-9.451,6.122-19.67,5.687-28.646-1.109-6.717-5.085-11.5-11.7-15.249-19.134-.6-1.174-1.112-2.39-1.671-3.584-.736-1.579-1.007-3.434-2.979-4.222-.6-.242-1.053-1.05-1.422-1.687a24.066,24.066,0,0,1-2.891-16.419c.242-1.475.706-2.94,2.234-3.692.526-.258.37-.755.389-1.167a100.589,100.589,0,0,1,1.069-12.888,33.97,33.97,0,0,1,4.529-12.711,18.484,18.484,0,0,1,7.94-6.942,9.808,9.808,0,0,0,1.684-1.017,33,33,0,0,1,16.648-6.089,42.228,42.228,0,0,1,17.858,1.759,30.722,30.722,0,0,1,8.725,4.581,6.453,6.453,0,0,0,1.1.716c5.023,2.348,8.231,6.318,10.252,11.377a50.407,50.407,0,0,1,3.058,14.935c.173,2.237.392,4.47.592,6.707.026.3-.023.615.291.824,1.684,1.132,2.047,2.95,2.237,4.735a24.833,24.833,0,0,1-2.665,14.578,6.912,6.912,0,0,1-2.878,3.175,1.139,1.139,0,0,0-.562.69,64.9,64.9,0,0,1-11.511,19.568,7.435,7.435,0,0,1-1.436,1.55l-.19.19A9.321,9.321,0,0,1,539.89-193.977Z" transform="translate(25.277)" fill="#ffa000"/>
    <path id="Path_1519" data-name="Path 1519" d="M521.092-236.088c7.606-3.041,15.007-3.008,21.969,1.72a21.085,21.085,0,0,1,5.818,28.352c-.252.4-.464.814-.693,1.22a2.2,2.2,0,0,1-.847,1.138q-12.646,12.66-25.3,25.317c-2.135,1.779-4.451,1.583-6.834.612l-.824-.523c-1.687-1.583-3.4-3.13-4.951-4.853-4.287-4.294-8.565-8.6-12.875-12.875a61.1,61.1,0,0,0-4.922-4.729,14.631,14.631,0,0,1-2.057-2.116,21.628,21.628,0,0,1-5.51-13.941,21.213,21.213,0,0,1,29.562-19.958c.321.137.651.245.978.366a2.865,2.865,0,0,1,1.9,1.066l-.013-.01a2.96,2.96,0,0,0,2.263.549l.419-.347C519.8-235.444,520.262-236.131,521.092-236.088Z" transform="translate(29.383 97.903)" fill="#ffa000"/>
    <path id="Path_1520" data-name="Path 1520" d="M535.081-181.881c1-10.935-2.011-20.471-9.666-28.319-7.685-7.878-17.23-10.89-28.061-10.164-.176-.553.163-.9.34-1.275,4.608-9.886,9.245-19.755,13.816-29.654.484-1.043.788-1.007,1.622-.379a53.026,53.026,0,0,0,13.077,7.332,2.239,2.239,0,0,1,1.354,1.3,27.95,27.95,0,0,1,2.031,7.08c.16,1.024.013,1.478-1.1,1.867a12.2,12.2,0,0,0-8.113,12.564A12.393,12.393,0,0,0,530.4-210.377a12.383,12.383,0,0,0,14.241-8.911,12.234,12.234,0,0,0-7.806-14.846c-1.063-.37-1.534-.8-1.57-1.975a32.159,32.159,0,0,0-1.1-5.713c5.255,1.334,10.517,1.871,15.523,3.545a16.222,16.222,0,0,1,10.209,9.647,49.727,49.727,0,0,1,3.179,14.778c.373,4.124.389,8.264.585,12.394.206,4.353-1.668,7.531-4.931,10.1a41.943,41.943,0,0,1-12.4,6.328A87.058,87.058,0,0,1,535.081-181.881Z" transform="translate(59.44 66.898)" fill="#ffa000"/>
    <path id="Path_1521" data-name="Path 1521" d="M501.554-249.017a29.14,29.14,0,0,0-1.105,6.527c0,.131.016.337-.052.376-1.432.86-1.936,2.642-3.319,3.479a20.875,20.875,0,0,0-9.611,12.024c-1.844,6.511-3.8,13.182-2.623,20.19.579,3.457,2.2,5.651,5.664,6.841a19.95,19.95,0,0,0,6.733.716,3.556,3.556,0,0,0,3.512-3.568,3.589,3.589,0,0,0-3.47-3.61,21.36,21.36,0,0,0-5.128.154c-.893.2-.922-.461-.991-1.02a28.651,28.651,0,0,1,.608-11c.464-1.71.706-3.525,2.387-4.663a3.828,3.828,0,0,0,.955-1.55,21.089,21.089,0,0,1,4.2-6.04c2.789-2.711,5.373-2.711,8.165.02a19.649,19.649,0,0,1,3.816,5.35,7.624,7.624,0,0,0,1.841,2.531c.7.6.994,1.311-.023,2.142-9.631,7.874-13.709,18.11-12.731,30.425.072.906-.206.929-.916.765a78.823,78.823,0,0,1-18.548-6.334,24.138,24.138,0,0,1-7.086-5.206,10.014,10.014,0,0,1-2.711-7.083c.1-7.8.294-15.582,2.122-23.221.1-.425.216-.85.327-1.275,2.073-7.927,7.028-12.77,15.157-14.31C492.953-247.156,497.149-248.1,501.554-249.017Z" transform="translate(0 73.932)" fill="#ffa000"/>
    <path id="Path_1522" data-name="Path 1522" d="M502.472-219.662a27.07,27.07,0,0,0-7.037,2.41c-.716-.186-.34-.67-.288-1.066a3.466,3.466,0,0,0-.363-2.05c-2.332-4.673-5.2-8.859-9.915-11.514-1.233-.693-1.707-2.3-2.953-3.11-.128-.085-.072-.494-.056-.746a20.373,20.373,0,0,1,2.276-7.933,2.193,2.193,0,0,1,1.23-1.1,53.986,53.986,0,0,0,12.077-6.975c.8-.611,1.046-.471,1.442.386q6.2,13.416,12.466,26.792c.2.432.455.84.683,1.259a1.684,1.684,0,0,1,.536,1.125,2.6,2.6,0,0,0,.517,1.256c.01.543-.4.513-.729.478a29.869,29.869,0,0,0-8.986.723C503.077-219.672,502.76-219.829,502.472-219.662Z" transform="translate(24.321 66.879)" fill="#ffa000"/>
    <path id="Path_1523" data-name="Path 1523" d="M492.718-225.4a3.573,3.573,0,0,1,.526-1.952c.464-1.386.834-2.8,1.393-4.153.422-1.2.85-2.387,1.256-3.587.078-.229.235-.458.046-.742-1.838-2.714-2.469-5.958-3.885-8.869-1.01-2.077-.111-4.356,2.142-4.712a41.536,41.536,0,0,1,12.587-.013c2.263.34,3.087,2.577,2.237,4.7a52.658,52.658,0,0,0-2.822,7.23.862.862,0,0,1-.216.474c-1.5,1.164-.67,2.485-.258,3.767.765,2.384,1.5,4.781,2.358,7.132.343.942.046,1.109-.785,1.21a9.4,9.4,0,0,0-2.7.566,9.156,9.156,0,0,1-7.587-.1,12.7,12.7,0,0,0-2.358-.5C494.052-225.3,493.238-224.713,492.718-225.4Z" transform="translate(46.586 71.917)" fill="#ffa000"/>
    <path id="Path_1524" data-name="Path 1524" d="M512.151-244.809a5.691,5.691,0,0,1,5.7,5.7,5.8,5.8,0,0,1-5.71,5.733,5.791,5.791,0,0,1-5.765-5.8A5.7,5.7,0,0,1,512.151-244.809Z" transform="translate(80.034 83.485)" fill="#ffa000"/>
    <path id="Path_1525" data-name="Path 1525" d="M488.145-241.306a29.538,29.538,0,0,1,9.362-1.01c.409.01.958.389,1.252-.258.252,0,.586-.1.7.193.121.311-.15.491-.415.543-.327.065-.618.327-1,.15a7.228,7.228,0,0,0-4.6-.075,19.811,19.811,0,0,1-3.208.3C489.531-241.443,488.877-240.832,488.145-241.306Z" transform="translate(38.648 88.524)" fill="#ffa000"/>
    <path id="Path_1526" data-name="Path 1526" d="M491.832-221.531a68.643,68.643,0,0,1,4.951,4.853,4.063,4.063,0,0,1-1.946-1.5,17.5,17.5,0,0,0-2.426-2.25C492.093-220.723,491.737-221.014,491.832-221.531Z" transform="translate(46.982 136.329)" fill="#ffa000"/>
    <path id="Path_1527" data-name="Path 1527" d="M493.587-219.462a21.326,21.326,0,0,0,3.293.526,7.727,7.727,0,0,0,3.542-1.138c-.409,1.334-1.766,1.213-2.678,1.472A5.049,5.049,0,0,1,493.587-219.462Z" transform="translate(51.002 139.636)" fill="#ffa000"/>
    <path id="Path_1528" data-name="Path 1528" d="M493.562-244.279a16.967,16.967,0,0,1-1.393,4.153,3.411,3.411,0,0,1,.612-2.489C493.114-243.154,492.63-244.063,493.562-244.279Z" transform="translate(47.662 84.688)" fill="#ffa000"/>
    <path id="Path_1529" data-name="Path 1529" d="M496.243-236.943c-1.066,1.105-1.55-.2-2.263-.549C494.732-237.3,495.6-237.58,496.243-236.943Z" transform="translate(51.894 100.095)" fill="#ffa000"/>
    <path id="Path_1530" data-name="Path 1530" d="M495.3-236.749a7.325,7.325,0,0,1-1.9-1.066,5.465,5.465,0,0,0,1.256.078C495.719-237.916,495.389-237.272,495.3-236.749Z" transform="translate(50.586 99.362)" fill="#ffa000"/>
    <path id="Path_1531" data-name="Path 1531" d="M485.75-227.561a8.717,8.717,0,0,1,2.057,2.116C486.927-225.962,486.008-226.439,485.75-227.561Z" transform="translate(33.21 122.64)" fill="#ffa000"/>
    <path id="Path_1532" data-name="Path 1532" d="M499.88-253.434l2.1-1.959A3.024,3.024,0,0,1,499.88-253.434Z" transform="translate(65.288 59.458)" fill="#ffa000"/>
    <path id="Path_1533" data-name="Path 1533" d="M496.72-237.61a4.983,4.983,0,0,1-1.92.991C495.353-237.116,495.6-238.215,496.72-237.61Z" transform="translate(53.755 99.425)" fill="#ffa000"/>
    <path id="Path_1534" data-name="Path 1534" d="M500.579-254.375l1.436-1.55C502.015-254.964,501.217-254.744,500.579-254.375Z" transform="translate(66.875 58.25)" fill="#ffa000"/>
    <path id="Path_1535" data-name="Path 1535" d="M491.971-242.412l1.936.445C493.289-242.235,492.373-241.209,491.971-242.412Z" transform="translate(47.333 88.926)" fill="#ffa000"/>
    <path id="Path_1536" data-name="Path 1536" d="M491.605-242.188a2.005,2.005,0,0,1-.536-1.125C491.383-243,492.367-243.009,491.605-242.188Z" transform="translate(45.285 86.881)" fill="#ffa000"/>
    <path id="Path_1537" data-name="Path 1537" d="M486.106-241.786c.216.324-.255.831.288,1.066C485.7-240.664,485.668-240.779,486.106-241.786Z" transform="translate(33.361 90.347)" fill="#ffa000"/>
    <path id="Path_1538" data-name="Path 1538" d="M503.413-227.026l.847-1.138A.985.985,0,0,1,503.413-227.026Z" transform="translate(73.308 121.271)" fill="#ffa000"/>
    <path id="Path_1539" data-name="Path 1539" d="M471.976-205.4c.366-.271.628.065.925.036.451-.039.795-.193.775-.7a.583.583,0,0,0-.722-.585c-.978.232-.962-.3-1.115-1.046a19.663,19.663,0,0,1,.01-5.876,15.219,15.219,0,0,0-.226-1.678,70.867,70.867,0,0,1,.791-9.444c.007-.042,0-.1.023-.128,1.844-2.256,1.187-4.948,1.262-7.5a2.625,2.625,0,0,1,.765-1.893c.955-.876.867-2.024,1.109-3.1.056-.252.029-.69.154-.736,1.292-.484,1.668-2.031,2.96-2.5.235-.085.579-.255.615-.438.265-1.324,1.694-1.723,2.2-2.855.3-.67.978-.683,1.606-.625A5.148,5.148,0,0,0,487.355-246a3.541,3.541,0,0,1,3.4-.471,4.516,4.516,0,0,0,4.565-1.06,4.549,4.549,0,0,1,1.619-.827c.458-.16.782.137.791.618.016,1.279,0,2.557-.01,3.836a1.166,1.166,0,0,1-.033.248c-1.3.023-1.491,1.684-2.685,1.818-.6.069-1.086.3-1.148.886-.111,1.037-.8.971-1.527.978-1.887.013-2.531.85-1.969,2.659.213.68.15,1.086-.6,1.2-1.02.15-1.3,1.053-1.91,1.629a5.6,5.6,0,0,0-2.158,3.77c-2.4,1.3-.971,3.738-1.625,5.569-.386,1.076-.425,2.211-1.354,3.12-.775.762-.249,1.991-.5,3a5.226,5.226,0,0,0,.121,1.949,4.374,4.374,0,0,1-.219,3.188,2.776,2.776,0,0,0-.16,2.191c.6,2.149.134,4.356.517,6.5a1.291,1.291,0,0,0,.235.6,5.288,5.288,0,0,1,1.406,3.682c-.01,1.03.984,1.485,1.926,1.236a3.7,3.7,0,0,1,3.921.854c1.056,1.02,2.58.6,3.888.831a13.247,13.247,0,0,0,2.766.023c.86-.033,1.22.353,1.151,1.187q-.137,1.634-.278,3.267c-.059.664-.566.657-.975.523a9.606,9.606,0,0,0-3.142-.2,2.048,2.048,0,0,1-2.207-1.442.923.923,0,0,0-1.36-.612c-1.419.536-2.776-.163-4.166-.095a.45.45,0,0,1-.523-.468c.1-1.818-1.243-1.426-2.178-1.308-.818.108-1.262.258-1.364-.831-.091-.981-.978-1.122-1.831-1.069-.938.052-1.857.128-2.122-1.141a1.163,1.163,0,0,0-.86-.762c-.726-.219-1.243-.549-1.3-1.416a.919.919,0,0,0-.788-.8,1.018,1.018,0,0,1-1.01-1.086c-.049-.733-.772-.543-1.256-.657A.543.543,0,0,1,471.976-205.4Z" transform="translate(1.118 75.337)" fill="#ffa000"/>
  </g>
</svg>
