<svg xmlns="http://www.w3.org/2000/svg" width="576.415" height="580.005" viewBox="0 0 576.415 580.005">
  <g id="Group_8248" data-name="Group 8248" transform="translate(-272.273 -349.689)">
    <path id="Path_1348" data-name="Path 1348" d="M859.785,1713.009c0,23.543-127.548,42.631-284.884,42.631s-284.884-19.087-284.884-42.631,127.548-42.634,284.884-42.634S859.785,1689.462,859.785,1713.009Z" transform="translate(-11.096 -825.944)" fill="#ffdcbb" style="mix-blend-mode: multiply;isolation: isolate"/>
    <g id="Group_8212" data-name="Group 8212" transform="translate(272.273 609.67)">
      <g id="Group_8202" data-name="Group 8202" transform="translate(45.919 36.529)">
        <path id="Path_1349" data-name="Path 1349" d="M394.852,1177.087s30.939-1.533,36.606-23.978C439.262,1122.2,394.529,1159.2,394.852,1177.087Z" transform="translate(-394.85 -1141.207)" fill="#887ab7"/>
        <path id="Path_1350" data-name="Path 1350" d="M402.457,1186.415a159.34,159.34,0,0,0,28.485-26.187" transform="translate(-399.608 -1153.102)" fill="none" stroke="#6a4681" stroke-linecap="round" stroke-linejoin="round" stroke-width="5.121"/>
        <path id="Path_1351" data-name="Path 1351" d="M452.664,1184.4s6.107,2.954,10.521-2.23" transform="translate(-431.006 -1166.826)" fill="none" stroke="#6a4681" stroke-linecap="round" stroke-linejoin="round" stroke-width="5.121"/>
        <path id="Path_1352" data-name="Path 1352" d="M428.818,1190.047a10.884,10.884,0,0,1,3.457-11.234" transform="translate(-415.841 -1164.725)" fill="none" stroke="#6a4681" stroke-linecap="round" stroke-linejoin="round" stroke-width="5.121"/>
        <path id="Path_1353" data-name="Path 1353" d="M415.949,1220.064s3.351,2.243,7.836-.451" transform="translate(-408.045 -1190.241)" fill="none" stroke="#6a4681" stroke-linecap="round" stroke-linejoin="round" stroke-width="5.121"/>
      </g>
      <g id="Group_8203" data-name="Group 8203" transform="translate(60.896 108.138)">
        <path id="Path_1354" data-name="Path 1354" d="M434.833,1368.241s30.94-1.534,36.608-23.978C479.246,1313.355,434.511,1350.359,434.833,1368.241Z" transform="translate(-434.831 -1332.361)" fill="#887ab7"/>
        <path id="Path_1355" data-name="Path 1355" d="M442.441,1377.572a159.454,159.454,0,0,0,28.485-26.189" transform="translate(-439.59 -1344.257)" fill="none" stroke="#6a4681" stroke-linecap="round" stroke-linejoin="round" stroke-width="5.121"/>
        <path id="Path_1356" data-name="Path 1356" d="M492.644,1375.556s6.107,2.953,10.521-2.232" transform="translate(-470.987 -1357.979)" fill="none" stroke="#6a4681" stroke-linecap="round" stroke-linejoin="round" stroke-width="5.121"/>
        <path id="Path_1357" data-name="Path 1357" d="M468.8,1381.205a10.88,10.88,0,0,1,3.456-11.232" transform="translate(-455.825 -1355.883)" fill="none" stroke="#6a4681" stroke-linecap="round" stroke-linejoin="round" stroke-width="5.121"/>
        <path id="Path_1358" data-name="Path 1358" d="M455.93,1411.217s3.354,2.243,7.836-.451" transform="translate(-448.026 -1381.395)" fill="none" stroke="#6a4681" stroke-linecap="round" stroke-linejoin="round" stroke-width="5.121"/>
      </g>
      <g id="Group_8204" data-name="Group 8204" transform="translate(0.701 75.19)">
        <path id="Path_1359" data-name="Path 1359" d="M321.812,1263.79s-28.666,11.738-43.321-6.178C258.311,1232.934,314.518,1247.463,321.812,1263.79Z" transform="translate(-274.143 -1244.408)" fill="#887ab7"/>
        <path id="Path_1360" data-name="Path 1360" d="M329.992,1273.762a159.429,159.429,0,0,1-36.906-11.629" transform="translate(-285.99 -1255.493)" fill="none" stroke="#6a4681" stroke-linecap="round" stroke-linejoin="round" stroke-width="5.121"/>
        <path id="Path_1361" data-name="Path 1361" d="M310.829,1276.438s-4.276,5.263-10.474,2.442" transform="translate(-290.536 -1264.44)" fill="none" stroke="#6a4681" stroke-linecap="round" stroke-linejoin="round" stroke-width="5.121"/>
        <path id="Path_1362" data-name="Path 1362" d="M344.888,1270.793a10.877,10.877,0,0,0-7.9-8.7" transform="translate(-313.448 -1255.466)" fill="none" stroke="#6a4681" stroke-linecap="round" stroke-linejoin="round" stroke-width="5.121"/>
        <path id="Path_1363" data-name="Path 1363" d="M363.268,1290.457s-2.084,3.455-7.288,2.919" transform="translate(-325.323 -1273.207)" fill="none" stroke="#6a4681" stroke-linecap="round" stroke-linejoin="round" stroke-width="5.121"/>
      </g>
      <g id="Group_8205" data-name="Group 8205" transform="translate(10.804 112.828)">
        <path id="Path_1364" data-name="Path 1364" d="M348.782,1364.266s-28.666,11.737-43.32-6.18C285.279,1333.407,341.488,1347.938,348.782,1364.266Z" transform="translate(-301.113 -1344.883)" fill="#887ab7"/>
        <path id="Path_1365" data-name="Path 1365" d="M356.96,1374.236a159.349,159.349,0,0,1-36.9-11.627" transform="translate(-312.959 -1355.968)" fill="none" stroke="#6a4681" stroke-linecap="round" stroke-linejoin="round" stroke-width="5.121"/>
        <path id="Path_1366" data-name="Path 1366" d="M337.8,1376.914s-4.274,5.264-10.473,2.443" transform="translate(-317.508 -1364.915)" fill="none" stroke="#6a4681" stroke-linecap="round" stroke-linejoin="round" stroke-width="5.121"/>
        <path id="Path_1367" data-name="Path 1367" d="M371.86,1371.266a10.882,10.882,0,0,0-7.895-8.707" transform="translate(-340.42 -1355.937)" fill="none" stroke="#6a4681" stroke-linecap="round" stroke-linejoin="round" stroke-width="5.121"/>
        <path id="Path_1368" data-name="Path 1368" d="M390.239,1390.93s-2.085,3.455-7.286,2.919" transform="translate(-352.295 -1373.68)" fill="none" stroke="#6a4681" stroke-linecap="round" stroke-linejoin="round" stroke-width="5.121"/>
      </g>
      <g id="Group_8206" data-name="Group 8206" transform="translate(69.964 141.321)">
        <path id="Path_1369" data-name="Path 1369" d="M459.04,1456.823s30.938-1.534,36.607-23.977C503.452,1401.935,458.715,1438.941,459.04,1456.823Z" transform="translate(-459.038 -1420.943)" fill="#887ab7"/>
        <path id="Path_1370" data-name="Path 1370" d="M466.644,1466.152a159.346,159.346,0,0,0,28.485-26.187" transform="translate(-463.795 -1432.839)" fill="none" stroke="#6a4681" stroke-linecap="round" stroke-linejoin="round" stroke-width="5.121"/>
        <path id="Path_1371" data-name="Path 1371" d="M516.852,1464.136s6.1,2.956,10.52-2.23" transform="translate(-495.194 -1446.561)" fill="none" stroke="#6a4681" stroke-linecap="round" stroke-linejoin="round" stroke-width="5.121"/>
        <path id="Path_1372" data-name="Path 1372" d="M493.006,1469.789a10.882,10.882,0,0,1,3.458-11.234" transform="translate(-480.029 -1444.465)" fill="none" stroke="#6a4681" stroke-linecap="round" stroke-linejoin="round" stroke-width="5.121"/>
        <path id="Path_1373" data-name="Path 1373" d="M480.133,1499.8s3.352,2.245,7.836-.446" transform="translate(-472.231 -1469.982)" fill="none" stroke="#6a4681" stroke-linecap="round" stroke-linejoin="round" stroke-width="5.121"/>
      </g>
      <g id="Group_8207" data-name="Group 8207" transform="translate(19.87 146.013)">
        <path id="Path_1374" data-name="Path 1374" d="M372.986,1452.851s-28.668,11.737-43.323-6.18C309.483,1421.991,365.692,1436.523,372.986,1452.851Z" transform="translate(-325.315 -1433.467)" fill="#887ab7"/>
        <path id="Path_1375" data-name="Path 1375" d="M381.163,1462.82a159.434,159.434,0,0,1-36.9-11.632" transform="translate(-337.162 -1444.549)" fill="none" stroke="#6a4681" stroke-linecap="round" stroke-linejoin="round" stroke-width="5.121"/>
        <path id="Path_1376" data-name="Path 1376" d="M362.005,1465.492s-4.276,5.267-10.474,2.444" transform="translate(-341.71 -1453.495)" fill="none" stroke="#6a4681" stroke-linecap="round" stroke-linejoin="round" stroke-width="5.121"/>
        <path id="Path_1377" data-name="Path 1377" d="M396.06,1459.852a10.875,10.875,0,0,0-7.9-8.7" transform="translate(-364.62 -1444.524)" fill="none" stroke="#6a4681" stroke-linecap="round" stroke-linejoin="round" stroke-width="5.121"/>
        <path id="Path_1378" data-name="Path 1378" d="M414.442,1479.516s-2.084,3.453-7.286,2.917" transform="translate(-376.498 -1462.266)" fill="none" stroke="#6a4681" stroke-linecap="round" stroke-linejoin="round" stroke-width="5.121"/>
      </g>
      <g id="Group_8208" data-name="Group 8208" transform="translate(87.631 181.91)">
        <path id="Path_1379" data-name="Path 1379" d="M506.2,1565.172s30.937-1.533,36.6-23.975C550.61,1510.287,505.877,1547.291,506.2,1565.172Z" transform="translate(-506.198 -1529.294)" fill="#887ab7"/>
        <path id="Path_1380" data-name="Path 1380" d="M513.8,1574.5a159.43,159.43,0,0,0,28.488-26.187" transform="translate(-510.953 -1541.188)" fill="none" stroke="#6a4681" stroke-linecap="round" stroke-linejoin="round" stroke-width="5.121"/>
        <path id="Path_1381" data-name="Path 1381" d="M564.008,1572.488s6.1,2.953,10.521-2.23" transform="translate(-542.352 -1554.912)" fill="none" stroke="#6a4681" stroke-linecap="round" stroke-linejoin="round" stroke-width="5.121"/>
        <path id="Path_1382" data-name="Path 1382" d="M540.168,1578.135a10.875,10.875,0,0,1,3.455-11.233" transform="translate(-527.19 -1552.813)" fill="none" stroke="#6a4681" stroke-linecap="round" stroke-linejoin="round" stroke-width="5.121"/>
        <path id="Path_1383" data-name="Path 1383" d="M527.3,1608.145s3.351,2.245,7.833-.45" transform="translate(-519.393 -1578.325)" fill="none" stroke="#6a4681" stroke-linecap="round" stroke-linejoin="round" stroke-width="5.121"/>
      </g>
      <g id="Group_8209" data-name="Group 8209" transform="translate(34.854 186.748)">
        <path id="Path_1384" data-name="Path 1384" d="M412.984,1561.594s-28.668,11.734-43.321-6.183C349.482,1530.734,405.688,1545.263,412.984,1561.594Z" transform="translate(-365.315 -1542.209)" fill="#887ab7"/>
        <path id="Path_1385" data-name="Path 1385" d="M421.16,1571.564a159.491,159.491,0,0,1-36.906-11.626" transform="translate(-377.159 -1553.296)" fill="none" stroke="#6a4681" stroke-linecap="round" stroke-linejoin="round" stroke-width="5.121"/>
        <path id="Path_1386" data-name="Path 1386" d="M402,1574.234s-4.276,5.266-10.474,2.444" transform="translate(-381.708 -1562.237)" fill="none" stroke="#6a4681" stroke-linecap="round" stroke-linejoin="round" stroke-width="5.121"/>
        <path id="Path_1387" data-name="Path 1387" d="M436.06,1568.592a10.883,10.883,0,0,0-7.9-8.705" transform="translate(-404.62 -1553.265)" fill="none" stroke="#6a4681" stroke-linecap="round" stroke-linejoin="round" stroke-width="5.121"/>
        <path id="Path_1388" data-name="Path 1388" d="M454.439,1588.254s-2.085,3.455-7.287,2.919" transform="translate(-416.495 -1571.005)" fill="none" stroke="#6a4681" stroke-linecap="round" stroke-linejoin="round" stroke-width="5.121"/>
      </g>
      <path id="Path_1389" data-name="Path 1389" d="M445.467,1323.378s-59.942-99.717-63.834-235.87" transform="translate(-340.666 -1071.095)" fill="none" stroke="#004752" stroke-linecap="round" stroke-linejoin="round" stroke-width="5.121"/>
      <g id="Group_8210" data-name="Group 8210" transform="translate(0 24.555)">
        <path id="Path_1390" data-name="Path 1390" d="M339.123,1165.578s-16.808-4.353-29.9-21.683" transform="translate(-295.381 -1130.914)" fill="none" stroke="#004752" stroke-linecap="round" stroke-linejoin="round" stroke-width="5.121"/>
        <path id="Path_1391" data-name="Path 1391" d="M324.9,1112.995a5.322,5.322,0,1,1-6.655-3.513A5.322,5.322,0,0,1,324.9,1112.995Z" transform="translate(-298.675 -1109.243)" fill="#887ab7"/>
        <path id="Path_1392" data-name="Path 1392" d="M285.591,1115.432a5.323,5.323,0,1,1-6.658-3.512A5.326,5.326,0,0,1,285.591,1115.432Z" transform="translate(-274.092 -1110.768)" fill="#887ab7"/>
        <path id="Path_1393" data-name="Path 1393" d="M282.68,1156.1a5.322,5.322,0,1,1-6.657-3.513A5.32,5.32,0,0,1,282.68,1156.1Z" transform="translate(-272.273 -1136.198)" fill="#887ab7"/>
      </g>
      <g id="Group_8211" data-name="Group 8211" transform="translate(53.59 71.043)">
        <path id="Path_1394" data-name="Path 1394" d="M415.328,1295.833s15.7-7.421,25.314-26.892" transform="translate(-415.328 -1255.604)" fill="none" stroke="#004752" stroke-linecap="round" stroke-linejoin="round" stroke-width="5.121"/>
        <path id="Path_1395" data-name="Path 1395" d="M445.771,1243.026a5.322,5.322,0,1,0,5.882-4.7A5.324,5.324,0,0,0,445.771,1243.026Z" transform="translate(-434.346 -1236.44)" fill="#887ab7"/>
        <path id="Path_1396" data-name="Path 1396" d="M484.838,1238.067a5.324,5.324,0,1,0,5.884-4.694A5.327,5.327,0,0,0,484.838,1238.067Z" transform="translate(-458.778 -1233.339)" fill="#887ab7"/>
        <path id="Path_1397" data-name="Path 1397" d="M495.307,1277.471a5.322,5.322,0,1,0,5.881-4.7A5.32,5.32,0,0,0,495.307,1277.471Z" transform="translate(-465.325 -1257.981)" fill="#887ab7"/>
      </g>
      <path id="Path_1398" data-name="Path 1398" d="M406.8,1075.5a5.323,5.323,0,1,1-2.644-7.048A5.325,5.325,0,0,1,406.8,1075.5Z" transform="translate(-350.047 -1058.875)" fill="#887ab7"/>
      <path id="Path_1399" data-name="Path 1399" d="M375.786,1051.217a5.322,5.322,0,1,1-2.647-7.046A5.321,5.321,0,0,1,375.786,1051.217Z" transform="translate(-330.648 -1043.693)" fill="#887ab7"/>
      <path id="Path_1400" data-name="Path 1400" d="M346.614,1079.693a5.323,5.323,0,1,1-2.646-7.048A5.325,5.325,0,0,1,346.614,1079.693Z" transform="translate(-312.404 -1061.501)" fill="#887ab7"/>
    </g>
    <g id="Group_8223" data-name="Group 8223" transform="translate(737.482 655.232)">
      <g id="Group_8213" data-name="Group 8213" transform="translate(33.622 29.445)">
        <path id="Path_1401" data-name="Path 1401" d="M1634.123,1272.844s-24.939-1.237-29.509-19.329C1598.323,1228.6,1634.384,1258.43,1634.123,1272.844Z" transform="translate(-1603.877 -1243.921)" fill="#887ab7"/>
        <path id="Path_1402" data-name="Path 1402" d="M1640.157,1280.367a128.5,128.5,0,0,1-22.962-21.109" transform="translate(-1612.206 -1253.513)" fill="none" stroke="#6a4681" stroke-linecap="round" stroke-linejoin="round" stroke-width="5.121"/>
        <path id="Path_1403" data-name="Path 1403" d="M1623.861,1278.741s-4.923,2.381-8.482-1.8" transform="translate(-1611.07 -1264.571)" fill="none" stroke="#6a4681" stroke-linecap="round" stroke-linejoin="round" stroke-width="5.121"/>
        <path id="Path_1404" data-name="Path 1404" d="M1652.044,1283.3a8.77,8.77,0,0,0-2.786-9.055" transform="translate(-1632.258 -1262.883)" fill="none" stroke="#6a4681" stroke-linecap="round" stroke-linejoin="round" stroke-width="5.121"/>
        <path id="Path_1405" data-name="Path 1405" d="M1657.07,1307.488s-2.7,1.809-6.315-.363" transform="translate(-1633.194 -1283.448)" fill="none" stroke="#6a4681" stroke-linecap="round" stroke-linejoin="round" stroke-width="5.121"/>
      </g>
      <g id="Group_8214" data-name="Group 8214" transform="translate(21.548 87.168)">
        <path id="Path_1406" data-name="Path 1406" d="M1601.894,1426.933s-24.942-1.238-29.511-19.329C1566.092,1382.69,1602.153,1412.518,1601.894,1426.933Z" transform="translate(-1571.646 -1398.01)" fill="#887ab7"/>
        <path id="Path_1407" data-name="Path 1407" d="M1607.926,1434.458a128.573,128.573,0,0,1-22.961-21.109" transform="translate(-1579.975 -1407.602)" fill="none" stroke="#6a4681" stroke-linecap="round" stroke-linejoin="round" stroke-width="5.121"/>
        <path id="Path_1408" data-name="Path 1408" d="M1591.63,1432.831s-4.923,2.38-8.482-1.8" transform="translate(-1578.839 -1418.661)" fill="none" stroke="#6a4681" stroke-linecap="round" stroke-linejoin="round" stroke-width="5.121"/>
        <path id="Path_1409" data-name="Path 1409" d="M1619.816,1437.383a8.773,8.773,0,0,0-2.785-9.055" transform="translate(-1600.029 -1416.971)" fill="none" stroke="#6a4681" stroke-linecap="round" stroke-linejoin="round" stroke-width="5.121"/>
        <path id="Path_1410" data-name="Path 1410" d="M1624.837,1461.578s-2.7,1.807-6.317-.363" transform="translate(-1600.96 -1437.538)" fill="none" stroke="#6a4681" stroke-linecap="round" stroke-linejoin="round" stroke-width="5.121"/>
      </g>
      <g id="Group_8215" data-name="Group 8215" transform="translate(61.893 60.609)">
        <path id="Path_1411" data-name="Path 1411" d="M1679.344,1342.736s23.11,9.463,34.922-4.981C1730.533,1317.861,1685.225,1329.575,1679.344,1342.736Z" transform="translate(-1679.344 -1327.111)" fill="#887ab7"/>
        <path id="Path_1412" data-name="Path 1412" d="M1687.238,1350.776a128.639,128.639,0,0,0,29.751-9.374" transform="translate(-1684.281 -1336.048)" fill="none" stroke="#6a4681" stroke-linecap="round" stroke-linejoin="round" stroke-width="5.121"/>
        <path id="Path_1413" data-name="Path 1413" d="M1738.254,1352.93s3.448,4.242,8.442,1.968" transform="translate(-1716.186 -1343.258)" fill="none" stroke="#6a4681" stroke-linecap="round" stroke-linejoin="round" stroke-width="5.121"/>
        <path id="Path_1414" data-name="Path 1414" d="M1714.266,1348.382a8.769,8.769,0,0,1,6.367-7.015" transform="translate(-1701.184 -1336.027)" fill="none" stroke="#6a4681" stroke-linecap="round" stroke-linejoin="round" stroke-width="5.121"/>
        <path id="Path_1415" data-name="Path 1415" d="M1700.273,1364.231s1.68,2.786,5.874,2.353" transform="translate(-1692.433 -1350.326)" fill="none" stroke="#6a4681" stroke-linecap="round" stroke-linejoin="round" stroke-width="5.121"/>
      </g>
      <g id="Group_8216" data-name="Group 8216" transform="translate(53.749 90.951)">
        <path id="Path_1416" data-name="Path 1416" d="M1657.6,1423.732s23.11,9.46,34.921-4.981C1708.795,1398.857,1663.485,1410.571,1657.6,1423.732Z" transform="translate(-1657.605 -1408.108)" fill="#887ab7"/>
        <path id="Path_1417" data-name="Path 1417" d="M1665.5,1431.769a128.529,128.529,0,0,0,29.748-9.374" transform="translate(-1662.545 -1417.043)" fill="none" stroke="#6a4681" stroke-linecap="round" stroke-linejoin="round" stroke-width="5.121"/>
        <path id="Path_1418" data-name="Path 1418" d="M1716.512,1433.922s3.448,4.244,8.443,1.97" transform="translate(-1694.445 -1424.252)" fill="none" stroke="#6a4681" stroke-linecap="round" stroke-linejoin="round" stroke-width="5.121"/>
        <path id="Path_1419" data-name="Path 1419" d="M1692.527,1429.374a8.774,8.774,0,0,1,6.364-7.018" transform="translate(-1679.445 -1417.018)" fill="none" stroke="#6a4681" stroke-linecap="round" stroke-linejoin="round" stroke-width="5.121"/>
        <path id="Path_1420" data-name="Path 1420" d="M1678.531,1445.227s1.68,2.784,5.875,2.35" transform="translate(-1670.692 -1431.322)" fill="none" stroke="#6a4681" stroke-linecap="round" stroke-linejoin="round" stroke-width="5.121"/>
      </g>
      <g id="Group_8217" data-name="Group 8217" transform="translate(14.24 113.919)">
        <path id="Path_1421" data-name="Path 1421" d="M1582.381,1498.341s-24.939-1.237-29.509-19.328C1546.583,1454.1,1582.643,1483.927,1582.381,1498.341Z" transform="translate(-1552.136 -1469.419)" fill="#887ab7"/>
        <path id="Path_1422" data-name="Path 1422" d="M1588.416,1505.861a128.466,128.466,0,0,1-22.962-21.107" transform="translate(-1560.464 -1479.009)" fill="none" stroke="#6a4681" stroke-linecap="round" stroke-linejoin="round" stroke-width="5.121"/>
        <path id="Path_1423" data-name="Path 1423" d="M1572.12,1504.238s-4.921,2.379-8.48-1.8" transform="translate(-1559.331 -1490.069)" fill="none" stroke="#6a4681" stroke-linecap="round" stroke-linejoin="round" stroke-width="5.121"/>
        <path id="Path_1424" data-name="Path 1424" d="M1600.3,1508.793a8.773,8.773,0,0,0-2.788-9.055" transform="translate(-1580.516 -1488.38)" fill="none" stroke="#6a4681" stroke-linecap="round" stroke-linejoin="round" stroke-width="5.121"/>
        <path id="Path_1425" data-name="Path 1425" d="M1605.329,1532.986s-2.7,1.807-6.317-.361" transform="translate(-1581.452 -1508.948)" fill="none" stroke="#6a4681" stroke-linecap="round" stroke-linejoin="round" stroke-width="5.121"/>
      </g>
      <g id="Group_8218" data-name="Group 8218" transform="translate(46.442 117.701)">
        <path id="Path_1426" data-name="Path 1426" d="M1638.1,1495.137s23.107,9.462,34.92-4.98C1689.284,1470.265,1643.977,1481.976,1638.1,1495.137Z" transform="translate(-1638.098 -1479.514)" fill="#887ab7"/>
        <path id="Path_1427" data-name="Path 1427" d="M1645.988,1503.176a128.579,128.579,0,0,0,29.751-9.375" transform="translate(-1643.032 -1488.449)" fill="none" stroke="#6a4681" stroke-linecap="round" stroke-linejoin="round" stroke-width="5.121"/>
        <path id="Path_1428" data-name="Path 1428" d="M1697,1505.332s3.446,4.244,8.443,1.97" transform="translate(-1674.935 -1495.661)" fill="none" stroke="#6a4681" stroke-linecap="round" stroke-linejoin="round" stroke-width="5.121"/>
        <path id="Path_1429" data-name="Path 1429" d="M1673.02,1500.784a8.767,8.767,0,0,1,6.367-7.018" transform="translate(-1659.938 -1488.427)" fill="none" stroke="#6a4681" stroke-linecap="round" stroke-linejoin="round" stroke-width="5.121"/>
        <path id="Path_1430" data-name="Path 1430" d="M1659.023,1516.629s1.678,2.786,5.872,2.353" transform="translate(-1651.184 -1502.726)" fill="none" stroke="#6a4681" stroke-linecap="round" stroke-linejoin="round" stroke-width="5.121"/>
      </g>
      <g id="Group_8219" data-name="Group 8219" transform="translate(0 146.636)">
        <path id="Path_1431" data-name="Path 1431" d="M1544.369,1585.68s-24.939-1.238-29.509-19.328C1508.571,1541.435,1544.63,1571.264,1544.369,1585.68Z" transform="translate(-1514.124 -1556.757)" fill="#887ab7"/>
        <path id="Path_1432" data-name="Path 1432" d="M1550.4,1593.2a128.647,128.647,0,0,1-22.962-21.111" transform="translate(-1522.45 -1566.346)" fill="none" stroke="#6a4681" stroke-linecap="round" stroke-linejoin="round" stroke-width="5.121"/>
        <path id="Path_1433" data-name="Path 1433" d="M1534.107,1591.578s-4.923,2.383-8.482-1.8" transform="translate(-1521.316 -1577.41)" fill="none" stroke="#6a4681" stroke-linecap="round" stroke-linejoin="round" stroke-width="5.121"/>
        <path id="Path_1434" data-name="Path 1434" d="M1562.287,1596.132a8.763,8.763,0,0,0-2.783-9.053" transform="translate(-1542.504 -1575.719)" fill="none" stroke="#6a4681" stroke-linecap="round" stroke-linejoin="round" stroke-width="5.121"/>
        <path id="Path_1435" data-name="Path 1435" d="M1567.315,1620.321s-2.7,1.809-6.315-.36" transform="translate(-1543.44 -1596.284)" fill="none" stroke="#6a4681" stroke-linecap="round" stroke-linejoin="round" stroke-width="5.121"/>
      </g>
      <g id="Group_8220" data-name="Group 8220" transform="translate(34.362 150.537)">
        <path id="Path_1436" data-name="Path 1436" d="M1605.852,1582.8s23.11,9.46,34.922-4.984C1657.04,1557.92,1611.733,1569.633,1605.852,1582.8Z" transform="translate(-1605.852 -1567.17)" fill="#887ab7"/>
        <path id="Path_1437" data-name="Path 1437" d="M1613.746,1590.83a128.472,128.472,0,0,0,29.749-9.373" transform="translate(-1610.789 -1576.105)" fill="none" stroke="#6a4681" stroke-linecap="round" stroke-linejoin="round" stroke-width="5.121"/>
        <path id="Path_1438" data-name="Path 1438" d="M1664.762,1592.984s3.446,4.244,8.443,1.97" transform="translate(-1642.694 -1583.314)" fill="none" stroke="#6a4681" stroke-linecap="round" stroke-linejoin="round" stroke-width="5.121"/>
        <path id="Path_1439" data-name="Path 1439" d="M1640.777,1588.436a8.772,8.772,0,0,1,6.364-7.018" transform="translate(-1627.694 -1576.08)" fill="none" stroke="#6a4681" stroke-linecap="round" stroke-linejoin="round" stroke-width="5.121"/>
        <path id="Path_1440" data-name="Path 1440" d="M1626.777,1604.289s1.681,2.783,5.875,2.352" transform="translate(-1618.938 -1590.384)" fill="none" stroke="#6a4681" stroke-linecap="round" stroke-linejoin="round" stroke-width="5.121"/>
      </g>
      <path id="Path_1441" data-name="Path 1441" d="M1557.918,1390.771s48.319-80.384,51.456-190.134" transform="translate(-1541.512 -1187.406)" fill="none" stroke="#004752" stroke-linecap="round" stroke-linejoin="round" stroke-width="5.121"/>
      <g id="Group_8221" data-name="Group 8221" transform="translate(65.626 19.794)">
        <path id="Path_1442" data-name="Path 1442" d="M1689.309,1263.569s13.547-3.508,24.1-17.475" transform="translate(-1689.309 -1235.629)" fill="none" stroke="#004752" stroke-linecap="round" stroke-linejoin="round" stroke-width="5.121"/>
        <path id="Path_1443" data-name="Path 1443" d="M1726.676,1221.179a4.291,4.291,0,1,0,5.369-2.829A4.294,4.294,0,0,0,1726.676,1221.179Z" transform="translate(-1712.558 -1218.157)" fill="#887ab7"/>
        <path id="Path_1444" data-name="Path 1444" d="M1758.369,1223.149a4.289,4.289,0,1,0,5.366-2.833A4.289,4.289,0,0,0,1758.369,1223.149Z" transform="translate(-1732.378 -1219.387)" fill="#887ab7"/>
        <path id="Path_1445" data-name="Path 1445" d="M1760.717,1255.925a4.289,4.289,0,1,0,5.365-2.833A4.29,4.29,0,0,0,1760.717,1255.925Z" transform="translate(-1733.846 -1239.884)" fill="#887ab7"/>
      </g>
      <g id="Group_8222" data-name="Group 8222" transform="translate(24.964 57.267)">
        <path id="Path_1446" data-name="Path 1446" d="M1634.047,1368.568s-12.653-5.984-20.406-21.677" transform="translate(-1601.325 -1336.139)" fill="none" stroke="#004752" stroke-linecap="round" stroke-linejoin="round" stroke-width="5.121"/>
        <path id="Path_1447" data-name="Path 1447" d="M1629.25,1326a4.292,4.292,0,1,1-4.744-3.785A4.3,4.3,0,0,1,1629.25,1326Z" transform="translate(-1605.735 -1320.689)" fill="#887ab7"/>
        <path id="Path_1448" data-name="Path 1448" d="M1597.751,1322a4.29,4.29,0,1,1-4.741-3.785A4.29,4.29,0,0,1,1597.751,1322Z" transform="translate(-1586.038 -1318.19)" fill="#887ab7"/>
        <path id="Path_1449" data-name="Path 1449" d="M1589.318,1353.761a4.29,4.29,0,1,1-4.74-3.784A4.29,4.29,0,0,1,1589.318,1353.761Z" transform="translate(-1580.764 -1338.052)" fill="#887ab7"/>
      </g>
      <path id="Path_1450" data-name="Path 1450" d="M1660.658,1190.952a4.291,4.291,0,1,0,2.132-5.679A4.291,4.291,0,0,0,1660.658,1190.952Z" transform="translate(-1605.524 -1177.557)" fill="#887ab7"/>
      <path id="Path_1451" data-name="Path 1451" d="M1685.658,1171.383a4.291,4.291,0,1,0,2.132-5.679A4.292,4.292,0,0,0,1685.658,1171.383Z" transform="translate(-1621.159 -1165.319)" fill="#887ab7"/>
      <path id="Path_1452" data-name="Path 1452" d="M1709.171,1194.339a4.292,4.292,0,1,0,2.136-5.678A4.293,4.293,0,0,0,1709.171,1194.339Z" transform="translate(-1635.864 -1179.675)" fill="#887ab7"/>
    </g>
    <g id="Group_8225" data-name="Group 8225" transform="translate(421.898 748.712)">
      <path id="Path_1453" data-name="Path 1453" d="M950.3,1511.265c20.36-29.6-3.87-62-13.8-57.295-15.014,7.115-35.56,13.436-49.787,1.583s-38.226-50.578-80.6-38.33c-34.335,9.927-36.748,49.392-81.4,32.4-54.222-20.633-62.036,32.335-44.953,61.641Z" transform="translate(-671.689 -1414.858)" fill="#0c6372"/>
      <g id="Group_8224" data-name="Group 8224" transform="translate(13.923 15.064)">
        <path id="Path_1454" data-name="Path 1454" d="M796.745,1595.715s-14.778-39.419-81.065-27.591" transform="translate(-713.123 -1524.388)" fill="none" stroke="#004752" stroke-linecap="round" stroke-linejoin="round" stroke-width="4.876"/>
        <path id="Path_1455" data-name="Path 1455" d="M1053.9,1528.737s-3.2-52.208,12.813-73.667" transform="translate(-924.48 -1455.07)" fill="none" stroke="#004752" stroke-linecap="round" stroke-linejoin="round" stroke-width="4.876"/>
        <path id="Path_1456" data-name="Path 1456" d="M1167.2,1596.77s48.364,20.5,88.082-16.012" transform="translate(-995.499 -1533.674)" fill="none" stroke="#004752" stroke-linecap="round" stroke-linejoin="round" stroke-width="4.876"/>
        <path id="Path_1457" data-name="Path 1457" d="M846.766,1610.441s-7.878,11.174-33.485,9.794" transform="translate(-774.162 -1552.237)" fill="none" stroke="#004752" stroke-linecap="round" stroke-linejoin="round" stroke-width="4.876"/>
        <path id="Path_1458" data-name="Path 1458" d="M730.28,1543.323s-7.409-11.757-21.425-12.4" transform="translate(-708.855 -1502.51)" fill="none" stroke="#004752" stroke-linecap="round" stroke-linejoin="round" stroke-width="4.876"/>
        <path id="Path_1459" data-name="Path 1459" d="M749.369,1569.387s-9.311,16.822-32.7,17.224" transform="translate(-713.741 -1526.563)" fill="none" stroke="#004752" stroke-linecap="round" stroke-linejoin="round" stroke-width="4.876"/>
        <path id="Path_1460" data-name="Path 1460" d="M1046.209,1487.182s-8.968-6.2-8.968-19.862" transform="translate(-914.225 -1462.731)" fill="none" stroke="#004752" stroke-linecap="round" stroke-linejoin="round" stroke-width="4.876"/>
        <path id="Path_1461" data-name="Path 1461" d="M1057.762,1550.106s11.529,2.777,20.069-11.528" transform="translate(-927.058 -1507.295)" fill="none" stroke="#004752" stroke-linecap="round" stroke-linejoin="round" stroke-width="4.876"/>
        <path id="Path_1462" data-name="Path 1462" d="M1017.767,1593.772s-11.316-4.056-19.857-21.565" transform="translate(-889.627 -1528.326)" fill="none" stroke="#004752" stroke-linecap="round" stroke-linejoin="round" stroke-width="4.876"/>
        <path id="Path_1463" data-name="Path 1463" d="M1348,1575.957s-2.99-12.17,10.675-23.7" transform="translate(-1108.396 -1515.848)" fill="none" stroke="#004752" stroke-linecap="round" stroke-linejoin="round" stroke-width="4.876"/>
        <path id="Path_1464" data-name="Path 1464" d="M1305.707,1633.195s5.979,11.745,26.05,4.7" transform="translate(-1082.121 -1566.468)" fill="none" stroke="#004752" stroke-linecap="round" stroke-linejoin="round" stroke-width="4.876"/>
        <path id="Path_1465" data-name="Path 1465" d="M1208.226,1593.7s-1.067-15.8,22.421-24.344" transform="translate(-1021.152 -1526.541)" fill="none" stroke="#004752" stroke-linecap="round" stroke-linejoin="round" stroke-width="4.876"/>
        <path id="Path_1466" data-name="Path 1466" d="M957.985,1579.141s-18.152-14.946-20.5-43.989" transform="translate(-851.837 -1505.153)" fill="none" stroke="#004752" stroke-linecap="round" stroke-linejoin="round" stroke-width="4.876"/>
        <path id="Path_1467" data-name="Path 1467" d="M944.9,1533.354s10.89-2.672,12.706-18.151" transform="translate(-856.474 -1492.677)" fill="none" stroke="#004752" stroke-linecap="round" stroke-linejoin="round" stroke-width="4.876"/>
        <path id="Path_1468" data-name="Path 1468" d="M915.746,1578.812s-8.916-17.723-26.852-20.285" transform="translate(-821.45 -1519.771)" fill="none" stroke="#004752" stroke-linecap="round" stroke-linejoin="round" stroke-width="4.876"/>
        <path id="Path_1469" data-name="Path 1469" d="M1102.215,1554.406s29.9-18.79,31.391-55.73" transform="translate(-954.859 -1482.341)" fill="none" stroke="#004752" stroke-linecap="round" stroke-linejoin="round" stroke-width="4.876"/>
        <path id="Path_1470" data-name="Path 1470" d="M1149.745,1539.256s-10.034-10.034-3.417-26.9" transform="translate(-981.035 -1490.894)" fill="none" stroke="#004752" stroke-linecap="round" stroke-linejoin="round" stroke-width="4.876"/>
        <path id="Path_1471" data-name="Path 1471" d="M1179.168,1526.66s13.666-2.136,18.791-14.308" transform="translate(-1002.984 -1490.894)" fill="none" stroke="#004752" stroke-linecap="round" stroke-linejoin="round" stroke-width="4.876"/>
        <path id="Path_1472" data-name="Path 1472" d="M1113.051,1639.465s3.841,5.127,21.136,2.779" transform="translate(-961.635 -1570.389)" fill="none" stroke="#004752" stroke-linecap="round" stroke-linejoin="round" stroke-width="4.876"/>
        <path id="Path_1473" data-name="Path 1473" d="M1118.662,1593.878s-6.406-7.846-1.122-19.538" transform="translate(-963.136 -1529.66)" fill="none" stroke="#004752" stroke-linecap="round" stroke-linejoin="round" stroke-width="4.876"/>
      </g>
    </g>
    <g id="Group_8234" data-name="Group 8234" transform="translate(381.599 356.246)">
      <g id="Group_8228" data-name="Group 8228" transform="translate(11.409 0)">
        <g id="Group_8226" data-name="Group 8226" transform="translate(0.116 26.875)">
          <path id="Path_1474" data-name="Path 1474" d="M596.97,439.042,594.9,496.037s-.876,15,8.417,16.47c14.142,2.229,10.451-15.208,10.451-15.208l-6.414-58.364Z" transform="translate(-594.878 -438.934)" fill="#f79474"/>
        </g>
        <path id="Path_1475" data-name="Path 1475" d="M635.1,677.414c-7.769,3.292-13.073,4.713-17.7-5.189-2.676-5.716-21.694-82.287-21.694-82.287-1.214-4.653.885-10.1,7.308-11.145,8.092-1.313,10.78,6.045,11.222,7.234,0,0,20.662,55.581,22.352,61.434C639.788,658.557,642.877,674.112,635.1,677.414Z" transform="translate(-595.07 -499.428)" fill="#f79474"/>
        <g id="Group_8227" data-name="Group 8227">
          <path id="Path_1476" data-name="Path 1476" d="M609.31,371.158l-.294,8.451.578-.992a2.074,2.074,0,0,1,3.588,2.081l-3.2,5.517-.123,3.509a7.649,7.649,0,1,1-15.286-.525l.25-7.178h0l.306-8.964a1.763,1.763,0,0,1,3.524.12l.063-1.727a1.756,1.756,0,0,1,3.389-.592l.06-1.817a1.92,1.92,0,0,1,3.837.131l-.04,1.161a1.761,1.761,0,0,1,3.347.825Z" transform="translate(-594.569 -367.191)" fill="#f79474"/>
          <line id="Line_50" data-name="Line 50" y1="8.853" x2="0.222" transform="translate(3.878 6.477)" fill="none" stroke="#dc775e" stroke-linecap="round" stroke-linejoin="round" stroke-width="0.951"/>
          <line id="Line_51" data-name="Line 51" x1="0.215" y2="10.597" transform="translate(7.447 4.207)" fill="none" stroke="#dc775e" stroke-linecap="round" stroke-linejoin="round" stroke-width="0.951"/>
          <line id="Line_52" data-name="Line 52" x1="0.097" y1="11.171" transform="translate(11.128 3.789)" fill="none" stroke="#dc775e" stroke-linecap="round" stroke-linejoin="round" stroke-width="0.951"/>
        </g>
      </g>
      <g id="Group_8231" data-name="Group 8231" transform="translate(91.868 0)">
        <g id="Group_8229" data-name="Group 8229" transform="translate(25.304 26.875)">
          <path id="Path_1477" data-name="Path 1477" d="M894.131,439.042l2.069,56.995s.875,15-8.417,16.47c-14.141,2.229-10.452-15.208-10.452-15.208l6.417-58.364Z" transform="translate(-876.897 -438.934)" fill="#f79474"/>
        </g>
        <path id="Path_1478" data-name="Path 1478" d="M815.42,672.983c7.763,3.294,14.029,7.475,17.713-3.456,2.018-5.982,20.336-79.588,20.336-79.588,1.21-4.653-.888-10.1-7.312-11.145-8.089-1.313-10.777,6.045-11.222,7.234,0,0-21.573,52.151-23.262,58.006C808.465,655.128,807.635,669.681,815.42,672.983Z" transform="translate(-809.35 -499.428)" fill="#f79474"/>
        <g id="Group_8230" data-name="Group 8230" transform="translate(25.853)">
          <path id="Path_1479" data-name="Path 1479" d="M882.514,371.158l.293,8.451-.575-.992a2.076,2.076,0,0,0-3.592,2.081l3.2,5.517.122,3.509a7.651,7.651,0,1,0,15.29-.525l-.25-7.178h0l-.31-8.964a1.761,1.761,0,1,0-3.521.12l-.063-1.727a1.759,1.759,0,0,0-3.394-.592l-.057-1.817a1.92,1.92,0,0,0-3.837.131l.04,1.161a1.76,1.76,0,0,0-3.345.825Z" transform="translate(-878.363 -367.191)" fill="#f79474"/>
          <line id="Line_53" data-name="Line 53" x1="0.222" y1="8.853" transform="translate(14.791 6.477)" fill="none" stroke="#dc775e" stroke-linecap="round" stroke-linejoin="round" stroke-width="0.951"/>
          <line id="Line_54" data-name="Line 54" x2="0.218" y2="10.597" transform="translate(11.228 4.207)" fill="none" stroke="#dc775e" stroke-linecap="round" stroke-linejoin="round" stroke-width="0.951"/>
          <line id="Line_55" data-name="Line 55" y1="11.171" x2="0.097" transform="translate(7.666 3.789)" fill="none" stroke="#dc775e" stroke-linecap="round" stroke-linejoin="round" stroke-width="0.951"/>
        </g>
      </g>
      <path id="Path_1480" data-name="Path 1480" d="M689.211,1094.977c53.616,65.1,94.423,84.827,107.915,94.428,14.256,10.15,25.378,15.318,36.582,3.428,10.105-10.72,2.812-22.832-7.315-34.294-16.519-18.691-54.589-53.158-74.136-63.934Z" transform="translate(-642.348 -822.109)" fill="#887ab7"/>
      <path id="Path_1481" data-name="Path 1481" d="M642.29,1095.2c-13.262,37.875-5.43,105.036-4.4,118.756.426,5.665,1.43,16.517,19.036,16.517,13.717,0,22.7-4.509,23.318-9.315,2.035-15.716,11.434-82.593,10.518-125.957Z" transform="translate(-608.231 -822.483)" fill="#887ab7"/>
      <g id="Group_8232" data-name="Group 8232" transform="translate(0 514.621)">
        <path id="Path_1482" data-name="Path 1482" d="M624.552,1741.2s-16.53-.11-22,.135c0,0-34.233,1.4-34.233,14.392,0,4.39,30,6.775,53.091,3.313C625.591,1758.409,625.495,1751.022,624.552,1741.2Z" transform="translate(-566.744 -1741.087)" fill="#f79474"/>
        <path id="Path_1483" data-name="Path 1483" d="M571.381,1747.629a7,7,0,0,0,2.922,5.274c5.485,3.866,31.488,2.634,37.388-.484,3.977-2.1,7.327-7.038,7.53-11.437l3.644-.037c.941,9.825.71,18.916-3.47,19.544-23.086,3.462-55.283.315-55.283-4.075C564.113,1752.654,567.119,1749.794,571.381,1747.629Z" transform="translate(-564.113 -1740.945)" fill="#2c417f"/>
      </g>
      <g id="Group_8233" data-name="Group 8233" transform="translate(71.166 382.124)">
        <path id="Path_1484" data-name="Path 1484" d="M778.075,1388.138s0,17.476-.244,22.943c0,0-1.348,33.864-14.339,33.864-4.388,0-6.351-27.968-2.888-51.052C761.229,1389.711,768.25,1387.2,778.075,1388.138Z" transform="translate(-757.054 -1387.684)" fill="#f79474"/>
        <path id="Path_1485" data-name="Path 1485" d="M768.421,1439.192a6.973,6.973,0,0,1-5.27-2.92c-3.872-5.486-2.637-31.491.481-37.389,2.1-3.974,7.039-7.326,11.436-7.53l.038-3.645c-9.824-.938-18.919-.71-19.544,3.471-3.462,23.085-.313,55.283,4.075,55.283C763.4,1446.46,766.257,1443.458,768.421,1439.192Z" transform="translate(-754.087 -1387.253)" fill="#2c417f"/>
      </g>
      <path id="Path_1486" data-name="Path 1486" d="M686.541,1349.5c.23-5.056-3.194-22.576-24.007-22.576-16.461,0-19.387,19.556-19.263,24.98.686,29.72,5.316,130.522,5.316,130.522l28.009-.26S684.94,1384.708,686.541,1349.5Z" transform="translate(-613.615 -967.398)" fill="#887ab7"/>
      <path id="Path_1487" data-name="Path 1487" d="M911.724,1286.356c-5.311-12.525-22.18-11.448-27.048-9.2-14.69,6.807-48.458,23.214-75.844,36.59v30.861c29.563-10.253,72.522-25.283,92.78-33.017C906.285,1309.81,917.711,1300.479,911.724,1286.356Z" transform="translate(-717.158 -935.402)" fill="#887ab7"/>
      <path id="Path_1488" data-name="Path 1488" d="M725.945,887.536c-.687,1.4-60.018,5.658-63.79,1.2-1.525-1.806-.928-22.141-8-77.939-3.345-26.379,2.476-33.981,7.951-39.49,5.439-5.464,22.486-4.88,22.486-4.88h14.8s23.458-1.463,28.444,4.974c4.972,6.417,11.544,20.435,7.714,44.8C728.518,860.956,726.86,885.659,725.945,887.536Z" transform="translate(-619.809 -616.779)" fill="#f79474"/>
      <path id="Path_1489" data-name="Path 1489" d="M733.209,792c-11.143-.831-23.783-15.033-24.351-26.236a85.112,85.112,0,0,0-12.546-.46l-13.8.174s-5.24.108-10.287.683c-.724,11.24-10.247,24.894-21.521,25.465-1.63,5.773-2.609,9.352-.6,19.521,13.032,65.962-1.034,77.14.342,79.079,1.908,2.69,77.446,1.752,79.565-1.115,1.248-1.684-8.06-9.6,3.945-70.476A61,61,0,0,0,733.209,792Z" transform="translate(-617.184 -616.131)" fill="#2c417f"/>
      <path id="Path_1490" data-name="Path 1490" d="M749.955,745.789c-2.974-7.315-.126-11.664-.126-11.664H732.351s3.827,4.4,0,12.08c-1.7,3.414-.718,9.016,9.715,9.016C751.652,755.22,751.355,749.234,749.955,745.789Z" transform="translate(-668.91 -596.668)" fill="#f79474"/>
      <path id="Path_1491" data-name="Path 1491" d="M740.386,618.729c0,16.294-16.632,30.579-24.711,30.579-7.925,0-25.7-16.38-25.7-31.265,0-18.351,9.841-32.065,25.378-32.065S740.386,600.377,740.386,618.729Z" transform="translate(-642.825 -504.018)" fill="#f79474"/>
      <path id="Path_1492" data-name="Path 1492" d="M715.588,606.721s10.46,11.317,25.033,8.574c0,0,1.718-32.066-25.377-32.066,0,0-26.924-.514-25.378,33.094C689.866,616.324,703.927,620.268,715.588,606.721Z" transform="translate(-642.718 -502.299)" fill="#0f2149"/>
      <path id="Path_1493" data-name="Path 1493" d="M819.352,668.029c0,2.994-1.841,5.417-4.117,5.417s-4.115-2.423-4.115-5.417,1.842-5.412,4.115-5.412S819.352,665.042,819.352,668.029Z" transform="translate(-718.59 -551.948)" fill="#f79474"/>
      <path id="Path_1494" data-name="Path 1494" d="M692.555,666.656c0,2.991-1.842,5.417-4.114,5.417s-4.118-2.426-4.118-5.417,1.844-5.414,4.118-5.414S692.555,663.667,692.555,666.656Z" transform="translate(-639.292 -551.088)" fill="#f79474"/>
      <path id="Path_1495" data-name="Path 1495" d="M752.283,554.291c0,6.819-6.265,7.545-14.059,7.545s-14.146-.983-14.146-7.8,6.433-12.691,14.232-12.691S752.283,547.474,752.283,554.291Z" transform="translate(-664.154 -476.105)" fill="#0f2149"/>
    </g>
    <g id="Group_8247" data-name="Group 8247" transform="translate(598.868 349.689)">
      <g id="Group_8238" data-name="Group 8238" transform="translate(72.32)">
        <g id="Group_8236" data-name="Group 8236" transform="translate(12.587 21.471)">
          <g id="Group_8235" data-name="Group 8235">
            <path id="Path_1496" data-name="Path 1496" d="M1398.249,407l-24.762,51.377s-6.82,13.391,1.1,18.462c12.059,7.714,15.675-9.736,15.675-9.736L1407.8,411.07Z" transform="translate(-1370.758 -407.004)" fill="#885049"/>
          </g>
        </g>
        <path id="Path_1497" data-name="Path 1497" d="M1351.294,643.835c-8.432-.1-13.864-.926-14.136-11.856C1337,625.67,1350.3,547.9,1350.3,547.9c.757-4.751,4.867-8.9,11.168-7.277,7.937,2.043,7.448,9.86,7.376,11.13,0,0-3.373,59.2-4.17,65.242C1363.161,628.444,1359.75,643.932,1351.294,643.835Z" transform="translate(-1337.156 -468.875)" fill="#885049"/>
        <g id="Group_8237" data-name="Group 8237" transform="translate(39.226)">
          <path id="Path_1498" data-name="Path 1498" d="M1462.3,355.271l-3.077,7.877.872-.745a2.074,2.074,0,1,1,2.694,3.153l-4.844,4.142-1.277,3.272a7.651,7.651,0,1,1-14.253-5.561l2.614-6.689h0l3.265-8.357a1.762,1.762,0,0,1,3.283,1.28l.629-1.608a1.757,1.757,0,0,1,3.4.568l.658-1.7a1.92,1.92,0,0,1,3.576,1.4l-.421,1.078a1.761,1.761,0,0,1,2.885,1.888Z" transform="translate(-1441.869 -349.689)" fill="#885049"/>
          <line id="Line_56" data-name="Line 56" y1="8.282" x2="3.145" transform="translate(6.412 4.424)" fill="none" stroke="#633433" stroke-linecap="round" stroke-linejoin="round" stroke-width="0.951"/>
          <line id="Line_57" data-name="Line 57" x1="3.714" y2="9.927" transform="translate(9.954 3.466)" fill="none" stroke="#633433" stroke-linecap="round" stroke-linejoin="round" stroke-width="0.951"/>
          <line id="Line_58" data-name="Line 58" y1="10.572" x2="3.609" transform="translate(13.468 4.217)" fill="none" stroke="#633433" stroke-linecap="round" stroke-linejoin="round" stroke-width="0.951"/>
        </g>
      </g>
      <g id="Group_8242" data-name="Group 8242" transform="translate(131.426 27.3)">
        <g id="Group_8240" data-name="Group 8240" transform="translate(40.112 25.615)">
          <g id="Group_8239" data-name="Group 8239">
            <path id="Path_1499" data-name="Path 1499" d="M1632.968,493.3l-10.35,56.086s-2.4,14.834-11.792,14.248c-14.287-.893-6.9-17.112-6.9-17.112l18.93-55.581Z" transform="translate(-1602.016 -490.945)" fill="#885049"/>
          </g>
        </g>
        <path id="Path_1500" data-name="Path 1500" d="M1498.591,714.369c6.867,4.9,10.606,10.006,16.576.135,3.268-5.4,38.59-72.942,38.59-72.942,2.194-4.281,1.327-10.053-4.718-12.466-7.612-3.036-11.833,3.562-12.524,4.628,0,0-32.376,46.225-35.3,51.572C1495.68,695.431,1491.711,709.457,1498.591,714.369Z" transform="translate(-1494.938 -551.233)" fill="#885049"/>
        <g id="Group_8241" data-name="Group 8241" transform="translate(57.876)">
          <path id="Path_1501" data-name="Path 1501" d="M1655.384,425.352l-1.548,8.313-.347-1.095a2.075,2.075,0,0,0-3.957,1.253l1.927,6.08-.644,3.451a7.651,7.651,0,1,0,15.042,2.805l1.311-7.059h0l1.643-8.819a1.763,1.763,0,0,0-3.467-.647l.316-1.7a1.758,1.758,0,0,0-3.183-1.314l.339-1.788a1.919,1.919,0,0,0-3.772-.7l-.215,1.143a1.76,1.76,0,0,0-3.446.078Z" transform="translate(-1649.436 -422.566)" fill="#885049"/>
          <line id="Line_59" data-name="Line 59" y1="8.692" x2="1.705" transform="translate(14.084 7.544)" fill="none" stroke="#633433" stroke-linecap="round" stroke-linejoin="round" stroke-width="0.951"/>
          <line id="Line_60" data-name="Line 60" x1="2.088" y2="10.392" transform="translate(10.715 4.556)" fill="none" stroke="#633433" stroke-linecap="round" stroke-linejoin="round" stroke-width="0.951"/>
          <line id="Line_61" data-name="Line 61" y1="10.886" x2="2.52" transform="translate(6.994 3.392)" fill="none" stroke="#633433" stroke-linecap="round" stroke-linejoin="round" stroke-width="0.951"/>
        </g>
      </g>
      <g id="Group_8244" data-name="Group 8244" transform="translate(0 279.361)">
        <g id="Group_8243" data-name="Group 8243" transform="translate(0 241.816)">
          <path id="Path_1502" data-name="Path 1502" d="M1209.881,1740.945s-17.472,0-22.943.245c0,0-22.148,1.394-31.6,8.313.273,1.045.489,2.1.784,3.145.042.148.048.3.079.446,3.453,6.781,28.424,5.8,33.173,5.373,7.468-.673,16.77-3.941,20.535-10.88.13-.239.249-.48.375-.716C1210.216,1744.972,1210.075,1742.978,1209.881,1740.945Z" transform="translate(-1151.13 -1740.945)" fill="#885049"/>
          <path id="Path_1503" data-name="Path 1503" d="M1151.372,1747.629a6.974,6.974,0,0,0,2.919,5.274c5.485,3.866,31.407,2.472,37.387-.484,9.042-4.469,11.175-11.474,11.175-11.474,1.541,9.817.711,18.916-3.469,19.544-23.082,3.462-55.281.315-55.281-4.075C1144.1,1752.654,1147.1,1749.795,1151.372,1747.629Z" transform="translate(-1144.102 -1740.945)" fill="#051637"/>
        </g>
        <path id="Path_1504" data-name="Path 1504" d="M1266.534,1349.5c.23-5.056-3.2-22.576-24.007-22.576-16.463,0-19.386,19.554-19.261,24.976.684,29.724,5.315,130.526,5.315,130.526l23.843.11S1264.932,1384.708,1266.534,1349.5Z" transform="translate(-1193.608 -1240.203)" fill="#885049"/>
        <path id="Path_1505" data-name="Path 1505" d="M1217.221,1095.674c-13.26,37.874-5.7,104.854-4.67,118.575.423,5.66,2.768,6.594,20.337,7.737,12.545.814,23.814,2.526,24.438-2.281,1.4-10.846,5-50.149,5.456-84.687.207-15.507.774-26.151.488-39.588Z" transform="translate(-1184.986 -1095.43)" fill="#887ab7"/>
      </g>
      <g id="Group_8246" data-name="Group 8246" transform="translate(76.225 277.487)">
        <g id="Group_8245" data-name="Group 8245" transform="translate(22.808 242.48)">
          <path id="Path_1506" data-name="Path 1506" d="M1432.963,1738.612c-5.463-.4-22.93-.9-22.93-.9-.173,1.387-.306,2.744-.42,4.077,1.674,2.773,2.978,5.884,5.473,8.006a23.367,23.367,0,0,0,5.057,3.177,146.211,146.211,0,0,0,19.856,2.488c10.425.6,19.63.569,26.107-6.041C1458.352,1740.921,1432.963,1738.612,1432.963,1738.612Z" transform="translate(-1409.184 -1737.715)" fill="#885049"/>
          <path id="Path_1507" data-name="Path 1507" d="M1460.589,1745.86a6.966,6.966,0,0,1-3.069,5.183c-5.593,3.714-31.441,1.541-37.358-1.542a23.522,23.522,0,0,1-10.846-11.786c-1.525,9.115-1.247,18.889,2.915,19.633,22.978,4.116,55.252,1.883,55.376-2.5C1467.714,1751.082,1464.794,1748.144,1460.589,1745.86Z" transform="translate(-1408.467 -1737.715)" fill="#051637"/>
        </g>
        <path id="Path_1508" data-name="Path 1508" d="M1363.054,1346.394c-.37-5.047,2.559-22.659,23.363-23.243,16.454-.464,19.93,19.005,19.957,24.426.151,29.732-1.7,132.352-1.7,132.352L1381,1478.736S1365.646,1381.544,1363.054,1346.394Z" transform="translate(-1357.24 -1235.965)" fill="#885049"/>
        <path id="Path_1509" data-name="Path 1509" d="M1389.168,1090.426c14.321,37.484,10.148,106.84,9.5,120.582-.265,5.673-3.436,7.919-21.032,8.414-13.711.388-22.835.4-23.593-4.387-2.473-15.65-4.459-75.386-6.465-123.435Z" transform="translate(-1347.582 -1090.426)" fill="#887ab7"/>
      </g>
      <path id="Path_1510" data-name="Path 1510" d="M1343.74,875.564c-1.08,1.134-58.914-12.766-61.162-18.157-.91-2.182,5.814-21.385,15.955-76.708,4.795-26.154,12.641-31.64,19.531-35.231,6.835-3.565,22.906,2.151,22.906,2.151l14.1,4.475s22.8,5.7,25.605,13.347c2.8,7.621,4.818,22.97-6.2,45.038-6.184,12.377-18.5,20.842-22.692,29.841C1342.239,860.789,1344.738,874.514,1343.74,875.564Z" transform="translate(-1230.652 -596.474)" fill="#885049"/>
      <path id="Path_1511" data-name="Path 1511" d="M1346.821,789.533c-10.366-4.161-18.384-21.707-15.534-32.553a85.173,85.173,0,0,0-11.822-4.233l-13.207-4.011s-5.028-1.482-10.015-2.463c-4.09,10.495-17.3,20.626-28.219,17.763a77.759,77.759,0,0,0-10.372,23.761c-5.215,21.973-13.435,38.951-17.921,52.454-8.108,24.42-14.151,36.34-13.683,37.8,1.005,3.143,85.187,4.991,88.074,2.9,1.27-.919-.588-9.9,3.647-31.571,1.806-9.236,13.89-20.662,21.434-34.41A63.529,63.529,0,0,0,1346.821,789.533Z" transform="translate(-1195.334 -597.709)" fill="#2c417f"/>
      <path id="Path_1512" data-name="Path 1512" d="M1450.754,737.577c-.338-7.889,3.809-11.023,3.809-11.023l-16.458-5.885s2.12,5.435-4.067,11.371c-2.75,2.641-3.709,8.252,6.111,11.761C1449.178,747.028,1450.911,741.291,1450.754,737.577Z" transform="translate(-1324.258 -581.696)" fill="#885049"/>
      <path id="Path_1513" data-name="Path 1513" d="M1473.275,626.216c-5.485,15.344-25.956,23.194-33.564,20.475-7.463-2.668-18.688-24.076-13.673-38.093,6.175-17.279,20.059-26.881,34.691-21.65S1479.454,608.936,1473.275,626.216Z" transform="translate(-1319.641 -497.177)" fill="#885049"/>
      <path id="Path_1514" data-name="Path 1514" d="M1547.411,689.345c-1.006,2.817-3.556,4.48-5.7,3.713s-3.061-3.667-2.053-6.484,3.557-4.478,5.7-3.712S1548.418,686.526,1547.411,689.345Z" transform="translate(-1391.225 -557.935)" fill="#885049"/>
      <path id="Path_1515" data-name="Path 1515" d="M1428.48,645.362c-1.007,2.816-3.558,4.478-5.7,3.712s-3.058-3.667-2.055-6.485,3.559-4.478,5.7-3.712S1429.485,642.548,1428.48,645.362Z" transform="translate(-1316.846 -530.428)" fill="#885049"/>
      <path id="Path_1516" data-name="Path 1516" d="M1520.772,570.151c-3.077,6.084-8.992,3.907-15.952.388s-12.183-7.26-9.1-13.344,11.467-8.422,18.426-4.9S1523.849,564.068,1520.772,570.151Z" transform="translate(-1363.433 -475.364)" fill="#0f2149"/>
      <path id="Path_1517" data-name="Path 1517" d="M1430.559,604.828s4.911-1.949,14.385.434c6.678,1.683,8.091,7.8,14.307,11.682,5.128,3.2,13.413,5.429,18.917,4.323,0,0,7.3-12.269-1.276-27.161-2.3-4-6.442-6.781-12.55-9.173S1440.568,580.409,1430.559,604.828Z" transform="translate(-1323.25 -495.949)" fill="#0f2149"/>
    </g>
  </g>
</svg>
