<svg xmlns="http://www.w3.org/2000/svg" width="128.027" height="123.778" viewBox="0 0 115.747 115.217">
  <g id="Group_8277" data-name="Group 8277" transform="translate(-1060.659 -675.205)">
    <path id="Path_1658" data-name="Path 1658" d="M1450.465,675.353q7.846,7.807,15.661,15.645a1.77,1.77,0,0,1,.617,1.444,1.8,1.8,0,0,1-.467,1.276q-6.847,9.047-13.685,18.1c-.356.473-.565.585-1.042.106q-10.977-11.02-22-22c-.473-.471-.377-.677.1-1.039q9.062-6.828,18.1-13.684" transform="translate(-290.344 0)" fill="#ffa000"/>
    <path id="Path_1659" data-name="Path 1659" d="M1078.452,1078.76a1.818,1.818,0,0,1-1.484-.635q-7.784-7.789-15.565-15.581a1.84,1.84,0,0,1-.193-2.793q6.833-9.057,13.676-18.106c.391-.52.609-.5,1.047-.057q10.939,10.978,21.917,21.918c.479.477.493.706-.064,1.125q-9.02,6.783-18.008,13.61A1.81,1.81,0,0,1,1078.452,1078.76Z" transform="translate(0 -288.35)" fill="#ffa000"/>
    <path id="Path_1660" data-name="Path 1660" d="M1416.6,782.125c-.456-.117-.662-.473-.929-.74q-12.445-12.431-24.9-24.854c-.806-.8-.6-1.039.275-1.42a33.818,33.818,0,0,0,3.319-1.661,1.167,1.167,0,0,1,1.675.278q10.137,10.209,20.33,20.362c.8.8,1.578,1.608,2.4,2.381a.733.733,0,0,1,.18,1.011C1418.147,779.023,1417.377,780.578,1416.6,782.125Z" transform="translate(-259.639 -61.449)" fill="#ffa000"/>
    <path id="Path_1661" data-name="Path 1661" d="M1143.541,1001.514l26.51,26.511c-1.592.794-3.225,1.615-4.865,2.423-.564.279-.751-.276-1.018-.542q-6.771-6.738-13.517-13.5c-3.02-3.021-6.028-6.055-9.074-9.048a1.045,1.045,0,0,1-.235-1.481C1142.114,1004.446,1142.81,1002.976,1143.541,1001.514Z" transform="translate(-63.394 -257.043)" fill="#ffa000"/>
    <path id="Path_1662" data-name="Path 1662" d="M1466.2,1011.784a3.761,3.761,0,0,1-2.073,3.738,3.57,3.57,0,0,1-4.02-.435c-1.825-1.4-1.819-1.407-.224-3,1.123-1.123,2.27-2.223,3.361-3.376.423-.446.673-.451,1.1-.009C1465.3,1009.687,1466.286,1010.626,1466.2,1011.784Z" transform="translate(-313.559 -262.445)" fill="#ffa000"/>
    <path id="Path_1663" data-name="Path 1663" d="M1399.668,1077.817c-1.572.06-2.522-1.124-3.549-2.17-.224-.228-.054-.408.121-.582q2.306-2.294,4.609-4.593c.145-.144.246-.338.558-.181a4.755,4.755,0,0,1,2.123,4.569A3.673,3.673,0,0,1,1399.668,1077.817Z" transform="translate(-264.167 -311.176)" fill="#ffa000"/>
    <path id="Path_1664" data-name="Path 1664" d="M1226.591,793.895q-13.243-13.381-26.616-26.633a9.041,9.041,0,0,0-6.349-2.608,9.873,9.873,0,0,0-7.176,3.17q-15.3,15.362-30.655,30.672c-4.449,4.448-4.456,9.9-.01,14.349q12.61,12.614,25.223,25.223c4.51,4.508,9.923,4.512,14.436,0q11.585-11.577,23.163-23.162c2.61-2.61,5.25-5.191,7.823-7.839A9.217,9.217,0,0,0,1226.591,793.895Zm-5.821,8.235q-15.414,15.421-30.833,30.838a2.131,2.131,0,0,1-1.7.884c-.793.095-1.262-.451-1.757-.946l-14.1-14.1q-5.689-5.689-11.376-11.379c-1.358-1.36-1.354-2.175.006-3.534q15.374-15.377,30.753-30.751c1.319-1.318,2.147-1.334,3.454-.028q12.783,12.774,25.554,25.561C1222.091,800,1222.085,800.814,1220.77,802.13Z" transform="translate(-72.311 -70.462)" fill="#ffa000"/>
    <path id="Path_1665" data-name="Path 1665" d="M1295.231,858.921q2.292-4.333,4.589-8.674c1.464-2.771,2.908-5.553,4.4-8.31.507-.939.923-1.841.068-2.767-.9-.978-1.87-.564-2.862-.1-5.1,2.4-10.211,4.785-15.523,7.27.519-2.138.919-4.121,1.5-6.051a2.741,2.741,0,0,0-.867-3.117c-.7-.647-1.887-1.265-1.841-2.085.04-.7,1.154-1.359,1.81-2.017,3.486-3.494,6.993-6.968,10.454-10.487.563-.572.838-.6,1.422-.011q11.178,11.247,22.42,22.429c.509.506.6.776.031,1.339q-6.019,5.934-11.955,11.953c-.492.5-.784.586-1.263.012-.521-.624-1.163-1.145-1.712-1.748a2.193,2.193,0,0,0-2.729-.557c-2.393.985-4.806,1.924-7.208,2.888C1295.744,858.977,1295.549,859.12,1295.231,858.921Z" transform="translate(-176.474 -115.749)" fill="#ffa000"/>
    <path id="Path_1666" data-name="Path 1666" d="M1209.005,909.755l5.871-5.87c2.226-2.226,4.476-4.428,6.661-6.693.587-.609.858-.5,1.442.013A2.338,2.338,0,0,1,1223.8,900c-.758,2.515-1.28,5.1-1.939,7.645a1.931,1.931,0,0,0,.564,2.208,2.036,2.036,0,0,0,2.3.069q6.833-3.193,13.674-6.369c.13-.061.263-.117.42-.186.168.444-.144.693-.292.975q-4.225,8.01-8.465,16.013c-.7,1.336-.422,2.42.693,2.943a2.244,2.244,0,0,0,1.9-.158q5.276-2.106,10.548-4.221a2.406,2.406,0,0,1,2.655,1.252c.1.307-.131.417-.281.566q-6.175,6.189-12.35,12.379c-.657.663-.863-.029-1.148-.313q-9.617-9.59-19.209-19.2C1211.6,912.333,1210.33,911.074,1209.005,909.755Z" transform="translate(-116.857 -174.538)" fill="#ffa000"/>
  </g>
</svg>
