<svg xmlns="http://www.w3.org/2000/svg" width="113.172" height="125.917" viewBox="0 0 113.172 125.917">
  <g id="Group_8281" data-name="Group 8281" transform="translate(955.235 -829.187)">
    <path id="Path_1702" data-name="Path 1702" d="M-619.034,1496.515a26.417,26.417,0,0,0,.043,3.684c.124.877-.631,1.1-.861,1.684a.778.778,0,0,1-.66.082c-.343-.492-.938-.835-.921-1.559.028-1.229-.016-2.46.022-3.689a37.893,37.893,0,0,1,.134-5.149c.149-.892.986-.939,1.266-.618.363.416,1.023.74.993,1.508C-619.072,1493.807-619.034,1495.162-619.034,1496.515Z" transform="translate(-276.43 -547.875)" fill="#ffa000"/>
    <path id="Path_1703" data-name="Path 1703" d="M-474.129,1496.856c0-1.6.019-3.2-.01-4.8-.011-.629.2-.853.844-.828.586.023,1.015.012,1.008.8-.028,3.156-.021,6.313,0,9.47,0,.674-.224.9-.921.9-.665-.009-.946-.157-.926-.873.042-1.557.013-3.115.013-4.673Z" transform="translate(-398.41 -548.257)" fill="#ffa000"/>
    <path id="Path_1704" data-name="Path 1704" d="M-725.065,894.884c1.01-.53,1.136.634,1.785.809.139.038.173.715-.036.738-.667.074-1.073.877-1.557.8-1.489-.237-2.761.707-4.193.584-.647-.056-.966.725-1.679.58-.544-.111-1.208.095-1.269-.765-.057-.81.423-1.618,1.069-1.554,1.463.146,2.7-.732,4.1-.629C-726.1,895.5-725.9,894.162-725.065,894.884Z" transform="translate(-184.853 -54.229)" fill="#ffa000"/>
    <path id="Path_1705" data-name="Path 1705" d="M-910.582,1006.837c.206.551-.354.663-.67.992-.972,1.01-1.428,2.423-2.637,3.289-.4.284-.111,1.1-.856,1.451-.63.3-1.311.441-1.634.041a1.66,1.66,0,0,1,.162-1.661c.593-1.139,1.661-1.841,2.218-3.025a3.588,3.588,0,0,1,2.492-2.079C-910.585,1005.7-910.568,1005.808-910.582,1006.837Z" transform="translate(-32.046 -146.252)" fill="#ffa000"/>
    <path id="Path_1706" data-name="Path 1706" d="M-859.163,953.762c.043.631-.072.972-.844,1.187-.933.26-1.4,1.312-2.262,1.867a4.876,4.876,0,0,0-2.241,1.99c-.139.327-.616.318-.973-.1-.792-.918-.876-1.066-.5-1.472.738-.806,1.554-1.919,2.338-2.212,1.4-.522,1.958-1.873,3.207-2.4a1.176,1.176,0,0,1,.951-.064C-858.986,952.813-859.195,953.34-859.163,953.762Z" transform="translate(-73.733 -102.11)" fill="#ffa000"/>
    <path id="Path_1707" data-name="Path 1707" d="M-794.676,916.256c.095.663-.078,1-1.01,1.075a8.242,8.242,0,0,0-3.183,1.344,4.167,4.167,0,0,1-2.26.884c-.55-.029-1.114.076-1.136-.715a1,1,0,0,1,.808-1.2,36.625,36.625,0,0,0,3.9-1.925c.6-.3,1.421.006,1.948-.867C-795.272,914.3-794.654,914.853-794.676,916.256Z" transform="translate(-126.677 -70.767)" fill="#ffa000"/>
    <path id="Path_1708" data-name="Path 1708" d="M-755.313,1542.466a23.27,23.27,0,0,0-3.249-.9c-1.083-.338-2.038-.875-3.07-1.271a.662.662,0,0,1-.318-1.145c.307-.328.608-.932,1.351-.6a16.451,16.451,0,0,0,4.9,1.64c.6.061.923.623,1.529.724.214.036.247.751.112,1.139C-754.225,1542.542-754.7,1542.451-755.313,1542.466Z" transform="translate(-159.883 -587.363)" fill="#ffa000"/>
    <path id="Path_1709" data-name="Path 1709" d="M-829.171,1505.693c-.015-.948,1.007-1.4,1.955-.823,1.3.792,2.549,1.665,3.837,2.475.462.291.988.319,1.458.8.882.9-.3,1.148-.354,1.717a.654.654,0,0,1-1.108-.281c-.146-.463-.787-.413-1.109-.522-1.648-.562-2.64-2.2-4.4-2.539C-829.3,1506.436-829.07,1505.958-829.171,1505.693Z" transform="translate(-104.397 -559.341)" fill="#ffa000"/>
    <path id="Path_1710" data-name="Path 1710" d="M-886.345,1455.734c0-1.092.8-1.566,1.56-1.074a8.59,8.59,0,0,1,1.416,1.282,22.844,22.844,0,0,0,2.924,2.995,1.134,1.134,0,0,1,.375,1.778c-.342.411-1.048.312-1.675-.237-1.532-1.342-2.673-3.1-4.463-4.168C-886.37,1456.214-886.334,1455.789-886.345,1455.734Z" transform="translate(-57.05 -517.812)" fill="#ffa000"/>
    <path id="Path_1711" data-name="Path 1711" d="M-310.807,1258.351a6.612,6.612,0,0,1-.591,3.119.779.779,0,0,1-.93.566c-.394-.065-.986-.092-.89-.762a5.564,5.564,0,0,1,.4-2.385c.426-.746.107-1.914.126-2.9.008-.409-.116-.932.088-1.2.386-.51.83-1.168,1.657-.93.736.212.446.865.483,1.353C-310.381,1256.282-311.2,1257.245-310.807,1258.351Z" transform="translate(-531.666 -351.646)" fill="#ffa000"/>
    <path id="Path_1712" data-name="Path 1712" d="M-309.578,1183.345c-.9-1.814-.619-3.759-.645-5.669-.007-.563-.136-1.113.812-1.1.828.01,1.1.291,1.055,1.057-.1,1.964.632,3.876.372,5.852-.047.36.1.765-.15,1.075s-.346.863-.971.748-.385-.631-.459-.978A4.789,4.789,0,0,1-309.578,1183.345Z" transform="translate(-534.135 -287.681)" fill="#ffa000"/>
    <path id="Path_1713" data-name="Path 1713" d="M-936.276,1423.95a1.32,1.32,0,0,1,1.116-.086A1.051,1.051,0,0,1-936.276,1423.95Z" transform="translate(-15.7 -492.403)" fill="#ffa000"/>
    <path id="Path_1714" data-name="Path 1714" d="M-602.591,1245.081c-1.3-.046-2.146.881-2.876,1.449a5.178,5.178,0,0,1-3.317,1.406c-2.716-.005-5.437.091-8.148-.035a5.4,5.4,0,0,0-4.257,1.638c-.405.392-.871.488-1.075-.337a3.7,3.7,0,0,0-.711-1.654c-2.278-1.964-4.052-4.578-6.952-5.746-1.014-.409-1.9-1.3-3.005-1.242-1.045.056-1.837-.577-2.807-.645-.608-.042-.325-.622-.281-.889.169-1.012-.653-2.369.417-2.987a10.8,10.8,0,0,0,3.444-3.124,5.608,5.608,0,0,0,1.315-4.111c-.046-.242-.259-.834.235-.781,1.153.124,1.612-.883,2.383-1.339,1.286-.76,1.5-2.274,1.968-3.564a1.38,1.38,0,0,0-.112-.956,7.994,7.994,0,0,1-1.058-3.938c.095-1.846-.06-3.706.054-5.55.069-1.129-.663-1.983-.779-3.061a2.645,2.645,0,0,0-1.166-1.822,2.852,2.852,0,0,1-1.548-3.16c.122-.735-.317-.967-1.039-.958-2.634.033-5.268.013-7.9.013-2.058,0-4.116-.033-6.173.014a10.523,10.523,0,0,0-3.075.4c-.953.3-1.52,1.018-2.372,1.312-1.973.678-3.5,3.495-3.647,5.184-.195,2.2-.086,4.432-.158,6.649a6.12,6.12,0,0,1-.4,3,4.091,4.091,0,0,0-.687,1.568c-.146,1.5.428,2.906.387,4.376,0,.063-.045.231.181.193,1.09-.183,1.442,1.131,2.443,1.277.143.021.929.061,1.008.521a15.936,15.936,0,0,0,.491,2.531,8.476,8.476,0,0,0,1.362,2.662,6.562,6.562,0,0,0,2.134,2.014c1.418.631,1.291,1.774,1.23,2.95a1.321,1.321,0,0,0,0,.369c.312,1.291-.776,1.647-1.522,1.734a9.107,9.107,0,0,0-4.209,1.308,14.889,14.889,0,0,0-2.31,1.563,26.346,26.346,0,0,0-4.054,4.488c-.628,1-1.078,2.077-1.669,3.079-.776,1.316-.706,2.982-1,4.482a34.373,34.373,0,0,0-.13,7.626c.032,1.028,1.06,1.6,1.573,1.076a2.259,2.259,0,0,0,.815-1.833c-.108-1.721-.028-3.453-.036-5.18a12.177,12.177,0,0,1,1.566-6.9,19.1,19.1,0,0,1,2.631-3.847,9.58,9.58,0,0,1,4.21-2.814c.7-.182,1.215-.1,1.233.514.043,1.434,1.3,2.413,1.353,3.9.028.847.773,1.646.986,2.517.281,1.146.783,1.4,1.754.676,1.478-1.1,2.54-2.633,3.968-3.8.51-.416.536-.251.85.078,1.127,1.18,2.283,2.334,3.453,3.473.992.966,1.658.626,2.242-.644a22.9,22.9,0,0,1,1.014-2.9c.2-.316.785-.221.679-.831-.219-1.252.881-2.125,1.068-3.282.07-.435.437-.36.66-.178,1.269,1.036,2.876,1.45,4.128,2.645a16.865,16.865,0,0,1,4.178,5.133,11.5,11.5,0,0,1,1.316,5.308c-.129,2.214-.034,4.44-.029,6.661a1.339,1.339,0,0,0,1.294,1.412,1.412,1.412,0,0,0,1.211-1.415c.035-1.211-.548-2.938.2-3.5.824-.615,2.441-.17,3.713-.187a1.825,1.825,0,0,0,.247,0c.667-.1.958.1.9.852-.073,1.023-.038,2.056-.017,3.083.011.559-.249,1.257.8,1.27.955.011,1.063-.466,1.055-1.228-.024-2.427-.014-4.853,0-7.28,0-.28-.2-.6.3-.8,1.335-.534,2.779-.569,4.151-1,1.266-.4,2.8.223,3.848-1.216.161-.222,1.055-.357,1.273-.773.407-.776,1.179-1.048,1.717-1.595.467-.474,1.11-.652,1.436-1.5C-599.294,1246.442-600.018,1245.172-602.591,1245.081Zm-29.5-36.474c.206-.353.367-.223.683.034a4.789,4.789,0,0,1,1.631,4.266c-.02.492,0,.984,0,1.477,0,1.026,0,2.051.005,3.076,0,.288.226.65-.369.6-.425-.036-.849.04-.731-.62a6.8,6.8,0,0,0-1.146-4.646,10.181,10.181,0,0,0-1.921-1.973c-.337-.325-1.014-.519.049-.879A3.2,3.2,0,0,0-632.089,1208.607Zm-21.1,2.708c.42-1.482.769-3.316,2.825-4.227,1.149-.51,2.536-.636,3.548-1.513.123-.107.4-.052.6-.052q6.54,0,13.079,0a3.112,3.112,0,0,1,.418.054c.087.512-.538.313-.531.75.024,1.389-1.228,1.436-2.086,1.875-2.642,1.351-5.477.56-8.21.6a8.109,8.109,0,0,0-6.447,2.822,6.582,6.582,0,0,0-1.82,3.222,17.9,17.9,0,0,0-.439,2.63c-.016.416-.123.574-.558.585-.5.013-.51-.264-.51-.62C-653.321,1215.389-653.732,1213.218-653.193,1211.316Zm4.626,21.054a8.5,8.5,0,0,1-1.333-2.586,7.073,7.073,0,0,1-.554-3.11c.009-.451-.311-.525-.664-.532-.409-.008-.818,0-1.326,0,.066-.466.419-.788.115-1.046s-.537-.117-.741.26c-.135.251-.293-.008-.4-.182-.546-.865-1.187-1.752-.936-2.815a3.075,3.075,0,0,1,2.842-2.455c.971.044,1.177-.346,1.146-1.211a7.443,7.443,0,0,1,2.168-5.927,6.475,6.475,0,0,1,5.075-2.077,35.024,35.024,0,0,0,3.823.011c2.765-.089,4.49,1.686,5.987,3.57.946,1.191.723,2.87.615,4.364-.068.947.222,1.262,1.183,1.263a3.341,3.341,0,0,1,2.943,4.344,5.977,5.977,0,0,1-2.773,1.886c-1-.066-1.444.2-1.363,1.354.217,3.067-1.47,5.02-3.874,6.7a7.3,7.3,0,0,1-4.842,1.125c-1.6-.065-3.147.234-4.658-1.058A27.28,27.28,0,0,1-648.567,1232.37Zm2.752,15.907c-.245.3-.505.453-.55.065-.093-.808-.8-1.385-.66-2.295a2.726,2.726,0,0,0-.919-2.064c-.429-.494.038-1.124-.391-1.561a10.375,10.375,0,0,1,1.236-.615c.326-.115.565.107.558.451-.019,1.043.738,1.678,1.188,2.49.461.833,1.625.268,1.778,1.058C-644.33,1246.627-645.113,1247.419-645.814,1248.276Zm2.586-4.35c-.394-.1-.634-.479-.863-.858-.8-1.33-.57-2.783-.586-4.205-.019-1.719,0-1.719,1.713-1.719h1.727c.9,0,1.81.024,2.714-.009.549-.02.664.155.627.706-.072,1.063-.018,2.135-.021,3.2,0,1.033-1.409,2.381-2.225,2.974C-641.325,1244.876-642.228,1244.183-643.229,1243.927Zm7.861.382c-.02,1.032-1.047,1.609-.861,2.662.081.455-.593.815-.565,1.446.01.239-.272-.028-.48-.2a26.827,26.827,0,0,1-2.336-2.342c.972-.145,2.856-1.728,2.958-2.532.069-.549.72-.731.649-1.354-.029-.257.421-.286.505-.027.189.579.751.181,1.1.557A1.9,1.9,0,0,0-635.367,1244.308Zm33.258,3.5c-1.152.8-1.971,1.944-3.209,2.74a12.793,12.793,0,0,1-3.791,1.583,25.7,25.7,0,0,1-4.979.962c-.685.047-.687.424-.727.866-.076.845.4,2.038-.177,2.45-.606.433-1.732.156-2.63.16-2.249.01-2.249,0-2.249-2.273,0-.9.019-1.808-.008-2.711-.019-.661.45-1.189.9-1.111,2.037.351,3.855-.859,5.849-.692.735.061,1.479.01,2.219.01,1.069,0,2.138-.014,3.206,0a4.321,4.321,0,0,0,3.124-1.306c.59-.563,1.521-.629,1.941-1.442.1-.2.441-.054.632.151C-601.761,1247.458-601.9,1247.661-602.109,1247.806Z" transform="translate(-242.732 -310.124)" fill="#ffa000"/>
    <path id="Path_1715" data-name="Path 1715" d="M-597.114,883.77q-18.706-.046-37.413-.029a3.382,3.382,0,0,1-1.212-.1c-1.479-.589-2.543-1.838-3.937-2.564-1.067-.556-1.943-1.383-3.008-1.965a6.8,6.8,0,0,1-2.3-1.514c-.794-.982-2.042-1.4-3.313-2.177.675-.211.572-.891.92-1.212a1.921,1.921,0,0,0,.218-2.477,8.618,8.618,0,0,0-2.157-2.505c-.557-.487-1.085-.546-1.508-.212a1.1,1.1,0,0,0,0,1.56,2.875,2.875,0,0,0,.751.675c.969.556.95,1.492.714,2.451-.105.428-.678.529-.723.38-.253-.84-1.138-.534-1.591-.994-1.031-1.048-2.067-1.849-1.158-3.72.786-1.619,1.662-2.423,3.25-2.176,1.641.255,2.587,1.5,3.88,2.233a15.468,15.468,0,0,1,2.391,1.617,8.458,8.458,0,0,0,1.849,1.326c1.488.65,2.857,1.4,3.477,2.929.276.681.333,1.268,1.242,1.159.066-.008.186.235.243.377.409,1,1.289.75,2.06.773.534.016,1.07.025,1.6.007a48.187,48.187,0,0,0,5.636-.525,39.953,39.953,0,0,1,5.678-.692c.479,0,.555-.3.49-.643-.072-.389.312-1.095-.362-1.1-1.088-.009-2.167-.37-3.3.3-.848.5-2.008.12-3.029.139-.184,0-.265-.164-.221-.35.273-1.159-.321-1.859-1.154-2.581-.712-.617-2.534-1.448-3.234-.946a2.875,2.875,0,0,1-1.888.438c-.983,0-.864.658-.566,1.15a1.365,1.365,0,0,0,1.277.711,14.655,14.655,0,0,1,2.712.012c.848.1.992.811,1.033,1.573.048.9-.578.592-1,.622-.491.036-.987.017-1.481.006a7.088,7.088,0,0,1-2.562-.118c-2.263-1.006-2.336-4.021-.374-5.664,1.084-.908,2.357-.31,3.551-.853,1.42-.646,3.229.038,4.91-.686,1.275-.549,2.92-.4,4.337-.488,2.511-.162,4.99-.7,7.511-.676.658.005,1.318-.027,1.975.006,1.669.084,3.069.387,4.1,2.095a7.7,7.7,0,0,1,1.474,4.315c-.012.366.078.734.1,1.1.016.239.2.491.34.355.467-.45,1.608-.19,1.423-1.338-.058-.361.049-.751-.022-1.107-.164-.827.23-.931.933-.913,1.686.044,3.375,0,5.062.021.736.011.97-.254.962-1.011s-.313-.859-.951-.848c-1.893.032-3.786.012-5.68.011-.472,0-.77.019-1.073-.614s-.384-1.458-1.12-1.928c-1.846-1.179-3.613-2.5-6.014-2.031-.245.048-.814.055-.73-.178.352-.973-.629-1.489-.659-2.313-.036-.973.288-2.019-.538-2.869a.744.744,0,0,1,.01-.7c.865-.474.738-1.535,1.016-2.2.708-1.68,2.185-2.452,3.244-3.676.931-1.077,2.477-1.954,2.519-3.368.072-2.438.881-5.034-1.455-7.211a7.122,7.122,0,0,0-3.639-2.143,52.325,52.325,0,0,0-5.29-.669,3.437,3.437,0,0,1-2.466-1.106,6.561,6.561,0,0,1-1.565-2.188,30.425,30.425,0,0,0-1.635-3.2c-.412-.7-.605-1.619-1.374-2.091a19.1,19.1,0,0,0-2.26-1.629,9.065,9.065,0,0,0-5.357-.424,2.96,2.96,0,0,0-1.376.571,16.626,16.626,0,0,0-4.689,6.775,4.725,4.725,0,0,1-2.308,2.788,10.7,10.7,0,0,1-5.344,1.031c-1.205-.088-2.13.671-3.192,1.008a5.642,5.642,0,0,0-3.325,3.264,5.5,5.5,0,0,0-.8,2.308,7.48,7.48,0,0,0,2.17,5.621c1.308,1.37,2.672,2.692,3.978,4.064a3.949,3.949,0,0,1,1.259,3.514c-.318,1.15-.248,2.276-.535,3.353-.086.324.155,2.007-1.483,1.142a2.826,2.826,0,0,0-2.764.461c-1.841,1.277-3.367,2.542-3.2,5.016.039.573,0,1.152.018,1.727.01.275-.024.666.136.8a26.7,26.7,0,0,0,4.245,3.4c.722.4,1.218,1.065,1.944,1.332a10.275,10.275,0,0,1,2.323,1.523c.938.662,1.93,1.275,2.883,1.879a37.01,37.01,0,0,1,4.479,2.975,6.133,6.133,0,0,0,4.225,1.6c12.306.041,24.612.023,36.919.022a4.769,4.769,0,0,0,1.107-.033,1.173,1.173,0,0,0,1.033-1.212C-595.857,883.288-596.685,883.771-597.114,883.77Zm-54.172-32.783c-.749-.76-.871-1.831-1.4-2.714-.494-.829.473-1.669.8-2.478a4.3,4.3,0,0,1,4.688-2.741c1.224-1.335,3.086-.063,4.473-1.106a5.866,5.866,0,0,1,1.915-.559c.511-.112.581-.482.862-.661,1.545-.987,1.986-2.652,2.747-4.128a16.233,16.233,0,0,1,3.016-4.623c.774-.735,1.688-.426,2.508-.726,1.461-.534,3.919,1.129,4.787,2.569,1.071,1.776,1.473,3.906,2.971,5.442,1.312,1.344,2.533,2.565,4.7,2.709a18.272,18.272,0,0,1,4.456.563c1.3.435,2.843.727,3.756,2.193a5.325,5.325,0,0,1-.657,6.292,45.844,45.844,0,0,0-3.992,4.1,7.506,7.506,0,0,0-1.373,6.408,9.906,9.906,0,0,1,.39,2.8c-.06.628.833.31.581,1.052-1.87-.5-3.609.7-5.555.579a25.98,25.98,0,0,0-6.509.7c-1.755.345-3.485.066-5.148.485-1.412.356-2.984.471-3.9,1.975-.445.729-1.505,1.025-1.285,2.232.085.469-.308.231-.605.035a30.863,30.863,0,0,0-3.178-2.1,7.857,7.857,0,0,1-2.01-1.5c-.559-.581-1.431-.519-1.909-1.248-.211-.322-.341-.693-.2-.814.767-.656.348-1.533.541-2.282.391-1.52.937-3.067.542-4.6a6.037,6.037,0,0,0-1.631-3.37C-648.457,854.092-649.815,852.478-651.285,850.986Z" transform="translate(-248.503 0)" fill="#ffa000"/>
    <path id="Path_1716" data-name="Path 1716" d="M-419.685,1212.593c1.166-1,2.456-1.992,2.13-3.942-.213-1.278-.5-1.842-1.814-1.787a1.413,1.413,0,0,1-1.7-1.295.486.486,0,0,0-.237-.385,3.184,3.184,0,0,1-1.484-3.4c.084-.669.182-1.42-.964-1.346-.377.024-.651-.537-.7-.884a11.689,11.689,0,0,0-.523-3.313c-.245-.575-.2-1.076-.986-.937-.763.135-.834-.262-.823-.9.038-2.22,0-4.441.025-6.661.009-.7-.034-1.115-.946-1.1-.952.011-.927.531-.924,1.179.011,2.1-.043,4.2.034,6.291.034.935-.169,1.347-1.173,1.216-.451-.059-1.221-.137-1.168.528.108,1.365-.952,2.51-.591,3.894.116.444-.008.847-.617.735-1.142-.209-1.183.5-1.1,1.3.115,1.167.086,2.338-1.012,3.038-.819.522-.722,1.224-.72,1.975.007,3.906.011,7.813-.011,11.719,0,.315.283.819-.228.952-2.123.551-2.12,2.18-2.057,3.877.024.656.25.924.959.9,1.562-.055,3.128.025,4.689-.036.714-.028.642.326.654.806.012.5.069.878-.642.827-.778-.055-1.563-.014-2.345-.011a1.392,1.392,0,0,0-1.578,1.548c-.006.9,0,1.809,0,2.713-.005,1.091.535,1.591,1.624,1.581,1.975-.018,3.95-.005,5.925-.005s3.95-.006,5.925,0a1.382,1.382,0,0,0,1.583-1.488c.026-.945.038-1.892,0-2.836a1.408,1.408,0,0,0-1.474-1.51c-.74-.025-1.483-.038-2.221,0-.657.037-.909-.1-.9-.869.007-.742.3-.759.85-.751,1.522.021,3.045.018,4.567,0,.286,0,.8.185.793-.3-.005-1.119.694-2.41-.421-3.31-1.392-1.122-1.332-2.583-1.256-4.106a17.154,17.154,0,0,0,0-2.1A1.977,1.977,0,0,1-419.685,1212.593Zm-10.843-10.384a3.265,3.265,0,0,0,.811-1.8c.147-.707-.129-1.5.548-2.086.2-.174-.157-.757.39-.734.64.027,1.411-.29,1.869.2.188.2.711.478.573.922-.357,1.151.745,2.031.545,3.147-.057.318.181.441.455.417,1-.085.705.641.73,1.155.04.831-.6.467-.96.492-.736.051-1.478.016-2.217.016-.7,0-1.4.029-2.094-.012-.328-.019-.908.23-.936-.215S-431.15,1202.718-430.527,1202.209Zm7.339,25.458c.685-.057.8.172.885.852.154,1.226-.349,1.4-1.391,1.343-1.395-.08-2.8-.02-4.2-.02-1.688,0-3.377-.047-5.062.016-1.169.044-.624-.771-.717-1.254-.109-.569-.083-1.048.754-.938a13.262,13.262,0,0,0,1.727.014c1.683,0,2.126-.4,2.038-2.12-.052-1.009.109-1.472,1.284-1.374.8.066,1.105.23.988,1.04a2.955,2.955,0,0,0,.057,1.1c.193.786.5,1.456,1.538,1.363C-424.592,1227.629-423.884,1227.726-423.189,1227.667Zm2.747-5.379h-15.115c.395-.567.877-.974,1.335-.939,1.191.09,1.085-.623,1.083-1.39-.011-4.236.012-8.473-.018-12.709-.008-1.075.418-1.511,1.491-1.5,2.428.035,4.857.045,7.284-.011.693-.016,1.316.186,1.458.749.166.658.408,1.512-.142,2.1-1.153,1.229-2.393,2.377-3.609,3.546-.573.55-.629-.149-.806-.392-.79-1.085-3.4-1.327-4.26-.371-.687.761-.417,3.554.478,4.18a6.409,6.409,0,0,1,1.707,1.711,2.987,2.987,0,0,0,4.228.452,7.076,7.076,0,0,0,1.643-1.487c.1-.169.735-.25.744-.058.016.343.318.521.266.927-.163,1.288-.549,2.617.318,3.852.4.572,1.254.178,1.566.845A4.131,4.131,0,0,0-420.442,1222.288Zm-2.974-9.121a10.217,10.217,0,0,0-2.037,1.764c-1.409,1.526-1.362,1.433-2.924.5-.671-.4-1.046-1.226-1.746-1.673a.468.468,0,0,1-.11-.552c.01-.207-.073-.491.2-.509.338-.022.67-.12,1,.231a10.868,10.868,0,0,0,1.576,1.639c.552.388.733.479,1.246-.064,1.708-1.808,3.5-3.533,5.277-5.28.389-.383.884-.894,1.4-.424.45.407-.063.887-.374,1.167A24.935,24.935,0,0,1-423.416,1213.167Z" transform="translate(-428.924 -296.015)" fill="#ffa000"/>
    <path id="Path_1717" data-name="Path 1717" d="M-831.233,1320.413c2.384,0,4.768.025,7.151-.016.669-.012.962.176.989.856.029.724-.243,1.046-.988,1.044q-7.151-.019-14.3,0c-.734,0-.991-.309-.97-1.045.021-.711.312-.861.969-.851C-836,1320.436-833.617,1320.413-831.233,1320.413Z" transform="translate(-95.964 -406.786)" fill="#ffa000"/>
    <path id="Path_1718" data-name="Path 1718" d="M-831.257,1274.044c2.34,0,4.679.009,7.019-.006.628,0,1.131.026,1.133.87,0,.812-.355.994-1.117.989q-7.018-.049-14.037,0c-.728,0-1.121-.1-1.114-.967s.466-.892,1.1-.889C-835.936,1274.053-833.6,1274.044-831.257,1274.044Z" transform="translate(-95.947 -368.395)" fill="#ffa000"/>
    <path id="Path_1719" data-name="Path 1719" d="M-887.063,1305.24c-.094,1.265-1.4,1.748-2.047,2.688-.25.364-.749.606-1.037,1.058a1.942,1.942,0,0,1-3.026.193c-.4-.5-.976-.826-1.326-1.322-.255-.361-.923-.781-.431-1.355a1.335,1.335,0,0,1,1.689-.174c.279.169.789.246.937.768.14.5.288.3.717.015a15.117,15.117,0,0,0,2.807-3.035c.274-.315.872-.23,1.3-.089C-886.859,1304.188-887.233,1304.755-887.063,1305.24Z" transform="translate(-49.795 -393.092)" fill="#ffa000"/>
    <path id="Path_1720" data-name="Path 1720" d="M-885.582,1257.721c.151,1.109-.915,1.428-1.4,1.916a23.046,23.046,0,0,1-2.76,2.708,1.282,1.282,0,0,1-.627.313c-.964.093-3.123-2.357-2.856-3.295.084-.294.023-.733.561-.829a1.773,1.773,0,0,1,1.806.793c.558.832.724.871,1.315,0s1.592-1.45,2.251-2.338c.3-.4.931-.212,1.39-.131C-885.381,1256.951-885.673,1257.465-885.582,1257.721Z" transform="translate(-51.333 -354.071)" fill="#ffa000"/>
    <path id="Path_1721" data-name="Path 1721" d="M-824.974,1049.692c1.012.007,1.875-.165,1.746,1.179-.108,1.121-.593,1.86-1.555,1.751a1.556,1.556,0,0,1-1.541-1.638C-826.432,1049.61-825.663,1049.662-824.974,1049.692Z" transform="translate(-106.746 -182.598)" fill="#ffa000"/>
    <path id="Path_1722" data-name="Path 1722" d="M-567.043,1347a2.052,2.052,0,0,1,1.777.943.7.7,0,0,0,.671.22c1.282-.2,2.8.624,3.768-1.016a1.1,1.1,0,0,1,1.525.052,1.448,1.448,0,0,1-.267,1.665c-.975,1.24-2.371,1.162-3.552,1.588-.986.355-2.084-.334-3.036-.867-.469-.263-.936-.528-1.4-.8-.6-.356-.368-.921-.307-1.413C-567.793,1346.8-567.3,1347.068-567.043,1347Z" transform="translate(-320.714 -428.706)" fill="#ffa000"/>
    <path id="Path_1723" data-name="Path 1723" d="M-907.5,1030.256a3.045,3.045,0,0,0-1.16-2.427,5.4,5.4,0,0,0-3.7-1.3c-2.051.119-4.114.033-6.171.027-.361,0-.89.135-1.019-.241-.488-1.42-1.715-1.343-2.819-1.463a19.388,19.388,0,0,0-2.344-.014c-.4.005-.787,0-.632-.572.249-.928-.5-1.713-.88-2.13a6.629,6.629,0,0,0-4.9-2.474,7.094,7.094,0,0,0-3.151.521,5.282,5.282,0,0,0-3.221,3.666c-.219,1-.572,1.016-1.295.991-.7-.024-1.4,0-2.1-.007a3.312,3.312,0,0,0-2.582,1.186,1.392,1.392,0,0,1-1.219.542c-2.222-.005-4.446.052-6.666-.026a5.45,5.45,0,0,0-2.747.8c-.97.525-1.123,1.818-1.124,2.946q-.01,13.818,0,27.636t.008,27.637a2.72,2.72,0,0,0,.23,1.412c.853,1.6,2.22,1.961,3.876,1.953q19.916-.088,39.832-.132a3.475,3.475,0,0,0,3.751-3.748Q-907.536,1057.645-907.5,1030.256Zm-34.617,4.559c.051-2.1.049-4.193.006-6.288-.02-1,.331-1.389,1.36-1.316,1.146.081,2.3.043,3.453.011a1.426,1.426,0,0,0,1.576-1.649,4.21,4.21,0,0,1,1.489-3.172c.688-.729,2.823-.634,3.816-.488,1.559.23,1.972,1.576,2.92,2.383.407.346.233.9.27,1.369.081,1.013.548,1.594,1.639,1.57,1.11-.024,2.221,0,3.331-.008.942-.01,1.349.441,1.338,1.379-.023,1.932-.033,3.864,0,5.8.019.983-.43,1.364-1.361,1.361-3.167-.01-6.334,0-9.5,0-3.126,0-6.252-.026-9.377.018C-941.919,1035.787-942.136,1035.575-942.118,1034.815Zm.772,3.3c5.76.026,11.521,0,17.281-.014.616,0,1.233-.032,1.847,0,2.039.116,3.031-.714,3.116-2.745.023-.542.148-.67.68-.7,2.68-.146,2.679-.164,2.679,2.536v20.233c0,7.2-.016,14.393.022,21.589,0,.8-.182,1-.979.995q-14.814-.042-29.628,0c-.856,0-.972-.284-.971-1.039q.033-21.651,0-43.3c0-.816.2-1.117,1.007-1.007a3.828,3.828,0,0,0,1.108,0c.995-.16,1.375.155,1.29,1.225C-943.985,1037-942.713,1038.113-941.346,1038.119Zm31.74,44.019a17.178,17.178,0,0,1-.288,3.661,1.249,1.249,0,0,1-1.411,1.122q-20.187-.027-40.374-.017a1.766,1.766,0,0,1-1.817-1.5,6.172,6.172,0,0,1-.13-1.459q-.011-13.141-.005-26.281,0-13.2,0-26.4a2.125,2.125,0,0,1,2.351-2.34c2.181,0,4.363.023,6.544-.013.646-.011.815.175.829.826.066,3.107.089,3.076-3.1,3.128-.79.013-1.732-.447-2.339.645a2.159,2.159,0,0,0-.32,1.106q.005,16.534.02,33.067c0,4.318.035,8.636-.008,12.954-.01.968.36,1.334,1.259,1.323,2.589-.032,5.178-.084,7.767-.087,8.4-.011,16.792-.028,25.187.022,1.243.007,1.573-.343,1.568-1.594q-.074-19.063,0-38.126c.012-2.727-.028-5.453,0-8.18.008-.873-.225-1.254-1.183-1.171-1.062.092-2.139-.005-3.208.031-.606.021-.829-.108-.838-.8-.04-3.131-.07-3.13,3.09-3.131,1.481,0,2.966.057,4.444-.02,1.213-.064,1.669.5,1.747,1.613.122,1.718-.111,3.427-.031,5.156.119,2.575-.039,5.18.014,7.752.032,1.566-.013,3.147.015,4.717.076,4.4.032,8.8.034,13.2,0,4.233-.028,8.465.011,12.7C-909.76,1076.738-909.532,1079.441-909.606,1082.138Z" transform="translate(0 -157.735)" fill="#ffa000"/>
    <path id="Path_1724" data-name="Path 1724" d="M-550.1,921.736c-.192-.757-1.529-2.673-2.315-2.869a4.773,4.773,0,0,0-4.442,1.529,9.676,9.676,0,0,0-2.009,2.145c-.349.672-1.151.667-1.6,1.109a23.352,23.352,0,0,1-2.274,2.584c-1.255.941-1.334,1.055-2.454-.094a6.062,6.062,0,0,1-.491-.506c-1.244-1.625-2.476-1.942-4.264-1.086-2.6,1.244-3.113,3.7-1.192,5.81,1.117,1.226,2.412,2.3,3.5,3.53a4.052,4.052,0,0,0,3.81,1.675,2.952,2.952,0,0,0,2.723-.879c.681-.716,1.442-1.455,2.18-2.137.6-.558,1.25-1.184,1.843-1.808,1.57-1.653,3.243-3.208,4.8-4.874C-551.2,924.7-549.565,923.825-550.1,921.736Zm-2.306,1.377c-2.316,2.283-4.57,4.628-6.91,6.889-1.171,1.132-2.252,2.366-3.479,3.444a1.571,1.571,0,0,1-1.936.066,11.186,11.186,0,0,1-2.817-3.054.356.356,0,0,0-.26-.155c-1.368-.2-1.3-1.885-2.421-2.337a16.6,16.6,0,0,1,1.027-1.547c.1-.121.471-.018.808-.018.712-.164,1.157.312,1.632.86a16.03,16.03,0,0,0,2.083,2.085c1.014.807,1.564.612,2.4-.316,1.483-1.637,3.041-3.208,4.594-4.781,1.057-1.071,2.2-2.058,3.227-3.16.866-.932,1.41-.233,1.978.28S-551.678,922.4-552.4,923.112Z" transform="translate(-317.124 -74.174)" fill="#ffa000"/>
    <path id="Path_1725" data-name="Path 1725" d="M-857.987,1144.819c-2.174-2.672-6.476-2.6-8.6-.961-.366.281-.928.317-1.115-.043-.626-1.206-1.736-.937-2.726-1.033-3.84-.373-5.52,1.61-6.522,4.416a4.545,4.545,0,0,0,.873,4.312c.318.4.258.87.725,1.279a70.25,70.25,0,0,1,5.058,5.06c1,1.078,1.845,2.005,3.234,1.748a3.136,3.136,0,0,0,2.742-.91c.711-.51,1.081-1.29,1.75-1.8,1.464-1.116,2.547-2.629,4-3.781a5.829,5.829,0,0,0,1.278-1.982,16.074,16.074,0,0,0,.447-2.189A4.57,4.57,0,0,0-857.987,1144.819Zm-4.514,7.289a2.38,2.38,0,0,1-.491.008c-1.462-.332-2.107.517-2.379,1.735-.161.719-.706.414-1.064.517s-.567-.135-.791-.533a12.1,12.1,0,0,1-.748-2.214c-1.32.9-2.749.478-4.107.39-.506-.033-.254-.757-.279-1.179s.222-.572.615-.544a3.615,3.615,0,0,1,.369,0c1.465.262,2.335-.271,2.484-1.817.063-.645.6-.425.962-.444a1.2,1.2,0,0,1,1.3,1.075,6.864,6.864,0,0,0,.458,1.929,1.066,1.066,0,0,1,1.258-.76,18.932,18.932,0,0,0,2.342.006c.7-.039.684.409.672.872C-861.913,1151.581-861.781,1152.115-862.5,1152.109Z" transform="translate(-64.64 -259.634)" fill="#ffa000"/>
  </g>
</svg>
