<svg xmlns="http://www.w3.org/2000/svg" width="202.999" height="198.136" viewBox="0 0 202.999 198.136">
  <g id="Group_8258" data-name="Group 8258" transform="translate(-486.905 -298.198)">
    <g id="Group_8256" data-name="Group 8256" transform="translate(486.905 298.198)">
      <path id="Path_1566" data-name="Path 1566" d="M668.615,409.917c-16.795-10.746-37.073-10.341-53.5,1.149-2.672,1.872-5.052,5.252-7.973.363-2.124-3.558-7.446-5.838-2.12-11.531,7.461-7.973,12.317-17.929,17.618-27.433,1.975-3.547,4.652-8.318,1.942-11.761-4.415-5.6-3.347-11.52-3.392-18.93,1.394-12.276-3.036-23.57-13.329-32.744-19.964-17.8-50.892-13.029-61.778,9.63-4.685,9.76-4.485,20.116-3.962,30.55.122,2.432,1.471,5-1.171,7.209-6.138,5.13-4.363,11.15-1.09,16.817,4.274,7.406,8.333,15.108,13.748,21.636,4.611,5.56,3.655,9.889.9,15.464-2.406,4.878-6.709,6.427-11.087,7.706-10.2,2.984-20.575,5.352-30.809,8.221-13.785,3.866-22.006,13.055-24.96,27-2.48,11.706,1,16.087,12.866,16.1,31.254.033,62.508.085,93.766-.074,4.062-.022,6.216,1.071,8.436,4.77A46.8,46.8,0,0,0,653.2,495.061c19.964-4.926,31.825-18,35.884-37.841C692.742,439.358,683.857,419.669,668.615,409.917Zm-98.855-89.53c.115-1.864,1.193-3.006,3-2.765,3.825.515,5.085-.978,4.744-4.744-.2-2.206,1.561-2.98,3.666-3.043,2.458-.074,3.329,1.394,3.169,3.41-.275,3.414,1.053,4.767,4.455,4.355,1.794-.215,3.025.641,3.051,2.609.018,1.5.452,3.84-1.4,3.962-4.281.278-6.624,1.69-6.434,6.394.059,1.453-1.75,1.624-3.1,1.575-1.386.059-3.288-.46-3.173-1.586.493-4.915-1.9-6.216-6.275-6.35C569.615,324.149,569.663,321.973,569.76,320.387Zm-26.991,48.156c-2.395-4.47-1.731-8.184,4.248-8.959,1.616-.211,3.169-.319,3.569-2.268,3.336-16.3,16.253-17.532,27.273-18.655,10.923.4,19.526,1.927,27.358,6.631,3.948,2.369,7.135,5.134,7.94,9.978.337,2.039.927,4.833,2.958,5.119,6.613.934,5.015,5.145,3.192,8.377-6.246,11.057-11.887,22.592-21.161,31.6-11.094,10.779-22.744,11.038-33.589.308C555.234,391.45,548.91,380,542.768,368.543Zm38.312,63.8c-10.564-.134-19.33-4.648-24.223-14.252-2.35-4.611,3.432-8.1,3.284-13.785,12.335,9.274,23.819,11.6,36.121,4.107,1.779-1.082,3.781-1.431,4.385.9.912,3.518,7.12,4.744,4.314,9.645C599.709,428.146,591.373,432.468,581.08,432.342Zm61.052,55.677a39.048,39.048,0,0,1-38.223-39.242c.182-20.79,17.858-38.289,38.537-38.16,21.732.141,39.613,18.1,39.083,39.238C681,471.161,663.2,488.4,642.132,488.019Z" transform="translate(-486.905 -298.198)" fill="#ffa000"/>
      <path id="Path_1567" data-name="Path 1567" d="M529.283,322.735c-6.494,1.345-13.27-1.616-19.66,1.045C516.321,326.723,522.919,327.3,529.283,322.735Z" transform="translate(-425.415 -232.081)" fill="#ffa000"/>
      <path id="Path_1568" data-name="Path 1568" d="M529.27,316.395c-4.618-5.256-9.122-4.426-14.826.767C520.245,316.925,524.737,315.487,529.27,316.395Z" transform="translate(-412.367 -258.574)" fill="#ffa000"/>
      <path id="Path_1569" data-name="Path 1569" d="M520.107,316.222c-6.5-5.108-9.637-4.782-14.056,2.795C511.114,314.884,515.607,317.541,520.107,316.222Z" transform="translate(-435.083 -258.701)" fill="#ffa000"/>
      <path id="Path_1570" data-name="Path 1570" d="M527.376,315.344H514.729C519.633,319.9,521.449,319.918,527.376,315.344Z" transform="translate(-411.595 -251.789)" fill="#ffa000"/>
      <path id="Path_1571" data-name="Path 1571" d="M517.045,317.119c-4.1-2.15-4.8-2.209-10.327-.89C511.455,319.343,511.455,319.343,517.045,317.119Z" transform="translate(-433.278 -251.777)" fill="#ffa000"/>
      <path id="Path_1572" data-name="Path 1572" d="M533.769,340.548" transform="translate(-360.061 -183.571)" fill="#ffa000"/>
      <path id="Path_1573" data-name="Path 1573" d="M535.648,340.125" transform="translate(-354.975 -184.716)" fill="#ffa000"/>
      <path id="Path_1574" data-name="Path 1574" d="M533.719,340.833" transform="translate(-360.196 -182.8)" fill="#ffa000"/>
      <path id="Path_1575" data-name="Path 1575" d="M528.657,339.4h0" transform="translate(-373.898 -186.683)" fill="#ffa000"/>
    </g>
    <g id="Group_8257" data-name="Group 8257" transform="translate(619.785 427.019)">
      <path id="Path_1576" data-name="Path 1576" d="M541.654,371.438a25.215,25.215,0,0,1-.334,5.538,4.409,4.409,0,0,1-4.622,3.762,4.689,4.689,0,0,1-2.932-1.283,14.407,14.407,0,0,1-3.454-5.223,47.371,47.371,0,0,1-2.891-9.2c-.827-3.807-1.913-7.539-2.932-11.294a47.6,47.6,0,0,1-1.668-8.966,17.741,17.741,0,0,1,.323-5.363,7.882,7.882,0,0,1,6.168-6.123,13.311,13.311,0,0,1,7.187.389c1.983.571,3.929,1.268,5.927,1.761a15.227,15.227,0,0,0,8.625-.567,40.176,40.176,0,0,1,6.323-1.75,10.8,10.8,0,0,1,7.258,1.2,7.733,7.733,0,0,1,3.751,5.775,22.88,22.88,0,0,1-.156,7.539,126.62,126.62,0,0,1-3.136,12.64c-.793,3.028-1.349,6.116-2.268,9.111a30.34,30.34,0,0,1-3.47,8.047,11.238,11.238,0,0,1-1.694,1.987,4.465,4.465,0,0,1-7.595-2.461,14.781,14.781,0,0,1-.326-2.913c-.007-1.894.015-3.784-.015-5.675a8.3,8.3,0,0,0-.526-2.984,3.827,3.827,0,0,0-7.013.007,8.605,8.605,0,0,0-.523,2.928C541.628,369.366,541.654,370.4,541.654,371.438Z" transform="translate(-522.754 -332.952)" fill="#ffa000"/>
    </g>
  </g>
</svg>
