<svg xmlns="http://www.w3.org/2000/svg" width="168.914" height="152.744" viewBox="0 0 168.914 152.744">
  <g id="Group_8268" data-name="Group 8268" transform="translate(-184.377 276.833)">
    <g id="Group_8267" data-name="Group 8267" transform="translate(184.377 -276.833)">
      <path id="Path_1618" data-name="Path 1618" d="M229.185-276.794c6.235,0,12.469-.06,18.7.01,9.227.108,15.284,6.15,15.432,15.4.084,5.2-.1,10.394.071,15.58.074,2.2-.6,3.185-2.737,3.79-21.145,6-42.264,5.606-63.409.02-2.075-.548-2.939-1.493-2.852-3.75.212-5.444.024-10.905.249-16.35.35-8.531,6.49-14.5,15.069-14.672C216.2-276.9,222.695-276.794,229.185-276.794Z" transform="translate(-160.732 276.833)" fill="#ffa000"/>
      <path id="Path_1619" data-name="Path 1619" d="M263.272-254.506c.081,5.912-1.127,11.333-5.871,15.429-1.338,1.157-1.493,2.979-2.149,4.51-5.932,13.861-20.577,21.6-33.779,17.406a29.192,29.192,0,0,1-19.027-18.129,17.314,17.314,0,0,0-3.208-5.2c-4.984-5.781-5.717-12.658-4.005-19.746,1.143-4.735,5.576-5.989,9.423-2.956,1.426,1.127,1.127,2.448-.646,3.2-4.086,1.722-2.485,5.3-2.394,8.141.1,3.127,1.147,6.154,3.988,8.06.847.568,1.735-.118,2.6-.353a79.029,79.029,0,0,1,41.52-.279c.942.242,1.907,1.049,2.969.38,2.99-1.89,3.709-4.987,3.77-8.118.054-2.741,1.584-6.161-2.334-7.792-.844-.353-1.729-.666-1.634-1.849.1-1.285,1.046-1.631,2.071-1.981,5.761-1.961,7.381-1.137,8.679,5.784A19.252,19.252,0,0,1,263.272-254.506Z" transform="translate(-160.697 305.162)" fill="#ffa000"/>
      <path id="Path_1620" data-name="Path 1620" d="M309.382-238.272a137.525,137.525,0,0,0-26.448-11.134c-2.455-.767-3.823-.383-5.34,1.924-7.634,11.615-16.622,22.2-25.487,33.076-8.666-11.128-17.594-21.784-25.315-33.345-1.318-1.974-2.458-2.435-4.694-1.755a130.442,130.442,0,0,0-28.17,12.009c-5.014,2.929-8.942,7.106-9.234,13.165a243.711,243.711,0,0,0-.013,24.535c.387,7.391,4.99,11.807,11.43,11.813q55.935.051,111.87.027c4.849,0,8.081-2.3,10.051-6.608a18.514,18.514,0,0,0,1.621-7.936c-.027-5.976-.491-12,.108-17.917C320.641-229.139,316.276-234.4,309.382-238.272Zm-9.09,25.524c-3.729-.622-4.456,1.147-4.072,4.325.272,2.256-.794,3.928-3.144,4.025-2.6.111-3.81-1.695-3.551-4.059.363-3.312-.9-4.3-4.086-3.978-2.267.229-4.207-.683-4.153-3.43.054-2.727,1.937-3.595,4.254-3.258,3.279.474,3.971-1.026,3.669-3.877-.269-2.552.844-4.244,3.571-4.583,2.267.293,3.7,1.493,3.423,3.84-.377,3.259.474,4.815,4.123,4.328,2.256-.3,4.277.73,4.237,3.39C304.523-213.431,302.657-212.355,300.293-212.748Z" transform="translate(-184.377 340.702)" fill="#ffa000"/>
    </g>
    <path id="Path_1621" data-name="Path 1621" d="M242.632-224.4a4.35,4.35,0,0,1-.908-.108,3.446,3.446,0,0,1-2.451-2.082,7.825,7.825,0,0,1-.531-3.238,15.608,15.608,0,0,1,.39-3.033,21.9,21.9,0,0,1,1.389-4.059,27.324,27.324,0,0,1,2.112-3.793l.027-.04a55.338,55.338,0,0,1,8.5-8.773,65.1,65.1,0,0,1,10.694-7.193.566.566,0,0,1,.77.225.565.565,0,0,1-.215.767,47.012,47.012,0,0,0-6.235,4.721,40.485,40.485,0,0,0-5.081,5.461,22.234,22.234,0,0,0-3.632,6.167,17.334,17.334,0,0,0-.736,5.65c0,.407,0,.888.027,1.409.017.666.044,1.4.024,2.139C246.688-227.272,246.062-224.326,242.632-224.4Zm-2.33-22.672-.064.027a2.208,2.208,0,0,0-2.818-1.167l-.027-.067a2.214,2.214,0,0,0,1.184-2.818l.064-.027a2.208,2.208,0,0,0,2.818,1.167l.027.067a2.215,2.215,0,0,0-1.17,2.818Zm14.248-9.883-.1.04a3.142,3.142,0,0,0-1.8-1.752,3.15,3.15,0,0,0-2.505-.03l-.04-.1a3.17,3.17,0,0,0,1.742-1.8,3.145,3.145,0,0,0,.037-2.509l.1-.04a3.177,3.177,0,0,0,1.8,1.755,3.187,3.187,0,0,0,2.509.03l.044.1a3.155,3.155,0,0,0-1.755,1.806,3.158,3.158,0,0,0-.03,2.509Zm-9.157,3.03-.121.054a4.165,4.165,0,0,0-5.344-2.213l-.05-.121a4.166,4.166,0,0,0,2.213-5.343l.124-.054a4.168,4.168,0,0,0,5.343,2.213l.05.121a4.171,4.171,0,0,0-2.213,5.343Zm-19.541,17.661a.736.736,0,0,1,.737.736.736.736,0,0,1-.737.737.739.739,0,0,1-.74-.737.754.754,0,0,1,.757-.736Zm33.655.04a.734.734,0,0,1,.716.753.736.736,0,0,1-.753.72.737.737,0,0,1-.72-.736A.756.756,0,0,1,259.507-236.227Zm-4.143.3a.742.742,0,0,1,.74.74.739.739,0,0,1-.74.736.736.736,0,0,1-.736-.736A.757.757,0,0,1,255.364-235.928Zm1.564,2.075a.739.739,0,0,1,.74.736.739.739,0,0,1-.74.737.736.736,0,0,1-.737-.737A.754.754,0,0,1,256.927-233.853Zm-3.736-.252a.737.737,0,0,1,.74.736.738.738,0,0,1-.74.74.737.737,0,0,1-.736-.74A.736.736,0,0,1,253.191-234.1Zm-1.967-2.021a.737.737,0,0,1,.736.74.736.736,0,0,1-.736.737.736.736,0,0,1-.736-.737A.755.755,0,0,1,251.224-236.126Zm-17.073-.256a.759.759,0,0,1,.763.753.759.759,0,0,1-.757.763.759.759,0,0,1-.763-.757v-.024A.754.754,0,0,1,234.151-236.382Zm-4.143.3a.764.764,0,0,1,.78.74.761.761,0,0,1-.736.78.762.762,0,0,1-.784-.736v-.023A.762.762,0,0,1,230.008-236.082Zm1.56,2.065a.765.765,0,0,1,.784.74.763.763,0,0,1-.737.78.76.76,0,0,1-.784-.736v-.024A.759.759,0,0,1,231.569-234.017Zm-3.736-.249a.761.761,0,0,1,.763.757.764.764,0,0,1-.757.763.759.759,0,0,1-.763-.757v-.027A.756.756,0,0,1,227.832-234.266Zm34.859-2.973v17.382a2.028,2.028,0,0,1-2.024,2.021H224.742a2.027,2.027,0,0,1-2.021-2.021v-17.379a2.029,2.029,0,0,1,2.021-2.021.573.573,0,0,1,.225.044,16.9,16.9,0,0,0,6.561,1.167,24.64,24.64,0,0,0,6.86-1.187.57.57,0,0,1,.706.393.545.545,0,0,1-.01.343h0a33.091,33.091,0,0,0-1.843,6.5,11.256,11.256,0,0,0,.148,4.91,5.807,5.807,0,0,0,3.319,3.8,5.347,5.347,0,0,0,2.683.37,5.193,5.193,0,0,0,2.559-1.032,6.77,6.77,0,0,0,2.4-5.246c.037-.7,0-1.429-.034-2.236-.027-.605-.054-1.251-.054-1.991,0-.245,0-.521-.023-.8s0-.572,0-.888c0-2.472.659-3.655,1.782-4.106,1.059-.427,2.431-.1,3.968.393.646.208,1.133.407,1.544.575,1.106.454,1.456.6,3.447-.269l.188-.081a5.268,5.268,0,0,1,1.92-.585c.891,0,1.587.454,1.587,1.93Zm-1.137,17.379v-17.376c0-.605-.2-.787-.447-.787a4.312,4.312,0,0,0-1.476.471l-.2.087c-2.428,1.053-2.885.868-4.325.276-.37-.155-.837-.343-1.476-.545a5.448,5.448,0,0,0-3.2-.417c-.679.269-1.083,1.137-1.073,3.047v1.681c0,.693.034,1.342.061,1.947.037.841.067,1.594.03,2.341a7.868,7.868,0,0,1-2.848,6.093,6.361,6.361,0,0,1-3.087,1.258,6.566,6.566,0,0,1-3.225-.434,6.9,6.9,0,0,1-3.965-4.533,12.319,12.319,0,0,1-.2-5.407,32.576,32.576,0,0,1,1.507-5.68,24.567,24.567,0,0,1-6.09.925,18.105,18.105,0,0,1-6.9-1.2.9.9,0,0,0-.531.256.878.878,0,0,0-.259.622v17.379a.886.886,0,0,0,.881.881h35.918a.884.884,0,0,0,.622-.259.839.839,0,0,0,.266-.619Z" transform="translate(90.599 32.339)" fill="#ffa000"/>
  </g>
</svg>
