<svg xmlns="http://www.w3.org/2000/svg" width="187.68" height="175.171" viewBox="0 0 187.68 175.171">
  <g id="Group_8260" data-name="Group 8260" transform="translate(-495.343 -471.601)">
    <path id="Path_1577" data-name="Path 1577" d="M554.753,489.031a21.917,21.917,0,1,0,21.919,21.915A21.917,21.917,0,0,0,554.753,489.031Zm11.429,20.411a42.079,42.079,0,0,1-2.379,5.344,14.791,14.791,0,0,1-2.977,3.791c-.583.56-1.2,1.078-1.815,1.6a10.48,10.48,0,0,0-2.39,3.158c-.572,1.089-1.082,2.21-1.6,3.326a5.494,5.494,0,0,1-3.7,3.1,6.318,6.318,0,0,1-6.553-1.773,9.055,9.055,0,0,1-2.386-4.4,7.909,7.909,0,0,1-.065-2.233,4.142,4.142,0,0,1,1.665-3.127,2.425,2.425,0,0,1,1.677-.541.988.988,0,0,1,.829.483,2.494,2.494,0,0,1,.406,1.331,8.47,8.47,0,0,1-.434,2.517,7.972,7.972,0,0,0-.384,2.145,2.6,2.6,0,0,0,1.734,2.64,3.991,3.991,0,0,0,2.682.238,3.7,3.7,0,0,0,2.279-1.934,15.152,15.152,0,0,0,1.021-2.644,14.777,14.777,0,0,1,.9-2.321,9.355,9.355,0,0,1,1.75-2.244c.932-.932,1.88-1.849,2.808-2.781a12.932,12.932,0,0,0,2.244-2.736,16.95,16.95,0,0,0,1.247-2.943,17.511,17.511,0,0,0,.886-6.4,12.727,12.727,0,0,0-.848-4.278,7.052,7.052,0,0,0-4.827-4.312,2.457,2.457,0,0,0-.626-.084,13.288,13.288,0,0,0-3.05.146,10.174,10.174,0,0,0-5.034,2.459,7.583,7.583,0,0,0-2.26,4.167c-.257,1.254-.384,2.532-.549,3.8a8.658,8.658,0,0,1-.28,1.539,1.713,1.713,0,0,1-.794,1.024,1.113,1.113,0,0,1-1.623-.468,2.966,2.966,0,0,1-.288-1.048,13.858,13.858,0,0,1,.553-5.77,14.1,14.1,0,0,1,2.014-4.017,10.507,10.507,0,0,1,5.087-3.7,12.054,12.054,0,0,1,5.184-.568,14.361,14.361,0,0,1,3.852.809,11.565,11.565,0,0,1,6.9,8.383,19.2,19.2,0,0,1,.2,2.816A15.516,15.516,0,0,1,566.183,509.442Zm-14.906.595a24.087,24.087,0,0,0-1.358-3.154c-.207-.43-.406-.867-.61-1.3a5.866,5.866,0,0,1-.495-3.058,6.865,6.865,0,0,1,1.178-3.342,4.519,4.519,0,0,1,3.821-2.072c.123,0,.242,0,.365,0h.564a10.189,10.189,0,0,1,2.751.376,4.676,4.676,0,0,1,3.338,3.365,8.558,8.558,0,0,1,.15,4,18.04,18.04,0,0,1-1.638,4.761,1.508,1.508,0,0,1-.522.668.4.4,0,0,1-.637-.311,5.967,5.967,0,0,1,.107-1.523,21.927,21.927,0,0,0,.43-3.2,8.242,8.242,0,0,0-.3-2.755,5.382,5.382,0,0,0-.779-1.473,3.064,3.064,0,0,0-2.59-1.182,3.1,3.1,0,0,0-2.851,2.291,3.943,3.943,0,0,0,.4,2.64,9.523,9.523,0,0,0,1.339,1.834,16.017,16.017,0,0,1,1.922,2.532,4.539,4.539,0,0,1,.591,2.129,7.821,7.821,0,0,1-.652,3.361,14.736,14.736,0,0,1-1.535,3.046,3.956,3.956,0,0,1-1.462,1.259,1.3,1.3,0,0,1-.518.165,7.4,7.4,0,0,1-1.4-.008,2.153,2.153,0,0,1-1.243-.672,3.16,3.16,0,0,1-1.074-2.455,6.467,6.467,0,0,1,.073-1.47,4.591,4.591,0,0,1,2.072-2.973C551.442,511.1,551.526,510.82,551.277,510.037Z" transform="translate(106.35 49.443)" fill="#ffa000"/>
    <g id="Group_8259" data-name="Group 8259" transform="translate(495.343 471.601)">
      <path id="Path_1578" data-name="Path 1578" d="M545.315,471.642c7.148,0,14.3-.069,21.447.015,10.582.123,17.526,7.052,17.695,17.66.1,5.955-.115,11.917.081,17.868.084,2.517-.691,3.653-3.138,4.347-24.252,6.883-48.469,6.427-72.721.019-2.379-.625-3.369-1.711-3.269-4.3.242-6.246.023-12.508.284-18.754.4-9.784,7.447-16.624,17.28-16.824C530.417,471.527,537.867,471.646,545.315,471.642Z" transform="translate(-466.808 -471.601)" fill="#ffa000"/>
      <path id="Path_1579" data-name="Path 1579" d="M584.4,495.51c.092,6.779-1.293,12.995-6.733,17.695-1.535,1.327-1.715,3.415-2.467,5.172-6.8,15.9-23.6,24.77-38.735,19.958-10.49-3.334-17.837-10.451-21.823-20.791a19.882,19.882,0,0,0-3.679-5.966c-5.717-6.626-6.557-14.518-4.593-22.644,1.308-5.433,6.392-6.871,10.8-3.392,1.638,1.293,1.3,2.809-.737,3.668-4.689,1.976-2.851,6.077-2.747,9.338.111,3.587,1.316,7.056,4.573,9.243.971.652,1.987-.134,2.977-.407a90.648,90.648,0,0,1,47.617-.319c1.078.28,2.187,1.2,3.4.437,3.43-2.168,4.255-5.721,4.324-9.312.061-3.142,1.819-7.063-2.678-8.936-.966-.4-1.98-.76-1.872-2.118.115-1.473,1.2-1.872,2.379-2.275,6.6-2.248,8.464-1.3,9.952,6.633A22.225,22.225,0,0,1,584.4,495.51Z" transform="translate(-466.767 -437.415)" fill="#ffa000"/>
      <path id="Path_1580" data-name="Path 1580" d="M638.7,512a157.815,157.815,0,0,0-30.333-12.772c-2.816-.879-4.385-.437-6.123,2.206-8.759,13.321-19.064,25.464-29.232,37.933-9.937-12.761-20.177-24.981-29.032-38.24-1.512-2.264-2.82-2.789-5.383-2.015a149.817,149.817,0,0,0-32.3,13.77c-5.751,3.361-10.256,8.153-10.59,15.1a279.865,279.865,0,0,0-.019,28.138c.445,8.479,5.724,13.544,13.11,13.547q64.146.058,128.3.031c5.56,0,9.266-2.64,11.526-7.577a21.282,21.282,0,0,0,1.857-9.1c-.027-6.856-.564-13.766.123-20.549C651.615,522.47,646.608,516.431,638.7,512Zm-10.424,29.27c-4.278-.714-5.11,1.316-4.673,4.961.311,2.586-.909,4.5-3.6,4.616-2.985.127-4.37-1.945-4.074-4.658.414-3.8-1.036-4.93-4.685-4.562-2.6.265-4.827-.779-4.765-3.933.061-3.127,2.221-4.124,4.88-3.737,3.756.545,4.554-1.178,4.209-4.447-.311-2.924.963-4.869,4.094-5.256,2.6.338,4.24,1.715,3.925,4.4-.434,3.737.545,5.521,4.731,4.965,2.586-.345,4.9.836,4.857,3.887C633.13,540.483,630.989,541.715,628.28,541.266Z" transform="translate(-495.343 -394.525)" fill="#ffa000"/>
    </g>
  </g>
</svg>
