<svg xmlns="http://www.w3.org/2000/svg" width="171.211" height="167.107" viewBox="0 0 171.211 167.107">
  <g id="Group_8274" data-name="Group 8274" transform="translate(-1537.537 441.418)">
    <g id="Group_8272" data-name="Group 8272" transform="translate(1537.537 -441.418)">
      <path id="Path_1633" data-name="Path 1633" d="M1690.793-347.2a39.715,39.715,0,0,0-45.12.97c-2.253,1.577-4.263,4.428-6.724.307-1.791-3-6.28-4.923-1.788-9.726,6.292-6.724,10.389-15.119,14.86-23.137,1.665-2.989,3.924-7.016,1.635-9.919-3.722-4.725-2.823-9.716-2.858-15.965,1.175-10.354-2.56-19.879-11.241-27.615-16.839-15.008-42.922-10.989-52.1,8.123-3.954,8.229-3.783,16.965-3.343,25.761.1,2.052,1.241,4.217-.99,6.081-5.174,4.328-3.677,9.4-.919,14.184,3.607,6.247,7.031,12.743,11.595,18.246,3.891,4.692,3.082,8.342.764,13.044-2.03,4.115-5.657,5.421-9.349,6.5-8.6,2.514-17.352,4.514-25.982,6.935-11.628,3.258-18.563,11.009-21.055,22.767-2.092,9.871.842,13.566,10.851,13.577,26.359.028,52.721.07,79.08-.065,3.429-.018,5.245.9,7.119,4.026a39.474,39.474,0,0,0,42.568,17.716c16.839-4.152,26.842-15.182,30.265-31.913C1711.141-322.364,1703.648-338.97,1690.793-347.2ZM1607.417-422.7c.1-1.573,1.007-2.537,2.532-2.331,3.228.435,4.293-.826,4-4-.168-1.861,1.319-2.512,3.092-2.567,2.073-.063,2.809,1.176,2.673,2.876-.229,2.879.889,4.019,3.758,3.672a2.059,2.059,0,0,1,2.575,2.2c.015,1.269.382,3.238-1.183,3.341-3.612.234-5.586,1.424-5.426,5.393.048,1.226-1.477,1.369-2.615,1.329-1.173.05-2.776-.389-2.68-1.339.417-4.145-1.6-5.245-5.29-5.355C1607.3-419.532,1607.334-421.366,1607.417-422.7Zm-22.765,40.614c-2.019-3.768-1.459-6.9,3.584-7.556,1.362-.176,2.673-.269,3.009-1.912,2.813-13.747,13.707-14.79,23-15.734,9.211.342,16.468,1.625,23.073,5.591,3.331,2,6.016,4.33,6.7,8.417.286,1.721.781,4.074,2.494,4.318,5.576.786,4.23,4.34,2.69,7.066-5.265,9.321-10.025,19.052-17.847,26.653-9.354,9.088-19.18,9.309-28.329.259C1595.167-362.769,1589.831-372.427,1584.652-382.09Zm32.315,53.809c-8.912-.113-16.3-3.918-20.431-12.019-1.982-3.888,2.9-6.83,2.77-11.627,10.4,7.824,20.09,9.784,30.464,3.466,1.5-.914,3.187-1.208,3.7.761.769,2.966,6.006,4,3.639,8.136C1632.678-331.821,1625.648-328.174,1616.967-328.282Zm51.49,46.959a32.939,32.939,0,0,1-32.239-33.1c.156-17.533,15.063-32.292,32.5-32.182,18.329.118,33.41,15.259,32.963,33.094C1701.234-295.542,1686.226-281,1668.457-281.323Z" transform="translate(-1537.537 441.418)" fill="#ffa000"/>
      <path id="Path_1634" data-name="Path 1634" d="M1582.394-410.923c-5.478,1.135-11.193-1.364-16.583.879C1571.46-407.562,1577.026-407.072,1582.394-410.923Z" transform="translate(-1494.791 487.381)" fill="#ffa000"/>
      <path id="Path_1635" data-name="Path 1635" d="M1584.32-420.2c-3.9-4.433-7.7-3.735-12.509.643C1576.7-419.749,1580.492-420.965,1584.32-420.2Z" transform="translate(-1485.72 468.964)" fill="#ffa000"/>
      <path id="Path_1636" data-name="Path 1636" d="M1573.219-420.364c-5.478-4.305-8.126-4.031-11.854,2.359C1565.636-421.492,1569.424-419.251,1573.219-420.364Z" transform="translate(-1501.511 468.876)" fill="#ffa000"/>
      <path id="Path_1637" data-name="Path 1637" d="M1582.834-420.078h-10.668C1576.3-416.24,1577.835-416.222,1582.834-420.078Z" transform="translate(-1485.183 473.681)" fill="#ffa000"/>
      <path id="Path_1638" data-name="Path 1638" d="M1570.9-418.579c-3.456-1.814-4.047-1.864-8.708-.751C1566.193-416.705,1566.193-416.705,1570.9-418.579Z" transform="translate(-1500.256 473.689)" fill="#ffa000"/>
      <path id="Path_1639" data-name="Path 1639" d="M1595.863-388.71" transform="translate(-1449.357 521.105)" fill="#ffa000"/>
      <path id="Path_1640" data-name="Path 1640" d="M1598.2-389.237" transform="translate(-1445.821 520.308)" fill="#ffa000"/>
      <path id="Path_1641" data-name="Path 1641" d="M1595.8-388.356" transform="translate(-1449.451 521.64)" fill="#ffa000"/>
      <path id="Path_1642" data-name="Path 1642" d="M1589.5-390.141h0" transform="translate(-1458.976 518.941)" fill="#ffa000"/>
    </g>
    <g id="Group_8273" data-name="Group 8273" transform="translate(1653.663 -335.928)">
      <path id="Path_1643" data-name="Path 1643" d="M1606.329-382.78a24.16,24.16,0,0,0,2.7-.025,4.783,4.783,0,0,1,3.846,1.374c2,1.746,3.83,3.672,5.762,5.491.927.872,1.806,1.8,2.763,2.632a2.508,2.508,0,0,1,.608,3.072,3.279,3.279,0,0,1-2.75,2,1.968,1.968,0,0,1-1.63-.525c-1.766-1.673-3.708-3.165-5.305-5.014-.475-.55-.9-1.145-1.329-1.731a3.034,3.034,0,0,0-2.856-1.4c-.354.033-.807-.111-1.04.063-.216.156,0,.623.012.952a11.656,11.656,0,0,1-7.068,11.218,11.7,11.7,0,0,1-16.033-8.372,11.668,11.668,0,0,1,9.163-13.747,13.223,13.223,0,0,1,1.984-.221c.3-.013.39-.085.379-.4-.06-1.844-.055-3.69-.156-5.534a3.377,3.377,0,0,1,2.833-3.579,3.867,3.867,0,0,1,4.383,1.992,2.7,2.7,0,0,1,.229,1.035c.023,1.1.058,2.2.09,3.3-.311.005-.62,0-.932.018a8.339,8.339,0,0,0-1.618.138c-.2.053-.515.045-.525.279-.015.256.3.239.5.294.552.148,1.133.09,1.7.224a5.3,5.3,0,0,0-1.841.4c-.179.088-.377.173-.371.422s.2.342.376.427a2.963,2.963,0,0,0,.566.2,7.967,7.967,0,0,0,2.17.181l.031.482a.891.891,0,0,0,.025.475c0,1.223.017,2.447.017,3.67,0,.229.091.3.306.286.45-.028.9-.043,1.349-.063a7.428,7.428,0,0,0,.186.992c.133.286.274.575.638.583.395.008.53-.3.678-.6C1606.321-382.107,1606.2-382.463,1606.329-382.78Zm-4.79,5.9v.138c-.932,0-1.861,0-2.794,0a2.792,2.792,0,0,1-3.016-2.788c-.088-1.329-.1-2.662-.171-3.994-.025-.43.211-1.045-.143-1.241s-.907-.02-1.364.055a9.458,9.458,0,0,0-7.93,10.8,9.477,9.477,0,0,0,9.043,7.97,9.254,9.254,0,0,0,8.289-4.423,9.27,9.27,0,0,0,1.391-6.074c-.03-.316-.13-.47-.515-.452C1603.4-376.849,1602.468-376.877,1601.539-376.877Z" transform="translate(-1583.768 403.648)" fill="#ffa000"/>
      <path id="Path_1644" data-name="Path 1644" d="M1591.386-394.055c1.907,0,3.813.007,5.72.02a14.331,14.331,0,0,1,2.685.113,1.357,1.357,0,0,1,.226.048c.138.055.361.06.371.224.015.216-.244.181-.38.259a.72.72,0,0,1-.226.04c-.09.018-.2.02-.206.141,0,.168.143.128.239.128a4.934,4.934,0,0,1,1.771.286c.236.088.547.168.535.5s-.314.407-.553.492a5.759,5.759,0,0,1-1.959.291c-1.475.008-2.947.01-4.419,0-.289,0-.385.053-.385.372,0,1.409-.033,2.818-.055,4.227,0,.09-.027.188.066.256l-1.573.01c0-1.515,0-3.029.015-4.541,0-.226-.028-.334-.292-.322-.492.025-.987.013-1.482.018a6.85,6.85,0,0,1-.093-1.15c-.043-.342.055-.442.415-.44,2.371.02,4.742.013,7.111.008.151,0,.324.06.46-.083-.093-.143-.208-.1-.3-.1-2.279.083-4.554.025-6.833.035C1591.4-393.224,1591.4-393.226,1591.386-394.055Z" transform="translate(-1572.254 407.534)" fill="#ffa000"/>
      <path id="Path_1645" data-name="Path 1645" d="M1591.609-399.421a2.937,2.937,0,0,1,3,2.941,3,3,0,0,1-3,3,3.024,3.024,0,0,1-2.989-2.989A2.97,2.97,0,0,1,1591.609-399.421Z" transform="translate(-1576.445 399.421)" fill="#ffa000"/>
    </g>
  </g>
</svg>
