<svg xmlns="http://www.w3.org/2000/svg" width="175.904" height="187.782" viewBox="0 0 175.904 187.782">
  <g id="Group_8251" data-name="Group 8251" transform="translate(-504.338 124.521)">
    <path id="Path_1540" data-name="Path 1540" d="M606.375,42.886c-32.323-.184-66.377-.656-93.215-.2-12.761.211-9.78-9.615-2.95-18.875C521.489,8.562,536.344,2.9,553.035-3.405c1.313-1.18,3-2.6,4.766-4.114,3.106-2.626,6.5-5.5,8.482-7.533l.016-.016-.106-.094a47.142,47.142,0,0,1-8.162-9.916,79.489,79.489,0,0,1-6.158-12.182,16.355,16.355,0,0,1-2.325-.887,14.967,14.967,0,0,1-2.872-1.743,15.578,15.578,0,0,1-5.243-7.564,23.06,23.06,0,0,1-.856-10.241A12.16,12.16,0,0,1,542-62.156a9.112,9.112,0,0,1,3.04-3.212,2.005,2.005,0,0,1,1.192-.3,49.453,49.453,0,0,1-.457-11.354,50.884,50.884,0,0,1,1.086-9.2V-99.969c0-30.217,77.165-36.07,78.818,2.567.379,8.928,1.008,17.531.914,26.029a21.112,21.112,0,0,1-1.067,6.31c-.031.215-.078.445-.141.7a11.994,11.994,0,0,1,3.669,3.532,11.073,11.073,0,0,1,1.774,6.818,15.866,15.866,0,0,1-2.415,7.259,26.262,26.262,0,0,1-7.779,7.931,73.13,73.13,0,0,1-12.4,19.84c-1.082,1.207-2.231,2.352-3.392,3.423a2.253,2.253,0,0,1,.414.426c1.176,1.789,5.486,5.564,9.276,8.9l.52.442a39.357,39.357,0,0,1,65.186,29.7,39.358,39.358,0,0,1-67.186,27.83,38.2,38.2,0,0,1-6.681-8.85ZM605.6,6.558a39.423,39.423,0,0,1,4.583-7.2,28.145,28.145,0,0,0,1.149-3.747c-3.731-3.27-7.658-6.787-8.975-8.771a1.764,1.764,0,0,1-.09-.152,32.931,32.931,0,0,1-8.681,4.95,23.387,23.387,0,0,1-17.668-.4,32.061,32.061,0,0,1-6.955-4.079l-.184.231c-2.11,2.168-5.579,5.1-8.728,7.763l-.84.7c-.5,18.035,32.2,25.509,46.389,10.7Zm37.215,23.9a1.211,1.211,0,0,1,1.07,2.172c-.492.242-1,.457-1.516.656q-.756.275-1.559.5c-2.215.61-4.661,1.039-6.31.473-2.094-.735-3-2.583-1.238-6.494a20.2,20.2,0,0,0,.856-2.141,1.247,1.247,0,0,1,.2-.688,5.552,5.552,0,0,0,.184-1.375,2.74,2.74,0,0,0-2.094-2.692,2.518,2.518,0,0,0-1.606.031,8.2,8.2,0,0,0-2.415,1.254l-1.055,1.774a1.217,1.217,0,0,1-2.094-1.239l.488-.824a1.617,1.617,0,0,0-.473-.016,1.735,1.735,0,0,0-1.3.625,1.95,1.95,0,0,0-.367,1.133,3.757,3.757,0,0,0,.336,1.618,5.342,5.342,0,0,0,3.087,2.751c.152-.352.32-.688.5-1.024a15.237,15.237,0,0,1,1.559-2.262,1.2,1.2,0,0,1,1.7-.168,1.214,1.214,0,0,1,.184,1.7,13.819,13.819,0,0,0-1.313,1.911A7.572,7.572,0,0,0,629,29.621c0,.047-.016.09-.016.137-.566,4.2-.062,7.154,1.45,8.986,1.485,1.805,4,2.629,7.521,2.6h0a24.071,24.071,0,0,0,6.005-1.223,16.644,16.644,0,0,0,4.708-2.5,16.835,16.835,0,0,0,4.63-5.38,7.837,7.837,0,0,0,.949-5.107c0-.027-.015-.074-.015-.105l-.078-.4c-.379-1.879-.535-2.629-.3-3.391a3.268,3.268,0,0,1,.918-1.391,15.7,15.7,0,0,0,1.512-1.864,14.8,14.8,0,0,0,1.192-2.063,7.177,7.177,0,0,0,.582-1.883A7.79,7.79,0,0,0,654.7,7.917a7.452,7.452,0,0,0-2.766-1.071,7.678,7.678,0,0,0-5.669,1.332,5.824,5.824,0,0,0-1.989,2.215,9.777,9.777,0,0,0-.887,3.239,18.683,18.683,0,0,0-.09,4.419,7.923,7.923,0,0,0,.551,2.168c.047.062.074.137.121.215a1.187,1.187,0,0,1,.078.215,7.287,7.287,0,0,0,.7,1.16,2.074,2.074,0,0,0,.778.719,1.1,1.1,0,0,0,.656.063,1.2,1.2,0,0,1,.629,2.321h0A24.4,24.4,0,0,0,643.2,26.4a12.452,12.452,0,0,0-2.755,1.922,1.209,1.209,0,1,1-1.68-1.739,14.847,14.847,0,0,1,3.3-2.325c.351-.184.719-.367,1.1-.535-.137-.152-.262-.3-.4-.473-.184-.246-.352-.5-.5-.75a28.931,28.931,0,0,0-2.782,1.469,18.489,18.489,0,0,0-3.012,2.231,21.2,21.2,0,0,1-1.008,2.583c-.945,2.11-.824,3-.184,3.208,1.07.383,3.044-.016,4.876-.52a13.49,13.49,0,0,0,1.344-.442c.461-.168.887-.367,1.317-.567ZM641.3,20.252a11.69,11.69,0,0,1-.4-1.926,20.961,20.961,0,0,1,.074-5,11.89,11.89,0,0,1,1.133-4.067,8.342,8.342,0,0,1,2.782-3.118,10.1,10.1,0,0,1,7.443-1.711,10.262,10.262,0,0,1,3.684,1.422,10.022,10.022,0,0,1,2.841,2.766,10.454,10.454,0,0,1,1.59,7.795,10.6,10.6,0,0,1-.766,2.477,15.647,15.647,0,0,1-1.4,2.461,17.617,17.617,0,0,1-1.715,2.122,3.119,3.119,0,0,0-.379.445,9.121,9.121,0,0,0,.352,2.231l.074.4c.016.031.016.074.031.106a10.2,10.2,0,0,1-1.176,6.681,19.2,19.2,0,0,1-5.321,6.2A19,19,0,0,1,644.77,42.4a26.055,26.055,0,0,1-6.6,1.344h-.094c-4.325.047-7.517-1.067-9.506-3.481-1.832-2.235-2.551-5.489-2.094-9.92l-.121-.047h0a7.842,7.842,0,0,1-4.618-4.079,6.037,6.037,0,0,1-.547-2.708,4.444,4.444,0,0,1,.871-2.5,4.143,4.143,0,0,1,3.024-1.575,4.778,4.778,0,0,1,1.606.152c.258.078.535.152.793.258a10.2,10.2,0,0,1,2.676-1.282,4.875,4.875,0,0,1,3.1.047,5.179,5.179,0,0,1,3.364,3.055c-.367-3.9-2.078-4.645-3.946-5.458-2.9-1.266-6.083-2.641-6.966-10.666a1.215,1.215,0,1,1,2.414-.273c.731,6.63,3.239,7.717,5.533,8.709,2.583,1.133,4.935,2.157,5.392,7.416.734-.4,1.485-.781,2.25-1.133ZM663.75,1.119a32.363,32.363,0,1,0,9.459,22.864A32.217,32.217,0,0,0,663.75,1.119ZM583.757-112.026h4.782a1.619,1.619,0,0,1,1.622,1.618v7.138h7.134a1.622,1.622,0,0,1,1.621,1.621v4.782a1.622,1.622,0,0,1-1.621,1.621H590.16v7.134a1.622,1.622,0,0,1-1.622,1.621h-4.782a1.622,1.622,0,0,1-1.621-1.621v-7.134H575a1.619,1.619,0,0,1-1.618-1.621v-4.782A1.619,1.619,0,0,1,575-103.271h7.138v-7.138a1.629,1.629,0,0,1,1.621-1.618ZM561.4-58.933a1.3,1.3,0,0,1-1.805-.3,1.3,1.3,0,0,1,.3-1.805,12.805,12.805,0,0,1,7.474-2.614A13.182,13.182,0,0,1,575-61.043a1.313,1.313,0,0,1,.336,1.805,1.309,1.309,0,0,1-1.8.336,10.716,10.716,0,0,0-6.161-2.157,10.082,10.082,0,0,0-5.974,2.125Zm36.328,0a1.3,1.3,0,0,1-1.8-.3,1.3,1.3,0,0,1,.309-1.805,12.8,12.8,0,0,1,7.474-2.614,13.2,13.2,0,0,1,7.627,2.614,1.321,1.321,0,0,1,.336,1.805,1.313,1.313,0,0,1-1.8.336,10.715,10.715,0,0,0-6.158-2.157,10.155,10.155,0,0,0-5.978,2.125Zm-35.215,7.49a1.291,1.291,0,0,1-.352-1.789,1.291,1.291,0,0,1,1.789-.352,8.4,8.4,0,0,0,4.478,1.039,9.924,9.924,0,0,0,4.755-1.145,1.3,1.3,0,0,1,1.77.473,1.3,1.3,0,0,1-.473,1.774,12.326,12.326,0,0,1-6.036,1.5,11.048,11.048,0,0,1-5.931-1.5Zm34.054,0a1.284,1.284,0,0,1-.352-1.789A1.286,1.286,0,0,1,598-53.584a8.26,8.26,0,0,0,4.4.981,8.908,8.908,0,0,0,4.54-1.18,1.312,1.312,0,0,1,1.789.4,1.3,1.3,0,0,1-.4,1.789,11.567,11.567,0,0,1-5.884,1.575,10.883,10.883,0,0,1-5.884-1.422ZM579.4-27.661a1.289,1.289,0,0,1,.793-1.653,1.293,1.293,0,0,1,1.653.8,2.273,2.273,0,0,0,1.344,1.207,5.776,5.776,0,0,0,2.094.41,6.329,6.329,0,0,0,2.168-.32,2.669,2.669,0,0,0,1.7-1.375,1.3,1.3,0,0,1,1.7-.688,1.3,1.3,0,0,1,.688,1.7,5.24,5.24,0,0,1-3.227,2.813,8.679,8.679,0,0,1-3.087.457,8.2,8.2,0,0,1-3.024-.625,4.77,4.77,0,0,1-2.8-2.719Zm44.643-32.863a68.124,68.124,0,0,1-7.154,12.135v-20.02c-5.56-2.567-9.947-7.017-13.233-13.237h-11.51c-10.971,12.1-31.929,12.288-38.286,16.05v15.617a72.727,72.727,0,0,1-4.231-6.724,33.556,33.556,0,0,1-2.43-5.38l-.047.031a5.18,5.18,0,0,0-1.743,1.848,8.3,8.3,0,0,0-.949,3.059,19.3,19.3,0,0,0,.688,8.482,11.748,11.748,0,0,0,3.9,5.7,12.865,12.865,0,0,0,2.157,1.313,13.337,13.337,0,0,0,2.567.887,1.97,1.97,0,0,1,1.36,1.176h0a78.62,78.62,0,0,0,6.2,12.46,44.046,44.046,0,0,0,7.459,9.092,30.423,30.423,0,0,0,8.6,5.669,19.613,19.613,0,0,0,14.812.336c4.767-1.754,9.2-5.181,13.112-9.506a69.1,69.1,0,0,0,11.92-19.274,1.945,1.945,0,0,1,.871-.961,22.524,22.524,0,0,0,6.954-6.939,12.148,12.148,0,0,0,1.852-5.454,7.269,7.269,0,0,0-1.133-4.466,6.965,6.965,0,0,0-1.742-1.895Z" transform="translate(0 0)" fill="#ffa000" fill-rule="evenodd"/>
  </g>
</svg>
