<svg xmlns="http://www.w3.org/2000/svg" width="128.027" height="123.778" viewBox="0 0 108.591 108.532">
  <g id="Group_8275" data-name="Group 8275" transform="translate(-1076.113 24.448)">
    <path id="Path_1646" data-name="Path 1646" d="M1184.7,9.25c-.514,1.557-.6,3.2-1.036,4.783a29.96,29.96,0,0,1-7.435,13.081c-2.949,3.043-5.98,6.007-8.973,9.009-.3.3-.515.665-.932.053a18.171,18.171,0,0,0-2.809-3.3,13.564,13.564,0,0,0-3.656-2.234c3.037-3.037,6-6,8.967-8.965a25.878,25.878,0,0,0,2.783-3.185,21.37,21.37,0,0,0-13.254-33.43,20.368,20.368,0,0,0-18.964,5.6c-6.859,6.675-13.55,13.521-20.349,20.258-.636.63-.189.836.164,1.189Q1131.162,24.064,1143.128,36c.583.58.7.932.152,1.614a24.157,24.157,0,0,0-2.694,4.164.862.862,0,0,1-1.167.507c-.985-.255-1.985-.462-2.987-.633a2.553,2.553,0,0,1-1.421-.821q-11.068-11.108-22.141-22.213c-.581-.585-.862-.712-1.518-.048q-9.756,9.873-19.587,19.671a21.305,21.305,0,0,0-6.447,17.037,21.588,21.588,0,0,0,16.916,19.255,21.115,21.115,0,0,0,17.374-3.917c.541-.405.743-.439,1.007.242a29.222,29.222,0,0,0,3.646,6.646c.408.56.275.787-.238,1.137a29.471,29.471,0,0,1-20.627,5.229c-12.869-1.521-22.956-10.075-26.162-22.518-2.8-10.88-.354-20.727,7.471-28.812C1095.19,21.7,1105.983,11.163,1116.644.5q7.865-7.868,15.73-15.737a30.083,30.083,0,0,1,18.3-9c.148-.017.277-.049.333-.206h6.146a25.655,25.655,0,0,1,6.4,1.138,32.212,32.212,0,0,1,11.808,7.006,31.717,31.717,0,0,1,8.512,14.021,28.958,28.958,0,0,1,.833,5.175V4.163a1.62,1.62,0,0,0,0,1.272Z" transform="translate(0 0)" fill="#ffa000"/>
    <path id="Path_1647" data-name="Path 1647" d="M1310.768,215.719a44.476,44.476,0,0,0-.849,4.808c-1.245,5.947-3.545,11.347-8.034,15.608a29.1,29.1,0,0,1-14.788,7.194c-9.594,1.92-18.088-.657-25.534-6.676-4.941-3.994-7.319-9.613-8.626-15.709a46.169,46.169,0,0,1-.941-7.329,3.435,3.435,0,0,1,3.616-3.754,40.052,40.052,0,0,1,13.5,3.115c.663.293,1.378,1.044,1.958.792s.537-1.292.789-1.978a39.933,39.933,0,0,1,6.8-11.6,3.438,3.438,0,0,1,5.426-.022,36.722,36.722,0,0,1,7.2,12.912c.237.8.494.861,1.2.5a37.059,37.059,0,0,1,14.728-3.705c1.756-.116,2.826.979,3.558,2.458Z" transform="translate(-126.065 -160.055)" fill="#ffa000"/>
    <path id="Path_1648" data-name="Path 1648" d="M1458.91,77.844a.958.958,0,0,1,0-1.272Z" transform="translate(-274.207 -72.409)" fill="#ffa000"/>
  </g>
</svg>
