<svg xmlns="http://www.w3.org/2000/svg" width="128.027" height="123.778" viewBox="0 0 120.896 120.884">
  <g id="Group_8279" data-name="Group 8279" transform="translate(-1568.917 -1581.296)">
    <path id="Path_1669" data-name="Path 1669" d="M1629.363,2248.045q29.53,0,59.06-.027c1.11,0,1.421.238,1.388,1.373-.087,2.968-.026,2.969-3,2.969q-58.184,0-116.367.028c-1.208,0-1.568-.27-1.524-1.509.1-2.832.031-2.834,2.865-2.834Z" transform="translate(0 -550.208)" fill="#ffa000"/>
    <path id="Path_1670" data-name="Path 1670" d="M1927.07,2088.164c0-3.955.027-7.91-.021-11.864-.01-.875.214-1.119,1.1-1.106,3.639.053,7.28.043,10.92,0,.76-.008.967.2.964.963q-.041,12,0,24c0,.757-.195.975-.961.966q-5.526-.059-11.054,0c-.76.008-.972-.2-.965-.963C1927.09,2096.163,1927.07,2092.163,1927.07,2088.164Z" transform="translate(-295.545 -407.586)" fill="#ffa000"/>
    <path id="Path_1671" data-name="Path 1671" d="M1828.295,2088.026c0-3.909.028-7.82-.022-11.729-.011-.882.224-1.115,1.1-1.1q5.392.077,10.785,0c.885-.013,1.1.23,1.1,1.105q-.052,11.864,0,23.728c0,.88-.223,1.115-1.1,1.1q-5.391-.078-10.784,0c-.885.013-1.111-.23-1.1-1.105C1828.322,2096.025,1828.295,2092.026,1828.295,2088.026Z" transform="translate(-214.031 -407.587)" fill="#ffa000"/>
    <path id="Path_1672" data-name="Path 1672" d="M1751.774,1581.324c11.011,0,22.023.019,33.034-.029,1.12,0,1.414.253,1.382,1.38-.086,2.962-.026,2.964-3,2.964q-32.292,0-64.585.029c-1.219,0-1.56-.288-1.518-1.516.1-2.827.031-2.829,2.869-2.829Z" transform="translate(-122.271 0)" fill="#ffa000"/>
    <path id="Path_1673" data-name="Path 1673" d="M1594.3,1733.808c-3.954,0-7.909-.028-11.863.022-.885.011-1.106-.231-1.1-1.105.019-3.231-.015-3.232,3.267-3.232,7.145,0,14.29.023,21.434-.026,1.013-.007,1.26.241,1.24,1.245-.06,3.1-.013,3.1-3.136,3.1Z" transform="translate(-10.25 -122.277)" fill="#ffa000"/>
    <path id="Path_1674" data-name="Path 1674" d="M2112.787,1733.818c-3.955,0-7.909-.028-11.863.023-.852.011-1.027-.231-1.027-1.045,0-3.293-.031-3.293,3.205-3.293,7.189,0,14.379.021,21.569-.025.961-.006,1.177.251,1.164,1.183-.043,3.156,0,3.157-3.207,3.157Z" transform="translate(-438.188 -122.286)" fill="#ffa000"/>
    <path id="Path_1675" data-name="Path 1675" d="M1810.263,1682.5q0-25.211.026-50.422c0-1.089-.208-1.4-1.36-1.4q-26.626.064-53.253,0c-1.165,0-1.546.208-1.544,1.485q.062,50.288.033,100.575a4.181,4.181,0,0,1-.005.673c-.124.748.239.883.906.872,2.2-.036,4.406-.07,6.6.013.988.037,1.15-.293,1.146-1.2-.036-8.628-.022-17.257-.021-25.885,0-2.466.667-3.147,3.082-3.148q16.313,0,32.626,0c2.438,0,3.127.683,3.128,3.1,0,8.673.014,17.347-.02,26.02,0,.878.218,1.132,1.1,1.1,2.065-.068,4.138-.1,6.2.008,1.133.057,1.38-.268,1.377-1.383Q1810.231,1707.707,1810.263,1682.5Zm-17.257-40.455c.01-1.889.818-2.719,2.711-2.693a24.788,24.788,0,0,1,4.968.165,6.345,6.345,0,0,1,4.131,9.8,1.188,1.188,0,0,0-.007,1.6,5.986,5.986,0,0,1,.35,6.483,6.353,6.353,0,0,1-5.662,3.491c-1.3.067-2.6.032-3.907.011a2.287,2.287,0,0,1-2.582-2.561c-.023-2.74-.006-5.48-.006-8.22C1793,1647.431,1792.991,1644.736,1793.006,1642.041Zm-34.523.077c.006-1.7.8-2.727,2.1-2.77,1.342-.044,2.21,1.034,2.213,2.792.007,4.358.039,8.717-.024,13.074-.015,1.066.159,1.5,1.348,1.412,1.563-.122,3.143-.045,4.715-.026s2.578.884,2.579,2.152-1.02,2.142-2.578,2.154q-3.842.028-7.683,0c-1.859-.012-2.659-.842-2.667-2.75-.011-2.7,0-5.392,0-8.087C1758.48,1647.419,1758.474,1644.768,1758.482,1642.117Zm12.94,55.02c-.026,1.728-.843,2.588-2.531,2.6q-3.968.039-7.935,0a2.249,2.249,0,0,1-2.469-2.527q-.037-3.968,0-7.935a2.246,2.246,0,0,1,2.525-2.469q3.967-.037,7.935,0a2.257,2.257,0,0,1,2.472,2.525c.025,1.3.005,2.6.005,3.9S1771.441,1695.838,1771.422,1697.137Zm-.006-17.09a2.226,2.226,0,0,1-2.428,2.431q-4.034.05-8.07,0a2.234,2.234,0,0,1-2.431-2.428c-.034-1.389-.007-2.78-.007-4.169,0-1.3-.026-2.6.007-3.9a2.232,2.232,0,0,1,2.428-2.429q4.034-.049,8.07,0a2.225,2.225,0,0,1,2.431,2.426Q1771.467,1676.012,1771.416,1680.047Zm17.263,17.266a2.237,2.237,0,0,1-2.435,2.427q-4.034.049-8.069,0a2.224,2.224,0,0,1-2.425-2.432q-.048-4.035,0-8.07a2.22,2.22,0,0,1,2.43-2.425q4.034-.048,8.07,0a2.236,2.236,0,0,1,2.429,2.431c.034,1.344.007,2.69.007,4.035S1788.714,1695.969,1788.679,1697.313Zm0-17.317a2.263,2.263,0,0,1-2.514,2.485q-3.967.04-7.935,0a2.251,2.251,0,0,1-2.483-2.513q-.039-3.968,0-7.935a2.247,2.247,0,0,1,2.51-2.483q3.968-.038,7.935,0a2.259,2.259,0,0,1,2.487,2.511c.026,1.3.005,2.6.005,3.9C1788.687,1677.306,1788.71,1678.652,1788.68,1680Zm.583-19.206a1.963,1.963,0,0,1-2.169-.665,3.083,3.083,0,0,1-.523-.927c-1.073-2.6-1.069-2.6-3.889-2.6a2.522,2.522,0,0,1-.4,0c-2.355-.388-4.062.071-4.6,2.84a1.857,1.857,0,0,1-2.646,1.3,2.034,2.034,0,0,1-1.218-2.827q3.126-8.477,6.305-16.934a2.164,2.164,0,0,1,4.183.008q3.145,8.4,6.274,16.8c.124.332.193.683.271.963A2.294,2.294,0,0,1,1789.263,1660.79Zm16.677,36.521a2.237,2.237,0,0,1-2.432,2.429q-4.034.05-8.069,0a2.224,2.224,0,0,1-2.427-2.43q-.049-4.035,0-8.07a2.22,2.22,0,0,1,2.428-2.427q4.034-.049,8.069,0a2.235,2.235,0,0,1,2.431,2.429c.035,1.344.007,2.69.007,4.035S1805.975,1695.967,1805.94,1697.311Zm0-17.255a2.238,2.238,0,0,1-2.438,2.423q-4.034.049-8.07,0a2.22,2.22,0,0,1-2.42-2.437q-.048-4.034,0-8.069a2.22,2.22,0,0,1,2.435-2.421q4.034-.048,8.07,0a2.235,2.235,0,0,1,2.424,2.435c.034,1.344.007,2.69.007,4.035S1805.976,1678.712,1805.94,1680.056Z" transform="translate(-152.847 -40.75)" fill="#ffa000"/>
    <path id="Path_1676" data-name="Path 1676" d="M2121.489,1780.079c0-1.006-.231-1.251-1.24-1.243q-9.505.078-19.012,0c-1.126-.011-1.381.267-1.377,1.384.045,12.495.028,24.99.028,37.485,0,12.54.013,25.08-.026,37.62,0,1.006.232,1.251,1.241,1.243q9.573-.078,19.147,0c1.013.008,1.24-.243,1.238-1.245Q2121.442,1817.7,2121.489,1780.079Zm-17.276,5.534a2.22,2.22,0,0,1,2.429-2.427q4.034-.049,8.07,0a2.235,2.235,0,0,1,2.43,2.429c.035,1.389.007,2.78.007,4.169,0,1.3.028,2.6-.007,3.9a2.238,2.238,0,0,1-2.433,2.428q-4.035.05-8.069,0a2.224,2.224,0,0,1-2.427-2.431Q2104.164,1789.649,2104.213,1785.614Zm12.931,59.76a2.26,2.26,0,0,1-2.475,2.524q-3.967.046-7.935,0a2.249,2.249,0,0,1-2.522-2.473q-.045-3.967,0-7.935a2.246,2.246,0,0,1,2.471-2.522q3.968-.045,7.935,0c1.689.016,2.5.874,2.529,2.605.019,1.3,0,2.6,0,3.9S2117.17,1844.074,2117.144,1845.374Zm0-17.166a2.226,2.226,0,0,1-2.431,2.428q-4.034.05-8.069,0a2.224,2.224,0,0,1-2.427-2.431q-.049-4.035,0-8.07a2.23,2.23,0,0,1,2.429-2.428c1.389-.034,2.78-.007,4.169-.007,1.3,0,2.6-.026,3.9.007a2.236,2.236,0,0,1,2.428,2.431Q2117.191,1824.172,2117.14,1828.208Zm0-17.246a2.237,2.237,0,0,1-2.445,2.416c-1.344.033-2.69.007-4.035.007s-2.691.029-4.035-.008a2.231,2.231,0,0,1-2.412-2.448q-.047-4.035,0-8.07a2.218,2.218,0,0,1,2.443-2.412q4.035-.047,8.07,0a2.224,2.224,0,0,1,2.414,2.444Q2117.188,1806.927,2117.139,1810.962Z" transform="translate(-438.157 -163.016)" fill="#ffa000"/>
    <path id="Path_1677" data-name="Path 1677" d="M1627.621,1817.852c0-12.585-.013-25.17.025-37.755,0-1-.226-1.253-1.239-1.245q-9.573.079-19.146,0c-1.009-.008-1.242.237-1.24,1.243q.047,37.62,0,75.24c0,1,.225,1.253,1.238,1.245q9.505-.079,19.011,0c1.123.011,1.383-.261,1.379-1.381C1627.6,1842.752,1627.621,1830.3,1627.621,1817.852Zm-17.253-34.325a2.255,2.255,0,0,1,2.51-2.485c1.344-.025,2.69-.005,4.035,0,1.3,0,2.6-.023,3.9.005a2.26,2.26,0,0,1,2.485,2.512q.041,3.967,0,7.935a2.253,2.253,0,0,1-2.512,2.485q-3.967.04-7.935,0a2.25,2.25,0,0,1-2.483-2.512Q1610.329,1787.495,1610.368,1783.527Zm12.933,61.852a2.26,2.26,0,0,1-2.463,2.535c-2.689.031-5.38.035-8.069,0a2.22,2.22,0,0,1-2.4-2.458c-.03-2.689-.034-5.38,0-8.07a2.218,2.218,0,0,1,2.456-2.4c2.69-.03,5.38-.033,8.07,0a2.231,2.231,0,0,1,2.4,2.456c.032,1.344.007,2.69.007,4.035C1623.306,1842.779,1623.325,1844.079,1623.3,1845.379Zm0-17.162a2.238,2.238,0,0,1-2.425,2.436q-4.034.051-8.07,0a2.224,2.224,0,0,1-2.434-2.424q-.05-4.034,0-8.069a2.22,2.22,0,0,1,2.421-2.434q4.035-.05,8.07,0a2.235,2.235,0,0,1,2.438,2.422c.036,1.389.008,2.78.008,4.169C1623.306,1825.616,1623.333,1826.917,1623.3,1828.216Zm0-17.29a2.26,2.26,0,0,1-2.53,2.469c-1.3.024-2.6,0-3.9,0s-2.6.015-3.9,0c-1.729-.025-2.583-.841-2.6-2.535q-.038-3.967,0-7.935a2.246,2.246,0,0,1,2.528-2.465c2.645-.024,5.29-.028,7.935,0a2.248,2.248,0,0,1,2.467,2.528C1623.324,1805.636,1623.329,1808.282,1623.3,1810.927Z" transform="translate(-30.619 -163.032)" fill="#ffa000"/>
    <path id="Path_1678" data-name="Path 1678" d="M2002.51,1754.152c2.331.007,3.524,1.505,2.63,3.176-.5.928-2.976,1.657-3.851,1.113a.6.6,0,0,1-.205-.44,25.976,25.976,0,0,1,.02-3.361C2001.22,1753.64,2002.14,1754.442,2002.51,1754.152Z" transform="translate(-356.604 -142.622)" fill="#ffa000"/>
    <path id="Path_1679" data-name="Path 1679" d="M2001.105,1706.676c.216-.759-.73-2.244,1.386-2.052,1.976.18,2.909.707,2.927,2.166.018,1.506-.922,2.191-3.005,2.189C2001.105,1708.977,2001.105,1708.977,2001.105,1706.676Z" transform="translate(-356.635 -101.762)" fill="#ffa000"/>
    <path id="Path_1680" data-name="Path 1680" d="M1907.1,1727.5c.6,1.561,1.071,2.79,1.539,4.022.076.2.173.575,0,.585a27.648,27.648,0,0,1-3.061,0c-.19-.01-.089-.381-.014-.579C1906.032,1730.3,1906.505,1729.069,1907.1,1727.5Z" transform="translate(-277.738 -120.657)" fill="#ffa000"/>
    <path id="Path_1681" data-name="Path 1681" d="M1904.547,1980.865c-2.069,0-2.069,0-2.069-2.112,0-2.2,0-2.2,2.247-2.2,2.069,0,2.069,0,2.069,2.112C1906.793,1980.865,1906.793,1980.865,1904.547,1980.865Z" transform="translate(-275.269 -326.182)" fill="#ffa000"/>
    <path id="Path_1682" data-name="Path 1682" d="M2005.565,1978.745c0,2.121,0,2.121-2.06,2.121-2.255,0-2.255,0-2.255-2.195,0-2.12,0-2.12,2.06-2.12C2005.565,1976.55,2005.565,1976.55,2005.565,1978.745Z" transform="translate(-356.78 -326.182)" fill="#ffa000"/>
    <path id="Path_1683" data-name="Path 1683" d="M1808.021,1978.787c0,2.079,0,2.079-2.1,2.079-2.213,0-2.213,0-2.213-2.237,0-2.078,0-2.078,2.1-2.078C1808.021,1976.55,1808.021,1976.55,1808.021,1978.787Z" transform="translate(-193.758 -326.182)" fill="#ffa000"/>
    <path id="Path_1684" data-name="Path 1684" d="M1805.733,1882.092c-2.027,0-2.027,0-2.027-2.019,0-2.3,0-2.3,2.288-2.3,2.027,0,2.027,0,2.027,2.018C1808.021,1882.092,1808.021,1882.092,1805.733,1882.092Z" transform="translate(-193.758 -244.67)" fill="#ffa000"/>
    <path id="Path_1685" data-name="Path 1685" d="M1904.632,1882.092c-2.154,0-2.154,0-2.154-2.162s0-2.153,2.162-2.153,2.153,0,2.153,2.162S1906.793,1882.092,1904.632,1882.092Z" transform="translate(-275.269 -244.67)" fill="#ffa000"/>
    <path id="Path_1686" data-name="Path 1686" d="M2005.565,1880.032c0,2.06,0,2.06-2.12,2.06-2.195,0-2.195,0-2.195-2.255,0-2.06,0-2.06,2.12-2.06C2005.565,1877.777,2005.565,1877.777,2005.565,1880.032Z" transform="translate(-356.78 -244.67)" fill="#ffa000"/>
    <path id="Path_1687" data-name="Path 1687" d="M2153.723,2126.9c0,2.121,0,2.121-2.06,2.121-2.255,0-2.255,0-2.255-2.195,0-2.121,0-2.121,2.06-2.121C2153.723,2124.708,2153.723,2124.708,2153.723,2126.9Z" transform="translate(-479.047 -448.448)" fill="#ffa000"/>
    <path id="Path_1688" data-name="Path 1688" d="M2153.723,2027.979c0,2.272,0,2.272-2.312,2.272-2,0-2,0-2-2.043,0-2.272,0-2.272,2.313-2.272C2153.723,2025.936,2153.723,2025.936,2153.723,2027.979Z" transform="translate(-479.047 -366.937)" fill="#ffa000"/>
    <path id="Path_1689" data-name="Path 1689" d="M2153.723,1830.46c0,2.247,0,2.247-2.2,2.247-2.112,0-2.112,0-2.112-2.069,0-2.247,0-2.247,2.2-2.247C2153.723,1828.391,2153.723,1828.391,2153.723,1830.46Z" transform="translate(-479.047 -203.914)" fill="#ffa000"/>
    <path id="Path_1690" data-name="Path 1690" d="M2153.723,1929.385c0,2.093,0,2.093-2.087,2.093-2.228,0-2.228,0-2.228-2.222,0-2.093,0-2.093,2.087-2.093C2153.723,1927.163,2153.723,1927.163,2153.723,1929.385Z" transform="translate(-479.047 -285.425)" fill="#ffa000"/>
    <path id="Path_1691" data-name="Path 1691" d="M1657.829,2025.936c2.034,0,2.034,0,2.034,2.011,0,2.3,0,2.3-2.281,2.3-2.034,0-2.034,0-2.034-2.011C1655.548,2025.936,1655.548,2025.936,1657.829,2025.936Z" transform="translate(-71.491 -366.937)" fill="#ffa000"/>
    <path id="Path_1692" data-name="Path 1692" d="M1657.77,1927.163c2.093,0,2.093,0,2.093,2.088,0,2.228,0,2.228-2.222,2.228-2.093,0-2.093,0-2.093-2.087C1655.548,1927.163,1655.548,1927.163,1657.77,1927.163Z" transform="translate(-71.491 -285.425)" fill="#ffa000"/>
    <path id="Path_1693" data-name="Path 1693" d="M1659.863,1818.257c0,2.1,0,2.1-2.078,2.1-2.237,0-2.237,0-2.237-2.213,0-2.1,0-2.1,2.078-2.1C1659.863,1816.044,1659.863,1816.044,1659.863,1818.257Z" transform="translate(-71.491 -193.725)" fill="#ffa000"/>
    <path id="Path_1694" data-name="Path 1694" d="M1659.863,2126.955c0,2.068,0,2.068-2.112,2.068-2.2,0-2.2,0-2.2-2.247,0-2.069,0-2.069,2.112-2.069C1659.863,2124.708,1659.863,2124.708,1659.863,2126.955Z" transform="translate(-71.491 -448.448)" fill="#ffa000"/>
  </g>
</svg>
