<svg xmlns="http://www.w3.org/2000/svg" width="181.214" height="176.873" viewBox="0 0 181.214 176.873">
  <g id="Group_8261" data-name="Group 8261" transform="translate(268.194 10.56)">
    <path id="Path_1581" data-name="Path 1581" d="M-105.985,89.17A42.033,42.033,0,0,0-153.741,90.2c-2.384,1.671-4.512,4.689-7.117.323-1.9-3.174-6.649-5.207-1.892-10.291,6.657-7.117,10.994-16.006,15.727-24.489,1.765-3.167,4.153-7.425,1.732-10.5-3.939-5-2.99-10.28-3.026-16.9,1.243-10.958-2.71-21.039-11.9-29.229-17.821-15.886-45.43-11.632-55.145,8.6-4.185,8.708-4,17.955-3.54,27.268.109,2.171,1.312,4.461-1.047,6.436-5.475,4.58-3.892,9.954-.971,15.013,3.816,6.61,7.439,13.484,12.273,19.311,4.117,4.968,3.261,8.831.8,13.806-2.145,4.356-5.986,5.736-9.893,6.881-9.106,2.66-18.368,4.776-27.5,7.338-12.306,3.45-19.648,11.654-22.282,24.1-2.214,10.447.888,14.357,11.483,14.368,27.9.029,55.8.076,83.7-.069,3.627-.018,5.551.96,7.534,4.261a41.777,41.777,0,0,0,45.057,18.752c17.821-4.4,28.41-16.067,32.033-33.776C-84.449,115.452-92.378,97.878-105.985,89.17ZM-194.232,9.25c.1-1.667,1.065-2.685,2.682-2.468,3.413.457,4.54-.877,4.236-4.236-.181-1.971,1.391-2.66,3.272-2.718,2.192-.065,2.971,1.243,2.826,3.044-.243,3.048.939,4.254,3.979,3.888a2.178,2.178,0,0,1,2.725,2.33c.014,1.344.4,3.428-1.254,3.537-3.823.25-5.914,1.507-5.744,5.707.054,1.3-1.562,1.449-2.768,1.406-1.239.054-2.935-.409-2.834-1.417.442-4.385-1.7-5.548-5.6-5.667C-194.359,12.605-194.319,10.663-194.232,9.25Zm-24.094,42.988c-2.138-3.99-1.547-7.305,3.79-8,1.442-.188,2.834-.286,3.189-2.026,2.979-14.553,14.509-15.651,24.347-16.651,9.748.359,17.43,1.718,24.42,5.914,3.526,2.116,6.37,4.584,7.088,8.911.3,1.823.826,4.312,2.638,4.569,5.907.833,4.479,4.595,2.852,7.479-5.573,9.867-10.61,20.166-18.89,28.21-9.9,9.621-20.3,9.856-29.982.275C-207.2,72.686-212.843,62.463-218.326,52.237Zm34.2,56.95c-9.432-.12-17.256-4.145-21.626-12.723-2.094-4.113,3.066-7.229,2.935-12.306,11.009,8.28,21.264,10.356,32.243,3.671,1.591-.968,3.374-1.279,3.914.8.815,3.142,6.356,4.236,3.852,8.61C-167.5,105.444-174.936,109.3-184.125,109.187Zm54.5,49.7a34.856,34.856,0,0,1-34.121-35.03c.163-18.557,15.94-34.182,34.4-34.063,19.4.127,35.363,16.151,34.889,35.026C-94.932,143.84-110.819,159.226-129.625,158.889Z" transform="translate(0 0)" fill="#ffa000"/>
    <path id="Path_1582" data-name="Path 1582" d="M-229.9,11.846c-5.8,1.2-11.849-1.446-17.553.931C-241.471,15.4-235.579,15.922-229.9,11.846Z" transform="translate(54.425 58.521)" fill="#ffa000"/>
    <path id="Path_1583" data-name="Path 1583" d="M-229.807,5.985c-4.124-4.693-8.146-3.953-13.241.681C-237.866,6.457-233.858,5.174-229.807,5.985Z" transform="translate(65.974 35.073)" fill="#ffa000"/>
    <path id="Path_1584" data-name="Path 1584" d="M-238.166,5.826c-5.8-4.555-8.6-4.265-12.545,2.5C-246.192,4.633-242.181,7-238.166,5.826Z" transform="translate(45.869 34.961)" fill="#ffa000"/>
    <path id="Path_1585" data-name="Path 1585" d="M-231.5,5.1h-11.288C-238.41,9.159-236.786,9.177-231.5,5.1Z" transform="translate(66.659 41.078)" fill="#ffa000"/>
    <path id="Path_1586" data-name="Path 1586" d="M-240.883,6.68c-3.66-1.917-4.283-1.971-9.219-.794C-245.873,8.666-245.873,8.666-240.883,6.68Z" transform="translate(47.467 41.089)" fill="#ffa000"/>
    <path id="Path_1587" data-name="Path 1587" d="M-227.209,24.512c-2.489,3.385.507,6.414.623,9.632l5.693-.511c.087,2.714-3.029,1.623-3.515,3.446-.4,3.732,3.189,1.486,4.421,2.685-.225,2.047-3.374,1.189-3.946,2.689.054.518.1,1.036.109,1.562a2.056,2.056,0,0,1,1.152.25c1.671-.109,3.453-.631,4.6,1.221q3.109-.7,6.218-1.4c1.333-6.062,1.091-11.991-1.989-17.5C-217.208,20.551-221.9,19.9-227.209,24.512Z" transform="translate(104.943 84.085)" fill="#ffa000"/>
    <path id="Path_1588" data-name="Path 1588" d="M-229.138,31.456c2.874,1.736,5.211,5.07,9.092,3.743l.319-8.11c-3.8-5.432-7.758-5.975-11.969-1.185-5.378,6.113-5.037,13.364-3.3,20.727,1.337-.8,2.692-1.533,4.345-1.12h0l6.6-.13a2.061,2.061,0,0,0,.587-.333.694.694,0,0,0,.138-.54c-.558-2.511-3.642-1.145-4.7-2.935,1.692-1.225,4.3.631,5.486-1.841C-223.2,35.746-229.577,36.88-229.138,31.456Z" transform="translate(84.109 87.095)" fill="#ffa000"/>
    <path id="Path_1589" data-name="Path 1589" d="M-219.353,30.066a6.648,6.648,0,0,1-.823-.2c-1.2.569-2.388-.029-3.577-.772-4.211-.054-4.642,2.631-3.424,5.544,1.772,4.24,5.5,4.03,8.809,2.345,3.555-1.812,4.736-5.5,5.4-9.258C-214.823,29.243-216.787,30.479-219.353,30.066Z" transform="translate(106.059 100.446)" fill="#ffa000"/>
    <path id="Path_1590" data-name="Path 1590" d="M-225.674,29.867a6.648,6.648,0,0,0,.823.2c2.566.413,4.53-.823,6.385-2.341q-3.109.7-6.218,1.4A3.2,3.2,0,0,1-225.674,29.867Z" transform="translate(111.558 100.446)" fill="#ffa000"/>
    <path id="Path_1591" data-name="Path 1591" d="M-230.764,29.707h-.011c-1.692-.025-3.432.431-5.048-.449.786,4.363,2.663,7.856,7.363,8.976,3.124.743,5.656-.2,6.515-3.424.645-2.428,1.152-5.334-3-5.3C-227.112,30.649-229.308,31.947-230.764,29.707Z" transform="translate(84.93 104.468)" fill="#ffa000"/>
    <path id="Path_1592" data-name="Path 1592" d="M-230.775,30.6h.011a6.385,6.385,0,0,1-.714-1.569c-1.652-.413-3.008.315-4.345,1.12C-234.207,31.036-232.467,30.579-230.775,30.6Z" transform="translate(84.93 103.571)" fill="#ffa000"/>
    <path id="Path_1593" data-name="Path 1593" d="M-226.054,38.031c.417-3.261-1.634-6.78,1.033-9.806h0c-.7-2.58,1.576-5.972-2.3-8.139-1.979,6.994-1.424,13.9-2.113,20.662l0,6.932c1.062,3.156-1.384,6.889,1.605,9.726.435-3.685-.025-7.483,1.413-11.041l.069-1.381Q-226.2,41.507-226.054,38.031Z" transform="translate(101.69 80.407)" fill="#ffa000"/>
    <path id="Path_1594" data-name="Path 1594" d="M-228.028,39.43h0V30.244h0v0l-.413-7.892-1.453,1.8h0q.033,6.093.072,12.186c1.127,7.378-1.449,14.8-.964,23.634,3.352-2.776,2.258-5.055,2.859-6.823q-.049-6.86-.1-13.719Z" transform="translate(97.986 86.339)" fill="#ffa000"/>
    <path id="Path_1595" data-name="Path 1595" d="M-230.006,26.875c.17-.663.587-1.127,1.714-1.022-.018-1.62.768-3.4-.939-4.841-2.87,1.529-1.065,4.1-1.562,6.07C-230.437,26.842-230.18,26.781-230.006,26.875Z" transform="translate(97.837 82.834)" fill="#ffa000"/>
    <path id="Path_1596" data-name="Path 1596" d="M-230.656,23.381q.261.147.261.783l1.453-1.8C-230.069,22.254-230.486,22.718-230.656,23.381Z" transform="translate(98.487 86.328)" fill="#ffa000"/>
    <path id="Path_1597" data-name="Path 1597" d="M-230.087,22.661c-.174-.094-.431-.033-.786.207a7.138,7.138,0,0,0,.692.38A3.61,3.61,0,0,1-230.087,22.661Z" transform="translate(97.917 87.048)" fill="#ffa000"/>
    <path id="Path_1598" data-name="Path 1598" d="M-230.588,22.63a3.61,3.61,0,0,0-.094.587c.12.062.232.138.355.2h0Q-230.327,22.777-230.588,22.63Z" transform="translate(98.419 87.079)" fill="#ffa000"/>
  </g>
</svg>
