<svg xmlns="http://www.w3.org/2000/svg" width="152.837" height="159.007" viewBox="0 0 152.837 159.007">
  <g id="Group_8266" data-name="Group 8266" transform="translate(265.492 -366.304)">
    <path id="Path_1614" data-name="Path 1614" d="M-146.806,428.321a36.968,36.968,0,0,0-7.818-21.823c-5.42-7.149-11.583-13.008-21.758-10.963-1.7.341-3.386.214-4.946,1.338-12.334,8.882-24.6,8.633-37.18.157-4.456-3-10.25-2.53-14.872-.845-5.182,1.885-9.24,6.171-12.247,11.125,19.7,6.794,23.1,24.594,20.617,42.381,24.537,0,48.833.03,73.127-.03,3.809-.008,5.242-1.574,5.272-5.5C-146.571,438.882-146.682,433.6-146.806,428.321Zm-22.321-.358c-3.142-.591-4.388.623-3.95,3.86.154,1.143.78,2.974-.685,3.486a9.228,9.228,0,0,1-6.2-.024c-1.349-.52-.769-2.357-.637-3.541.333-2.909-.387-4.166-3.681-3.868-3.882.349-3.906.073-3.893-4.272-.723-2.812.84-3.736,3.641-3.267,2.592.431,4.383-1.333,3.868-3.914-.683-3.421,1.168-3.679,3.952-3.719,2.806-.043,4.277.582,3.689,3.611-.675,3.473.818,4.624,4.109,4.009,3.094-.574,3.584,1,3.638,3.749C-165.219,427.066-165.9,428.567-169.128,427.963Z" transform="translate(33.947 48.777)" fill="#ffa000"/>
    <path id="Path_1615" data-name="Path 1615" d="M-221.992,413.867c-2.687.458-5.177,1.6-8.086,2.489a32.245,32.245,0,0,1,7.65-15.368c.9-1.048,2.205-2.013,1.4-3.644-.837-1.685-2.492-1.571-4.012-1.436-2.682.241-4.451,1.818-5.754,4.093-2.9,5.055-3.508,10.63-3.765,16.63-.851-.3-1.3-.417-1.712-.607-14.658-6.645-27.82,2.414-29.061,17.844-.829,10.321,1.693,19.97,5.765,29.37,4.665,10.771,12.057,12.976,22.687,10.57a20.438,20.438,0,0,1,9.744.1c10.188,2.728,17.421-.58,21.739-9.476a64.277,64.277,0,0,0,5.537-16.272c1.52-8.159,1.937-16.346-1.953-24.123A18.635,18.635,0,0,0-221.992,413.867Zm-19.862,47.492c-1.7,1.227-3.386.734-4.676-.81A20.935,20.935,0,0,1-249.864,454a43.064,43.064,0,0,1-2.947-15.809,18.216,18.216,0,0,1,2.007-8.831,3.327,3.327,0,0,1,4.5-1.633,3.049,3.049,0,0,1,1.658,4.394c-3.443,7.23-.664,13.956,1.571,20.715a19.516,19.516,0,0,0,1.834,3.738C-240.174,458.385-240.207,460.173-241.854,461.36Z" transform="translate(0 50.474)" fill="#ffa000"/>
    <path id="Path_1616" data-name="Path 1616" d="M-241.954,434.451c7.111.848,14.222,1.793,21.4,1.471a8.694,8.694,0,0,1,6.033,2.175,25.841,25.841,0,0,0,14.517,6,26.464,26.464,0,0,0,15.129-6.35c2.154-1.888,4.174-2.844,9.4-.222,4.6,2.308,9.8,1.138,13.845-2.037,2.2-1.726,6.553-.1,7.3-3.554.42-1.942-.978-2.969-2.468-3.82-4.546-2.6-7.119-6.664-8.56-11.567-1.379-4.686-1.132-9.522-1.371-14.322-.433-8.777-2.278-17.2-7.046-24.746-5-7.921-14.977-13.582-24.716-10.156a4.011,4.011,0,0,1-2.557.038c-10.673-3.416-22.078,3.2-27.043,13.46-4.445,9.178-4.9,18.979-5.41,28.823-.406,7.8-3.01,14.406-9.936,18.751-1.341.842-2.5,1.975-2.051,3.719C-245.053,433.831-243.576,434.259-241.954,434.451ZM-219.3,404.2c10.4-1.314,19.588-5.312,27.113-12.743,1.333-1.316,1.791-1.013,2.7.867a18.276,18.276,0,0,0,9.04,8.547,2.3,2.3,0,0,1,1.685,2.46c-.076,1.52-.019,3.045-.019,4.567.187,11.112-4.89,19.537-13.759,25.764-5.591,3.928-12,3.066-17.96-2.167-7.5-6.585-10.795-15.062-10.906-24.935C-221.423,404.93-220.943,404.41-219.3,404.2Z" transform="translate(34.012 0)" fill="#ffa000"/>
    <path id="Path_1617" data-name="Path 1617" d="M-249.937,411.867c2.527.737,4.245-.683,3.99-3.3-.658-6.845-4.589-11.532-11.063-13.423-2.717-.794-3.687.371-3.779,1.847C-260.786,404.594-256.615,409.919-249.937,411.867Z" transform="translate(8.037 48.842)" fill="#ffa000"/>
  </g>
</svg>
