<svg xmlns="http://www.w3.org/2000/svg" width="162.999" height="174.006" viewBox="0 0 162.999 174.006">
  <g id="Group_8265" data-name="Group 8265" transform="translate(-504.338 124.521)">
    <path id="Path_1613" data-name="Path 1613" d="M598.889,30.6c-29.952-.17-61.508-.608-86.377-.181-11.825.2-9.062-8.91-2.733-17.49C520.231-1.2,534-6.444,549.463-12.291c1.216-1.093,2.777-2.408,4.417-3.812,2.878-2.433,6.021-5.1,7.86-6.98l.014-.014-.1-.087a43.683,43.683,0,0,1-7.563-9.189,73.642,73.642,0,0,1-5.706-11.289,15.158,15.158,0,0,1-2.154-.822,13.871,13.871,0,0,1-2.661-1.615,14.437,14.437,0,0,1-4.858-7.009,21.367,21.367,0,0,1-.793-9.489,11.269,11.269,0,0,1,1.318-4.135,8.444,8.444,0,0,1,2.817-2.976,1.858,1.858,0,0,1,1.1-.282,45.841,45.841,0,0,1-.424-10.521,47.162,47.162,0,0,1,1.007-8.526V-101.77c0-28,71.5-33.424,73.036,2.379.351,8.273.934,16.245.847,24.12a19.566,19.566,0,0,1-.988,5.847c-.029.2-.073.413-.13.652a11.116,11.116,0,0,1,3.4,3.273,10.262,10.262,0,0,1,1.644,6.318,14.7,14.7,0,0,1-2.238,6.727,24.334,24.334,0,0,1-7.208,7.35,67.766,67.766,0,0,1-11.487,18.385c-1,1.119-2.067,2.18-3.143,3.172a2.094,2.094,0,0,1,.384.395c1.09,1.658,5.083,5.156,8.6,8.244l.482.409a36.47,36.47,0,0,1,60.4,27.519A36.471,36.471,0,0,1,605.08,38.8a35.406,35.406,0,0,1-6.191-8.2Zm-.72-33.663a36.531,36.531,0,0,1,4.247-6.669A26.1,26.1,0,0,0,603.48-13.2c-3.457-3.03-7.1-6.289-8.316-8.128a1.608,1.608,0,0,1-.083-.141,30.518,30.518,0,0,1-8.045,4.587,21.671,21.671,0,0,1-16.371-.369,29.706,29.706,0,0,1-6.445-3.78l-.17.214c-1.955,2.009-5.17,4.728-8.088,7.194l-.778.652c-.467,16.712,29.84,23.638,42.986,9.913Zm34.485,22.15a1.122,1.122,0,0,1,.992,2.013c-.456.224-.923.424-1.4.608s-.949.326-1.445.467c-2.053.565-4.319.963-5.847.438-1.94-.681-2.777-2.393-1.148-6.017a18.7,18.7,0,0,0,.793-1.984,1.155,1.155,0,0,1,.185-.637,5.141,5.141,0,0,0,.17-1.274,2.539,2.539,0,0,0-1.94-2.495,2.333,2.333,0,0,0-1.488.029,7.6,7.6,0,0,0-2.238,1.162l-.977,1.644a1.127,1.127,0,0,1-1.941-1.148l.453-.764a1.5,1.5,0,0,0-.438-.014,1.609,1.609,0,0,0-1.2.579,1.806,1.806,0,0,0-.34,1.05,3.479,3.479,0,0,0,.311,1.5,4.95,4.95,0,0,0,2.86,2.549c.141-.326.3-.637.467-.949a14.122,14.122,0,0,1,1.445-2.1,1.109,1.109,0,0,1,1.571-.156,1.125,1.125,0,0,1,.17,1.575,12.818,12.818,0,0,0-1.217,1.77,7.013,7.013,0,0,0-.594,1.372c0,.043-.015.083-.015.127-.525,3.9-.058,6.629,1.343,8.327,1.376,1.673,3.711,2.437,6.969,2.408h0a22.3,22.3,0,0,0,5.565-1.133,15.421,15.421,0,0,0,4.363-2.321,15.6,15.6,0,0,0,4.29-4.985,7.262,7.262,0,0,0,.88-4.732c0-.025-.015-.069-.015-.1l-.072-.369c-.351-1.741-.5-2.437-.283-3.143a3.028,3.028,0,0,1,.851-1.289,14.551,14.551,0,0,0,1.4-1.727,13.735,13.735,0,0,0,1.1-1.912,6.647,6.647,0,0,0,.539-1.745A7.5,7.5,0,0,0,645.655.142,7.43,7.43,0,0,0,643.671-1.8a6.9,6.9,0,0,0-2.563-.992,7.116,7.116,0,0,0-5.253,1.235A5.4,5.4,0,0,0,634.011.5a9.064,9.064,0,0,0-.822,3,17.314,17.314,0,0,0-.083,4.095,7.343,7.343,0,0,0,.51,2.009c.043.058.069.127.112.2a1.1,1.1,0,0,1,.072.2,6.759,6.759,0,0,0,.651,1.075,1.922,1.922,0,0,0,.721.666,1.019,1.019,0,0,0,.608.058,1.115,1.115,0,0,1,.583,2.151h0a22.61,22.61,0,0,0-3.356,1.376,11.537,11.537,0,0,0-2.553,1.781A1.12,1.12,0,1,1,628.9,15.5a13.753,13.753,0,0,1,3.059-2.154c.326-.17.666-.34,1.021-.5-.127-.141-.243-.282-.369-.438-.17-.228-.326-.467-.467-.7a26.823,26.823,0,0,0-2.578,1.361,17.131,17.131,0,0,0-2.791,2.067,19.587,19.587,0,0,1-.934,2.393c-.876,1.955-.764,2.777-.17,2.972.992.355,2.82-.014,4.518-.482a12.517,12.517,0,0,0,1.246-.409c.427-.156.822-.34,1.22-.525Zm-1.4-9.46a10.86,10.86,0,0,1-.369-1.785,19.427,19.427,0,0,1,.069-4.631A11.014,11.014,0,0,1,632-.553a7.729,7.729,0,0,1,2.578-2.889,9.361,9.361,0,0,1,6.9-1.586,9.506,9.506,0,0,1,3.414,1.318,9.286,9.286,0,0,1,2.632,2.563A9.688,9.688,0,0,1,649,6.076a9.822,9.822,0,0,1-.71,2.3,14.489,14.489,0,0,1-1.3,2.281,16.316,16.316,0,0,1-1.589,1.966,2.878,2.878,0,0,0-.351.413,8.445,8.445,0,0,0,.326,2.067l.069.369c.014.029.014.069.029.1a9.451,9.451,0,0,1-1.09,6.191,17.787,17.787,0,0,1-4.931,5.749,17.608,17.608,0,0,1-4.982,2.647,24.144,24.144,0,0,1-6.119,1.245h-.087c-4.008.043-6.966-.988-8.809-3.226-1.7-2.071-2.364-5.087-1.94-9.192l-.112-.043h0a7.267,7.267,0,0,1-4.279-3.78,5.6,5.6,0,0,1-.507-2.509,4.119,4.119,0,0,1,.807-2.321,3.84,3.84,0,0,1,2.8-1.459,4.427,4.427,0,0,1,1.488.141c.239.072.5.141.735.239a9.454,9.454,0,0,1,2.48-1.188A4.518,4.518,0,0,1,623.8,8.1a4.8,4.8,0,0,1,3.117,2.831c-.34-3.613-1.926-4.3-3.657-5.058-2.69-1.173-5.637-2.447-6.455-9.884a1.125,1.125,0,0,1,.988-1.245,1.131,1.131,0,0,1,1.249.992c.677,6.144,3,7.15,5.126,8.07,2.393,1.05,4.573,2,5,6.872.681-.369,1.376-.724,2.085-1.05ZM652.056-8.1a29.963,29.963,0,0,0-42.374,42.374,29.952,29.952,0,0,0,51.139-21.187A29.807,29.807,0,0,0,652.056-8.1ZM577.93-112.943h4.432a1.5,1.5,0,0,1,1.5,1.5v6.615h6.611a1.5,1.5,0,0,1,1.5,1.5V-98.9a1.5,1.5,0,0,1-1.5,1.5h-6.611v6.611a1.5,1.5,0,0,1-1.5,1.5H577.93a1.5,1.5,0,0,1-1.5-1.5v-6.611h-6.615a1.5,1.5,0,0,1-1.5-1.5v-4.431a1.5,1.5,0,0,1,1.5-1.5h6.615v-6.615a1.51,1.51,0,0,1,1.5-1.5Zm-20.72,49.2a1.2,1.2,0,0,1-1.673-.282,1.2,1.2,0,0,1,.282-1.673,11.866,11.866,0,0,1,6.926-2.422,12.215,12.215,0,0,1,7.067,2.422,1.217,1.217,0,0,1,.311,1.673,1.213,1.213,0,0,1-1.669.311,9.93,9.93,0,0,0-5.709-2,9.342,9.342,0,0,0-5.536,1.97Zm33.663,0a1.2,1.2,0,0,1-1.672-.282,1.2,1.2,0,0,1,.286-1.673,11.858,11.858,0,0,1,6.926-2.422A12.231,12.231,0,0,1,603.48-65.7a1.224,1.224,0,0,1,.311,1.673,1.217,1.217,0,0,1-1.672.311,9.93,9.93,0,0,0-5.706-2,9.41,9.41,0,0,0-5.539,1.97ZM558.242-56.8a1.2,1.2,0,0,1-.326-1.658,1.2,1.2,0,0,1,1.658-.326,7.785,7.785,0,0,0,4.149.963,9.2,9.2,0,0,0,4.406-1.061,1.2,1.2,0,0,1,1.64.438,1.205,1.205,0,0,1-.438,1.644,11.422,11.422,0,0,1-5.594,1.387,10.239,10.239,0,0,1-5.5-1.387Zm31.556,0a1.19,1.19,0,0,1-.326-1.658,1.192,1.192,0,0,1,1.654-.326,7.655,7.655,0,0,0,4.08.909,8.253,8.253,0,0,0,4.207-1.093,1.216,1.216,0,0,1,1.658.369,1.2,1.2,0,0,1-.369,1.658,10.719,10.719,0,0,1-5.453,1.459A10.085,10.085,0,0,1,589.8-56.8Zm-15.9,22.038a1.2,1.2,0,0,1,.735-1.531,1.2,1.2,0,0,1,1.532.739,2.106,2.106,0,0,0,1.245,1.119,5.352,5.352,0,0,0,1.941.38,5.866,5.866,0,0,0,2.009-.3,2.473,2.473,0,0,0,1.575-1.274,1.2,1.2,0,0,1,1.571-.637,1.2,1.2,0,0,1,.637,1.571,4.855,4.855,0,0,1-2.99,2.607,8.041,8.041,0,0,1-2.86.424,7.594,7.594,0,0,1-2.8-.579,4.42,4.42,0,0,1-2.592-2.52Zm41.367-30.452a63.118,63.118,0,0,1-6.629,11.245V-72.524c-5.152-2.379-9.218-6.5-12.263-12.266H585.7C575.537-73.574,556.117-73.4,550.227-69.918v14.471a67.367,67.367,0,0,1-3.921-6.231,31.084,31.084,0,0,1-2.252-4.985l-.043.029a4.8,4.8,0,0,0-1.615,1.712,7.689,7.689,0,0,0-.88,2.835,17.882,17.882,0,0,0,.637,7.86,10.886,10.886,0,0,0,3.613,5.282,11.93,11.93,0,0,0,2,1.217,12.358,12.358,0,0,0,2.379.822,1.825,1.825,0,0,1,1.26,1.09h0a72.846,72.846,0,0,0,5.749,11.546,40.811,40.811,0,0,0,6.911,8.425,28.192,28.192,0,0,0,7.972,5.253,18.174,18.174,0,0,0,13.725.311,31.764,31.764,0,0,0,12.15-8.809,64.026,64.026,0,0,0,11.046-17.86,1.8,1.8,0,0,1,.807-.891,20.874,20.874,0,0,0,6.444-6.43,11.258,11.258,0,0,0,1.716-5.054,6.734,6.734,0,0,0-1.05-4.138,6.451,6.451,0,0,0-1.615-1.756Z" transform="translate(0 0)" fill="#ffa000" fill-rule="evenodd"/>
  </g>
</svg>
