<svg xmlns="http://www.w3.org/2000/svg" width="163.577" height="163.484" viewBox="0 0 163.577 163.484">
  <g id="Group_8252" data-name="Group 8252" transform="translate(-501.892 -26.927)">
    <path id="Path_1541" data-name="Path 1541" d="M606.928,117.326c-26.921,8.647-53.243,7.4-79.112-3.929a169.339,169.339,0,0,1-23.445-12.921c-2.349-1.507-2.863-3.2-2.228-5.7,2.932-11.538,9.234-20.544,19.692-26.483,7.337-4.167,15.049-7.592,22.534-11.438,3.708-1.9,5.733-.966,9.2.376,5.909,2.283,7.989,6.492,9.634,11.772,2.4,7.7,6.1,14.877,9.7,22.865,2.7-5.936,5.215-11.383,7.647-16.863.762-1.721,1.3-3.542,1.945-5.319,3.687-10.144,3.9-10.382,13.642-14.766.517-.231,1-.811,1.676-.21,3.86,3.415,9.265,3.663,13.324,6.719C593.2,78.591,591.73,97.241,606.928,117.326Z" transform="translate(0 67.405)" fill="#ffa000"/>
    <path id="Path_1542" data-name="Path 1542" d="M590.247,90.234c3.825-1.087,5.864-4.094,6.24-8.113.39-4.17-1.111-8.151-4.825-9.365-4.132-1.349-3.811-3.808-3.743-6.785.038-1.638.007-3.277.007-4.915,0-2.521.058-5.043-.01-7.561-.321-11.793-7.371-21.358-17.595-24.172a63.121,63.121,0,0,0-33.934-.145A24.1,24.1,0,0,0,518.412,51.34c-.183,5.664-.141,11.341-.059,17.008.031,1.928-.314,2.925-2.394,3.773a9.071,9.071,0,0,0-5.978,8.8c-.072,4.287,1.828,7.512,5.54,9.068,2.487,1.042,2.87,2.456,3.135,4.712,2.135,18.195,19.554,31.957,37.673,29.871A34.784,34.784,0,0,0,587.2,94.17C587.467,92.107,587.884,90.907,590.247,90.234Zm-8.985,7.626a29.676,29.676,0,0,1-31.175,21.561A29,29,0,0,1,523.762,92.69c-.559-7.012-.283-14.094-.407-21.141a3.849,3.849,0,0,1,1.107-3.087,2.33,2.33,0,0,0,.469-.59c6.164-11.852,16.543-13.418,28.3-11.6,4.536,0,9.072.062,13.6-.024A9.217,9.217,0,0,1,574.46,59.7q3.632,4.341,7.168,8.768a3.514,3.514,0,0,1,.945,1.952C582.265,79.573,583.755,88.837,581.261,97.861Z" transform="translate(19.809 0)" fill="#ffa000"/>
    <path id="Path_1543" data-name="Path 1543" d="M561.907,55.876C544.975,56,530.771,70.67,530.86,87.95c.09,17.208,14.521,31.647,31.54,31.561,17.984-.09,32.216-14.107,32.119-31.633C594.42,69.724,580.171,55.741,561.907,55.876Zm15.018,23.079c-1.866.462-2.032,1.887-2.083,3.515-.176,5.508-2.684,9.523-7.771,11.869-2.107.973-2.68,5.415-.845,7.306.928.955,1.852,1.7,1.311,3.149-.593,1.569-1.89,1.838-3.377,1.773-1.131-.048-2.266-.038-3.4-.01a2.553,2.553,0,0,1-2.718-1.607,2.685,2.685,0,0,1,.779-3.035c2.673-2.87,1.935-6.4-1.556-8.106-4.522-2.211-6.592-6.026-6.8-10.893-.086-2-.107-3.718-2.611-4.253a2.129,2.129,0,0,1-1.711-2.873c.479-1.576,1.707-1.97,3.28-1.8,3.556.386,5.55,2.808,6.019,7.464.542,5.384.866,5.936,4.795,7.809,0-2.977-.062-5.829.031-8.675.038-1.245-.8-1.58-1.511-2.28-1.8-1.79-1.052-3.984,1.452-4.346a32.433,32.433,0,0,1,4.526-.055,2.626,2.626,0,0,1,2.88,1.928,2.083,2.083,0,0,1-1.4,2.718c-1.556.552-1.152,1.745-1.169,2.794-.041,2.6-.014,5.195-.014,8.113,3.711-1.442,4.491-4.067,4.57-7.306.11-4.581,1.966-7.185,5.422-8.013,1.7-.407,3.411-.435,4.074,1.563C579.7,77.513,578.66,78.527,576.925,78.955Z" transform="translate(70.949 70.9)" fill="#ffa000"/>
  </g>
</svg>
