<svg xmlns="http://www.w3.org/2000/svg" width="98.994" height="126.741" viewBox="0 0 98.994 126.741">
  <g id="Group_8278" data-name="Group 8278" transform="translate(-2441.252 -416.525)">
    <path id="Path_1667" data-name="Path 1667" d="M2443.236,889.084a3.333,3.333,0,0,1-1.948-3.386c.041-6.022-.129-12.049.044-18.066.532-18.44,8.97-32.1,25.125-41a3.209,3.209,0,0,1,.332-.153,1.169,1.169,0,0,1,.249,0c-.678,1.956-1.377,3.86-2,5.788a134.131,134.131,0,0,0-4.907,20.966,1.276,1.276,0,0,1-1.066,1.214,10.8,10.8,0,0,0-7.407,11.492A10.83,10.83,0,0,0,2472.9,867.4a10.7,10.7,0,0,0-6.455-12.668c-1.054-.41-1.152-.809-.982-1.836a119.983,119.983,0,0,1,8.184-28.57,1.64,1.64,0,0,1,1.176-1.065,44.449,44.449,0,0,1,11.809-1.723c4.654,0,9.324-.3,13.95.479,1.659.28,3.3.665,4.954.981a.811.811,0,0,1,.758.674c1.147,5.136,2.39,10.252,2.571,15.552a1.622,1.622,0,0,1-1.082,1.758c-5.5,2.735-10.548,6.106-14.43,10.971a16.147,16.147,0,0,0-3.613,7.99c-.617,4.615,1.282,8.157,4.687,11.06a8.856,8.856,0,0,0,1.2.863,2.565,2.565,0,0,0,3.428-.6,2.6,2.6,0,0,0-.366-3.56c-.518-.469-1.106-.864-1.608-1.348a6.408,6.408,0,0,1-1.729-7.42c1.356-3.57,4.007-6.086,6.891-8.393a44.668,44.668,0,0,1,7.493-4.747c.409-.211.747-.391,1.2.036,4.02,3.782,7.633,7.859,9.67,13.1a12.418,12.418,0,0,1,.8,3.347,6.644,6.644,0,0,1-4.357,7.245c-.376.164-.768.293-1.135.473a2.587,2.587,0,0,0,1.977,4.779c7.3-2.393,10.479-9.087,7.907-16.855-1.941-5.862-5.715-10.529-10.106-14.7a4.686,4.686,0,0,1-1.682-3.89c.1-4.512-.9-8.906-1.841-13.292-.05-.233-.085-.47-.156-.861a38.868,38.868,0,0,1,7.657,4.107,45.868,45.868,0,0,1,20.016,31.453,42.934,42.934,0,0,1,.532,7.021c0,5.94-.023,11.88.019,17.82a3.4,3.4,0,0,1-1.958,3.51Z" transform="translate(0 -345.818)" fill="#ffa000"/>
    <path id="Path_1668" data-name="Path 1668" d="M2619.4,471.626a27.551,27.551,0,1,1,27.516-27.6A27.577,27.577,0,0,1,2619.4,471.626Z" transform="translate(-128.641 0)" fill="#ffa000"/>
  </g>
</svg>
