<svg xmlns="http://www.w3.org/2000/svg" width="192.533" height="187.918" viewBox="0 0 192.533 187.918">
  <g id="Group_8271" data-name="Group 8271" transform="translate(-337.347 270.768)">
    <g id="Group_8269" data-name="Group 8269" transform="translate(337.347 -270.768)">
      <path id="Path_1622" data-name="Path 1622" d="M509.686-164.811c-15.927-10.19-35.159-9.809-50.736,1.093-2.536,1.774-4.792,4.978-7.561.342-2.015-3.372-7.063-5.535-2.011-10.937,7.075-7.561,11.684-17,16.708-26.016,1.875-3.364,4.414-7.891,1.84-11.158-4.185-5.313-3.174-10.925-3.216-17.949,1.326-11.645-2.878-22.356-12.64-31.056-18.933-16.88-48.266-12.36-58.593,9.132-4.442,9.257-4.251,19.081-3.757,28.972.113,2.306,1.392,4.741-1.112,6.837-5.818,4.869-4.138,10.575-1.035,15.954,4.057,7.024,7.907,14.324,13.041,20.516,4.375,5.274,3.465,9.381.856,14.671-2.279,4.624-6.359,6.095-10.513,7.308-9.673,2.828-19.513,5.076-29.221,7.8-13.072,3.664-20.87,12.38-23.674,25.6-2.353,11.1.945,15.254,12.2,15.266,29.644.031,59.289.082,88.933-.07,3.854-.019,5.9,1.015,8,4.523A44.392,44.392,0,0,0,495.07-84.057c18.933-4.667,30.181-17.07,34.032-35.887C532.571-136.886,524.147-155.558,509.686-164.811ZM415.93-249.723c.109-1.77,1.132-2.851,2.847-2.621,3.629.486,4.827-.93,4.5-4.5-.191-2.093,1.482-2.828,3.477-2.886,2.33-.07,3.158,1.322,3.007,3.232-.261,3.24,1,4.523,4.224,4.13a2.318,2.318,0,0,1,2.9,2.478c.015,1.427.428,3.64-1.33,3.757-4.064.264-6.285,1.6-6.1,6.067.054,1.377-1.661,1.536-2.94,1.49-1.318.058-3.123-.436-3.014-1.505.467-4.659-1.8-5.9-5.947-6.021C415.794-246.156,415.837-248.218,415.93-249.723Zm-25.6,45.672c-2.271-4.239-1.641-7.759,4.029-8.494,1.532-.2,3.006-.3,3.388-2.155,3.162-15.46,15.413-16.627,25.864-17.693,10.361.385,18.521,1.828,25.95,6.289,3.745,2.248,6.764,4.869,7.53,9.463.323,1.937.879,4.586,2.8,4.858,6.27.883,4.757,4.881,3.026,7.946-5.92,10.482-11.271,21.426-20.069,29.971-10.521,10.221-21.57,10.47-31.854.292C402.155-182.325,396.153-193.184,390.331-204.05Zm36.338,60.51c-10.023-.128-18.334-4.407-22.978-13.519-2.225-4.372,3.259-7.678,3.119-13.072,11.7,8.8,22.589,11,34.257,3.9,1.688-1.031,3.586-1.357,4.158.856.863,3.337,6.756,4.5,4.1,9.148C444.338-147.523,436.431-143.42,426.669-143.54Zm57.9,52.805a37.042,37.042,0,0,1-36.256-37.221c.175-19.715,16.938-36.315,36.552-36.186,20.613.132,37.571,17.16,37.069,37.213C521.432-106.724,504.556-90.377,484.573-90.735Z" transform="translate(-337.347 270.768)" fill="#ffa000"/>
      <path id="Path_1623" data-name="Path 1623" d="M376.531-248.582c-6.161,1.276-12.59-1.536-18.649.988C364.233-244.8,370.5-244.253,376.531-248.582Z" transform="translate(-278.015 334.563)" fill="#ffa000"/>
      <path id="Path_1624" data-name="Path 1624" d="M376.3-254.161c-4.383-4.982-8.654-4.2-14.064.727C367.739-253.656,372-255.021,376.3-254.161Z" transform="translate(-265.423 309.001)" fill="#ffa000"/>
      <path id="Path_1625" data-name="Path 1625" d="M367.986-254.324c-6.161-4.842-9.14-4.535-13.332,2.649C359.456-255.592,363.719-253.075,367.986-254.324Z" transform="translate(-287.345 308.88)" fill="#ffa000"/>
      <path id="Path_1626" data-name="Path 1626" d="M374.492-255.269H362.5C367.149-250.956,368.872-250.936,374.492-255.269Z" transform="translate(-264.681 315.55)" fill="#ffa000"/>
      <path id="Path_1627" data-name="Path 1627" d="M365.049-253.586c-3.885-2.038-4.55-2.1-9.793-.844C359.752-251.478,359.752-251.478,365.049-253.586Z" transform="translate(-285.602 315.559)" fill="#ffa000"/>
      <path id="Path_1628" data-name="Path 1628" d="M379.707-232.488" transform="translate(-214.956 381.371)" fill="#ffa000"/>
      <path id="Path_1629" data-name="Path 1629" d="M381.406-232.871" transform="translate(-210.047 380.265)" fill="#ffa000"/>
      <path id="Path_1630" data-name="Path 1630" d="M379.662-232.231" transform="translate(-215.086 382.114)" fill="#ffa000"/>
      <path id="Path_1631" data-name="Path 1631" d="M375.086-233.527h0" transform="translate(-228.306 378.368)" fill="#ffa000"/>
    </g>
    <g id="Group_8270" data-name="Group 8270" transform="translate(460.102 -151.996)">
      <path id="Path_1632" data-name="Path 1632" d="M407.713-240.23h2.139c.035.031.066.082.105.086a7.2,7.2,0,0,1,3.633,1.567,18.637,18.637,0,0,1,7.32,17.49,18.346,18.346,0,0,1-7.047,12.605,7.644,7.644,0,0,1-6.795,1.653,7.638,7.638,0,0,1-5.8-8.518,7.683,7.683,0,0,1,3-5.06,3.5,3.5,0,0,0,1.155-1.49c-.373,0-.677,0-.976,0a4.617,4.617,0,0,0-4.885,4.866c0,2.7.008,5.394-.012,8.094a.7.7,0,0,0,.459.72,10.713,10.713,0,0,1,5.406,11.812,10.71,10.71,0,0,1-12.605,8.109,10.756,10.756,0,0,1-8.261-12.893,10.654,10.654,0,0,1,5.531-7.1c.183-.1.323-.179.323-.443-.016-2.917.058-5.838-.035-8.755-.09-2.839-2.559-4.873-5.807-4.337a3.658,3.658,0,0,0,1.167,1.447,7.321,7.321,0,0,1,3.006,5.43,7.268,7.268,0,0,1-3.878,7.331,7.225,7.225,0,0,1-8.3-.541A18.507,18.507,0,0,1,369.3-219.48a16.923,16.923,0,0,0-.393-2.112v-3.769c.113-.023.1-.117.105-.195a18.751,18.751,0,0,1,6.262-12.119,9.24,9.24,0,0,1,3.839-2.3,2.322,2.322,0,0,0,.895-.257h2.038a2.582,2.582,0,0,0,.906.2,7.652,7.652,0,0,1,5.737,8.522,7.652,7.652,0,0,1-3,5.06,3.45,3.45,0,0,0-1.151,1.494c.319,0,.572-.008.821,0a4.626,4.626,0,0,0,5.021-4.309c.016-.28.148-.276.35-.276.782.008,1.563.019,2.341,0,.315-.012.408.07.389.389a7.527,7.527,0,0,1-2.664,5.4c-.311.268-.315.381,0,.653a7.39,7.39,0,0,1,2.656,5.706c.016,1.322,0,2.649,0,3.971,0,1.237,0,2.477,0,3.714,0,.136-.109.373.214.323a10.685,10.685,0,0,1,2.8,0c.023-.047.035-.062.035-.078,0-2.513.027-5.025,0-7.534a7.6,7.6,0,0,1,2.793-6.207c.233-.194.2-.3-.019-.443a2.491,2.491,0,0,1-.307-.264,7.694,7.694,0,0,1-2.458-5.037c-.043-.432.031-.642.54-.591.537.051,1.085.012,1.626.012.852,0,.832,0,.984.828a4.7,4.7,0,0,0,5.737,3.668,4.7,4.7,0,0,0-1.439-1.672,7.347,7.347,0,0,1-2.614-7.374,7.363,7.363,0,0,1,5.375-5.853A3.137,3.137,0,0,0,407.713-240.23ZM392.1-197.222c.288,0,.976-.2,1.252.051.319.292.078.988.1,1.509.019.471-.159,1.108.082,1.369.276.307.922.082,1.408.093.506.008,1.194.179,1.47-.078.319-.3.078-.988.1-1.509.019-.471-.16-1.108.078-1.369.28-.307.926-.074,1.412-.093.5-.023,1.19.171,1.466-.086.319-.292.085-.988.1-1.505.008-.471.167-1.108-.074-1.373-.276-.3-.922-.07-1.408-.093-.506-.019-1.194.175-1.47-.082-.319-.3-.078-.988-.1-1.509-.019-.471.159-1.108-.078-1.369-.28-.307-.926-.082-1.412-.093-.505-.012-1.19-.179-1.47.078-.315.3-.074.988-.1,1.509-.015.471.163,1.108-.078,1.369-.276.307-.926.074-1.408.093-.506.023-1.194-.171-1.47.086-.319.292-.086.984-.1,1.505-.008.471-.163,1.108.074,1.373C390.751-197.043,391.4-197.292,392.1-197.222Z" transform="translate(-368.909 240.23)" fill="#ffa000"/>
    </g>
  </g>
</svg>
